<svg version="1.2" baseProfile="tiny-ps" xmlns="http://www.w3.org/2000/svg" viewBox="0 0 1750 405" width="164" height="38">
	<title>bd-server-logo-svg</title>
	<style>
		tspan { white-space:pre }
		.shp0 { fill: #ffcb4c } 
		.shp1 { fill: #65471b } 
		.shp2 { fill: #f19020 } 
	</style>
	<g id="Layer 1">
		<path id="Path 0" class="shp0" d="M354.43 42.39C353.07 42.58 350.86 43 349.51 43.32C348.15 43.64 345.57 44.4 343.76 45.01C341.96 45.61 338.63 47.01 336.38 48.11C334.12 49.21 330.92 51.02 329.26 52.13C327.6 53.24 325.27 54.94 324.06 55.91C322.86 56.88 320.65 58.91 319.14 60.42C317.64 61.94 315.62 64.22 314.66 65.5C313.7 66.78 312.34 68.8 311.63 70.01C310.92 71.21 309.96 73.06 309.49 74.11C309.03 75.16 308.32 77.13 307.91 78.49C307.32 80.44 307.14 81.69 307.04 84.51C306.93 87.54 307.02 88.64 307.64 92.03C308.04 94.21 308.9 98.21 309.56 100.92C310.22 103.63 311.27 107.5 311.9 109.53C312.52 111.57 313.78 115.2 314.68 117.6C315.59 120.01 317.28 123.95 318.43 126.36C319.59 128.76 321.26 131.96 322.14 133.47C323.01 134.97 324.53 137.37 325.51 138.8C326.49 140.23 328.3 142.63 329.53 144.14C330.76 145.64 332.99 148.01 334.48 149.4C335.98 150.8 337.29 151.93 337.4 151.93C337.51 151.93 337.87 151.41 338.19 150.77C338.53 150.1 338.83 148.86 338.91 147.83C339 146.61 338.88 145.38 338.53 143.94L338.02 141.82C338.98 140.55 339.46 140.28 340.1 140.22C340.61 140.17 341.3 140.21 341.64 140.29C341.98 140.37 342.76 140.91 343.38 141.47C344 142.03 344.74 142.96 345.03 143.52C345.31 144.09 345.72 145.32 345.95 146.26C346.17 147.2 346.35 148.58 346.35 149.33C346.36 150.09 346.24 151.13 346.1 151.66C345.96 152.19 345.39 153.29 344.85 154.12C344.3 154.95 343.95 155.73 344.08 155.85C344.2 155.98 349.42 154.9 355.66 153.46C361.9 152.02 367.54 150.84 368.17 150.84C369.05 150.84 369.51 151.01 370.02 151.52C370.4 151.9 370.77 152.61 370.86 153.1C370.95 153.58 370.88 154.32 370.72 154.74C370.56 155.15 370.08 155.7 369.66 155.97C369.23 156.23 366.16 157.12 362.83 157.95L356.79 159.46C358.49 160.71 358.68 160.73 361.95 160.6C363.83 160.52 366.29 160.26 367.42 160.02C368.55 159.78 370.27 159.32 371.25 159C372.23 158.68 374.14 157.9 375.49 157.26C376.85 156.62 379.25 155.23 380.83 154.16C382.41 153.1 384.87 151.21 386.3 149.95C387.73 148.7 389.99 146.44 391.33 144.95C392.67 143.45 394.65 141.05 395.73 139.62C396.82 138.19 398.47 135.86 399.41 134.43C400.35 133 402.06 130.17 403.2 128.14C404.35 126.1 406.17 122.53 407.25 120.2C408.32 117.87 409.67 114.79 410.23 113.36C410.8 111.93 411.97 108.67 412.83 106.12C413.7 103.56 414.91 99.5 415.52 97.09C416.14 94.68 416.97 90.93 417.37 88.75C418 85.29 418.07 84.3 417.95 81.09C417.85 78.46 417.64 76.8 417.21 75.34C416.89 74.21 416.16 72.31 415.6 71.1C415.04 69.9 413.9 67.87 413.06 66.59C412.22 65.31 410.72 63.31 409.72 62.14C408.72 60.98 406.77 59.03 405.38 57.82C403.98 56.61 401.43 54.66 399.7 53.5C397.97 52.33 394.83 50.5 392.72 49.44C390.62 48.38 387.54 47.01 385.89 46.39C384.23 45.78 381.83 44.97 380.55 44.59C379.27 44.21 376.69 43.6 374.81 43.22C372.93 42.84 370.28 42.41 368.93 42.25C367.57 42.1 364.31 41.99 361.68 42C359.04 42.02 355.78 42.19 354.43 42.39Z" />
		<path id="Path 1" class="shp1" d="M345.54 117.48C344.71 117.61 343.11 118.02 341.98 118.4C340.85 118.79 339.78 119.32 339.58 119.58C339.39 119.85 339.24 120.34 339.24 120.68C339.25 121.02 339.49 121.54 339.79 121.84C340.1 122.14 340.62 122.39 340.96 122.39C341.3 122.39 342.56 122.06 343.76 121.67C345.54 121.1 346.49 120.96 348.82 120.96C351.21 120.96 352.05 121.08 353.81 121.67C354.98 122.07 356.15 122.39 356.41 122.4C356.68 122.4 357.1 122.19 357.36 121.92C357.62 121.65 357.84 121.09 357.84 120.68C357.85 120.27 357.6 119.68 357.3 119.38C357 119.08 355.92 118.58 354.91 118.28C353.89 117.97 352.32 117.61 351.42 117.46C350.52 117.32 349.16 117.21 348.41 117.23C347.66 117.25 346.37 117.36 345.54 117.48ZM370.7 125.96C369.73 126.1 368.28 126.4 367.49 126.63C366.7 126.85 365.87 127.23 365.64 127.45C365.42 127.68 365.23 128.23 365.23 128.68C365.23 129.26 365.46 129.67 365.99 130.07C366.4 130.39 366.98 130.58 367.29 130.51C367.59 130.44 368.26 130.28 368.78 130.15L369.72 129.91C368.59 131.61 368.14 132.72 367.99 133.47C367.83 134.33 367.82 135.27 367.99 136C368.13 136.64 368.41 137.5 368.62 137.91C368.82 138.33 369.38 139 369.85 139.42C370.32 139.83 371.1 140.25 371.59 140.34C372.08 140.43 372.91 140.37 373.44 140.21C373.97 140.05 374.73 139.57 375.14 139.15C375.54 138.73 376.08 137.9 376.33 137.3C376.58 136.7 376.78 135.53 376.78 134.7C376.78 133.87 376.57 132.7 376.32 132.1C376.06 131.5 375.46 130.65 374.99 130.21L374.12 129.42C376.88 129.71 378.42 130.11 379.32 130.5C380.22 130.89 381.39 131.26 381.92 131.33C382.6 131.42 383.02 131.31 383.36 130.96C383.63 130.68 383.85 130.15 383.85 129.78C383.85 129.4 383.63 128.89 383.36 128.65C383.1 128.4 382.35 127.94 381.71 127.62C381.08 127.3 379.66 126.8 378.57 126.51C377.48 126.22 375.66 125.92 374.53 125.85C373.41 125.78 371.68 125.83 370.7 125.96ZM346.62 127.41C345.69 127.9 345.23 128.39 344.64 129.53C344.08 130.62 343.88 131.4 343.88 132.51C343.88 133.62 344.08 134.41 344.64 135.5C345.23 136.65 345.69 137.14 346.63 137.64C347.61 138.15 348.09 138.25 348.96 138.1C349.73 137.96 350.38 137.58 351.16 136.78C351.9 136.03 352.37 135.23 352.59 134.36C352.78 133.64 352.93 132.72 352.93 132.31C352.93 131.89 352.74 131 352.51 130.32C352.27 129.65 351.75 128.74 351.34 128.31C350.93 127.87 350.2 127.35 349.71 127.14C349.22 126.94 348.6 126.77 348.33 126.77C348.06 126.77 347.3 127.05 346.62 127.41Z" />
		<path id="Path 2" class="shp2" d="M338.69 140.89C338.36 141.29 338.11 141.81 338.13 142.05C338.15 142.3 338.36 143.23 338.6 144.14C338.88 145.2 338.99 146.45 338.91 147.69C338.84 148.75 338.6 149.98 338.36 150.43C338.13 150.88 336.59 152.6 334.94 154.26C332.88 156.33 331.72 157.74 331.22 158.77C330.83 159.6 330.36 161.01 330.2 161.92C330.03 162.82 329.98 164.24 330.08 165.06C330.18 165.89 330.39 167.12 330.55 167.8C330.71 168.48 331.18 169.77 331.6 170.67C332.01 171.57 333.01 173.04 333.82 173.93C334.62 174.82 336.02 176.03 336.92 176.61C337.83 177.2 339.43 177.93 340.48 178.25C342.11 178.74 342.81 178.8 345.27 178.65C346.85 178.56 349.61 178.13 351.42 177.71C353.29 177.27 355.17 176.65 355.78 176.27C356.43 175.86 357.01 175.22 357.24 174.64C357.45 174.1 357.54 173.38 357.44 173C357.34 172.62 357.08 172.13 356.87 171.9C356.54 171.55 356.57 171.45 357.1 171.19C357.44 171.03 357.94 170.41 358.22 169.83C358.57 169.1 358.69 168.45 358.58 167.8C358.49 167.27 358.1 166.56 357.72 166.23L357.03 165.61C357.92 164.87 358.35 164.31 358.56 163.9C358.77 163.49 358.94 162.84 358.94 162.46C358.94 162.09 358.81 161.5 358.65 161.17C358.5 160.83 358.01 160.3 357.57 160L356.77 159.46C366.16 157.12 369.23 156.23 369.66 155.97C370.08 155.7 370.56 155.15 370.72 154.74C370.88 154.32 370.95 153.58 370.86 153.1C370.77 152.61 370.4 151.9 370.02 151.52C369.51 151.01 369.05 150.84 368.17 150.84C367.54 150.84 361.9 152.02 355.66 153.46C349.42 154.9 344.2 155.98 344.08 155.85C343.95 155.73 344.3 154.95 344.85 154.12C345.39 153.29 345.96 152.19 346.1 151.66C346.24 151.13 346.36 150.09 346.35 149.33C346.35 148.58 346.17 147.2 345.95 146.26C345.72 145.32 345.34 144.15 345.1 143.66C344.86 143.17 344.27 142.36 343.8 141.86C343.33 141.36 342.6 140.77 342.19 140.56C341.77 140.35 340.95 140.17 340.36 140.17C339.53 140.17 339.15 140.34 338.69 140.89Z" />
		<path id="Path 3" class="shp1" d="M354.43 142.48C354.28 142.54 353.57 142.66 352.86 142.75C352.09 142.84 351.33 143.13 351.01 143.45C350.71 143.75 350.46 144.25 350.46 144.55C350.46 144.85 350.74 145.42 351.08 145.82L351.69 146.54C356.33 146.01 357.73 146 359.01 146.19C360.03 146.34 361.56 146.71 362.43 147.01C363.3 147.31 364.59 147.93 365.3 148.38C366.02 148.83 366.88 149.2 367.22 149.19C367.56 149.19 367.97 149.1 368.13 148.99C368.3 148.88 368.58 148.51 368.75 148.17C368.97 147.74 368.98 147.35 368.79 146.87C368.64 146.5 368.18 145.95 367.76 145.66C367.35 145.37 366.21 144.77 365.23 144.32C364.26 143.87 362.72 143.31 361.81 143.06C360.91 142.82 358.94 142.56 357.44 142.49C355.93 142.42 354.58 142.41 354.43 142.48Z" />
	</g>
	<path id="ARMCORD + sMARTCORD " fill="#7289da" aria-label="ARMCORD + sMARTCORD"  d="M16.56 341L1.08 341L43.37 230.9L59.06 230.9L104.12 341L87.53 341L74.68 307.65L28.65 307.65L16.56 341ZM44.94 263.5L32.85 295.79L70.18 295.79L58.69 265.3Q53.43 251.4 50.88 242.47Q48.77 253.06 44.94 263.5ZM130.56 341L115.99 341L115.99 230.9L164.81 230.9Q179.53 230.9 187.19 233.91Q194.85 236.83 199.43 244.34Q204.01 251.85 204.01 260.94Q204.01 272.66 196.42 280.69Q188.84 288.73 172.99 290.91Q178.77 293.69 181.78 296.39Q188.16 302.25 193.87 311.03L213.02 341L194.7 341L180.13 318.09Q173.74 308.18 169.61 302.92Q165.48 297.67 162.18 295.56Q158.95 293.46 155.57 292.63Q153.09 292.11 147.46 292.11L130.56 292.11L130.56 341ZM130.56 243.07L130.56 279.49L161.88 279.49Q171.87 279.49 177.5 277.46Q183.13 275.36 186.06 270.86Q188.99 266.27 188.99 260.94Q188.99 253.13 183.28 248.1Q177.65 243.07 165.41 243.07L130.56 243.07ZM240.43 341L226.39 341L226.39 230.9L248.32 230.9L274.38 308.86Q277.98 319.75 279.64 325.15Q281.51 319.15 285.49 307.5L311.85 230.9L331.46 230.9L331.46 341L317.41 341L317.41 248.85L285.42 341L272.28 341L240.43 247.27L240.43 341Z" />
	<path id="ARMCORD + sMARTCORD " fill="#f7f7f7" aria-label="ARMCORD + sMARTCORD"  d="M407.23 307.01C401.24 322.08 376.63 318.39 376.63 305.32L376.63 267.79C376.63 254.25 400.93 251.18 408.31 264.71L430.77 255.64C422 236.26 405.85 230.57 392.47 230.57C370.63 230.57 349.1 243.18 349.1 267.79L349.1 305.32C349.1 330.08 370.63 342.54 392.01 342.54C405.7 342.54 422.15 335.77 431.23 318.08ZM438.61 305.16C438.61 330.08 461.22 342.54 483.83 342.54C506.44 342.54 528.9 330.08 528.9 305.16L528.9 267.94C528.9 243.02 506.29 230.57 483.68 230.57C461.07 230.57 438.61 242.87 438.61 267.94ZM466.14 267.94C466.14 259.94 474.76 255.64 483.37 255.64C492.29 255.64 501.37 259.48 501.37 267.94L501.37 305.16C501.37 313.01 492.6 317.01 483.83 317.01C475.06 317.01 466.14 313.16 466.14 305.16ZM601.49 341L635.79 341L606.11 303.62C619.34 299.47 627.49 288.09 627.49 267.94C626.87 242.41 609.49 232.1 587.04 232.1L543.51 232.1L543.51 341L571.35 341L571.35 306.39L576.27 306.39ZM571.35 282.71L571.35 257.79L587.5 257.79C604.88 257.79 604.88 282.71 587.5 282.71ZM642.13 252.06L642.12 273L670.27 300.91L670.25 257.18C687.44 257.34 687.53 257.34 689.58 257.89C690.72 258.19 692.21 258.75 692.89 259.14C693.57 259.53 694.54 260.25 695.04 260.74C695.54 261.23 696.22 262.04 696.55 262.56C696.88 263.07 697.35 264.14 697.6 264.93L698.06 266.38L698.06 306.07C697.24 308.32 696.63 309.52 696.18 310.2C695.71 310.92 694.86 311.81 694.13 312.35C693.45 312.85 692.42 313.47 691.85 313.72C691.29 313.98 690.21 314.35 689.48 314.55C688.32 314.87 686.73 314.94 678 315.08C672.43 315.16 662.08 315.24 655 315.25L642.13 315.27L642.13 341.32C684.98 341.32 689.03 341.27 691.08 341.01C692.41 340.84 694.48 340.5 695.68 340.26C696.87 340.03 698.92 339.52 700.23 339.14C701.53 338.76 703.63 338.03 704.88 337.5C706.13 336.98 707.76 336.22 708.5 335.81C709.23 335.41 710.58 334.59 711.49 334C712.4 333.41 713.98 332.22 715.01 331.36C716.03 330.5 717.52 329.03 718.32 328.1C719.11 327.16 720.21 325.73 720.76 324.92C721.31 324.11 722.11 322.74 722.54 321.89C722.98 321.04 723.67 319.41 724.1 318.27C724.52 317.13 725.05 315.41 725.28 314.45C725.51 313.48 725.82 311.71 725.98 310.52C726.21 308.79 726.27 304.03 726.27 286.95C726.27 269.33 726.22 265.1 725.97 262.97C725.8 261.55 725.44 259.46 725.16 258.32C724.88 257.18 724.4 255.55 724.1 254.7C723.79 253.85 723.15 252.36 722.68 251.39C722.2 250.43 721.39 248.98 720.87 248.19C720.36 247.39 719.34 246 718.61 245.1C717.88 244.2 716.4 242.67 715.32 241.72C714.24 240.76 712.56 239.45 711.6 238.8C710.63 238.16 708.82 237.11 707.57 236.47C706.31 235.83 704.55 235.01 703.64 234.65C702.73 234.29 700.73 233.64 699.19 233.21C697.66 232.78 695.29 232.23 693.92 231.99C692.56 231.75 690.32 231.46 688.96 231.35C687.47 231.22 677.62 231.14 664.31 231.14L642.13 231.13ZM791.14 278.55L764.22 278.55L764.22 304.7L791.14 304.7L791.14 331L817.13 331L817.13 304.7L842.97 304.7L842.97 278.55L817.13 278.55L817.13 252.41L791.14 252.41ZM878.5 322.85C888.65 335.92 902.5 342.54 915.57 342.54C935.57 342.54 957.71 331 958.64 309.93C959.87 283.17 940.49 276.4 921.11 272.86C912.65 271.02 906.96 267.94 906.65 262.71C907.11 250.1 926.64 249.64 938.03 261.79L956.02 247.95C944.79 234.26 932.03 230.57 918.8 230.57C898.81 230.57 879.43 241.79 879.43 263.17C879.43 283.94 895.42 295.01 912.96 297.78C921.88 299.01 931.87 302.55 931.57 308.7C930.8 320.39 906.8 319.77 895.88 306.55ZM970.48 341L998.01 341L998.01 309.62L996.17 287.63L996.93 287.47L1011.55 324.85L1030.46 324.85L1044.77 287.47L1045.69 287.63L1044 309.62L1043.85 341L1071.53 341L1071.53 232.1L1044 232.1L1020.93 285.32L998.01 232.1L970.48 232.1ZM1142.28 232.1L1117.21 232.1L1079.22 341L1108.75 341L1115.52 319.16L1144.59 319.16L1151.67 341L1181.2 341ZM1121.67 294.7L1129.67 262.87L1130.44 262.87L1137.98 294.7ZM1246.41 341L1280.71 341L1251.03 303.62C1264.25 299.47 1272.4 288.09 1272.4 267.94C1271.79 242.41 1254.41 232.1 1231.95 232.1L1188.43 232.1L1188.43 341L1216.26 341L1216.26 306.39L1221.19 306.39ZM1216.26 282.71L1216.26 257.79L1232.41 257.79C1249.79 257.79 1249.79 282.71 1232.41 282.71ZM1365 258.1L1365 231.95L1279.33 231.95L1279.33 258.1L1308.24 258.1L1308.24 341L1336.08 341L1336.08 258.1ZM1430.37 307.01C1424.37 322.08 1399.76 318.39 1399.76 305.32L1399.76 267.79C1399.76 254.25 1424.06 251.18 1431.44 264.71L1453.9 255.64C1445.13 236.26 1428.98 230.57 1415.6 230.57C1393.76 230.57 1372.23 243.18 1372.23 267.79L1372.23 305.32C1372.23 330.08 1393.76 342.54 1415.14 342.54C1428.83 342.54 1445.28 335.77 1454.36 318.08ZM1461.74 305.16C1461.74 330.08 1484.35 342.54 1506.96 342.54C1529.57 342.54 1552.03 330.08 1552.03 305.16L1552.03 267.94C1552.03 243.02 1529.42 230.57 1506.81 230.57C1484.2 230.57 1461.74 242.87 1461.74 267.94ZM1489.27 267.94C1489.27 259.94 1497.89 255.64 1506.5 255.64C1515.42 255.64 1524.5 259.48 1524.5 267.94L1524.5 305.16C1524.5 313.01 1515.73 317.01 1506.96 317.01C1498.19 317.01 1489.27 313.16 1489.27 305.16ZM1624.63 341L1658.92 341L1629.24 303.62C1642.47 299.47 1650.62 288.09 1650.62 267.94C1650 242.41 1632.62 232.1 1610.17 232.1L1566.64 232.1L1566.64 341L1594.48 341L1594.48 306.39L1599.4 306.39ZM1594.48 282.71L1594.48 257.79L1610.63 257.79C1628.01 257.79 1628.01 282.71 1610.63 282.71ZM1665.26 252.06L1665.25 273L1693.4 300.91L1693.38 257.18C1710.57 257.34 1710.66 257.34 1712.71 257.89C1713.85 258.19 1715.34 258.75 1716.02 259.14C1716.7 259.53 1717.67 260.25 1718.17 260.74C1718.67 261.23 1719.35 262.04 1719.68 262.56C1720.01 263.07 1720.48 264.14 1720.73 264.93L1721.19 266.38L1721.19 306.07C1720.37 308.32 1719.76 309.52 1719.32 310.2C1718.84 310.92 1717.99 311.81 1717.26 312.35C1716.58 312.85 1715.55 313.47 1714.98 313.72C1714.42 313.98 1713.34 314.35 1712.61 314.55C1711.45 314.87 1709.86 314.94 1701.13 315.08C1695.56 315.16 1685.21 315.24 1678.13 315.25L1665.26 315.27L1665.26 341.32C1708.11 341.32 1712.16 341.27 1714.21 341.01C1715.54 340.84 1717.61 340.5 1718.81 340.26C1720 340.03 1722.05 339.52 1723.36 339.14C1724.66 338.76 1726.76 338.03 1728.01 337.5C1729.26 336.98 1730.89 336.22 1731.63 335.81C1732.36 335.41 1733.71 334.59 1734.62 334C1735.53 333.41 1737.12 332.22 1738.14 331.36C1739.16 330.5 1740.65 329.03 1741.45 328.1C1742.24 327.16 1743.34 325.73 1743.89 324.92C1744.44 324.11 1745.24 322.74 1745.67 321.89C1746.11 321.04 1746.8 319.41 1747.23 318.27C1747.65 317.13 1748.18 315.41 1748.41 314.45C1748.64 313.48 1748.95 311.71 1749.11 310.52C1749.34 308.79 1749.4 304.03 1749.4 286.95C1749.41 269.33 1749.35 265.1 1749.1 262.97C1748.93 261.55 1748.57 259.46 1748.29 258.32C1748.01 257.18 1747.53 255.55 1747.23 254.7C1746.92 253.85 1746.28 252.36 1745.81 251.39C1745.33 250.43 1744.52 248.98 1744 248.19C1743.49 247.39 1742.47 246 1741.74 245.1C1741.01 244.2 1739.53 242.67 1738.45 241.72C1737.37 240.76 1735.69 239.45 1734.73 238.8C1733.76 238.16 1731.95 237.11 1730.7 236.47C1729.45 235.83 1727.68 235.01 1726.77 234.65C1725.86 234.29 1723.86 233.64 1722.32 233.21C1720.79 232.78 1718.42 232.23 1717.05 231.99C1715.69 231.75 1713.45 231.46 1712.09 231.35C1710.6 231.22 1700.75 231.14 1687.44 231.14L1665.26 231.13Z" />
	<path id="Official AC&amp;SC Server " fill="#8e9297" aria-label="Official AC&amp;SC Server"  d="M538.63 121.03C538.63 98.88 525.63 83.91 505.05 83.91C484.57 83.91 471.26 98.99 471.26 121.24C471.26 143.38 484.46 158.35 504.84 158.35C525.43 158.35 538.63 143.17 538.63 121.03ZM524.7 121.13C524.7 136.83 517.32 146.92 504.94 146.92C492.68 146.92 485.3 136.83 485.3 121.13C485.3 105.43 492.68 95.35 504.94 95.35C517.21 95.35 524.7 105.43 524.7 121.13ZM576.78 93.48L575.12 83.29C573.87 83.08 572.21 82.87 570.03 82.87C559.73 82.87 552.66 87.03 552.66 98.16L552.66 106.79L545.39 106.79L545.39 116.97L552.66 116.97L552.66 157L565.04 157L565.04 116.97L576.16 116.97L574.6 106.79L565.04 106.79L565.04 99.4C565.04 94.93 567.32 93.06 571.59 93.06C573.67 93.06 575.54 93.27 576.78 93.48ZM611.3 93.48L609.64 83.29C608.39 83.08 606.73 82.87 604.54 82.87C594.25 82.87 587.18 87.03 587.18 98.16L587.18 106.79L579.9 106.79L579.9 116.97L587.18 116.97L587.18 157L599.55 157L599.55 116.97L610.68 116.97L609.12 106.79L599.55 106.79L599.55 99.4C599.55 94.93 601.84 93.06 606.1 93.06C608.18 93.06 610.05 93.27 611.3 93.48ZM632.41 91.29C632.41 87.03 629.08 84.02 625.02 84.02C620.87 84.02 617.54 87.03 617.54 91.29C617.54 95.45 620.87 98.36 625.02 98.36C629.08 98.36 632.41 95.45 632.41 91.29ZM631.16 157L631.16 106.79L618.68 106.79L618.68 157ZM682.2 153.05L680.54 142.44C675.86 146.08 671.91 147.23 667.55 147.23C659.96 147.23 654.34 142.24 654.34 131.84C654.34 121.86 659.54 116.56 666.71 116.56C671.6 116.56 675.65 118.01 679.92 121.24L681.68 110.01C677.73 107.51 672.74 105.75 665.99 105.75C652.68 105.75 641.76 114.69 641.76 132.15C641.76 148.58 651.64 157.94 665.57 157.94C671.91 157.94 677.11 156.58 682.2 153.05ZM706.43 91.29C706.43 87.03 703.1 84.02 699.05 84.02C694.89 84.02 691.56 87.03 691.56 91.29C691.56 95.45 694.89 98.36 699.05 98.36C703.1 98.36 706.43 95.45 706.43 91.29ZM705.18 157L705.18 106.79L692.71 106.79L692.71 157ZM758.31 157L758.31 122.59C758.31 110.53 751.86 105.75 738.87 105.75C730.86 105.75 724.73 107.51 718.9 109.8L720.46 119.78C725.87 117.39 731.38 115.73 737.2 115.73C742.71 115.73 745.83 117.81 745.83 123.21L745.83 124.67C725.56 126.64 715.58 131.94 715.58 144.11C715.58 152.84 721.3 158.04 729.82 158.04C737.31 158.04 742.5 154.71 746.56 150.45L747.6 157ZM745.83 143.17C742.4 146.6 738.35 148.58 734.08 148.58C730.24 148.58 727.95 146.4 727.95 142.76C727.95 137.97 731.38 133.71 745.83 131.94ZM783.67 157L783.67 81.94L771.2 83.91L771.2 157ZM882.86 155.23L856.55 84.95L841.89 84.95L814.97 157L828.59 157L835.14 138.81L862.27 138.81L869.13 157.73ZM858.43 127.58L838.88 127.58L848.65 99.92ZM942.12 152.11L940.25 140.26C934.74 143.9 928.71 146.29 922.05 146.29C909.37 146.29 901.05 136.93 901.05 121.13C901.05 105.54 908.85 95.87 921.53 95.87C928.5 95.87 934.32 98.68 939 102.21L940.97 89.21C935.67 85.99 929.23 84.02 920.91 84.02C900.63 84.02 887.02 98.99 887.02 121.24C887.02 143.48 900.11 158.25 921.01 158.25C929.12 158.25 936.4 155.75 942.12 152.11ZM1017.7 155.34L1002.83 139.33C1006.26 133.19 1008.65 125.71 1010.01 117.08L999.09 114.69C998.26 121.03 996.91 126.43 995.14 130.8L977.88 112.5C973.93 108.34 972.16 105.54 972.16 102C972.16 97.95 974.87 94.93 980.17 94.93C985.16 94.93 990.46 97.01 995.97 100.34L997.95 88.38C993.16 85.78 986.82 83.91 979.44 83.91C966.65 83.91 959.17 91.4 959.17 101.59C959.17 108.14 961.35 112.3 965.72 117.18C956.57 121.96 950.43 128.62 950.43 138.81C950.43 151.18 959.48 158.25 974.14 158.25C982.66 158.25 989.84 154.92 995.45 148.99L1003.87 157.62ZM988.69 141.51C984.95 145.77 980.38 147.85 975.49 147.85C968.21 147.85 963.43 143.48 963.43 137.25C963.43 132.26 966.65 127.89 972.47 124.56ZM1067.91 136.52C1067.91 125.39 1062.51 120.3 1047.74 114.27C1037.76 110.11 1035.48 107.93 1035.48 103.35C1035.48 98.99 1038.49 95.66 1045.35 95.66C1050.97 95.66 1057.1 97.84 1062.3 101.27L1064.38 88.8C1059.18 86.1 1053.57 84.43 1045.46 84.43C1032.05 84.43 1022.27 91.81 1022.27 104.5C1022.27 115.62 1027.89 120.2 1041.82 125.91C1052.22 130.39 1054.71 132.57 1054.71 137.87C1054.71 143.59 1050.34 146.6 1044 146.6C1036.83 146.6 1029.34 143.8 1023.31 140.26L1021.23 152.84C1027.58 155.86 1035.06 157.83 1043.79 157.83C1057.62 157.83 1067.91 150.55 1067.91 136.52ZM1131.54 152.11L1129.67 140.26C1124.16 143.9 1118.13 146.29 1111.48 146.29C1098.79 146.29 1090.47 136.93 1090.47 121.13C1090.47 105.54 1098.27 95.87 1110.96 95.87C1117.92 95.87 1123.74 98.68 1128.42 102.21L1130.4 89.21C1125.09 85.99 1118.65 84.02 1110.33 84.02C1090.06 84.02 1076.44 98.99 1076.44 121.24C1076.44 143.48 1089.54 158.25 1110.44 158.25C1118.54 158.25 1125.82 155.75 1131.54 152.11ZM1210.14 136.52C1210.14 125.39 1204.73 120.3 1189.97 114.27C1179.99 110.11 1177.7 107.93 1177.7 103.35C1177.7 98.99 1180.72 95.66 1187.58 95.66C1193.19 95.66 1199.33 97.84 1204.52 101.27L1206.6 88.8C1201.4 86.1 1195.79 84.43 1187.68 84.43C1174.27 84.43 1164.5 91.81 1164.5 104.5C1164.5 115.62 1170.11 120.2 1184.04 125.91C1194.44 130.39 1196.93 132.57 1196.93 137.87C1196.93 143.59 1192.57 146.6 1186.23 146.6C1179.05 146.6 1171.57 143.8 1165.54 140.26L1163.46 152.84C1169.8 155.86 1177.29 157.83 1186.02 157.83C1199.85 157.83 1210.14 150.55 1210.14 136.52ZM1262.74 131.32C1262.74 117.08 1255.99 105.75 1240.91 105.75C1227.81 105.75 1218.04 115.62 1218.04 131.94C1218.04 150.03 1228.54 158.04 1242.57 158.04C1250.68 158.04 1257.23 155.65 1262.64 151.91L1261.18 142.13C1255.67 145.98 1250.37 148.37 1243.93 148.37C1236.23 148.37 1231.03 144.11 1230.41 134.34L1262.64 134.34C1262.64 133.61 1262.74 132.36 1262.74 131.32ZM1250.58 126.54L1230.62 126.54C1231.55 118.33 1235.61 114.37 1240.6 114.37C1246.63 114.37 1249.75 118.74 1250.58 126.54ZM1303.08 118.12L1301.11 105.75C1293.31 106.16 1288.32 111.05 1284.99 116.87L1283.43 106.79L1272.83 106.79L1272.83 157L1285.3 157L1285.3 128.2C1288.84 122.8 1295.29 118.64 1303.08 118.12ZM1353.92 106.79L1341.55 106.79L1330.74 141.72L1319.51 106.06L1306.41 107.72L1323.98 157.21L1336.14 157.21ZM1402.37 131.32C1402.37 117.08 1395.61 105.75 1380.54 105.75C1367.44 105.75 1357.66 115.62 1357.66 131.94C1357.66 150.03 1368.16 158.04 1382.2 158.04C1390.31 158.04 1396.86 155.65 1402.26 151.91L1400.81 142.13C1395.3 145.98 1390 148.37 1383.55 148.37C1375.86 148.37 1370.66 144.11 1370.04 134.34L1402.26 134.34C1402.26 133.61 1402.37 132.36 1402.37 131.32ZM1390.2 126.54L1370.24 126.54C1371.18 118.33 1375.23 114.37 1380.22 114.37C1386.25 114.37 1389.37 118.74 1390.2 126.54ZM1442.71 118.12L1440.73 105.75C1432.93 106.16 1427.94 111.05 1424.62 116.87L1423.06 106.79L1412.45 106.79L1412.45 157L1424.93 157L1424.93 128.2C1428.46 122.8 1434.91 118.64 1442.71 118.12Z" />
</svg>