<svg version="1.2" baseProfile="tiny-ps" xmlns="http://www.w3.org/2000/svg" viewBox="0 0 1750 405" width="164" height="38">
	<title>Official ArmCord and Smartcord Server Logo - Discord Server Logos (Vector Logo)</title>
	<style>
		tspan { white-space:pre }
		.shp0 { fill: #ffcb4c } 
		.shp1 { fill: #65471b } 
		.shp2 { fill: #f19020 } 
	</style>
	<g id="Layer 1">
		<path id="Path 0" class="shp0" d="M354.43 60.39C353.07 60.58 350.86 61 349.51 61.32C348.15 61.64 345.57 62.4 343.76 63.01C341.96 63.61 338.63 65.01 336.38 66.11C334.12 67.21 330.92 69.02 329.26 70.13C327.6 71.24 325.27 72.94 324.06 73.91C322.86 74.88 320.65 76.91 319.14 78.42C317.64 79.94 315.62 82.22 314.66 83.5C313.7 84.78 312.34 86.8 311.63 88.01C310.92 89.21 309.96 91.06 309.49 92.11C309.03 93.16 308.32 95.13 307.91 96.49C307.32 98.44 307.14 99.69 307.04 102.51C306.93 105.54 307.02 106.64 307.64 110.03C308.04 112.21 308.9 116.21 309.56 118.92C310.22 121.63 311.27 125.5 311.9 127.53C312.52 129.57 313.78 133.2 314.68 135.6C315.59 138.01 317.28 141.95 318.43 144.36C319.59 146.76 321.26 149.96 322.14 151.47C323.01 152.97 324.53 155.37 325.51 156.8C326.49 158.23 328.3 160.63 329.53 162.14C330.76 163.64 332.99 166.01 334.48 167.4C335.98 168.8 337.29 169.93 337.4 169.93C337.51 169.93 337.87 169.41 338.19 168.77C338.53 168.1 338.83 166.86 338.91 165.83C339 164.61 338.88 163.38 338.53 161.94L338.02 159.82C338.98 158.55 339.46 158.28 340.1 158.22C340.61 158.17 341.3 158.21 341.64 158.29C341.98 158.37 342.76 158.91 343.38 159.47C344 160.03 344.74 160.96 345.03 161.52C345.31 162.09 345.72 163.32 345.95 164.26C346.17 165.2 346.35 166.58 346.35 167.33C346.36 168.09 346.24 169.13 346.1 169.66C345.96 170.19 345.39 171.29 344.85 172.12C344.3 172.95 343.95 173.73 344.08 173.85C344.2 173.98 349.42 172.9 355.66 171.46C361.9 170.02 367.54 168.84 368.17 168.84C369.05 168.84 369.51 169.01 370.02 169.52C370.4 169.9 370.77 170.61 370.86 171.1C370.95 171.58 370.88 172.32 370.72 172.74C370.56 173.15 370.08 173.7 369.66 173.97C369.23 174.23 366.16 175.12 362.83 175.95L356.79 177.46C358.49 178.71 358.68 178.73 361.95 178.6C363.83 178.52 366.29 178.26 367.42 178.02C368.55 177.78 370.27 177.32 371.25 177C372.23 176.68 374.14 175.9 375.49 175.26C376.85 174.62 379.25 173.23 380.83 172.16C382.41 171.1 384.87 169.21 386.3 167.95C387.73 166.7 389.99 164.44 391.33 162.95C392.67 161.45 394.65 159.05 395.73 157.62C396.82 156.19 398.47 153.86 399.41 152.43C400.35 151 402.06 148.17 403.2 146.14C404.35 144.1 406.17 140.53 407.25 138.2C408.32 135.87 409.67 132.79 410.23 131.36C410.8 129.93 411.97 126.67 412.83 124.12C413.7 121.56 414.91 117.5 415.52 115.09C416.14 112.68 416.97 108.93 417.37 106.75C418 103.29 418.07 102.3 417.95 99.09C417.85 96.46 417.64 94.8 417.21 93.34C416.89 92.21 416.16 90.31 415.6 89.1C415.04 87.9 413.9 85.87 413.06 84.59C412.22 83.31 410.72 81.31 409.72 80.14C408.72 78.98 406.77 77.03 405.38 75.82C403.98 74.61 401.43 72.66 399.7 71.5C397.97 70.33 394.83 68.5 392.72 67.44C390.62 66.38 387.54 65.01 385.89 64.39C384.23 63.78 381.83 62.97 380.55 62.59C379.27 62.21 376.69 61.6 374.81 61.22C372.93 60.84 370.28 60.41 368.93 60.25C367.57 60.1 364.31 59.99 361.68 60C359.04 60.02 355.78 60.19 354.43 60.39Z" />
		<path id="Path 1" class="shp1" d="M345.54 135.48C344.71 135.61 343.11 136.02 341.98 136.4C340.85 136.79 339.78 137.32 339.58 137.58C339.39 137.85 339.24 138.34 339.24 138.68C339.25 139.02 339.49 139.54 339.79 139.84C340.1 140.14 340.62 140.39 340.96 140.39C341.3 140.39 342.56 140.06 343.76 139.67C345.54 139.1 346.49 138.96 348.82 138.96C351.21 138.96 352.05 139.08 353.81 139.67C354.98 140.07 356.15 140.39 356.41 140.4C356.68 140.4 357.1 140.19 357.36 139.92C357.62 139.65 357.84 139.09 357.84 138.68C357.85 138.27 357.6 137.68 357.3 137.38C357 137.08 355.92 136.58 354.91 136.28C353.89 135.97 352.32 135.61 351.42 135.46C350.52 135.32 349.16 135.21 348.41 135.23C347.66 135.25 346.37 135.36 345.54 135.48ZM370.7 143.96C369.73 144.1 368.28 144.4 367.49 144.63C366.7 144.85 365.87 145.23 365.64 145.45C365.42 145.68 365.23 146.23 365.23 146.68C365.23 147.26 365.46 147.67 365.99 148.07C366.4 148.39 366.98 148.58 367.29 148.51C367.59 148.44 368.26 148.28 368.78 148.15L369.72 147.91C368.59 149.61 368.14 150.72 367.99 151.47C367.83 152.33 367.82 153.27 367.99 154C368.13 154.64 368.41 155.5 368.62 155.91C368.82 156.33 369.38 157 369.85 157.42C370.32 157.83 371.1 158.25 371.59 158.34C372.08 158.43 372.91 158.37 373.44 158.21C373.97 158.05 374.73 157.57 375.14 157.15C375.54 156.73 376.08 155.9 376.33 155.3C376.58 154.7 376.78 153.53 376.78 152.7C376.78 151.87 376.57 150.7 376.32 150.1C376.06 149.5 375.46 148.65 374.99 148.21L374.12 147.42C376.88 147.71 378.42 148.11 379.32 148.5C380.22 148.89 381.39 149.26 381.92 149.33C382.6 149.42 383.02 149.31 383.36 148.96C383.63 148.68 383.85 148.15 383.85 147.78C383.85 147.4 383.63 146.89 383.36 146.65C383.1 146.4 382.35 145.94 381.71 145.62C381.08 145.3 379.66 144.8 378.57 144.51C377.48 144.22 375.66 143.92 374.53 143.85C373.41 143.78 371.68 143.83 370.7 143.96ZM346.62 145.41C345.69 145.9 345.23 146.39 344.64 147.53C344.08 148.62 343.88 149.4 343.88 150.51C343.88 151.62 344.08 152.41 344.64 153.5C345.23 154.65 345.69 155.14 346.63 155.64C347.61 156.15 348.09 156.25 348.96 156.1C349.73 155.96 350.38 155.58 351.16 154.78C351.9 154.03 352.37 153.23 352.59 152.36C352.78 151.64 352.93 150.72 352.93 150.31C352.93 149.89 352.74 149 352.51 148.32C352.27 147.65 351.75 146.74 351.34 146.31C350.93 145.87 350.2 145.35 349.71 145.14C349.22 144.94 348.6 144.77 348.33 144.77C348.06 144.77 347.3 145.05 346.62 145.41Z" />
		<path id="Path 2" class="shp2" d="M338.69 158.89C338.36 159.29 338.11 159.81 338.13 160.05C338.15 160.3 338.36 161.23 338.6 162.14C338.88 163.2 338.99 164.45 338.91 165.69C338.84 166.75 338.6 167.98 338.36 168.43C338.13 168.88 336.59 170.6 334.94 172.26C332.88 174.33 331.72 175.74 331.22 176.77C330.83 177.6 330.36 179.01 330.2 179.92C330.03 180.82 329.98 182.24 330.08 183.06C330.18 183.89 330.39 185.12 330.55 185.8C330.71 186.48 331.18 187.77 331.6 188.67C332.01 189.57 333.01 191.04 333.82 191.93C334.62 192.82 336.02 194.03 336.92 194.61C337.83 195.2 339.43 195.93 340.48 196.25C342.11 196.74 342.81 196.8 345.27 196.65C346.85 196.56 349.61 196.13 351.42 195.71C353.29 195.27 355.17 194.65 355.78 194.27C356.43 193.86 357.01 193.22 357.24 192.64C357.45 192.1 357.54 191.38 357.44 191C357.34 190.62 357.08 190.13 356.87 189.9C356.54 189.55 356.57 189.45 357.1 189.19C357.44 189.03 357.94 188.41 358.22 187.83C358.57 187.1 358.69 186.45 358.58 185.8C358.49 185.27 358.1 184.56 357.72 184.23L357.03 183.61C357.92 182.87 358.35 182.31 358.56 181.9C358.77 181.49 358.94 180.84 358.94 180.46C358.94 180.09 358.81 179.5 358.65 179.17C358.5 178.83 358.01 178.3 357.57 178L356.77 177.46C366.16 175.12 369.23 174.23 369.66 173.97C370.08 173.7 370.56 173.15 370.72 172.74C370.88 172.32 370.95 171.58 370.86 171.1C370.77 170.61 370.4 169.9 370.02 169.52C369.51 169.01 369.05 168.84 368.17 168.84C367.54 168.84 361.9 170.02 355.66 171.46C349.42 172.9 344.2 173.98 344.08 173.85C343.95 173.73 344.3 172.95 344.85 172.12C345.39 171.29 345.96 170.19 346.1 169.66C346.24 169.13 346.36 168.09 346.35 167.33C346.35 166.58 346.17 165.2 345.95 164.26C345.72 163.32 345.34 162.15 345.1 161.66C344.86 161.17 344.27 160.36 343.8 159.86C343.33 159.36 342.6 158.77 342.19 158.56C341.77 158.35 340.95 158.17 340.36 158.17C339.53 158.17 339.15 158.34 338.69 158.89Z" />
		<path id="Path 3" class="shp1" d="M354.43 160.48C354.28 160.54 353.57 160.66 352.86 160.75C352.09 160.84 351.33 161.13 351.01 161.45C350.71 161.75 350.46 162.25 350.46 162.55C350.46 162.85 350.74 163.42 351.08 163.82L351.69 164.54C356.33 164.01 357.73 164 359.01 164.19C360.03 164.34 361.56 164.71 362.43 165.01C363.3 165.31 364.59 165.93 365.3 166.38C366.02 166.83 366.88 167.2 367.22 167.19C367.56 167.19 367.97 167.1 368.13 166.99C368.3 166.88 368.58 166.51 368.75 166.17C368.97 165.74 368.98 165.35 368.79 164.87C368.64 164.5 368.18 163.95 367.76 163.66C367.35 163.37 366.21 162.77 365.23 162.32C364.26 161.87 362.72 161.31 361.81 161.06C360.91 160.82 358.94 160.56 357.44 160.49C355.93 160.42 354.58 160.41 354.43 160.48Z" />
	</g>
	<path id="ARMCORD + sMARTCORD " fill="#7289da" aria-label="ARMCORD + sMARTCORD"  d="M16.56 359L1.08 359L43.37 248.9L59.06 248.9L104.12 359L87.53 359L74.68 325.65L28.65 325.65L16.56 359ZM44.94 281.5L32.85 313.79L70.18 313.79L58.69 283.3Q53.43 269.4 50.88 260.47Q48.77 271.06 44.94 281.5ZM130.56 359L115.99 359L115.99 248.9L164.81 248.9Q179.53 248.9 187.19 251.91Q194.85 254.83 199.43 262.34Q204.01 269.85 204.01 278.94Q204.01 290.66 196.42 298.69Q188.84 306.73 172.99 308.91Q178.77 311.69 181.78 314.39Q188.16 320.25 193.87 329.03L213.02 359L194.7 359L180.13 336.09Q173.74 326.18 169.61 320.92Q165.48 315.67 162.18 313.56Q158.95 311.46 155.57 310.63Q153.09 310.11 147.46 310.11L130.56 310.11L130.56 359ZM130.56 261.07L130.56 297.49L161.88 297.49Q171.87 297.49 177.5 295.46Q183.13 293.36 186.06 288.86Q188.99 284.27 188.99 278.94Q188.99 271.13 183.28 266.1Q177.65 261.07 165.41 261.07L130.56 261.07ZM240.43 359L226.39 359L226.39 248.9L248.32 248.9L274.38 326.86Q277.98 337.75 279.64 343.15Q281.51 337.15 285.49 325.5L311.85 248.9L331.46 248.9L331.46 359L317.41 359L317.41 266.85L285.42 359L272.28 359L240.43 265.27L240.43 359Z" />
	<path id="ARMCORD + sMARTCORD " fill="#f7f7f7" aria-label="ARMCORD + sMARTCORD"  d="M407.23 325.01C401.24 340.08 376.63 336.39 376.63 323.32L376.63 285.79C376.63 272.25 400.93 269.18 408.31 282.71L430.77 273.64C422 254.26 405.85 248.57 392.47 248.57C370.63 248.57 349.1 261.18 349.1 285.79L349.1 323.32C349.1 348.08 370.63 360.54 392.01 360.54C405.7 360.54 422.15 353.77 431.23 336.08ZM438.61 323.16C438.61 348.08 461.22 360.54 483.83 360.54C506.44 360.54 528.9 348.08 528.9 323.16L528.9 285.94C528.9 261.02 506.29 248.57 483.68 248.57C461.07 248.57 438.61 260.87 438.61 285.94ZM466.14 285.94C466.14 277.94 474.76 273.64 483.37 273.64C492.29 273.64 501.37 277.48 501.37 285.94L501.37 323.16C501.37 331.01 492.6 335.01 483.83 335.01C475.06 335.01 466.14 331.16 466.14 323.16ZM601.49 359L635.79 359L606.11 321.62C619.34 317.47 627.49 306.09 627.49 285.94C626.87 260.41 609.49 250.1 587.04 250.1L543.51 250.1L543.51 359L571.35 359L571.35 324.39L576.27 324.39ZM571.35 300.71L571.35 275.79L587.5 275.79C604.88 275.79 604.88 300.71 587.5 300.71ZM642.13 270.06L642.12 291L670.27 318.91L670.25 275.18C687.44 275.34 687.53 275.34 689.58 275.89C690.72 276.19 692.21 276.75 692.89 277.14C693.57 277.53 694.54 278.25 695.04 278.74C695.54 279.23 696.22 280.04 696.55 280.56C696.88 281.07 697.35 282.14 697.6 282.93L698.06 284.38L698.06 324.07C697.24 326.32 696.63 327.52 696.18 328.2C695.71 328.92 694.86 329.81 694.13 330.35C693.45 330.85 692.42 331.47 691.85 331.72C691.29 331.98 690.21 332.35 689.48 332.55C688.32 332.87 686.73 332.94 678 333.08C672.43 333.16 662.08 333.24 655 333.25L642.13 333.27L642.13 359.32C684.98 359.32 689.03 359.27 691.08 359.01C692.41 358.84 694.48 358.5 695.68 358.26C696.87 358.03 698.92 357.52 700.23 357.14C701.53 356.76 703.63 356.03 704.88 355.5C706.13 354.98 707.76 354.22 708.5 353.81C709.23 353.41 710.58 352.59 711.49 352C712.4 351.41 713.98 350.22 715.01 349.36C716.03 348.5 717.52 347.03 718.32 346.1C719.11 345.16 720.21 343.73 720.76 342.92C721.31 342.11 722.11 340.74 722.54 339.89C722.98 339.04 723.67 337.41 724.1 336.27C724.52 335.13 725.05 333.41 725.28 332.45C725.51 331.48 725.82 329.71 725.98 328.52C726.21 326.79 726.27 322.03 726.27 304.95C726.27 287.33 726.22 283.1 725.97 280.97C725.8 279.55 725.44 277.46 725.16 276.32C724.88 275.18 724.4 273.55 724.1 272.7C723.79 271.85 723.15 270.36 722.68 269.39C722.2 268.43 721.39 266.98 720.87 266.19C720.36 265.39 719.34 264 718.61 263.1C717.88 262.2 716.4 260.67 715.32 259.72C714.24 258.76 712.56 257.45 711.6 256.8C710.63 256.16 708.82 255.11 707.57 254.47C706.31 253.83 704.55 253.01 703.64 252.65C702.73 252.29 700.73 251.64 699.19 251.21C697.66 250.78 695.29 250.23 693.92 249.99C692.56 249.75 690.32 249.46 688.96 249.35C687.47 249.22 677.62 249.14 664.31 249.14L642.13 249.13ZM791.14 296.55L764.22 296.55L764.22 322.7L791.14 322.7L791.14 349L817.13 349L817.13 322.7L842.97 322.7L842.97 296.55L817.13 296.55L817.13 270.41L791.14 270.41ZM878.5 340.85C888.65 353.92 902.5 360.54 915.57 360.54C935.57 360.54 957.71 349 958.64 327.93C959.87 301.17 940.49 294.4 921.11 290.86C912.65 289.02 906.96 285.94 906.65 280.71C907.11 268.1 926.64 267.64 938.03 279.79L956.02 265.95C944.79 252.26 932.03 248.57 918.8 248.57C898.81 248.57 879.43 259.79 879.43 281.17C879.43 301.94 895.42 313.01 912.96 315.78C921.88 317.01 931.87 320.55 931.57 326.7C930.8 338.39 906.8 337.77 895.88 324.55ZM970.48 359L998.01 359L998.01 327.62L996.17 305.63L996.93 305.47L1011.55 342.85L1030.46 342.85L1044.77 305.47L1045.69 305.63L1044 327.62L1043.85 359L1071.53 359L1071.53 250.1L1044 250.1L1020.93 303.32L998.01 250.1L970.48 250.1ZM1142.28 250.1L1117.21 250.1L1079.22 359L1108.75 359L1115.52 337.16L1144.59 337.16L1151.67 359L1181.2 359ZM1121.67 312.7L1129.67 280.87L1130.44 280.87L1137.98 312.7ZM1246.41 359L1280.71 359L1251.03 321.62C1264.25 317.47 1272.4 306.09 1272.4 285.94C1271.79 260.41 1254.41 250.1 1231.95 250.1L1188.43 250.1L1188.43 359L1216.26 359L1216.26 324.39L1221.19 324.39ZM1216.26 300.71L1216.26 275.79L1232.41 275.79C1249.79 275.79 1249.79 300.71 1232.41 300.71ZM1365 276.1L1365 249.95L1279.33 249.95L1279.33 276.1L1308.24 276.1L1308.24 359L1336.08 359L1336.08 276.1ZM1430.37 325.01C1424.37 340.08 1399.76 336.39 1399.76 323.32L1399.76 285.79C1399.76 272.25 1424.06 269.18 1431.44 282.71L1453.9 273.64C1445.13 254.26 1428.98 248.57 1415.6 248.57C1393.76 248.57 1372.23 261.18 1372.23 285.79L1372.23 323.32C1372.23 348.08 1393.76 360.54 1415.14 360.54C1428.83 360.54 1445.28 353.77 1454.36 336.08ZM1461.74 323.16C1461.74 348.08 1484.35 360.54 1506.96 360.54C1529.57 360.54 1552.03 348.08 1552.03 323.16L1552.03 285.94C1552.03 261.02 1529.42 248.57 1506.81 248.57C1484.2 248.57 1461.74 260.87 1461.74 285.94ZM1489.27 285.94C1489.27 277.94 1497.89 273.64 1506.5 273.64C1515.42 273.64 1524.5 277.48 1524.5 285.94L1524.5 323.16C1524.5 331.01 1515.73 335.01 1506.96 335.01C1498.19 335.01 1489.27 331.16 1489.27 323.16ZM1624.63 359L1658.92 359L1629.24 321.62C1642.47 317.47 1650.62 306.09 1650.62 285.94C1650 260.41 1632.62 250.1 1610.17 250.1L1566.64 250.1L1566.64 359L1594.48 359L1594.48 324.39L1599.4 324.39ZM1594.48 300.71L1594.48 275.79L1610.63 275.79C1628.01 275.79 1628.01 300.71 1610.63 300.71ZM1665.26 270.06L1665.25 291L1693.4 318.91L1693.38 275.18C1710.57 275.34 1710.66 275.34 1712.71 275.89C1713.85 276.19 1715.34 276.75 1716.02 277.14C1716.7 277.53 1717.67 278.25 1718.17 278.74C1718.67 279.23 1719.35 280.04 1719.68 280.56C1720.01 281.07 1720.48 282.14 1720.73 282.93L1721.19 284.38L1721.19 324.07C1720.37 326.32 1719.76 327.52 1719.32 328.2C1718.84 328.92 1717.99 329.81 1717.26 330.35C1716.58 330.85 1715.55 331.47 1714.98 331.72C1714.42 331.98 1713.34 332.35 1712.61 332.55C1711.45 332.87 1709.86 332.94 1701.13 333.08C1695.56 333.16 1685.21 333.24 1678.13 333.25L1665.26 333.27L1665.26 359.32C1708.11 359.32 1712.16 359.27 1714.21 359.01C1715.54 358.84 1717.61 358.5 1718.81 358.26C1720 358.03 1722.05 357.52 1723.36 357.14C1724.66 356.76 1726.76 356.03 1728.01 355.5C1729.26 354.98 1730.89 354.22 1731.63 353.81C1732.36 353.41 1733.71 352.59 1734.62 352C1735.53 351.41 1737.12 350.22 1738.14 349.36C1739.16 348.5 1740.65 347.03 1741.45 346.1C1742.24 345.16 1743.34 343.73 1743.89 342.92C1744.44 342.11 1745.24 340.74 1745.67 339.89C1746.11 339.04 1746.8 337.41 1747.23 336.27C1747.65 335.13 1748.18 333.41 1748.41 332.45C1748.64 331.48 1748.95 329.71 1749.11 328.52C1749.34 326.79 1749.4 322.03 1749.4 304.95C1749.41 287.33 1749.35 283.1 1749.1 280.97C1748.93 279.55 1748.57 277.46 1748.29 276.32C1748.01 275.18 1747.53 273.55 1747.23 272.7C1746.92 271.85 1746.28 270.36 1745.81 269.39C1745.33 268.43 1744.52 266.98 1744 266.19C1743.49 265.39 1742.47 264 1741.74 263.1C1741.01 262.2 1739.53 260.67 1738.45 259.72C1737.37 258.76 1735.69 257.45 1734.73 256.8C1733.76 256.16 1731.95 255.11 1730.7 254.47C1729.45 253.83 1727.68 253.01 1726.77 252.65C1725.86 252.29 1723.86 251.64 1722.32 251.21C1720.79 250.78 1718.42 250.23 1717.05 249.99C1715.69 249.75 1713.45 249.46 1712.09 249.35C1710.6 249.22 1700.75 249.14 1687.44 249.14L1665.26 249.13Z" />
	<path id="Official AC&amp;SC Server " fill="#8e9297" aria-label="Official AC&amp;SC Server"  d="M538.63 139.03C538.63 116.88 525.63 101.91 505.05 101.91C484.57 101.91 471.26 116.99 471.26 139.24C471.26 161.38 484.46 176.35 504.84 176.35C525.43 176.35 538.63 161.17 538.63 139.03ZM524.7 139.13C524.7 154.83 517.32 164.92 504.94 164.92C492.68 164.92 485.3 154.83 485.3 139.13C485.3 123.43 492.68 113.35 504.94 113.35C517.21 113.35 524.7 123.43 524.7 139.13ZM576.78 111.48L575.12 101.29C573.87 101.08 572.21 100.87 570.03 100.87C559.73 100.87 552.66 105.03 552.66 116.16L552.66 124.79L545.39 124.79L545.39 134.97L552.66 134.97L552.66 175L565.04 175L565.04 134.97L576.16 134.97L574.6 124.79L565.04 124.79L565.04 117.4C565.04 112.93 567.32 111.06 571.59 111.06C573.67 111.06 575.54 111.27 576.78 111.48ZM611.3 111.48L609.64 101.29C608.39 101.08 606.73 100.87 604.54 100.87C594.25 100.87 587.18 105.03 587.18 116.16L587.18 124.79L579.9 124.79L579.9 134.97L587.18 134.97L587.18 175L599.55 175L599.55 134.97L610.68 134.97L609.12 124.79L599.55 124.79L599.55 117.4C599.55 112.93 601.84 111.06 606.1 111.06C608.18 111.06 610.05 111.27 611.3 111.48ZM632.41 109.29C632.41 105.03 629.08 102.02 625.02 102.02C620.87 102.02 617.54 105.03 617.54 109.29C617.54 113.45 620.87 116.36 625.02 116.36C629.08 116.36 632.41 113.45 632.41 109.29ZM631.16 175L631.16 124.79L618.68 124.79L618.68 175ZM682.2 171.05L680.54 160.44C675.86 164.08 671.91 165.23 667.55 165.23C659.96 165.23 654.34 160.24 654.34 149.84C654.34 139.86 659.54 134.56 666.71 134.56C671.6 134.56 675.65 136.01 679.92 139.24L681.68 128.01C677.73 125.51 672.74 123.75 665.99 123.75C652.68 123.75 641.76 132.69 641.76 150.15C641.76 166.58 651.64 175.94 665.57 175.94C671.91 175.94 677.11 174.58 682.2 171.05ZM706.43 109.29C706.43 105.03 703.1 102.02 699.05 102.02C694.89 102.02 691.56 105.03 691.56 109.29C691.56 113.45 694.89 116.36 699.05 116.36C703.1 116.36 706.43 113.45 706.43 109.29ZM705.18 175L705.18 124.79L692.71 124.79L692.71 175ZM758.31 175L758.31 140.59C758.31 128.53 751.86 123.75 738.87 123.75C730.86 123.75 724.73 125.51 718.9 127.8L720.46 137.78C725.87 135.39 731.38 133.73 737.2 133.73C742.71 133.73 745.83 135.81 745.83 141.21L745.83 142.67C725.56 144.64 715.58 149.94 715.58 162.11C715.58 170.84 721.3 176.04 729.82 176.04C737.31 176.04 742.5 172.71 746.56 168.45L747.6 175ZM745.83 161.17C742.4 164.6 738.35 166.58 734.08 166.58C730.24 166.58 727.95 164.4 727.95 160.76C727.95 155.97 731.38 151.71 745.83 149.94ZM783.67 175L783.67 99.94L771.2 101.91L771.2 175ZM882.86 173.23L856.55 102.95L841.89 102.95L814.97 175L828.59 175L835.14 156.81L862.27 156.81L869.13 175.73ZM858.43 145.58L838.88 145.58L848.65 117.92ZM942.12 170.11L940.25 158.26C934.74 161.9 928.71 164.29 922.05 164.29C909.37 164.29 901.05 154.93 901.05 139.13C901.05 123.54 908.85 113.87 921.53 113.87C928.5 113.87 934.32 116.68 939 120.21L940.97 107.21C935.67 103.99 929.23 102.02 920.91 102.02C900.63 102.02 887.02 116.99 887.02 139.24C887.02 161.48 900.11 176.25 921.01 176.25C929.12 176.25 936.4 173.75 942.12 170.11ZM1017.7 173.34L1002.83 157.33C1006.26 151.19 1008.65 143.71 1010.01 135.08L999.09 132.69C998.26 139.03 996.91 144.43 995.14 148.8L977.88 130.5C973.93 126.34 972.16 123.54 972.16 120C972.16 115.95 974.87 112.93 980.17 112.93C985.16 112.93 990.46 115.01 995.97 118.34L997.95 106.38C993.16 103.78 986.82 101.91 979.44 101.91C966.65 101.91 959.17 109.4 959.17 119.59C959.17 126.14 961.35 130.3 965.72 135.18C956.57 139.96 950.43 146.62 950.43 156.81C950.43 169.18 959.48 176.25 974.14 176.25C982.66 176.25 989.84 172.92 995.45 166.99L1003.87 175.62ZM988.69 159.51C984.95 163.77 980.38 165.85 975.49 165.85C968.21 165.85 963.43 161.48 963.43 155.25C963.43 150.26 966.65 145.89 972.47 142.56ZM1067.91 154.52C1067.91 143.39 1062.51 138.3 1047.74 132.27C1037.76 128.11 1035.48 125.93 1035.48 121.35C1035.48 116.99 1038.49 113.66 1045.35 113.66C1050.97 113.66 1057.1 115.84 1062.3 119.27L1064.38 106.8C1059.18 104.1 1053.57 102.43 1045.46 102.43C1032.05 102.43 1022.27 109.81 1022.27 122.5C1022.27 133.62 1027.89 138.2 1041.82 143.91C1052.22 148.39 1054.71 150.57 1054.71 155.87C1054.71 161.59 1050.34 164.6 1044 164.6C1036.83 164.6 1029.34 161.8 1023.31 158.26L1021.23 170.84C1027.58 173.86 1035.06 175.83 1043.79 175.83C1057.62 175.83 1067.91 168.55 1067.91 154.52ZM1131.54 170.11L1129.67 158.26C1124.16 161.9 1118.13 164.29 1111.48 164.29C1098.79 164.29 1090.47 154.93 1090.47 139.13C1090.47 123.54 1098.27 113.87 1110.96 113.87C1117.92 113.87 1123.74 116.68 1128.42 120.21L1130.4 107.21C1125.09 103.99 1118.65 102.02 1110.33 102.02C1090.06 102.02 1076.44 116.99 1076.44 139.24C1076.44 161.48 1089.54 176.25 1110.44 176.25C1118.54 176.25 1125.82 173.75 1131.54 170.11ZM1210.14 154.52C1210.14 143.39 1204.73 138.3 1189.97 132.27C1179.99 128.11 1177.7 125.93 1177.7 121.35C1177.7 116.99 1180.72 113.66 1187.58 113.66C1193.19 113.66 1199.33 115.84 1204.52 119.27L1206.6 106.8C1201.4 104.1 1195.79 102.43 1187.68 102.43C1174.27 102.43 1164.5 109.81 1164.5 122.5C1164.5 133.62 1170.11 138.2 1184.04 143.91C1194.44 148.39 1196.93 150.57 1196.93 155.87C1196.93 161.59 1192.57 164.6 1186.23 164.6C1179.05 164.6 1171.57 161.8 1165.54 158.26L1163.46 170.84C1169.8 173.86 1177.29 175.83 1186.02 175.83C1199.85 175.83 1210.14 168.55 1210.14 154.52ZM1262.74 149.32C1262.74 135.08 1255.99 123.75 1240.91 123.75C1227.81 123.75 1218.04 133.62 1218.04 149.94C1218.04 168.03 1228.54 176.04 1242.57 176.04C1250.68 176.04 1257.23 173.65 1262.64 169.91L1261.18 160.13C1255.67 163.98 1250.37 166.37 1243.93 166.37C1236.23 166.37 1231.03 162.11 1230.41 152.34L1262.64 152.34C1262.64 151.61 1262.74 150.36 1262.74 149.32ZM1250.58 144.54L1230.62 144.54C1231.55 136.33 1235.61 132.37 1240.6 132.37C1246.63 132.37 1249.75 136.74 1250.58 144.54ZM1303.08 136.12L1301.11 123.75C1293.31 124.16 1288.32 129.05 1284.99 134.87L1283.43 124.79L1272.83 124.79L1272.83 175L1285.3 175L1285.3 146.2C1288.84 140.8 1295.29 136.64 1303.08 136.12ZM1353.92 124.79L1341.55 124.79L1330.74 159.72L1319.51 124.06L1306.41 125.72L1323.98 175.21L1336.14 175.21ZM1402.37 149.32C1402.37 135.08 1395.61 123.75 1380.54 123.75C1367.44 123.75 1357.66 133.62 1357.66 149.94C1357.66 168.03 1368.16 176.04 1382.2 176.04C1390.31 176.04 1396.86 173.65 1402.26 169.91L1400.81 160.13C1395.3 163.98 1390 166.37 1383.55 166.37C1375.86 166.37 1370.66 162.11 1370.04 152.34L1402.26 152.34C1402.26 151.61 1402.37 150.36 1402.37 149.32ZM1390.2 144.54L1370.24 144.54C1371.18 136.33 1375.23 132.37 1380.22 132.37C1386.25 132.37 1389.37 136.74 1390.2 144.54ZM1442.71 136.12L1440.73 123.75C1432.93 124.16 1427.94 129.05 1424.62 134.87L1423.06 124.79L1412.45 124.79L1412.45 175L1424.93 175L1424.93 146.2C1428.46 140.8 1434.91 136.64 1442.71 136.12Z" />
</svg>