<svg version="1.2" baseProfile="tiny-ps" xmlns="http://www.w3.org/2000/svg" viewBox="0 0 1750 405" width="164" height="38">
	<title>arc_server-watermark-svg</title>
	<style>
		tspan { white-space:pre }
		.shp0 { fill: #ffffff } 
	</style>
	<path id="Layer" fill-rule="evenodd" class="shp0" d="M797.06 116.85C796.93 117.38 796.86 117.85 796.86 118.25C796.86 118.65 796.79 118.98 796.66 119.25C798.13 121.91 798.92 125.03 799.06 128.63C799.32 132.22 799.59 135.75 799.86 139.21C800.52 138.55 801.12 137.95 801.65 137.41C802.18 136.75 802.72 136.08 803.25 135.42C803.92 134.75 804.45 134.15 804.85 133.62C805.25 132.95 805.71 132.29 806.25 131.62C806.51 131.09 806.84 130.63 807.24 130.23C807.78 129.83 808.24 129.43 808.64 129.03C809.31 128.36 809.97 127.63 810.64 126.83C811.3 126.03 811.97 125.3 812.63 124.64C813.17 123.97 813.63 123.37 814.03 122.84C814.57 122.31 815.1 121.71 815.63 121.04C816.7 119.71 817.76 118.38 818.83 117.05C819.89 115.58 821.15 114.45 822.62 113.65C823.82 113.92 824.48 114.12 824.61 114.25C824.75 114.39 824.95 114.45 825.21 114.45C826.95 114.98 827.94 115.78 828.21 116.85C828.61 117.91 828.81 118.91 828.81 119.84C828.81 120.51 828.74 121.31 828.61 122.24C828.48 123.17 828.28 123.97 828.01 124.64C827.74 125.43 827.41 126.23 827.01 127.03C826.61 127.7 826.41 128.36 826.41 129.03C826.28 129.83 826.08 130.69 825.81 131.62C825.68 132.42 825.35 133.02 824.81 133.42C825.08 135.28 824.68 136.81 823.62 138.01C822.68 139.21 821.89 140.34 821.22 141.41C820.69 142.07 820.22 142.94 819.82 144C819.29 144.67 818.96 145.33 818.83 146C818.69 146.53 818.29 147.13 817.63 147.8C817.23 148.33 816.63 148.86 815.83 149.39C815.16 149.79 814.57 150.26 814.03 150.79C812.83 152.26 812.04 153.19 811.64 153.59C811.24 153.99 810.9 154.32 810.64 154.58C809.97 155.38 809.44 156.25 809.04 157.18C808.64 157.98 808.11 158.71 807.44 159.38C807.04 159.91 806.58 160.38 806.05 160.77C805.65 161.04 805.31 161.37 805.05 161.77C804.78 162.17 804.52 162.64 804.25 163.17C804.12 163.7 803.92 164.23 803.65 164.77C803.38 165.3 803.12 165.77 802.85 166.17C802.58 166.56 802.32 166.96 802.05 167.36C801.79 167.9 801.59 168.43 801.45 168.96C801.32 169.49 801.05 170.03 800.65 170.56C799.59 172.42 798.66 174.15 797.86 175.75C797.46 176.55 797.13 177.41 796.86 178.35C796.59 179.14 796.26 179.94 795.86 180.74C795.6 181.54 795.26 182.34 794.86 183.14C794.47 183.8 794.13 184.47 793.87 185.13C793.2 186.6 792.6 188.2 792.07 189.93C791.67 191.52 791.14 193.05 790.47 194.52C789.94 195.72 789.47 196.91 789.07 198.11C788.67 199.31 788.14 200.44 787.48 201.51C786.81 204.03 786.21 206.5 785.68 208.89C785.15 211.29 784.42 213.75 783.48 216.28C782.55 218.94 781.62 221.74 780.69 224.67C779.89 227.46 779.09 230.26 778.29 233.05C777.63 236.25 777.09 239.24 776.69 242.04C776.43 244.83 776.43 247.83 776.69 251.02C777.49 251.02 778.22 251.22 778.89 251.62C779.69 252.02 780.49 252.09 781.29 251.82C781.95 251.69 782.62 251.35 783.28 250.82C783.95 250.29 784.75 249.82 785.68 249.42C786.34 249.16 786.88 249.02 787.28 249.02C787.81 248.89 788.21 248.56 788.47 248.03C789.27 247.76 790 247.49 790.67 247.23C791.34 246.83 791.93 246.3 792.47 245.63C793.93 245.23 795.26 244.63 796.46 243.83C797.66 242.9 798.86 242.1 800.06 241.44C800.72 241.04 801.39 240.64 802.05 240.24C802.72 239.84 803.38 239.44 804.05 239.04C804.71 238.78 805.38 238.51 806.05 238.24C806.71 237.98 807.31 237.58 807.84 237.05C808.11 236.78 808.64 236.38 809.44 235.85C810.24 235.32 810.84 234.92 811.24 234.65C812.57 234.25 813.63 233.78 814.43 233.25C815.23 232.59 815.76 232.12 816.03 231.85C816.56 231.99 817.36 231.72 818.43 231.06C819.62 230.39 820.56 230.06 821.22 230.06C821.75 230.32 822.29 230.52 822.82 230.66C823.35 230.66 823.82 230.79 824.22 231.06C824.08 231.59 824.02 232.12 824.02 232.65C824.15 233.05 824.22 233.45 824.22 233.85C824.22 234.12 823.82 234.72 823.02 235.65C822.35 236.58 821.89 237.18 821.62 237.45C821.22 237.98 820.42 238.71 819.22 239.64C818.16 240.57 817.29 241.17 816.63 241.44C815.96 242.9 814.96 244.23 813.63 245.43C812.43 246.5 811.3 247.56 810.24 248.63C808.91 249.29 807.64 250.16 806.45 251.22C805.25 252.29 804.18 253.28 803.25 254.22C800.06 256.08 796.79 258.21 793.47 260.6C790.14 262.87 786.61 264.93 782.88 266.8C781.29 267.46 779.75 268.13 778.29 268.79C776.83 269.59 775.03 270.12 772.9 270.39C771.7 270.52 770.64 270.39 769.7 269.99C768.91 269.72 767.97 269.46 766.91 269.19C766.51 267.99 765.98 266.93 765.31 266C764.65 265.07 763.98 264.13 763.32 263.2C762.65 262.27 762.05 261.34 761.52 260.41C761.12 259.34 760.92 258.14 760.92 256.81C760.79 256.41 760.79 255.95 760.92 255.41C761.05 254.88 761.19 254.35 761.32 253.82C761.45 253.42 761.52 253.02 761.52 252.62C761.52 252.22 761.59 251.75 761.72 251.22C761.99 249.76 762.25 248.36 762.52 247.03C762.92 245.56 763.25 244.03 763.52 242.44C763.38 240.31 763.45 238.44 763.72 236.85C764.11 235.25 764.38 233.52 764.51 231.65C763.85 231.92 763.32 232.32 762.92 232.85C762.65 233.25 762.18 233.58 761.52 233.85C760.45 235.05 759.25 236.18 757.92 237.25C756.73 238.31 755.33 239.24 753.73 240.04C752 241.24 750.34 242.5 748.74 243.83C747.14 245.17 745.41 246.36 743.55 247.43C740.62 250.09 737.56 252.55 734.36 254.82C731.17 256.95 728.04 259.21 724.98 261.6C723.91 262 722.85 262.4 721.78 262.8C720.85 263.33 719.72 263.67 718.39 263.8C716.92 264.6 715.53 264.67 714.19 264C713 263.47 711.87 262.87 710.8 262.2C710 261.54 709.27 260.94 708.61 260.41C708.07 259.87 707.41 259.27 706.61 258.61C705.14 256.21 704.01 254.02 703.21 252.02C702.55 249.89 701.55 248.09 700.22 246.63C700.09 245.96 699.89 245.43 699.62 245.03C699.35 244.5 699.02 243.97 698.62 243.43C698.22 241.7 697.96 240.11 697.82 238.64C697.82 237.18 697.76 235.65 697.62 234.05C697.76 231.12 698.29 228.39 699.22 225.87C700.28 223.34 701.15 221.01 701.82 218.88C701.95 218.48 702.01 218.08 702.01 217.68C702.01 217.28 702.08 216.88 702.21 216.48C702.35 216.08 702.48 215.62 702.61 215.08C702.88 214.55 703.15 214.02 703.41 213.48C703.68 212.42 704.01 211.42 704.41 210.49C704.81 209.56 705.14 208.56 705.41 207.5C705.68 206.83 705.88 206.3 706.01 205.9C706.14 205.5 706.34 205.1 706.61 204.7C707.27 203.5 707.74 202.3 708.01 201.11C708.41 199.91 708.8 198.71 709.2 197.51C710.27 194.05 711.4 190.66 712.6 187.33C713.93 183.87 715.53 180.61 717.39 177.55C717.66 177.15 717.92 176.81 718.19 176.55C718.59 176.15 718.92 175.75 719.19 175.35L723.38 168.76C724.84 166.76 726.38 164.9 727.97 163.17C729.7 161.31 731.3 159.44 732.77 157.58C734.63 155.85 736.29 153.99 737.76 151.99C739.22 149.99 740.89 148.2 742.75 146.6C743.02 145.8 743.48 145.2 744.15 144.8C744.81 144.27 745.28 143.6 745.54 142.8C746.74 142.01 747.74 141.01 748.54 139.81C749.47 138.61 750.6 137.61 751.93 136.81C754.46 134.02 757.06 131.36 759.72 128.83C762.38 126.17 765.05 123.5 767.71 120.84C769.97 120.58 771.5 119.71 772.3 118.25C774.16 117.05 776.23 115.78 778.49 114.45C780.89 113.12 783.22 112.12 785.48 111.46C786.15 111.19 787.01 111.26 788.07 111.66C789.27 112.06 790.27 112.39 791.07 112.66C793.07 113.06 794.4 113.72 795.06 114.65C795.73 115.45 796.4 116.18 797.06 116.85ZM714.99 228.46C715.66 230.99 716.19 233.25 716.59 235.25C717.12 237.25 717.79 239.37 718.59 241.64C719.12 241.9 719.45 242.3 719.59 242.84C719.72 243.23 720.12 243.57 720.79 243.83C721.32 244.1 722.12 244.3 723.18 244.43C724.25 244.43 724.98 244.37 725.38 244.23C726.04 243.97 726.71 243.63 727.37 243.23C728.44 242.7 729.44 242.17 730.37 241.64C731.3 240.97 732.3 240.37 733.36 239.84C734.03 239.57 734.7 239.31 735.36 239.04C736.03 238.78 736.69 238.51 737.36 238.24C738.69 237.98 739.82 237.58 740.75 237.05C741.82 236.51 742.88 235.91 743.95 235.25C746.61 233.78 749.21 232.05 751.73 230.06C754.4 227.93 756.99 226.13 759.52 224.67C762.98 220.41 766.24 215.68 769.3 210.49C772.5 205.3 774.63 199.24 775.7 192.32C775.83 190.72 775.96 189.46 776.09 188.53C776.36 187.46 776.63 186.4 776.89 185.33C777.16 184.53 777.36 183.67 777.49 182.74C777.76 181.67 778.02 180.81 778.29 180.14C779.36 176.68 780.15 173.42 780.69 170.36C781.22 167.3 781.95 164.3 782.88 161.37C783.28 160.31 783.62 159.24 783.88 158.18C784.28 156.98 784.61 155.92 784.88 154.98C785.68 154.05 786.01 153.39 785.88 152.99C785.88 152.59 785.95 152.26 786.08 151.99C786.34 151.32 786.61 150.79 786.88 150.39C787.14 149.86 787.41 149.26 787.68 148.6C788.21 147.26 788.74 145.67 789.27 143.8C789.81 141.81 790.07 140.08 790.07 138.61C789.67 136.35 789.34 134.82 789.07 134.02C788.94 133.22 788.67 132.29 788.27 131.22C787.88 130.16 787.28 128.83 786.48 127.23C785.68 125.5 784.75 124.5 783.68 124.24C782.22 123.97 780.82 124.57 779.49 126.03C778.16 127.36 777.16 128.36 776.49 129.03C776.23 129.29 775.83 129.56 775.3 129.83C774.9 129.96 774.56 130.23 774.3 130.63C774.03 130.89 773.7 131.22 773.3 131.62C773.03 132.02 772.7 132.42 772.3 132.82C772.03 133.09 771.7 133.42 771.3 133.82C771.04 134.22 770.77 134.62 770.5 135.02C769.97 135.68 769.37 136.42 768.71 137.21C768.17 137.88 767.57 138.61 766.91 139.41C766.24 140.08 765.71 140.81 765.31 141.61C764.91 142.41 764.38 143.14 763.72 143.8C762.92 144.73 762.12 145.6 761.32 146.4C760.52 147.2 759.92 148.13 759.52 149.19C758.06 150.26 756.66 151.59 755.33 153.19C754.66 153.99 754.06 154.78 753.53 155.58C753 156.38 752.53 157.25 752.13 158.18C751.07 158.71 750.2 159.51 749.54 160.57C749.01 161.64 748.34 162.5 747.54 163.17C746.34 164.23 745.61 165.03 745.34 165.57C745.21 165.97 745.01 166.3 744.75 166.56C742.75 168.96 740.89 171.49 739.16 174.15C737.56 176.81 736.03 179.54 734.56 182.34C734.7 182.74 734.63 183.14 734.36 183.54C734.1 183.8 733.96 184.27 733.96 184.93C733.16 186 732.43 187.26 731.77 188.73C731.23 189.79 730.77 190.86 730.37 191.92C730.1 192.85 729.77 193.85 729.37 194.92C729.11 195.45 728.84 195.92 728.57 196.32C728.44 196.71 728.24 197.11 727.97 197.51C727.71 198.31 727.44 199.11 727.17 199.91C726.91 200.57 726.64 201.24 726.38 201.9C726.11 202.57 725.78 203.24 725.38 203.9C724.98 204.57 724.51 205.23 723.98 205.9C723.71 206.43 723.51 207.03 723.38 207.7C723.38 208.23 723.25 208.76 722.98 209.29C722.71 209.96 722.38 210.56 721.98 211.09C721.72 211.62 721.45 212.22 721.18 212.89C720.92 213.55 720.65 214.28 720.39 215.08C720.25 215.75 720.05 216.41 719.79 217.08C719.52 217.48 719.25 217.81 718.99 218.08C718.86 218.34 718.66 218.61 718.39 218.88C718.12 219.28 717.92 219.74 717.79 220.27C717.66 220.67 717.46 221.07 717.19 221.47C716.53 222.14 715.86 222.74 715.19 223.27C714.53 223.8 714 224.53 713.6 225.47C713.86 225.73 714.06 226.2 714.19 226.86C714.46 227.53 714.73 228.06 714.99 228.46ZM871.94 206.5C872.74 208.09 873.6 209.63 874.53 211.09C875.6 212.42 876.33 214.08 876.73 216.08C877.26 216.75 877.53 217.48 877.53 218.28C877.53 219.08 877.66 219.87 877.93 220.67C878.86 224 879.99 227.26 881.32 230.46C882.79 233.52 884.19 236.45 885.52 239.24C885.78 241.5 886.45 243.37 887.51 244.83C888.71 246.16 889.44 247.96 889.71 250.22C890.77 252.75 891.97 255.15 893.3 257.41C894.64 259.67 895.97 261.94 897.3 264.2C897.96 264.6 898.63 265 899.29 265.4C899.96 265.8 900.69 266.26 901.49 266.8C902.02 267.06 902.49 267.33 902.89 267.59C903.29 267.99 903.82 268.33 904.49 268.59C905.15 268.86 905.75 269.06 906.28 269.19C906.95 269.32 907.61 269.52 908.28 269.79C908.81 270.06 909.21 270.39 909.48 270.79C909.88 271.19 910.28 271.52 910.67 271.79C911.21 271.92 911.74 272.05 912.27 272.19C912.8 272.45 913.34 272.52 913.87 272.39C916.13 273.45 918.06 274.18 919.66 274.58C921.26 274.98 922.79 275.45 924.25 275.98C924.92 276.25 925.72 276.51 926.65 276.78C927.71 277.04 928.58 277.18 929.24 277.18C930.31 277.71 930.98 278.24 931.24 278.77C931.64 279.44 932.04 280.11 932.44 280.77C932.97 281.57 933.64 282.24 934.44 282.77C935.24 283.43 936.3 283.83 937.63 283.97C938.03 284.23 938.3 284.57 938.43 284.96C938.7 285.5 939.1 285.96 939.63 286.36C940.96 287.43 941.49 288.09 941.23 288.36C941.09 288.62 940.96 288.96 940.83 289.36C939.89 289.49 938.96 289.62 938.03 289.76C937.1 289.89 936.43 290.29 936.03 290.95C935.24 290.95 934.3 290.95 933.24 290.95C932.31 291.09 931.51 290.89 930.84 290.35C928.58 290.49 926.52 290.35 924.65 289.96C922.79 289.56 920.53 289.22 917.86 288.96C916.4 288.96 915 289.02 913.67 289.16C912.34 289.29 911.14 289.16 910.08 288.76C907.15 287.56 904.82 286.5 903.09 285.56C901.36 284.63 899.56 283.63 897.7 282.57C896.23 281.9 894.9 281.1 893.7 280.17C892.51 279.24 891.17 278.44 889.71 277.78C887.85 275.65 886.05 273.58 884.32 271.59C882.59 269.59 880.99 267.39 879.53 265C878.99 264.07 878.53 263.33 878.13 262.8C877.86 262.27 877.6 261.74 877.33 261.2C876.8 260.01 876.33 259.27 875.93 259.01C875.53 258.74 875.2 258.34 874.93 257.81C874.53 257.14 874.2 256.35 873.94 255.41C873.67 254.48 873.4 253.55 873.14 252.62C872.87 251.42 872.6 250.29 872.34 249.22C872.07 248.03 871.74 246.9 871.34 245.83C871.07 245.03 870.67 244.37 870.14 243.83C869.74 243.17 869.48 242.37 869.34 241.44C868.81 239.97 868.28 238.51 867.74 237.05C867.35 235.45 867.01 233.78 866.75 232.05C866.35 229.52 865.81 227.6 865.15 226.26C864.62 224.8 864.22 223.4 863.95 222.07C863.15 220.07 862.02 217.75 860.56 215.08C859.09 212.42 857.83 210.09 856.76 208.09C856.5 207.43 856.3 206.9 856.16 206.5C856.16 206.1 855.96 205.77 855.56 205.5C854.9 206.17 854.3 207.3 853.77 208.89C853.24 210.49 852.7 211.69 852.17 212.49C850.71 214.88 849.78 216.81 849.38 218.28C848.98 219.61 848.38 220.94 847.58 222.27C847.18 224.93 846.45 227.26 845.38 229.26C845.11 231.12 844.45 232.52 843.38 233.45C842.72 235.85 841.92 238.24 840.99 240.64C840.06 243.04 839.19 245.37 838.39 247.63C838.13 248.83 837.79 249.96 837.39 251.02C837 252.09 836.86 253.15 837 254.22C837 255.28 836.8 256.21 836.4 257.01C836.13 257.81 835.86 258.74 835.6 259.81C834.93 261.67 833.47 262.8 831.2 263.2C829.08 263.6 827.01 264.07 825.01 264.6C824.22 264.87 823.28 265.13 822.22 265.4C820.62 265.8 818.89 266.46 817.03 267.39C815.3 268.46 813.5 268.86 811.64 268.59C810.44 268.33 810.04 267.59 810.44 266.4C810.7 265.33 811.17 264.53 811.84 264C812.5 262.54 813.23 261.07 814.03 259.61C814.7 258.14 815.43 256.75 816.23 255.41C816.5 254.22 816.96 253.28 817.63 252.62C818.43 252.09 818.96 251.35 819.22 250.42C819.49 250.16 819.69 249.82 819.82 249.42C820.09 249.02 820.29 248.69 820.42 248.43C820.69 247.76 820.82 247.1 820.82 246.43C820.95 245.63 821.15 244.9 821.42 244.23C821.82 243.17 822.15 242.1 822.42 241.04C822.82 239.84 823.35 238.58 824.02 237.25C824.28 236.45 824.55 235.65 824.81 234.85C825.21 234.05 825.61 233.12 826.01 232.05C826.28 231.25 826.68 230.52 827.21 229.86C827.74 229.06 828.21 228.26 828.61 227.46C829.41 225.6 830.01 224.13 830.41 223.07C830.81 221.87 831.34 220.74 832 219.67C833.07 216.88 834.27 214.35 835.6 212.09C837.06 209.69 838.46 207.16 839.79 204.5C840.06 204.1 840.32 203.77 840.59 203.5C840.86 203.1 841.06 202.64 841.19 202.1C841.72 201.84 842.12 201.37 842.39 200.71C842.65 200.04 843.05 199.58 843.58 199.31C844.12 198.51 844.52 197.71 844.78 196.91C845.05 196.12 845.45 195.45 845.98 194.92C847.44 192.25 848.71 189.59 849.78 186.93C850.04 186.27 850.17 185.67 850.17 185.13C850.31 184.6 850.51 184.07 850.77 183.54C851.57 182.6 852.04 181.87 852.17 181.34C852.44 180.81 852.7 180.34 852.97 179.94C853.5 179.01 854.03 178.15 854.57 177.35C855.23 176.42 855.83 175.42 856.36 174.35C857.03 172.35 857.89 170.56 858.96 168.96C860.16 167.23 861.09 165.43 861.76 163.57C862.55 162.37 863.02 161.71 863.15 161.57C863.29 161.44 863.35 161.24 863.35 160.97C865.08 157.65 866.61 154.58 867.94 151.79C869.41 148.86 870.87 145.87 872.34 142.8C870.87 143.07 869.54 143.74 868.34 144.8C867.28 145.87 866.15 146.6 864.95 147C864.68 147.4 864.42 147.73 864.15 148C863.88 148.26 863.62 148.53 863.35 148.8C860.03 150.39 856.96 152.19 854.17 154.18C851.37 156.18 848.91 158.65 846.78 161.57C846.11 161.84 845.38 162.24 844.58 162.77C843.92 163.17 843.25 163.57 842.59 163.97C841.65 164.37 840.46 164.63 838.99 164.77C837.53 164.9 836.4 164.43 835.6 163.37C835.06 159.51 835.4 156.65 836.6 154.78C837.79 152.92 838.93 151.06 839.99 149.19C841.72 147.6 843.58 146.2 845.58 145C847.58 143.67 849.51 142.41 851.37 141.21C853.1 140.01 854.17 139.21 854.57 138.81C855.1 138.41 855.63 138.08 856.16 137.81C859.36 135.68 862.69 133.35 866.15 130.83C868.28 128.96 870.61 127.56 873.14 126.63C875.67 125.83 877.79 125.23 879.53 124.83C881.26 124.3 882.85 123.7 884.32 123.04C888.58 122.24 892.51 121.24 896.1 120.04C899.69 118.71 903.35 117.38 907.08 116.05C908.94 115.78 910.67 115.65 912.27 115.65C914 115.52 915.87 115.38 917.86 115.25C918.4 115.65 919.13 115.85 920.06 115.85C921.12 115.72 922.06 115.72 922.85 115.85C923.92 116.12 924.92 116.38 925.85 116.65C926.92 116.78 927.98 116.98 929.05 117.25C929.84 118.05 930.98 118.65 932.44 119.05C934.04 119.31 935.5 119.71 936.83 120.24C937.9 120.78 938.9 121.31 939.83 121.84C940.76 122.24 941.76 122.71 942.82 123.24C943.75 124.3 944.15 125.23 944.02 126.03C944.02 126.83 944.09 127.96 944.22 129.43C944.35 130.09 944.42 130.76 944.42 131.42C944.55 131.96 944.69 132.56 944.82 133.22C944.82 133.75 944.89 134.22 945.02 134.62C945.28 135.02 945.42 135.42 945.42 135.82C945.55 138.08 945.68 140.34 945.82 142.6C946.08 144.73 946.08 146.93 945.82 149.19C945.55 150.79 945.09 152.19 944.42 153.39C943.75 154.45 943.09 155.72 942.42 157.18C941.62 158.51 940.76 159.84 939.83 161.17C938.9 162.5 937.9 163.9 936.83 165.37C936.43 165.63 936.03 165.9 935.63 166.17C935.37 166.3 935.17 166.63 935.04 167.16C933.3 168.5 931.71 169.56 930.24 170.36C928.78 171.16 927.51 171.96 926.45 172.75C925.92 173.02 925.38 173.29 924.85 173.55C924.32 173.82 923.79 174.08 923.25 174.35C922.72 174.88 922.06 175.42 921.26 175.95C920.46 176.48 919.73 177.01 919.06 177.55C918 178.61 917.07 179.34 916.27 179.74C915.47 180.14 914.94 180.81 914.67 181.74C911.61 183.47 908.88 185.47 906.48 187.73C904.09 189.86 901.49 191.85 898.69 193.72C897.63 194.65 896.56 195.58 895.5 196.51C894.57 197.45 893.44 198.24 892.11 198.91C890.24 199.71 888.84 200.44 887.91 201.11C887.11 201.77 885.98 202.24 884.52 202.5C882.79 203.57 880.79 204.43 878.53 205.1C876.4 205.77 874.2 206.23 871.94 206.5ZM916.47 128.63C915.93 128.76 915.27 128.83 914.47 128.83C913.67 128.83 912.8 128.96 911.87 129.23C910.54 129.49 909.08 129.96 907.48 130.63C905.88 131.29 904.29 131.76 902.69 132.02C900.56 132.56 898.83 133.02 897.5 133.42C896.3 133.82 895.43 134.15 894.9 134.42C894.64 134.68 894.44 135.15 894.3 135.82C894.3 136.48 894.17 137.01 893.9 137.41C893.37 138.75 892.71 140.01 891.91 141.21C891.11 142.27 890.51 143.34 890.11 144.4C888.64 146.13 887.58 147.86 886.91 149.59C886.25 151.19 885.58 152.72 884.92 154.18C883.19 156.45 881.86 158.45 880.92 160.18C880.26 160.97 879.86 161.44 879.73 161.57C879.59 161.57 879.53 161.71 879.53 161.97C877.93 163.57 876.6 165.37 875.53 167.36C874.6 169.36 873.4 171.09 871.94 172.55C870.87 174.15 870.07 175.55 869.54 176.75C869.14 177.95 868.41 179.01 867.35 179.94C866.81 181.01 866.28 182.07 865.75 183.14C865.35 184.07 864.88 185.07 864.35 186.13C863.15 188.79 861.69 191.39 859.96 193.92C859.96 194.58 859.76 195.12 859.36 195.52C859.09 195.92 858.83 196.38 858.56 196.91C859.09 197.31 859.63 197.38 860.16 197.11C860.69 196.85 861.16 196.58 861.56 196.32C864.62 194.58 867.94 193.12 871.54 191.92C875.13 190.59 878.39 188.93 881.32 186.93C883.85 185.47 886.18 184.13 888.31 182.94C890.44 181.61 892.51 180.21 894.5 178.74C896.5 177.68 898.03 176.88 899.09 176.35C900.16 175.68 901.42 175.08 902.89 174.55C903.95 173.62 905.08 172.82 906.28 172.15C907.48 171.49 908.41 170.69 909.08 169.76C910.54 168.56 911.87 167.23 913.07 165.77C914.27 164.17 915.53 162.7 916.87 161.37C917.53 161.24 917.93 161.04 918.06 160.77C918.2 160.38 918.6 160.18 919.26 160.18C920.33 158.71 921.59 157.45 923.05 156.38C924.65 155.18 925.85 153.85 926.65 152.39C927.32 151.32 927.78 150.26 928.05 149.19C928.45 148.13 928.98 146.93 929.64 145.6C929.38 144.53 929.58 143.47 930.24 142.41C931.04 141.21 931.31 140.14 931.04 139.21C930.78 138.28 930.24 137.48 929.44 136.81C928.65 136.02 928.05 135.22 927.65 134.42C927.38 133.35 927.05 132.56 926.65 132.02C926.38 131.49 926.12 130.83 925.85 130.03C925.32 129.76 924.85 129.49 924.45 129.23C924.05 128.96 923.39 128.9 922.46 129.03C921.79 128.76 920.86 128.7 919.66 128.83C918.6 128.83 917.53 128.76 916.47 128.63ZM1045.26 115.85C1045.39 116.52 1045.66 117.11 1046.06 117.65C1046.45 118.05 1046.85 118.38 1047.25 118.65C1047.39 119.71 1047.45 120.84 1047.45 122.04C1047.59 123.1 1047.79 124.17 1048.05 125.23C1048.05 125.77 1048.05 126.37 1048.05 127.03C1048.05 127.56 1048.25 128.03 1048.65 128.43C1048.25 133.09 1047.59 136.95 1046.65 140.01C1045.86 142.94 1045.12 146.2 1044.46 149.79C1044.32 150.46 1044.12 151.12 1043.86 151.79C1043.72 152.32 1043.66 152.92 1043.66 153.59C1043.52 154.12 1043.46 154.58 1043.46 154.98C1043.59 155.38 1043.59 155.85 1043.46 156.38C1043.19 157.18 1042.79 158.05 1042.26 158.98C1041.73 159.91 1041.2 160.91 1040.66 161.97C1038.53 165.83 1036.14 169.49 1033.47 172.95C1030.95 176.42 1027.75 179.08 1023.89 180.94C1022.43 181.61 1021.16 182.27 1020.1 182.94C1019.16 183.47 1017.97 183.87 1016.5 184.13C1015.57 184.67 1014.44 185.27 1013.11 185.93C1011.91 186.46 1010.71 186.86 1009.51 187.13C1008.98 187.4 1008.45 187.53 1007.92 187.53C1007.38 187.53 1006.85 187.6 1006.32 187.73C1005.65 188 1005.05 188.26 1004.52 188.53C1004.12 188.66 1003.72 188.79 1003.32 188.93C1002.26 189.19 1001.46 189.33 1000.93 189.33C1000 189.19 999.33 188.66 998.93 187.73C998.53 186.66 998.33 185.6 998.33 184.53C997.8 184 997.2 183.54 996.53 183.14C995.87 182.74 995.4 182 995.14 180.94C994.74 179.48 994.47 178.68 994.34 178.54C994.21 178.41 994.07 178.21 993.94 177.95C993.27 176.08 993.01 174.02 993.14 171.76C993.41 169.36 993.94 167.43 994.74 165.97C995 165.3 995.4 164.83 995.94 164.57C996.47 164.17 996.8 163.64 996.93 162.97C998 162.3 998.93 161.64 999.73 160.97C1000.53 160.18 1001.46 159.44 1002.53 158.78C1003.86 156.52 1005.39 154.78 1007.12 153.59C1008.85 152.39 1010.51 151.12 1012.11 149.79C1012.64 149.39 1013.04 148.93 1013.31 148.4C1013.71 147.86 1014.24 147.33 1014.91 146.8C1015.3 146.4 1015.77 146.07 1016.3 145.8C1016.84 145.4 1017.3 145.07 1017.7 144.8C1017.97 144.53 1018.23 144.27 1018.5 144C1018.77 143.74 1019.03 143.47 1019.3 143.2C1019.83 142.94 1020.36 142.8 1020.89 142.8C1021.43 142.8 1021.96 142.67 1022.49 142.41C1024.36 142.14 1025.29 142.27 1025.29 142.8C1025.29 143.2 1025.29 143.67 1025.29 144.2C1024.62 144.6 1023.82 145 1022.89 145.4C1021.96 145.67 1021.03 145.93 1020.1 146.2C1019.83 147.26 1019.23 148.06 1018.3 148.6C1017.5 149.13 1016.77 149.86 1016.1 150.79C1015.57 151.46 1015.11 152.12 1014.71 152.79C1014.44 153.32 1013.84 153.72 1012.91 153.99C1012.24 155.58 1011.38 156.98 1010.31 158.18C1009.38 159.24 1008.45 160.38 1007.52 161.57C1007.52 163.04 1007.18 164.3 1006.52 165.37C1005.99 166.3 1005.39 167.3 1004.72 168.36C1004.46 168.89 1004.19 169.43 1003.92 169.96C1003.66 170.49 1003.52 170.89 1003.52 171.16C1003.66 171.42 1003.79 171.82 1003.92 172.35C1004.19 172.75 1004.46 173.15 1004.72 173.55C1004.99 173.95 1005.25 174.28 1005.52 174.55C1005.92 174.82 1006.19 175.15 1006.32 175.55C1009.51 173.55 1012.64 171.56 1015.7 169.56C1018.9 167.56 1021.63 165.17 1023.89 162.37C1024.56 161.17 1025.16 160.04 1025.69 158.98C1026.35 157.78 1027.02 156.52 1027.68 155.18C1027.95 153.85 1028.35 152.59 1028.88 151.39C1029.41 150.19 1030.01 148.99 1030.68 147.8C1031.34 146.47 1031.94 145.13 1032.48 143.8C1033.01 142.47 1033.34 141.07 1033.47 139.61C1033.61 138.55 1033.61 137.41 1033.47 136.22C1033.47 134.88 1033.67 133.89 1034.07 133.22C1033.81 132.56 1033.81 131.69 1034.07 130.63C1034.34 129.43 1034.41 128.3 1034.27 127.23C1033.34 125.23 1032.41 124.1 1031.48 123.84C1030.55 123.44 1029.55 123.1 1028.48 122.84C1027.42 123.5 1026.29 124.24 1025.09 125.03C1023.89 125.83 1022.76 126.7 1021.69 127.63C1020.89 128.43 1020.03 129.23 1019.1 130.03C1018.3 130.83 1017.63 131.76 1017.1 132.82C1015.37 134.68 1013.97 136.35 1012.91 137.81C1011.84 139.14 1010.78 140.54 1009.71 142.01C1007.45 143.47 1005.39 145.07 1003.52 146.8C1001.66 148.53 999.6 150.13 997.33 151.59C995.6 152.92 993.87 154.32 992.14 155.78C990.55 157.11 989.01 158.51 987.55 159.98C986.22 161.44 984.82 162.84 983.36 164.17C981.89 165.37 980.56 166.7 979.36 168.16C978.3 169.63 977.17 171.16 975.97 172.75C974.77 174.22 973.57 175.68 972.37 177.15C971.71 177.81 971.11 178.54 970.58 179.34C970.05 180.14 969.45 180.94 968.78 181.74C968.11 182.4 967.45 183.14 966.78 183.93C966.25 184.73 965.72 185.47 965.19 186.13C964.79 186.8 964.45 187.53 964.19 188.33C963.92 188.99 963.59 189.66 963.19 190.32C961.86 191.92 960.53 193.58 959.2 195.32C958 196.91 956.93 198.78 956 200.91C954.4 203.04 953.14 205.17 952.21 207.3C951.41 209.29 950.48 211.29 949.41 213.29C949.15 215.15 948.61 216.81 947.82 218.28C947.15 219.74 946.68 221.4 946.42 223.27C946.28 224.2 946.02 225.13 945.62 226.06C945.35 226.86 945.15 227.79 945.02 228.86C944.75 229.79 944.62 230.79 944.62 231.85C944.62 232.79 944.49 233.65 944.22 234.45C943.42 236.18 943.02 237.45 943.02 238.24C943.02 238.91 942.69 239.44 942.02 239.84C942.42 240.91 942.76 241.84 943.02 242.64C943.42 243.43 943.95 244.23 944.62 245.03C944.89 245.56 945.28 246.03 945.82 246.43C946.35 246.83 946.75 247.29 947.02 247.83C947.55 249.16 947.95 249.96 948.21 250.22C948.61 250.49 949.08 250.82 949.61 251.22C950.01 251.49 950.48 251.82 951.01 252.22C951.67 252.62 952.27 252.89 952.81 253.02C953.47 253.28 954.14 253.42 954.8 253.42C955.6 253.28 956.33 253.28 957 253.42C957.67 253.42 958.26 253.48 958.8 253.62C959.33 253.62 959.93 253.55 960.59 253.42C961.66 253.15 962.92 252.89 964.39 252.62C965.85 252.22 967.18 251.89 968.38 251.62C970.25 251.09 972.04 250.56 973.77 250.02C975.64 249.49 977.37 248.89 978.96 248.23C980.7 247.56 982.09 246.63 983.16 245.43C984.22 244.23 985.42 243.3 986.75 242.64C988.88 241.04 990.35 239.77 991.14 238.84C992.08 237.78 993.07 236.91 994.14 236.25C995.07 235.05 995.6 234.45 995.74 234.45C995.87 234.45 996 234.38 996.14 234.25C997.07 233.19 997.93 232.25 998.73 231.45C999.66 230.52 1000.6 229.52 1001.53 228.46C1002.99 227.79 1004.19 226.93 1005.12 225.87C1006.19 225.47 1007.05 224.93 1007.72 224.27C1008.52 223.6 1009.31 222.94 1010.11 222.27C1011.18 221.47 1011.91 220.87 1012.31 220.47C1012.84 219.94 1013.31 219.41 1013.71 218.88C1014.24 218.34 1014.77 217.75 1015.3 217.08C1015.57 216.81 1015.97 216.55 1016.5 216.28C1017.04 215.88 1017.57 215.35 1018.1 214.68C1018.37 214.28 1018.63 213.75 1018.9 213.09C1019.16 212.42 1019.63 212.09 1020.3 212.09C1021.09 211.95 1021.96 212.35 1022.89 213.29C1023.82 214.08 1024.29 214.95 1024.29 215.88C1023.09 217.75 1022.43 218.88 1022.29 219.28C1021.36 220.61 1020.36 221.87 1019.3 223.07C1018.23 224.27 1017.17 225.6 1016.1 227.06C1015.04 228.26 1013.97 229.52 1012.91 230.86C1011.84 232.05 1010.84 233.38 1009.91 234.85C1008.98 236.31 1007.92 237.64 1006.72 238.84C1005.65 239.91 1004.52 241.1 1003.32 242.44C1001.59 244.3 999.86 246.03 998.13 247.63C996.53 249.22 995 251.15 993.54 253.42C992.87 254.08 992.21 254.75 991.54 255.41C990.88 255.95 990.21 256.55 989.55 257.21C988.88 257.61 988.21 258.08 987.55 258.61C987.02 259.01 986.42 259.41 985.75 259.81C983.09 260.74 980.36 261.94 977.57 263.4C974.9 265 971.91 266.26 968.58 267.19C967.12 267.59 965.58 268.06 963.99 268.59C962.52 269.12 960.86 269.32 959 269.19C958.73 269.06 958.4 268.99 958 268.99C957.6 268.99 957.2 268.92 956.8 268.79C956 268.66 955.14 268.39 954.2 267.99C953.41 267.59 952.47 267.33 951.41 267.19C950.74 267.19 950.14 267.26 949.61 267.39C949.08 267.66 948.48 267.79 947.82 267.79C944.89 265.93 942.49 264.33 940.63 263C938.9 261.8 937.3 260.34 935.83 258.61C934.77 256.88 934.04 255.81 933.64 255.41C933.24 254.88 932.77 254.28 932.24 253.62C931.71 252.82 931.17 252.02 930.64 251.22C930.11 250.29 929.58 249.29 929.05 248.23C929.05 247.69 928.85 247.23 928.45 246.83C928.18 246.43 927.91 245.96 927.65 245.43C926.98 243.17 926.65 240.84 926.65 238.44C926.65 235.91 926.72 233.45 926.85 231.06C926.98 230.39 926.98 229.79 926.85 229.26C926.72 228.59 926.65 227.93 926.65 227.26C926.65 226.2 926.85 225.07 927.25 223.87C927.65 222.67 927.98 221.54 928.25 220.47C929.05 217.55 929.91 214.82 930.84 212.29C931.91 209.63 933.1 207.16 934.44 204.9C935.63 203.3 936.5 201.77 937.03 200.31C937.7 198.84 938.36 197.31 939.03 195.72C939.69 194.25 940.36 192.85 941.03 191.52C941.69 190.06 942.42 188.59 943.22 187.13C943.89 185.8 944.55 184.47 945.22 183.14C946.02 181.81 947.02 180.61 948.21 179.54C948.61 178.08 949.21 176.88 950.01 175.95C950.81 174.88 951.61 173.82 952.41 172.75C953.74 170.89 955.07 169.16 956.4 167.56C957.87 165.97 959.13 164.17 960.19 162.17C961.26 161.37 962.19 160.51 962.99 159.58C963.92 158.65 964.79 157.71 965.58 156.78C966.52 155.72 967.38 154.78 968.18 153.99C969.11 153.05 970.05 152.06 970.98 150.99C971.51 150.59 971.98 150.19 972.37 149.79C972.91 149.26 973.37 148.8 973.77 148.4C974.7 147.33 975.64 146.4 976.57 145.6C977.5 144.8 978.5 144 979.56 143.2C980.76 142.67 981.89 141.94 982.96 141.01C984.16 139.81 985.29 138.61 986.35 137.41C987.55 136.08 988.75 134.88 989.95 133.82C991.81 131.96 993.74 130.16 995.74 128.43C997.73 126.57 999.86 124.9 1002.13 123.44C1003.46 121.97 1005.05 120.78 1006.92 119.84C1008.78 118.78 1010.64 117.78 1012.51 116.85C1013.57 116.45 1014.44 116.12 1015.11 115.85C1015.9 115.45 1016.77 114.98 1017.7 114.45C1019.16 113.52 1020.23 113.06 1020.89 113.06C1021.56 112.92 1022.09 112.59 1022.49 112.06C1024.09 112.06 1025.49 111.86 1026.69 111.46C1027.88 110.93 1029.21 110.86 1030.68 111.26C1031.21 111.39 1031.68 111.59 1032.08 111.86C1032.48 111.99 1032.88 112.12 1033.27 112.26C1035.81 112.52 1037.6 112.92 1038.67 113.45C1039.73 113.99 1040.73 114.52 1041.66 115.05C1042.73 115.45 1043.92 115.72 1045.26 115.85Z" />
	<path id="Layer" fill-rule="evenodd" class="shp0" d="M70.24 338.38L52.27 338.38L52.27 388.22L44.93 388.22L44.93 338.38L27 338.38L27 332.31L70.24 332.31L70.24 338.38ZM84.52 351.71C87.67 347.84 91.77 345.91 96.81 345.91C105.59 345.91 110.02 350.86 110.1 360.77L110.1 388.22L102.99 388.22L102.99 360.73C102.97 357.73 102.28 355.52 100.92 354.09C99.59 352.65 97.5 351.94 94.66 351.94C92.36 351.94 90.33 352.55 88.59 353.78C86.85 355.01 85.49 356.62 84.52 358.62L84.52 388.22L77.42 388.22L77.42 329.24L84.52 329.24L84.52 351.71ZM137.97 388.99C132.34 388.99 127.76 387.14 124.23 383.46C120.69 379.75 118.93 374.79 118.93 368.6L118.93 367.29C118.93 363.17 119.71 359.5 121.27 356.28C122.86 353.02 125.06 350.49 127.87 348.67C130.72 346.83 133.79 345.91 137.09 345.91C142.49 345.91 146.69 347.69 149.68 351.24C152.68 354.8 154.18 359.9 154.18 366.53L154.18 369.48L126.03 369.48C126.13 373.58 127.32 376.89 129.6 379.43C131.91 381.94 134.82 383.19 138.36 383.19C140.87 383.19 142.99 382.68 144.73 381.65C146.47 380.63 148 379.27 149.3 377.58L153.64 380.96C150.16 386.31 144.94 388.99 137.97 388.99ZM137.09 351.74C134.22 351.74 131.82 352.79 129.87 354.89C127.93 356.97 126.72 359.88 126.26 363.65L147.07 363.65L147.07 363.11C146.87 359.5 145.9 356.71 144.16 354.74C142.42 352.74 140.06 351.74 137.09 351.74ZM205.94 372.48L195.8 372.48L192.73 388.22L187.24 388.22L190.31 372.48L181.13 372.48L181.13 367.22L191.31 367.22L193.96 353.63L184.05 353.63L184.05 348.29L195 348.29L198.14 332.31L203.64 332.31L200.49 348.29L210.63 348.29L213.77 332.31L219.3 332.31L216.15 348.29L223.99 348.29L223.99 353.63L215.12 353.63L212.47 367.22L221.11 367.22L221.11 372.48L211.47 372.48L208.4 388.22L202.87 388.22L205.94 372.48ZM196.8 367.22L206.94 367.22L209.59 353.63L199.45 353.63L196.8 367.22ZM253.02 388.22L245.88 388.22L245.88 340.88L231.55 346.14L231.55 339.69L251.9 332.05L253.02 332.05L253.02 388.22ZM303.67 356.81L309 356.81C312.36 356.76 314.99 355.88 316.91 354.16C318.83 352.45 319.79 350.13 319.79 347.21C319.79 340.66 316.53 337.38 310 337.38C306.93 337.38 304.47 338.27 302.63 340.03C300.81 341.77 299.9 344.09 299.9 346.98L292.8 346.98C292.8 342.55 294.41 338.88 297.64 335.96C300.89 333.02 305.01 331.55 310 331.55C315.27 331.55 319.41 332.94 322.4 335.73C325.4 338.52 326.9 342.4 326.9 347.37C326.9 349.8 326.1 352.15 324.52 354.43C322.95 356.71 320.82 358.41 318.1 359.54C321.18 360.51 323.54 362.12 325.21 364.38C326.9 366.63 327.74 369.38 327.74 372.63C327.74 377.65 326.1 381.63 322.83 384.57C319.55 387.52 315.29 388.99 310.04 388.99C304.79 388.99 300.52 387.57 297.21 384.73C293.94 381.89 292.3 378.13 292.3 373.48L299.44 373.48C299.44 376.42 300.4 378.77 302.32 380.54C304.24 382.31 306.81 383.19 310.04 383.19C313.47 383.19 316.09 382.29 317.91 380.5C319.73 378.71 320.64 376.14 320.64 372.79C320.64 369.53 319.64 367.04 317.64 365.3C315.65 363.56 312.77 362.66 309 362.61L303.67 362.61L303.67 356.81ZM358.31 353.05C357.23 352.87 356.07 352.78 354.81 352.78C350.15 352.78 346.99 354.76 345.33 358.73L345.33 388.22L338.22 388.22L338.22 346.68L345.14 346.68L345.25 351.48C347.58 347.76 350.88 345.91 355.16 345.91C356.54 345.91 357.59 346.09 358.31 346.45L358.31 353.05ZM362.38 367.1C362.38 360.73 363.89 355.61 366.91 351.74C369.93 347.85 373.88 345.91 378.77 345.91C383.64 345.91 387.49 347.57 390.33 350.9L390.33 329.24L397.44 329.24L397.44 388.22L390.91 388.22L390.56 383.77C387.72 387.25 383.77 388.99 378.7 388.99C373.88 388.99 369.95 387.02 366.91 383.08C363.89 379.13 362.38 373.99 362.38 367.64L362.38 367.1ZM369.48 367.91C369.48 372.62 370.45 376.31 372.4 378.97C374.34 381.63 377.03 382.96 380.46 382.96C384.97 382.96 388.26 380.94 390.33 376.89L390.33 357.81C388.21 353.89 384.94 351.94 380.54 351.94C377.06 351.94 374.34 353.28 372.4 355.97C370.45 358.65 369.48 362.64 369.48 367.91ZM423.28 367.37L404.54 367.37L404.54 361.57L423.28 361.57L423.28 367.37ZM465.32 367.91C465.32 374.23 463.88 379.33 460.99 383.19C458.09 387.06 454.18 388.99 449.23 388.99C444.19 388.99 440.22 387.39 437.33 384.19L437.33 404.19L430.23 404.19L430.23 346.68L436.72 346.68L437.06 351.28C439.95 347.7 443.97 345.91 449.12 345.91C454.11 345.91 458.05 347.79 460.95 351.55C463.86 355.31 465.32 360.55 465.32 367.26L465.32 367.91ZM458.22 367.1C458.22 362.42 457.22 358.72 455.23 356.01C453.23 353.29 450.49 351.94 447.01 351.94C442.71 351.94 439.48 353.84 437.33 357.66L437.33 377.51C439.46 381.3 442.71 383.19 447.08 383.19C450.49 383.19 453.19 381.85 455.19 379.16C457.21 376.45 458.22 372.43 458.22 367.1ZM500.04 388.22C499.63 387.4 499.29 385.94 499.04 383.84C495.74 387.27 491.79 388.99 487.21 388.99C483.12 388.99 479.75 387.84 477.11 385.53C474.5 383.2 473.2 380.26 473.2 376.7C473.2 372.38 474.84 369.02 478.11 366.64C481.41 364.23 486.05 363.03 492.01 363.03L498.92 363.03L498.92 359.77C498.92 357.29 498.18 355.31 496.7 353.85C495.21 352.37 493.02 351.63 490.13 351.63C487.6 351.63 485.47 352.27 483.76 353.55C482.04 354.83 481.18 356.38 481.18 358.19L474.04 358.19C474.04 356.12 474.77 354.12 476.23 352.21C477.72 350.26 479.71 348.72 482.22 347.6C484.75 346.47 487.53 345.91 490.55 345.91C495.34 345.91 499.09 347.11 501.8 349.52C504.52 351.9 505.93 355.19 506.03 359.38L506.03 378.51C506.03 382.32 506.51 385.35 507.49 387.61L507.49 388.22L500.04 388.22ZM488.25 382.81C490.48 382.81 492.59 382.23 494.58 381.08C496.58 379.93 498.03 378.43 498.92 376.59L498.92 368.06L493.36 368.06C484.65 368.06 480.3 370.61 480.3 375.7C480.3 377.93 481.04 379.67 482.53 380.92C484.01 382.18 485.92 382.81 488.25 382.81ZM537.25 353.05C536.17 352.87 535.01 352.78 533.75 352.78C529.09 352.78 525.93 354.76 524.27 358.73L524.27 388.22L517.16 388.22L517.16 346.68L524.07 346.68L524.19 351.48C526.52 347.76 529.82 345.91 534.1 345.91C535.48 345.91 536.53 346.09 537.25 346.45L537.25 353.05ZM555.37 336.62L555.37 346.68L563.13 346.68L563.13 352.17L555.37 352.17L555.37 377.93C555.37 379.59 555.72 380.85 556.41 381.69C557.1 382.51 558.27 382.92 559.94 382.92C560.76 382.92 561.88 382.77 563.32 382.46L563.32 388.22C561.45 388.73 559.63 388.99 557.87 388.99C554.69 388.99 552.3 388.03 550.68 386.11C549.07 384.19 548.27 381.46 548.27 377.93L548.27 352.17L540.7 352.17L540.7 346.68L548.27 346.68L548.27 336.62L555.37 336.62ZM585.05 377.82L594.73 346.68L602.33 346.68L585.63 394.63C583.04 401.54 578.93 405 573.3 405L571.96 404.89L569.31 404.39L569.31 398.63L571.23 398.78C573.64 398.78 575.5 398.29 576.83 397.32C578.19 396.35 579.31 394.57 580.17 391.98L581.75 387.76L566.93 346.68L574.68 346.68L585.05 377.82ZM631.71 388.22L631.71 352.17L625.14 352.17L625.14 346.68L631.71 346.68L631.71 342.41C631.71 337.96 632.9 334.52 635.28 332.09C637.66 329.65 641.03 328.44 645.38 328.44C647.02 328.44 648.64 328.66 650.25 329.09L649.87 334.85C648.67 334.62 647.39 334.5 646.03 334.5C643.73 334.5 641.95 335.18 640.69 336.54C639.44 337.87 638.81 339.79 638.81 342.3L638.81 346.68L647.68 346.68L647.68 352.17L638.81 352.17L638.81 388.22L631.71 388.22ZM675.64 353.05C674.56 352.87 673.4 352.78 672.14 352.78C667.48 352.78 664.32 354.76 662.66 358.73L662.66 388.22L655.55 388.22L655.55 346.68L662.46 346.68L662.58 351.48C664.91 347.76 668.21 345.91 672.49 345.91C673.87 345.91 674.92 346.09 675.64 346.45L675.64 353.05ZM698.67 388.99C693.04 388.99 688.46 387.14 684.93 383.46C681.4 379.75 679.63 374.79 679.63 368.6L679.63 367.29C679.63 363.17 680.41 359.5 681.97 356.28C683.56 353.02 685.76 350.49 688.58 348.67C691.42 346.83 694.49 345.91 697.79 345.91C703.19 345.91 707.39 347.69 710.39 351.24C713.38 354.8 714.88 359.9 714.88 366.53L714.88 369.48L686.73 369.48C686.84 373.58 688.02 376.89 690.3 379.43C692.61 381.94 695.53 383.19 699.06 383.19C701.57 383.19 703.69 382.68 705.43 381.65C707.17 380.63 708.7 379.27 710 377.58L714.34 380.96C710.86 386.31 705.64 388.99 698.67 388.99ZM697.79 351.74C694.92 351.74 692.52 352.79 690.57 354.89C688.63 356.97 687.42 359.88 686.96 363.65L707.77 363.65L707.77 363.11C707.57 359.5 706.6 356.71 704.86 354.74C703.12 352.74 700.76 351.74 697.79 351.74ZM740.38 388.99C734.74 388.99 730.16 387.14 726.63 383.46C723.1 379.75 721.33 374.79 721.33 368.6L721.33 367.29C721.33 363.17 722.11 359.5 723.67 356.28C725.26 353.02 727.46 350.49 730.28 348.67C733.12 346.83 736.19 345.91 739.49 345.91C744.89 345.91 749.09 347.69 752.09 351.24C755.08 354.8 756.58 359.9 756.58 366.53L756.58 369.48L728.43 369.48C728.54 373.58 729.73 376.89 732.01 379.43C734.31 381.94 737.23 383.19 740.76 383.19C743.27 383.19 745.39 382.68 747.13 381.65C748.88 380.63 750.4 379.27 751.7 377.58L756.04 380.96C752.56 386.31 747.34 388.99 740.38 388.99ZM739.49 351.74C736.62 351.74 734.22 352.79 732.27 354.89C730.33 356.97 729.13 359.88 728.66 363.65L749.48 363.65L749.48 363.11C749.27 359.5 748.3 356.71 746.56 354.74C744.82 352.74 742.46 351.74 739.49 351.74ZM794.98 332.31L813.26 377.93L831.54 332.31L841.1 332.31L841.1 388.22L833.72 388.22L833.72 366.45L834.41 342.95L816.06 388.22L810.42 388.22L792.1 343.07L792.83 366.45L792.83 388.22L785.46 388.22L785.46 332.31L794.98 332.31ZM860.72 388.22L853.61 388.22L853.61 346.68L860.72 346.68L860.72 388.22ZM853.04 335.66C853.04 334.5 853.38 333.53 854.08 332.74C854.79 331.94 855.84 331.55 857.22 331.55C858.61 331.55 859.66 331.94 860.37 332.74C861.09 333.53 861.45 334.5 861.45 335.66C861.45 336.81 861.09 337.77 860.37 338.54C859.66 339.3 858.61 339.69 857.22 339.69C855.84 339.69 854.79 339.3 854.08 338.54C853.38 337.77 853.04 336.81 853.04 335.66ZM878.84 346.68L879.07 351.9C882.25 347.9 886.39 345.91 891.51 345.91C900.29 345.91 904.72 350.86 904.8 360.77L904.8 388.22L897.7 388.22L897.7 360.73C897.67 357.73 896.98 355.52 895.62 354.09C894.29 352.65 892.21 351.94 889.36 351.94C887.06 351.94 885.04 352.55 883.3 353.78C881.56 355.01 880.2 356.62 879.23 358.62L879.23 388.22L872.12 388.22L872.12 346.68L878.84 346.68ZM932.75 388.99C927.12 388.99 922.54 387.14 919.01 383.46C915.47 379.75 913.71 374.79 913.71 368.6L913.71 367.29C913.71 363.17 914.49 359.5 916.05 356.28C917.64 353.02 919.84 350.49 922.65 348.67C925.5 346.83 928.57 345.91 931.87 345.91C937.27 345.91 941.47 347.69 944.47 351.24C947.46 354.8 948.96 359.9 948.96 366.53L948.96 369.48L920.81 369.48C920.92 373.58 922.11 376.89 924.38 379.43C926.69 381.94 929.61 383.19 933.14 383.19C935.65 383.19 937.77 382.68 939.51 381.65C941.25 380.63 942.78 379.27 944.08 377.58L948.42 380.96C944.94 386.31 939.72 388.99 932.75 388.99ZM931.87 351.74C929 351.74 926.6 352.79 924.65 354.89C922.71 356.97 921.5 359.88 921.04 363.65L941.86 363.65L941.86 363.11C941.65 359.5 940.68 356.71 938.94 354.74C937.2 352.74 934.84 351.74 931.87 351.74ZM973.88 383.19C976.41 383.19 978.63 382.42 980.52 380.89C982.42 379.35 983.47 377.43 983.67 375.13L990.39 375.13C990.26 377.51 989.44 379.77 987.93 381.92C986.42 384.07 984.4 385.79 981.87 387.07C979.36 388.35 976.7 388.99 973.88 388.99C968.22 388.99 963.72 387.11 960.36 383.34C957.04 379.56 955.37 374.39 955.37 367.83L955.37 366.64C955.37 362.6 956.11 359 957.6 355.85C959.08 352.7 961.21 350.26 963.97 348.52C966.76 346.78 970.05 345.91 973.84 345.91C978.5 345.91 982.37 347.3 985.44 350.09C988.54 352.88 990.19 356.51 990.39 360.96L983.67 360.96C983.47 358.27 982.44 356.07 980.6 354.36C978.78 352.61 976.53 351.74 973.84 351.74C970.23 351.74 967.43 353.05 965.43 355.66C963.46 358.25 962.48 362 962.48 366.91L962.48 368.25C962.48 373.04 963.46 376.73 965.43 379.31C967.4 381.9 970.22 383.19 973.88 383.19ZM1018.46 353.05C1017.39 352.87 1016.22 352.78 1014.97 352.78C1010.31 352.78 1007.15 354.76 1005.48 358.73L1005.48 388.22L998.38 388.22L998.38 346.68L1005.29 346.68L1005.41 351.48C1007.73 347.76 1011.04 345.91 1015.31 345.91C1016.7 345.91 1017.74 346.09 1018.46 346.45L1018.46 353.05ZM1049.14 388.22C1048.73 387.4 1048.4 385.94 1048.14 383.84C1044.84 387.27 1040.9 388.99 1036.32 388.99C1032.22 388.99 1028.85 387.84 1026.22 385.53C1023.61 383.2 1022.3 380.26 1022.3 376.7C1022.3 372.38 1023.94 369.02 1027.22 366.64C1030.52 364.23 1035.15 363.03 1041.12 363.03L1048.03 363.03L1048.03 359.77C1048.03 357.29 1047.29 355.31 1045.8 353.85C1044.32 352.37 1042.13 351.63 1039.24 351.63C1036.7 351.63 1034.58 352.27 1032.86 353.55C1031.14 354.83 1030.29 356.38 1030.29 358.19L1023.15 358.19C1023.15 356.12 1023.88 354.12 1025.33 352.21C1026.82 350.26 1028.82 348.72 1031.32 347.6C1033.86 346.47 1036.64 345.91 1039.66 345.91C1044.44 345.91 1048.19 347.11 1050.91 349.52C1053.62 351.9 1055.03 355.19 1055.13 359.38L1055.13 378.51C1055.13 382.32 1055.62 385.35 1056.59 387.61L1056.59 388.22L1049.14 388.22ZM1037.35 382.81C1039.58 382.81 1041.69 382.23 1043.69 381.08C1045.69 379.93 1047.13 378.43 1048.03 376.59L1048.03 368.06L1042.46 368.06C1033.76 368.06 1029.41 370.61 1029.41 375.7C1029.41 377.93 1030.15 379.67 1031.63 380.92C1033.12 382.18 1035.02 382.81 1037.35 382.81ZM1069.76 388.22L1069.76 352.17L1063.2 352.17L1063.2 346.68L1069.76 346.68L1069.76 342.41C1069.76 337.96 1070.95 334.52 1073.33 332.09C1075.71 329.65 1079.08 328.44 1083.43 328.44C1085.07 328.44 1086.7 328.66 1088.31 329.09L1087.93 334.85C1086.72 334.62 1085.44 334.5 1084.08 334.5C1081.78 334.5 1080 335.18 1078.75 336.54C1077.49 337.87 1076.87 339.79 1076.87 342.3L1076.87 346.68L1085.74 346.68L1085.74 352.17L1076.87 352.17L1076.87 388.22L1069.76 388.22ZM1103.25 336.62L1103.25 346.68L1111 346.68L1111 352.17L1103.25 352.17L1103.25 377.93C1103.25 379.59 1103.59 380.85 1104.28 381.69C1104.97 382.51 1106.15 382.92 1107.82 382.92C1108.63 382.92 1109.76 382.77 1111.2 382.46L1111.2 388.22C1109.32 388.73 1107.51 388.99 1105.74 388.99C1102.57 388.99 1100.17 388.03 1098.56 386.11C1096.95 384.19 1096.14 381.46 1096.14 377.93L1096.14 352.17L1088.58 352.17L1088.58 346.68L1096.14 346.68L1096.14 336.62L1103.25 336.62ZM1155.51 383.19C1158.04 383.19 1160.26 382.42 1162.15 380.89C1164.05 379.35 1165.09 377.43 1165.29 375.13L1172.03 375.13C1171.88 377.51 1171.07 379.77 1169.56 381.92C1168.05 384.07 1166.03 385.79 1163.5 387.07C1160.98 388.35 1158.33 388.99 1155.51 388.99C1149.85 388.99 1145.34 387.11 1141.99 383.34C1138.66 379.56 1137 374.39 1137 367.83L1137 366.64C1137 362.6 1137.74 359 1139.23 355.85C1140.71 352.7 1142.84 350.26 1145.6 348.52C1148.39 346.78 1151.67 345.91 1155.46 345.91C1160.13 345.91 1163.99 347.3 1167.07 350.09C1170.17 352.88 1171.82 356.51 1172.03 360.96L1165.29 360.96C1165.09 358.27 1164.07 356.07 1162.23 354.36C1160.4 352.61 1158.15 351.74 1155.46 351.74C1151.86 351.74 1149.06 353.05 1147.06 355.66C1145.09 358.25 1144.1 362 1144.1 366.91L1144.1 368.25C1144.1 373.04 1145.09 376.73 1147.06 379.31C1149.03 381.9 1151.85 383.19 1155.51 383.19ZM1178.13 367.06C1178.13 362.99 1178.91 359.33 1180.5 356.08C1182.12 352.83 1184.34 350.32 1187.19 348.56C1190.05 346.79 1193.32 345.91 1196.97 345.91C1202.63 345.91 1207.21 347.87 1210.69 351.78C1214.19 355.7 1215.95 360.91 1215.95 367.41L1215.95 367.91C1215.95 371.95 1215.17 375.59 1213.61 378.81C1212.07 382.01 1209.85 384.51 1206.96 386.3C1204.1 388.09 1200.79 388.99 1197.05 388.99C1191.42 388.99 1186.86 387.03 1183.35 383.11C1179.86 379.2 1178.13 374.01 1178.13 367.56L1178.13 367.06ZM1185.27 367.91C1185.27 372.52 1186.32 376.22 1188.45 379.01C1190.6 381.8 1193.46 383.19 1197.05 383.19C1200.67 383.19 1203.53 381.78 1205.65 378.97C1207.78 376.13 1208.85 372.16 1208.85 367.06C1208.85 362.51 1207.76 358.82 1205.57 356.01C1203.43 353.16 1200.56 351.74 1196.97 351.74C1193.46 351.74 1190.65 353.14 1188.49 355.93C1186.34 358.72 1185.27 362.71 1185.27 367.91ZM1249.05 377.2C1249.05 375.28 1248.32 373.8 1246.86 372.75C1245.43 371.67 1242.9 370.75 1239.29 369.98C1235.71 369.21 1232.86 368.29 1230.72 367.22C1228.63 366.14 1227.07 364.86 1226.05 363.38C1225.05 361.89 1224.54 360.13 1224.54 358.08C1224.54 354.67 1225.99 351.79 1228.85 349.44C1231.75 347.08 1235.43 345.91 1239.91 345.91C1244.61 345.91 1248.43 347.12 1251.34 349.56C1254.3 351.99 1255.76 355.1 1255.76 358.89L1248.62 358.89C1248.62 356.94 1247.79 355.26 1246.12 353.85C1244.49 352.45 1242.41 351.74 1239.91 351.74C1237.33 351.74 1235.3 352.31 1233.84 353.43C1232.37 354.56 1231.65 356.03 1231.65 357.85C1231.65 359.56 1232.33 360.86 1233.68 361.73C1235.05 362.6 1237.49 363.43 1241.03 364.22C1244.58 365.02 1247.46 365.96 1249.66 367.06C1251.86 368.17 1253.48 369.5 1254.54 371.06C1255.61 372.59 1256.16 374.47 1256.16 376.7C1256.16 380.41 1254.66 383.4 1251.69 385.65C1248.73 387.87 1244.88 388.99 1240.14 388.99C1236.81 388.99 1233.87 388.4 1231.31 387.22C1228.74 386.05 1226.74 384.41 1225.28 382.31C1223.85 380.18 1223.13 377.89 1223.13 375.43L1230.24 375.43C1230.36 377.82 1231.31 379.71 1233.07 381.12C1234.86 382.5 1237.22 383.19 1240.14 383.19C1242.82 383.19 1244.97 382.65 1246.59 381.58C1248.23 380.48 1249.05 379.02 1249.05 377.2ZM1272.09 346.68L1272.28 351.28C1275.33 347.7 1279.43 345.91 1284.61 345.91C1290.41 345.91 1294.38 348.13 1296.47 352.59C1297.85 350.59 1299.64 348.98 1301.85 347.75C1304.08 346.52 1306.69 345.91 1309.71 345.91C1318.83 345.91 1323.46 350.73 1323.61 360.38L1323.61 388.22L1316.52 388.22L1316.52 360.8C1316.52 357.84 1315.83 355.62 1314.48 354.16C1313.12 352.68 1310.84 351.94 1307.65 351.94C1305.01 351.94 1302.82 352.73 1301.08 354.32C1299.33 355.88 1298.32 357.99 1298.04 360.65L1298.04 388.22L1290.9 388.22L1290.9 361C1290.9 354.96 1287.94 351.94 1282.03 351.94C1277.37 351.94 1274.18 353.92 1272.47 357.89L1272.47 388.22L1265.37 388.22L1265.37 346.68L1272.09 346.68ZM1351.61 388.99C1345.98 388.99 1341.4 387.14 1337.86 383.46C1334.32 379.75 1332.56 374.79 1332.56 368.6L1332.56 367.29C1332.56 363.17 1333.35 359.5 1334.91 356.28C1336.5 353.02 1338.7 350.49 1341.51 348.67C1344.36 346.83 1347.43 345.91 1350.73 345.91C1356.12 345.91 1360.32 347.69 1363.33 351.24C1366.32 354.8 1367.81 359.9 1367.81 366.53L1367.81 369.48L1339.67 369.48C1339.77 373.58 1340.96 376.89 1343.24 379.43C1345.54 381.94 1348.46 383.19 1351.99 383.19C1354.5 383.19 1356.63 382.68 1358.37 381.65C1360.1 380.63 1361.63 379.27 1362.93 377.58L1367.28 380.96C1363.8 386.31 1358.58 388.99 1351.61 388.99ZM1350.73 351.74C1347.87 351.74 1345.46 352.79 1343.51 354.89C1341.56 356.97 1340.36 359.88 1339.89 363.65L1360.72 363.65L1360.72 363.11C1360.51 359.5 1359.54 356.71 1357.79 354.74C1356.05 352.74 1353.7 351.74 1350.73 351.74ZM1385.71 336.62L1385.71 346.68L1393.46 346.68L1393.46 352.17L1385.71 352.17L1385.71 377.93C1385.71 379.59 1386.05 380.85 1386.75 381.69C1387.44 382.51 1388.62 382.92 1390.27 382.92C1391.1 382.92 1392.22 382.77 1393.65 382.46L1393.65 388.22C1391.8 388.73 1389.97 388.99 1388.21 388.99C1385.03 388.99 1382.64 388.03 1381.02 386.11C1379.42 384.19 1378.6 381.46 1378.6 377.93L1378.6 352.17L1371.03 352.17L1371.03 346.68L1378.6 346.68L1378.6 336.62L1385.71 336.62ZM1409.52 388.22L1402.41 388.22L1402.41 346.68L1409.52 346.68L1409.52 388.22ZM1401.83 335.66C1401.83 334.5 1402.18 333.53 1402.87 332.74C1403.59 331.94 1404.65 331.55 1406.01 331.55C1407.4 331.55 1408.45 331.94 1409.18 332.74C1409.88 333.53 1410.24 334.5 1410.24 335.66C1410.24 336.81 1409.88 337.77 1409.18 338.54C1408.45 339.3 1407.4 339.69 1406.01 339.69C1404.65 339.69 1403.59 339.3 1402.87 338.54C1402.18 337.77 1401.83 336.81 1401.83 335.66ZM1437.58 383.19C1440.11 383.19 1442.33 382.42 1444.23 380.89C1446.12 379.35 1447.17 377.43 1447.38 375.13L1454.09 375.13C1453.97 377.51 1453.15 379.77 1451.64 381.92C1450.13 384.07 1448.1 385.79 1445.57 387.07C1443.07 388.35 1440.4 388.99 1437.58 388.99C1431.93 388.99 1427.42 387.11 1424.07 383.34C1420.74 379.56 1419.08 374.39 1419.08 367.83L1419.08 366.64C1419.08 362.6 1419.82 359 1421.3 355.85C1422.8 352.7 1424.92 350.26 1427.67 348.52C1430.47 346.78 1433.76 345.91 1437.55 345.91C1442.2 345.91 1446.07 347.3 1449.14 350.09C1452.24 352.88 1453.89 356.51 1454.09 360.96L1447.38 360.96C1447.17 358.27 1446.15 356.07 1444.31 354.36C1442.49 352.61 1440.24 351.74 1437.55 351.74C1433.93 351.74 1431.13 353.05 1429.13 355.66C1427.17 358.25 1426.18 362 1426.18 366.91L1426.18 368.25C1426.18 373.04 1427.17 376.73 1429.13 379.31C1431.12 381.9 1433.93 383.19 1437.58 383.19ZM1505.78 377.2C1505.78 375.28 1505.05 373.8 1503.59 372.75C1502.16 371.67 1499.64 370.75 1496.03 369.98C1492.44 369.21 1489.59 368.29 1487.47 367.22C1485.36 366.14 1483.81 364.86 1482.78 363.38C1481.78 361.89 1481.29 360.13 1481.29 358.08C1481.29 354.67 1482.72 351.79 1485.58 349.44C1488.48 347.08 1492.16 345.91 1496.64 345.91C1501.36 345.91 1505.16 347.12 1508.09 349.56C1511.03 351.99 1512.49 355.1 1512.49 358.89L1505.35 358.89C1505.35 356.94 1504.52 355.26 1502.87 353.85C1501.23 352.45 1499.16 351.74 1496.64 351.74C1494.06 351.74 1492.03 352.31 1490.57 353.43C1489.12 354.56 1488.38 356.03 1488.38 357.85C1488.38 359.56 1489.06 360.86 1490.43 361.73C1491.78 362.6 1494.22 363.43 1497.76 364.22C1501.31 365.02 1504.19 365.96 1506.39 367.06C1508.59 368.17 1510.23 369.5 1511.27 371.06C1512.35 372.59 1512.89 374.47 1512.89 376.7C1512.89 380.41 1511.41 383.4 1508.44 385.65C1505.46 387.87 1501.61 388.99 1496.88 388.99C1493.54 388.99 1490.6 388.4 1488.04 387.22C1485.49 386.05 1483.48 384.41 1482.01 382.31C1480.58 380.18 1479.86 377.89 1479.86 375.43L1486.97 375.43C1487.09 377.82 1488.04 379.71 1489.81 381.12C1491.61 382.5 1493.95 383.19 1496.88 383.19C1499.57 383.19 1501.7 382.65 1503.32 381.58C1504.96 380.48 1505.78 379.02 1505.78 377.2ZM1539.37 388.99C1533.74 388.99 1529.17 387.14 1525.63 383.46C1522.1 379.75 1520.34 374.79 1520.34 368.6L1520.34 367.29C1520.34 363.17 1521.11 359.5 1522.67 356.28C1524.26 353.02 1526.46 350.49 1529.28 348.67C1532.12 346.83 1535.19 345.91 1538.49 345.91C1543.9 345.91 1548.1 347.69 1551.09 351.24C1554.09 354.8 1555.59 359.9 1555.59 366.53L1555.59 369.48L1527.44 369.48C1527.55 373.58 1528.73 376.89 1531.01 379.43C1533.32 381.94 1536.23 383.19 1539.77 383.19C1542.27 383.19 1544.39 382.68 1546.14 381.65C1547.88 380.63 1549.41 379.27 1550.71 377.58L1555.05 380.96C1551.56 386.31 1546.34 388.99 1539.37 388.99ZM1538.49 351.74C1535.63 351.74 1533.22 352.79 1531.27 354.89C1529.34 356.97 1528.13 359.88 1527.67 363.65L1548.48 363.65L1548.48 363.11C1548.28 359.5 1547.3 356.71 1545.57 354.74C1543.82 352.74 1541.47 351.74 1538.49 351.74ZM1583.93 353.05C1582.85 352.87 1581.68 352.78 1580.42 352.78C1575.77 352.78 1572.61 354.76 1570.94 358.73L1570.94 388.22L1563.85 388.22L1563.85 346.68L1570.75 346.68L1570.86 351.48C1573.2 347.76 1576.49 345.91 1580.77 345.91C1582.15 345.91 1583.21 346.09 1583.93 346.45L1583.93 353.05ZM1604.9 378.58L1615.18 346.68L1622.43 346.68L1607.54 388.22L1602.13 388.22L1587.08 346.68L1594.33 346.68L1604.9 378.58ZM1637 388.22L1629.89 388.22L1629.89 346.68L1637 346.68L1637 388.22ZM1629.31 335.66C1629.31 334.5 1629.65 333.53 1630.35 332.74C1631.07 331.94 1632.11 331.55 1633.49 331.55C1634.87 331.55 1635.93 331.94 1636.65 332.74C1637.36 333.53 1637.72 334.5 1637.72 335.66C1637.72 336.81 1637.36 337.77 1636.65 338.54C1635.93 339.3 1634.87 339.69 1633.49 339.69C1632.11 339.69 1631.07 339.3 1630.35 338.54C1629.65 337.77 1629.31 336.81 1629.31 335.66ZM1665.06 383.19C1667.59 383.19 1669.81 382.42 1671.71 380.89C1673.6 379.35 1674.65 377.43 1674.86 375.13L1681.57 375.13C1681.45 377.51 1680.63 379.77 1679.12 381.92C1677.61 384.07 1675.58 385.79 1673.05 387.07C1670.55 388.35 1667.87 388.99 1665.06 388.99C1659.4 388.99 1654.9 387.11 1651.55 383.34C1648.21 379.56 1646.55 374.39 1646.55 367.83L1646.55 366.64C1646.55 362.6 1647.3 359 1648.78 355.85C1650.26 352.7 1652.4 350.26 1655.15 348.52C1657.95 346.78 1661.24 345.91 1665.03 345.91C1669.68 345.91 1673.55 347.3 1676.62 350.09C1679.72 352.88 1681.37 356.51 1681.57 360.96L1674.86 360.96C1674.65 358.27 1673.63 356.07 1671.77 354.36C1669.96 352.61 1667.72 351.74 1665.03 351.74C1661.41 351.74 1658.61 353.05 1656.61 355.66C1654.65 358.25 1653.65 362 1653.65 366.91L1653.65 368.25C1653.65 373.04 1654.65 376.73 1656.61 379.31C1658.58 381.9 1661.39 383.19 1665.06 383.19ZM1706.8 388.99C1701.17 388.99 1696.59 387.14 1693.05 383.46C1689.51 379.75 1687.75 374.79 1687.75 368.6L1687.75 367.29C1687.75 363.17 1688.54 359.5 1690.1 356.28C1691.69 353.02 1693.89 350.49 1696.7 348.67C1699.55 346.83 1702.62 345.91 1705.92 345.91C1711.31 345.91 1715.51 347.69 1718.52 351.24C1721.51 354.8 1723 359.9 1723 366.53L1723 369.48L1694.86 369.48C1694.96 373.58 1696.15 376.89 1698.43 379.43C1700.73 381.94 1703.65 383.19 1707.18 383.19C1709.69 383.19 1711.82 382.68 1713.56 381.65C1715.29 380.63 1716.82 379.27 1718.12 377.58L1722.47 380.96C1718.99 386.31 1713.77 388.99 1706.8 388.99ZM1705.92 351.74C1703.06 351.74 1700.65 352.79 1698.7 354.89C1696.75 356.97 1695.55 359.88 1695.08 363.65L1715.91 363.65L1715.91 363.11C1715.7 359.5 1714.73 356.71 1712.98 354.74C1711.24 352.74 1708.89 351.74 1705.92 351.74Z" />
</svg>