<svg version="1.2" baseProfile="tiny-ps" xmlns="http://www.w3.org/2000/svg" viewBox="0 0 1750 405" width="164" height="38">
	<title>arc_server-watermark-svg</title>
	<style>
		tspan { white-space:pre }
		.shp0 { fill: #ffffff } 
	</style>
	<path id="Layer" fill-rule="evenodd" class="shp0" d="M797.06 77.85C796.93 78.38 796.86 78.85 796.86 79.24C796.86 79.64 796.79 79.98 796.66 80.24C798.13 82.9 798.92 86.03 799.06 89.63C799.32 93.22 799.59 96.75 799.86 100.21C800.52 99.54 801.12 98.94 801.65 98.41C802.18 97.75 802.72 97.08 803.25 96.42C803.92 95.75 804.45 95.15 804.85 94.62C805.25 93.95 805.71 93.29 806.25 92.62C806.51 92.09 806.84 91.62 807.24 91.22C807.78 90.82 808.24 90.43 808.64 90.03C809.31 89.36 809.97 88.63 810.64 87.83C811.3 87.03 811.97 86.3 812.63 85.63C813.17 84.97 813.63 84.37 814.03 83.84C814.57 83.3 815.1 82.7 815.63 82.04C816.7 80.71 817.76 79.38 818.83 78.05C819.89 76.58 821.15 75.45 822.62 74.65C823.82 74.92 824.48 75.12 824.61 75.25C824.75 75.38 824.95 75.45 825.21 75.45C826.95 75.98 827.94 76.78 828.21 77.85C828.61 78.91 828.81 79.91 828.81 80.84C828.81 81.51 828.74 82.31 828.61 83.24C828.48 84.17 828.28 84.97 828.01 85.63C827.74 86.43 827.41 87.23 827.01 88.03C826.61 88.7 826.41 89.36 826.41 90.03C826.28 90.82 826.08 91.69 825.81 92.62C825.68 93.42 825.35 94.02 824.81 94.42C825.08 96.28 824.68 97.81 823.62 99.01C822.68 100.21 821.89 101.34 821.22 102.4C820.69 103.07 820.22 103.94 819.82 105C819.29 105.67 818.96 106.33 818.83 107C818.69 107.53 818.29 108.13 817.63 108.79C817.23 109.33 816.63 109.86 815.83 110.39C815.16 110.79 814.57 111.26 814.03 111.79C812.83 113.25 812.04 114.19 811.64 114.59C811.24 114.98 810.9 115.32 810.64 115.58C809.97 116.38 809.44 117.25 809.04 118.18C808.64 118.98 808.11 119.71 807.44 120.37C807.04 120.91 806.58 121.37 806.05 121.77C805.65 122.04 805.31 122.37 805.05 122.77C804.78 123.17 804.52 123.64 804.25 124.17C804.12 124.7 803.92 125.23 803.65 125.77C803.38 126.3 803.12 126.76 802.85 127.16C802.58 127.56 802.32 127.96 802.05 128.36C801.79 128.89 801.59 129.43 801.45 129.96C801.32 130.49 801.05 131.02 800.65 131.56C799.59 133.42 798.66 135.15 797.86 136.75C797.46 137.55 797.13 138.41 796.86 139.34C796.59 140.14 796.26 140.94 795.86 141.74C795.6 142.54 795.26 143.34 794.86 144.14C794.47 144.8 794.13 145.47 793.87 146.13C793.2 147.6 792.6 149.19 792.07 150.92C791.67 152.52 791.14 154.05 790.47 155.52C789.94 156.71 789.47 157.91 789.07 159.11C788.67 160.31 788.14 161.44 787.48 162.5C786.81 165.03 786.21 167.5 785.68 169.89C785.15 172.29 784.42 174.75 783.48 177.28C782.55 179.94 781.62 182.74 780.69 185.66C779.89 188.46 779.09 191.26 778.29 194.05C777.63 197.24 777.09 200.24 776.69 203.04C776.43 205.83 776.43 208.82 776.69 212.02C777.49 212.02 778.22 212.22 778.89 212.62C779.69 213.02 780.49 213.09 781.29 212.82C781.95 212.69 782.62 212.35 783.28 211.82C783.95 211.29 784.75 210.82 785.68 210.42C786.34 210.16 786.88 210.02 787.28 210.02C787.81 209.89 788.21 209.56 788.47 209.02C789.27 208.76 790 208.49 790.67 208.23C791.34 207.83 791.93 207.29 792.47 206.63C793.93 206.23 795.26 205.63 796.46 204.83C797.66 203.9 798.86 203.1 800.06 202.44C800.72 202.04 801.39 201.64 802.05 201.24C802.72 200.84 803.38 200.44 804.05 200.04C804.71 199.77 805.38 199.51 806.05 199.24C806.71 198.97 807.31 198.58 807.84 198.04C808.11 197.78 808.64 197.38 809.44 196.85C810.24 196.31 810.84 195.91 811.24 195.65C812.57 195.25 813.63 194.78 814.43 194.25C815.23 193.59 815.76 193.12 816.03 192.85C816.56 192.99 817.36 192.72 818.43 192.05C819.62 191.39 820.56 191.06 821.22 191.06C821.75 191.32 822.29 191.52 822.82 191.65C823.35 191.65 823.82 191.79 824.22 192.05C824.08 192.59 824.02 193.12 824.02 193.65C824.15 194.05 824.22 194.45 824.22 194.85C824.22 195.12 823.82 195.71 823.02 196.65C822.35 197.58 821.89 198.18 821.62 198.44C821.22 198.97 820.42 199.71 819.22 200.64C818.16 201.57 817.29 202.17 816.63 202.44C815.96 203.9 814.96 205.23 813.63 206.43C812.43 207.49 811.3 208.56 810.24 209.62C808.91 210.29 807.64 211.16 806.45 212.22C805.25 213.29 804.18 214.28 803.25 215.21C800.06 217.08 796.79 219.21 793.47 221.6C790.14 223.87 786.61 225.93 782.88 227.79C781.29 228.46 779.75 229.12 778.29 229.79C776.83 230.59 775.03 231.12 772.9 231.39C771.7 231.52 770.64 231.39 769.7 230.99C768.91 230.72 767.97 230.46 766.91 230.19C766.51 228.99 765.98 227.93 765.31 226.99C764.65 226.06 763.98 225.13 763.32 224.2C762.65 223.27 762.05 222.34 761.52 221.4C761.12 220.34 760.92 219.14 760.92 217.81C760.79 217.41 760.79 216.94 760.92 216.41C761.05 215.88 761.19 215.35 761.32 214.82C761.45 214.42 761.52 214.02 761.52 213.62C761.52 213.22 761.59 212.75 761.72 212.22C761.99 210.76 762.25 209.36 762.52 208.03C762.92 206.56 763.25 205.03 763.52 203.44C763.38 201.31 763.45 199.44 763.72 197.84C764.11 196.25 764.38 194.52 764.51 192.65C763.85 192.92 763.32 193.32 762.92 193.85C762.65 194.25 762.18 194.58 761.52 194.85C760.45 196.05 759.25 197.18 757.92 198.24C756.73 199.31 755.33 200.24 753.73 201.04C752 202.24 750.34 203.5 748.74 204.83C747.14 206.16 745.41 207.36 743.55 208.43C740.62 211.09 737.56 213.55 734.36 215.81C731.17 217.94 728.04 220.21 724.98 222.6C723.91 223 722.85 223.4 721.78 223.8C720.85 224.33 719.72 224.67 718.39 224.8C716.92 225.6 715.53 225.66 714.19 225C713 224.47 711.87 223.87 710.8 223.2C710 222.54 709.27 221.94 708.61 221.4C708.07 220.87 707.41 220.27 706.61 219.61C705.14 217.21 704.01 215.02 703.21 213.02C702.55 210.89 701.55 209.09 700.22 207.63C700.09 206.96 699.89 206.43 699.62 206.03C699.35 205.5 699.02 204.97 698.62 204.43C698.22 202.7 697.96 201.11 697.82 199.64C697.82 198.18 697.76 196.65 697.62 195.05C697.76 192.12 698.29 189.39 699.22 186.86C700.28 184.33 701.15 182 701.82 179.87C701.95 179.47 702.01 179.08 702.01 178.68C702.01 178.28 702.08 177.88 702.21 177.48C702.35 177.08 702.48 176.61 702.61 176.08C702.88 175.55 703.15 175.02 703.41 174.48C703.68 173.42 704.01 172.42 704.41 171.49C704.81 170.56 705.14 169.56 705.41 168.49C705.68 167.83 705.88 167.3 706.01 166.9C706.14 166.5 706.34 166.1 706.61 165.7C707.27 164.5 707.74 163.3 708.01 162.1C708.41 160.91 708.8 159.71 709.2 158.51C710.27 155.05 711.4 151.66 712.6 148.33C713.93 144.87 715.53 141.61 717.39 138.54C717.66 138.15 717.92 137.81 718.19 137.55C718.59 137.15 718.92 136.75 719.19 136.35L723.38 129.76C724.84 127.76 726.38 125.9 727.97 124.17C729.7 122.3 731.3 120.44 732.77 118.58C734.63 116.85 736.29 114.98 737.76 112.99C739.22 110.99 740.89 109.19 742.75 107.6C743.02 106.8 743.48 106.2 744.15 105.8C744.81 105.27 745.28 104.6 745.54 103.8C746.74 103 747.74 102.01 748.54 100.81C749.47 99.61 750.6 98.61 751.93 97.81C754.46 95.02 757.06 92.36 759.72 89.83C762.38 87.17 765.05 84.5 767.71 81.84C769.97 81.57 771.5 80.71 772.3 79.24C774.16 78.05 776.23 76.78 778.49 75.45C780.89 74.12 783.22 73.12 785.48 72.46C786.15 72.19 787.01 72.26 788.07 72.66C789.27 73.05 790.27 73.39 791.07 73.65C793.07 74.05 794.4 74.72 795.06 75.65C795.73 76.45 796.4 77.18 797.06 77.85ZM714.99 189.46C715.66 191.99 716.19 194.25 716.59 196.25C717.12 198.24 717.79 200.37 718.59 202.64C719.12 202.9 719.45 203.3 719.59 203.83C719.72 204.23 720.12 204.57 720.79 204.83C721.32 205.1 722.12 205.3 723.18 205.43C724.25 205.43 724.98 205.36 725.38 205.23C726.04 204.97 726.71 204.63 727.37 204.23C728.44 203.7 729.44 203.17 730.37 202.64C731.3 201.97 732.3 201.37 733.36 200.84C734.03 200.57 734.7 200.31 735.36 200.04C736.03 199.77 736.69 199.51 737.36 199.24C738.69 198.97 739.82 198.58 740.75 198.04C741.82 197.51 742.88 196.91 743.95 196.25C746.61 194.78 749.21 193.05 751.73 191.06C754.4 188.93 756.99 187.13 759.52 185.66C762.98 181.41 766.24 176.68 769.3 171.49C772.5 166.3 774.63 160.24 775.7 153.32C775.83 151.72 775.96 150.46 776.09 149.53C776.36 148.46 776.63 147.4 776.89 146.33C777.16 145.53 777.36 144.67 777.49 143.74C777.76 142.67 778.02 141.8 778.29 141.14C779.36 137.68 780.15 134.42 780.69 131.36C781.22 128.3 781.95 125.3 782.88 122.37C783.28 121.31 783.62 120.24 783.88 119.18C784.28 117.98 784.61 116.91 784.88 115.98C785.68 115.05 786.01 114.39 785.88 113.99C785.88 113.59 785.95 113.25 786.08 112.99C786.34 112.32 786.61 111.79 786.88 111.39C787.14 110.86 787.41 110.26 787.68 109.59C788.21 108.26 788.74 106.67 789.27 104.8C789.81 102.8 790.07 101.07 790.07 99.61C789.67 97.35 789.34 95.82 789.07 95.02C788.94 94.22 788.67 93.29 788.27 92.22C787.88 91.16 787.28 89.83 786.48 88.23C785.68 86.5 784.75 85.5 783.68 85.23C782.22 84.97 780.82 85.57 779.49 87.03C778.16 88.36 777.16 89.36 776.49 90.03C776.23 90.29 775.83 90.56 775.3 90.82C774.9 90.96 774.56 91.22 774.3 91.62C774.03 91.89 773.7 92.22 773.3 92.62C773.03 93.02 772.7 93.42 772.3 93.82C772.03 94.09 771.7 94.42 771.3 94.82C771.04 95.22 770.77 95.62 770.5 96.02C769.97 96.68 769.37 97.41 768.71 98.21C768.17 98.88 767.57 99.61 766.91 100.41C766.24 101.07 765.71 101.81 765.31 102.6C764.91 103.4 764.38 104.14 763.72 104.8C762.92 105.73 762.12 106.6 761.32 107.4C760.52 108.2 759.92 109.13 759.52 110.19C758.06 111.26 756.66 112.59 755.33 114.19C754.66 114.98 754.06 115.78 753.53 116.58C753 117.38 752.53 118.25 752.13 119.18C751.07 119.71 750.2 120.51 749.54 121.57C749.01 122.64 748.34 123.5 747.54 124.17C746.34 125.23 745.61 126.03 745.34 126.57C745.21 126.96 745.01 127.3 744.75 127.56C742.75 129.96 740.89 132.49 739.16 135.15C737.56 137.81 736.03 140.54 734.56 143.34C734.7 143.74 734.63 144.14 734.36 144.54C734.1 144.8 733.96 145.27 733.96 145.93C733.16 147 732.43 148.26 731.77 149.73C731.23 150.79 730.77 151.85 730.37 152.92C730.1 153.85 729.77 154.85 729.37 155.92C729.11 156.45 728.84 156.91 728.57 157.31C728.44 157.71 728.24 158.11 727.97 158.51C727.71 159.31 727.44 160.11 727.17 160.91C726.91 161.57 726.64 162.24 726.38 162.9C726.11 163.57 725.78 164.23 725.38 164.9C724.98 165.57 724.51 166.23 723.98 166.9C723.71 167.43 723.51 168.03 723.38 168.69C723.38 169.23 723.25 169.76 722.98 170.29C722.71 170.96 722.38 171.56 721.98 172.09C721.72 172.62 721.45 173.22 721.18 173.89C720.92 174.55 720.65 175.28 720.39 176.08C720.25 176.75 720.05 177.41 719.79 178.08C719.52 178.48 719.25 178.81 718.99 179.08C718.86 179.34 718.66 179.61 718.39 179.87C718.12 180.27 717.92 180.74 717.79 181.27C717.66 181.67 717.46 182.07 717.19 182.47C716.53 183.14 715.86 183.74 715.19 184.27C714.53 184.8 714 185.53 713.6 186.46C713.86 186.73 714.06 187.2 714.19 187.86C714.46 188.53 714.73 189.06 714.99 189.46ZM871.94 167.5C872.74 169.09 873.6 170.62 874.53 172.09C875.6 173.42 876.33 175.08 876.73 177.08C877.26 177.74 877.53 178.48 877.53 179.27C877.53 180.07 877.66 180.87 877.93 181.67C878.86 185 879.99 188.26 881.32 191.46C882.79 194.52 884.19 197.44 885.52 200.24C885.78 202.5 886.45 204.37 887.51 205.83C888.71 207.16 889.44 208.96 889.71 211.22C890.77 213.75 891.97 216.15 893.3 218.41C894.64 220.67 895.97 222.94 897.3 225.2C897.96 225.6 898.63 226 899.29 226.4C899.96 226.79 900.69 227.26 901.49 227.79C902.02 228.06 902.49 228.33 902.89 228.59C903.29 228.99 903.82 229.32 904.49 229.59C905.15 229.86 905.75 230.06 906.28 230.19C906.95 230.32 907.61 230.52 908.28 230.79C908.81 231.06 909.21 231.39 909.48 231.79C909.88 232.19 910.28 232.52 910.67 232.79C911.21 232.92 911.74 233.05 912.27 233.18C912.8 233.45 913.34 233.52 913.87 233.38C916.13 234.45 918.06 235.18 919.66 235.58C921.26 235.98 922.79 236.45 924.25 236.98C924.92 237.24 925.72 237.51 926.65 237.78C927.71 238.04 928.58 238.18 929.24 238.18C930.31 238.71 930.98 239.24 931.24 239.77C931.64 240.44 932.04 241.11 932.44 241.77C932.97 242.57 933.64 243.23 934.44 243.77C935.24 244.43 936.3 244.83 937.63 244.96C938.03 245.23 938.3 245.56 938.43 245.96C938.7 246.49 939.1 246.96 939.63 247.36C940.96 248.42 941.49 249.09 941.23 249.36C941.09 249.62 940.96 249.96 940.83 250.36C939.89 250.49 938.96 250.62 938.03 250.76C937.1 250.89 936.43 251.29 936.03 251.95C935.24 251.95 934.3 251.95 933.24 251.95C932.31 252.09 931.51 251.89 930.84 251.35C928.58 251.49 926.52 251.35 924.65 250.96C922.79 250.56 920.53 250.22 917.86 249.96C916.4 249.96 915 250.02 913.67 250.16C912.34 250.29 911.14 250.16 910.08 249.76C907.15 248.56 904.82 247.49 903.09 246.56C901.36 245.63 899.56 244.63 897.7 243.57C896.23 242.9 894.9 242.1 893.7 241.17C892.51 240.24 891.17 239.44 889.71 238.77C887.85 236.64 886.05 234.58 884.32 232.59C882.59 230.59 880.99 228.39 879.53 226C878.99 225.06 878.53 224.33 878.13 223.8C877.86 223.27 877.6 222.74 877.33 222.2C876.8 221.01 876.33 220.27 875.93 220.01C875.53 219.74 875.2 219.34 874.93 218.81C874.53 218.14 874.2 217.34 873.94 216.41C873.67 215.48 873.4 214.55 873.14 213.62C872.87 212.42 872.6 211.29 872.34 210.22C872.07 209.02 871.74 207.89 871.34 206.83C871.07 206.03 870.67 205.36 870.14 204.83C869.74 204.17 869.48 203.37 869.34 202.44C868.81 200.97 868.28 199.51 867.74 198.04C867.35 196.45 867.01 194.78 866.75 193.05C866.35 190.52 865.81 188.59 865.15 187.26C864.62 185.8 864.22 184.4 863.95 183.07C863.15 181.07 862.02 178.74 860.56 176.08C859.09 173.42 857.83 171.09 856.76 169.09C856.5 168.43 856.3 167.89 856.16 167.5C856.16 167.1 855.96 166.76 855.56 166.5C854.9 167.16 854.3 168.29 853.77 169.89C853.24 171.49 852.7 172.69 852.17 173.49C850.71 175.88 849.78 177.81 849.38 179.27C848.98 180.61 848.38 181.94 847.58 183.27C847.18 185.93 846.45 188.26 845.38 190.26C845.11 192.12 844.45 193.52 843.38 194.45C842.72 196.85 841.92 199.24 840.99 201.64C840.06 204.03 839.19 206.36 838.39 208.63C838.13 209.82 837.79 210.96 837.39 212.02C837 213.09 836.86 214.15 837 215.21C837 216.28 836.8 217.21 836.4 218.01C836.13 218.81 835.86 219.74 835.6 220.81C834.93 222.67 833.47 223.8 831.2 224.2C829.08 224.6 827.01 225.06 825.01 225.6C824.22 225.86 823.28 226.13 822.22 226.4C820.62 226.79 818.89 227.46 817.03 228.39C815.3 229.46 813.5 229.86 811.64 229.59C810.44 229.32 810.04 228.59 810.44 227.39C810.7 226.33 811.17 225.53 811.84 225C812.5 223.53 813.23 222.07 814.03 220.61C814.7 219.14 815.43 217.74 816.23 216.41C816.5 215.21 816.96 214.28 817.63 213.62C818.43 213.09 818.96 212.35 819.22 211.42C819.49 211.16 819.69 210.82 819.82 210.42C820.09 210.02 820.29 209.69 820.42 209.42C820.69 208.76 820.82 208.09 820.82 207.43C820.95 206.63 821.15 205.9 821.42 205.23C821.82 204.17 822.15 203.1 822.42 202.04C822.82 200.84 823.35 199.57 824.02 198.24C824.28 197.44 824.55 196.65 824.81 195.85C825.21 195.05 825.61 194.12 826.01 193.05C826.28 192.25 826.68 191.52 827.21 190.86C827.74 190.06 828.21 189.26 828.61 188.46C829.41 186.6 830.01 185.13 830.41 184.07C830.81 182.87 831.34 181.74 832 180.67C833.07 177.88 834.27 175.35 835.6 173.09C837.06 170.69 838.46 168.16 839.79 165.5C840.06 165.1 840.32 164.77 840.59 164.5C840.86 164.1 841.06 163.64 841.19 163.1C841.72 162.84 842.12 162.37 842.39 161.7C842.65 161.04 843.05 160.57 843.58 160.31C844.12 159.51 844.52 158.71 844.78 157.91C845.05 157.11 845.45 156.45 845.98 155.92C847.44 153.25 848.71 150.59 849.78 147.93C850.04 147.26 850.17 146.66 850.17 146.13C850.31 145.6 850.51 145.07 850.77 144.54C851.57 143.6 852.04 142.87 852.17 142.34C852.44 141.8 852.7 141.34 852.97 140.94C853.5 140.01 854.03 139.14 854.57 138.34C855.23 137.41 855.83 136.42 856.36 135.35C857.03 133.35 857.89 131.56 858.96 129.96C860.16 128.23 861.09 126.43 861.76 124.57C862.55 123.37 863.02 122.7 863.15 122.57C863.29 122.44 863.35 122.24 863.35 121.97C865.08 118.64 866.61 115.58 867.94 112.79C869.41 109.86 870.87 106.87 872.34 103.8C870.87 104.07 869.54 104.74 868.34 105.8C867.28 106.87 866.15 107.6 864.95 108C864.68 108.4 864.42 108.73 864.15 108.99C863.88 109.26 863.62 109.53 863.35 109.79C860.03 111.39 856.96 113.19 854.17 115.18C851.37 117.18 848.91 119.64 846.78 122.57C846.11 122.84 845.38 123.24 844.58 123.77C843.92 124.17 843.25 124.57 842.59 124.97C841.65 125.37 840.46 125.63 838.99 125.77C837.53 125.9 836.4 125.43 835.6 124.37C835.06 120.51 835.4 117.65 836.6 115.78C837.79 113.92 838.93 112.06 839.99 110.19C841.72 108.6 843.58 107.2 845.58 106C847.58 104.67 849.51 103.4 851.37 102.21C853.1 101.01 854.17 100.21 854.57 99.81C855.1 99.41 855.63 99.08 856.16 98.81C859.36 96.68 862.69 94.35 866.15 91.82C868.28 89.96 870.61 88.56 873.14 87.63C875.67 86.83 877.79 86.23 879.53 85.83C881.26 85.3 882.85 84.7 884.32 84.04C888.58 83.24 892.51 82.24 896.1 81.04C899.69 79.71 903.35 78.38 907.08 77.05C908.94 76.78 910.67 76.65 912.27 76.65C914 76.52 915.87 76.38 917.86 76.25C918.4 76.65 919.13 76.85 920.06 76.85C921.12 76.72 922.06 76.72 922.85 76.85C923.92 77.12 924.92 77.38 925.85 77.65C926.92 77.78 927.98 77.98 929.05 78.25C929.84 79.05 930.98 79.64 932.44 80.04C934.04 80.31 935.5 80.71 936.83 81.24C937.9 81.77 938.9 82.31 939.83 82.84C940.76 83.24 941.76 83.7 942.82 84.24C943.75 85.3 944.15 86.23 944.02 87.03C944.02 87.83 944.09 88.96 944.22 90.43C944.35 91.09 944.42 91.76 944.42 92.42C944.55 92.95 944.69 93.55 944.82 94.22C944.82 94.75 944.89 95.22 945.02 95.62C945.28 96.02 945.42 96.42 945.42 96.82C945.55 99.08 945.68 101.34 945.82 103.6C946.08 105.73 946.08 107.93 945.82 110.19C945.55 111.79 945.09 113.19 944.42 114.39C943.75 115.45 943.09 116.72 942.42 118.18C941.62 119.51 940.76 120.84 939.83 122.17C938.9 123.5 937.9 124.9 936.83 126.37C936.43 126.63 936.03 126.9 935.63 127.16C935.37 127.3 935.17 127.63 935.04 128.16C933.3 129.49 931.71 130.56 930.24 131.36C928.78 132.15 927.51 132.95 926.45 133.75C925.92 134.02 925.38 134.29 924.85 134.55C924.32 134.82 923.79 135.08 923.25 135.35C922.72 135.88 922.06 136.42 921.26 136.95C920.46 137.48 919.73 138.01 919.06 138.54C918 139.61 917.07 140.34 916.27 140.74C915.47 141.14 914.94 141.8 914.67 142.74C911.61 144.47 908.88 146.46 906.48 148.73C904.09 150.86 901.49 152.85 898.69 154.72C897.63 155.65 896.56 156.58 895.5 157.51C894.57 158.44 893.44 159.24 892.11 159.91C890.24 160.71 888.84 161.44 887.91 162.1C887.11 162.77 885.98 163.24 884.52 163.5C882.79 164.57 880.79 165.43 878.53 166.1C876.4 166.76 874.2 167.23 871.94 167.5ZM916.47 89.63C915.93 89.76 915.27 89.83 914.47 89.83C913.67 89.83 912.8 89.96 911.87 90.23C910.54 90.49 909.08 90.96 907.48 91.62C905.88 92.29 904.29 92.75 902.69 93.02C900.56 93.55 898.83 94.02 897.5 94.42C896.3 94.82 895.43 95.15 894.9 95.42C894.64 95.68 894.44 96.15 894.3 96.82C894.3 97.48 894.17 98.01 893.9 98.41C893.37 99.74 892.71 101.01 891.91 102.21C891.11 103.27 890.51 104.34 890.11 105.4C888.64 107.13 887.58 108.86 886.91 110.59C886.25 112.19 885.58 113.72 884.92 115.18C883.19 117.45 881.86 119.44 880.92 121.17C880.26 121.97 879.86 122.44 879.73 122.57C879.59 122.57 879.53 122.7 879.53 122.97C877.93 124.57 876.6 126.37 875.53 128.36C874.6 130.36 873.4 132.09 871.94 133.55C870.87 135.15 870.07 136.55 869.54 137.75C869.14 138.94 868.41 140.01 867.35 140.94C866.81 142 866.28 143.07 865.75 144.14C865.35 145.07 864.88 146.07 864.35 147.13C863.15 149.79 861.69 152.39 859.96 154.92C859.96 155.58 859.76 156.12 859.36 156.51C859.09 156.91 858.83 157.38 858.56 157.91C859.09 158.31 859.63 158.38 860.16 158.11C860.69 157.85 861.16 157.58 861.56 157.31C864.62 155.58 867.94 154.12 871.54 152.92C875.13 151.59 878.39 149.92 881.32 147.93C883.85 146.46 886.18 145.13 888.31 143.94C890.44 142.6 892.51 141.21 894.5 139.74C896.5 138.68 898.03 137.88 899.09 137.35C900.16 136.68 901.42 136.08 902.89 135.55C903.95 134.62 905.08 133.82 906.28 133.15C907.48 132.49 908.41 131.69 909.08 130.76C910.54 129.56 911.87 128.23 913.07 126.76C914.27 125.17 915.53 123.7 916.87 122.37C917.53 122.24 917.93 122.04 918.06 121.77C918.2 121.37 918.6 121.17 919.26 121.17C920.33 119.71 921.59 118.45 923.05 117.38C924.65 116.18 925.85 114.85 926.65 113.39C927.32 112.32 927.78 111.26 928.05 110.19C928.45 109.13 928.98 107.93 929.64 106.6C929.38 105.53 929.58 104.47 930.24 103.4C931.04 102.21 931.31 101.14 931.04 100.21C930.78 99.28 930.24 98.48 929.44 97.81C928.65 97.02 928.05 96.22 927.65 95.42C927.38 94.35 927.05 93.55 926.65 93.02C926.38 92.49 926.12 91.82 925.85 91.02C925.32 90.76 924.85 90.49 924.45 90.23C924.05 89.96 923.39 89.89 922.46 90.03C921.79 89.76 920.86 89.69 919.66 89.83C918.6 89.83 917.53 89.76 916.47 89.63ZM1045.26 76.85C1045.39 77.51 1045.66 78.11 1046.06 78.65C1046.45 79.05 1046.85 79.38 1047.25 79.64C1047.39 80.71 1047.45 81.84 1047.45 83.04C1047.59 84.1 1047.79 85.17 1048.05 86.23C1048.05 86.77 1048.05 87.36 1048.05 88.03C1048.05 88.56 1048.25 89.03 1048.65 89.43C1048.25 94.09 1047.59 97.95 1046.65 101.01C1045.86 103.94 1045.12 107.2 1044.46 110.79C1044.32 111.46 1044.12 112.12 1043.86 112.79C1043.72 113.32 1043.66 113.92 1043.66 114.59C1043.52 115.12 1043.46 115.58 1043.46 115.98C1043.59 116.38 1043.59 116.85 1043.46 117.38C1043.19 118.18 1042.79 119.04 1042.26 119.98C1041.73 120.91 1041.2 121.91 1040.66 122.97C1038.53 126.83 1036.14 130.49 1033.47 133.95C1030.95 137.41 1027.75 140.07 1023.89 141.94C1022.43 142.6 1021.16 143.27 1020.1 143.94C1019.16 144.47 1017.97 144.87 1016.5 145.13C1015.57 145.67 1014.44 146.27 1013.11 146.93C1011.91 147.46 1010.71 147.86 1009.51 148.13C1008.98 148.39 1008.45 148.53 1007.92 148.53C1007.38 148.53 1006.85 148.59 1006.32 148.73C1005.65 148.99 1005.05 149.26 1004.52 149.53C1004.12 149.66 1003.72 149.79 1003.32 149.92C1002.26 150.19 1001.46 150.32 1000.93 150.32C1000 150.19 999.33 149.66 998.93 148.73C998.53 147.66 998.33 146.6 998.33 145.53C997.8 145 997.2 144.54 996.53 144.14C995.87 143.74 995.4 143 995.14 141.94C994.74 140.47 994.47 139.68 994.34 139.54C994.21 139.41 994.07 139.21 993.94 138.94C993.27 137.08 993.01 135.02 993.14 132.75C993.41 130.36 993.94 128.43 994.74 126.96C995 126.3 995.4 125.83 995.94 125.57C996.47 125.17 996.8 124.64 996.93 123.97C998 123.3 998.93 122.64 999.73 121.97C1000.53 121.17 1001.46 120.44 1002.53 119.78C1003.86 117.51 1005.39 115.78 1007.12 114.59C1008.85 113.39 1010.51 112.12 1012.11 110.79C1012.64 110.39 1013.04 109.93 1013.31 109.39C1013.71 108.86 1014.24 108.33 1014.91 107.8C1015.3 107.4 1015.77 107.06 1016.3 106.8C1016.84 106.4 1017.3 106.07 1017.7 105.8C1017.97 105.53 1018.23 105.27 1018.5 105C1018.77 104.74 1019.03 104.47 1019.3 104.2C1019.83 103.94 1020.36 103.8 1020.89 103.8C1021.43 103.8 1021.96 103.67 1022.49 103.4C1024.36 103.14 1025.29 103.27 1025.29 103.8C1025.29 104.2 1025.29 104.67 1025.29 105.2C1024.62 105.6 1023.82 106 1022.89 106.4C1021.96 106.67 1021.03 106.93 1020.1 107.2C1019.83 108.26 1019.23 109.06 1018.3 109.59C1017.5 110.13 1016.77 110.86 1016.1 111.79C1015.57 112.45 1015.11 113.12 1014.71 113.79C1014.44 114.32 1013.84 114.72 1012.91 114.98C1012.24 116.58 1011.38 117.98 1010.31 119.18C1009.38 120.24 1008.45 121.37 1007.52 122.57C1007.52 124.04 1007.18 125.3 1006.52 126.37C1005.99 127.3 1005.39 128.3 1004.72 129.36C1004.46 129.89 1004.19 130.42 1003.92 130.96C1003.66 131.49 1003.52 131.89 1003.52 132.15C1003.66 132.42 1003.79 132.82 1003.92 133.35C1004.19 133.75 1004.46 134.15 1004.72 134.55C1004.99 134.95 1005.25 135.28 1005.52 135.55C1005.92 135.82 1006.19 136.15 1006.32 136.55C1009.51 134.55 1012.64 132.55 1015.7 130.56C1018.9 128.56 1021.63 126.17 1023.89 123.37C1024.56 122.17 1025.16 121.04 1025.69 119.98C1026.35 118.78 1027.02 117.51 1027.68 116.18C1027.95 114.85 1028.35 113.59 1028.88 112.39C1029.41 111.19 1030.01 109.99 1030.68 108.79C1031.34 107.46 1031.94 106.13 1032.48 104.8C1033.01 103.47 1033.34 102.07 1033.47 100.61C1033.61 99.54 1033.61 98.41 1033.47 97.21C1033.47 95.88 1033.67 94.89 1034.07 94.22C1033.81 93.55 1033.81 92.69 1034.07 91.62C1034.34 90.43 1034.41 89.29 1034.27 88.23C1033.34 86.23 1032.41 85.1 1031.48 84.84C1030.55 84.44 1029.55 84.1 1028.48 83.84C1027.42 84.5 1026.29 85.23 1025.09 86.03C1023.89 86.83 1022.76 87.7 1021.69 88.63C1020.89 89.43 1020.03 90.23 1019.1 91.02C1018.3 91.82 1017.63 92.75 1017.1 93.82C1015.37 95.68 1013.97 97.35 1012.91 98.81C1011.84 100.14 1010.78 101.54 1009.71 103C1007.45 104.47 1005.39 106.07 1003.52 107.8C1001.66 109.53 999.6 111.12 997.33 112.59C995.6 113.92 993.87 115.32 992.14 116.78C990.55 118.11 989.01 119.51 987.55 120.97C986.22 122.44 984.82 123.84 983.36 125.17C981.89 126.37 980.56 127.7 979.36 129.16C978.3 130.62 977.17 132.15 975.97 133.75C974.77 135.22 973.57 136.68 972.37 138.15C971.71 138.81 971.11 139.54 970.58 140.34C970.05 141.14 969.45 141.94 968.78 142.74C968.11 143.4 967.45 144.14 966.78 144.93C966.25 145.73 965.72 146.46 965.19 147.13C964.79 147.8 964.45 148.53 964.19 149.33C963.92 149.99 963.59 150.66 963.19 151.32C961.86 152.92 960.53 154.58 959.2 156.31C958 157.91 956.93 159.77 956 161.9C954.4 164.04 953.14 166.16 952.21 168.29C951.41 170.29 950.48 172.29 949.41 174.28C949.15 176.15 948.61 177.81 947.82 179.27C947.15 180.74 946.68 182.4 946.42 184.27C946.28 185.2 946.02 186.13 945.62 187.06C945.35 187.86 945.15 188.79 945.02 189.86C944.75 190.79 944.62 191.79 944.62 192.85C944.62 193.78 944.49 194.65 944.22 195.45C943.42 197.18 943.02 198.44 943.02 199.24C943.02 199.91 942.69 200.44 942.02 200.84C942.42 201.9 942.76 202.84 943.02 203.63C943.42 204.43 943.95 205.23 944.62 206.03C944.89 206.56 945.28 207.03 945.82 207.43C946.35 207.83 946.75 208.29 947.02 208.82C947.55 210.16 947.95 210.96 948.21 211.22C948.61 211.49 949.08 211.82 949.61 212.22C950.01 212.49 950.48 212.82 951.01 213.22C951.67 213.62 952.27 213.88 952.81 214.02C953.47 214.28 954.14 214.42 954.8 214.42C955.6 214.28 956.33 214.28 957 214.42C957.67 214.42 958.26 214.48 958.8 214.62C959.33 214.62 959.93 214.55 960.59 214.42C961.66 214.15 962.92 213.88 964.39 213.62C965.85 213.22 967.18 212.89 968.38 212.62C970.25 212.09 972.04 211.55 973.77 211.02C975.64 210.49 977.37 209.89 978.96 209.22C980.7 208.56 982.09 207.63 983.16 206.43C984.22 205.23 985.42 204.3 986.75 203.63C988.88 202.04 990.35 200.77 991.14 199.84C992.08 198.78 993.07 197.91 994.14 197.24C995.07 196.05 995.6 195.45 995.74 195.45C995.87 195.45 996 195.38 996.14 195.25C997.07 194.18 997.93 193.25 998.73 192.45C999.66 191.52 1000.6 190.52 1001.53 189.46C1002.99 188.79 1004.19 187.93 1005.12 186.86C1006.19 186.46 1007.05 185.93 1007.72 185.27C1008.52 184.6 1009.31 183.93 1010.11 183.27C1011.18 182.47 1011.91 181.87 1012.31 181.47C1012.84 180.94 1013.31 180.41 1013.71 179.87C1014.24 179.34 1014.77 178.74 1015.3 178.08C1015.57 177.81 1015.97 177.54 1016.5 177.28C1017.04 176.88 1017.57 176.35 1018.1 175.68C1018.37 175.28 1018.63 174.75 1018.9 174.08C1019.16 173.42 1019.63 173.09 1020.3 173.09C1021.09 172.95 1021.96 173.35 1022.89 174.28C1023.82 175.08 1024.29 175.95 1024.29 176.88C1023.09 178.74 1022.43 179.87 1022.29 180.27C1021.36 181.6 1020.36 182.87 1019.3 184.07C1018.23 185.27 1017.17 186.6 1016.1 188.06C1015.04 189.26 1013.97 190.52 1012.91 191.85C1011.84 193.05 1010.84 194.38 1009.91 195.85C1008.98 197.31 1007.92 198.64 1006.72 199.84C1005.65 200.91 1004.52 202.1 1003.32 203.44C1001.59 205.3 999.86 207.03 998.13 208.63C996.53 210.22 995 212.15 993.54 214.42C992.87 215.08 992.21 215.75 991.54 216.41C990.88 216.94 990.21 217.54 989.55 218.21C988.88 218.61 988.21 219.07 987.55 219.61C987.02 220.01 986.42 220.41 985.75 220.81C983.09 221.74 980.36 222.94 977.57 224.4C974.9 226 971.91 227.26 968.58 228.19C967.12 228.59 965.58 229.06 963.99 229.59C962.52 230.12 960.86 230.32 959 230.19C958.73 230.06 958.4 229.99 958 229.99C957.6 229.99 957.2 229.92 956.8 229.79C956 229.66 955.14 229.39 954.2 228.99C953.41 228.59 952.47 228.33 951.41 228.19C950.74 228.19 950.14 228.26 949.61 228.39C949.08 228.66 948.48 228.79 947.82 228.79C944.89 226.93 942.49 225.33 940.63 224C938.9 222.8 937.3 221.34 935.83 219.61C934.77 217.88 934.04 216.81 933.64 216.41C933.24 215.88 932.77 215.28 932.24 214.62C931.71 213.82 931.17 213.02 930.64 212.22C930.11 211.29 929.58 210.29 929.05 209.22C929.05 208.69 928.85 208.23 928.45 207.83C928.18 207.43 927.91 206.96 927.65 206.43C926.98 204.17 926.65 201.84 926.65 199.44C926.65 196.91 926.72 194.45 926.85 192.05C926.98 191.39 926.98 190.79 926.85 190.26C926.72 189.59 926.65 188.93 926.65 188.26C926.65 187.2 926.85 186.06 927.25 184.87C927.65 183.67 927.98 182.54 928.25 181.47C929.05 178.54 929.91 175.81 930.84 173.29C931.91 170.62 933.1 168.16 934.44 165.9C935.63 164.3 936.5 162.77 937.03 161.31C937.7 159.84 938.36 158.31 939.03 156.71C939.69 155.25 940.36 153.85 941.03 152.52C941.69 151.06 942.42 149.59 943.22 148.13C943.89 146.8 944.55 145.47 945.22 144.14C946.02 142.8 947.02 141.61 948.21 140.54C948.61 139.08 949.21 137.88 950.01 136.95C950.81 135.88 951.61 134.82 952.41 133.75C953.74 131.89 955.07 130.16 956.4 128.56C957.87 126.96 959.13 125.17 960.19 123.17C961.26 122.37 962.19 121.51 962.99 120.57C963.92 119.64 964.79 118.71 965.58 117.78C966.52 116.72 967.38 115.78 968.18 114.98C969.11 114.05 970.05 113.05 970.98 111.99C971.51 111.59 971.98 111.19 972.37 110.79C972.91 110.26 973.37 109.79 973.77 109.39C974.7 108.33 975.64 107.4 976.57 106.6C977.5 105.8 978.5 105 979.56 104.2C980.76 103.67 981.89 102.94 982.96 102.01C984.16 100.81 985.29 99.61 986.35 98.41C987.55 97.08 988.75 95.88 989.95 94.82C991.81 92.95 993.74 91.16 995.74 89.43C997.73 87.56 999.86 85.9 1002.13 84.44C1003.46 82.97 1005.05 81.77 1006.92 80.84C1008.78 79.78 1010.64 78.78 1012.51 77.85C1013.57 77.45 1014.44 77.12 1015.11 76.85C1015.9 76.45 1016.77 75.98 1017.7 75.45C1019.16 74.52 1020.23 74.05 1020.89 74.05C1021.56 73.92 1022.09 73.59 1022.49 73.05C1024.09 73.05 1025.49 72.85 1026.69 72.46C1027.88 71.92 1029.21 71.86 1030.68 72.26C1031.21 72.39 1031.68 72.59 1032.08 72.85C1032.48 72.99 1032.88 73.12 1033.27 73.25C1035.81 73.52 1037.6 73.92 1038.67 74.45C1039.73 74.99 1040.73 75.52 1041.66 76.05C1042.73 76.45 1043.92 76.72 1045.26 76.85Z" />
	<path id="Layer" fill-rule="evenodd" class="shp0" d="M70.24 299.38L52.27 299.38L52.27 349.22L44.93 349.22L44.93 299.38L27 299.38L27 293.31L70.24 293.31L70.24 299.38ZM84.52 312.7C87.67 308.84 91.77 306.91 96.81 306.91C105.59 306.91 110.02 311.86 110.1 321.77L110.1 349.22L102.99 349.22L102.99 321.73C102.97 318.73 102.28 316.52 100.92 315.08C99.59 313.65 97.5 312.93 94.66 312.93C92.36 312.93 90.33 313.55 88.59 314.78C86.85 316.01 85.49 317.62 84.52 319.62L84.52 349.22L77.42 349.22L77.42 290.24L84.52 290.24L84.52 312.7ZM137.97 349.99C132.34 349.99 127.76 348.14 124.23 344.46C120.69 340.75 118.93 335.79 118.93 329.6L118.93 328.29C118.93 324.17 119.71 320.5 121.27 317.27C122.86 314.02 125.06 311.49 127.87 309.67C130.72 307.83 133.79 306.91 137.09 306.91C142.49 306.91 146.69 308.69 149.68 312.24C152.68 315.8 154.18 320.9 154.18 327.52L154.18 330.48L126.03 330.48C126.13 334.58 127.32 337.89 129.6 340.43C131.91 342.93 134.82 344.19 138.36 344.19C140.87 344.19 142.99 343.68 144.73 342.65C146.47 341.63 148 340.27 149.3 338.58L153.64 341.96C150.16 347.31 144.94 349.99 137.97 349.99ZM137.09 312.74C134.22 312.74 131.82 313.79 129.87 315.89C127.93 317.96 126.72 320.88 126.26 324.65L147.07 324.65L147.07 324.11C146.87 320.5 145.9 317.71 144.16 315.74C142.42 313.74 140.06 312.74 137.09 312.74ZM205.94 333.48L195.8 333.48L192.73 349.22L187.24 349.22L190.31 333.48L181.13 333.48L181.13 328.22L191.31 328.22L193.96 314.62L184.05 314.62L184.05 309.29L195 309.29L198.14 293.31L203.64 293.31L200.49 309.29L210.63 309.29L213.77 293.31L219.3 293.31L216.15 309.29L223.99 309.29L223.99 314.62L215.12 314.62L212.47 328.22L221.11 328.22L221.11 333.48L211.47 333.48L208.4 349.22L202.87 349.22L205.94 333.48ZM196.8 328.22L206.94 328.22L209.59 314.62L199.45 314.62L196.8 328.22ZM253.02 349.22L245.88 349.22L245.88 301.88L231.55 307.14L231.55 300.69L251.9 293.04L253.02 293.04L253.02 349.22ZM303.67 317.81L309 317.81C312.36 317.76 314.99 316.88 316.91 315.16C318.83 313.45 319.79 311.13 319.79 308.21C319.79 301.66 316.53 298.38 310 298.38C306.93 298.38 304.47 299.26 302.63 301.03C300.81 302.77 299.9 305.09 299.9 307.98L292.8 307.98C292.8 303.55 294.41 299.88 297.64 296.96C300.89 294.02 305.01 292.55 310 292.55C315.27 292.55 319.41 293.94 322.4 296.73C325.4 299.52 326.9 303.4 326.9 308.36C326.9 310.8 326.1 313.15 324.52 315.43C322.95 317.71 320.82 319.41 318.1 320.54C321.18 321.51 323.54 323.12 325.21 325.37C326.9 327.63 327.74 330.38 327.74 333.63C327.74 338.65 326.1 342.63 322.83 345.57C319.55 348.51 315.29 349.99 310.04 349.99C304.79 349.99 300.52 348.57 297.21 345.72C293.94 342.88 292.3 339.13 292.3 334.47L299.44 334.47C299.44 337.42 300.4 339.77 302.32 341.54C304.24 343.31 306.81 344.19 310.04 344.19C313.47 344.19 316.09 343.29 317.91 341.5C319.73 339.71 320.64 337.14 320.64 333.78C320.64 330.53 319.64 328.04 317.64 326.3C315.65 324.56 312.77 323.66 309 323.61L303.67 323.61L303.67 317.81ZM358.31 314.05C357.23 313.87 356.07 313.78 354.81 313.78C350.15 313.78 346.99 315.76 345.33 319.73L345.33 349.22L338.22 349.22L338.22 307.67L345.14 307.67L345.25 312.47C347.58 308.76 350.88 306.91 355.16 306.91C356.54 306.91 357.59 307.09 358.31 307.44L358.31 314.05ZM362.38 328.1C362.38 321.73 363.89 316.61 366.91 312.74C369.93 308.85 373.88 306.91 378.77 306.91C383.64 306.91 387.49 308.57 390.33 311.9L390.33 290.24L397.44 290.24L397.44 349.22L390.91 349.22L390.56 344.76C387.72 348.25 383.77 349.99 378.7 349.99C373.88 349.99 369.95 348.02 366.91 344.07C363.89 340.13 362.38 334.99 362.38 328.64L362.38 328.1ZM369.48 328.91C369.48 333.62 370.45 337.3 372.4 339.97C374.34 342.63 377.03 343.96 380.46 343.96C384.97 343.96 388.26 341.94 390.33 337.89L390.33 318.81C388.21 314.89 384.94 312.93 380.54 312.93C377.06 312.93 374.34 314.28 372.4 316.97C370.45 319.65 369.48 323.63 369.48 328.91ZM423.28 328.37L404.54 328.37L404.54 322.57L423.28 322.57L423.28 328.37ZM465.32 328.91C465.32 335.23 463.88 340.32 460.99 344.19C458.09 348.05 454.18 349.99 449.23 349.99C444.19 349.99 440.22 348.39 437.33 345.19L437.33 365.19L430.23 365.19L430.23 307.67L436.72 307.67L437.06 312.28C439.95 308.7 443.97 306.91 449.12 306.91C454.11 306.91 458.05 308.79 460.95 312.55C463.86 316.31 465.32 321.55 465.32 328.25L465.32 328.91ZM458.22 328.1C458.22 323.42 457.22 319.72 455.23 317C453.23 314.29 450.49 312.93 447.01 312.93C442.71 312.93 439.48 314.84 437.33 318.65L437.33 338.51C439.46 342.29 442.71 344.19 447.08 344.19C450.49 344.19 453.19 342.84 455.19 340.16C457.21 337.44 458.22 333.43 458.22 328.1ZM500.04 349.22C499.63 348.4 499.29 346.94 499.04 344.84C495.74 348.27 491.79 349.99 487.21 349.99C483.12 349.99 479.75 348.84 477.11 346.53C474.5 344.2 473.2 341.26 473.2 337.7C473.2 333.37 474.84 330.02 478.11 327.64C481.41 325.23 486.05 324.03 492.01 324.03L498.92 324.03L498.92 320.77C498.92 318.28 498.18 316.31 496.7 314.85C495.21 313.37 493.02 312.63 490.13 312.63C487.6 312.63 485.47 313.27 483.76 314.55C482.04 315.83 481.18 317.38 481.18 319.19L474.04 319.19C474.04 317.12 474.77 315.12 476.23 313.2C477.72 311.26 479.71 309.72 482.22 308.6C484.75 307.47 487.53 306.91 490.55 306.91C495.34 306.91 499.09 308.11 501.8 310.52C504.52 312.9 505.93 316.19 506.03 320.38L506.03 339.5C506.03 343.32 506.51 346.35 507.49 348.6L507.49 349.22L500.04 349.22ZM488.25 343.81C490.48 343.81 492.59 343.23 494.58 342.08C496.58 340.93 498.03 339.43 498.92 337.59L498.92 329.06L493.36 329.06C484.65 329.06 480.3 331.61 480.3 336.7C480.3 338.93 481.04 340.67 482.53 341.92C484.01 343.18 485.92 343.81 488.25 343.81ZM537.25 314.05C536.17 313.87 535.01 313.78 533.75 313.78C529.09 313.78 525.93 315.76 524.27 319.73L524.27 349.22L517.16 349.22L517.16 307.67L524.07 307.67L524.19 312.47C526.52 308.76 529.82 306.91 534.1 306.91C535.48 306.91 536.53 307.09 537.25 307.44L537.25 314.05ZM555.37 297.61L555.37 307.67L563.13 307.67L563.13 313.16L555.37 313.16L555.37 338.93C555.37 340.59 555.72 341.85 556.41 342.69C557.1 343.51 558.27 343.92 559.94 343.92C560.76 343.92 561.88 343.77 563.32 343.46L563.32 349.22C561.45 349.73 559.63 349.99 557.87 349.99C554.69 349.99 552.3 349.03 550.68 347.11C549.07 345.19 548.27 342.46 548.27 338.93L548.27 313.16L540.7 313.16L540.7 307.67L548.27 307.67L548.27 297.61L555.37 297.61ZM585.05 338.81L594.73 307.67L602.33 307.67L585.63 355.63C583.04 362.54 578.93 366 573.3 366L571.96 365.88L569.31 365.38L569.31 359.62L571.23 359.78C573.64 359.78 575.5 359.29 576.83 358.32C578.19 357.35 579.31 355.57 580.17 352.98L581.75 348.76L566.93 307.67L574.68 307.67L585.05 338.81ZM631.71 349.22L631.71 313.16L625.14 313.16L625.14 307.67L631.71 307.67L631.71 303.41C631.71 298.96 632.9 295.52 635.28 293.08C637.66 290.65 641.03 289.43 645.38 289.43C647.02 289.43 648.64 289.65 650.25 290.09L649.87 295.85C648.67 295.62 647.39 295.5 646.03 295.5C643.73 295.5 641.95 296.18 640.69 297.54C639.44 298.87 638.81 300.79 638.81 303.3L638.81 307.67L647.68 307.67L647.68 313.16L638.81 313.16L638.81 349.22L631.71 349.22ZM675.64 314.05C674.56 313.87 673.4 313.78 672.14 313.78C667.48 313.78 664.32 315.76 662.66 319.73L662.66 349.22L655.55 349.22L655.55 307.67L662.46 307.67L662.58 312.47C664.91 308.76 668.21 306.91 672.49 306.91C673.87 306.91 674.92 307.09 675.64 307.44L675.64 314.05ZM698.67 349.99C693.04 349.99 688.46 348.14 684.93 344.46C681.4 340.75 679.63 335.79 679.63 329.6L679.63 328.29C679.63 324.17 680.41 320.5 681.97 317.27C683.56 314.02 685.76 311.49 688.58 309.67C691.42 307.83 694.49 306.91 697.79 306.91C703.19 306.91 707.39 308.69 710.39 312.24C713.38 315.8 714.88 320.9 714.88 327.52L714.88 330.48L686.73 330.48C686.84 334.58 688.02 337.89 690.3 340.43C692.61 342.93 695.53 344.19 699.06 344.19C701.57 344.19 703.69 343.68 705.43 342.65C707.17 341.63 708.7 340.27 710 338.58L714.34 341.96C710.86 347.31 705.64 349.99 698.67 349.99ZM697.79 312.74C694.92 312.74 692.52 313.79 690.57 315.89C688.63 317.96 687.42 320.88 686.96 324.65L707.77 324.65L707.77 324.11C707.57 320.5 706.6 317.71 704.86 315.74C703.12 313.74 700.76 312.74 697.79 312.74ZM740.38 349.99C734.74 349.99 730.16 348.14 726.63 344.46C723.1 340.75 721.33 335.79 721.33 329.6L721.33 328.29C721.33 324.17 722.11 320.5 723.67 317.27C725.26 314.02 727.46 311.49 730.28 309.67C733.12 307.83 736.19 306.91 739.49 306.91C744.89 306.91 749.09 308.69 752.09 312.24C755.08 315.8 756.58 320.9 756.58 327.52L756.58 330.48L728.43 330.48C728.54 334.58 729.73 337.89 732.01 340.43C734.31 342.93 737.23 344.19 740.76 344.19C743.27 344.19 745.39 343.68 747.13 342.65C748.88 341.63 750.4 340.27 751.7 338.58L756.04 341.96C752.56 347.31 747.34 349.99 740.38 349.99ZM739.49 312.74C736.62 312.74 734.22 313.79 732.27 315.89C730.33 317.96 729.13 320.88 728.66 324.65L749.48 324.65L749.48 324.11C749.27 320.5 748.3 317.71 746.56 315.74C744.82 313.74 742.46 312.74 739.49 312.74ZM794.98 293.31L813.26 338.93L831.54 293.31L841.1 293.31L841.1 349.22L833.72 349.22L833.72 327.45L834.41 303.95L816.06 349.22L810.42 349.22L792.1 304.06L792.83 327.45L792.83 349.22L785.46 349.22L785.46 293.31L794.98 293.31ZM860.72 349.22L853.61 349.22L853.61 307.67L860.72 307.67L860.72 349.22ZM853.04 296.65C853.04 295.5 853.38 294.53 854.08 293.74C854.79 292.94 855.84 292.55 857.22 292.55C858.61 292.55 859.66 292.94 860.37 293.74C861.09 294.53 861.45 295.5 861.45 296.65C861.45 297.81 861.09 298.77 860.37 299.53C859.66 300.3 858.61 300.69 857.22 300.69C855.84 300.69 854.79 300.3 854.08 299.53C853.38 298.77 853.04 297.81 853.04 296.65ZM878.84 307.67L879.07 312.9C882.25 308.9 886.39 306.91 891.51 306.91C900.29 306.91 904.72 311.86 904.8 321.77L904.8 349.22L897.7 349.22L897.7 321.73C897.67 318.73 896.98 316.52 895.62 315.08C894.29 313.65 892.21 312.93 889.36 312.93C887.06 312.93 885.04 313.55 883.3 314.78C881.56 316.01 880.2 317.62 879.23 319.62L879.23 349.22L872.12 349.22L872.12 307.67L878.84 307.67ZM932.75 349.99C927.12 349.99 922.54 348.14 919.01 344.46C915.47 340.75 913.71 335.79 913.71 329.6L913.71 328.29C913.71 324.17 914.49 320.5 916.05 317.27C917.64 314.02 919.84 311.49 922.65 309.67C925.5 307.83 928.57 306.91 931.87 306.91C937.27 306.91 941.47 308.69 944.47 312.24C947.46 315.8 948.96 320.9 948.96 327.52L948.96 330.48L920.81 330.48C920.92 334.58 922.11 337.89 924.38 340.43C926.69 342.93 929.61 344.19 933.14 344.19C935.65 344.19 937.77 343.68 939.51 342.65C941.25 341.63 942.78 340.27 944.08 338.58L948.42 341.96C944.94 347.31 939.72 349.99 932.75 349.99ZM931.87 312.74C929 312.74 926.6 313.79 924.65 315.89C922.71 317.96 921.5 320.88 921.04 324.65L941.86 324.65L941.86 324.11C941.65 320.5 940.68 317.71 938.94 315.74C937.2 313.74 934.84 312.74 931.87 312.74ZM973.88 344.19C976.41 344.19 978.63 343.42 980.52 341.89C982.42 340.35 983.47 338.43 983.67 336.13L990.39 336.13C990.26 338.51 989.44 340.77 987.93 342.92C986.42 345.07 984.4 346.79 981.87 348.07C979.36 349.35 976.7 349.99 973.88 349.99C968.22 349.99 963.72 348.11 960.36 344.34C957.04 340.55 955.37 335.38 955.37 328.83L955.37 327.64C955.37 323.6 956.11 320 957.6 316.85C959.08 313.7 961.21 311.26 963.97 309.52C966.76 307.78 970.05 306.91 973.84 306.91C978.5 306.91 982.37 308.3 985.44 311.09C988.54 313.88 990.19 317.5 990.39 321.96L983.67 321.96C983.47 319.27 982.44 317.07 980.6 315.35C978.78 313.61 976.53 312.74 973.84 312.74C970.23 312.74 967.43 314.05 965.43 316.66C963.46 319.24 962.48 322.99 962.48 327.91L962.48 329.25C962.48 334.04 963.46 337.73 965.43 340.31C967.4 342.9 970.22 344.19 973.88 344.19ZM1018.46 314.05C1017.39 313.87 1016.22 313.78 1014.97 313.78C1010.31 313.78 1007.15 315.76 1005.48 319.73L1005.48 349.22L998.38 349.22L998.38 307.67L1005.29 307.67L1005.41 312.47C1007.73 308.76 1011.04 306.91 1015.31 306.91C1016.7 306.91 1017.74 307.09 1018.46 307.44L1018.46 314.05ZM1049.14 349.22C1048.73 348.4 1048.4 346.94 1048.14 344.84C1044.84 348.27 1040.9 349.99 1036.32 349.99C1032.22 349.99 1028.85 348.84 1026.22 346.53C1023.61 344.2 1022.3 341.26 1022.3 337.7C1022.3 333.37 1023.94 330.02 1027.22 327.64C1030.52 325.23 1035.15 324.03 1041.12 324.03L1048.03 324.03L1048.03 320.77C1048.03 318.28 1047.29 316.31 1045.8 314.85C1044.32 313.37 1042.13 312.63 1039.24 312.63C1036.7 312.63 1034.58 313.27 1032.86 314.55C1031.14 315.83 1030.29 317.38 1030.29 319.19L1023.15 319.19C1023.15 317.12 1023.88 315.12 1025.33 313.2C1026.82 311.26 1028.82 309.72 1031.32 308.6C1033.86 307.47 1036.64 306.91 1039.66 306.91C1044.44 306.91 1048.19 308.11 1050.91 310.52C1053.62 312.9 1055.03 316.19 1055.13 320.38L1055.13 339.5C1055.13 343.32 1055.62 346.35 1056.59 348.6L1056.59 349.22L1049.14 349.22ZM1037.35 343.81C1039.58 343.81 1041.69 343.23 1043.69 342.08C1045.69 340.93 1047.13 339.43 1048.03 337.59L1048.03 329.06L1042.46 329.06C1033.76 329.06 1029.41 331.61 1029.41 336.7C1029.41 338.93 1030.15 340.67 1031.63 341.92C1033.12 343.18 1035.02 343.81 1037.35 343.81ZM1069.76 349.22L1069.76 313.16L1063.2 313.16L1063.2 307.67L1069.76 307.67L1069.76 303.41C1069.76 298.96 1070.95 295.52 1073.33 293.08C1075.71 290.65 1079.08 289.43 1083.43 289.43C1085.07 289.43 1086.7 289.65 1088.31 290.09L1087.93 295.85C1086.72 295.62 1085.44 295.5 1084.08 295.5C1081.78 295.5 1080 296.18 1078.75 297.54C1077.49 298.87 1076.87 300.79 1076.87 303.3L1076.87 307.67L1085.74 307.67L1085.74 313.16L1076.87 313.16L1076.87 349.22L1069.76 349.22ZM1103.25 297.61L1103.25 307.67L1111 307.67L1111 313.16L1103.25 313.16L1103.25 338.93C1103.25 340.59 1103.59 341.85 1104.28 342.69C1104.97 343.51 1106.15 343.92 1107.82 343.92C1108.63 343.92 1109.76 343.77 1111.2 343.46L1111.2 349.22C1109.32 349.73 1107.51 349.99 1105.74 349.99C1102.57 349.99 1100.17 349.03 1098.56 347.11C1096.95 345.19 1096.14 342.46 1096.14 338.93L1096.14 313.16L1088.58 313.16L1088.58 307.67L1096.14 307.67L1096.14 297.61L1103.25 297.61ZM1155.51 344.19C1158.04 344.19 1160.26 343.42 1162.15 341.89C1164.05 340.35 1165.09 338.43 1165.29 336.13L1172.03 336.13C1171.88 338.51 1171.07 340.77 1169.56 342.92C1168.05 345.07 1166.03 346.79 1163.5 348.07C1160.98 349.35 1158.33 349.99 1155.51 349.99C1149.85 349.99 1145.34 348.11 1141.99 344.34C1138.66 340.55 1137 335.38 1137 328.83L1137 327.64C1137 323.6 1137.74 320 1139.23 316.85C1140.71 313.7 1142.84 311.26 1145.6 309.52C1148.39 307.78 1151.67 306.91 1155.46 306.91C1160.13 306.91 1163.99 308.3 1167.07 311.09C1170.17 313.88 1171.82 317.5 1172.03 321.96L1165.29 321.96C1165.09 319.27 1164.07 317.07 1162.23 315.35C1160.4 313.61 1158.15 312.74 1155.46 312.74C1151.86 312.74 1149.06 314.05 1147.06 316.66C1145.09 319.24 1144.1 322.99 1144.1 327.91L1144.1 329.25C1144.1 334.04 1145.09 337.73 1147.06 340.31C1149.03 342.9 1151.85 344.19 1155.51 344.19ZM1178.13 328.06C1178.13 323.99 1178.91 320.33 1180.5 317.08C1182.12 313.83 1184.34 311.32 1187.19 309.55C1190.05 307.79 1193.32 306.91 1196.97 306.91C1202.63 306.91 1207.21 308.86 1210.69 312.78C1214.19 316.7 1215.95 321.91 1215.95 328.41L1215.95 328.91C1215.95 332.95 1215.17 336.59 1213.61 339.81C1212.07 343.01 1209.85 345.51 1206.96 347.3C1204.1 349.09 1200.79 349.99 1197.05 349.99C1191.42 349.99 1186.86 348.03 1183.35 344.11C1179.86 340.2 1178.13 335.01 1178.13 328.56L1178.13 328.06ZM1185.27 328.91C1185.27 333.52 1186.32 337.21 1188.45 340C1190.6 342.79 1193.46 344.19 1197.05 344.19C1200.67 344.19 1203.53 342.78 1205.65 339.97C1207.78 337.12 1208.85 333.16 1208.85 328.06C1208.85 323.51 1207.76 319.82 1205.57 317C1203.43 314.16 1200.56 312.74 1196.97 312.74C1193.46 312.74 1190.65 314.14 1188.49 316.93C1186.34 319.72 1185.27 323.71 1185.27 328.91ZM1249.05 338.2C1249.05 336.28 1248.32 334.79 1246.86 333.74C1245.43 332.67 1242.9 331.75 1239.29 330.98C1235.71 330.21 1232.86 329.29 1230.72 328.22C1228.63 327.14 1227.07 325.86 1226.05 324.38C1225.05 322.89 1224.54 321.13 1224.54 319.08C1224.54 315.67 1225.99 312.79 1228.85 310.44C1231.75 308.08 1235.43 306.91 1239.91 306.91C1244.61 306.91 1248.43 308.12 1251.34 310.55C1254.3 312.98 1255.76 316.1 1255.76 319.88L1248.62 319.88C1248.62 317.94 1247.79 316.26 1246.12 314.85C1244.49 313.45 1242.41 312.74 1239.91 312.74C1237.33 312.74 1235.3 313.31 1233.84 314.43C1232.37 315.56 1231.65 317.03 1231.65 318.85C1231.65 320.56 1232.33 321.86 1233.68 322.72C1235.05 323.6 1237.49 324.43 1241.03 325.22C1244.58 326.01 1247.46 326.96 1249.66 328.06C1251.86 329.16 1253.48 330.49 1254.54 332.06C1255.61 333.59 1256.16 335.47 1256.16 337.7C1256.16 341.41 1254.66 344.39 1251.69 346.65C1248.73 348.87 1244.88 349.99 1240.14 349.99C1236.81 349.99 1233.87 349.4 1231.31 348.22C1228.74 347.04 1226.74 345.41 1225.28 343.31C1223.85 341.18 1223.13 338.89 1223.13 336.43L1230.24 336.43C1230.36 338.81 1231.31 340.71 1233.07 342.11C1234.86 343.5 1237.22 344.19 1240.14 344.19C1242.82 344.19 1244.97 343.65 1246.59 342.58C1248.23 341.47 1249.05 340.02 1249.05 338.2ZM1272.09 307.67L1272.28 312.28C1275.33 308.7 1279.43 306.91 1284.61 306.91C1290.41 306.91 1294.38 309.13 1296.47 313.59C1297.85 311.59 1299.64 309.98 1301.85 308.75C1304.08 307.52 1306.69 306.91 1309.71 306.91C1318.83 306.91 1323.46 311.73 1323.61 321.38L1323.61 349.22L1316.52 349.22L1316.52 321.8C1316.52 318.83 1315.83 316.62 1314.48 315.16C1313.12 313.68 1310.84 312.93 1307.65 312.93C1305.01 312.93 1302.82 313.73 1301.08 315.31C1299.33 316.88 1298.32 318.99 1298.04 321.65L1298.04 349.22L1290.9 349.22L1290.9 322C1290.9 315.95 1287.94 312.93 1282.03 312.93C1277.37 312.93 1274.18 314.92 1272.47 318.89L1272.47 349.22L1265.37 349.22L1265.37 307.67L1272.09 307.67ZM1351.61 349.99C1345.98 349.99 1341.4 348.14 1337.86 344.46C1334.32 340.75 1332.56 335.79 1332.56 329.6L1332.56 328.29C1332.56 324.17 1333.35 320.5 1334.91 317.27C1336.5 314.02 1338.7 311.49 1341.51 309.67C1344.36 307.83 1347.43 306.91 1350.73 306.91C1356.12 306.91 1360.32 308.69 1363.33 312.24C1366.32 315.8 1367.81 320.9 1367.81 327.52L1367.81 330.48L1339.67 330.48C1339.77 334.58 1340.96 337.89 1343.24 340.43C1345.54 342.93 1348.46 344.19 1351.99 344.19C1354.5 344.19 1356.63 343.68 1358.37 342.65C1360.1 341.63 1361.63 340.27 1362.93 338.58L1367.28 341.96C1363.8 347.31 1358.58 349.99 1351.61 349.99ZM1350.73 312.74C1347.87 312.74 1345.46 313.79 1343.51 315.89C1341.56 317.96 1340.36 320.88 1339.89 324.65L1360.72 324.65L1360.72 324.11C1360.51 320.5 1359.54 317.71 1357.79 315.74C1356.05 313.74 1353.7 312.74 1350.73 312.74ZM1385.71 297.61L1385.71 307.67L1393.46 307.67L1393.46 313.16L1385.71 313.16L1385.71 338.93C1385.71 340.59 1386.05 341.85 1386.75 342.69C1387.44 343.51 1388.62 343.92 1390.27 343.92C1391.1 343.92 1392.22 343.77 1393.65 343.46L1393.65 349.22C1391.8 349.73 1389.97 349.99 1388.21 349.99C1385.03 349.99 1382.64 349.03 1381.02 347.11C1379.42 345.19 1378.6 342.46 1378.6 338.93L1378.6 313.16L1371.03 313.16L1371.03 307.67L1378.6 307.67L1378.6 297.61L1385.71 297.61ZM1409.52 349.22L1402.41 349.22L1402.41 307.67L1409.52 307.67L1409.52 349.22ZM1401.83 296.65C1401.83 295.5 1402.18 294.53 1402.87 293.74C1403.59 292.94 1404.65 292.55 1406.01 292.55C1407.4 292.55 1408.45 292.94 1409.18 293.74C1409.88 294.53 1410.24 295.5 1410.24 296.65C1410.24 297.81 1409.88 298.77 1409.18 299.53C1408.45 300.3 1407.4 300.69 1406.01 300.69C1404.65 300.69 1403.59 300.3 1402.87 299.53C1402.18 298.77 1401.83 297.81 1401.83 296.65ZM1437.58 344.19C1440.11 344.19 1442.33 343.42 1444.23 341.89C1446.12 340.35 1447.17 338.43 1447.38 336.13L1454.09 336.13C1453.97 338.51 1453.15 340.77 1451.64 342.92C1450.13 345.07 1448.1 346.79 1445.57 348.07C1443.07 349.35 1440.4 349.99 1437.58 349.99C1431.93 349.99 1427.42 348.11 1424.07 344.34C1420.74 340.55 1419.08 335.38 1419.08 328.83L1419.08 327.64C1419.08 323.6 1419.82 320 1421.3 316.85C1422.8 313.7 1424.92 311.26 1427.67 309.52C1430.47 307.78 1433.76 306.91 1437.55 306.91C1442.2 306.91 1446.07 308.3 1449.14 311.09C1452.24 313.88 1453.89 317.5 1454.09 321.96L1447.38 321.96C1447.17 319.27 1446.15 317.07 1444.31 315.35C1442.49 313.61 1440.24 312.74 1437.55 312.74C1433.93 312.74 1431.13 314.05 1429.13 316.66C1427.17 319.24 1426.18 322.99 1426.18 327.91L1426.18 329.25C1426.18 334.04 1427.17 337.73 1429.13 340.31C1431.12 342.9 1433.93 344.19 1437.58 344.19ZM1505.78 338.2C1505.78 336.28 1505.05 334.79 1503.59 333.74C1502.16 332.67 1499.64 331.75 1496.03 330.98C1492.44 330.21 1489.59 329.29 1487.47 328.22C1485.36 327.14 1483.81 325.86 1482.78 324.38C1481.78 322.89 1481.29 321.13 1481.29 319.08C1481.29 315.67 1482.72 312.79 1485.58 310.44C1488.48 308.08 1492.16 306.91 1496.64 306.91C1501.36 306.91 1505.16 308.12 1508.09 310.55C1511.03 312.98 1512.49 316.1 1512.49 319.88L1505.35 319.88C1505.35 317.94 1504.52 316.26 1502.87 314.85C1501.23 313.45 1499.16 312.74 1496.64 312.74C1494.06 312.74 1492.03 313.31 1490.57 314.43C1489.12 315.56 1488.38 317.03 1488.38 318.85C1488.38 320.56 1489.06 321.86 1490.43 322.72C1491.78 323.6 1494.22 324.43 1497.76 325.22C1501.31 326.01 1504.19 326.96 1506.39 328.06C1508.59 329.16 1510.23 330.49 1511.27 332.06C1512.35 333.59 1512.89 335.47 1512.89 337.7C1512.89 341.41 1511.41 344.39 1508.44 346.65C1505.46 348.87 1501.61 349.99 1496.88 349.99C1493.54 349.99 1490.6 349.4 1488.04 348.22C1485.49 347.04 1483.48 345.41 1482.01 343.31C1480.58 341.18 1479.86 338.89 1479.86 336.43L1486.97 336.43C1487.09 338.81 1488.04 340.71 1489.81 342.11C1491.61 343.5 1493.95 344.19 1496.88 344.19C1499.57 344.19 1501.7 343.65 1503.32 342.58C1504.96 341.47 1505.78 340.02 1505.78 338.2ZM1539.37 349.99C1533.74 349.99 1529.17 348.14 1525.63 344.46C1522.1 340.75 1520.34 335.79 1520.34 329.6L1520.34 328.29C1520.34 324.17 1521.11 320.5 1522.67 317.27C1524.26 314.02 1526.46 311.49 1529.28 309.67C1532.12 307.83 1535.19 306.91 1538.49 306.91C1543.9 306.91 1548.1 308.69 1551.09 312.24C1554.09 315.8 1555.59 320.9 1555.59 327.52L1555.59 330.48L1527.44 330.48C1527.55 334.58 1528.73 337.89 1531.01 340.43C1533.32 342.93 1536.23 344.19 1539.77 344.19C1542.27 344.19 1544.39 343.68 1546.14 342.65C1547.88 341.63 1549.41 340.27 1550.71 338.58L1555.05 341.96C1551.56 347.31 1546.34 349.99 1539.37 349.99ZM1538.49 312.74C1535.63 312.74 1533.22 313.79 1531.27 315.89C1529.34 317.96 1528.13 320.88 1527.67 324.65L1548.48 324.65L1548.48 324.11C1548.28 320.5 1547.3 317.71 1545.57 315.74C1543.82 313.74 1541.47 312.74 1538.49 312.74ZM1583.93 314.05C1582.85 313.87 1581.68 313.78 1580.42 313.78C1575.77 313.78 1572.61 315.76 1570.94 319.73L1570.94 349.22L1563.85 349.22L1563.85 307.67L1570.75 307.67L1570.86 312.47C1573.2 308.76 1576.49 306.91 1580.77 306.91C1582.15 306.91 1583.21 307.09 1583.93 307.44L1583.93 314.05ZM1604.9 339.58L1615.18 307.67L1622.43 307.67L1607.54 349.22L1602.13 349.22L1587.08 307.67L1594.33 307.67L1604.9 339.58ZM1637 349.22L1629.89 349.22L1629.89 307.67L1637 307.67L1637 349.22ZM1629.31 296.65C1629.31 295.5 1629.65 294.53 1630.35 293.74C1631.07 292.94 1632.11 292.55 1633.49 292.55C1634.87 292.55 1635.93 292.94 1636.65 293.74C1637.36 294.53 1637.72 295.5 1637.72 296.65C1637.72 297.81 1637.36 298.77 1636.65 299.53C1635.93 300.3 1634.87 300.69 1633.49 300.69C1632.11 300.69 1631.07 300.3 1630.35 299.53C1629.65 298.77 1629.31 297.81 1629.31 296.65ZM1665.06 344.19C1667.59 344.19 1669.81 343.42 1671.71 341.89C1673.6 340.35 1674.65 338.43 1674.86 336.13L1681.57 336.13C1681.45 338.51 1680.63 340.77 1679.12 342.92C1677.61 345.07 1675.58 346.79 1673.05 348.07C1670.55 349.35 1667.87 349.99 1665.06 349.99C1659.4 349.99 1654.9 348.11 1651.55 344.34C1648.21 340.55 1646.55 335.38 1646.55 328.83L1646.55 327.64C1646.55 323.6 1647.3 320 1648.78 316.85C1650.26 313.7 1652.4 311.26 1655.15 309.52C1657.95 307.78 1661.24 306.91 1665.03 306.91C1669.68 306.91 1673.55 308.3 1676.62 311.09C1679.72 313.88 1681.37 317.5 1681.57 321.96L1674.86 321.96C1674.65 319.27 1673.63 317.07 1671.77 315.35C1669.96 313.61 1667.72 312.74 1665.03 312.74C1661.41 312.74 1658.61 314.05 1656.61 316.66C1654.65 319.24 1653.65 322.99 1653.65 327.91L1653.65 329.25C1653.65 334.04 1654.65 337.73 1656.61 340.31C1658.58 342.9 1661.39 344.19 1665.06 344.19ZM1706.8 349.99C1701.17 349.99 1696.59 348.14 1693.05 344.46C1689.51 340.75 1687.75 335.79 1687.75 329.6L1687.75 328.29C1687.75 324.17 1688.54 320.5 1690.1 317.27C1691.69 314.02 1693.89 311.49 1696.7 309.67C1699.55 307.83 1702.62 306.91 1705.92 306.91C1711.31 306.91 1715.51 308.69 1718.52 312.24C1721.51 315.8 1723 320.9 1723 327.52L1723 330.48L1694.86 330.48C1694.96 334.58 1696.15 337.89 1698.43 340.43C1700.73 342.93 1703.65 344.19 1707.18 344.19C1709.69 344.19 1711.82 343.68 1713.56 342.65C1715.29 341.63 1716.82 340.27 1718.12 338.58L1722.47 341.96C1718.99 347.31 1713.77 349.99 1706.8 349.99ZM1705.92 312.74C1703.06 312.74 1700.65 313.79 1698.7 315.89C1696.75 317.96 1695.55 320.88 1695.08 324.65L1715.91 324.65L1715.91 324.11C1715.7 320.5 1714.73 317.71 1712.98 315.74C1711.24 313.74 1708.89 312.74 1705.92 312.74Z" />
</svg>