<svg version="1.2" baseProfile="tiny-ps" xmlns="http://www.w3.org/2000/svg" viewBox="0 0 1750 405" width="164" height="38">
	<title>arc_server-watermark-svg</title>
	<style>
		tspan { white-space:pre }
		.shp0 { fill: #ffffff } 
	</style>
	<path id="Layer" fill-rule="evenodd" class="shp0" d="M827.17 125.18C827.08 125.54 827.04 125.85 827.04 126.13C827.04 126.4 826.99 126.62 826.9 126.8C827.89 128.61 828.43 130.73 828.52 133.16C828.71 135.6 828.89 137.99 829.07 140.33C829.52 139.88 829.92 139.48 830.28 139.11C830.64 138.66 831.01 138.21 831.37 137.76C831.82 137.31 832.18 136.9 832.45 136.54C832.72 136.09 833.04 135.64 833.4 135.19C833.58 134.83 833.8 134.51 834.07 134.24C834.43 133.97 834.75 133.7 835.02 133.43C835.47 132.98 835.92 132.49 836.37 131.94C836.82 131.4 837.28 130.91 837.73 130.45C838.09 130 838.4 129.6 838.67 129.24C839.03 128.88 839.4 128.47 839.76 128.02C840.48 127.12 841.2 126.22 841.92 125.31C842.64 124.32 843.5 123.55 844.49 123.01C845.3 123.19 845.76 123.33 845.84 123.42C845.94 123.51 846.07 123.55 846.25 123.55C847.42 123.92 848.1 124.46 848.28 125.18C848.55 125.9 848.69 126.58 848.69 127.21C848.69 127.66 848.64 128.2 848.55 128.83C848.46 129.46 848.33 130 848.15 130.45C847.96 131 847.74 131.54 847.47 132.08C847.2 132.53 847.06 132.98 847.06 133.43C846.97 133.97 846.84 134.56 846.66 135.19C846.57 135.73 846.34 136.14 845.98 136.41C846.16 137.67 845.89 138.71 845.17 139.52C844.54 140.33 844 141.1 843.54 141.82C843.18 142.27 842.87 142.86 842.6 143.58C842.24 144.03 842.01 144.48 841.92 144.93C841.83 145.29 841.56 145.7 841.11 146.15C840.84 146.51 840.43 146.87 839.89 147.23C839.44 147.5 839.03 147.82 838.67 148.18C837.86 149.17 837.32 149.8 837.05 150.07C836.78 150.34 836.55 150.57 836.37 150.75C835.92 151.29 835.56 151.88 835.29 152.51C835.02 153.05 834.66 153.55 834.21 154C833.94 154.36 833.62 154.67 833.26 154.95C832.99 155.13 832.76 155.35 832.58 155.62C832.4 155.89 832.22 156.21 832.04 156.57C831.95 156.93 831.82 157.29 831.64 157.65C831.46 158.01 831.28 158.33 831.1 158.6C830.92 158.87 830.74 159.14 830.55 159.41C830.37 159.77 830.24 160.13 830.15 160.49C830.06 160.85 829.88 161.21 829.61 161.58C828.89 162.84 828.25 164.01 827.71 165.09C827.44 165.63 827.22 166.22 827.04 166.85C826.86 167.39 826.63 167.93 826.36 168.48C826.18 169.02 825.95 169.56 825.68 170.1C825.41 170.55 825.19 171 825.01 171.45C824.56 172.44 824.15 173.53 823.79 174.7C823.52 175.78 823.16 176.82 822.71 177.81C822.35 178.62 822.03 179.44 821.76 180.25C821.49 181.06 821.13 181.83 820.68 182.55C820.23 184.26 819.82 185.93 819.46 187.55C819.1 189.18 818.6 190.85 817.97 192.56C817.34 194.36 816.71 196.26 816.08 198.24C815.53 200.14 814.99 202.03 814.45 203.93C814 206.09 813.64 208.12 813.37 210.01C813.19 211.91 813.19 213.94 813.37 216.1C813.91 216.1 814.41 216.24 814.86 216.51C815.4 216.78 815.94 216.83 816.48 216.64C816.93 216.55 817.38 216.33 817.84 215.97C818.29 215.61 818.83 215.29 819.46 215.02C819.91 214.84 820.27 214.75 820.54 214.75C820.9 214.66 821.17 214.43 821.35 214.07C821.89 213.89 822.39 213.71 822.84 213.53C823.29 213.26 823.7 212.9 824.06 212.45C825.05 212.18 825.95 211.77 826.77 211.23C827.58 210.6 828.39 210.06 829.2 209.61C829.65 209.34 830.1 209.07 830.55 208.8C831.01 208.53 831.46 208.26 831.91 207.98C832.36 207.8 832.81 207.62 833.26 207.44C833.71 207.26 834.12 206.99 834.48 206.63C834.66 206.45 835.02 206.18 835.56 205.82C836.1 205.46 836.51 205.19 836.78 205.01C837.68 204.74 838.4 204.42 838.94 204.06C839.49 203.61 839.85 203.29 840.03 203.11C840.39 203.2 840.93 203.02 841.65 202.57C842.46 202.12 843.09 201.9 843.54 201.9C843.91 202.08 844.27 202.21 844.63 202.3C844.99 202.3 845.3 202.39 845.57 202.57C845.48 202.93 845.44 203.29 845.44 203.66C845.53 203.93 845.57 204.2 845.57 204.47C845.57 204.65 845.3 205.05 844.76 205.68C844.31 206.32 844 206.72 843.82 206.9C843.54 207.26 843 207.76 842.19 208.39C841.47 209.02 840.88 209.43 840.43 209.61C839.98 210.6 839.3 211.5 838.4 212.31C837.59 213.04 836.82 213.76 836.1 214.48C835.2 214.93 834.34 215.52 833.53 216.24C832.72 216.96 832 217.64 831.37 218.27C829.2 219.53 826.99 220.97 824.74 222.6C822.48 224.13 820.09 225.53 817.56 226.79C816.48 227.24 815.44 227.69 814.45 228.15C813.46 228.69 812.24 229.05 810.8 229.23C809.99 229.32 809.27 229.23 808.63 228.96C808.09 228.78 807.46 228.6 806.74 228.42C806.47 227.6 806.11 226.88 805.66 226.25C805.21 225.62 804.75 224.99 804.3 224.36C803.85 223.73 803.45 223.09 803.09 222.46C802.82 221.74 802.68 220.93 802.68 220.03C802.59 219.76 802.59 219.44 802.68 219.08C802.77 218.72 802.86 218.36 802.95 218C803.04 217.73 803.09 217.46 803.09 217.19C803.09 216.91 803.13 216.6 803.22 216.24C803.4 215.25 803.58 214.3 803.76 213.4C804.03 212.41 804.26 211.37 804.44 210.29C804.35 208.84 804.39 207.58 804.57 206.5C804.85 205.41 805.03 204.24 805.12 202.98C804.66 203.16 804.3 203.43 804.03 203.79C803.85 204.06 803.54 204.29 803.09 204.47C802.36 205.28 801.55 206.05 800.65 206.77C799.84 207.49 798.89 208.12 797.81 208.66C796.64 209.47 795.51 210.33 794.43 211.23C793.34 212.13 792.17 212.95 790.91 213.67C788.92 215.47 786.85 217.14 784.68 218.67C782.52 220.12 780.4 221.65 778.32 223.27C777.6 223.55 776.88 223.82 776.16 224.09C775.53 224.45 774.76 224.67 773.86 224.76C772.87 225.3 771.92 225.35 771.02 224.9C770.21 224.54 769.44 224.13 768.72 223.68C768.17 223.23 767.68 222.82 767.23 222.46C766.87 222.1 766.42 221.7 765.87 221.25C764.88 219.62 764.12 218.13 763.57 216.78C763.12 215.34 762.45 214.12 761.55 213.13C761.45 212.68 761.32 212.31 761.14 212.04C760.96 211.68 760.73 211.32 760.46 210.96C760.19 209.79 760.01 208.71 759.92 207.71C759.92 206.72 759.88 205.68 759.79 204.6C759.88 202.62 760.24 200.77 760.87 199.06C761.59 197.34 762.18 195.76 762.63 194.32C762.72 194.05 762.76 193.78 762.76 193.51C762.76 193.24 762.81 192.97 762.9 192.7C762.99 192.43 763.08 192.11 763.17 191.75C763.35 191.39 763.53 191.03 763.71 190.67C763.89 189.94 764.12 189.27 764.39 188.64C764.66 188.01 764.88 187.33 765.06 186.61C765.24 186.16 765.38 185.79 765.47 185.52C765.56 185.25 765.69 184.98 765.87 184.71C766.33 183.9 766.64 183.09 766.82 182.28C767.09 181.47 767.36 180.65 767.63 179.84C768.36 177.5 769.12 175.2 769.93 172.94C770.84 170.6 771.92 168.39 773.18 166.31C773.36 166.04 773.54 165.81 773.72 165.63C773.99 165.36 774.22 165.09 774.4 164.82L777.24 160.36C778.23 159 779.27 157.74 780.35 156.57C781.53 155.31 782.61 154.04 783.6 152.78C784.86 151.61 785.99 150.34 786.98 148.99C787.98 147.64 789.1 146.42 790.37 145.34C790.55 144.8 790.86 144.39 791.31 144.12C791.77 143.76 792.08 143.31 792.26 142.77C793.07 142.23 793.75 141.55 794.29 140.74C794.92 139.93 795.69 139.25 796.59 138.71C798.31 136.81 800.06 135.01 801.87 133.3C803.67 131.49 805.48 129.69 807.28 127.88C808.81 127.7 809.85 127.12 810.39 126.13C811.66 125.31 813.05 124.46 814.59 123.55C816.21 122.65 817.79 121.98 819.32 121.52C819.77 121.34 820.36 121.39 821.08 121.66C821.89 121.93 822.57 122.16 823.11 122.34C824.47 122.61 825.37 123.06 825.82 123.69C826.27 124.23 826.72 124.73 827.17 125.18ZM771.56 200.81C772.01 202.53 772.37 204.06 772.64 205.41C773 206.77 773.45 208.21 773.99 209.74C774.35 209.92 774.58 210.19 774.67 210.56C774.76 210.83 775.03 211.05 775.48 211.23C775.84 211.41 776.38 211.55 777.11 211.64C777.83 211.64 778.32 211.59 778.59 211.5C779.05 211.32 779.5 211.1 779.95 210.83C780.67 210.47 781.35 210.1 781.98 209.74C782.61 209.29 783.29 208.89 784.01 208.53C784.46 208.35 784.91 208.17 785.36 207.98C785.81 207.8 786.26 207.62 786.71 207.44C787.61 207.26 788.38 206.99 789.01 206.63C789.73 206.27 790.46 205.87 791.18 205.41C792.98 204.42 794.74 203.25 796.46 201.9C798.26 200.45 800.02 199.24 801.73 198.24C804.08 195.36 806.29 192.15 808.36 188.64C810.53 185.12 811.97 181.01 812.69 176.32C812.78 175.24 812.87 174.38 812.96 173.75C813.14 173.03 813.32 172.31 813.51 171.59C813.69 171.05 813.82 170.46 813.91 169.83C814.09 169.11 814.27 168.52 814.45 168.07C815.17 165.72 815.72 163.51 816.08 161.44C816.44 159.37 816.93 157.34 817.56 155.35C817.84 154.63 818.06 153.91 818.24 153.19C818.51 152.37 818.74 151.65 818.92 151.02C819.46 150.39 819.68 149.94 819.59 149.67C819.59 149.4 819.64 149.17 819.73 148.99C819.91 148.54 820.09 148.18 820.27 147.91C820.45 147.55 820.63 147.14 820.81 146.69C821.17 145.79 821.53 144.71 821.89 143.44C822.26 142.09 822.44 140.92 822.44 139.93C822.17 138.39 821.94 137.36 821.76 136.81C821.67 136.27 821.49 135.64 821.22 134.92C820.95 134.2 820.54 133.3 820 132.21C819.46 131.04 818.83 130.37 818.11 130.18C817.11 130 816.17 130.41 815.26 131.4C814.36 132.3 813.69 132.98 813.23 133.43C813.05 133.61 812.78 133.79 812.42 133.97C812.15 134.06 811.93 134.24 811.75 134.51C811.57 134.69 811.34 134.92 811.07 135.19C810.89 135.46 810.66 135.73 810.39 136C810.21 136.18 809.99 136.41 809.72 136.68C809.54 136.95 809.36 137.22 809.18 137.49C808.81 137.94 808.41 138.44 807.96 138.98C807.6 139.43 807.19 139.93 806.74 140.47C806.29 140.92 805.93 141.42 805.66 141.96C805.39 142.5 805.03 142.99 804.57 143.44C804.03 144.08 803.49 144.66 802.95 145.2C802.41 145.74 802 146.38 801.73 147.1C800.74 147.82 799.79 148.72 798.89 149.8C798.44 150.34 798.03 150.89 797.67 151.43C797.31 151.97 797 152.55 796.73 153.19C796 153.55 795.42 154.09 794.97 154.81C794.61 155.53 794.16 156.12 793.61 156.57C792.8 157.29 792.31 157.83 792.13 158.19C792.04 158.46 791.9 158.69 791.72 158.87C790.37 160.49 789.1 162.21 787.93 164.01C786.85 165.81 785.81 167.66 784.82 169.56C784.91 169.83 784.86 170.1 784.68 170.37C784.5 170.55 784.41 170.87 784.41 171.32C783.87 172.04 783.37 172.9 782.92 173.89C782.56 174.61 782.25 175.33 781.98 176.05C781.8 176.68 781.57 177.36 781.3 178.08C781.12 178.44 780.94 178.76 780.76 179.03C780.67 179.3 780.53 179.57 780.35 179.84C780.17 180.38 779.99 180.92 779.81 181.47C779.63 181.92 779.45 182.37 779.27 182.82C779.09 183.27 778.87 183.72 778.59 184.17C778.32 184.62 778.01 185.07 777.65 185.52C777.47 185.89 777.33 186.29 777.24 186.74C777.24 187.1 777.15 187.46 776.97 187.82C776.79 188.28 776.56 188.68 776.29 189.04C776.11 189.4 775.93 189.81 775.75 190.26C775.57 190.71 775.39 191.21 775.21 191.75C775.12 192.2 774.99 192.65 774.81 193.1C774.63 193.37 774.45 193.6 774.26 193.78C774.17 193.96 774.04 194.14 773.86 194.32C773.68 194.59 773.54 194.91 773.45 195.27C773.36 195.54 773.23 195.81 773.05 196.08C772.6 196.53 772.14 196.94 771.69 197.3C771.24 197.66 770.88 198.15 770.61 198.78C770.79 198.96 770.93 199.28 771.02 199.73C771.2 200.18 771.38 200.54 771.56 200.81ZM877.91 185.93C878.46 187.01 879.04 188.05 879.67 189.04C880.4 189.94 880.89 191.07 881.16 192.43C881.52 192.88 881.7 193.37 881.7 193.91C881.7 194.45 881.79 195 881.97 195.54C882.6 197.79 883.37 200 884.27 202.17C885.27 204.24 886.21 206.23 887.12 208.12C887.3 209.65 887.75 210.92 888.47 211.91C889.28 212.81 889.78 214.03 889.96 215.56C890.68 217.28 891.49 218.9 892.39 220.43C893.3 221.97 894.2 223.5 895.1 225.03C895.55 225.3 896 225.57 896.45 225.85C896.9 226.12 897.4 226.43 897.94 226.79C898.3 226.97 898.62 227.15 898.89 227.33C899.16 227.6 899.52 227.83 899.97 228.01C900.42 228.19 900.83 228.33 901.19 228.42C901.64 228.51 902.09 228.64 902.54 228.82C902.9 229 903.17 229.23 903.35 229.5C903.62 229.77 903.89 230 904.16 230.18C904.53 230.26 904.89 230.36 905.25 230.45C905.61 230.63 905.97 230.67 906.33 230.58C907.86 231.3 909.17 231.8 910.25 232.07C911.34 232.34 912.37 232.66 913.37 233.02C913.82 233.2 914.36 233.38 914.99 233.56C915.71 233.74 916.3 233.83 916.75 233.83C917.47 234.19 917.92 234.55 918.1 234.91C918.37 235.36 918.64 235.81 918.91 236.26C919.28 236.81 919.73 237.26 920.27 237.62C920.81 238.07 921.53 238.34 922.43 238.43C922.7 238.61 922.88 238.83 922.97 239.11C923.15 239.47 923.42 239.78 923.79 240.05C924.69 240.77 925.05 241.23 924.87 241.41C924.78 241.59 924.69 241.81 924.6 242.08C923.97 242.17 923.33 242.26 922.7 242.35C922.07 242.44 921.62 242.71 921.35 243.16C920.81 243.16 920.18 243.16 919.46 243.16C918.82 243.25 918.28 243.12 917.83 242.76C916.3 242.85 914.9 242.76 913.64 242.49C912.37 242.22 910.84 241.99 909.04 241.81C908.04 241.81 907.1 241.86 906.2 241.95C905.29 242.04 904.48 241.95 903.76 241.68C901.77 240.86 900.2 240.14 899.02 239.51C897.85 238.88 896.63 238.2 895.37 237.48C894.38 237.03 893.48 236.49 892.66 235.86C891.85 235.23 890.95 234.69 889.96 234.23C888.69 232.79 887.48 231.39 886.3 230.04C885.13 228.69 884.05 227.2 883.06 225.57C882.7 224.94 882.38 224.45 882.11 224.09C881.93 223.73 881.75 223.36 881.57 223C881.21 222.19 880.89 221.7 880.62 221.52C880.35 221.34 880.12 221.06 879.94 220.7C879.67 220.25 879.45 219.71 879.27 219.08C879.09 218.45 878.91 217.82 878.73 217.19C878.55 216.37 878.37 215.61 878.18 214.89C878 214.07 877.78 213.31 877.51 212.59C877.33 212.04 877.06 211.59 876.7 211.23C876.43 210.78 876.25 210.24 876.16 209.61C875.79 208.62 875.43 207.62 875.07 206.63C874.8 205.55 874.58 204.42 874.4 203.25C874.13 201.54 873.76 200.23 873.31 199.33C872.95 198.33 872.68 197.39 872.5 196.48C871.96 195.13 871.19 193.55 870.2 191.75C869.21 189.94 868.35 188.37 867.63 187.01C867.45 186.56 867.32 186.2 867.22 185.93C867.22 185.66 867.09 185.43 866.82 185.25C866.37 185.71 865.96 186.47 865.6 187.55C865.24 188.64 864.88 189.45 864.52 189.99C863.53 191.61 862.9 192.92 862.62 193.91C862.35 194.82 861.95 195.72 861.41 196.62C861.14 198.42 860.64 200 859.92 201.36C859.74 202.62 859.29 203.56 858.56 204.2C858.11 205.82 857.57 207.44 856.94 209.07C856.31 210.69 855.72 212.27 855.18 213.8C855 214.61 854.78 215.38 854.5 216.1C854.24 216.83 854.14 217.55 854.24 218.27C854.24 218.99 854.1 219.62 853.83 220.16C853.65 220.7 853.47 221.34 853.29 222.06C852.84 223.32 851.84 224.09 850.31 224.36C848.87 224.63 847.47 224.94 846.12 225.3C845.57 225.48 844.94 225.66 844.22 225.85C843.14 226.12 841.97 226.57 840.7 227.2C839.53 227.92 838.31 228.19 837.05 228.01C836.24 227.83 835.97 227.33 836.24 226.52C836.42 225.8 836.73 225.26 837.18 224.9C837.64 223.91 838.13 222.91 838.67 221.92C839.12 220.93 839.62 219.98 840.16 219.08C840.34 218.27 840.66 217.64 841.11 217.19C841.65 216.83 842.01 216.33 842.19 215.7C842.37 215.52 842.51 215.29 842.6 215.02C842.78 214.75 842.91 214.53 843 214.34C843.18 213.89 843.27 213.44 843.27 212.99C843.36 212.45 843.5 211.95 843.68 211.5C843.95 210.78 844.18 210.06 844.36 209.34C844.63 208.53 844.99 207.67 845.44 206.77C845.62 206.23 845.8 205.68 845.98 205.14C846.25 204.6 846.52 203.97 846.79 203.25C846.97 202.71 847.24 202.21 847.6 201.76C847.96 201.22 848.28 200.68 848.55 200.14C849.09 198.87 849.5 197.88 849.77 197.16C850.04 196.35 850.4 195.58 850.85 194.86C851.57 192.97 852.39 191.25 853.29 189.72C854.28 188.09 855.23 186.38 856.13 184.58C856.31 184.31 856.49 184.08 856.67 183.9C856.85 183.63 856.99 183.31 857.08 182.95C857.44 182.77 857.71 182.46 857.89 182.01C858.07 181.56 858.34 181.24 858.7 181.06C859.06 180.52 859.33 179.98 859.51 179.44C859.69 178.89 859.96 178.44 860.32 178.08C861.32 176.28 862.17 174.47 862.9 172.67C863.08 172.22 863.16 171.81 863.16 171.45C863.26 171.09 863.39 170.73 863.57 170.37C864.11 169.74 864.43 169.24 864.52 168.88C864.7 168.52 864.88 168.21 865.06 167.93C865.42 167.3 865.78 166.72 866.14 166.18C866.59 165.54 867 164.87 867.36 164.15C867.81 162.79 868.4 161.58 869.12 160.49C869.93 159.32 870.56 158.1 871.01 156.84C871.56 156.03 871.87 155.58 871.96 155.49C872.05 155.4 872.1 155.26 872.1 155.08C873.27 152.83 874.31 150.75 875.21 148.86C876.2 146.87 877.19 144.84 878.18 142.77C877.19 142.95 876.29 143.4 875.48 144.12C874.76 144.84 873.99 145.34 873.18 145.61C873 145.88 872.82 146.11 872.64 146.29C872.46 146.47 872.28 146.65 872.1 146.83C869.84 147.91 867.77 149.13 865.87 150.48C863.98 151.83 862.31 153.5 860.86 155.49C860.41 155.67 859.92 155.94 859.38 156.3C858.93 156.57 858.47 156.84 858.02 157.11C857.39 157.38 856.58 157.56 855.59 157.65C854.6 157.74 853.83 157.43 853.29 156.7C852.93 154.09 853.15 152.15 853.96 150.89C854.78 149.62 855.54 148.36 856.26 147.1C857.44 146.02 858.7 145.07 860.05 144.26C861.41 143.35 862.71 142.5 863.98 141.68C865.15 140.87 865.87 140.33 866.14 140.06C866.5 139.79 866.86 139.57 867.22 139.39C869.39 137.94 871.64 136.36 873.99 134.65C875.43 133.39 877.01 132.44 878.73 131.81C880.44 131.27 881.88 130.86 883.06 130.59C884.23 130.23 885.31 129.82 886.3 129.37C889.19 128.83 891.85 128.15 894.29 127.34C896.72 126.44 899.2 125.54 901.73 124.64C902.99 124.46 904.16 124.37 905.25 124.37C906.42 124.28 907.68 124.19 909.04 124.1C909.4 124.37 909.89 124.5 910.52 124.5C911.25 124.41 911.88 124.41 912.42 124.5C913.14 124.68 913.82 124.86 914.45 125.04C915.17 125.13 915.89 125.27 916.61 125.45C917.16 125.99 917.92 126.4 918.91 126.67C920 126.85 920.99 127.12 921.89 127.48C922.61 127.84 923.29 128.2 923.92 128.56C924.55 128.83 925.23 129.15 925.95 129.51C926.58 130.23 926.85 130.86 926.76 131.4C926.76 131.94 926.81 132.71 926.9 133.7C926.99 134.15 927.03 134.6 927.03 135.06C927.12 135.42 927.21 135.82 927.3 136.27C927.3 136.63 927.35 136.95 927.44 137.22C927.62 137.49 927.71 137.76 927.71 138.03C927.8 139.57 927.89 141.1 927.98 142.63C928.16 144.08 928.16 145.56 927.98 147.1C927.8 148.18 927.48 149.13 927.03 149.94C926.58 150.66 926.13 151.52 925.68 152.51C925.14 153.41 924.55 154.31 923.92 155.22C923.29 156.12 922.61 157.07 921.89 158.06C921.62 158.24 921.35 158.42 921.08 158.6C920.9 158.69 920.76 158.91 920.67 159.27C919.5 160.18 918.42 160.9 917.43 161.44C916.43 161.98 915.58 162.52 914.86 163.06C914.49 163.24 914.13 163.42 913.77 163.61C913.41 163.79 913.05 163.97 912.69 164.15C912.33 164.51 911.88 164.87 911.34 165.23C910.8 165.59 910.3 165.95 909.85 166.31C909.13 167.03 908.5 167.53 907.95 167.8C907.41 168.07 907.05 168.52 906.87 169.15C904.8 170.32 902.95 171.68 901.32 173.21C899.7 174.66 897.94 176.01 896.05 177.27C895.32 177.9 894.6 178.53 893.88 179.16C893.25 179.8 892.48 180.34 891.58 180.79C890.32 181.33 889.37 181.83 888.74 182.28C888.2 182.73 887.43 183.04 886.44 183.22C885.27 183.95 883.91 184.53 882.38 184.98C880.94 185.43 879.45 185.75 877.91 185.93ZM908.09 133.16C907.73 133.25 907.28 133.3 906.74 133.3C906.2 133.3 905.61 133.39 904.98 133.57C904.08 133.75 903.08 134.06 902 134.51C900.92 134.97 899.84 135.28 898.75 135.46C897.31 135.82 896.14 136.14 895.23 136.41C894.42 136.68 893.84 136.9 893.48 137.09C893.3 137.27 893.16 137.58 893.07 138.03C893.07 138.48 892.98 138.84 892.8 139.11C892.44 140.02 891.99 140.87 891.45 141.68C890.9 142.41 890.5 143.13 890.23 143.85C889.24 145.02 888.51 146.2 888.06 147.37C887.61 148.45 887.16 149.49 886.71 150.48C885.54 152.01 884.64 153.37 884 154.54C883.55 155.08 883.28 155.4 883.19 155.49C883.1 155.49 883.06 155.58 883.06 155.76C881.97 156.84 881.07 158.06 880.35 159.41C879.72 160.76 878.91 161.94 877.91 162.93C877.19 164.01 876.65 164.96 876.29 165.77C876.02 166.58 875.52 167.3 874.8 167.93C874.44 168.66 874.08 169.38 873.72 170.1C873.45 170.73 873.13 171.41 872.77 172.13C871.96 173.93 870.97 175.69 869.8 177.41C869.8 177.86 869.66 178.22 869.39 178.49C869.21 178.76 869.03 179.08 868.85 179.44C869.21 179.71 869.57 179.75 869.93 179.57C870.29 179.39 870.61 179.21 870.88 179.03C872.95 177.86 875.21 176.86 877.64 176.05C880.08 175.15 882.29 174.02 884.27 172.67C885.99 171.68 887.57 170.78 889.01 169.96C890.45 169.06 891.85 168.12 893.2 167.12C894.56 166.4 895.6 165.86 896.32 165.5C897.04 165.05 897.9 164.64 898.89 164.28C899.61 163.65 900.38 163.11 901.19 162.66C902 162.21 902.63 161.67 903.08 161.03C904.08 160.22 904.98 159.32 905.79 158.33C906.6 157.25 907.46 156.25 908.36 155.35C908.81 155.26 909.08 155.13 909.17 154.95C909.26 154.67 909.53 154.54 909.98 154.54C910.71 153.55 911.56 152.69 912.55 151.97C913.64 151.16 914.45 150.25 914.99 149.26C915.44 148.54 915.76 147.82 915.94 147.1C916.21 146.38 916.57 145.56 917.02 144.66C916.84 143.94 916.98 143.22 917.43 142.5C917.97 141.68 918.15 140.96 917.97 140.33C917.79 139.7 917.43 139.16 916.88 138.71C916.34 138.17 915.94 137.63 915.67 137.09C915.49 136.36 915.26 135.82 914.99 135.46C914.81 135.1 914.63 134.65 914.45 134.11C914.09 133.93 913.77 133.75 913.5 133.57C913.23 133.39 912.78 133.34 912.15 133.43C911.7 133.25 911.07 133.21 910.25 133.3C909.53 133.3 908.81 133.25 908.09 133.16ZM995.37 124.5C995.46 124.95 995.64 125.36 995.91 125.72C996.18 125.99 996.45 126.22 996.72 126.4C996.81 127.12 996.85 127.88 996.85 128.7C996.95 129.42 997.08 130.14 997.26 130.86C997.26 131.22 997.26 131.63 997.26 132.08C997.26 132.44 997.4 132.76 997.67 133.03C997.4 136.18 996.95 138.8 996.31 140.87C995.77 142.86 995.28 145.07 994.83 147.5C994.73 147.96 994.6 148.41 994.42 148.86C994.33 149.22 994.28 149.62 994.28 150.07C994.19 150.44 994.15 150.75 994.15 151.02C994.24 151.29 994.24 151.61 994.15 151.97C993.97 152.51 993.7 153.1 993.34 153.73C992.98 154.36 992.61 155.04 992.25 155.76C990.81 158.37 989.19 160.85 987.38 163.2C985.67 165.54 983.5 167.35 980.89 168.61C979.9 169.06 979.04 169.51 978.32 169.96C977.69 170.32 976.87 170.6 975.88 170.78C975.25 171.14 974.48 171.54 973.58 171.99C972.77 172.35 971.96 172.62 971.15 172.81C970.79 172.99 970.42 173.08 970.06 173.08C969.7 173.08 969.34 173.12 968.98 173.21C968.53 173.39 968.12 173.57 967.76 173.75C967.49 173.84 967.22 173.93 966.95 174.02C966.23 174.2 965.69 174.29 965.33 174.29C964.7 174.2 964.24 173.84 963.97 173.21C963.7 172.49 963.57 171.77 963.57 171.05C963.21 170.69 962.8 170.37 962.35 170.1C961.9 169.83 961.58 169.33 961.4 168.61C961.13 167.62 960.95 167.08 960.86 166.99C960.77 166.9 960.68 166.76 960.59 166.58C960.14 165.32 959.96 163.92 960.05 162.39C960.23 160.76 960.59 159.46 961.13 158.46C961.31 158.01 961.58 157.7 961.94 157.52C962.31 157.25 962.53 156.89 962.62 156.43C963.34 155.98 963.97 155.53 964.51 155.08C965.06 154.54 965.69 154.04 966.41 153.59C967.31 152.06 968.35 150.89 969.52 150.07C970.69 149.26 971.82 148.41 972.9 147.5C973.27 147.23 973.54 146.92 973.72 146.56C973.99 146.2 974.35 145.84 974.8 145.47C975.07 145.2 975.39 144.98 975.75 144.8C976.11 144.53 976.42 144.3 976.69 144.12C976.87 143.94 977.05 143.76 977.23 143.58C977.41 143.4 977.6 143.22 977.78 143.04C978.14 142.86 978.5 142.77 978.86 142.77C979.22 142.77 979.58 142.68 979.94 142.5C981.2 142.32 981.83 142.41 981.83 142.77C981.83 143.04 981.83 143.35 981.83 143.72C981.38 143.99 980.84 144.26 980.21 144.53C979.58 144.71 978.95 144.89 978.32 145.07C978.14 145.79 977.73 146.33 977.1 146.69C976.56 147.05 976.06 147.55 975.61 148.18C975.25 148.63 974.93 149.08 974.66 149.53C974.48 149.89 974.08 150.16 973.45 150.34C972.99 151.43 972.41 152.37 971.69 153.19C971.05 153.91 970.42 154.67 969.79 155.49C969.79 156.48 969.57 157.34 969.12 158.06C968.75 158.69 968.35 159.37 967.9 160.09C967.72 160.45 967.54 160.81 967.36 161.17C967.18 161.53 967.09 161.8 967.09 161.98C967.18 162.16 967.27 162.43 967.36 162.79C967.54 163.06 967.72 163.33 967.9 163.61C968.08 163.88 968.26 164.1 968.44 164.28C968.71 164.46 968.89 164.69 968.98 164.96C971.15 163.61 973.27 162.25 975.34 160.9C977.51 159.55 979.35 157.92 980.89 156.03C981.34 155.22 981.75 154.45 982.11 153.73C982.56 152.92 983.01 152.06 983.46 151.16C983.64 150.25 983.91 149.4 984.27 148.59C984.63 147.77 985.04 146.96 985.49 146.15C985.94 145.25 986.35 144.35 986.71 143.44C987.07 142.54 987.29 141.6 987.38 140.6C987.47 139.88 987.47 139.11 987.38 138.3C987.38 137.4 987.52 136.72 987.79 136.27C987.61 135.82 987.61 135.24 987.79 134.51C987.97 133.7 988.01 132.94 987.92 132.21C987.29 130.86 986.66 130.09 986.03 129.91C985.4 129.64 984.72 129.42 984 129.24C983.28 129.69 982.51 130.18 981.7 130.73C980.89 131.27 980.12 131.85 979.4 132.49C978.86 133.03 978.27 133.57 977.64 134.11C977.1 134.65 976.65 135.28 976.29 136C975.11 137.27 974.17 138.39 973.45 139.39C972.72 140.29 972 141.23 971.28 142.23C969.75 143.22 968.35 144.3 967.09 145.47C965.82 146.65 964.43 147.73 962.89 148.72C961.72 149.62 960.55 150.57 959.37 151.56C958.29 152.46 957.25 153.41 956.26 154.4C955.36 155.4 954.41 156.34 953.42 157.25C952.43 158.06 951.53 158.96 950.71 159.95C949.99 160.94 949.22 161.98 948.41 163.06C947.6 164.06 946.79 165.05 945.98 166.04C945.53 166.49 945.12 166.99 944.76 167.53C944.4 168.07 943.99 168.61 943.54 169.15C943.09 169.6 942.64 170.1 942.19 170.64C941.83 171.18 941.47 171.68 941.11 172.13C940.84 172.58 940.61 173.08 940.43 173.62C940.25 174.07 940.02 174.52 939.75 174.97C938.85 176.05 937.95 177.18 937.05 178.35C936.23 179.44 935.51 180.7 934.88 182.14C933.8 183.59 932.94 185.03 932.31 186.47C931.77 187.82 931.14 189.18 930.42 190.53C930.24 191.79 929.87 192.92 929.33 193.91C928.88 194.91 928.57 196.03 928.39 197.3C928.3 197.93 928.12 198.56 927.85 199.19C927.66 199.73 927.53 200.36 927.44 201.08C927.26 201.72 927.17 202.39 927.17 203.11C927.17 203.75 927.08 204.33 926.9 204.87C926.36 206.05 926.09 206.9 926.09 207.44C926.09 207.9 925.86 208.26 925.41 208.53C925.68 209.25 925.91 209.88 926.09 210.42C926.36 210.96 926.72 211.5 927.17 212.04C927.35 212.41 927.62 212.72 927.98 212.99C928.34 213.26 928.61 213.58 928.79 213.94C929.15 214.84 929.42 215.38 929.6 215.56C929.87 215.74 930.19 215.97 930.55 216.24C930.82 216.42 931.14 216.64 931.5 216.91C931.95 217.19 932.36 217.37 932.72 217.46C933.17 217.64 933.62 217.73 934.07 217.73C934.61 217.64 935.11 217.64 935.56 217.73C936.01 217.73 936.41 217.77 936.78 217.86C937.14 217.86 937.54 217.82 937.99 217.73C938.72 217.55 939.57 217.37 940.56 217.19C941.56 216.91 942.46 216.69 943.27 216.51C944.53 216.15 945.75 215.79 946.92 215.43C948.19 215.07 949.36 214.66 950.44 214.21C951.62 213.76 952.56 213.13 953.28 212.31C954.01 211.5 954.82 210.87 955.72 210.42C957.16 209.34 958.16 208.48 958.7 207.85C959.33 207.13 960.01 206.54 960.73 206.09C961.36 205.28 961.72 204.87 961.81 204.87C961.9 204.87 961.99 204.83 962.08 204.74C962.71 204.02 963.3 203.38 963.84 202.84C964.47 202.21 965.1 201.54 965.73 200.81C966.73 200.36 967.54 199.78 968.17 199.06C968.89 198.78 969.48 198.42 969.93 197.97C970.47 197.52 971.01 197.07 971.55 196.62C972.27 196.08 972.77 195.67 973.04 195.4C973.4 195.04 973.72 194.68 973.99 194.32C974.35 193.96 974.71 193.55 975.07 193.1C975.25 192.92 975.52 192.74 975.88 192.56C976.24 192.29 976.6 191.93 976.96 191.48C977.14 191.21 977.33 190.85 977.51 190.4C977.69 189.94 978 189.72 978.45 189.72C978.99 189.63 979.58 189.9 980.21 190.53C980.84 191.07 981.16 191.66 981.16 192.29C980.35 193.55 979.9 194.32 979.81 194.59C979.17 195.49 978.5 196.35 977.78 197.16C977.05 197.97 976.33 198.87 975.61 199.87C974.89 200.68 974.17 201.54 973.45 202.44C972.72 203.25 972.05 204.15 971.42 205.14C970.79 206.14 970.06 207.04 969.25 207.85C968.53 208.57 967.76 209.38 966.95 210.29C965.78 211.55 964.61 212.72 963.43 213.8C962.35 214.89 961.31 216.19 960.32 217.73C959.87 218.18 959.42 218.63 958.97 219.08C958.52 219.44 958.07 219.85 957.61 220.3C957.16 220.57 956.71 220.88 956.26 221.25C955.9 221.52 955.49 221.79 955.04 222.06C953.24 222.69 951.39 223.5 949.5 224.49C947.69 225.57 945.66 226.43 943.41 227.06C942.41 227.33 941.38 227.65 940.29 228.01C939.3 228.37 938.17 228.51 936.91 228.42C936.73 228.33 936.51 228.28 936.23 228.28C935.96 228.28 935.69 228.24 935.42 228.15C934.88 228.06 934.3 227.88 933.66 227.6C933.12 227.33 932.49 227.15 931.77 227.06C931.32 227.06 930.91 227.11 930.55 227.2C930.19 227.38 929.78 227.47 929.33 227.47C927.35 226.21 925.73 225.12 924.46 224.22C923.29 223.41 922.21 222.42 921.21 221.25C920.49 220.07 920 219.35 919.73 219.08C919.46 218.72 919.14 218.31 918.78 217.86C918.42 217.32 918.06 216.78 917.7 216.24C917.34 215.61 916.98 214.93 916.61 214.21C916.61 213.85 916.48 213.53 916.21 213.26C916.03 212.99 915.85 212.68 915.67 212.31C915.22 210.78 914.99 209.2 914.99 207.58C914.99 205.87 915.04 204.2 915.13 202.57C915.22 202.12 915.22 201.72 915.13 201.36C915.04 200.9 914.99 200.45 914.99 200C914.99 199.28 915.13 198.51 915.4 197.7C915.67 196.89 915.89 196.12 916.07 195.4C916.61 193.42 917.2 191.57 917.83 189.85C918.55 188.05 919.37 186.38 920.27 184.85C921.08 183.77 921.67 182.73 922.03 181.74C922.48 180.74 922.93 179.71 923.38 178.62C923.83 177.63 924.28 176.68 924.73 175.78C925.18 174.79 925.68 173.8 926.22 172.81C926.67 171.9 927.12 171 927.57 170.1C928.12 169.2 928.79 168.39 929.6 167.66C929.87 166.67 930.28 165.86 930.82 165.23C931.36 164.51 931.9 163.79 932.45 163.06C933.35 161.8 934.25 160.63 935.15 159.55C936.14 158.46 937 157.25 937.72 155.89C938.44 155.35 939.08 154.77 939.62 154.13C940.25 153.5 940.84 152.87 941.38 152.24C942.01 151.52 942.59 150.89 943.14 150.34C943.77 149.71 944.4 149.04 945.03 148.32C945.39 148.04 945.71 147.77 945.98 147.5C946.34 147.14 946.65 146.83 946.92 146.56C947.56 145.84 948.19 145.2 948.82 144.66C949.45 144.12 950.13 143.58 950.85 143.04C951.66 142.68 952.43 142.18 953.15 141.55C953.96 140.74 954.73 139.93 955.45 139.11C956.26 138.21 957.07 137.4 957.89 136.68C959.15 135.42 960.46 134.2 961.81 133.03C963.16 131.76 964.61 130.64 966.14 129.64C967.04 128.65 968.12 127.84 969.39 127.21C970.65 126.49 971.91 125.81 973.17 125.18C973.9 124.91 974.48 124.68 974.93 124.5C975.48 124.23 976.06 123.92 976.69 123.55C977.69 122.92 978.41 122.61 978.86 122.61C979.31 122.52 979.67 122.29 979.94 121.93C981.02 121.93 981.97 121.8 982.78 121.52C983.59 121.16 984.5 121.12 985.49 121.39C985.85 121.48 986.17 121.62 986.44 121.8C986.71 121.89 986.98 121.98 987.25 122.07C988.96 122.25 990.18 122.52 990.9 122.88C991.62 123.24 992.3 123.6 992.93 123.96C993.65 124.23 994.46 124.41 995.37 124.5Z" />
	<path id="Layer" fill-rule="evenodd" class="shp0" d="M334.63 275.31L322.45 275.31L322.45 309.08L317.48 309.08L317.48 275.31L305.32 275.31L305.32 271.19L334.63 271.19L334.63 275.31ZM344.31 284.33C346.44 281.71 349.22 280.4 352.63 280.4C358.58 280.4 361.58 283.76 361.64 290.47L361.64 309.08L356.82 309.08L356.82 290.45C356.81 288.42 356.34 286.92 355.42 285.95C354.51 284.98 353.1 284.49 351.18 284.49C349.61 284.49 348.24 284.91 347.06 285.74C345.88 286.57 344.96 287.66 344.31 289.02L344.31 309.08L339.49 309.08L339.49 269.11L344.31 269.11L344.31 284.33ZM380.53 309.6C376.71 309.6 373.61 308.35 371.21 305.85C368.82 303.34 367.62 299.98 367.62 295.78L367.62 294.9C367.62 292.11 368.15 289.62 369.21 287.43C370.28 285.23 371.78 283.51 373.68 282.28C375.61 281.03 377.69 280.4 379.93 280.4C383.59 280.4 386.44 281.61 388.46 284.02C390.49 286.43 391.51 289.89 391.51 294.38L391.51 296.38L372.44 296.38C372.5 299.16 373.31 301.4 374.86 303.12C376.42 304.82 378.39 305.67 380.79 305.67C382.49 305.67 383.93 305.32 385.11 304.63C386.29 303.94 387.32 303.02 388.2 301.87L391.15 304.16C388.79 307.79 385.25 309.6 380.53 309.6ZM379.93 284.36C377.99 284.36 376.36 285.07 375.04 286.49C373.72 287.9 372.9 289.88 372.59 292.43L386.7 292.43L386.7 292.06C386.56 289.62 385.9 287.72 384.72 286.39C383.54 285.04 381.94 284.36 379.93 284.36ZM426.59 298.41L419.72 298.41L417.64 309.08L413.91 309.08L416 298.41L409.78 298.41L409.78 294.85L416.67 294.85L418.47 285.63L411.75 285.63L411.75 282.02L419.17 282.02L421.3 271.19L425.03 271.19L422.89 282.02L429.76 282.02L431.89 271.19L435.64 271.19L433.51 282.02L438.82 282.02L438.82 285.63L432.81 285.63L431.01 294.85L436.87 294.85L436.87 298.41L430.33 298.41L428.25 309.08L424.51 309.08L426.59 298.41ZM420.39 294.85L427.26 294.85L429.06 285.63L422.19 285.63L420.39 294.85ZM458.49 309.08L453.65 309.08L453.65 277L443.94 280.56L443.94 276.19L457.74 271.01L458.49 271.01L458.49 309.08ZM492.81 287.79L496.43 287.79C498.7 287.76 500.49 287.16 501.79 286C503.09 284.84 503.74 283.27 503.74 281.29C503.74 276.85 501.53 274.63 497.11 274.63C495.02 274.63 493.36 275.23 492.11 276.42C490.88 277.6 490.26 279.17 490.26 281.13L485.45 281.13C485.45 278.13 486.54 275.64 488.73 273.66C490.93 271.67 493.72 270.67 497.11 270.67C500.68 270.67 503.48 271.62 505.51 273.51C507.54 275.4 508.56 278.03 508.56 281.39C508.56 283.04 508.02 284.64 506.94 286.18C505.88 287.72 504.44 288.88 502.6 289.64C504.68 290.3 506.28 291.39 507.41 292.92C508.56 294.45 509.13 296.31 509.13 298.51C509.13 301.91 508.02 304.61 505.8 306.61C503.58 308.6 500.69 309.6 497.13 309.6C493.58 309.6 490.68 308.64 488.44 306.71C486.22 304.79 485.11 302.24 485.11 299.09L489.95 299.09C489.95 301.08 490.6 302.68 491.9 303.87C493.2 305.07 494.95 305.67 497.13 305.67C499.46 305.67 501.23 305.06 502.47 303.85C503.7 302.63 504.31 300.89 504.31 298.62C504.31 296.42 503.64 294.72 502.28 293.55C500.93 292.37 498.98 291.76 496.43 291.72L492.81 291.72L492.81 287.79ZM529.84 285.24C529.11 285.12 528.32 285.06 527.47 285.06C524.32 285.06 522.17 286.41 521.05 289.1L521.05 309.08L516.23 309.08L516.23 280.93L520.92 280.93L520.99 284.18C522.57 281.66 524.81 280.4 527.71 280.4C528.64 280.4 529.36 280.53 529.84 280.77L529.84 285.24ZM532.6 294.77C532.6 290.45 533.62 286.98 535.67 284.36C537.72 281.72 540.4 280.4 543.71 280.4C547.01 280.4 549.62 281.53 551.54 283.79L551.54 269.11L556.36 269.11L556.36 309.08L551.93 309.08L551.7 306.06C549.77 308.42 547.09 309.6 543.66 309.6C540.4 309.6 537.74 308.26 535.67 305.59C533.62 302.92 532.6 299.43 532.6 295.13L532.6 294.77ZM537.41 295.31C537.41 298.51 538.07 301 539.39 302.81C540.71 304.61 542.53 305.51 544.86 305.51C547.91 305.51 550.14 304.14 551.54 301.4L551.54 288.47C550.1 285.82 547.89 284.49 544.91 284.49C542.55 284.49 540.71 285.4 539.39 287.22C538.07 289.04 537.41 291.74 537.41 295.31ZM573.87 294.95L561.17 294.95L561.17 291.02L573.87 291.02L573.87 294.95ZM602.36 295.31C602.36 299.6 601.38 303.05 599.42 305.67C597.46 308.29 594.81 309.6 591.46 309.6C588.04 309.6 585.35 308.52 583.39 306.35L583.39 319.9L578.58 319.9L578.58 280.93L582.98 280.93L583.21 284.05C585.17 281.62 587.9 280.4 591.38 280.4C594.77 280.4 597.44 281.68 599.4 284.23C601.38 286.78 602.36 290.33 602.36 294.87L602.36 295.31ZM597.55 294.77C597.55 291.59 596.87 289.09 595.52 287.25C594.17 285.41 592.31 284.49 589.95 284.49C587.04 284.49 584.85 285.78 583.39 288.37L583.39 301.82C584.83 304.39 587.04 305.67 590 305.67C592.31 305.67 594.14 304.76 595.49 302.94C596.86 301.1 597.55 298.38 597.55 294.77ZM625.89 309.08C625.61 308.52 625.38 307.53 625.21 306.11C622.97 308.44 620.3 309.6 617.2 309.6C614.42 309.6 612.14 308.82 610.35 307.26C608.58 305.68 607.7 303.68 607.7 301.27C607.7 298.34 608.81 296.07 611.03 294.46C613.27 292.82 616.41 292.01 620.45 292.01L625.13 292.01L625.13 289.8C625.13 288.11 624.63 286.78 623.62 285.79C622.62 284.78 621.13 284.28 619.17 284.28C617.46 284.28 616.02 284.71 614.85 285.58C613.69 286.45 613.11 287.5 613.11 288.73L608.27 288.73C608.27 287.33 608.77 285.97 609.75 284.67C610.76 283.35 612.11 282.31 613.81 281.55C615.53 280.79 617.41 280.4 619.46 280.4C622.7 280.4 625.25 281.22 627.08 282.85C628.92 284.46 629.88 286.69 629.95 289.54L629.95 302.5C629.95 305.08 630.28 307.14 630.94 308.66L630.94 309.08L625.89 309.08ZM617.9 305.41C619.41 305.41 620.84 305.02 622.19 304.24C623.55 303.46 624.53 302.44 625.13 301.2L625.13 295.42L621.36 295.42C615.46 295.42 612.51 297.14 612.51 300.6C612.51 302.11 613.02 303.29 614.02 304.13C615.03 304.99 616.32 305.41 617.9 305.41ZM651.1 285.24C650.37 285.12 649.58 285.06 648.74 285.06C645.58 285.06 643.44 286.41 642.31 289.1L642.31 309.08L637.49 309.08L637.49 280.93L642.18 280.93L642.26 284.18C643.83 281.66 646.07 280.4 648.97 280.4C649.91 280.4 650.62 280.53 651.1 280.77L651.1 285.24ZM663.39 274.11L663.39 280.93L668.64 280.93L668.64 284.65L663.39 284.65L663.39 302.11C663.39 303.23 663.62 304.08 664.09 304.66C664.56 305.21 665.35 305.49 666.48 305.49C667.04 305.49 667.8 305.38 668.77 305.18L668.77 309.08C667.51 309.43 666.27 309.6 665.08 309.6C662.93 309.6 661.3 308.95 660.21 307.65C659.12 306.35 658.57 304.5 658.57 302.11L658.57 284.65L653.45 284.65L653.45 280.93L658.57 280.93L658.57 274.11L663.39 274.11ZM683.5 302.03L690.06 280.93L695.21 280.93L683.89 313.42C682.14 318.11 679.35 320.45 675.54 320.45L674.63 320.37L672.83 320.03L672.83 316.13L674.13 316.23C675.76 316.23 677.03 315.91 677.93 315.25C678.85 314.59 679.61 313.38 680.19 311.63L681.26 308.77L671.22 280.93L676.47 280.93L683.5 302.03ZM715.12 309.08L715.12 284.65L710.67 284.65L710.67 280.93L715.12 280.93L715.12 278.04C715.12 275.02 715.92 272.69 717.54 271.04C719.15 269.39 721.43 268.57 724.38 268.57C725.49 268.57 726.59 268.71 727.69 269.01L727.43 272.91C726.61 272.75 725.74 272.68 724.82 272.68C723.26 272.68 722.06 273.14 721.21 274.06C720.36 274.96 719.93 276.26 719.93 277.96L719.93 280.93L725.94 280.93L725.94 284.65L719.93 284.65L719.93 309.08L715.12 309.08ZM744.89 285.24C744.16 285.12 743.37 285.06 742.52 285.06C739.36 285.06 737.22 286.41 736.09 289.1L736.09 309.08L731.28 309.08L731.28 280.93L735.96 280.93L736.04 284.18C737.62 281.66 739.86 280.4 742.75 280.4C743.69 280.4 744.4 280.53 744.89 280.77L744.89 285.24ZM760.5 309.6C756.68 309.6 753.58 308.35 751.18 305.85C748.79 303.34 747.59 299.98 747.59 295.78L747.59 294.9C747.59 292.11 748.12 289.62 749.18 287.43C750.25 285.23 751.75 283.51 753.65 282.28C755.58 281.03 757.66 280.4 759.9 280.4C763.56 280.4 766.41 281.61 768.44 284.02C770.47 286.43 771.48 289.89 771.48 294.38L771.48 296.38L752.41 296.38C752.48 299.16 753.28 301.4 754.83 303.12C756.39 304.82 758.36 305.67 760.76 305.67C762.46 305.67 763.9 305.32 765.08 304.63C766.26 303.94 767.29 303.02 768.17 301.87L771.12 304.16C768.76 307.79 765.22 309.6 760.5 309.6ZM759.9 284.36C757.96 284.36 756.33 285.07 755.01 286.49C753.69 287.9 752.87 289.88 752.56 292.43L766.67 292.43L766.67 292.06C766.53 289.62 765.87 287.72 764.69 286.39C763.51 285.04 761.91 284.36 759.9 284.36ZM788.76 309.6C784.94 309.6 781.84 308.35 779.44 305.85C777.05 303.34 775.85 299.98 775.85 295.78L775.85 294.9C775.85 292.11 776.38 289.62 777.44 287.43C778.51 285.23 780.01 283.51 781.91 282.28C783.84 281.03 785.92 280.4 788.16 280.4C791.82 280.4 794.67 281.61 796.69 284.02C798.73 286.43 799.74 289.89 799.74 294.38L799.74 296.38L780.67 296.38C780.73 299.16 781.54 301.4 783.09 303.12C784.65 304.82 786.62 305.67 789.02 305.67C790.72 305.67 792.16 305.32 793.34 304.63C794.52 303.94 795.55 303.02 796.43 301.87L799.38 304.16C797.02 307.79 793.48 309.6 788.76 309.6ZM788.16 284.36C786.22 284.36 784.59 285.07 783.27 286.49C781.95 287.9 781.13 289.88 780.82 292.43L794.93 292.43L794.93 292.06C794.79 289.62 794.13 287.72 792.95 286.39C791.77 285.04 790.17 284.36 788.16 284.36ZM825.76 271.19L838.15 302.11L850.53 271.19L857.01 271.19L857.01 309.08L852.02 309.08L852.02 294.33L852.49 278.4L840.05 309.08L836.22 309.08L823.81 278.48L824.3 294.33L824.3 309.08L819.31 309.08L819.31 271.19L825.76 271.19ZM870.31 309.08L865.5 309.08L865.5 280.93L870.31 280.93L870.31 309.08ZM865.11 273.46C865.11 272.68 865.34 272.02 865.81 271.48C866.3 270.94 867.01 270.67 867.94 270.67C868.88 270.67 869.59 270.94 870.08 271.48C870.56 272.02 870.8 272.68 870.8 273.46C870.8 274.24 870.56 274.89 870.08 275.41C869.59 275.93 868.88 276.19 867.94 276.19C867.01 276.19 866.3 275.93 865.81 275.41C865.34 274.89 865.11 274.24 865.11 273.46ZM882.59 280.93L882.75 284.46C884.9 281.76 887.71 280.4 891.18 280.4C897.13 280.4 900.13 283.76 900.18 290.47L900.18 309.08L895.37 309.08L895.37 290.45C895.35 288.42 894.88 286.92 893.96 285.95C893.06 284.98 891.65 284.49 889.72 284.49C888.16 284.49 886.79 284.91 885.61 285.74C884.43 286.57 883.51 287.66 882.85 289.02L882.85 309.08L878.04 309.08L878.04 280.93L882.59 280.93ZM919.13 309.6C915.31 309.6 912.21 308.35 909.81 305.85C907.42 303.34 906.22 299.98 906.22 295.78L906.22 294.9C906.22 292.11 906.75 289.62 907.81 287.43C908.88 285.23 910.38 283.51 912.28 282.28C914.21 281.03 916.29 280.4 918.53 280.4C922.19 280.4 925.03 281.61 927.06 284.02C929.09 286.43 930.11 289.89 930.11 294.38L930.11 296.38L911.04 296.38C911.1 299.16 911.91 301.4 913.45 303.12C915.02 304.82 916.99 305.67 919.39 305.67C921.09 305.67 922.53 305.32 923.71 304.63C924.89 303.94 925.92 303.02 926.8 301.87L929.74 304.16C927.39 307.79 923.85 309.6 919.13 309.6ZM918.53 284.36C916.59 284.36 914.96 285.07 913.64 286.49C912.32 287.9 911.5 289.88 911.19 292.43L925.3 292.43L925.3 292.06C925.16 289.62 924.5 287.72 923.32 286.39C922.14 285.04 920.54 284.36 918.53 284.36ZM947 305.67C948.71 305.67 950.22 305.15 951.5 304.11C952.78 303.07 953.49 301.77 953.63 300.21L958.19 300.21C958.1 301.82 957.55 303.35 956.52 304.81C955.5 306.27 954.13 307.43 952.41 308.3C950.71 309.17 948.91 309.6 947 309.6C943.16 309.6 940.11 308.32 937.84 305.77C935.58 303.21 934.45 299.7 934.45 295.26L934.45 294.46C934.45 291.72 934.96 289.28 935.96 287.14C936.97 285.01 938.41 283.35 940.28 282.17C942.17 280.99 944.4 280.4 946.97 280.4C950.13 280.4 952.75 281.35 954.83 283.24C956.93 285.13 958.05 287.59 958.19 290.6L953.63 290.6C953.49 288.78 952.8 287.29 951.55 286.13C950.32 284.95 948.79 284.36 946.97 284.36C944.52 284.36 942.63 285.24 941.27 287.01C939.94 288.77 939.27 291.31 939.27 294.64L939.27 295.55C939.27 298.79 939.94 301.29 941.27 303.04C942.61 304.79 944.52 305.67 947 305.67ZM977.21 285.24C976.48 285.12 975.69 285.06 974.84 285.06C971.68 285.06 969.54 286.41 968.41 289.1L968.41 309.08L963.6 309.08L963.6 280.93L968.28 280.93L968.36 284.18C969.94 281.66 972.18 280.4 975.08 280.4C976.01 280.4 976.72 280.53 977.21 280.77L977.21 285.24ZM998 309.08C997.72 308.52 997.5 307.53 997.32 306.11C995.09 308.44 992.41 309.6 989.31 309.6C986.53 309.6 984.25 308.82 982.46 307.26C980.7 305.68 979.81 303.68 979.81 301.27C979.81 298.34 980.92 296.07 983.14 294.46C985.38 292.82 988.52 292.01 992.56 292.01L997.24 292.01L997.24 289.8C997.24 288.11 996.74 286.78 995.74 285.79C994.73 284.78 993.25 284.28 991.29 284.28C989.57 284.28 988.13 284.71 986.97 285.58C985.8 286.45 985.22 287.5 985.22 288.73L980.38 288.73C980.38 287.33 980.88 285.97 981.87 284.67C982.87 283.35 984.23 282.31 985.93 281.55C987.64 280.79 989.53 280.4 991.57 280.4C994.82 280.4 997.36 281.22 999.2 282.85C1001.04 284.46 1001.99 286.69 1002.06 289.54L1002.06 302.5C1002.06 305.08 1002.39 307.14 1003.05 308.66L1003.05 309.08L998 309.08ZM990.01 305.41C991.52 305.41 992.95 305.02 994.31 304.24C995.66 303.46 996.64 302.44 997.24 301.2L997.24 295.42L993.47 295.42C987.57 295.42 984.63 297.14 984.63 300.6C984.63 302.11 985.13 303.29 986.13 304.13C987.14 304.99 988.43 305.41 990.01 305.41ZM1011.97 309.08L1011.97 284.65L1007.52 284.65L1007.52 280.93L1011.97 280.93L1011.97 278.04C1011.97 275.02 1012.78 272.69 1014.39 271.04C1016.01 269.39 1018.29 268.57 1021.24 268.57C1022.35 268.57 1023.45 268.71 1024.54 269.01L1024.28 272.91C1023.47 272.75 1022.6 272.68 1021.68 272.68C1020.12 272.68 1018.91 273.14 1018.06 274.06C1017.21 274.96 1016.79 276.26 1016.79 277.96L1016.79 280.93L1022.8 280.93L1022.8 284.65L1016.79 284.65L1016.79 309.08L1011.97 309.08ZM1034.66 274.11L1034.66 280.93L1039.92 280.93L1039.92 284.65L1034.66 284.65L1034.66 302.11C1034.66 303.23 1034.9 304.08 1035.37 304.66C1035.84 305.21 1036.63 305.49 1037.76 305.49C1038.32 305.49 1039.08 305.38 1040.05 305.18L1040.05 309.08C1038.78 309.43 1037.55 309.6 1036.36 309.6C1034.2 309.6 1032.58 308.95 1031.49 307.65C1030.4 306.35 1029.85 304.5 1029.85 302.11L1029.85 284.65L1024.72 284.65L1024.72 280.93L1029.85 280.93L1029.85 274.11L1034.66 274.11ZM1070.08 305.67C1071.8 305.67 1073.3 305.15 1074.58 304.11C1075.87 303.07 1076.57 301.77 1076.71 300.21L1081.27 300.21C1081.18 301.82 1080.62 303.35 1079.6 304.81C1078.58 306.27 1077.21 307.43 1075.5 308.3C1073.79 309.17 1071.99 309.6 1070.08 309.6C1066.25 309.6 1063.19 308.32 1060.92 305.77C1058.67 303.21 1057.54 299.7 1057.54 295.26L1057.54 294.46C1057.54 291.72 1058.04 289.28 1059.05 287.14C1060.05 285.01 1061.49 283.35 1063.37 282.17C1065.26 280.99 1067.48 280.4 1070.05 280.4C1073.22 280.4 1075.83 281.35 1077.92 283.24C1080.02 285.13 1081.14 287.59 1081.27 290.6L1076.71 290.6C1076.57 288.78 1075.88 287.29 1074.63 286.13C1073.4 284.95 1071.87 284.36 1070.05 284.36C1067.61 284.36 1065.71 285.24 1064.36 287.01C1063.02 288.77 1062.35 291.31 1062.35 294.64L1062.35 295.55C1062.35 298.79 1063.02 301.29 1064.36 303.04C1065.69 304.79 1067.6 305.67 1070.08 305.67ZM1085.41 294.74C1085.41 291.98 1085.94 289.5 1087.02 287.3C1088.12 285.1 1089.62 283.4 1091.55 282.2C1093.49 281 1095.71 280.4 1098.18 280.4C1102.02 280.4 1105.12 281.73 1107.47 284.39C1109.85 287.04 1111.04 290.57 1111.04 294.98L1111.04 295.31C1111.04 298.06 1110.51 300.52 1109.46 302.7C1108.41 304.87 1106.91 306.56 1104.95 307.78C1103.01 308.99 1100.77 309.6 1098.23 309.6C1094.42 309.6 1091.33 308.27 1088.95 305.62C1086.58 302.96 1085.41 299.45 1085.41 295.08L1085.41 294.74ZM1090.25 295.31C1090.25 298.44 1090.96 300.94 1092.4 302.83C1093.86 304.73 1095.8 305.67 1098.23 305.67C1100.68 305.67 1102.62 304.72 1104.06 302.81C1105.5 300.88 1106.23 298.19 1106.23 294.74C1106.23 291.65 1105.49 289.16 1104.01 287.25C1102.56 285.32 1100.61 284.36 1098.18 284.36C1095.8 284.36 1093.89 285.31 1092.43 287.2C1090.97 289.09 1090.25 291.79 1090.25 295.31ZM1133.47 301.61C1133.47 300.31 1132.98 299.3 1131.99 298.59C1131.02 297.86 1129.3 297.24 1126.86 296.72C1124.43 296.2 1122.5 295.57 1121.05 294.85C1119.63 294.12 1118.58 293.25 1117.89 292.24C1117.2 291.24 1116.86 290.04 1116.86 288.65C1116.86 286.35 1117.84 284.39 1119.78 282.8C1121.75 281.2 1124.24 280.4 1127.28 280.4C1130.46 280.4 1133.05 281.23 1135.03 282.88C1137.03 284.52 1138.02 286.63 1138.02 289.2L1133.18 289.2C1133.18 287.88 1132.62 286.75 1131.49 285.79C1130.38 284.84 1128.97 284.36 1127.28 284.36C1125.53 284.36 1124.15 284.74 1123.16 285.5C1122.17 286.27 1121.68 287.27 1121.68 288.5C1121.68 289.66 1122.14 290.54 1123.06 291.12C1123.98 291.72 1125.64 292.28 1128.03 292.82C1130.44 293.35 1132.39 294 1133.89 294.74C1135.38 295.49 1136.48 296.39 1137.19 297.45C1137.91 298.49 1138.29 299.76 1138.29 301.27C1138.29 303.79 1137.27 305.81 1135.26 307.34C1133.26 308.84 1130.64 309.6 1127.44 309.6C1125.18 309.6 1123.18 309.2 1121.45 308.4C1119.71 307.6 1118.36 306.49 1117.36 305.07C1116.39 303.63 1115.9 302.08 1115.9 300.41L1120.72 300.41C1120.81 302.03 1121.45 303.31 1122.64 304.26C1123.86 305.2 1125.45 305.67 1127.44 305.67C1129.25 305.67 1130.71 305.31 1131.81 304.58C1132.92 303.83 1133.47 302.84 1133.47 301.61ZM1149.08 280.93L1149.21 284.05C1151.28 281.62 1154.06 280.4 1157.57 280.4C1161.5 280.4 1164.19 281.91 1165.61 284.93C1166.54 283.58 1167.76 282.49 1169.25 281.65C1170.76 280.82 1172.53 280.4 1174.58 280.4C1180.76 280.4 1183.9 283.67 1184 290.21L1184 309.08L1179.19 309.08L1179.19 290.5C1179.19 288.49 1178.73 286.99 1177.81 286C1176.89 284.99 1175.35 284.49 1173.18 284.49C1171.39 284.49 1169.91 285.03 1168.73 286.1C1167.54 287.16 1166.86 288.59 1166.67 290.4L1166.67 309.08L1161.83 309.08L1161.83 290.63C1161.83 286.54 1159.83 284.49 1155.82 284.49C1152.67 284.49 1150.5 285.83 1149.34 288.52L1149.34 309.08L1144.53 309.08L1144.53 280.93L1149.08 280.93ZM1202.97 309.6C1199.16 309.6 1196.06 308.35 1193.66 305.85C1191.26 303.34 1190.07 299.98 1190.07 295.78L1190.07 294.9C1190.07 292.11 1190.6 289.62 1191.65 287.43C1192.73 285.23 1194.22 283.51 1196.13 282.28C1198.06 281.03 1200.14 280.4 1202.38 280.4C1206.03 280.4 1208.88 281.61 1210.91 284.02C1212.94 286.43 1213.95 289.89 1213.95 294.38L1213.95 296.38L1194.88 296.38C1194.95 299.16 1195.76 301.4 1197.3 303.12C1198.86 304.82 1200.84 305.67 1203.23 305.67C1204.93 305.67 1206.37 305.32 1207.56 304.63C1208.73 303.94 1209.76 303.02 1210.65 301.87L1213.59 304.16C1211.23 307.79 1207.7 309.6 1202.97 309.6ZM1202.38 284.36C1200.44 284.36 1198.81 285.07 1197.48 286.49C1196.16 287.9 1195.35 289.88 1195.03 292.43L1209.15 292.43L1209.15 292.06C1209.01 289.62 1208.35 287.72 1207.16 286.39C1205.98 285.04 1204.39 284.36 1202.38 284.36ZM1226.08 274.11L1226.08 280.93L1231.34 280.93L1231.34 284.65L1226.08 284.65L1226.08 302.11C1226.08 303.23 1226.32 304.08 1226.78 304.66C1227.25 305.21 1228.05 305.49 1229.17 305.49C1229.74 305.49 1230.49 305.38 1231.46 305.18L1231.46 309.08C1230.21 309.43 1228.97 309.6 1227.78 309.6C1225.62 309.6 1224 308.95 1222.91 307.65C1221.82 306.35 1221.26 304.5 1221.26 302.11L1221.26 284.65L1216.14 284.65L1216.14 280.93L1221.26 280.93L1221.26 274.11L1226.08 274.11ZM1242.22 309.08L1237.4 309.08L1237.4 280.93L1242.22 280.93L1242.22 309.08ZM1237.01 273.46C1237.01 272.68 1237.24 272.02 1237.71 271.48C1238.2 270.94 1238.91 270.67 1239.84 270.67C1240.78 270.67 1241.49 270.94 1241.98 271.48C1242.46 272.02 1242.71 272.68 1242.71 273.46C1242.71 274.24 1242.46 274.89 1241.98 275.41C1241.49 275.93 1240.78 276.19 1239.84 276.19C1238.91 276.19 1238.2 275.93 1237.71 275.41C1237.24 274.89 1237.01 274.24 1237.01 273.46ZM1261.23 305.67C1262.95 305.67 1264.45 305.15 1265.74 304.11C1267.02 303.07 1267.74 301.77 1267.87 300.21L1272.42 300.21C1272.34 301.82 1271.79 303.35 1270.76 304.81C1269.74 306.27 1268.36 307.43 1266.65 308.3C1264.95 309.17 1263.14 309.6 1261.23 309.6C1257.41 309.6 1254.35 308.32 1252.08 305.77C1249.82 303.21 1248.7 299.7 1248.7 295.26L1248.7 294.46C1248.7 291.72 1249.2 289.28 1250.2 287.14C1251.21 285.01 1252.65 283.35 1254.52 282.17C1256.42 280.99 1258.64 280.4 1261.21 280.4C1264.37 280.4 1266.99 281.35 1269.07 283.24C1271.17 285.13 1272.29 287.59 1272.42 290.6L1267.87 290.6C1267.74 288.78 1267.04 287.29 1265.8 286.13C1264.56 284.95 1263.03 284.36 1261.21 284.36C1258.76 284.36 1256.86 285.24 1255.51 287.01C1254.18 288.77 1253.51 291.31 1253.51 294.64L1253.51 295.55C1253.51 298.79 1254.18 301.29 1255.51 303.04C1256.85 304.79 1258.76 305.67 1261.23 305.67ZM1307.45 301.61C1307.45 300.31 1306.96 299.3 1305.97 298.59C1305 297.86 1303.29 297.24 1300.84 296.72C1298.41 296.2 1296.48 295.57 1295.04 294.85C1293.61 294.12 1292.56 293.25 1291.87 292.24C1291.18 291.24 1290.85 290.04 1290.85 288.65C1290.85 286.35 1291.82 284.39 1293.76 282.8C1295.72 281.2 1298.22 280.4 1301.26 280.4C1304.45 280.4 1307.03 281.23 1309.02 282.88C1311.01 284.52 1312 286.63 1312 289.2L1307.16 289.2C1307.16 287.88 1306.6 286.75 1305.48 285.79C1304.37 284.84 1302.96 284.36 1301.26 284.36C1299.51 284.36 1298.13 284.74 1297.14 285.5C1296.16 286.27 1295.66 287.27 1295.66 288.5C1295.66 289.66 1296.12 290.54 1297.05 291.12C1297.96 291.72 1299.61 292.28 1302.01 292.82C1304.42 293.35 1306.37 294 1307.86 294.74C1309.36 295.49 1310.47 296.39 1311.17 297.45C1311.9 298.49 1312.27 299.76 1312.27 301.27C1312.27 303.79 1311.26 305.81 1309.25 307.34C1307.24 308.84 1304.62 309.6 1301.42 309.6C1299.16 309.6 1297.16 309.2 1295.43 308.4C1293.7 307.6 1292.34 306.49 1291.34 305.07C1290.37 303.63 1289.88 302.08 1289.88 300.41L1294.7 300.41C1294.79 302.03 1295.43 303.31 1296.63 304.26C1297.85 305.2 1299.43 305.67 1301.42 305.67C1303.24 305.67 1304.69 305.31 1305.79 304.58C1306.89 303.83 1307.45 302.84 1307.45 301.61ZM1330.22 309.6C1326.4 309.6 1323.3 308.35 1320.9 305.85C1318.51 303.34 1317.32 299.98 1317.32 295.78L1317.32 294.9C1317.32 292.11 1317.84 289.62 1318.9 287.43C1319.97 285.23 1321.46 283.51 1323.37 282.28C1325.3 281.03 1327.38 280.4 1329.62 280.4C1333.29 280.4 1336.13 281.61 1338.16 284.02C1340.19 286.43 1341.2 289.89 1341.2 294.38L1341.2 296.38L1322.13 296.38C1322.2 299.16 1323 301.4 1324.55 303.12C1326.11 304.82 1328.08 305.67 1330.48 305.67C1332.18 305.67 1333.62 305.32 1334.8 304.63C1335.98 303.94 1337.02 303.02 1337.9 301.87L1340.84 304.16C1338.48 307.79 1334.94 309.6 1330.22 309.6ZM1329.62 284.36C1327.68 284.36 1326.05 285.07 1324.73 286.49C1323.42 287.9 1322.59 289.88 1322.29 292.43L1336.39 292.43L1336.39 292.06C1336.25 289.62 1335.59 287.72 1334.41 286.39C1333.23 285.04 1331.63 284.36 1329.62 284.36ZM1360.41 285.24C1359.68 285.12 1358.89 285.06 1358.03 285.06C1354.88 285.06 1352.74 286.41 1351.61 289.1L1351.61 309.08L1346.8 309.08L1346.8 280.93L1351.48 280.93L1351.55 284.18C1353.14 281.66 1355.37 280.4 1358.27 280.4C1359.21 280.4 1359.92 280.53 1360.41 280.77L1360.41 285.24ZM1374.62 302.55L1381.59 280.93L1386.5 280.93L1376.41 309.08L1372.74 309.08L1362.54 280.93L1367.46 280.93L1374.62 302.55ZM1396.37 309.08L1391.56 309.08L1391.56 280.93L1396.37 280.93L1396.37 309.08ZM1391.16 273.46C1391.16 272.68 1391.4 272.02 1391.86 271.48C1392.35 270.94 1393.06 270.67 1394 270.67C1394.93 270.67 1395.65 270.94 1396.14 271.48C1396.62 272.02 1396.86 272.68 1396.86 273.46C1396.86 274.24 1396.62 274.89 1396.14 275.41C1395.65 275.93 1394.93 276.19 1394 276.19C1393.06 276.19 1392.35 275.93 1391.86 275.41C1391.4 274.89 1391.16 274.24 1391.16 273.46ZM1415.39 305.67C1417.1 305.67 1418.61 305.15 1419.9 304.11C1421.18 303.07 1421.89 301.77 1422.03 300.21L1426.58 300.21C1426.49 301.82 1425.94 303.35 1424.92 304.81C1423.89 306.27 1422.52 307.43 1420.8 308.3C1419.11 309.17 1417.3 309.6 1415.39 309.6C1411.55 309.6 1408.5 308.32 1406.23 305.77C1403.97 303.21 1402.84 299.7 1402.84 295.26L1402.84 294.46C1402.84 291.72 1403.35 289.28 1404.36 287.14C1405.36 285.01 1406.81 283.35 1408.67 282.17C1410.57 280.99 1412.8 280.4 1415.37 280.4C1418.52 280.4 1421.14 281.35 1423.22 283.24C1425.32 285.13 1426.44 287.59 1426.58 290.6L1422.03 290.6C1421.89 288.78 1421.2 287.29 1419.94 286.13C1418.71 284.95 1417.19 284.36 1415.37 284.36C1412.92 284.36 1411.02 285.24 1409.66 287.01C1408.33 288.77 1407.66 291.31 1407.66 294.64L1407.66 295.55C1407.66 298.79 1408.33 301.29 1409.66 303.04C1411 304.79 1412.9 305.67 1415.39 305.67ZM1443.68 309.6C1439.86 309.6 1436.76 308.35 1434.36 305.85C1431.96 303.34 1430.77 299.98 1430.77 295.78L1430.77 294.9C1430.77 292.11 1431.3 289.62 1432.36 287.43C1433.43 285.23 1434.92 283.51 1436.83 282.28C1438.76 281.03 1440.84 280.4 1443.08 280.4C1446.73 280.4 1449.58 281.61 1451.62 284.02C1453.64 286.43 1454.65 289.89 1454.65 294.38L1454.65 296.38L1435.59 296.38C1435.65 299.16 1436.46 301.4 1438.01 303.12C1439.56 304.82 1441.54 305.67 1443.93 305.67C1445.64 305.67 1447.08 305.32 1448.26 304.63C1449.43 303.94 1450.47 303.02 1451.35 301.87L1454.29 304.16C1451.94 307.79 1448.4 309.6 1443.68 309.6ZM1443.08 284.36C1441.14 284.36 1439.51 285.07 1438.19 286.49C1436.86 287.9 1436.05 289.88 1435.73 292.43L1449.85 292.43L1449.85 292.06C1449.71 289.62 1449.05 287.72 1447.86 286.39C1446.68 285.04 1445.09 284.36 1443.08 284.36Z" />
</svg>