<svg version="1.2" baseProfile="tiny-ps" xmlns="http://www.w3.org/2000/svg" viewBox="0 0 1750 405" width="164" height="38">
	<title>arc_server-watermark</title>
	<style>
		tspan { white-space:pre }
		.shp0 { fill: #ffffff } 
	</style>
	<path id="Layer" fill-rule="evenodd" class="shp0" d="M797.06 60.85C796.93 61.38 796.86 61.85 796.86 62.25C796.86 62.65 796.79 62.98 796.66 63.25C798.13 65.91 798.92 69.03 799.06 72.63C799.32 76.22 799.59 79.75 799.86 83.21C800.52 82.55 801.12 81.95 801.65 81.41C802.18 80.75 802.72 80.08 803.25 79.42C803.92 78.75 804.45 78.15 804.85 77.62C805.25 76.95 805.71 76.29 806.25 75.62C806.51 75.09 806.84 74.63 807.24 74.23C807.78 73.83 808.24 73.43 808.64 73.03C809.31 72.36 809.97 71.63 810.64 70.83C811.3 70.03 811.97 69.3 812.63 68.64C813.17 67.97 813.63 67.37 814.03 66.84C814.57 66.31 815.1 65.71 815.63 65.04C816.7 63.71 817.76 62.38 818.83 61.05C819.89 59.58 821.15 58.45 822.62 57.65C823.82 57.92 824.48 58.12 824.61 58.25C824.75 58.39 824.95 58.45 825.21 58.45C826.95 58.98 827.94 59.78 828.21 60.85C828.61 61.91 828.81 62.91 828.81 63.84C828.81 64.51 828.74 65.31 828.61 66.24C828.48 67.17 828.28 67.97 828.01 68.64C827.74 69.43 827.41 70.23 827.01 71.03C826.61 71.7 826.41 72.36 826.41 73.03C826.28 73.83 826.08 74.69 825.81 75.62C825.68 76.42 825.35 77.02 824.81 77.42C825.08 79.28 824.68 80.81 823.62 82.01C822.68 83.21 821.89 84.34 821.22 85.41C820.69 86.07 820.22 86.94 819.82 88C819.29 88.67 818.96 89.33 818.83 90C818.69 90.53 818.29 91.13 817.63 91.8C817.23 92.33 816.63 92.86 815.83 93.39C815.16 93.79 814.57 94.26 814.03 94.79C812.83 96.26 812.04 97.19 811.64 97.59C811.24 97.99 810.9 98.32 810.64 98.58C809.97 99.38 809.44 100.25 809.04 101.18C808.64 101.98 808.11 102.71 807.44 103.38C807.04 103.91 806.58 104.38 806.05 104.77C805.65 105.04 805.31 105.37 805.05 105.77C804.78 106.17 804.52 106.64 804.25 107.17C804.12 107.7 803.92 108.23 803.65 108.77C803.38 109.3 803.12 109.77 802.85 110.17C802.58 110.56 802.32 110.96 802.05 111.36C801.79 111.9 801.59 112.43 801.45 112.96C801.32 113.49 801.05 114.03 800.65 114.56C799.59 116.42 798.66 118.15 797.86 119.75C797.46 120.55 797.13 121.41 796.86 122.35C796.59 123.14 796.26 123.94 795.86 124.74C795.6 125.54 795.26 126.34 794.86 127.14C794.47 127.8 794.13 128.47 793.87 129.13C793.2 130.6 792.6 132.2 792.07 133.93C791.67 135.52 791.14 137.05 790.47 138.52C789.94 139.72 789.47 140.91 789.07 142.11C788.67 143.31 788.14 144.44 787.48 145.51C786.81 148.03 786.21 150.5 785.68 152.89C785.15 155.29 784.42 157.75 783.48 160.28C782.55 162.94 781.62 165.74 780.69 168.67C779.89 171.46 779.09 174.26 778.29 177.05C777.63 180.25 777.09 183.24 776.69 186.04C776.43 188.83 776.43 191.83 776.69 195.02C777.49 195.02 778.22 195.22 778.89 195.62C779.69 196.02 780.49 196.09 781.29 195.82C781.95 195.69 782.62 195.35 783.28 194.82C783.95 194.29 784.75 193.82 785.68 193.42C786.34 193.16 786.88 193.02 787.28 193.02C787.81 192.89 788.21 192.56 788.47 192.03C789.27 191.76 790 191.49 790.67 191.23C791.34 190.83 791.93 190.3 792.47 189.63C793.93 189.23 795.26 188.63 796.46 187.83C797.66 186.9 798.86 186.1 800.06 185.44C800.72 185.04 801.39 184.64 802.05 184.24C802.72 183.84 803.38 183.44 804.05 183.04C804.71 182.78 805.38 182.51 806.05 182.24C806.71 181.98 807.31 181.58 807.84 181.05C808.11 180.78 808.64 180.38 809.44 179.85C810.24 179.32 810.84 178.92 811.24 178.65C812.57 178.25 813.63 177.78 814.43 177.25C815.23 176.59 815.76 176.12 816.03 175.85C816.56 175.99 817.36 175.72 818.43 175.06C819.62 174.39 820.56 174.06 821.22 174.06C821.75 174.32 822.29 174.52 822.82 174.66C823.35 174.66 823.82 174.79 824.22 175.06C824.08 175.59 824.02 176.12 824.02 176.65C824.15 177.05 824.22 177.45 824.22 177.85C824.22 178.12 823.82 178.72 823.02 179.65C822.35 180.58 821.89 181.18 821.62 181.45C821.22 181.98 820.42 182.71 819.22 183.64C818.16 184.57 817.29 185.17 816.63 185.44C815.96 186.9 814.96 188.23 813.63 189.43C812.43 190.5 811.3 191.56 810.24 192.63C808.91 193.29 807.64 194.16 806.45 195.22C805.25 196.29 804.18 197.28 803.25 198.22C800.06 200.08 796.79 202.21 793.47 204.6C790.14 206.87 786.61 208.93 782.88 210.8C781.29 211.46 779.75 212.13 778.29 212.79C776.83 213.59 775.03 214.12 772.9 214.39C771.7 214.52 770.64 214.39 769.7 213.99C768.91 213.72 767.97 213.46 766.91 213.19C766.51 211.99 765.98 210.93 765.31 210C764.65 209.07 763.98 208.13 763.32 207.2C762.65 206.27 762.05 205.34 761.52 204.41C761.12 203.34 760.92 202.14 760.92 200.81C760.79 200.41 760.79 199.95 760.92 199.41C761.05 198.88 761.19 198.35 761.32 197.82C761.45 197.42 761.52 197.02 761.52 196.62C761.52 196.22 761.59 195.75 761.72 195.22C761.99 193.76 762.25 192.36 762.52 191.03C762.92 189.56 763.25 188.03 763.52 186.44C763.38 184.31 763.45 182.44 763.72 180.85C764.11 179.25 764.38 177.52 764.51 175.65C763.85 175.92 763.32 176.32 762.92 176.85C762.65 177.25 762.18 177.58 761.52 177.85C760.45 179.05 759.25 180.18 757.92 181.25C756.73 182.31 755.33 183.24 753.73 184.04C752 185.24 750.34 186.5 748.74 187.83C747.14 189.17 745.41 190.36 743.55 191.43C740.62 194.09 737.56 196.55 734.36 198.82C731.17 200.95 728.04 203.21 724.98 205.6C723.91 206 722.85 206.4 721.78 206.8C720.85 207.33 719.72 207.67 718.39 207.8C716.92 208.6 715.53 208.67 714.19 208C713 207.47 711.87 206.87 710.8 206.2C710 205.54 709.27 204.94 708.61 204.41C708.07 203.87 707.41 203.27 706.61 202.61C705.14 200.21 704.01 198.02 703.21 196.02C702.55 193.89 701.55 192.09 700.22 190.63C700.09 189.96 699.89 189.43 699.62 189.03C699.35 188.5 699.02 187.97 698.62 187.43C698.22 185.7 697.96 184.11 697.82 182.64C697.82 181.18 697.76 179.65 697.62 178.05C697.76 175.12 698.29 172.39 699.22 169.87C700.28 167.34 701.15 165.01 701.82 162.88C701.95 162.48 702.01 162.08 702.01 161.68C702.01 161.28 702.08 160.88 702.21 160.48C702.35 160.08 702.48 159.62 702.61 159.08C702.88 158.55 703.15 158.02 703.41 157.48C703.68 156.42 704.01 155.42 704.41 154.49C704.81 153.56 705.14 152.56 705.41 151.5C705.68 150.83 705.88 150.3 706.01 149.9C706.14 149.5 706.34 149.1 706.61 148.7C707.27 147.5 707.74 146.3 708.01 145.11C708.41 143.91 708.8 142.71 709.2 141.51C710.27 138.05 711.4 134.66 712.6 131.33C713.93 127.87 715.53 124.61 717.39 121.55C717.66 121.15 717.92 120.81 718.19 120.55C718.59 120.15 718.92 119.75 719.19 119.35L723.38 112.76C724.84 110.76 726.38 108.9 727.97 107.17C729.7 105.31 731.3 103.44 732.77 101.58C734.63 99.85 736.29 97.99 737.76 95.99C739.22 93.99 740.89 92.2 742.75 90.6C743.02 89.8 743.48 89.2 744.15 88.8C744.81 88.27 745.28 87.6 745.54 86.8C746.74 86.01 747.74 85.01 748.54 83.81C749.47 82.61 750.6 81.61 751.93 80.81C754.46 78.02 757.06 75.36 759.72 72.83C762.38 70.17 765.05 67.5 767.71 64.84C769.97 64.58 771.5 63.71 772.3 62.25C774.16 61.05 776.23 59.78 778.49 58.45C780.89 57.12 783.22 56.12 785.48 55.46C786.15 55.19 787.01 55.26 788.07 55.66C789.27 56.06 790.27 56.39 791.07 56.66C793.07 57.06 794.4 57.72 795.06 58.65C795.73 59.45 796.4 60.18 797.06 60.85ZM714.99 172.46C715.66 174.99 716.19 177.25 716.59 179.25C717.12 181.25 717.79 183.37 718.59 185.64C719.12 185.9 719.45 186.3 719.59 186.84C719.72 187.23 720.12 187.57 720.79 187.83C721.32 188.1 722.12 188.3 723.18 188.43C724.25 188.43 724.98 188.37 725.38 188.23C726.04 187.97 726.71 187.63 727.37 187.23C728.44 186.7 729.44 186.17 730.37 185.64C731.3 184.97 732.3 184.37 733.36 183.84C734.03 183.57 734.7 183.31 735.36 183.04C736.03 182.78 736.69 182.51 737.36 182.24C738.69 181.98 739.82 181.58 740.75 181.05C741.82 180.51 742.88 179.91 743.95 179.25C746.61 177.78 749.21 176.05 751.73 174.06C754.4 171.93 756.99 170.13 759.52 168.67C762.98 164.41 766.24 159.68 769.3 154.49C772.5 149.3 774.63 143.24 775.7 136.32C775.83 134.72 775.96 133.46 776.09 132.53C776.36 131.46 776.63 130.4 776.89 129.33C777.16 128.53 777.36 127.67 777.49 126.74C777.76 125.67 778.02 124.81 778.29 124.14C779.36 120.68 780.15 117.42 780.69 114.36C781.22 111.3 781.95 108.3 782.88 105.37C783.28 104.31 783.62 103.24 783.88 102.18C784.28 100.98 784.61 99.92 784.88 98.98C785.68 98.05 786.01 97.39 785.88 96.99C785.88 96.59 785.95 96.26 786.08 95.99C786.34 95.32 786.61 94.79 786.88 94.39C787.14 93.86 787.41 93.26 787.68 92.6C788.21 91.26 788.74 89.67 789.27 87.8C789.81 85.81 790.07 84.08 790.07 82.61C789.67 80.35 789.34 78.82 789.07 78.02C788.94 77.22 788.67 76.29 788.27 75.22C787.88 74.16 787.28 72.83 786.48 71.23C785.68 69.5 784.75 68.5 783.68 68.24C782.22 67.97 780.82 68.57 779.49 70.03C778.16 71.36 777.16 72.36 776.49 73.03C776.23 73.29 775.83 73.56 775.3 73.83C774.9 73.96 774.56 74.23 774.3 74.63C774.03 74.89 773.7 75.22 773.3 75.62C773.03 76.02 772.7 76.42 772.3 76.82C772.03 77.09 771.7 77.42 771.3 77.82C771.04 78.22 770.77 78.62 770.5 79.02C769.97 79.68 769.37 80.42 768.71 81.21C768.17 81.88 767.57 82.61 766.91 83.41C766.24 84.08 765.71 84.81 765.31 85.61C764.91 86.41 764.38 87.14 763.72 87.8C762.92 88.73 762.12 89.6 761.32 90.4C760.52 91.2 759.92 92.13 759.52 93.19C758.06 94.26 756.66 95.59 755.33 97.19C754.66 97.99 754.06 98.78 753.53 99.58C753 100.38 752.53 101.25 752.13 102.18C751.07 102.71 750.2 103.51 749.54 104.57C749.01 105.64 748.34 106.5 747.54 107.17C746.34 108.23 745.61 109.03 745.34 109.57C745.21 109.97 745.01 110.3 744.75 110.56C742.75 112.96 740.89 115.49 739.16 118.15C737.56 120.81 736.03 123.54 734.56 126.34C734.7 126.74 734.63 127.14 734.36 127.54C734.1 127.8 733.96 128.27 733.96 128.93C733.16 130 732.43 131.26 731.77 132.73C731.23 133.79 730.77 134.86 730.37 135.92C730.1 136.85 729.77 137.85 729.37 138.92C729.11 139.45 728.84 139.92 728.57 140.32C728.44 140.71 728.24 141.11 727.97 141.51C727.71 142.31 727.44 143.11 727.17 143.91C726.91 144.57 726.64 145.24 726.38 145.9C726.11 146.57 725.78 147.24 725.38 147.9C724.98 148.57 724.51 149.23 723.98 149.9C723.71 150.43 723.51 151.03 723.38 151.7C723.38 152.23 723.25 152.76 722.98 153.29C722.71 153.96 722.38 154.56 721.98 155.09C721.72 155.62 721.45 156.22 721.18 156.89C720.92 157.55 720.65 158.28 720.39 159.08C720.25 159.75 720.05 160.41 719.79 161.08C719.52 161.48 719.25 161.81 718.99 162.08C718.86 162.34 718.66 162.61 718.39 162.88C718.12 163.28 717.92 163.74 717.79 164.27C717.66 164.67 717.46 165.07 717.19 165.47C716.53 166.14 715.86 166.74 715.19 167.27C714.53 167.8 714 168.53 713.6 169.47C713.86 169.73 714.06 170.2 714.19 170.86C714.46 171.53 714.73 172.06 714.99 172.46ZM871.94 150.5C872.74 152.09 873.6 153.63 874.53 155.09C875.6 156.42 876.33 158.08 876.73 160.08C877.26 160.75 877.53 161.48 877.53 162.28C877.53 163.08 877.66 163.87 877.93 164.67C878.86 168 879.99 171.26 881.32 174.46C882.79 177.52 884.19 180.45 885.52 183.24C885.78 185.5 886.45 187.37 887.51 188.83C888.71 190.16 889.44 191.96 889.71 194.22C890.77 196.75 891.97 199.15 893.3 201.41C894.64 203.67 895.97 205.94 897.3 208.2C897.96 208.6 898.63 209 899.29 209.4C899.96 209.8 900.69 210.26 901.49 210.8C902.02 211.06 902.49 211.33 902.89 211.59C903.29 211.99 903.82 212.33 904.49 212.59C905.15 212.86 905.75 213.06 906.28 213.19C906.95 213.32 907.61 213.52 908.28 213.79C908.81 214.06 909.21 214.39 909.48 214.79C909.88 215.19 910.28 215.52 910.67 215.79C911.21 215.92 911.74 216.05 912.27 216.19C912.8 216.45 913.34 216.52 913.87 216.39C916.13 217.45 918.06 218.18 919.66 218.58C921.26 218.98 922.79 219.45 924.25 219.98C924.92 220.25 925.72 220.51 926.65 220.78C927.71 221.04 928.58 221.18 929.24 221.18C930.31 221.71 930.98 222.24 931.24 222.77C931.64 223.44 932.04 224.11 932.44 224.77C932.97 225.57 933.64 226.24 934.44 226.77C935.24 227.43 936.3 227.83 937.63 227.97C938.03 228.23 938.3 228.57 938.43 228.96C938.7 229.5 939.1 229.96 939.63 230.36C940.96 231.43 941.49 232.09 941.23 232.36C941.09 232.62 940.96 232.96 940.83 233.36C939.89 233.49 938.96 233.62 938.03 233.76C937.1 233.89 936.43 234.29 936.03 234.95C935.24 234.95 934.3 234.95 933.24 234.95C932.31 235.09 931.51 234.89 930.84 234.35C928.58 234.49 926.52 234.35 924.65 233.96C922.79 233.56 920.53 233.22 917.86 232.96C916.4 232.96 915 233.02 913.67 233.16C912.34 233.29 911.14 233.16 910.08 232.76C907.15 231.56 904.82 230.5 903.09 229.56C901.36 228.63 899.56 227.63 897.7 226.57C896.23 225.9 894.9 225.1 893.7 224.17C892.51 223.24 891.17 222.44 889.71 221.78C887.85 219.65 886.05 217.58 884.32 215.59C882.59 213.59 880.99 211.39 879.53 209C878.99 208.07 878.53 207.33 878.13 206.8C877.86 206.27 877.6 205.74 877.33 205.2C876.8 204.01 876.33 203.27 875.93 203.01C875.53 202.74 875.2 202.34 874.93 201.81C874.53 201.14 874.2 200.35 873.94 199.41C873.67 198.48 873.4 197.55 873.14 196.62C872.87 195.42 872.6 194.29 872.34 193.22C872.07 192.03 871.74 190.9 871.34 189.83C871.07 189.03 870.67 188.37 870.14 187.83C869.74 187.17 869.48 186.37 869.34 185.44C868.81 183.97 868.28 182.51 867.74 181.05C867.35 179.45 867.01 177.78 866.75 176.05C866.35 173.52 865.81 171.6 865.15 170.26C864.62 168.8 864.22 167.4 863.95 166.07C863.15 164.07 862.02 161.75 860.56 159.08C859.09 156.42 857.83 154.09 856.76 152.09C856.5 151.43 856.3 150.9 856.16 150.5C856.16 150.1 855.96 149.77 855.56 149.5C854.9 150.17 854.3 151.3 853.77 152.89C853.24 154.49 852.7 155.69 852.17 156.49C850.71 158.88 849.78 160.81 849.38 162.28C848.98 163.61 848.38 164.94 847.58 166.27C847.18 168.93 846.45 171.26 845.38 173.26C845.11 175.12 844.45 176.52 843.38 177.45C842.72 179.85 841.92 182.24 840.99 184.64C840.06 187.04 839.19 189.37 838.39 191.63C838.13 192.83 837.79 193.96 837.39 195.02C837 196.09 836.86 197.15 837 198.22C837 199.28 836.8 200.21 836.4 201.01C836.13 201.81 835.86 202.74 835.6 203.81C834.93 205.67 833.47 206.8 831.2 207.2C829.08 207.6 827.01 208.07 825.01 208.6C824.22 208.87 823.28 209.13 822.22 209.4C820.62 209.8 818.89 210.46 817.03 211.39C815.3 212.46 813.5 212.86 811.64 212.59C810.44 212.33 810.04 211.59 810.44 210.4C810.7 209.33 811.17 208.53 811.84 208C812.5 206.54 813.23 205.07 814.03 203.61C814.7 202.14 815.43 200.75 816.23 199.41C816.5 198.22 816.96 197.28 817.63 196.62C818.43 196.09 818.96 195.35 819.22 194.42C819.49 194.16 819.69 193.82 819.82 193.42C820.09 193.02 820.29 192.69 820.42 192.43C820.69 191.76 820.82 191.1 820.82 190.43C820.95 189.63 821.15 188.9 821.42 188.23C821.82 187.17 822.15 186.1 822.42 185.04C822.82 183.84 823.35 182.58 824.02 181.25C824.28 180.45 824.55 179.65 824.81 178.85C825.21 178.05 825.61 177.12 826.01 176.05C826.28 175.25 826.68 174.52 827.21 173.86C827.74 173.06 828.21 172.26 828.61 171.46C829.41 169.6 830.01 168.13 830.41 167.07C830.81 165.87 831.34 164.74 832 163.67C833.07 160.88 834.27 158.35 835.6 156.09C837.06 153.69 838.46 151.16 839.79 148.5C840.06 148.1 840.32 147.77 840.59 147.5C840.86 147.1 841.06 146.64 841.19 146.1C841.72 145.84 842.12 145.37 842.39 144.71C842.65 144.04 843.05 143.58 843.58 143.31C844.12 142.51 844.52 141.71 844.78 140.91C845.05 140.12 845.45 139.45 845.98 138.92C847.44 136.25 848.71 133.59 849.78 130.93C850.04 130.27 850.17 129.67 850.17 129.13C850.31 128.6 850.51 128.07 850.77 127.54C851.57 126.6 852.04 125.87 852.17 125.34C852.44 124.81 852.7 124.34 852.97 123.94C853.5 123.01 854.03 122.15 854.57 121.35C855.23 120.42 855.83 119.42 856.36 118.35C857.03 116.35 857.89 114.56 858.96 112.96C860.16 111.23 861.09 109.43 861.76 107.57C862.55 106.37 863.02 105.71 863.15 105.57C863.29 105.44 863.35 105.24 863.35 104.97C865.08 101.65 866.61 98.58 867.94 95.79C869.41 92.86 870.87 89.87 872.34 86.8C870.87 87.07 869.54 87.74 868.34 88.8C867.28 89.87 866.15 90.6 864.95 91C864.68 91.4 864.42 91.73 864.15 92C863.88 92.26 863.62 92.53 863.35 92.8C860.03 94.39 856.96 96.19 854.17 98.18C851.37 100.18 848.91 102.65 846.78 105.57C846.11 105.84 845.38 106.24 844.58 106.77C843.92 107.17 843.25 107.57 842.59 107.97C841.65 108.37 840.46 108.63 838.99 108.77C837.53 108.9 836.4 108.43 835.6 107.37C835.06 103.51 835.4 100.65 836.6 98.78C837.79 96.92 838.93 95.06 839.99 93.19C841.72 91.6 843.58 90.2 845.58 89C847.58 87.67 849.51 86.41 851.37 85.21C853.1 84.01 854.17 83.21 854.57 82.81C855.1 82.41 855.63 82.08 856.16 81.81C859.36 79.68 862.69 77.35 866.15 74.83C868.28 72.96 870.61 71.56 873.14 70.63C875.67 69.83 877.79 69.23 879.53 68.83C881.26 68.3 882.85 67.7 884.32 67.04C888.58 66.24 892.51 65.24 896.1 64.04C899.69 62.71 903.35 61.38 907.08 60.05C908.94 59.78 910.67 59.65 912.27 59.65C914 59.52 915.87 59.38 917.86 59.25C918.4 59.65 919.13 59.85 920.06 59.85C921.12 59.72 922.06 59.72 922.85 59.85C923.92 60.12 924.92 60.38 925.85 60.65C926.92 60.78 927.98 60.98 929.05 61.25C929.84 62.05 930.98 62.65 932.44 63.05C934.04 63.31 935.5 63.71 936.83 64.24C937.9 64.78 938.9 65.31 939.83 65.84C940.76 66.24 941.76 66.71 942.82 67.24C943.75 68.3 944.15 69.23 944.02 70.03C944.02 70.83 944.09 71.96 944.22 73.43C944.35 74.09 944.42 74.76 944.42 75.42C944.55 75.96 944.69 76.56 944.82 77.22C944.82 77.75 944.89 78.22 945.02 78.62C945.28 79.02 945.42 79.42 945.42 79.82C945.55 82.08 945.68 84.34 945.82 86.6C946.08 88.73 946.08 90.93 945.82 93.19C945.55 94.79 945.09 96.19 944.42 97.39C943.75 98.45 943.09 99.72 942.42 101.18C941.62 102.51 940.76 103.84 939.83 105.17C938.9 106.5 937.9 107.9 936.83 109.37C936.43 109.63 936.03 109.9 935.63 110.17C935.37 110.3 935.17 110.63 935.04 111.16C933.3 112.5 931.71 113.56 930.24 114.36C928.78 115.16 927.51 115.96 926.45 116.75C925.92 117.02 925.38 117.29 924.85 117.55C924.32 117.82 923.79 118.08 923.25 118.35C922.72 118.88 922.06 119.42 921.26 119.95C920.46 120.48 919.73 121.01 919.06 121.55C918 122.61 917.07 123.34 916.27 123.74C915.47 124.14 914.94 124.81 914.67 125.74C911.61 127.47 908.88 129.47 906.48 131.73C904.09 133.86 901.49 135.85 898.69 137.72C897.63 138.65 896.56 139.58 895.5 140.51C894.57 141.45 893.44 142.24 892.11 142.91C890.24 143.71 888.84 144.44 887.91 145.11C887.11 145.77 885.98 146.24 884.52 146.5C882.79 147.57 880.79 148.43 878.53 149.1C876.4 149.77 874.2 150.23 871.94 150.5ZM916.47 72.63C915.93 72.76 915.27 72.83 914.47 72.83C913.67 72.83 912.8 72.96 911.87 73.23C910.54 73.49 909.08 73.96 907.48 74.63C905.88 75.29 904.29 75.76 902.69 76.02C900.56 76.56 898.83 77.02 897.5 77.42C896.3 77.82 895.43 78.15 894.9 78.42C894.64 78.68 894.44 79.15 894.3 79.82C894.3 80.48 894.17 81.01 893.9 81.41C893.37 82.75 892.71 84.01 891.91 85.21C891.11 86.27 890.51 87.34 890.11 88.4C888.64 90.13 887.58 91.86 886.91 93.59C886.25 95.19 885.58 96.72 884.92 98.18C883.19 100.45 881.86 102.45 880.92 104.18C880.26 104.97 879.86 105.44 879.73 105.57C879.59 105.57 879.53 105.71 879.53 105.97C877.93 107.57 876.6 109.37 875.53 111.36C874.6 113.36 873.4 115.09 871.94 116.55C870.87 118.15 870.07 119.55 869.54 120.75C869.14 121.95 868.41 123.01 867.35 123.94C866.81 125.01 866.28 126.07 865.75 127.14C865.35 128.07 864.88 129.07 864.35 130.13C863.15 132.79 861.69 135.39 859.96 137.92C859.96 138.58 859.76 139.12 859.36 139.52C859.09 139.92 858.83 140.38 858.56 140.91C859.09 141.31 859.63 141.38 860.16 141.11C860.69 140.85 861.16 140.58 861.56 140.32C864.62 138.58 867.94 137.12 871.54 135.92C875.13 134.59 878.39 132.93 881.32 130.93C883.85 129.47 886.18 128.13 888.31 126.94C890.44 125.61 892.51 124.21 894.5 122.74C896.5 121.68 898.03 120.88 899.09 120.35C900.16 119.68 901.42 119.08 902.89 118.55C903.95 117.62 905.08 116.82 906.28 116.15C907.48 115.49 908.41 114.69 909.08 113.76C910.54 112.56 911.87 111.23 913.07 109.77C914.27 108.17 915.53 106.7 916.87 105.37C917.53 105.24 917.93 105.04 918.06 104.77C918.2 104.38 918.6 104.18 919.26 104.18C920.33 102.71 921.59 101.45 923.05 100.38C924.65 99.18 925.85 97.85 926.65 96.39C927.32 95.32 927.78 94.26 928.05 93.19C928.45 92.13 928.98 90.93 929.64 89.6C929.38 88.53 929.58 87.47 930.24 86.41C931.04 85.21 931.31 84.14 931.04 83.21C930.78 82.28 930.24 81.48 929.44 80.81C928.65 80.02 928.05 79.22 927.65 78.42C927.38 77.35 927.05 76.56 926.65 76.02C926.38 75.49 926.12 74.83 925.85 74.03C925.32 73.76 924.85 73.49 924.45 73.23C924.05 72.96 923.39 72.9 922.46 73.03C921.79 72.76 920.86 72.7 919.66 72.83C918.6 72.83 917.53 72.76 916.47 72.63ZM1045.26 59.85C1045.39 60.52 1045.66 61.11 1046.06 61.65C1046.45 62.05 1046.85 62.38 1047.25 62.65C1047.39 63.71 1047.45 64.84 1047.45 66.04C1047.59 67.1 1047.79 68.17 1048.05 69.23C1048.05 69.77 1048.05 70.37 1048.05 71.03C1048.05 71.56 1048.25 72.03 1048.65 72.43C1048.25 77.09 1047.59 80.95 1046.65 84.01C1045.86 86.94 1045.12 90.2 1044.46 93.79C1044.32 94.46 1044.12 95.12 1043.86 95.79C1043.72 96.32 1043.66 96.92 1043.66 97.59C1043.52 98.12 1043.46 98.58 1043.46 98.98C1043.59 99.38 1043.59 99.85 1043.46 100.38C1043.19 101.18 1042.79 102.05 1042.26 102.98C1041.73 103.91 1041.2 104.91 1040.66 105.97C1038.53 109.83 1036.14 113.49 1033.47 116.95C1030.95 120.42 1027.75 123.08 1023.89 124.94C1022.43 125.61 1021.16 126.27 1020.1 126.94C1019.16 127.47 1017.97 127.87 1016.5 128.13C1015.57 128.67 1014.44 129.27 1013.11 129.93C1011.91 130.46 1010.71 130.86 1009.51 131.13C1008.98 131.4 1008.45 131.53 1007.92 131.53C1007.38 131.53 1006.85 131.6 1006.32 131.73C1005.65 132 1005.05 132.26 1004.52 132.53C1004.12 132.66 1003.72 132.79 1003.32 132.93C1002.26 133.19 1001.46 133.33 1000.93 133.33C1000 133.19 999.33 132.66 998.93 131.73C998.53 130.66 998.33 129.6 998.33 128.53C997.8 128 997.2 127.54 996.53 127.14C995.87 126.74 995.4 126 995.14 124.94C994.74 123.48 994.47 122.68 994.34 122.54C994.21 122.41 994.07 122.21 993.94 121.95C993.27 120.08 993.01 118.02 993.14 115.76C993.41 113.36 993.94 111.43 994.74 109.97C995 109.3 995.4 108.83 995.94 108.57C996.47 108.17 996.8 107.64 996.93 106.97C998 106.3 998.93 105.64 999.73 104.97C1000.53 104.18 1001.46 103.44 1002.53 102.78C1003.86 100.52 1005.39 98.78 1007.12 97.59C1008.85 96.39 1010.51 95.12 1012.11 93.79C1012.64 93.39 1013.04 92.93 1013.31 92.4C1013.71 91.86 1014.24 91.33 1014.91 90.8C1015.3 90.4 1015.77 90.07 1016.3 89.8C1016.84 89.4 1017.3 89.07 1017.7 88.8C1017.97 88.53 1018.23 88.27 1018.5 88C1018.77 87.74 1019.03 87.47 1019.3 87.2C1019.83 86.94 1020.36 86.8 1020.89 86.8C1021.43 86.8 1021.96 86.67 1022.49 86.41C1024.36 86.14 1025.29 86.27 1025.29 86.8C1025.29 87.2 1025.29 87.67 1025.29 88.2C1024.62 88.6 1023.82 89 1022.89 89.4C1021.96 89.67 1021.03 89.93 1020.1 90.2C1019.83 91.26 1019.23 92.06 1018.3 92.6C1017.5 93.13 1016.77 93.86 1016.1 94.79C1015.57 95.46 1015.11 96.12 1014.71 96.79C1014.44 97.32 1013.84 97.72 1012.91 97.99C1012.24 99.58 1011.38 100.98 1010.31 102.18C1009.38 103.24 1008.45 104.38 1007.52 105.57C1007.52 107.04 1007.18 108.3 1006.52 109.37C1005.99 110.3 1005.39 111.3 1004.72 112.36C1004.46 112.89 1004.19 113.43 1003.92 113.96C1003.66 114.49 1003.52 114.89 1003.52 115.16C1003.66 115.42 1003.79 115.82 1003.92 116.35C1004.19 116.75 1004.46 117.15 1004.72 117.55C1004.99 117.95 1005.25 118.28 1005.52 118.55C1005.92 118.82 1006.19 119.15 1006.32 119.55C1009.51 117.55 1012.64 115.56 1015.7 113.56C1018.9 111.56 1021.63 109.17 1023.89 106.37C1024.56 105.17 1025.16 104.04 1025.69 102.98C1026.35 101.78 1027.02 100.52 1027.68 99.18C1027.95 97.85 1028.35 96.59 1028.88 95.39C1029.41 94.19 1030.01 92.99 1030.68 91.8C1031.34 90.47 1031.94 89.13 1032.48 87.8C1033.01 86.47 1033.34 85.07 1033.47 83.61C1033.61 82.55 1033.61 81.41 1033.47 80.22C1033.47 78.88 1033.67 77.89 1034.07 77.22C1033.81 76.56 1033.81 75.69 1034.07 74.63C1034.34 73.43 1034.41 72.3 1034.27 71.23C1033.34 69.23 1032.41 68.1 1031.48 67.84C1030.55 67.44 1029.55 67.1 1028.48 66.84C1027.42 67.5 1026.29 68.24 1025.09 69.03C1023.89 69.83 1022.76 70.7 1021.69 71.63C1020.89 72.43 1020.03 73.23 1019.1 74.03C1018.3 74.83 1017.63 75.76 1017.1 76.82C1015.37 78.68 1013.97 80.35 1012.91 81.81C1011.84 83.14 1010.78 84.54 1009.71 86.01C1007.45 87.47 1005.39 89.07 1003.52 90.8C1001.66 92.53 999.6 94.13 997.33 95.59C995.6 96.92 993.87 98.32 992.14 99.78C990.55 101.11 989.01 102.51 987.55 103.98C986.22 105.44 984.82 106.84 983.36 108.17C981.89 109.37 980.56 110.7 979.36 112.16C978.3 113.63 977.17 115.16 975.97 116.75C974.77 118.22 973.57 119.68 972.37 121.15C971.71 121.81 971.11 122.54 970.58 123.34C970.05 124.14 969.45 124.94 968.78 125.74C968.11 126.4 967.45 127.14 966.78 127.93C966.25 128.73 965.72 129.47 965.19 130.13C964.79 130.8 964.45 131.53 964.19 132.33C963.92 132.99 963.59 133.66 963.19 134.32C961.86 135.92 960.53 137.58 959.2 139.32C958 140.91 956.93 142.78 956 144.91C954.4 147.04 953.14 149.17 952.21 151.3C951.41 153.29 950.48 155.29 949.41 157.29C949.15 159.15 948.61 160.81 947.82 162.28C947.15 163.74 946.68 165.4 946.42 167.27C946.28 168.2 946.02 169.13 945.62 170.06C945.35 170.86 945.15 171.79 945.02 172.86C944.75 173.79 944.62 174.79 944.62 175.85C944.62 176.79 944.49 177.65 944.22 178.45C943.42 180.18 943.02 181.45 943.02 182.24C943.02 182.91 942.69 183.44 942.02 183.84C942.42 184.91 942.76 185.84 943.02 186.64C943.42 187.43 943.95 188.23 944.62 189.03C944.89 189.56 945.28 190.03 945.82 190.43C946.35 190.83 946.75 191.29 947.02 191.83C947.55 193.16 947.95 193.96 948.21 194.22C948.61 194.49 949.08 194.82 949.61 195.22C950.01 195.49 950.48 195.82 951.01 196.22C951.67 196.62 952.27 196.89 952.81 197.02C953.47 197.28 954.14 197.42 954.8 197.42C955.6 197.28 956.33 197.28 957 197.42C957.67 197.42 958.26 197.48 958.8 197.62C959.33 197.62 959.93 197.55 960.59 197.42C961.66 197.15 962.92 196.89 964.39 196.62C965.85 196.22 967.18 195.89 968.38 195.62C970.25 195.09 972.04 194.56 973.77 194.02C975.64 193.49 977.37 192.89 978.96 192.23C980.7 191.56 982.09 190.63 983.16 189.43C984.22 188.23 985.42 187.3 986.75 186.64C988.88 185.04 990.35 183.77 991.14 182.84C992.08 181.78 993.07 180.91 994.14 180.25C995.07 179.05 995.6 178.45 995.74 178.45C995.87 178.45 996 178.38 996.14 178.25C997.07 177.19 997.93 176.25 998.73 175.45C999.66 174.52 1000.6 173.52 1001.53 172.46C1002.99 171.79 1004.19 170.93 1005.12 169.87C1006.19 169.47 1007.05 168.93 1007.72 168.27C1008.52 167.6 1009.31 166.94 1010.11 166.27C1011.18 165.47 1011.91 164.87 1012.31 164.47C1012.84 163.94 1013.31 163.41 1013.71 162.88C1014.24 162.34 1014.77 161.75 1015.3 161.08C1015.57 160.81 1015.97 160.55 1016.5 160.28C1017.04 159.88 1017.57 159.35 1018.1 158.68C1018.37 158.28 1018.63 157.75 1018.9 157.09C1019.16 156.42 1019.63 156.09 1020.3 156.09C1021.09 155.95 1021.96 156.35 1022.89 157.29C1023.82 158.08 1024.29 158.95 1024.29 159.88C1023.09 161.75 1022.43 162.88 1022.29 163.28C1021.36 164.61 1020.36 165.87 1019.3 167.07C1018.23 168.27 1017.17 169.6 1016.1 171.06C1015.04 172.26 1013.97 173.52 1012.91 174.86C1011.84 176.05 1010.84 177.38 1009.91 178.85C1008.98 180.31 1007.92 181.64 1006.72 182.84C1005.65 183.91 1004.52 185.1 1003.32 186.44C1001.59 188.3 999.86 190.03 998.13 191.63C996.53 193.22 995 195.15 993.54 197.42C992.87 198.08 992.21 198.75 991.54 199.41C990.88 199.95 990.21 200.55 989.55 201.21C988.88 201.61 988.21 202.08 987.55 202.61C987.02 203.01 986.42 203.41 985.75 203.81C983.09 204.74 980.36 205.94 977.57 207.4C974.9 209 971.91 210.26 968.58 211.19C967.12 211.59 965.58 212.06 963.99 212.59C962.52 213.12 960.86 213.32 959 213.19C958.73 213.06 958.4 212.99 958 212.99C957.6 212.99 957.2 212.92 956.8 212.79C956 212.66 955.14 212.39 954.2 211.99C953.41 211.59 952.47 211.33 951.41 211.19C950.74 211.19 950.14 211.26 949.61 211.39C949.08 211.66 948.48 211.79 947.82 211.79C944.89 209.93 942.49 208.33 940.63 207C938.9 205.8 937.3 204.34 935.83 202.61C934.77 200.88 934.04 199.81 933.64 199.41C933.24 198.88 932.77 198.28 932.24 197.62C931.71 196.82 931.17 196.02 930.64 195.22C930.11 194.29 929.58 193.29 929.05 192.23C929.05 191.69 928.85 191.23 928.45 190.83C928.18 190.43 927.91 189.96 927.65 189.43C926.98 187.17 926.65 184.84 926.65 182.44C926.65 179.91 926.72 177.45 926.85 175.06C926.98 174.39 926.98 173.79 926.85 173.26C926.72 172.59 926.65 171.93 926.65 171.26C926.65 170.2 926.85 169.07 927.25 167.87C927.65 166.67 927.98 165.54 928.25 164.47C929.05 161.55 929.91 158.82 930.84 156.29C931.91 153.63 933.1 151.16 934.44 148.9C935.63 147.3 936.5 145.77 937.03 144.31C937.7 142.84 938.36 141.31 939.03 139.72C939.69 138.25 940.36 136.85 941.03 135.52C941.69 134.06 942.42 132.59 943.22 131.13C943.89 129.8 944.55 128.47 945.22 127.14C946.02 125.81 947.02 124.61 948.21 123.54C948.61 122.08 949.21 120.88 950.01 119.95C950.81 118.88 951.61 117.82 952.41 116.75C953.74 114.89 955.07 113.16 956.4 111.56C957.87 109.97 959.13 108.17 960.19 106.17C961.26 105.37 962.19 104.51 962.99 103.58C963.92 102.65 964.79 101.71 965.58 100.78C966.52 99.72 967.38 98.78 968.18 97.99C969.11 97.05 970.05 96.06 970.98 94.99C971.51 94.59 971.98 94.19 972.37 93.79C972.91 93.26 973.37 92.8 973.77 92.4C974.7 91.33 975.64 90.4 976.57 89.6C977.5 88.8 978.5 88 979.56 87.2C980.76 86.67 981.89 85.94 982.96 85.01C984.16 83.81 985.29 82.61 986.35 81.41C987.55 80.08 988.75 78.88 989.95 77.82C991.81 75.96 993.74 74.16 995.74 72.43C997.73 70.57 999.86 68.9 1002.13 67.44C1003.46 65.97 1005.05 64.78 1006.92 63.84C1008.78 62.78 1010.64 61.78 1012.51 60.85C1013.57 60.45 1014.44 60.12 1015.11 59.85C1015.9 59.45 1016.77 58.98 1017.7 58.45C1019.16 57.52 1020.23 57.06 1020.89 57.06C1021.56 56.92 1022.09 56.59 1022.49 56.06C1024.09 56.06 1025.49 55.86 1026.69 55.46C1027.88 54.93 1029.21 54.86 1030.68 55.26C1031.21 55.39 1031.68 55.59 1032.08 55.86C1032.48 55.99 1032.88 56.12 1033.27 56.26C1035.81 56.52 1037.6 56.92 1038.67 57.45C1039.73 57.99 1040.73 58.52 1041.66 59.05C1042.73 59.45 1043.92 59.72 1045.26 59.85Z" />
	<path id="Layer" fill-rule="evenodd" class="shp0" d="M70.24 282.38L52.27 282.38L52.27 332.22L44.93 332.22L44.93 282.38L27 282.38L27 276.31L70.24 276.31L70.24 282.38ZM84.52 295.71C87.67 291.84 91.77 289.91 96.81 289.91C105.59 289.91 110.02 294.86 110.1 304.77L110.1 332.22L102.99 332.22L102.99 304.73C102.97 301.73 102.28 299.52 100.92 298.09C99.59 296.65 97.5 295.94 94.66 295.94C92.36 295.94 90.33 296.55 88.59 297.78C86.85 299.01 85.49 300.62 84.52 302.62L84.52 332.22L77.42 332.22L77.42 273.24L84.52 273.24L84.52 295.71ZM137.97 332.99C132.34 332.99 127.76 331.14 124.23 327.46C120.69 323.75 118.93 318.79 118.93 312.6L118.93 311.29C118.93 307.17 119.71 303.5 121.27 300.28C122.86 297.02 125.06 294.49 127.87 292.67C130.72 290.83 133.79 289.91 137.09 289.91C142.49 289.91 146.69 291.69 149.68 295.24C152.68 298.8 154.18 303.9 154.18 310.53L154.18 313.48L126.03 313.48C126.13 317.58 127.32 320.89 129.6 323.43C131.91 325.94 134.82 327.19 138.36 327.19C140.87 327.19 142.99 326.68 144.73 325.65C146.47 324.63 148 323.27 149.3 321.58L153.64 324.96C150.16 330.31 144.94 332.99 137.97 332.99ZM137.09 295.74C134.22 295.74 131.82 296.79 129.87 298.89C127.93 300.97 126.72 303.88 126.26 307.65L147.07 307.65L147.07 307.11C146.87 303.5 145.9 300.71 144.16 298.74C142.42 296.74 140.06 295.74 137.09 295.74ZM205.94 316.48L195.8 316.48L192.73 332.22L187.24 332.22L190.31 316.48L181.13 316.48L181.13 311.22L191.31 311.22L193.96 297.63L184.05 297.63L184.05 292.29L195 292.29L198.14 276.31L203.64 276.31L200.49 292.29L210.63 292.29L213.77 276.31L219.3 276.31L216.15 292.29L223.99 292.29L223.99 297.63L215.12 297.63L212.47 311.22L221.11 311.22L221.11 316.48L211.47 316.48L208.4 332.22L202.87 332.22L205.94 316.48ZM196.8 311.22L206.94 311.22L209.59 297.63L199.45 297.63L196.8 311.22ZM253.02 332.22L245.88 332.22L245.88 284.88L231.55 290.14L231.55 283.69L251.9 276.05L253.02 276.05L253.02 332.22ZM303.67 300.81L309 300.81C312.36 300.76 314.99 299.88 316.91 298.16C318.83 296.45 319.79 294.13 319.79 291.21C319.79 284.66 316.53 281.38 310 281.38C306.93 281.38 304.47 282.27 302.63 284.03C300.81 285.77 299.9 288.09 299.9 290.98L292.8 290.98C292.8 286.55 294.41 282.88 297.64 279.96C300.89 277.02 305.01 275.55 310 275.55C315.27 275.55 319.41 276.94 322.4 279.73C325.4 282.52 326.9 286.4 326.9 291.37C326.9 293.8 326.1 296.15 324.52 298.43C322.95 300.71 320.82 302.41 318.1 303.54C321.18 304.51 323.54 306.12 325.21 308.38C326.9 310.63 327.74 313.38 327.74 316.63C327.74 321.65 326.1 325.63 322.83 328.57C319.55 331.52 315.29 332.99 310.04 332.99C304.79 332.99 300.52 331.57 297.21 328.73C293.94 325.89 292.3 322.13 292.3 317.48L299.44 317.48C299.44 320.42 300.4 322.77 302.32 324.54C304.24 326.31 306.81 327.19 310.04 327.19C313.47 327.19 316.09 326.29 317.91 324.5C319.73 322.71 320.64 320.14 320.64 316.79C320.64 313.53 319.64 311.04 317.64 309.3C315.65 307.56 312.77 306.66 309 306.61L303.67 306.61L303.67 300.81ZM358.31 297.05C357.23 296.87 356.07 296.78 354.81 296.78C350.15 296.78 346.99 298.76 345.33 302.73L345.33 332.22L338.22 332.22L338.22 290.68L345.14 290.68L345.25 295.48C347.58 291.76 350.88 289.91 355.16 289.91C356.54 289.91 357.59 290.09 358.31 290.45L358.31 297.05ZM362.38 311.1C362.38 304.73 363.89 299.61 366.91 295.74C369.93 291.85 373.88 289.91 378.77 289.91C383.64 289.91 387.49 291.57 390.33 294.9L390.33 273.24L397.44 273.24L397.44 332.22L390.91 332.22L390.56 327.77C387.72 331.25 383.77 332.99 378.7 332.99C373.88 332.99 369.95 331.02 366.91 327.08C363.89 323.13 362.38 317.99 362.38 311.64L362.38 311.1ZM369.48 311.91C369.48 316.62 370.45 320.31 372.4 322.97C374.34 325.63 377.03 326.96 380.46 326.96C384.97 326.96 388.26 324.94 390.33 320.89L390.33 301.81C388.21 297.89 384.94 295.94 380.54 295.94C377.06 295.94 374.34 297.28 372.4 299.97C370.45 302.65 369.48 306.64 369.48 311.91ZM423.28 311.37L404.54 311.37L404.54 305.57L423.28 305.57L423.28 311.37ZM465.32 311.91C465.32 318.23 463.88 323.33 460.99 327.19C458.09 331.06 454.18 332.99 449.23 332.99C444.19 332.99 440.22 331.39 437.33 328.19L437.33 348.19L430.23 348.19L430.23 290.68L436.72 290.68L437.06 295.28C439.95 291.7 443.97 289.91 449.12 289.91C454.11 289.91 458.05 291.79 460.95 295.55C463.86 299.31 465.32 304.55 465.32 311.26L465.32 311.91ZM458.22 311.1C458.22 306.42 457.22 302.72 455.23 300.01C453.23 297.29 450.49 295.94 447.01 295.94C442.71 295.94 439.48 297.84 437.33 301.66L437.33 321.51C439.46 325.3 442.71 327.19 447.08 327.19C450.49 327.19 453.19 325.85 455.19 323.16C457.21 320.45 458.22 316.43 458.22 311.1ZM500.04 332.22C499.63 331.4 499.29 329.94 499.04 327.84C495.74 331.27 491.79 332.99 487.21 332.99C483.12 332.99 479.75 331.84 477.11 329.53C474.5 327.2 473.2 324.26 473.2 320.7C473.2 316.38 474.84 313.02 478.11 310.64C481.41 308.23 486.05 307.03 492.01 307.03L498.92 307.03L498.92 303.77C498.92 301.29 498.18 299.31 496.7 297.85C495.21 296.37 493.02 295.63 490.13 295.63C487.6 295.63 485.47 296.27 483.76 297.55C482.04 298.83 481.18 300.38 481.18 302.19L474.04 302.19C474.04 300.12 474.77 298.12 476.23 296.21C477.72 294.26 479.71 292.72 482.22 291.6C484.75 290.47 487.53 289.91 490.55 289.91C495.34 289.91 499.09 291.11 501.8 293.52C504.52 295.9 505.93 299.19 506.03 303.38L506.03 322.51C506.03 326.32 506.51 329.35 507.49 331.61L507.49 332.22L500.04 332.22ZM488.25 326.81C490.48 326.81 492.59 326.23 494.58 325.08C496.58 323.93 498.03 322.43 498.92 320.59L498.92 312.06L493.36 312.06C484.65 312.06 480.3 314.61 480.3 319.7C480.3 321.93 481.04 323.67 482.53 324.92C484.01 326.18 485.92 326.81 488.25 326.81ZM537.25 297.05C536.17 296.87 535.01 296.78 533.75 296.78C529.09 296.78 525.93 298.76 524.27 302.73L524.27 332.22L517.16 332.22L517.16 290.68L524.07 290.68L524.19 295.48C526.52 291.76 529.82 289.91 534.1 289.91C535.48 289.91 536.53 290.09 537.25 290.45L537.25 297.05ZM555.37 280.62L555.37 290.68L563.13 290.68L563.13 296.17L555.37 296.17L555.37 321.93C555.37 323.59 555.72 324.85 556.41 325.69C557.1 326.51 558.27 326.92 559.94 326.92C560.76 326.92 561.88 326.77 563.32 326.46L563.32 332.22C561.45 332.73 559.63 332.99 557.87 332.99C554.69 332.99 552.3 332.03 550.68 330.11C549.07 328.19 548.27 325.46 548.27 321.93L548.27 296.17L540.7 296.17L540.7 290.68L548.27 290.68L548.27 280.62L555.37 280.62ZM585.05 321.82L594.73 290.68L602.33 290.68L585.63 338.63C583.04 345.54 578.93 349 573.3 349L571.96 348.89L569.31 348.39L569.31 342.63L571.23 342.78C573.64 342.78 575.5 342.29 576.83 341.32C578.19 340.35 579.31 338.57 580.17 335.98L581.75 331.76L566.93 290.68L574.68 290.68L585.05 321.82ZM631.71 332.22L631.71 296.17L625.14 296.17L625.14 290.68L631.71 290.68L631.71 286.41C631.71 281.96 632.9 278.52 635.28 276.09C637.66 273.65 641.03 272.44 645.38 272.44C647.02 272.44 648.64 272.66 650.25 273.09L649.87 278.85C648.67 278.62 647.39 278.5 646.03 278.5C643.73 278.5 641.95 279.18 640.69 280.54C639.44 281.87 638.81 283.79 638.81 286.3L638.81 290.68L647.68 290.68L647.68 296.17L638.81 296.17L638.81 332.22L631.71 332.22ZM675.64 297.05C674.56 296.87 673.4 296.78 672.14 296.78C667.48 296.78 664.32 298.76 662.66 302.73L662.66 332.22L655.55 332.22L655.55 290.68L662.46 290.68L662.58 295.48C664.91 291.76 668.21 289.91 672.49 289.91C673.87 289.91 674.92 290.09 675.64 290.45L675.64 297.05ZM698.67 332.99C693.04 332.99 688.46 331.14 684.93 327.46C681.4 323.75 679.63 318.79 679.63 312.6L679.63 311.29C679.63 307.17 680.41 303.5 681.97 300.28C683.56 297.02 685.76 294.49 688.58 292.67C691.42 290.83 694.49 289.91 697.79 289.91C703.19 289.91 707.39 291.69 710.39 295.24C713.38 298.8 714.88 303.9 714.88 310.53L714.88 313.48L686.73 313.48C686.84 317.58 688.02 320.89 690.3 323.43C692.61 325.94 695.53 327.19 699.06 327.19C701.57 327.19 703.69 326.68 705.43 325.65C707.17 324.63 708.7 323.27 710 321.58L714.34 324.96C710.86 330.31 705.64 332.99 698.67 332.99ZM697.79 295.74C694.92 295.74 692.52 296.79 690.57 298.89C688.63 300.97 687.42 303.88 686.96 307.65L707.77 307.65L707.77 307.11C707.57 303.5 706.6 300.71 704.86 298.74C703.12 296.74 700.76 295.74 697.79 295.74ZM740.38 332.99C734.74 332.99 730.16 331.14 726.63 327.46C723.1 323.75 721.33 318.79 721.33 312.6L721.33 311.29C721.33 307.17 722.11 303.5 723.67 300.28C725.26 297.02 727.46 294.49 730.28 292.67C733.12 290.83 736.19 289.91 739.49 289.91C744.89 289.91 749.09 291.69 752.09 295.24C755.08 298.8 756.58 303.9 756.58 310.53L756.58 313.48L728.43 313.48C728.54 317.58 729.73 320.89 732.01 323.43C734.31 325.94 737.23 327.19 740.76 327.19C743.27 327.19 745.39 326.68 747.13 325.65C748.88 324.63 750.4 323.27 751.7 321.58L756.04 324.96C752.56 330.31 747.34 332.99 740.38 332.99ZM739.49 295.74C736.62 295.74 734.22 296.79 732.27 298.89C730.33 300.97 729.13 303.88 728.66 307.65L749.48 307.65L749.48 307.11C749.27 303.5 748.3 300.71 746.56 298.74C744.82 296.74 742.46 295.74 739.49 295.74ZM794.98 276.31L813.26 321.93L831.54 276.31L841.1 276.31L841.1 332.22L833.72 332.22L833.72 310.45L834.41 286.95L816.06 332.22L810.42 332.22L792.1 287.07L792.83 310.45L792.83 332.22L785.46 332.22L785.46 276.31L794.98 276.31ZM860.72 332.22L853.61 332.22L853.61 290.68L860.72 290.68L860.72 332.22ZM853.04 279.66C853.04 278.5 853.38 277.53 854.08 276.74C854.79 275.94 855.84 275.55 857.22 275.55C858.61 275.55 859.66 275.94 860.37 276.74C861.09 277.53 861.45 278.5 861.45 279.66C861.45 280.81 861.09 281.77 860.37 282.54C859.66 283.3 858.61 283.69 857.22 283.69C855.84 283.69 854.79 283.3 854.08 282.54C853.38 281.77 853.04 280.81 853.04 279.66ZM878.84 290.68L879.07 295.9C882.25 291.9 886.39 289.91 891.51 289.91C900.29 289.91 904.72 294.86 904.8 304.77L904.8 332.22L897.7 332.22L897.7 304.73C897.67 301.73 896.98 299.52 895.62 298.09C894.29 296.65 892.21 295.94 889.36 295.94C887.06 295.94 885.04 296.55 883.3 297.78C881.56 299.01 880.2 300.62 879.23 302.62L879.23 332.22L872.12 332.22L872.12 290.68L878.84 290.68ZM932.75 332.99C927.12 332.99 922.54 331.14 919.01 327.46C915.47 323.75 913.71 318.79 913.71 312.6L913.71 311.29C913.71 307.17 914.49 303.5 916.05 300.28C917.64 297.02 919.84 294.49 922.65 292.67C925.5 290.83 928.57 289.91 931.87 289.91C937.27 289.91 941.47 291.69 944.47 295.24C947.46 298.8 948.96 303.9 948.96 310.53L948.96 313.48L920.81 313.48C920.92 317.58 922.11 320.89 924.38 323.43C926.69 325.94 929.61 327.19 933.14 327.19C935.65 327.19 937.77 326.68 939.51 325.65C941.25 324.63 942.78 323.27 944.08 321.58L948.42 324.96C944.94 330.31 939.72 332.99 932.75 332.99ZM931.87 295.74C929 295.74 926.6 296.79 924.65 298.89C922.71 300.97 921.5 303.88 921.04 307.65L941.86 307.65L941.86 307.11C941.65 303.5 940.68 300.71 938.94 298.74C937.2 296.74 934.84 295.74 931.87 295.74ZM973.88 327.19C976.41 327.19 978.63 326.42 980.52 324.89C982.42 323.35 983.47 321.43 983.67 319.13L990.39 319.13C990.26 321.51 989.44 323.77 987.93 325.92C986.42 328.07 984.4 329.79 981.87 331.07C979.36 332.35 976.7 332.99 973.88 332.99C968.22 332.99 963.72 331.11 960.36 327.34C957.04 323.56 955.37 318.39 955.37 311.83L955.37 310.64C955.37 306.6 956.11 303 957.6 299.85C959.08 296.7 961.21 294.26 963.97 292.52C966.76 290.78 970.05 289.91 973.84 289.91C978.5 289.91 982.37 291.3 985.44 294.09C988.54 296.88 990.19 300.51 990.39 304.96L983.67 304.96C983.47 302.27 982.44 300.07 980.6 298.36C978.78 296.61 976.53 295.74 973.84 295.74C970.23 295.74 967.43 297.05 965.43 299.66C963.46 302.25 962.48 306 962.48 310.91L962.48 312.25C962.48 317.04 963.46 320.73 965.43 323.31C967.4 325.9 970.22 327.19 973.88 327.19ZM1018.46 297.05C1017.39 296.87 1016.22 296.78 1014.97 296.78C1010.31 296.78 1007.15 298.76 1005.48 302.73L1005.48 332.22L998.38 332.22L998.38 290.68L1005.29 290.68L1005.41 295.48C1007.73 291.76 1011.04 289.91 1015.31 289.91C1016.7 289.91 1017.74 290.09 1018.46 290.45L1018.46 297.05ZM1049.14 332.22C1048.73 331.4 1048.4 329.94 1048.14 327.84C1044.84 331.27 1040.9 332.99 1036.32 332.99C1032.22 332.99 1028.85 331.84 1026.22 329.53C1023.61 327.2 1022.3 324.26 1022.3 320.7C1022.3 316.38 1023.94 313.02 1027.22 310.64C1030.52 308.23 1035.15 307.03 1041.12 307.03L1048.03 307.03L1048.03 303.77C1048.03 301.29 1047.29 299.31 1045.8 297.85C1044.32 296.37 1042.13 295.63 1039.24 295.63C1036.7 295.63 1034.58 296.27 1032.86 297.55C1031.14 298.83 1030.29 300.38 1030.29 302.19L1023.15 302.19C1023.15 300.12 1023.88 298.12 1025.33 296.21C1026.82 294.26 1028.82 292.72 1031.32 291.6C1033.86 290.47 1036.64 289.91 1039.66 289.91C1044.44 289.91 1048.19 291.11 1050.91 293.52C1053.62 295.9 1055.03 299.19 1055.13 303.38L1055.13 322.51C1055.13 326.32 1055.62 329.35 1056.59 331.61L1056.59 332.22L1049.14 332.22ZM1037.35 326.81C1039.58 326.81 1041.69 326.23 1043.69 325.08C1045.69 323.93 1047.13 322.43 1048.03 320.59L1048.03 312.06L1042.46 312.06C1033.76 312.06 1029.41 314.61 1029.41 319.7C1029.41 321.93 1030.15 323.67 1031.63 324.92C1033.12 326.18 1035.02 326.81 1037.35 326.81ZM1069.76 332.22L1069.76 296.17L1063.2 296.17L1063.2 290.68L1069.76 290.68L1069.76 286.41C1069.76 281.96 1070.95 278.52 1073.33 276.09C1075.71 273.65 1079.08 272.44 1083.43 272.44C1085.07 272.44 1086.7 272.66 1088.31 273.09L1087.93 278.85C1086.72 278.62 1085.44 278.5 1084.08 278.5C1081.78 278.5 1080 279.18 1078.75 280.54C1077.49 281.87 1076.87 283.79 1076.87 286.3L1076.87 290.68L1085.74 290.68L1085.74 296.17L1076.87 296.17L1076.87 332.22L1069.76 332.22ZM1103.25 280.62L1103.25 290.68L1111 290.68L1111 296.17L1103.25 296.17L1103.25 321.93C1103.25 323.59 1103.59 324.85 1104.28 325.69C1104.97 326.51 1106.15 326.92 1107.82 326.92C1108.63 326.92 1109.76 326.77 1111.2 326.46L1111.2 332.22C1109.32 332.73 1107.51 332.99 1105.74 332.99C1102.57 332.99 1100.17 332.03 1098.56 330.11C1096.95 328.19 1096.14 325.46 1096.14 321.93L1096.14 296.17L1088.58 296.17L1088.58 290.68L1096.14 290.68L1096.14 280.62L1103.25 280.62ZM1155.51 327.19C1158.04 327.19 1160.26 326.42 1162.15 324.89C1164.05 323.35 1165.09 321.43 1165.29 319.13L1172.03 319.13C1171.88 321.51 1171.07 323.77 1169.56 325.92C1168.05 328.07 1166.03 329.79 1163.5 331.07C1160.98 332.35 1158.33 332.99 1155.51 332.99C1149.85 332.99 1145.34 331.11 1141.99 327.34C1138.66 323.56 1137 318.39 1137 311.83L1137 310.64C1137 306.6 1137.74 303 1139.23 299.85C1140.71 296.7 1142.84 294.26 1145.6 292.52C1148.39 290.78 1151.67 289.91 1155.46 289.91C1160.13 289.91 1163.99 291.3 1167.07 294.09C1170.17 296.88 1171.82 300.51 1172.03 304.96L1165.29 304.96C1165.09 302.27 1164.07 300.07 1162.23 298.36C1160.4 296.61 1158.15 295.74 1155.46 295.74C1151.86 295.74 1149.06 297.05 1147.06 299.66C1145.09 302.25 1144.1 306 1144.1 310.91L1144.1 312.25C1144.1 317.04 1145.09 320.73 1147.06 323.31C1149.03 325.9 1151.85 327.19 1155.51 327.19ZM1178.13 311.06C1178.13 306.99 1178.91 303.33 1180.5 300.08C1182.12 296.83 1184.34 294.32 1187.19 292.56C1190.05 290.79 1193.32 289.91 1196.97 289.91C1202.63 289.91 1207.21 291.87 1210.69 295.78C1214.19 299.7 1215.95 304.91 1215.95 311.41L1215.95 311.91C1215.95 315.95 1215.17 319.59 1213.61 322.81C1212.07 326.01 1209.85 328.51 1206.96 330.3C1204.1 332.09 1200.79 332.99 1197.05 332.99C1191.42 332.99 1186.86 331.03 1183.35 327.11C1179.86 323.2 1178.13 318.01 1178.13 311.56L1178.13 311.06ZM1185.27 311.91C1185.27 316.52 1186.32 320.22 1188.45 323.01C1190.6 325.8 1193.46 327.19 1197.05 327.19C1200.67 327.19 1203.53 325.78 1205.65 322.97C1207.78 320.13 1208.85 316.16 1208.85 311.06C1208.85 306.51 1207.76 302.82 1205.57 300.01C1203.43 297.16 1200.56 295.74 1196.97 295.74C1193.46 295.74 1190.65 297.14 1188.49 299.93C1186.34 302.72 1185.27 306.71 1185.27 311.91ZM1249.05 321.2C1249.05 319.28 1248.32 317.8 1246.86 316.75C1245.43 315.67 1242.9 314.75 1239.29 313.98C1235.71 313.21 1232.86 312.29 1230.72 311.22C1228.63 310.14 1227.07 308.86 1226.05 307.38C1225.05 305.89 1224.54 304.13 1224.54 302.08C1224.54 298.67 1225.99 295.79 1228.85 293.44C1231.75 291.08 1235.43 289.91 1239.91 289.91C1244.61 289.91 1248.43 291.12 1251.34 293.56C1254.3 295.99 1255.76 299.1 1255.76 302.89L1248.62 302.89C1248.62 300.94 1247.79 299.26 1246.12 297.85C1244.49 296.45 1242.41 295.74 1239.91 295.74C1237.33 295.74 1235.3 296.31 1233.84 297.43C1232.37 298.56 1231.65 300.03 1231.65 301.85C1231.65 303.56 1232.33 304.86 1233.68 305.73C1235.05 306.6 1237.49 307.43 1241.03 308.22C1244.58 309.02 1247.46 309.96 1249.66 311.06C1251.86 312.17 1253.48 313.5 1254.54 315.06C1255.61 316.59 1256.16 318.47 1256.16 320.7C1256.16 324.41 1254.66 327.4 1251.69 329.65C1248.73 331.87 1244.88 332.99 1240.14 332.99C1236.81 332.99 1233.87 332.4 1231.31 331.22C1228.74 330.05 1226.74 328.41 1225.28 326.31C1223.85 324.18 1223.13 321.89 1223.13 319.43L1230.24 319.43C1230.36 321.82 1231.31 323.71 1233.07 325.12C1234.86 326.5 1237.22 327.19 1240.14 327.19C1242.82 327.19 1244.97 326.65 1246.59 325.58C1248.23 324.48 1249.05 323.02 1249.05 321.2ZM1272.09 290.68L1272.28 295.28C1275.33 291.7 1279.43 289.91 1284.61 289.91C1290.41 289.91 1294.38 292.13 1296.47 296.59C1297.85 294.59 1299.64 292.98 1301.85 291.75C1304.08 290.52 1306.69 289.91 1309.71 289.91C1318.83 289.91 1323.46 294.73 1323.61 304.38L1323.61 332.22L1316.52 332.22L1316.52 304.8C1316.52 301.84 1315.83 299.62 1314.48 298.16C1313.12 296.68 1310.84 295.94 1307.65 295.94C1305.01 295.94 1302.82 296.73 1301.08 298.32C1299.33 299.88 1298.32 301.99 1298.04 304.65L1298.04 332.22L1290.9 332.22L1290.9 305C1290.9 298.96 1287.94 295.94 1282.03 295.94C1277.37 295.94 1274.18 297.92 1272.47 301.89L1272.47 332.22L1265.37 332.22L1265.37 290.68L1272.09 290.68ZM1351.61 332.99C1345.98 332.99 1341.4 331.14 1337.86 327.46C1334.32 323.75 1332.56 318.79 1332.56 312.6L1332.56 311.29C1332.56 307.17 1333.35 303.5 1334.91 300.28C1336.5 297.02 1338.7 294.49 1341.51 292.67C1344.36 290.83 1347.43 289.91 1350.73 289.91C1356.12 289.91 1360.32 291.69 1363.33 295.24C1366.32 298.8 1367.81 303.9 1367.81 310.53L1367.81 313.48L1339.67 313.48C1339.77 317.58 1340.96 320.89 1343.24 323.43C1345.54 325.94 1348.46 327.19 1351.99 327.19C1354.5 327.19 1356.63 326.68 1358.37 325.65C1360.1 324.63 1361.63 323.27 1362.93 321.58L1367.28 324.96C1363.8 330.31 1358.58 332.99 1351.61 332.99ZM1350.73 295.74C1347.87 295.74 1345.46 296.79 1343.51 298.89C1341.56 300.97 1340.36 303.88 1339.89 307.65L1360.72 307.65L1360.72 307.11C1360.51 303.5 1359.54 300.71 1357.79 298.74C1356.05 296.74 1353.7 295.74 1350.73 295.74ZM1385.71 280.62L1385.71 290.68L1393.46 290.68L1393.46 296.17L1385.71 296.17L1385.71 321.93C1385.71 323.59 1386.05 324.85 1386.75 325.69C1387.44 326.51 1388.62 326.92 1390.27 326.92C1391.1 326.92 1392.22 326.77 1393.65 326.46L1393.65 332.22C1391.8 332.73 1389.97 332.99 1388.21 332.99C1385.03 332.99 1382.64 332.03 1381.02 330.11C1379.42 328.19 1378.6 325.46 1378.6 321.93L1378.6 296.17L1371.03 296.17L1371.03 290.68L1378.6 290.68L1378.6 280.62L1385.71 280.62ZM1409.52 332.22L1402.41 332.22L1402.41 290.68L1409.52 290.68L1409.52 332.22ZM1401.83 279.66C1401.83 278.5 1402.18 277.53 1402.87 276.74C1403.59 275.94 1404.65 275.55 1406.01 275.55C1407.4 275.55 1408.45 275.94 1409.18 276.74C1409.88 277.53 1410.24 278.5 1410.24 279.66C1410.24 280.81 1409.88 281.77 1409.18 282.54C1408.45 283.3 1407.4 283.69 1406.01 283.69C1404.65 283.69 1403.59 283.3 1402.87 282.54C1402.18 281.77 1401.83 280.81 1401.83 279.66ZM1437.58 327.19C1440.11 327.19 1442.33 326.42 1444.23 324.89C1446.12 323.35 1447.17 321.43 1447.38 319.13L1454.09 319.13C1453.97 321.51 1453.15 323.77 1451.64 325.92C1450.13 328.07 1448.1 329.79 1445.57 331.07C1443.07 332.35 1440.4 332.99 1437.58 332.99C1431.93 332.99 1427.42 331.11 1424.07 327.34C1420.74 323.56 1419.08 318.39 1419.08 311.83L1419.08 310.64C1419.08 306.6 1419.82 303 1421.3 299.85C1422.8 296.7 1424.92 294.26 1427.67 292.52C1430.47 290.78 1433.76 289.91 1437.55 289.91C1442.2 289.91 1446.07 291.3 1449.14 294.09C1452.24 296.88 1453.89 300.51 1454.09 304.96L1447.38 304.96C1447.17 302.27 1446.15 300.07 1444.31 298.36C1442.49 296.61 1440.24 295.74 1437.55 295.74C1433.93 295.74 1431.13 297.05 1429.13 299.66C1427.17 302.25 1426.18 306 1426.18 310.91L1426.18 312.25C1426.18 317.04 1427.17 320.73 1429.13 323.31C1431.12 325.9 1433.93 327.19 1437.58 327.19ZM1505.78 321.2C1505.78 319.28 1505.05 317.8 1503.59 316.75C1502.16 315.67 1499.64 314.75 1496.03 313.98C1492.44 313.21 1489.59 312.29 1487.47 311.22C1485.36 310.14 1483.81 308.86 1482.78 307.38C1481.78 305.89 1481.29 304.13 1481.29 302.08C1481.29 298.67 1482.72 295.79 1485.58 293.44C1488.48 291.08 1492.16 289.91 1496.64 289.91C1501.36 289.91 1505.16 291.12 1508.09 293.56C1511.03 295.99 1512.49 299.1 1512.49 302.89L1505.35 302.89C1505.35 300.94 1504.52 299.26 1502.87 297.85C1501.23 296.45 1499.16 295.74 1496.64 295.74C1494.06 295.74 1492.03 296.31 1490.57 297.43C1489.12 298.56 1488.38 300.03 1488.38 301.85C1488.38 303.56 1489.06 304.86 1490.43 305.73C1491.78 306.6 1494.22 307.43 1497.76 308.22C1501.31 309.02 1504.19 309.96 1506.39 311.06C1508.59 312.17 1510.23 313.5 1511.27 315.06C1512.35 316.59 1512.89 318.47 1512.89 320.7C1512.89 324.41 1511.41 327.4 1508.44 329.65C1505.46 331.87 1501.61 332.99 1496.88 332.99C1493.54 332.99 1490.6 332.4 1488.04 331.22C1485.49 330.05 1483.48 328.41 1482.01 326.31C1480.58 324.18 1479.86 321.89 1479.86 319.43L1486.97 319.43C1487.09 321.82 1488.04 323.71 1489.81 325.12C1491.61 326.5 1493.95 327.19 1496.88 327.19C1499.57 327.19 1501.7 326.65 1503.32 325.58C1504.96 324.48 1505.78 323.02 1505.78 321.2ZM1539.37 332.99C1533.74 332.99 1529.17 331.14 1525.63 327.46C1522.1 323.75 1520.34 318.79 1520.34 312.6L1520.34 311.29C1520.34 307.17 1521.11 303.5 1522.67 300.28C1524.26 297.02 1526.46 294.49 1529.28 292.67C1532.12 290.83 1535.19 289.91 1538.49 289.91C1543.9 289.91 1548.1 291.69 1551.09 295.24C1554.09 298.8 1555.59 303.9 1555.59 310.53L1555.59 313.48L1527.44 313.48C1527.55 317.58 1528.73 320.89 1531.01 323.43C1533.32 325.94 1536.23 327.19 1539.77 327.19C1542.27 327.19 1544.39 326.68 1546.14 325.65C1547.88 324.63 1549.41 323.27 1550.71 321.58L1555.05 324.96C1551.56 330.31 1546.34 332.99 1539.37 332.99ZM1538.49 295.74C1535.63 295.74 1533.22 296.79 1531.27 298.89C1529.34 300.97 1528.13 303.88 1527.67 307.65L1548.48 307.65L1548.48 307.11C1548.28 303.5 1547.3 300.71 1545.57 298.74C1543.82 296.74 1541.47 295.74 1538.49 295.74ZM1583.93 297.05C1582.85 296.87 1581.68 296.78 1580.42 296.78C1575.77 296.78 1572.61 298.76 1570.94 302.73L1570.94 332.22L1563.85 332.22L1563.85 290.68L1570.75 290.68L1570.86 295.48C1573.2 291.76 1576.49 289.91 1580.77 289.91C1582.15 289.91 1583.21 290.09 1583.93 290.45L1583.93 297.05ZM1604.9 322.58L1615.18 290.68L1622.43 290.68L1607.54 332.22L1602.13 332.22L1587.08 290.68L1594.33 290.68L1604.9 322.58ZM1637 332.22L1629.89 332.22L1629.89 290.68L1637 290.68L1637 332.22ZM1629.31 279.66C1629.31 278.5 1629.65 277.53 1630.35 276.74C1631.07 275.94 1632.11 275.55 1633.49 275.55C1634.87 275.55 1635.93 275.94 1636.65 276.74C1637.36 277.53 1637.72 278.5 1637.72 279.66C1637.72 280.81 1637.36 281.77 1636.65 282.54C1635.93 283.3 1634.87 283.69 1633.49 283.69C1632.11 283.69 1631.07 283.3 1630.35 282.54C1629.65 281.77 1629.31 280.81 1629.31 279.66ZM1665.06 327.19C1667.59 327.19 1669.81 326.42 1671.71 324.89C1673.6 323.35 1674.65 321.43 1674.86 319.13L1681.57 319.13C1681.45 321.51 1680.63 323.77 1679.12 325.92C1677.61 328.07 1675.58 329.79 1673.05 331.07C1670.55 332.35 1667.87 332.99 1665.06 332.99C1659.4 332.99 1654.9 331.11 1651.55 327.34C1648.21 323.56 1646.55 318.39 1646.55 311.83L1646.55 310.64C1646.55 306.6 1647.3 303 1648.78 299.85C1650.26 296.7 1652.4 294.26 1655.15 292.52C1657.95 290.78 1661.24 289.91 1665.03 289.91C1669.68 289.91 1673.55 291.3 1676.62 294.09C1679.72 296.88 1681.37 300.51 1681.57 304.96L1674.86 304.96C1674.65 302.27 1673.63 300.07 1671.77 298.36C1669.96 296.61 1667.72 295.74 1665.03 295.74C1661.41 295.74 1658.61 297.05 1656.61 299.66C1654.65 302.25 1653.65 306 1653.65 310.91L1653.65 312.25C1653.65 317.04 1654.65 320.73 1656.61 323.31C1658.58 325.9 1661.39 327.19 1665.06 327.19ZM1706.8 332.99C1701.17 332.99 1696.59 331.14 1693.05 327.46C1689.51 323.75 1687.75 318.79 1687.75 312.6L1687.75 311.29C1687.75 307.17 1688.54 303.5 1690.1 300.28C1691.69 297.02 1693.89 294.49 1696.7 292.67C1699.55 290.83 1702.62 289.91 1705.92 289.91C1711.31 289.91 1715.51 291.69 1718.52 295.24C1721.51 298.8 1723 303.9 1723 310.53L1723 313.48L1694.86 313.48C1694.96 317.58 1696.15 320.89 1698.43 323.43C1700.73 325.94 1703.65 327.19 1707.18 327.19C1709.69 327.19 1711.82 326.68 1713.56 325.65C1715.29 324.63 1716.82 323.27 1718.12 321.58L1722.47 324.96C1718.99 330.31 1713.77 332.99 1706.8 332.99ZM1705.92 295.74C1703.06 295.74 1700.65 296.79 1698.7 298.89C1696.75 300.97 1695.55 303.88 1695.08 307.65L1715.91 307.65L1715.91 307.11C1715.7 303.5 1714.73 300.71 1712.98 298.74C1711.24 296.74 1708.89 295.74 1705.92 295.74Z" />
</svg>