<svg width="164" height="38" viewBox="0 0 164 38" fill="none" xmlns="http://www.w3.org/2000/svg">
<path d="M77.5127 11.7451C77.5042 11.779 77.5 11.8086 77.5 11.834C77.5 11.8594 77.4958 11.8805 77.4873 11.8975C77.5804 12.0667 77.6312 12.2656 77.6396 12.4941C77.6566 12.7227 77.6735 12.9469 77.6904 13.167C77.7327 13.1247 77.7708 13.0866 77.8047 13.0527C77.8385 13.0104 77.8724 12.9681 77.9062 12.9258C77.9486 12.8835 77.9824 12.8454 78.0078 12.8115C78.0332 12.7692 78.0628 12.7269 78.0967 12.6846C78.1136 12.6507 78.1348 12.6211 78.1602 12.5957C78.194 12.5703 78.2236 12.5449 78.249 12.5195C78.2913 12.4772 78.3337 12.4307 78.376 12.3799C78.4183 12.3291 78.4606 12.2826 78.5029 12.2402C78.5368 12.1979 78.5664 12.1598 78.5918 12.126C78.6257 12.0921 78.6595 12.054 78.6934 12.0117C78.7611 11.9271 78.8288 11.8424 78.8965 11.7578C78.9642 11.6647 79.0446 11.5928 79.1377 11.542C79.2139 11.5589 79.2562 11.5716 79.2646 11.5801C79.2731 11.5885 79.2858 11.5928 79.3027 11.5928C79.4128 11.6266 79.4762 11.6774 79.4932 11.7451C79.5186 11.8128 79.5312 11.8763 79.5312 11.9355C79.5312 11.9779 79.527 12.0286 79.5186 12.0879C79.5101 12.1471 79.4974 12.1979 79.4805 12.2402C79.4635 12.291 79.4424 12.3418 79.417 12.3926C79.3916 12.4349 79.3789 12.4772 79.3789 12.5195C79.3704 12.5703 79.3577 12.6253 79.3408 12.6846C79.3324 12.7354 79.3112 12.7734 79.2773 12.7988C79.2943 12.9173 79.2689 13.0146 79.2012 13.0908C79.1419 13.167 79.0911 13.2389 79.0488 13.3066C79.015 13.349 78.9854 13.404 78.96 13.4717C78.9261 13.514 78.9049 13.5563 78.8965 13.5986C78.888 13.6325 78.8626 13.6706 78.8203 13.7129C78.7949 13.7467 78.7568 13.7806 78.7061 13.8145C78.6637 13.8398 78.6257 13.8695 78.5918 13.9033C78.5156 13.9964 78.4648 14.0557 78.4395 14.0811C78.4141 14.1064 78.3929 14.1276 78.376 14.1445C78.3337 14.1953 78.2998 14.2503 78.2744 14.3096C78.249 14.3604 78.2152 14.4069 78.1729 14.4492C78.1475 14.4831 78.1178 14.5127 78.084 14.5381C78.0586 14.555 78.0374 14.5762 78.0205 14.6016C78.0036 14.627 77.9867 14.6566 77.9697 14.6904C77.9613 14.7243 77.9486 14.7581 77.9316 14.792C77.9147 14.8258 77.8978 14.8555 77.8809 14.8809C77.8639 14.9062 77.847 14.9316 77.8301 14.957C77.8132 14.9909 77.8005 15.0247 77.792 15.0586C77.7835 15.0924 77.7666 15.1263 77.7412 15.1602C77.6735 15.2786 77.6143 15.3887 77.5635 15.4902C77.5381 15.541 77.5169 15.596 77.5 15.6553C77.4831 15.7061 77.4619 15.7568 77.4365 15.8076C77.4196 15.8584 77.3984 15.9092 77.373 15.96C77.3477 16.0023 77.3265 16.0446 77.3096 16.0869C77.2673 16.18 77.2292 16.2816 77.1953 16.3916C77.1699 16.4932 77.1361 16.5905 77.0938 16.6836C77.0599 16.7598 77.0303 16.8359 77.0049 16.9121C76.9795 16.9883 76.9456 17.0602 76.9033 17.1279C76.861 17.2887 76.8229 17.4453 76.7891 17.5977C76.7552 17.75 76.7087 17.9066 76.6494 18.0674C76.5902 18.2367 76.5309 18.4144 76.4717 18.6006C76.4209 18.7783 76.3701 18.9561 76.3193 19.1338C76.277 19.3369 76.2432 19.5273 76.2178 19.7051C76.2008 19.8828 76.2008 20.0732 76.2178 20.2764C76.2686 20.2764 76.3151 20.2891 76.3574 20.3145C76.4082 20.3398 76.459 20.3441 76.5098 20.3271C76.5521 20.3187 76.5944 20.2975 76.6367 20.2637C76.679 20.2298 76.7298 20.2002 76.7891 20.1748C76.8314 20.1579 76.8652 20.1494 76.8906 20.1494C76.9245 20.141 76.9499 20.1198 76.9668 20.0859C77.0176 20.069 77.0641 20.0521 77.1064 20.0352C77.1488 20.0098 77.1868 19.9759 77.2207 19.9336C77.3138 19.9082 77.3984 19.8701 77.4746 19.8193C77.5508 19.7601 77.627 19.7093 77.7031 19.667C77.7454 19.6416 77.7878 19.6162 77.8301 19.5908C77.8724 19.5654 77.9147 19.54 77.957 19.5146C77.9993 19.4977 78.0417 19.4808 78.084 19.4639C78.1263 19.4469 78.1644 19.4215 78.1982 19.3877C78.2152 19.3708 78.249 19.3454 78.2998 19.3115C78.3506 19.2777 78.3887 19.2523 78.4141 19.2354C78.4987 19.21 78.5664 19.1803 78.6172 19.1465C78.668 19.1042 78.7018 19.0745 78.7188 19.0576C78.7526 19.0661 78.8034 19.0492 78.8711 19.0068C78.9473 18.9645 79.0065 18.9434 79.0488 18.9434C79.0827 18.9603 79.1165 18.973 79.1504 18.9814C79.1842 18.9814 79.2139 18.9899 79.2393 19.0068C79.2308 19.0407 79.2266 19.0745 79.2266 19.1084C79.235 19.1338 79.2393 19.1592 79.2393 19.1846C79.2393 19.2015 79.2139 19.2396 79.1631 19.2988C79.1208 19.3581 79.0911 19.3962 79.0742 19.4131C79.0488 19.4469 78.998 19.4935 78.9219 19.5527C78.8542 19.612 78.7992 19.6501 78.7568 19.667C78.7145 19.7601 78.651 19.8447 78.5664 19.9209C78.4902 19.9886 78.4183 20.0563 78.3506 20.124C78.266 20.1663 78.1855 20.2214 78.1094 20.2891C78.0332 20.3568 77.9655 20.4202 77.9062 20.4795C77.7031 20.598 77.4958 20.7334 77.2842 20.8857C77.0726 21.0296 76.8483 21.1608 76.6113 21.2793C76.5098 21.3216 76.4124 21.3639 76.3193 21.4062C76.2262 21.457 76.112 21.4909 75.9766 21.5078C75.9004 21.5163 75.8327 21.5078 75.7734 21.4824C75.7227 21.4655 75.6634 21.4486 75.5957 21.4316C75.5703 21.3555 75.5365 21.2878 75.4941 21.2285C75.4518 21.1693 75.4095 21.11 75.3672 21.0508C75.3249 20.9915 75.2868 20.9323 75.2529 20.873C75.2275 20.8053 75.2148 20.7292 75.2148 20.6445C75.2064 20.6191 75.2064 20.5895 75.2148 20.5557C75.2233 20.5218 75.2318 20.488 75.2402 20.4541C75.2487 20.4287 75.2529 20.4033 75.2529 20.3779C75.2529 20.3525 75.2572 20.3229 75.2656 20.2891C75.2826 20.196 75.2995 20.1071 75.3164 20.0225C75.3418 19.9294 75.363 19.832 75.3799 19.7305C75.3714 19.5951 75.3757 19.4766 75.3926 19.375C75.418 19.2734 75.4349 19.1634 75.4434 19.0449C75.401 19.0618 75.3672 19.0872 75.3418 19.1211C75.3249 19.1465 75.2952 19.1676 75.2529 19.1846C75.1852 19.2607 75.109 19.3327 75.0244 19.4004C74.9482 19.4681 74.8594 19.5273 74.7578 19.5781C74.6478 19.6543 74.542 19.7347 74.4404 19.8193C74.3389 19.904 74.2288 19.9801 74.1104 20.0479C73.9242 20.2171 73.7295 20.3737 73.5264 20.5176C73.3232 20.653 73.1243 20.7969 72.9297 20.9492C72.862 20.9746 72.7943 21 72.7266 21.0254C72.6673 21.0592 72.5954 21.0804 72.5107 21.0889C72.4176 21.1396 72.3288 21.1439 72.2441 21.1016C72.168 21.0677 72.096 21.0296 72.0283 20.9873C71.9775 20.945 71.931 20.9069 71.8887 20.873C71.8548 20.8392 71.8125 20.8011 71.7617 20.7588C71.6686 20.6064 71.5967 20.4668 71.5459 20.3398C71.5036 20.2044 71.4401 20.0902 71.3555 19.9971C71.347 19.9548 71.3343 19.9209 71.3174 19.8955C71.3005 19.8617 71.2793 19.8278 71.2539 19.7939C71.2285 19.6839 71.2116 19.5824 71.2031 19.4893C71.2031 19.3962 71.1989 19.2988 71.1904 19.1973C71.1989 19.0111 71.2327 18.8376 71.292 18.6768C71.3597 18.516 71.4147 18.3678 71.457 18.2324C71.4655 18.207 71.4697 18.1816 71.4697 18.1562C71.4697 18.1309 71.474 18.1055 71.4824 18.0801C71.4909 18.0547 71.4993 18.0251 71.5078 17.9912C71.5247 17.9574 71.5417 17.9235 71.5586 17.8896C71.5755 17.8219 71.5967 17.7585 71.6221 17.6992C71.6475 17.64 71.6686 17.5765 71.6855 17.5088C71.7025 17.4665 71.7152 17.4326 71.7236 17.4072C71.7321 17.3818 71.7448 17.3564 71.7617 17.3311C71.804 17.2549 71.8337 17.1787 71.8506 17.1025C71.876 17.0264 71.9014 16.9502 71.9268 16.874C71.9945 16.654 72.0664 16.4382 72.1426 16.2266C72.2272 16.0065 72.3288 15.7992 72.4473 15.6045C72.4642 15.5791 72.4811 15.5579 72.498 15.541C72.5234 15.5156 72.5446 15.4902 72.5615 15.4648L72.8281 15.0459C72.9212 14.9189 73.0186 14.8005 73.1201 14.6904C73.2301 14.5719 73.3317 14.4535 73.4248 14.335C73.5433 14.2249 73.6491 14.1064 73.7422 13.9795C73.8353 13.8525 73.9411 13.7383 74.0596 13.6367C74.0765 13.5859 74.1061 13.5479 74.1484 13.5225C74.1908 13.4886 74.2204 13.4463 74.2373 13.3955C74.3135 13.3447 74.377 13.2812 74.4277 13.2051C74.487 13.1289 74.5589 13.0654 74.6436 13.0146C74.8044 12.8369 74.9694 12.6676 75.1387 12.5068C75.3079 12.3376 75.4772 12.1683 75.6465 11.999C75.7904 11.9821 75.8877 11.9271 75.9385 11.834C76.057 11.7578 76.1882 11.6774 76.332 11.5928C76.4844 11.5081 76.6325 11.4447 76.7764 11.4023C76.8187 11.3854 76.8737 11.3896 76.9414 11.415C77.0176 11.4404 77.0811 11.4616 77.1318 11.4785C77.2588 11.5039 77.3434 11.5462 77.3857 11.6055C77.4281 11.6562 77.4704 11.7028 77.5127 11.7451ZM72.2949 18.8418C72.3372 19.0026 72.3711 19.1465 72.3965 19.2734C72.4303 19.4004 72.4727 19.5358 72.5234 19.6797C72.5573 19.6966 72.5785 19.722 72.5869 19.7559C72.5954 19.7812 72.6208 19.8024 72.6631 19.8193C72.6969 19.8363 72.7477 19.849 72.8154 19.8574C72.8831 19.8574 72.9297 19.8532 72.9551 19.8447C72.9974 19.8278 73.0397 19.8066 73.082 19.7812C73.1497 19.7474 73.2132 19.7135 73.2725 19.6797C73.3317 19.6374 73.3952 19.5993 73.4629 19.5654C73.5052 19.5485 73.5475 19.5316 73.5898 19.5146C73.6322 19.4977 73.6745 19.4808 73.7168 19.4639C73.8014 19.4469 73.8734 19.4215 73.9326 19.3877C74.0003 19.3538 74.068 19.3158 74.1357 19.2734C74.305 19.1803 74.4701 19.0703 74.6309 18.9434C74.8001 18.8079 74.9652 18.6937 75.126 18.6006C75.346 18.3298 75.5534 18.0293 75.748 17.6992C75.9512 17.3691 76.0866 16.984 76.1543 16.5439C76.1628 16.4424 76.1712 16.362 76.1797 16.3027C76.1966 16.235 76.2135 16.1673 76.2305 16.0996C76.2474 16.0488 76.2601 15.9938 76.2686 15.9346C76.2855 15.8669 76.3024 15.8118 76.3193 15.7695C76.387 15.5495 76.4378 15.3421 76.4717 15.1475C76.5055 14.9528 76.5521 14.7624 76.6113 14.5762C76.6367 14.5085 76.6579 14.4408 76.6748 14.373C76.7002 14.2969 76.7214 14.2292 76.7383 14.1699C76.7891 14.1107 76.8102 14.0684 76.8018 14.043C76.8018 14.0176 76.806 13.9964 76.8145 13.9795C76.8314 13.9372 76.8483 13.9033 76.8652 13.8779C76.8822 13.8441 76.8991 13.806 76.916 13.7637C76.9499 13.679 76.9837 13.5775 77.0176 13.459C77.0514 13.332 77.0684 13.222 77.0684 13.1289C77.043 12.985 77.0218 12.8877 77.0049 12.8369C76.9964 12.7861 76.9795 12.7269 76.9541 12.6592C76.9287 12.5915 76.8906 12.5068 76.8398 12.4053C76.7891 12.2952 76.7298 12.2318 76.6621 12.2148C76.569 12.1979 76.4801 12.236 76.3955 12.3291C76.3109 12.4137 76.2474 12.4772 76.2051 12.5195C76.1882 12.5365 76.1628 12.5534 76.1289 12.5703C76.1035 12.5788 76.0824 12.5957 76.0654 12.6211C76.0485 12.638 76.0273 12.6592 76.002 12.6846C75.985 12.71 75.9639 12.7354 75.9385 12.7607C75.9215 12.7777 75.9004 12.7988 75.875 12.8242C75.8581 12.8496 75.8411 12.875 75.8242 12.9004C75.7904 12.9427 75.7523 12.9893 75.71 13.04C75.6761 13.0824 75.638 13.1289 75.5957 13.1797C75.5534 13.222 75.5195 13.2686 75.4941 13.3193C75.4688 13.3701 75.4349 13.4167 75.3926 13.459C75.3418 13.5182 75.291 13.5732 75.2402 13.624C75.1895 13.6748 75.1514 13.734 75.126 13.8018C75.0329 13.8695 74.944 13.9541 74.8594 14.0557C74.8171 14.1064 74.779 14.1572 74.7451 14.208C74.7113 14.2588 74.6816 14.3138 74.6562 14.373C74.5885 14.4069 74.5335 14.4577 74.4912 14.5254C74.4574 14.5931 74.415 14.6481 74.3643 14.6904C74.2881 14.7581 74.2415 14.8089 74.2246 14.8428C74.2161 14.8682 74.2035 14.8893 74.1865 14.9062C74.0596 15.0586 73.9411 15.2194 73.8311 15.3887C73.7295 15.5579 73.6322 15.7314 73.5391 15.9092C73.5475 15.9346 73.5433 15.96 73.5264 15.9854C73.5094 16.0023 73.501 16.0319 73.501 16.0742C73.4502 16.1419 73.4036 16.2223 73.3613 16.3154C73.3275 16.3831 73.2979 16.4508 73.2725 16.5186C73.2555 16.5778 73.2344 16.6413 73.209 16.709C73.1921 16.7428 73.1751 16.7725 73.1582 16.7979C73.1497 16.8232 73.137 16.8486 73.1201 16.874C73.1032 16.9248 73.0863 16.9756 73.0693 17.0264C73.0524 17.0687 73.0355 17.111 73.0186 17.1533C73.0016 17.1956 72.9805 17.238 72.9551 17.2803C72.9297 17.3226 72.9001 17.3649 72.8662 17.4072C72.8493 17.4411 72.8366 17.4792 72.8281 17.5215C72.8281 17.5553 72.8197 17.5892 72.8027 17.623C72.7858 17.6654 72.7646 17.7035 72.7393 17.7373C72.7223 17.7712 72.7054 17.8092 72.6885 17.8516C72.6715 17.8939 72.6546 17.9404 72.6377 17.9912C72.6292 18.0335 72.6165 18.0758 72.5996 18.1182C72.5827 18.1436 72.5658 18.1647 72.5488 18.1816C72.5404 18.1986 72.5277 18.2155 72.5107 18.2324C72.4938 18.2578 72.4811 18.2874 72.4727 18.3213C72.4642 18.3467 72.4515 18.3721 72.4346 18.3975C72.3923 18.4398 72.3499 18.4779 72.3076 18.5117C72.2653 18.5456 72.2314 18.5921 72.2061 18.6514C72.223 18.6683 72.2357 18.6979 72.2441 18.7402C72.2611 18.7826 72.278 18.8164 72.2949 18.8418ZM82.2734 17.4453C82.3242 17.5469 82.3792 17.6442 82.4385 17.7373C82.5062 17.8219 82.5527 17.9277 82.5781 18.0547C82.612 18.097 82.6289 18.1436 82.6289 18.1943C82.6289 18.2451 82.6374 18.2959 82.6543 18.3467C82.7135 18.5583 82.7855 18.7656 82.8701 18.9688C82.9632 19.1634 83.0521 19.3496 83.1367 19.5273C83.1536 19.6712 83.196 19.7897 83.2637 19.8828C83.3398 19.9674 83.3864 20.0817 83.4033 20.2256C83.471 20.3864 83.5472 20.5387 83.6318 20.6826C83.7165 20.8265 83.8011 20.9704 83.8857 21.1143C83.9281 21.1396 83.9704 21.165 84.0127 21.1904C84.055 21.2158 84.1016 21.2454 84.1523 21.2793C84.1862 21.2962 84.2158 21.3132 84.2412 21.3301C84.2666 21.3555 84.3005 21.3766 84.3428 21.3936C84.3851 21.4105 84.4232 21.4232 84.457 21.4316C84.4993 21.4401 84.5417 21.4528 84.584 21.4697C84.6178 21.4867 84.6432 21.5078 84.6602 21.5332C84.6855 21.5586 84.7109 21.5798 84.7363 21.5967C84.7702 21.6051 84.804 21.6136 84.8379 21.6221C84.8717 21.639 84.9056 21.6432 84.9395 21.6348C85.0833 21.7025 85.2061 21.749 85.3076 21.7744C85.4092 21.7998 85.5065 21.8294 85.5996 21.8633C85.6419 21.8802 85.6927 21.8971 85.752 21.9141C85.8197 21.931 85.8747 21.9395 85.917 21.9395C85.9847 21.9733 86.027 22.0072 86.0439 22.041C86.0693 22.0833 86.0947 22.1257 86.1201 22.168C86.154 22.2188 86.1963 22.2611 86.2471 22.2949C86.2979 22.3372 86.3656 22.3626 86.4502 22.3711C86.4756 22.388 86.4925 22.4092 86.501 22.4346C86.5179 22.4684 86.5433 22.498 86.5771 22.5234C86.6618 22.5911 86.6956 22.6335 86.6787 22.6504C86.6702 22.6673 86.6618 22.6885 86.6533 22.7139C86.5941 22.7223 86.5348 22.7308 86.4756 22.7393C86.4163 22.7477 86.374 22.7731 86.3486 22.8154C86.2979 22.8154 86.2386 22.8154 86.1709 22.8154C86.1117 22.8239 86.0609 22.8112 86.0186 22.7773C85.8747 22.7858 85.7435 22.7773 85.625 22.752C85.5065 22.7266 85.3626 22.7054 85.1934 22.6885C85.1003 22.6885 85.0114 22.6927 84.9268 22.7012C84.8421 22.7096 84.766 22.7012 84.6982 22.6758C84.512 22.5996 84.3639 22.5319 84.2539 22.4727C84.1439 22.4134 84.0296 22.3499 83.9111 22.2822C83.818 22.2399 83.7334 22.1891 83.6572 22.1299C83.5811 22.0706 83.4964 22.0199 83.4033 21.9775C83.2848 21.8421 83.1706 21.7109 83.0605 21.584C82.9505 21.457 82.849 21.3174 82.7559 21.165C82.722 21.1058 82.6924 21.0592 82.667 21.0254C82.6501 20.9915 82.6331 20.9577 82.6162 20.9238C82.5824 20.8477 82.5527 20.8011 82.5273 20.7842C82.502 20.7673 82.4808 20.7419 82.4639 20.708C82.4385 20.6657 82.4173 20.6149 82.4004 20.5557C82.3835 20.4964 82.3665 20.4372 82.3496 20.3779C82.3327 20.3018 82.3158 20.2298 82.2988 20.1621C82.2819 20.0859 82.2607 20.014 82.2354 19.9463C82.2184 19.8955 82.193 19.8532 82.1592 19.8193C82.1338 19.777 82.1169 19.7262 82.1084 19.667C82.0745 19.5739 82.0407 19.4808 82.0068 19.3877C81.9814 19.2861 81.9603 19.1803 81.9434 19.0703C81.918 18.9095 81.8841 18.7868 81.8418 18.7021C81.8079 18.609 81.7826 18.5202 81.7656 18.4355C81.7148 18.3086 81.6429 18.1605 81.5498 17.9912C81.4567 17.8219 81.3763 17.6738 81.3086 17.5469C81.2917 17.5046 81.279 17.4707 81.2705 17.4453C81.2705 17.4199 81.2578 17.3988 81.2324 17.3818C81.1901 17.4242 81.152 17.4961 81.1182 17.5977C81.0843 17.6992 81.0505 17.7754 81.0166 17.8262C80.9235 17.9785 80.8643 18.1012 80.8389 18.1943C80.8135 18.279 80.7754 18.3636 80.7246 18.4482C80.6992 18.6175 80.6527 18.7656 80.585 18.8926C80.568 19.0111 80.5257 19.0999 80.458 19.1592C80.4157 19.3115 80.3649 19.4639 80.3057 19.6162C80.2464 19.7686 80.1914 19.9167 80.1406 20.0605C80.1237 20.1367 80.1025 20.2087 80.0771 20.2764C80.0518 20.3441 80.0433 20.4118 80.0518 20.4795C80.0518 20.5472 80.0391 20.6064 80.0137 20.6572C79.9967 20.708 79.9798 20.7673 79.9629 20.835C79.9206 20.9535 79.8275 21.0254 79.6836 21.0508C79.5482 21.0762 79.417 21.1058 79.29 21.1396C79.2393 21.1566 79.18 21.1735 79.1123 21.1904C79.0107 21.2158 78.9007 21.2581 78.7822 21.3174C78.6722 21.3851 78.5579 21.4105 78.4395 21.3936C78.3633 21.3766 78.3379 21.3301 78.3633 21.2539C78.3802 21.1862 78.4098 21.1354 78.4521 21.1016C78.4945 21.0085 78.541 20.9154 78.5918 20.8223C78.6341 20.7292 78.6807 20.6403 78.7314 20.5557C78.7484 20.4795 78.778 20.4202 78.8203 20.3779C78.8711 20.3441 78.9049 20.2975 78.9219 20.2383C78.9388 20.2214 78.9515 20.2002 78.96 20.1748C78.9769 20.1494 78.9896 20.1283 78.998 20.1113C79.015 20.069 79.0234 20.0267 79.0234 19.9844C79.0319 19.9336 79.0446 19.887 79.0615 19.8447C79.0869 19.777 79.1081 19.7093 79.125 19.6416C79.1504 19.5654 79.1842 19.485 79.2266 19.4004C79.2435 19.3496 79.2604 19.2988 79.2773 19.248C79.3027 19.1973 79.3281 19.138 79.3535 19.0703C79.3704 19.0195 79.3958 18.973 79.4297 18.9307C79.4635 18.8799 79.4932 18.8291 79.5186 18.7783C79.5693 18.6598 79.6074 18.5667 79.6328 18.499C79.6582 18.4229 79.6921 18.3509 79.7344 18.2832C79.8021 18.1055 79.8783 17.9447 79.9629 17.8008C80.056 17.6484 80.1449 17.4876 80.2295 17.3184C80.2464 17.293 80.2633 17.2718 80.2803 17.2549C80.2972 17.2295 80.3099 17.1999 80.3184 17.166C80.3522 17.1491 80.3776 17.1195 80.3945 17.0771C80.4115 17.0348 80.4368 17.0052 80.4707 16.9883C80.5046 16.9375 80.5299 16.8867 80.5469 16.8359C80.5638 16.7852 80.5892 16.7428 80.623 16.709C80.7161 16.5397 80.7965 16.3704 80.8643 16.2012C80.8812 16.1589 80.8896 16.1208 80.8896 16.0869C80.8981 16.0531 80.9108 16.0192 80.9277 15.9854C80.9785 15.9261 81.0081 15.8796 81.0166 15.8457C81.0335 15.8118 81.0505 15.7822 81.0674 15.7568C81.1012 15.6976 81.1351 15.6426 81.1689 15.5918C81.2113 15.5326 81.2493 15.4691 81.2832 15.4014C81.3255 15.2744 81.3805 15.1602 81.4482 15.0586C81.5244 14.9486 81.5837 14.8343 81.626 14.7158C81.6768 14.6396 81.7064 14.5973 81.7148 14.5889C81.7233 14.5804 81.7275 14.5677 81.7275 14.5508C81.8376 14.3392 81.9349 14.1445 82.0195 13.9668C82.1126 13.7806 82.2057 13.5902 82.2988 13.3955C82.2057 13.4124 82.1211 13.4548 82.0449 13.5225C81.9772 13.5902 81.9053 13.6367 81.8291 13.6621C81.8122 13.6875 81.7952 13.7087 81.7783 13.7256C81.7614 13.7425 81.7445 13.7594 81.7275 13.7764C81.516 13.8779 81.3213 13.9922 81.1436 14.1191C80.9658 14.2461 80.8092 14.4027 80.6738 14.5889C80.6315 14.6058 80.585 14.6312 80.5342 14.665C80.4919 14.6904 80.4495 14.7158 80.4072 14.7412C80.348 14.7666 80.2718 14.7835 80.1787 14.792C80.0856 14.8005 80.0137 14.7708 79.9629 14.7031C79.929 14.4577 79.9502 14.2757 80.0264 14.1572C80.1025 14.0387 80.1745 13.9202 80.2422 13.8018C80.3522 13.7002 80.4707 13.6113 80.5977 13.5352C80.7246 13.4505 80.8473 13.3701 80.9658 13.2939C81.0758 13.2178 81.1436 13.167 81.1689 13.1416C81.2028 13.1162 81.2367 13.0951 81.2705 13.0781C81.4736 12.9427 81.6852 12.7946 81.9053 12.6338C82.0407 12.5153 82.1888 12.4264 82.3496 12.3672C82.5104 12.3164 82.6458 12.2783 82.7559 12.2529C82.8659 12.2191 82.9674 12.181 83.0605 12.1387C83.3314 12.0879 83.5811 12.0244 83.8096 11.9482C84.0381 11.8636 84.2708 11.779 84.5078 11.6943C84.6263 11.6774 84.7363 11.6689 84.8379 11.6689C84.9479 11.6605 85.0664 11.652 85.1934 11.6436C85.2272 11.6689 85.2738 11.6816 85.333 11.6816C85.4007 11.6732 85.46 11.6732 85.5107 11.6816C85.5785 11.6986 85.6419 11.7155 85.7012 11.7324C85.7689 11.7409 85.8366 11.7536 85.9043 11.7705C85.9551 11.8213 86.027 11.8594 86.1201 11.8848C86.2217 11.9017 86.3148 11.9271 86.3994 11.9609C86.4671 11.9948 86.5306 12.0286 86.5898 12.0625C86.6491 12.0879 86.7126 12.1175 86.7803 12.1514C86.8395 12.2191 86.8649 12.2783 86.8564 12.3291C86.8564 12.3799 86.8607 12.4518 86.8691 12.5449C86.8776 12.5872 86.8818 12.6296 86.8818 12.6719C86.8903 12.7057 86.8988 12.7438 86.9072 12.7861C86.9072 12.82 86.9115 12.8496 86.9199 12.875C86.9368 12.9004 86.9453 12.9258 86.9453 12.9512C86.9538 13.0951 86.9622 13.2389 86.9707 13.3828C86.9876 13.5182 86.9876 13.6579 86.9707 13.8018C86.9538 13.9033 86.9242 13.9922 86.8818 14.0684C86.8395 14.1361 86.7972 14.2165 86.7549 14.3096C86.7041 14.3942 86.6491 14.4788 86.5898 14.5635C86.5306 14.6481 86.4671 14.737 86.3994 14.8301C86.374 14.847 86.3486 14.8639 86.3232 14.8809C86.3063 14.8893 86.2936 14.9105 86.2852 14.9443C86.1751 15.029 86.0736 15.0967 85.9805 15.1475C85.8874 15.1982 85.807 15.249 85.7393 15.2998C85.7054 15.3167 85.6715 15.3337 85.6377 15.3506C85.6038 15.3675 85.57 15.3844 85.5361 15.4014C85.5023 15.4352 85.46 15.4691 85.4092 15.5029C85.3584 15.5368 85.3118 15.5706 85.2695 15.6045C85.2018 15.6722 85.1426 15.7188 85.0918 15.7441C85.041 15.7695 85.0072 15.8118 84.9902 15.8711C84.7956 15.9811 84.6221 16.1081 84.4697 16.252C84.3174 16.3874 84.1523 16.5143 83.9746 16.6328C83.9069 16.6921 83.8392 16.7513 83.7715 16.8105C83.7122 16.8698 83.6403 16.9206 83.5557 16.9629C83.4372 17.0137 83.3483 17.0602 83.2891 17.1025C83.2383 17.1449 83.1663 17.1745 83.0732 17.1914C82.9632 17.2591 82.8363 17.3141 82.6924 17.3564C82.557 17.3988 82.4173 17.4284 82.2734 17.4453ZM85.1045 12.4941C85.0706 12.5026 85.0283 12.5068 84.9775 12.5068C84.9268 12.5068 84.8717 12.5153 84.8125 12.5322C84.7279 12.5492 84.6348 12.5788 84.5332 12.6211C84.4316 12.6634 84.3301 12.693 84.2285 12.71C84.0931 12.7438 83.9831 12.7734 83.8984 12.7988C83.8223 12.8242 83.7673 12.8454 83.7334 12.8623C83.7165 12.8792 83.7038 12.9089 83.6953 12.9512C83.6953 12.9935 83.6868 13.0273 83.6699 13.0527C83.6361 13.1374 83.5938 13.2178 83.543 13.2939C83.4922 13.3617 83.4541 13.4294 83.4287 13.4971C83.3356 13.6071 83.2679 13.7171 83.2256 13.8271C83.1833 13.9287 83.141 14.026 83.0986 14.1191C82.9886 14.263 82.904 14.39 82.8447 14.5C82.8024 14.5508 82.777 14.5804 82.7686 14.5889C82.7601 14.5889 82.7559 14.5973 82.7559 14.6143C82.6543 14.7158 82.5697 14.8301 82.502 14.957C82.4427 15.084 82.3665 15.194 82.2734 15.2871C82.2057 15.3887 82.1549 15.4775 82.1211 15.5537C82.0957 15.6299 82.0492 15.6976 81.9814 15.7568C81.9476 15.8245 81.9137 15.8923 81.8799 15.96C81.8545 16.0192 81.8249 16.0827 81.791 16.1504C81.7148 16.3197 81.6217 16.4847 81.5117 16.6455C81.5117 16.6878 81.499 16.7217 81.4736 16.7471C81.4567 16.7725 81.4398 16.8021 81.4229 16.8359C81.4567 16.8613 81.4906 16.8656 81.5244 16.8486C81.5583 16.8317 81.5879 16.8148 81.6133 16.7979C81.8079 16.6878 82.0195 16.5947 82.248 16.5186C82.4766 16.4339 82.6839 16.3281 82.8701 16.2012C83.0309 16.1081 83.179 16.0234 83.3145 15.9473C83.4499 15.8626 83.5811 15.7738 83.708 15.6807C83.835 15.613 83.9323 15.5622 84 15.5283C84.0677 15.486 84.1481 15.4479 84.2412 15.4141C84.3089 15.3548 84.3809 15.304 84.457 15.2617C84.5332 15.2194 84.5924 15.1686 84.6348 15.1094C84.7279 15.0332 84.8125 14.9486 84.8887 14.8555C84.9648 14.7539 85.0452 14.6608 85.1299 14.5762C85.1722 14.5677 85.1976 14.555 85.2061 14.5381C85.2145 14.5127 85.2399 14.5 85.2822 14.5C85.3499 14.4069 85.4303 14.3265 85.5234 14.2588C85.625 14.1826 85.7012 14.098 85.752 14.0049C85.7943 13.9372 85.8239 13.8695 85.8408 13.8018C85.8662 13.734 85.9001 13.6579 85.9424 13.5732C85.9255 13.5055 85.9382 13.4378 85.9805 13.3701C86.0312 13.2939 86.0482 13.2262 86.0312 13.167C86.0143 13.1077 85.9805 13.057 85.9297 13.0146C85.8789 12.9639 85.8408 12.9131 85.8154 12.8623C85.7985 12.7946 85.7773 12.7438 85.752 12.71C85.735 12.6761 85.7181 12.6338 85.7012 12.583C85.6673 12.5661 85.6377 12.5492 85.6123 12.5322C85.5869 12.5153 85.5446 12.5111 85.4854 12.5195C85.443 12.5026 85.3838 12.4984 85.3076 12.5068C85.2399 12.5068 85.1722 12.5026 85.1045 12.4941ZM93.293 11.6816C93.3014 11.724 93.3184 11.762 93.3438 11.7959C93.3691 11.8213 93.3945 11.8424 93.4199 11.8594C93.4284 11.9271 93.4326 11.999 93.4326 12.0752C93.4411 12.1429 93.4538 12.2106 93.4707 12.2783C93.4707 12.3122 93.4707 12.3503 93.4707 12.3926C93.4707 12.4264 93.4834 12.4561 93.5088 12.4814C93.4834 12.7777 93.4411 13.0231 93.3818 13.2178C93.3311 13.404 93.2845 13.6113 93.2422 13.8398C93.2337 13.8822 93.221 13.9245 93.2041 13.9668C93.1956 14.0007 93.1914 14.0387 93.1914 14.0811C93.1829 14.1149 93.1787 14.1445 93.1787 14.1699C93.1872 14.1953 93.1872 14.2249 93.1787 14.2588C93.1618 14.3096 93.1364 14.3646 93.1025 14.4238C93.0687 14.4831 93.0348 14.5465 93.001 14.6143C92.8656 14.8597 92.7132 15.0924 92.5439 15.3125C92.3831 15.5326 92.18 15.7018 91.9346 15.8203C91.8415 15.8626 91.7611 15.9049 91.6934 15.9473C91.6341 15.9811 91.5579 16.0065 91.4648 16.0234C91.4056 16.0573 91.3337 16.0954 91.249 16.1377C91.1729 16.1715 91.0967 16.1969 91.0205 16.2139C90.9867 16.2308 90.9528 16.2393 90.9189 16.2393C90.8851 16.2393 90.8512 16.2435 90.8174 16.252C90.7751 16.2689 90.737 16.2858 90.7031 16.3027C90.6777 16.3112 90.6523 16.3197 90.627 16.3281C90.5592 16.3451 90.5085 16.3535 90.4746 16.3535C90.4154 16.3451 90.373 16.3112 90.3477 16.252C90.3223 16.1842 90.3096 16.1165 90.3096 16.0488C90.2757 16.015 90.2376 15.9854 90.1953 15.96C90.153 15.9346 90.1234 15.888 90.1064 15.8203C90.0811 15.7272 90.0641 15.6764 90.0557 15.668C90.0472 15.6595 90.0387 15.6468 90.0303 15.6299C89.988 15.5114 89.971 15.3802 89.9795 15.2363C89.9964 15.084 90.0303 14.9613 90.0811 14.8682C90.098 14.8258 90.1234 14.7962 90.1572 14.7793C90.1911 14.7539 90.2122 14.7201 90.2207 14.6777C90.2884 14.6354 90.3477 14.5931 90.3984 14.5508C90.4492 14.5 90.5085 14.4535 90.5762 14.4111C90.6608 14.2673 90.7581 14.1572 90.8682 14.0811C90.9782 14.0049 91.084 13.9245 91.1855 13.8398C91.2194 13.8145 91.2448 13.7848 91.2617 13.751C91.2871 13.7171 91.321 13.6833 91.3633 13.6494C91.3887 13.624 91.4183 13.6029 91.4521 13.5859C91.486 13.5605 91.5156 13.5394 91.541 13.5225C91.5579 13.5055 91.5749 13.4886 91.5918 13.4717C91.6087 13.4548 91.6257 13.4378 91.6426 13.4209C91.6764 13.404 91.7103 13.3955 91.7441 13.3955C91.778 13.3955 91.8118 13.387 91.8457 13.3701C91.9642 13.3532 92.0234 13.3617 92.0234 13.3955C92.0234 13.4209 92.0234 13.4505 92.0234 13.4844C91.9811 13.5098 91.9303 13.5352 91.8711 13.5605C91.8118 13.5775 91.7526 13.5944 91.6934 13.6113C91.6764 13.679 91.6383 13.7298 91.5791 13.7637C91.5283 13.7975 91.4818 13.8441 91.4395 13.9033C91.4056 13.9456 91.376 13.988 91.3506 14.0303C91.3337 14.0641 91.2956 14.0895 91.2363 14.1064C91.194 14.208 91.139 14.2969 91.0713 14.373C91.012 14.4408 90.9528 14.5127 90.8936 14.5889C90.8936 14.682 90.8724 14.7624 90.8301 14.8301C90.7962 14.8893 90.7581 14.9528 90.7158 15.0205C90.6989 15.0544 90.682 15.0882 90.665 15.1221C90.6481 15.1559 90.6396 15.1813 90.6396 15.1982C90.6481 15.2152 90.6566 15.2406 90.665 15.2744C90.682 15.2998 90.6989 15.3252 90.7158 15.3506C90.7327 15.376 90.7497 15.3971 90.7666 15.4141C90.792 15.431 90.8089 15.4521 90.8174 15.4775C91.0205 15.3506 91.2194 15.2236 91.4141 15.0967C91.6172 14.9697 91.7907 14.8174 91.9346 14.6396C91.9769 14.5635 92.015 14.4915 92.0488 14.4238C92.0911 14.3477 92.1335 14.2673 92.1758 14.1826C92.1927 14.098 92.2181 14.0176 92.252 13.9414C92.2858 13.8652 92.3239 13.7891 92.3662 13.7129C92.4085 13.6283 92.4466 13.5436 92.4805 13.459C92.5143 13.3743 92.5355 13.2855 92.5439 13.1924C92.5524 13.1247 92.5524 13.0527 92.5439 12.9766C92.5439 12.8919 92.5566 12.8285 92.582 12.7861C92.5651 12.7438 92.5651 12.6888 92.582 12.6211C92.599 12.5449 92.6032 12.473 92.5947 12.4053C92.5355 12.2783 92.4762 12.2064 92.417 12.1895C92.3577 12.1641 92.2943 12.1429 92.2266 12.126C92.1589 12.1683 92.0869 12.2148 92.0107 12.2656C91.9346 12.3164 91.8626 12.3714 91.7949 12.4307C91.7441 12.4814 91.6891 12.5322 91.6299 12.583C91.5791 12.6338 91.5368 12.693 91.5029 12.7607C91.3929 12.8792 91.304 12.985 91.2363 13.0781C91.1686 13.1628 91.1009 13.2516 91.0332 13.3447C90.8893 13.4378 90.7581 13.5394 90.6396 13.6494C90.5212 13.7594 90.39 13.861 90.2461 13.9541C90.1361 14.0387 90.026 14.1276 89.916 14.2207C89.8145 14.3053 89.7171 14.3942 89.624 14.4873C89.5394 14.5804 89.4505 14.6693 89.3574 14.7539C89.2643 14.8301 89.1797 14.9147 89.1035 15.0078C89.0358 15.1009 88.9639 15.1982 88.8877 15.2998C88.8115 15.3929 88.7354 15.486 88.6592 15.5791C88.6169 15.6214 88.5788 15.668 88.5449 15.7188C88.5111 15.7695 88.473 15.8203 88.4307 15.8711C88.3883 15.9134 88.346 15.96 88.3037 16.0107C88.2699 16.0615 88.236 16.1081 88.2021 16.1504C88.1768 16.1927 88.1556 16.2393 88.1387 16.29C88.1217 16.3324 88.1006 16.3747 88.0752 16.417C87.9906 16.5186 87.9059 16.6243 87.8213 16.7344C87.7451 16.8359 87.6774 16.9544 87.6182 17.0898C87.5166 17.2253 87.4362 17.3607 87.377 17.4961C87.3262 17.623 87.2669 17.75 87.1992 17.877C87.1823 17.9954 87.1484 18.1012 87.0977 18.1943C87.0553 18.2874 87.0257 18.3932 87.0088 18.5117C87.0003 18.571 86.9834 18.6302 86.958 18.6895C86.9411 18.7402 86.9284 18.7995 86.9199 18.8672C86.903 18.9264 86.8945 18.9899 86.8945 19.0576C86.8945 19.1169 86.8861 19.1719 86.8691 19.2227C86.8184 19.3327 86.793 19.4131 86.793 19.4639C86.793 19.5062 86.7718 19.54 86.7295 19.5654C86.7549 19.6331 86.776 19.6924 86.793 19.7432C86.8184 19.7939 86.8522 19.8447 86.8945 19.8955C86.9115 19.9294 86.9368 19.959 86.9707 19.9844C87.0046 20.0098 87.0299 20.0394 87.0469 20.0732C87.0807 20.1579 87.1061 20.2087 87.123 20.2256C87.1484 20.2425 87.1781 20.2637 87.2119 20.2891C87.2373 20.306 87.2669 20.3271 87.3008 20.3525C87.3431 20.3779 87.3812 20.3949 87.415 20.4033C87.4574 20.4202 87.4997 20.4287 87.542 20.4287C87.5928 20.4202 87.6393 20.4202 87.6816 20.4287C87.724 20.4287 87.762 20.4329 87.7959 20.4414C87.8298 20.4414 87.8678 20.4372 87.9102 20.4287C87.9779 20.4118 88.0583 20.3949 88.1514 20.3779C88.2445 20.3525 88.3291 20.3314 88.4053 20.3145C88.5238 20.2806 88.638 20.2467 88.748 20.2129C88.8665 20.179 88.9766 20.141 89.0781 20.0986C89.1882 20.0563 89.277 19.9971 89.3447 19.9209C89.4124 19.8447 89.4886 19.7855 89.5732 19.7432C89.7087 19.6416 89.8018 19.5612 89.8525 19.502C89.9118 19.4342 89.9753 19.3792 90.043 19.3369C90.1022 19.2607 90.1361 19.2227 90.1445 19.2227C90.153 19.2227 90.1615 19.2184 90.1699 19.21C90.2292 19.1423 90.2842 19.083 90.335 19.0322C90.3942 18.973 90.4535 18.9095 90.5127 18.8418C90.6058 18.7995 90.682 18.7445 90.7412 18.6768C90.8089 18.6514 90.8639 18.6175 90.9062 18.5752C90.957 18.5329 91.0078 18.4906 91.0586 18.4482C91.1263 18.3975 91.1729 18.3594 91.1982 18.334C91.2321 18.3001 91.2617 18.2663 91.2871 18.2324C91.321 18.1986 91.3548 18.1605 91.3887 18.1182C91.4056 18.1012 91.431 18.0843 91.4648 18.0674C91.4987 18.042 91.5326 18.0081 91.5664 17.9658C91.5833 17.9404 91.6003 17.9066 91.6172 17.8643C91.6341 17.8219 91.6637 17.8008 91.7061 17.8008C91.7568 17.7923 91.8118 17.8177 91.8711 17.877C91.9303 17.9277 91.96 17.9827 91.96 18.042C91.8838 18.1605 91.8415 18.2324 91.833 18.2578C91.7738 18.3424 91.7103 18.4229 91.6426 18.499C91.5749 18.5752 91.5072 18.6598 91.4395 18.7529C91.3717 18.8291 91.304 18.9095 91.2363 18.9941C91.1686 19.0703 91.1051 19.1549 91.0459 19.248C90.9867 19.3411 90.9189 19.4258 90.8428 19.502C90.7751 19.5697 90.7031 19.6458 90.627 19.7305C90.5169 19.849 90.4069 19.959 90.2969 20.0605C90.1953 20.1621 90.098 20.2848 90.0049 20.4287C89.9626 20.471 89.9202 20.5133 89.8779 20.5557C89.8356 20.5895 89.7933 20.6276 89.751 20.6699C89.7087 20.6953 89.6663 20.7249 89.624 20.7588C89.5902 20.7842 89.5521 20.8096 89.5098 20.835C89.3405 20.8942 89.167 20.9704 88.9893 21.0635C88.82 21.165 88.6296 21.2454 88.418 21.3047C88.3249 21.3301 88.2275 21.3597 88.126 21.3936C88.0329 21.4274 87.9271 21.4401 87.8086 21.4316C87.7917 21.4232 87.7705 21.4189 87.7451 21.4189C87.7197 21.4189 87.6943 21.4147 87.6689 21.4062C87.6182 21.3978 87.5632 21.3809 87.5039 21.3555C87.4531 21.3301 87.3939 21.3132 87.3262 21.3047C87.2839 21.3047 87.2458 21.3089 87.2119 21.3174C87.1781 21.3343 87.14 21.3428 87.0977 21.3428C86.9115 21.2243 86.7591 21.1227 86.6406 21.0381C86.5306 20.9619 86.429 20.8688 86.3359 20.7588C86.2682 20.6488 86.2217 20.5811 86.1963 20.5557C86.1709 20.5218 86.1413 20.4837 86.1074 20.4414C86.0736 20.3906 86.0397 20.3398 86.0059 20.2891C85.972 20.2298 85.9382 20.1663 85.9043 20.0986C85.9043 20.0648 85.8916 20.0352 85.8662 20.0098C85.8493 19.9844 85.8324 19.9548 85.8154 19.9209C85.7731 19.777 85.752 19.6289 85.752 19.4766C85.752 19.3158 85.7562 19.1592 85.7646 19.0068C85.7731 18.9645 85.7731 18.9264 85.7646 18.8926C85.7562 18.8503 85.752 18.8079 85.752 18.7656C85.752 18.6979 85.7646 18.626 85.79 18.5498C85.8154 18.4736 85.8366 18.4017 85.8535 18.334C85.9043 18.1478 85.9593 17.9743 86.0186 17.8135C86.0863 17.6442 86.1624 17.4876 86.2471 17.3438C86.3232 17.2422 86.3783 17.1449 86.4121 17.0518C86.4544 16.9587 86.4967 16.8613 86.5391 16.7598C86.5814 16.6667 86.6237 16.5778 86.666 16.4932C86.7083 16.4001 86.7549 16.307 86.8057 16.2139C86.848 16.1292 86.8903 16.0446 86.9326 15.96C86.9834 15.8753 87.0469 15.7992 87.123 15.7314C87.1484 15.6383 87.1865 15.5622 87.2373 15.5029C87.2881 15.4352 87.3389 15.3675 87.3896 15.2998C87.4743 15.1813 87.5589 15.0713 87.6436 14.9697C87.7367 14.8682 87.8171 14.7539 87.8848 14.627C87.9525 14.5762 88.0117 14.5212 88.0625 14.4619C88.1217 14.4027 88.1768 14.3434 88.2275 14.2842C88.2868 14.2165 88.3418 14.1572 88.3926 14.1064C88.4518 14.0472 88.5111 13.9837 88.5703 13.916C88.6042 13.8906 88.6338 13.8652 88.6592 13.8398C88.693 13.806 88.7227 13.7764 88.748 13.751C88.8073 13.6833 88.8665 13.624 88.9258 13.5732C88.985 13.5225 89.0485 13.4717 89.1162 13.4209C89.1924 13.387 89.2643 13.3405 89.332 13.2812C89.4082 13.2051 89.4801 13.1289 89.5479 13.0527C89.624 12.9681 89.7002 12.8919 89.7764 12.8242C89.8949 12.7057 90.0176 12.5915 90.1445 12.4814C90.2715 12.363 90.4069 12.2572 90.5508 12.1641C90.6354 12.071 90.737 11.9948 90.8555 11.9355C90.974 11.8678 91.0924 11.8044 91.2109 11.7451C91.2786 11.7197 91.3337 11.6986 91.376 11.6816C91.4268 11.6562 91.4818 11.6266 91.541 11.5928C91.6341 11.5335 91.7018 11.5039 91.7441 11.5039C91.7865 11.4954 91.8203 11.4743 91.8457 11.4404C91.9473 11.4404 92.0361 11.4277 92.1123 11.4023C92.1885 11.3685 92.2731 11.3643 92.3662 11.3896C92.4001 11.3981 92.4297 11.4108 92.4551 11.4277C92.4805 11.4362 92.5059 11.4447 92.5312 11.4531C92.6921 11.4701 92.8063 11.4954 92.874 11.5293C92.9417 11.5632 93.0052 11.597 93.0645 11.6309C93.1322 11.6562 93.2083 11.6732 93.293 11.6816Z" fill="white"/>
<path d="M31.3013 25.8311H30.1587V29H29.6924V25.8311H28.5522V25.4453H31.3013V25.8311ZM32.2095 26.6782C32.4097 26.4325 32.6701 26.3096 32.9907 26.3096C33.549 26.3096 33.8306 26.6245 33.8354 27.2544V29H33.3838V27.252C33.3822 27.0615 33.3382 26.9207 33.252 26.8296C33.1673 26.7384 33.0347 26.6929 32.854 26.6929C32.7075 26.6929 32.5789 26.7319 32.4683 26.8101C32.3576 26.8882 32.2713 26.9907 32.2095 27.1177V29H31.7578V25.25H32.2095V26.6782ZM35.6079 29.0488C35.2498 29.0488 34.9585 28.9316 34.7339 28.6973C34.5093 28.4613 34.397 28.1463 34.397 27.7524V27.6694C34.397 27.4074 34.4466 27.1738 34.5459 26.9688C34.6468 26.762 34.7868 26.6009 34.9658 26.4854C35.1465 26.3682 35.3418 26.3096 35.5518 26.3096C35.8952 26.3096 36.1621 26.4227 36.3525 26.6489C36.543 26.8752 36.6382 27.1991 36.6382 27.6206V27.8086H34.8486C34.8551 28.069 34.9308 28.2798 35.0757 28.4409C35.2222 28.6004 35.4077 28.6802 35.6323 28.6802C35.7918 28.6802 35.9269 28.6476 36.0376 28.5825C36.1483 28.5174 36.2451 28.4312 36.3281 28.3237L36.604 28.5386C36.3826 28.8787 36.0506 29.0488 35.6079 29.0488ZM35.5518 26.6807C35.3695 26.6807 35.2165 26.7474 35.0928 26.8809C34.9691 27.0127 34.8926 27.1982 34.8633 27.4375H36.1865V27.4033C36.1735 27.1738 36.1117 26.9964 36.001 26.8711C35.8903 26.7441 35.7406 26.6807 35.5518 26.6807ZM39.9292 27.999H39.2847L39.0894 29H38.7402L38.9355 27.999H38.3521V27.6646H38.999L39.1675 26.8003H38.5376V26.4609H39.2334L39.4336 25.4453H39.7827L39.5825 26.4609H40.2271L40.4272 25.4453H40.7788L40.5786 26.4609H41.0767V26.8003H40.5127L40.3442 27.6646H40.8936V27.999H40.2808L40.0854 29H39.7339L39.9292 27.999ZM39.3481 27.6646H39.9927L40.1611 26.8003H39.5166L39.3481 27.6646ZM42.9224 29H42.4683V25.9897L41.5576 26.3242V25.9141L42.8516 25.4282H42.9224V29ZM46.1426 27.0029H46.4819C46.6951 26.9997 46.8628 26.9435 46.9849 26.8345C47.1069 26.7254 47.168 26.5781 47.168 26.3926C47.168 25.9759 46.9604 25.7676 46.5454 25.7676C46.3501 25.7676 46.1938 25.8237 46.0767 25.936C45.9611 26.0467 45.9033 26.194 45.9033 26.3779H45.4517C45.4517 26.0964 45.5542 25.8628 45.7593 25.6772C45.966 25.4901 46.228 25.3965 46.5454 25.3965C46.8807 25.3965 47.1436 25.4852 47.334 25.6626C47.5244 25.84 47.6196 26.0866 47.6196 26.4023C47.6196 26.557 47.5692 26.7067 47.4683 26.8516C47.369 26.9964 47.2331 27.1047 47.0605 27.1763C47.2559 27.2381 47.4064 27.3407 47.5122 27.4839C47.6196 27.6271 47.6733 27.8021 47.6733 28.0088C47.6733 28.3278 47.5692 28.5809 47.3608 28.7681C47.1525 28.9552 46.8815 29.0488 46.5479 29.0488C46.2142 29.0488 45.9424 28.9585 45.7324 28.7778C45.5241 28.5972 45.4199 28.3587 45.4199 28.0625H45.874C45.874 28.2497 45.9351 28.3994 46.0571 28.5117C46.1792 28.624 46.3428 28.6802 46.5479 28.6802C46.766 28.6802 46.9328 28.6232 47.0483 28.5093C47.1639 28.3953 47.2217 28.2318 47.2217 28.0186C47.2217 27.8118 47.1582 27.6532 47.0312 27.5425C46.9043 27.4318 46.7212 27.3748 46.4819 27.3716H46.1426V27.0029ZM49.6167 26.7637C49.5483 26.7523 49.4743 26.7466 49.3945 26.7466C49.0983 26.7466 48.8973 26.8727 48.7915 27.125V29H48.3398V26.3584H48.7793L48.7866 26.6636C48.9347 26.4276 49.1447 26.3096 49.4165 26.3096C49.5044 26.3096 49.5711 26.321 49.6167 26.3438V26.7637ZM49.8755 27.6572C49.8755 27.252 49.9715 26.9264 50.1636 26.6807C50.3556 26.4333 50.6071 26.3096 50.918 26.3096C51.2272 26.3096 51.4722 26.4154 51.6528 26.627V25.25H52.1045V29H51.6895L51.6675 28.7168C51.4868 28.9382 51.2354 29.0488 50.9131 29.0488C50.6071 29.0488 50.3573 28.9235 50.1636 28.6729C49.9715 28.4222 49.8755 28.0951 49.8755 27.6914V27.6572ZM50.3271 27.7085C50.3271 28.008 50.389 28.2424 50.5127 28.4116C50.6364 28.5809 50.8073 28.6655 51.0254 28.6655C51.3118 28.6655 51.521 28.5369 51.6528 28.2798V27.0664C51.5177 26.8174 51.3102 26.6929 51.0303 26.6929C50.8089 26.6929 50.6364 26.7783 50.5127 26.9492C50.389 27.1201 50.3271 27.3732 50.3271 27.7085ZM53.7476 27.6743H52.5562V27.3057H53.7476V27.6743ZM56.4209 27.7085C56.4209 28.1105 56.3289 28.4344 56.145 28.6802C55.9611 28.9259 55.7121 29.0488 55.3979 29.0488C55.0773 29.0488 54.825 28.9471 54.6411 28.7437V30.0156H54.1895V26.3584H54.6021L54.624 26.6514C54.8079 26.4235 55.0635 26.3096 55.3906 26.3096C55.708 26.3096 55.9587 26.4292 56.1426 26.6685C56.3281 26.9077 56.4209 27.2406 56.4209 27.667V27.7085ZM55.9692 27.6572C55.9692 27.3594 55.9058 27.1242 55.7788 26.9517C55.6519 26.7791 55.4777 26.6929 55.2563 26.6929C54.9829 26.6929 54.7778 26.8141 54.6411 27.0566V28.3188C54.7762 28.5597 54.9829 28.6802 55.2612 28.6802C55.4777 28.6802 55.6494 28.5947 55.7764 28.4238C55.9049 28.2513 55.9692 27.9958 55.9692 27.6572ZM58.6279 29C58.6019 28.9479 58.5807 28.8551 58.5645 28.7217C58.3545 28.9398 58.1038 29.0488 57.8125 29.0488C57.5521 29.0488 57.3381 28.9756 57.1704 28.8291C57.0044 28.681 56.9214 28.4938 56.9214 28.2676C56.9214 27.9925 57.0256 27.7793 57.2339 27.6279C57.4438 27.4749 57.7384 27.3984 58.1177 27.3984H58.5571V27.1909C58.5571 27.033 58.5099 26.9077 58.4155 26.8149C58.3211 26.7205 58.182 26.6733 57.998 26.6733C57.8369 26.6733 57.7018 26.714 57.5928 26.7954C57.4837 26.8768 57.4292 26.9753 57.4292 27.0908H56.9751C56.9751 26.959 57.0215 26.832 57.1143 26.71C57.2087 26.5863 57.3356 26.4886 57.4951 26.417C57.6562 26.3454 57.8328 26.3096 58.0249 26.3096C58.3293 26.3096 58.5677 26.3861 58.7402 26.5391C58.9128 26.6904 59.0023 26.8996 59.0088 27.1665V28.3823C59.0088 28.6248 59.0397 28.8177 59.1016 28.9609V29H58.6279ZM57.8784 28.6558C58.02 28.6558 58.1543 28.6191 58.2812 28.5459C58.4082 28.4727 58.5002 28.3774 58.5571 28.2603V27.7183H58.2031C57.6497 27.7183 57.373 27.8802 57.373 28.2041C57.373 28.3457 57.4202 28.4564 57.5146 28.5361C57.609 28.6159 57.7303 28.6558 57.8784 28.6558ZM60.9937 26.7637C60.9253 26.7523 60.8512 26.7466 60.7715 26.7466C60.4753 26.7466 60.2743 26.8727 60.1685 27.125V29H59.7168V26.3584H60.1562L60.1636 26.6636C60.3117 26.4276 60.5216 26.3096 60.7935 26.3096C60.8813 26.3096 60.9481 26.321 60.9937 26.3438V26.7637ZM62.146 25.7188V26.3584H62.6392V26.7075H62.146V28.3457C62.146 28.4515 62.168 28.5312 62.2119 28.585C62.2559 28.637 62.3307 28.6631 62.4365 28.6631C62.4886 28.6631 62.5602 28.6533 62.6514 28.6338V29C62.5326 29.0326 62.417 29.0488 62.3047 29.0488C62.1029 29.0488 61.9507 28.9878 61.8481 28.8657C61.7456 28.7437 61.6943 28.5703 61.6943 28.3457V26.7075H61.2134V26.3584H61.6943V25.7188H62.146ZM64.0332 28.3384L64.6484 26.3584H65.1318L64.0698 29.4077C63.9054 29.8472 63.6442 30.0669 63.2861 30.0669L63.2007 30.0596L63.0322 30.0278V29.6616L63.1543 29.6714C63.3073 29.6714 63.4261 29.6405 63.5107 29.5786C63.597 29.5168 63.6678 29.4036 63.7231 29.2393L63.8232 28.9707L62.8809 26.3584H63.374L64.0332 28.3384ZM66.9995 29V26.7075H66.582V26.3584H66.9995V26.0874C66.9995 25.8042 67.0752 25.5853 67.2266 25.4307C67.3779 25.276 67.592 25.1987 67.8687 25.1987C67.9728 25.1987 68.0762 25.2126 68.1787 25.2402L68.1543 25.6064C68.0778 25.5918 67.9964 25.5845 67.9102 25.5845C67.7637 25.5845 67.6506 25.6276 67.5708 25.7139C67.491 25.7985 67.4512 25.9206 67.4512 26.0801V26.3584H68.0151V26.7075H67.4512V29H66.9995ZM69.7925 26.7637C69.7241 26.7523 69.6501 26.7466 69.5703 26.7466C69.2741 26.7466 69.0731 26.8727 68.9673 27.125V29H68.5156V26.3584H68.9551L68.9624 26.6636C69.1105 26.4276 69.3205 26.3096 69.5923 26.3096C69.6802 26.3096 69.7469 26.321 69.7925 26.3438V26.7637ZM71.2573 29.0488C70.8993 29.0488 70.6079 28.9316 70.3833 28.6973C70.1587 28.4613 70.0464 28.1463 70.0464 27.7524V27.6694C70.0464 27.4074 70.096 27.1738 70.1953 26.9688C70.2962 26.762 70.4362 26.6009 70.6152 26.4854C70.7959 26.3682 70.9912 26.3096 71.2012 26.3096C71.5446 26.3096 71.8115 26.4227 72.002 26.6489C72.1924 26.8752 72.2876 27.1991 72.2876 27.6206V27.8086H70.498C70.5046 28.069 70.5802 28.2798 70.7251 28.4409C70.8716 28.6004 71.0571 28.6802 71.2817 28.6802C71.4412 28.6802 71.5763 28.6476 71.687 28.5825C71.7977 28.5174 71.8945 28.4312 71.9775 28.3237L72.2534 28.5386C72.0321 28.8787 71.7 29.0488 71.2573 29.0488ZM71.2012 26.6807C71.0189 26.6807 70.8659 26.7474 70.7422 26.8809C70.6185 27.0127 70.542 27.1982 70.5127 27.4375H71.8359V27.4033C71.8229 27.1738 71.7611 26.9964 71.6504 26.8711C71.5397 26.7441 71.39 26.6807 71.2012 26.6807ZM73.9087 29.0488C73.5506 29.0488 73.2593 28.9316 73.0347 28.6973C72.8101 28.4613 72.6978 28.1463 72.6978 27.7524V27.6694C72.6978 27.4074 72.7474 27.1738 72.8467 26.9688C72.9476 26.762 73.0876 26.6009 73.2666 26.4854C73.4473 26.3682 73.6426 26.3096 73.8525 26.3096C74.196 26.3096 74.4629 26.4227 74.6533 26.6489C74.8438 26.8752 74.939 27.1991 74.939 27.6206V27.8086H73.1494C73.1559 28.069 73.2316 28.2798 73.3765 28.4409C73.5229 28.6004 73.7085 28.6802 73.9331 28.6802C74.0926 28.6802 74.2277 28.6476 74.3384 28.5825C74.4491 28.5174 74.5459 28.4312 74.6289 28.3237L74.9048 28.5386C74.6834 28.8787 74.3514 29.0488 73.9087 29.0488ZM73.8525 26.6807C73.6702 26.6807 73.5173 26.7474 73.3936 26.8809C73.2699 27.0127 73.1934 27.1982 73.1641 27.4375H74.4873V27.4033C74.4743 27.1738 74.4124 26.9964 74.3018 26.8711C74.1911 26.7441 74.0413 26.6807 73.8525 26.6807ZM77.3804 25.4453L78.5425 28.3457L79.7046 25.4453H80.3125V29H79.8438V27.6157L79.8877 26.1216L78.7207 29H78.3618L77.1973 26.1289L77.2437 27.6157V29H76.7749V25.4453H77.3804ZM81.5601 29H81.1084V26.3584H81.5601V29ZM81.0718 25.6577C81.0718 25.5845 81.0938 25.5226 81.1377 25.4722C81.1833 25.4217 81.25 25.3965 81.3379 25.3965C81.4258 25.3965 81.4925 25.4217 81.5381 25.4722C81.5837 25.5226 81.6064 25.5845 81.6064 25.6577C81.6064 25.731 81.5837 25.792 81.5381 25.8408C81.4925 25.8896 81.4258 25.9141 81.3379 25.9141C81.25 25.9141 81.1833 25.8896 81.1377 25.8408C81.0938 25.792 81.0718 25.731 81.0718 25.6577ZM82.7124 26.3584L82.7271 26.6904C82.9289 26.4365 83.1925 26.3096 83.5181 26.3096C84.0763 26.3096 84.3579 26.6245 84.3628 27.2544V29H83.9111V27.252C83.9095 27.0615 83.8656 26.9207 83.7793 26.8296C83.6947 26.7384 83.562 26.6929 83.3813 26.6929C83.2349 26.6929 83.1063 26.7319 82.9956 26.8101C82.8849 26.8882 82.7987 26.9907 82.7368 27.1177V29H82.2852V26.3584H82.7124ZM86.1401 29.0488C85.7821 29.0488 85.4907 28.9316 85.2661 28.6973C85.0415 28.4613 84.9292 28.1463 84.9292 27.7524V27.6694C84.9292 27.4074 84.9788 27.1738 85.0781 26.9688C85.179 26.762 85.319 26.6009 85.498 26.4854C85.6787 26.3682 85.874 26.3096 86.084 26.3096C86.4274 26.3096 86.6943 26.4227 86.8848 26.6489C87.0752 26.8752 87.1704 27.1991 87.1704 27.6206V27.8086H85.3809C85.3874 28.069 85.4631 28.2798 85.6079 28.4409C85.7544 28.6004 85.9399 28.6802 86.1646 28.6802C86.3241 28.6802 86.4591 28.6476 86.5698 28.5825C86.6805 28.5174 86.7773 28.4312 86.8604 28.3237L87.1362 28.5386C86.9149 28.8787 86.5828 29.0488 86.1401 29.0488ZM86.084 26.6807C85.9017 26.6807 85.7487 26.7474 85.625 26.8809C85.5013 27.0127 85.4248 27.1982 85.3955 27.4375H86.7188V27.4033C86.7057 27.1738 86.6439 26.9964 86.5332 26.8711C86.4225 26.7441 86.2728 26.6807 86.084 26.6807ZM88.7549 28.6802C88.916 28.6802 89.0568 28.6313 89.1772 28.5337C89.2977 28.436 89.3644 28.314 89.3774 28.1675H89.8047C89.7965 28.3188 89.7445 28.4629 89.6484 28.5996C89.5524 28.7363 89.4238 28.8454 89.2627 28.9268C89.1032 29.0081 88.9339 29.0488 88.7549 29.0488C88.3952 29.0488 88.1087 28.9292 87.8955 28.6899C87.6839 28.4491 87.5781 28.1203 87.5781 27.7036V27.6279C87.5781 27.3708 87.6253 27.1421 87.7197 26.9419C87.8141 26.7417 87.9492 26.5863 88.125 26.4756C88.3024 26.3649 88.5116 26.3096 88.7524 26.3096C89.0487 26.3096 89.2944 26.3983 89.4897 26.5757C89.6867 26.7531 89.7917 26.9834 89.8047 27.2666H89.3774C89.3644 27.0957 89.2993 26.9557 89.1821 26.8467C89.0666 26.736 88.9233 26.6807 88.7524 26.6807C88.5229 26.6807 88.3447 26.7637 88.2178 26.9297C88.0924 27.0941 88.0298 27.3325 88.0298 27.645V27.7305C88.0298 28.0348 88.0924 28.2692 88.2178 28.4336C88.3431 28.598 88.5221 28.6802 88.7549 28.6802ZM91.5894 26.7637C91.521 26.7523 91.4469 26.7466 91.3672 26.7466C91.071 26.7466 90.87 26.8727 90.7642 27.125V29H90.3125V26.3584H90.752L90.7593 26.6636C90.9074 26.4276 91.1174 26.3096 91.3892 26.3096C91.4771 26.3096 91.5438 26.321 91.5894 26.3438V26.7637ZM93.54 29C93.514 28.9479 93.4928 28.8551 93.4766 28.7217C93.2666 28.9398 93.016 29.0488 92.7246 29.0488C92.4642 29.0488 92.2502 28.9756 92.0825 28.8291C91.9165 28.681 91.8335 28.4938 91.8335 28.2676C91.8335 27.9925 91.9377 27.7793 92.146 27.6279C92.356 27.4749 92.6506 27.3984 93.0298 27.3984H93.4692V27.1909C93.4692 27.033 93.422 26.9077 93.3276 26.8149C93.2332 26.7205 93.0941 26.6733 92.9102 26.6733C92.749 26.6733 92.6139 26.714 92.5049 26.7954C92.3958 26.8768 92.3413 26.9753 92.3413 27.0908H91.8872C91.8872 26.959 91.9336 26.832 92.0264 26.71C92.1208 26.5863 92.2477 26.4886 92.4072 26.417C92.5684 26.3454 92.745 26.3096 92.937 26.3096C93.2414 26.3096 93.4798 26.3861 93.6523 26.5391C93.8249 26.6904 93.9144 26.8996 93.9209 27.1665V28.3823C93.9209 28.6248 93.9518 28.8177 94.0137 28.9609V29H93.54ZM92.7905 28.6558C92.9321 28.6558 93.0664 28.6191 93.1934 28.5459C93.3203 28.4727 93.4123 28.3774 93.4692 28.2603V27.7183H93.1152C92.5618 27.7183 92.2852 27.8802 92.2852 28.2041C92.2852 28.3457 92.3324 28.4564 92.4268 28.5361C92.5212 28.6159 92.6424 28.6558 92.7905 28.6558ZM94.8511 29V26.7075H94.4336V26.3584H94.8511V26.0874C94.8511 25.8042 94.9268 25.5853 95.0781 25.4307C95.2295 25.276 95.4435 25.1987 95.7202 25.1987C95.8244 25.1987 95.9277 25.2126 96.0303 25.2402L96.0059 25.6064C95.9294 25.5918 95.848 25.5845 95.7617 25.5845C95.6152 25.5845 95.5021 25.6276 95.4224 25.7139C95.3426 25.7985 95.3027 25.9206 95.3027 26.0801V26.3584H95.8667V26.7075H95.3027V29H94.8511ZM96.98 25.7188V26.3584H97.4731V26.7075H96.98V28.3457C96.98 28.4515 97.002 28.5312 97.0459 28.585C97.0898 28.637 97.1647 28.6631 97.2705 28.6631C97.3226 28.6631 97.3942 28.6533 97.4854 28.6338V29C97.3665 29.0326 97.251 29.0488 97.1387 29.0488C96.9368 29.0488 96.7847 28.9878 96.6821 28.8657C96.5796 28.7437 96.5283 28.5703 96.5283 28.3457V26.7075H96.0474V26.3584H96.5283V25.7188H96.98ZM100.303 28.6802C100.464 28.6802 100.605 28.6313 100.725 28.5337C100.846 28.436 100.912 28.314 100.925 28.1675H101.353C101.344 28.3188 101.292 28.4629 101.196 28.5996C101.1 28.7363 100.972 28.8454 100.811 28.9268C100.651 29.0081 100.482 29.0488 100.303 29.0488C99.943 29.0488 99.6566 28.9292 99.4434 28.6899C99.2318 28.4491 99.126 28.1203 99.126 27.7036V27.6279C99.126 27.3708 99.1732 27.1421 99.2676 26.9419C99.362 26.7417 99.4971 26.5863 99.6729 26.4756C99.8503 26.3649 100.059 26.3096 100.3 26.3096C100.597 26.3096 100.842 26.3983 101.038 26.5757C101.235 26.7531 101.34 26.9834 101.353 27.2666H100.925C100.912 27.0957 100.847 26.9557 100.73 26.8467C100.614 26.736 100.471 26.6807 100.3 26.6807C100.071 26.6807 99.8926 26.7637 99.7656 26.9297C99.6403 27.0941 99.5776 27.3325 99.5776 27.645V27.7305C99.5776 28.0348 99.6403 28.2692 99.7656 28.4336C99.891 28.598 100.07 28.6802 100.303 28.6802ZM101.741 27.6548C101.741 27.396 101.791 27.1632 101.892 26.9565C101.995 26.7498 102.136 26.5903 102.317 26.478C102.499 26.3657 102.707 26.3096 102.939 26.3096C103.299 26.3096 103.59 26.4341 103.811 26.6831C104.034 26.9321 104.146 27.2633 104.146 27.6768V27.7085C104.146 27.9657 104.096 28.1968 103.997 28.4019C103.899 28.6053 103.758 28.764 103.574 28.8779C103.392 28.9919 103.182 29.0488 102.944 29.0488C102.586 29.0488 102.296 28.9243 102.073 28.6753C101.851 28.4263 101.741 28.0967 101.741 27.6865V27.6548ZM102.195 27.7085C102.195 28.0015 102.262 28.2367 102.397 28.4141C102.534 28.5915 102.716 28.6802 102.944 28.6802C103.174 28.6802 103.356 28.5907 103.491 28.4116C103.626 28.231 103.694 27.9787 103.694 27.6548C103.694 27.3651 103.625 27.1307 103.486 26.9517C103.35 26.771 103.167 26.6807 102.939 26.6807C102.716 26.6807 102.537 26.7694 102.4 26.9468C102.263 27.1242 102.195 27.3781 102.195 27.7085ZM106.25 28.2993C106.25 28.1772 106.204 28.0828 106.111 28.0161C106.02 27.9478 105.859 27.8892 105.63 27.8403C105.402 27.7915 105.221 27.7329 105.085 27.6646C104.952 27.5962 104.853 27.5148 104.788 27.4204C104.724 27.326 104.692 27.2137 104.692 27.0835C104.692 26.867 104.784 26.6839 104.966 26.5342C105.15 26.3844 105.384 26.3096 105.669 26.3096C105.968 26.3096 106.211 26.3869 106.396 26.5415C106.584 26.6961 106.677 26.8939 106.677 27.1348H106.223C106.223 27.0111 106.17 26.9045 106.064 26.8149C105.96 26.7254 105.828 26.6807 105.669 26.6807C105.505 26.6807 105.376 26.7165 105.283 26.7881C105.19 26.8597 105.144 26.9533 105.144 27.0688C105.144 27.1779 105.187 27.2601 105.273 27.3154C105.36 27.3708 105.515 27.4237 105.74 27.4741C105.966 27.5246 106.149 27.5848 106.289 27.6548C106.429 27.7248 106.532 27.8094 106.599 27.9087C106.667 28.0063 106.702 28.126 106.702 28.2676C106.702 28.5036 106.607 28.6932 106.418 28.8364C106.23 28.978 105.985 29.0488 105.684 29.0488C105.472 29.0488 105.285 29.0114 105.122 28.9365C104.959 28.8617 104.832 28.7575 104.739 28.624C104.648 28.4889 104.602 28.3433 104.602 28.187H105.054C105.062 28.3384 105.122 28.4588 105.234 28.5483C105.348 28.6362 105.498 28.6802 105.684 28.6802C105.854 28.6802 105.991 28.646 106.094 28.5776C106.198 28.5076 106.25 28.4149 106.25 28.2993ZM107.715 26.3584L107.727 26.6514C107.921 26.4235 108.182 26.3096 108.511 26.3096C108.88 26.3096 109.132 26.4512 109.265 26.7344C109.353 26.6074 109.467 26.5049 109.607 26.4268C109.749 26.3486 109.915 26.3096 110.107 26.3096C110.687 26.3096 110.981 26.6164 110.991 27.23V29H110.54V27.2568C110.54 27.068 110.496 26.9272 110.41 26.8345C110.324 26.7401 110.179 26.6929 109.976 26.6929C109.808 26.6929 109.669 26.7433 109.558 26.8442C109.447 26.9435 109.383 27.0778 109.365 27.2471V29H108.911V27.269C108.911 26.8849 108.723 26.6929 108.347 26.6929C108.051 26.6929 107.848 26.819 107.739 27.0713V29H107.288V26.3584H107.715ZM112.771 29.0488C112.413 29.0488 112.122 28.9316 111.897 28.6973C111.672 28.4613 111.56 28.1463 111.56 27.7524V27.6694C111.56 27.4074 111.61 27.1738 111.709 26.9688C111.81 26.762 111.95 26.6009 112.129 26.4854C112.31 26.3682 112.505 26.3096 112.715 26.3096C113.058 26.3096 113.325 26.4227 113.516 26.6489C113.706 26.8752 113.801 27.1991 113.801 27.6206V27.8086H112.012C112.018 28.069 112.094 28.2798 112.239 28.4409C112.385 28.6004 112.571 28.6802 112.795 28.6802C112.955 28.6802 113.09 28.6476 113.201 28.5825C113.311 28.5174 113.408 28.4312 113.491 28.3237L113.767 28.5386C113.546 28.8787 113.214 29.0488 112.771 29.0488ZM112.715 26.6807C112.533 26.6807 112.38 26.7474 112.256 26.8809C112.132 27.0127 112.056 27.1982 112.026 27.4375H113.35V27.4033C113.337 27.1738 113.275 26.9964 113.164 26.8711C113.053 26.7441 112.904 26.6807 112.715 26.6807ZM114.939 25.7188V26.3584H115.432V26.7075H114.939V28.3457C114.939 28.4515 114.961 28.5312 115.005 28.585C115.049 28.637 115.124 28.6631 115.229 28.6631C115.282 28.6631 115.353 28.6533 115.444 28.6338V29C115.326 29.0326 115.21 29.0488 115.098 29.0488C114.896 29.0488 114.744 28.9878 114.641 28.8657C114.539 28.7437 114.487 28.5703 114.487 28.3457V26.7075H114.006V26.3584H114.487V25.7188H114.939ZM116.453 29H116.001V26.3584H116.453V29ZM115.964 25.6577C115.964 25.5845 115.986 25.5226 116.03 25.4722C116.076 25.4217 116.143 25.3965 116.23 25.3965C116.318 25.3965 116.385 25.4217 116.431 25.4722C116.476 25.5226 116.499 25.5845 116.499 25.6577C116.499 25.731 116.476 25.792 116.431 25.8408C116.385 25.8896 116.318 25.9141 116.23 25.9141C116.143 25.9141 116.076 25.8896 116.03 25.8408C115.986 25.792 115.964 25.731 115.964 25.6577ZM118.237 28.6802C118.398 28.6802 118.539 28.6313 118.66 28.5337C118.78 28.436 118.847 28.314 118.86 28.1675H119.287C119.279 28.3188 119.227 28.4629 119.131 28.5996C119.035 28.7363 118.906 28.8454 118.745 28.9268C118.586 29.0081 118.416 29.0488 118.237 29.0488C117.878 29.0488 117.591 28.9292 117.378 28.6899C117.166 28.4491 117.061 28.1203 117.061 27.7036V27.6279C117.061 27.3708 117.108 27.1421 117.202 26.9419C117.297 26.7417 117.432 26.5863 117.607 26.4756C117.785 26.3649 117.994 26.3096 118.235 26.3096C118.531 26.3096 118.777 26.3983 118.972 26.5757C119.169 26.7531 119.274 26.9834 119.287 27.2666H118.86C118.847 27.0957 118.782 26.9557 118.665 26.8467C118.549 26.736 118.406 26.6807 118.235 26.6807C118.005 26.6807 117.827 26.7637 117.7 26.9297C117.575 27.0941 117.512 27.3325 117.512 27.645V27.7305C117.512 28.0348 117.575 28.2692 117.7 28.4336C117.826 28.598 118.005 28.6802 118.237 28.6802ZM122.573 28.2993C122.573 28.1772 122.527 28.0828 122.434 28.0161C122.343 27.9478 122.183 27.8892 121.953 27.8403C121.725 27.7915 121.544 27.7329 121.409 27.6646C121.275 27.5962 121.176 27.5148 121.111 27.4204C121.047 27.326 121.016 27.2137 121.016 27.0835C121.016 26.867 121.107 26.6839 121.289 26.5342C121.473 26.3844 121.707 26.3096 121.992 26.3096C122.292 26.3096 122.534 26.3869 122.72 26.5415C122.907 26.6961 123 26.8939 123 27.1348H122.546C122.546 27.0111 122.493 26.9045 122.388 26.8149C122.284 26.7254 122.152 26.6807 121.992 26.6807C121.828 26.6807 121.699 26.7165 121.606 26.7881C121.514 26.8597 121.467 26.9533 121.467 27.0688C121.467 27.1779 121.51 27.2601 121.597 27.3154C121.683 27.3708 121.838 27.4237 122.063 27.4741C122.289 27.5246 122.472 27.5848 122.612 27.6548C122.752 27.7248 122.856 27.8094 122.922 27.9087C122.991 28.0063 123.025 28.126 123.025 28.2676C123.025 28.5036 122.931 28.6932 122.742 28.8364C122.553 28.978 122.308 29.0488 122.007 29.0488C121.795 29.0488 121.608 29.0114 121.445 28.9365C121.283 28.8617 121.155 28.7575 121.062 28.624C120.971 28.4889 120.925 28.3433 120.925 28.187H121.377C121.385 28.3384 121.445 28.4588 121.558 28.5483C121.672 28.6362 121.821 28.6802 122.007 28.6802C122.178 28.6802 122.314 28.646 122.417 28.5776C122.521 28.5076 122.573 28.4149 122.573 28.2993ZM124.709 29.0488C124.351 29.0488 124.06 28.9316 123.835 28.6973C123.611 28.4613 123.499 28.1463 123.499 27.7524V27.6694C123.499 27.4074 123.548 27.1738 123.647 26.9688C123.748 26.762 123.888 26.6009 124.067 26.4854C124.248 26.3682 124.443 26.3096 124.653 26.3096C124.997 26.3096 125.264 26.4227 125.454 26.6489C125.645 26.8752 125.74 27.1991 125.74 27.6206V27.8086H123.95C123.957 28.069 124.032 28.2798 124.177 28.4409C124.324 28.6004 124.509 28.6802 124.734 28.6802C124.893 28.6802 125.028 28.6476 125.139 28.5825C125.25 28.5174 125.347 28.4312 125.43 28.3237L125.706 28.5386C125.484 28.8787 125.152 29.0488 124.709 29.0488ZM124.653 26.6807C124.471 26.6807 124.318 26.7474 124.194 26.8809C124.071 27.0127 123.994 27.1982 123.965 27.4375H125.288V27.4033C125.275 27.1738 125.213 26.9964 125.103 26.8711C124.992 26.7441 124.842 26.6807 124.653 26.6807ZM127.542 26.7637C127.473 26.7523 127.399 26.7466 127.319 26.7466C127.023 26.7466 126.822 26.8727 126.716 27.125V29H126.265V26.3584H126.704L126.711 26.6636C126.86 26.4276 127.069 26.3096 127.341 26.3096C127.429 26.3096 127.496 26.321 127.542 26.3438V26.7637ZM128.875 28.3872L129.529 26.3584H129.99L129.043 29H128.699L127.742 26.3584H128.203L128.875 28.3872ZM130.916 29H130.464V26.3584H130.916V29ZM130.427 25.6577C130.427 25.5845 130.449 25.5226 130.493 25.4722C130.539 25.4217 130.605 25.3965 130.693 25.3965C130.781 25.3965 130.848 25.4217 130.894 25.4722C130.939 25.5226 130.962 25.5845 130.962 25.6577C130.962 25.731 130.939 25.792 130.894 25.8408C130.848 25.8896 130.781 25.9141 130.693 25.9141C130.605 25.9141 130.539 25.8896 130.493 25.8408C130.449 25.792 130.427 25.731 130.427 25.6577ZM132.7 28.6802C132.861 28.6802 133.002 28.6313 133.123 28.5337C133.243 28.436 133.31 28.314 133.323 28.1675H133.75C133.742 28.3188 133.69 28.4629 133.594 28.5996C133.498 28.7363 133.369 28.8454 133.208 28.9268C133.049 29.0081 132.879 29.0488 132.7 29.0488C132.34 29.0488 132.054 28.9292 131.841 28.6899C131.629 28.4491 131.523 28.1203 131.523 27.7036V27.6279C131.523 27.3708 131.571 27.1421 131.665 26.9419C131.759 26.7417 131.895 26.5863 132.07 26.4756C132.248 26.3649 132.457 26.3096 132.698 26.3096C132.994 26.3096 133.24 26.3983 133.435 26.5757C133.632 26.7531 133.737 26.9834 133.75 27.2666H133.323C133.31 27.0957 133.245 26.9557 133.127 26.8467C133.012 26.736 132.869 26.6807 132.698 26.6807C132.468 26.6807 132.29 26.7637 132.163 26.9297C132.038 27.0941 131.975 27.3325 131.975 27.645V27.7305C131.975 28.0348 132.038 28.2692 132.163 28.4336C132.288 28.598 132.467 28.6802 132.7 28.6802ZM135.354 29.0488C134.996 29.0488 134.705 28.9316 134.48 28.6973C134.255 28.4613 134.143 28.1463 134.143 27.7524V27.6694C134.143 27.4074 134.193 27.1738 134.292 26.9688C134.393 26.762 134.533 26.6009 134.712 26.4854C134.893 26.3682 135.088 26.3096 135.298 26.3096C135.641 26.3096 135.908 26.4227 136.099 26.6489C136.289 26.8752 136.384 27.1991 136.384 27.6206V27.8086H134.595C134.601 28.069 134.677 28.2798 134.822 28.4409C134.968 28.6004 135.154 28.6802 135.378 28.6802C135.538 28.6802 135.673 28.6476 135.784 28.5825C135.894 28.5174 135.991 28.4312 136.074 28.3237L136.35 28.5386C136.129 28.8787 135.797 29.0488 135.354 29.0488ZM135.298 26.6807C135.116 26.6807 134.963 26.7474 134.839 26.8809C134.715 27.0127 134.639 27.1982 134.609 27.4375H135.933V27.4033C135.92 27.1738 135.858 26.9964 135.747 26.8711C135.636 26.7441 135.487 26.6807 135.298 26.6807Z" fill="white"/>
</svg>
