<svg version="1.2" baseProfile="tiny-ps" xmlns="http://www.w3.org/2000/svg" viewBox="0 0 1750 405" width="164" height="38">
	<title>armcord_server-wordmark</title>
	<style>
		tspan { white-space:pre }
		.shp0 { fill: #2c2f33 } 
		.shp1 { fill: #95a7b4 } 
		.shp2 { fill: #7289da;stroke: #2c2f33;stroke-width: 8.6;stroke-dasharray: 0 } 
		.shp3 { fill: #99aab5 } 
		.shp4 { fill: #2c2f33;stroke: #2c2f33;stroke-width: 3.5;stroke-dasharray: 0 } 
		.shp5 { fill: #7289da } 
	</style>
	<g id="ARMCORD-LOGO">
		<path id="Path 0" class="shp0" d="M792.82 17.04C794.04 17.16 799.47 17.59 804.88 17.98C810.3 18.38 815.01 18.87 815.36 19.07C815.71 19.26 818.43 19.65 821.4 19.93C824.37 20.2 828.65 20.84 830.92 21.34C833.19 21.84 837.2 22.7 839.82 23.24C842.44 23.79 847.15 25.13 850.3 26.22C853.44 27.31 857.44 28.87 859.19 29.67C860.93 30.48 863.94 31.87 865.86 32.77C867.78 33.67 871.21 35.46 873.48 36.75C875.75 38.04 880.04 40.7 883.01 42.65C885.98 44.6 890.55 47.9 893.17 49.98C895.79 52.06 899.36 55.05 901.11 56.62C902.85 58.19 907.53 62.78 911.5 66.82C915.47 70.86 920.9 76.82 923.57 80.07C926.24 83.32 930.35 88.75 932.71 92.14C935.07 95.53 939.23 101.87 941.95 106.24C944.68 110.6 948.8 118.03 951.1 122.75C953.41 127.47 956.01 133.04 956.88 135.14C957.76 137.23 959.49 141.52 960.74 144.66C961.98 147.81 963 150.67 963 151.01C963 151.36 963.72 153.79 964.6 156.41C965.48 159.03 966.61 163.18 967.12 165.62C967.64 168.07 968.52 171.93 969.08 174.2C969.64 176.47 970.38 180.9 970.72 184.04C971.06 187.19 971.55 194.47 971.81 200.24C972.07 206 972.06 212.58 971.8 214.85C971.53 217.12 971.14 220.83 970.93 223.1C970.72 225.37 969.98 229.52 969.28 232.31C968.57 235.11 967.76 238.39 967.46 239.62C967.16 240.84 965.87 244.55 964.6 247.87C963.33 251.19 960.98 256.34 959.38 259.31C957.78 262.28 956.05 265.56 955.53 266.61C955.01 267.66 952.43 271.52 949.79 275.18C947.15 278.85 943.41 283.57 941.47 285.66C939.53 287.76 936.09 291.35 933.82 293.63C931.55 295.92 927.59 299.64 925.03 301.89C922.46 304.14 919.89 306.25 919.31 306.57C918.73 306.89 918.11 307.33 917.94 307.54C917.76 307.75 915.62 309.38 913.17 311.16C910.73 312.94 905.73 316.24 902.06 318.49C898.39 320.74 891.25 324.62 886.18 327.12C881.12 329.62 874.54 332.65 871.57 333.85C868.6 335.05 862.6 337.18 858.24 338.58C853.87 339.99 848.44 341.57 846.17 342.09C843.9 342.62 841.18 343.22 840.13 343.43C839.09 343.63 835.94 344.23 833.15 344.75C830.35 345.28 824.64 346.01 820.44 346.38C815.98 346.78 807.96 346.89 801.07 346.64C790.53 346.27 788.41 346 780.43 343.99C774.65 342.53 770.36 341.05 768.16 339.75C766.3 338.65 764.12 336.89 763.31 335.84C762.51 334.79 761.37 332.08 760.78 329.81C759.82 326.14 759.8 325.32 760.6 322.5C761.09 320.76 762.04 318.47 762.71 317.43C763.37 316.38 764.63 314.89 765.5 314.11C766.38 313.33 768.38 312.08 769.95 311.32C771.87 310.4 773.95 309.96 776.3 309.99C778.22 310.02 780.65 310.36 781.7 310.76C782.75 311.15 786.04 312.04 789 312.74C793.19 313.72 796.91 314.02 805.52 314.09C813.04 314.16 819.1 313.84 824.26 313.11C828.45 312.51 834.59 311.33 837.91 310.49C841.23 309.64 846.66 308.04 849.98 306.92C853.3 305.81 858.44 303.89 861.41 302.68C864.38 301.46 869.81 298.96 873.48 297.14C877.15 295.31 882.58 292.29 885.55 290.43C888.52 288.56 892.95 285.61 895.39 283.85C897.84 282.1 901.84 278.9 904.28 276.75C906.73 274.59 910.64 270.86 912.97 268.45C915.3 266.04 917.97 263.07 918.89 261.85C919.81 260.62 921.83 257.91 923.36 255.81C924.9 253.72 927.57 249.43 929.29 246.29C931.02 243.14 933.31 238.28 934.37 235.49C935.43 232.69 937.03 226.83 937.91 222.47C939.2 216.08 939.52 212.66 939.52 205C939.52 199.76 939.25 193.9 938.91 191.98C938.57 190.06 937.83 185.77 937.26 182.45C936.69 179.14 935.67 174.42 934.98 171.97C934.3 169.53 933.33 166.03 932.82 164.19C932.32 162.36 930.6 157.5 929 153.4C927.39 149.29 924.47 142.65 922.51 138.63C920.55 134.61 917.33 128.61 915.37 125.29C913.4 121.97 910.13 116.83 908.1 113.86C906.07 110.89 901.77 105.17 898.55 101.16C895.32 97.14 889.29 90.55 885.14 86.52C881 82.49 876.46 78.34 875.07 77.31C873.67 76.28 872.38 75.29 872.21 75.1C872.03 74.91 870.33 73.62 868.41 72.24C866.5 70.85 862.5 68.28 859.52 66.52C856.54 64.77 853.11 62.86 851.88 62.29C850.66 61.72 847.95 60.49 845.85 59.57C843.75 58.65 839.47 57.06 836.32 56.05C833.18 55.04 827.18 53.49 822.98 52.61C818.79 51.73 811.5 50.69 806.79 50.29C801.41 49.84 793.37 49.73 785.19 50C778.03 50.24 770.32 50.68 768.05 50.98C765.77 51.28 760.77 51.99 756.93 52.55C753.09 53.1 748.66 53.81 747.09 54.11C745.51 54.42 742.08 55.14 739.46 55.72C736.84 56.3 733.56 57 732.16 57.26C730.76 57.53 727.62 58.34 725.17 59.06C722.73 59.79 719.16 60.73 717.23 61.16C715.31 61.59 712.6 62.3 711.2 62.75C709.8 63.19 704.8 64.76 700.09 66.24C695.37 67.71 689.51 69.62 687.06 70.49C684.62 71.35 680.19 72.99 677.22 74.14C674.25 75.28 667.96 77.72 663.25 79.56C658.53 81.4 653.24 83.57 651.5 84.37C649.75 85.18 645.32 87.11 641.65 88.67C637.98 90.23 632.27 92.78 628.95 94.34C625.63 95.9 619.34 98.91 614.98 101.02C610.61 103.14 605.61 105.43 603.86 106.11C602.11 106.8 599.26 107.99 597.51 108.77C595.76 109.55 593.48 110.57 592.43 111.04C591.38 111.52 589.09 112.51 587.35 113.26C585.6 114 582.31 115.26 580.04 116.07C577.77 116.88 572.63 118.71 568.61 120.15C564.59 121.58 559.73 123.21 557.81 123.75C555.89 124.3 551.89 125.43 548.92 126.26C545.95 127.09 541.95 128.24 540.03 128.82C538.11 129.39 535.68 129.99 534.63 130.15C533.58 130.31 529.87 131.12 526.37 131.95C522.88 132.78 516.59 134.18 512.4 135.07C508.21 135.96 500.63 137.29 495.57 138.02C490.5 138.75 482.79 139.78 478.42 140.3C474.05 140.81 467.48 141.5 463.81 141.81C460.14 142.13 451.71 142.87 445.08 143.47C435.92 144.28 423.57 144.61 393.95 144.82C367.88 145.01 351.29 144.86 344.09 144.36C338.15 143.96 330.72 143.33 327.57 142.98C324.43 142.62 318.57 142.1 314.55 141.8C310.54 141.51 304.25 140.83 300.58 140.3C296.91 139.76 291.63 139 288.83 138.62C286.04 138.23 282.61 137.39 281.21 136.75C279.81 136.1 277.74 134.69 276.6 133.61C275.47 132.53 273.97 130.5 273.27 129.1C272.39 127.34 272 125.29 272 122.43C272 119.84 272.43 117.3 273.16 115.61C273.8 114.12 275.23 111.98 276.34 110.84C277.45 109.71 279.57 108.13 281.05 107.35C283.14 106.24 284.76 105.93 288.2 105.96C290.64 105.98 294.36 106.32 296.45 106.73C298.55 107.13 303.98 107.89 308.52 108.41C313.06 108.93 319.35 109.65 322.49 110.01C325.64 110.37 338.07 111.13 350.12 111.7C366.92 112.49 378.49 112.64 399.66 112.32C414.86 112.1 433.87 111.5 441.9 110.99C449.93 110.48 460.51 109.65 465.4 109.14C470.29 108.63 476.29 107.93 478.74 107.57C481.18 107.22 485.61 106.48 488.58 105.93C491.55 105.38 496.27 104.65 499.06 104.32C501.86 103.99 505.86 103.26 507.95 102.7C510.05 102.13 513.34 101.42 515.26 101.12C517.18 100.81 520.47 100.15 522.56 99.64C524.66 99.14 529.52 97.85 533.36 96.79C537.2 95.73 542.78 94.17 545.75 93.32C548.72 92.47 555.57 90.21 560.99 88.29C566.4 86.37 572.69 84.02 574.96 83.07C577.23 82.12 579.95 80.98 581 80.52C582.04 80.07 587.47 77.63 593.06 75.09C598.65 72.55 605.8 69.27 608.94 67.8C612.09 66.32 616.66 64.19 619.1 63.07C621.55 61.94 628.27 59.03 634.03 56.6C639.79 54.17 646.08 51.52 648 50.71C649.92 49.89 653.64 48.44 656.26 47.48C658.88 46.52 663.02 44.93 665.47 43.97C667.92 43 674.63 40.64 680.4 38.73C686.16 36.82 693.73 34.38 697.23 33.29C700.72 32.21 705.86 30.73 708.66 29.99C711.45 29.26 717.03 27.84 721.04 26.83C725.06 25.82 731.78 24.37 735.97 23.62C740.16 22.86 745.59 21.84 748.04 21.35C750.48 20.86 755.06 20.2 758.2 19.89C761.34 19.57 766.63 19 769.95 18.63C773.27 18.25 779.27 17.69 783.29 17.38C787.31 17.07 791.59 16.92 792.82 17.04Z" />
		<path id="Path 0" fill-rule="evenodd" class="shp1" d="M407.91 118.93L457.54 119.26L495.29 204.21C516.06 250.93 533.04 289.3 533.04 289.48C533.04 289.65 522.68 289.8 487 289.81L473.02 256.14L397.44 256.12L384.74 289.78L362.03 289.79C349.54 289.79 339.29 289.66 339.24 289.49C339.2 289.32 354.32 251.66 372.86 205.81C391.39 159.95 406.86 121.64 407.23 120.68L407.91 118.93ZM409.4 224.21L408.56 226.28L460.32 226.23C439.65 176.53 433.48 162.1 433.28 162.11C433.08 162.12 427.82 175.63 421.58 192.14C415.35 208.65 409.87 223.08 409.4 224.21ZM595.24 119.1C631.96 119.34 638.28 119.52 643.24 120.48C646.38 121.08 651.39 122.49 654.35 123.61C657.32 124.72 661.33 126.68 663.25 127.95C665.17 129.22 668.75 132.35 671.21 134.92C673.67 137.48 676.88 141.58 678.35 144.03C679.82 146.47 681.72 150.47 682.58 152.92C683.44 155.37 684.47 159.94 684.88 163.08C685.44 167.41 685.45 170.11 684.89 174.2C684.49 177.17 683.52 181.45 682.73 183.72C681.94 185.99 679.99 189.85 678.39 192.3C676.79 194.74 673.76 198.32 671.66 200.24C669.55 202.16 665.3 205.2 656.58 210.24L658.8 211.54C660.02 212.25 662.76 214.65 664.88 216.86C666.99 219.07 669.89 222.59 671.32 224.69C672.74 226.79 675.62 231.93 677.72 236.12C679.82 240.32 684.83 250.89 688.85 259.62C692.87 268.36 697.62 278.57 699.39 282.33C701.17 286.09 702.63 289.3 702.63 289.48C702.63 289.65 691.99 289.72 655.37 289.48L651.7 281.54C649.68 277.17 644.72 266.31 640.68 257.4C635.94 246.93 631.93 239.07 629.34 235.17C627.13 231.85 624.07 228.05 622.53 226.73C621 225.4 618.6 223.76 617.2 223.08C615.8 222.4 612.94 221.56 610.85 221.21C608.75 220.86 604.54 220.57 595.92 220.56L595.92 289.79L552.1 289.79L552.19 205.16C552.24 158.61 552.43 120.15 552.62 119.68C552.89 118.98 560.38 118.88 595.24 119.1ZM595.98 170.01L595.92 189.44C607.49 189.41 614.49 189.13 618.95 188.79C625.04 188.32 627.79 187.82 630.06 186.76C631.72 185.98 634.24 184.19 635.65 182.79C637.19 181.26 638.66 178.95 639.31 177.06C639.91 175.31 640.4 172.16 640.4 170.07C640.39 167.97 639.97 164.83 639.45 163.08C638.94 161.34 637.65 158.83 636.59 157.52C635.42 156.08 632.99 154.33 630.39 153.08L626.12 151.01L596.04 150.58L595.98 170.01ZM722.32 118.94L760.11 118.97L787.1 151.39C807.92 176.4 814.24 183.61 814.73 182.92C815.08 182.43 827.37 167.83 868.72 118.91L905.87 118.94L905.87 289.79L862.68 289.79L862.36 186.72L817.27 240.92L810.92 240.94L765.82 186.75L765.5 289.79L722.32 289.79L722.32 118.94Z" />
		<path id="Path 0" class="shp0" d="M939.31 221.08C939.87 221.32 942.94 225.22 946.12 229.74C949.31 234.27 952.93 239.7 954.17 241.81C955.41 243.92 957.62 247.22 959.08 249.14C960.54 251.07 961.73 253.21 961.73 253.91C961.73 254.61 960.54 257.32 959.1 259.94C957.65 262.56 956.04 265.56 955.53 266.61C955.01 267.66 952.43 271.52 949.79 275.18C947.15 278.85 943.41 283.57 941.47 285.66C939.53 287.76 936.09 291.35 933.82 293.63C931.55 295.92 927.59 299.64 925.03 301.89C922.46 304.14 919.89 306.25 919.31 306.57C918.73 306.89 918.11 307.33 917.94 307.54C917.76 307.75 915.62 309.38 913.17 311.16C910.73 312.94 905.73 316.24 902.06 318.49C898.39 320.74 891.25 324.62 886.18 327.12C881.12 329.62 874.54 332.65 871.57 333.85C868.6 335.05 862.6 337.18 858.24 338.58C853.87 339.99 848.44 341.57 846.17 342.09C843.9 342.62 841.18 343.22 840.13 343.43C839.09 343.63 835.94 344.23 833.15 344.75C830.35 345.28 824.64 346.01 820.44 346.38C815.98 346.78 807.96 346.89 801.07 346.64C790.53 346.27 788.41 346 780.43 343.99C774.65 342.53 770.36 341.05 768.16 339.75C766.3 338.65 764.12 336.89 763.31 335.84C762.51 334.79 761.37 332.08 760.78 329.81C759.82 326.14 759.8 325.32 760.6 322.5C761.09 320.76 762.04 318.47 762.71 317.43C763.37 316.38 764.63 314.89 765.5 314.11C766.38 313.33 768.38 312.08 769.95 311.32C771.87 310.4 773.95 309.96 776.3 309.99C778.22 310.02 780.65 310.36 781.7 310.76C782.75 311.15 786.04 312.04 789 312.74C793.19 313.72 796.91 314.02 805.52 314.09C813.04 314.16 819.1 313.84 824.26 313.11C828.45 312.51 834.59 311.33 837.91 310.49C841.23 309.64 846.66 308.04 849.98 306.92C853.3 305.81 858.44 303.89 861.41 302.68C864.38 301.46 869.81 298.96 873.48 297.14C877.15 295.31 882.58 292.29 885.55 290.43C888.52 288.56 892.95 285.61 895.39 283.85C897.84 282.1 901.84 278.9 904.28 276.75C906.73 274.59 910.64 270.86 912.97 268.45C915.3 266.04 917.97 263.07 918.89 261.85C919.81 260.62 921.83 257.91 923.36 255.81C924.9 253.72 927.57 249.43 929.29 246.29C931.02 243.14 933.29 238.28 934.35 235.49C935.4 232.69 936.72 228.21 937.28 225.53C938.12 221.5 938.47 220.72 939.31 221.08Z" />
		<g id="Plug">
			<path id="Layer" class="shp2" d="M682.65 225.64L723.03 240L733.13 216.66L768.19 228.76C805.57 241.67 827.1 279.47 819.06 317.48L809.22 343.74C789.38 379.75 744.79 396.3 705.61 380.17L668.93 365.06L680.26 338.88L638.68 322.27C631.93 319.56 629.08 311.76 632.23 304.9C635.37 298.06 643.32 294.65 650.05 297.26L691.31 313.27L712.69 263.86L671.98 248.97C665.37 246.57 662.45 239.38 665.41 232.95C668.36 226.57 676.04 223.3 682.65 225.64L682.65 225.64Z" />
			<path id="Layer" class="shp0" d="M678.36 220.58C680.28 220.56 682.6 220.98 683.5 221.5C684.39 222.02 691.86 224.8 700.07 227.65C708.29 230.53 716.18 233.26 717.59 233.73C719.88 234.47 720.16 235.01 720.16 238.76C720.16 241.08 719.95 242.97 719.69 242.97C719.43 242.97 710.4 239.82 699.6 235.97C688.82 232.1 679.14 228.95 678.12 228.95C677.1 228.95 674.99 229.59 673.46 230.37C671.92 231.13 670.23 232.61 669.71 233.63C669.21 234.65 668.77 236.65 668.74 238.06C668.72 239.48 669.45 241.59 670.38 242.74C671.53 244.18 678.77 247.3 693.53 252.73C705.35 257.06 714.93 260.94 714.82 261.36C714.72 261.77 713.11 265.68 711.26 270.05C709.39 274.42 706.63 280.52 705.12 283.61C703.6 286.68 702.38 289.94 702.38 290.83C702.4 291.74 700.76 295.95 698.74 300.19C696.73 304.43 694.42 310.09 693.61 312.79C692.8 315.48 692.04 317.69 691.91 317.69C691.78 317.71 681.79 313.91 669.71 309.26C656.56 304.21 646.46 300.85 644.49 300.89C642.71 300.9 640.34 301.65 639.23 302.54C638.14 303.42 636.78 305.09 636.2 306.24C635.63 307.41 635.16 309.62 635.16 311.15C635.16 312.8 636.03 314.85 637.25 316.12C638.47 317.35 648.24 321.83 660.18 326.62C671.61 331.22 680.98 335.18 680.98 335.44C680.96 335.7 679.58 337.71 677.91 339.9C675.6 342.91 674.74 343.53 674.39 342.39C674.09 341.46 666.54 337.94 654.3 333.04C638.32 326.65 634.13 324.59 631.65 321.91C629.98 320.11 628.13 316.85 627.51 314.65C626.65 311.55 626.66 309.77 627.57 306.49C628.22 304.17 629.68 301.02 630.84 299.47C632.01 297.95 634.82 295.74 637.09 294.59C639.41 293.42 642.97 292.49 645.19 292.49C647.95 292.47 655.27 294.83 689.15 307.88L697.88 287.8C702.69 276.76 706.62 267.37 706.62 266.93C706.62 266.49 697.93 262.92 687.33 258.99C673.23 253.76 667.24 251.09 665.11 249.04C663.51 247.5 661.74 244.77 661.17 242.97C660.6 241.16 660.37 237.8 660.68 235.5C661.02 232.8 662.19 230.12 663.95 228.03C665.46 226.23 668.51 223.82 670.77 222.69C673.01 221.53 676.43 220.59 678.36 220.58L678.36 220.58Z" />
			<path id="Layer" class="shp3" d="M677.65 228.97C678.69 228.94 688.77 232.15 700.07 236.1C711.38 240.06 720.73 243.32 720.86 243.37C720.99 243.41 720.35 246.77 719.46 250.84C718.55 254.92 717.4 258.85 716.88 259.55C716.12 260.62 711.99 259.4 694 252.84C678.82 247.3 671.53 244.18 670.38 242.74C669.45 241.59 668.72 239.48 668.74 238.06C668.77 236.65 669.21 234.65 669.71 233.63C670.23 232.61 671.8 231.15 673.22 230.4C674.63 229.65 676.63 229 677.65 228.97L677.65 228.97ZM644.49 300.89C646.46 300.85 656.51 304.21 669.71 309.3C681.79 313.96 691.78 317.95 691.91 318.19C692.04 318.44 689.81 322.3 681.79 334.97L660.11 326.39C645.37 320.57 637.88 317.12 636.75 315.65C635.84 314.46 635.09 312.33 635.12 310.92C635.14 309.51 635.63 307.41 636.2 306.24C636.78 305.09 638.14 303.42 639.23 302.54C640.34 301.65 642.71 300.9 644.49 300.89Z" />
			<path id="Layer" class="shp4" d="M720.06 236.4L725.49 238.99L712.91 268.07L707.49 265.18L720.06 236.4Z" />
			<path id="Layer" class="shp4" d="M689.44 305.89L695.74 307.58L682.82 337.77L677.62 335.01L689.44 305.89Z" />
		</g>
	</g>
	<path id="Path 0" fill-rule="evenodd" class="shp5" d="M1000.04 121.14C1007.43 121.43 1015.07 122.69 1019.42 124.34C1023.37 125.83 1030.07 129.62 1034.32 132.76C1038.7 136 1044.48 142.2 1047.66 147.08C1050.74 151.82 1053.02 156.34 1052.72 157.13C1052.42 157.92 1045.13 161.34 1020.85 170.89L1016.55 166.61C1014.18 164.26 1010.3 161.59 1007.93 160.69C1005.57 159.78 1000.56 159.1 996.81 159.16C993.06 159.23 987.64 160.41 984.77 161.79C981.9 163.18 978.67 166.08 977.59 168.25C976.14 171.19 975.62 179.83 975.59 201.99C975.54 229.74 975.74 232.04 978.46 235.72C980.06 237.89 983.32 240.64 985.68 241.82C988.05 243.01 992.9 243.98 996.45 243.98C1000 243.98 1005.31 242.85 1008.23 241.46C1011.16 240.08 1014.55 237.18 1015.77 235.01C1016.99 232.85 1018.63 231.09 1019.42 231.1C1020.21 231.11 1028.14 234.5 1037.05 238.63C1045.96 242.75 1053.22 246.78 1053.19 247.56C1053.17 248.35 1051.96 250.94 1050.52 253.31C1049.07 255.68 1045.02 260.52 1041.51 264.07C1038 267.63 1030.94 272.64 1025.84 275.21C1020.73 277.79 1012.99 280.61 1008.65 281.49C1004.31 282.37 996.23 282.74 990.71 282.3C985.18 281.87 976.57 280.01 971.57 278.18C966.57 276.34 959.5 272.58 955.85 269.82C952.21 267.05 947.05 261.88 944.38 258.33C941.71 254.78 938.61 248.64 937.47 244.69C935.92 239.28 935.42 228.41 935.43 200.55C935.44 167.56 935.74 162.78 938.22 156.05C939.77 151.86 944.07 145.1 947.91 140.83C952.63 135.58 958.01 131.58 964.87 128.24C970.4 125.55 977.82 122.74 981.38 122C984.93 121.26 993.33 120.87 1000.04 121.14ZM1132.11 121.08C1141.4 121.42 1148.72 122.61 1155.07 124.8C1160.21 126.57 1167.8 130.21 1171.94 132.88C1176.09 135.56 1181.58 140.69 1184.14 144.28C1186.71 147.87 1189.91 153.84 1191.26 157.55C1193.34 163.27 1193.71 170.02 1193.71 201.63C1193.71 233.24 1193.34 239.99 1191.26 245.7C1189.91 249.42 1186.71 255.39 1184.14 258.98C1181.58 262.57 1176.09 267.79 1171.94 270.57C1167.8 273.35 1160.21 276.96 1155.07 278.58C1149.94 280.2 1140.9 281.88 1134.98 282.32C1129.05 282.75 1119.69 282.36 1114.16 281.45C1108.63 280.53 1100.08 277.87 1095.14 275.52C1090.21 273.17 1083.1 268.43 1079.35 264.98C1075.14 261.11 1070.88 255.21 1063.92 240.39L1063.49 204.5C1063.09 171.68 1063.3 167.78 1066 158.92C1068.23 151.56 1070.62 147.42 1075.9 141.7C1079.79 137.49 1086.92 132.01 1092.05 129.28C1097.11 126.6 1105.12 123.54 1109.85 122.49C1114.93 121.36 1124.06 120.78 1132.11 121.08ZM1108.78 165.34L1104.83 169.33L1104.83 233.93C1112.41 241.01 1116.86 243.24 1121.34 244.22C1126.8 245.41 1130.41 245.35 1136.41 243.94C1141.98 242.64 1145.68 240.68 1148.97 237.29L1153.64 232.49C1153.64 170.81 1153.63 170.76 1150.05 166.46C1147.71 163.66 1143.83 161.4 1138.92 159.99C1134.78 158.79 1129.77 157.89 1127.8 157.98C1125.82 158.07 1121.63 158.86 1118.47 159.75C1115.31 160.63 1110.95 163.15 1108.78 165.34ZM1356.04 121.96L1391.93 121.96C1420.98 121.96 1429.67 122.42 1437.51 124.4C1443.44 125.9 1450.54 129.1 1455.81 132.66C1460.96 136.13 1466.33 141.35 1469.16 145.64C1471.77 149.59 1474.6 155.08 1475.45 157.85C1476.3 160.61 1477.31 177.4 1477.71 195.17C1478.19 217.08 1477.86 230.7 1476.68 237.52C1475.72 243.04 1473.7 249.99 1472.19 252.95C1470.68 255.91 1466.7 261.04 1463.35 264.36C1459.99 267.68 1453.37 272.17 1448.63 274.35C1443.9 276.52 1435.82 278.97 1430.69 279.79C1425.56 280.61 1406.66 281.28 1356.04 281.3L1356.04 242.54L1386.55 242.51C1403.33 242.49 1419.64 241.86 1422.8 241.11C1425.95 240.35 1430.15 238.1 1432.13 236.09C1435.69 232.46 1435.72 232.24 1436.07 203.03C1436.36 179.24 1436.02 172.82 1434.28 169.33C1433.09 166.96 1430.19 164.05 1427.82 162.87C1424.95 161.43 1419.21 160.72 1397.67 160.72L1397.71 190.5C1397.74 206.89 1397.25 220.8 1396.64 221.42C1396.02 222.04 1386.64 213.64 1356.03 182.97L1356.04 121.96ZM1214.09 123.23L1297.91 124.11L1306.52 128.13C1311.26 130.35 1317.61 134.55 1320.64 137.46C1323.67 140.38 1327.63 145.68 1329.43 149.23C1331.24 152.79 1333.45 159.08 1334.33 163.23C1335.22 167.37 1335.95 173.67 1335.95 177.23C1335.95 180.78 1335.22 187.08 1334.33 191.22C1333.44 195.37 1331.35 201.66 1329.68 205.22C1328.01 208.77 1324.33 213.94 1321.5 216.7C1318.67 219.46 1314.28 222.69 1311.74 223.88C1309.2 225.06 1307.15 226.52 1307.18 227.11C1307.21 227.7 1315.74 239.01 1326.12 252.23C1336.51 265.45 1345.72 277.11 1346.58 278.13C1347.86 279.64 1343.31 279.97 1296.47 279.76L1279.16 255.77C1266.8 238.65 1260.94 231.67 1258.7 231.42C1255.58 231.06 1255.56 231.2 1255.56 279.86L1213.93 279.86L1214.09 123.23ZM1255.56 195.17C1278.45 195.17 1284.22 194.48 1287.14 193.02C1289.51 191.83 1292.49 188.76 1293.78 186.2C1295.37 183.01 1295.83 179.71 1295.23 175.79C1294.75 172.63 1293.22 168.83 1291.83 167.34C1290.43 165.85 1287.19 163.75 1284.63 162.67C1281.93 161.54 1274.82 160.72 1267.76 160.72L1255.56 160.72L1255.56 195.17Z" />
</svg>