<svg version="1.2" xmlns="http://www.w3.org/2000/svg" viewBox="0 0 1750 405" width="164" height="38"><style>.a{fill:#7289da}.b{fill:#2c2f33}.c{fill:#95a7b3}.d{fill:#99aab5}</style><path class="a" d="m965.2 129.4c6.8 0.1 13 0.6 15.9 1.2 2.7 0.6 7.4 2.3 10.6 3.8 3.2 1.5 7.6 4 9.9 5.5 2.3 1.5 6.3 5 9 7.6 2.6 2.7 6.1 6.9 7.7 9.4 1.6 2.4 3.6 5.6 4.3 7.1 0.8 1.5 1.4 3.2 1.4 3.7 0 0.6-2.4 2.1-6.1 3.8-3.3 1.6-11.2 4.9-28.8 11.9l-4.1-4c-2.3-2.3-5.5-4.9-7-5.8-2.1-1.2-4.6-1.9-8.7-2.4-4.5-0.6-6.7-0.6-10.2 0-2.5 0.4-5.8 1.4-7.4 2.1-1.5 0.7-3.8 2-5.1 3-1.2 1-2.8 2.9-3.4 4.3-0.9 1.8-1.4 5-1.8 12.4-0.4 5.4-0.5 19.8-0.4 31.9 0.2 20.5 0.3 22.3 1.5 25 0.8 1.6 2.6 4.1 4.2 5.6 1.5 1.5 4.1 3.3 5.7 4.1 2.4 1.2 3.9 1.4 10.2 1.4 5.8 0 8.1-0.2 10.9-1.2 1.9-0.8 4.4-2 5.4-2.8 1.1-0.7 3.2-3 4.9-5 1.6-2.1 3.4-3.8 4.1-3.9 0.7-0.1 2.7 0.4 4.4 1.2 1.8 0.7 7.4 3.2 12.5 5.6 5.1 2.3 11.3 5.3 13.8 6.6 2.4 1.4 4.9 2.9 5.4 3.4 0.8 0.8 0.8 1.2-0.3 3.6-0.7 1.5-2.5 4.4-4 6.5-1.5 2-4.5 5.5-6.7 7.7-2.2 2.2-5.6 5.2-7.6 6.6-1.9 1.4-5.5 3.7-7.9 5.2-2.5 1.4-7.7 3.7-11.6 5.1-3.8 1.4-9.4 2.9-12.4 3.4-3.5 0.5-8.5 0.6-13.8 0.4-5.4-0.3-10.6-0.9-15-2-3.7-0.9-8.4-2.3-10.5-3.2-2.2-0.8-6.2-2.8-9-4.3-3.1-1.8-7-4.7-10.4-7.9-3-2.8-6.5-6.7-7.8-8.6-1.3-2-3.3-5.3-4.3-7.4-1.1-2.1-2.4-5.3-3-7-0.6-1.8-1.3-7.2-1.7-12.2-0.3-4.9-0.6-21.7-0.6-37.4 0-15.6 0.3-31.2 0.6-34.5 0.3-3.3 1.2-7.9 1.9-10.2 0.7-2.6 2.8-6.5 5.3-10.2 2.2-3.3 4.6-6.9 5.3-8 0.8-1.1 3.7-3.8 6.4-6 3.1-2.5 7.9-5.5 12.1-7.5 3.9-1.9 9.2-4.2 11.9-5.1 2.6-1 6.6-2 8.9-2.3 2.3-0.3 9.2-0.4 15.4-0.2z"/><path class="b" d="m739.7 28c3.2 0 8 0.3 10.6 0.6 2.7 0.4 7.7 1 11.2 1.4 3.5 0.3 9.3 1 12.8 1.5 3.5 0.5 9.8 1.6 14.1 2.6 4.2 0.9 10.8 2.9 14.7 4.3 3.8 1.4 10.7 4.4 15.3 6.7 4.6 2.3 10.5 5.6 13.1 7.4 2.7 1.7 7.6 5.2 10.9 7.7 3.5 2.5 11.4 9.8 18.6 17 8 8 14.6 15.3 18.3 20.2 3.1 4.2 8.1 11.4 11.1 16 2.9 4.5 7.7 12.9 10.6 18.5 2.9 5.6 6.2 12.4 7.3 15 1.9 4.8 1.9 4.8 0.7 6.1-0.7 0.7-2.7 3.6-4.5 6.4-1.9 2.8-3.9 7-4.6 9.3-0.7 2.3-1.6 6.9-1.9 10.2-0.3 3.3-0.6 18.9-0.6 34.5 0 15.7 0.3 32.5 0.6 37.4 0.4 5 1.1 10.4 1.7 12.2 0.6 1.7 1.9 4.9 3 7 1 2.1 2.5 4.8 3.4 5.9 0.8 1.2 1.4 2.6 1.2 3.2-0.1 0.6-2.2 3.9-4.5 7.2-2.4 3.4-6.8 8.9-9.8 12.4-3 3.5-8.1 8.7-11.3 11.7-3.1 2.9-8 7.1-10.8 9.3-2.9 2.3-8.5 6.3-12.5 8.9-4.1 2.7-10.7 6.6-14.7 8.7-4.1 2.2-11 5.6-15.4 7.6-4.4 2-11.8 4.9-16.6 6.4-4.7 1.6-12.1 3.7-16.3 4.7-4.2 1-10.8 2.3-14.7 2.8-3.9 0.6-9.2 1.2-16.6 1.8l-3.5 5.5c-2 3-5.9 7.9-8.7 10.9-2.8 3-7 6.9-9.2 8.7-2.3 1.9-6.1 4.5-8.4 6-2.2 1.4-7.2 4.1-11 5.8-3.9 1.9-10.1 4.1-14.4 5.2-4.7 1.3-10.2 2.2-14.8 2.5-4.1 0.3-10.6 0.3-14.4 0-3.9-0.4-9.7-1.2-12.8-2-3.2-0.7-8.9-2.5-12.8-4-3.9-1.5-14.8-6-24.3-9.9-9.5-3.9-17.5-7.4-17.8-7.6-0.3-0.2 2-6.2 5-13.2 3.1-7 5.3-13 5-13.2-0.3-0.3-8.9-3.8-19.1-7.9-10.2-4-19.5-8.1-20.7-9-1.3-0.9-3.1-2.8-4.1-4.3-0.9-1.5-2.1-3.9-2.4-5.3-0.4-1.4-0.6-4.2-0.5-6.4 0.2-2.4 0.9-5.1 2-7.5 1.3-2.6 2.7-4.4 5.1-6.2 1.9-1.5 4.8-3.1 6.6-3.6 1.7-0.5 4.6-0.9 6.4-0.9 2.5 0.1 7.4 1.7 23 7.7 10.9 4.2 19.9 7.5 19.9 7.5 0.1-0.1 3.9-8.9 8.5-19.7 4.6-10.7 8.2-19.6 7.9-19.8-0.3-0.2-8.3-3.2-17.8-6.7-9.5-3.4-18.4-6.9-19.8-7.7-1.4-0.7-3.5-2.5-4.6-3.9-1.2-1.3-2.6-4-3.2-6-0.6-2.1-0.9-4.6-0.7-6.4 0.2-1.5 1.1-4.3 2-6 0.9-1.8 2.4-4.1 3.4-5.1 1-1 3-2.5 4.4-3.3 1.4-0.8 4.1-1.8 6.1-2.2 1.9-0.4 4.6-0.5 6-0.2 1.4 0.2 10.7 3.2 20.5 6.7 9.8 3.5 18.2 6.3 18.5 6.3 0.4 0 1.6-2.1 2.8-4.6 1.2-2.6 3.5-7.7 8.1-18.3l17.6 6c9.7 3.4 20 7 23 8.1 3 1.1 7.6 3 10.2 4.4 2.7 1.3 6.5 3.5 8.5 4.8 2 1.4 5.5 4.1 7.9 6 2.3 1.9 5.9 5.4 7.9 7.7 2 2.3 4.7 5.6 6 7.3 1.2 1.8 3.5 5.5 5.1 8.3 1.5 2.8 3.8 7.9 5.1 11.2 1.2 3.4 2.8 8.4 3.4 11.2 0.9 4 1.2 7.8 1.2 28.5l2.6-0.4c1.4-0.2 6.1-1.2 10.5-2.3 4.4-1.1 11.8-3.3 16.3-5 4.6-1.7 11.7-4.7 15.7-6.7 4-1.9 10.6-5.4 14.5-7.8 4-2.4 9.6-6.1 12.5-8.2 2.9-2.1 8.7-7.3 13-11.5 4.7-4.7 9.7-10.4 12.7-14.7 2.7-3.9 6.5-10.2 8.4-14.1 1.8-3.9 3.9-9 4.6-11.5 0.8-2.5 1.9-6.8 2.5-9.6 0.9-4 1.2-7.7 1.1-17.3 0-10.6-0.2-13.2-1.7-21.1-1-4.9-2.7-11.9-3.7-15.6-1.1-3.7-3-9.5-4.2-12.8-1.2-3.3-4.8-11.3-7.9-17.6-3.1-6.4-8.2-15.4-11.4-20.1-3.1-4.8-8.1-11.7-11.1-15.4-2.9-3.7-8.9-10.3-13.3-14.7-4.4-4.4-10.5-9.9-13.4-12.2-3-2.3-7.8-5.6-10.6-7.4-2.8-1.8-6.8-4.1-8.9-5.2-2.2-1-6.3-2.9-9.3-4.2-3-1.2-8-3-11.2-3.9-3.2-0.9-8.8-2.2-12.5-2.9-3.7-0.6-11.1-1.5-16.6-1.9-7.4-0.6-13.3-0.6-23-0.1-7.2 0.4-17.2 1.3-22.1 2-4.9 0.7-13.1 2.2-18.2 3.2-5.1 1.1-14.6 3.3-21.1 5.1-6.5 1.7-16.1 4.4-21.4 6.1-5.3 1.6-14.1 4.7-19.5 6.7-5.5 2.1-14.5 5.6-20.2 7.9-5.6 2.3-13.8 5.7-18.2 7.6-4.4 2-13.4 6.1-20.1 9.3-6.7 3.2-17.9 8.3-25 11.3-7 3.1-15.1 6.4-17.9 7.5-4.9 1.7-5.5 1.8-27.1 1.8v3.5c0 3.4-0.1 3.6-2.1 4.1-1.2 0.4-4.1 1.2-6.6 2-2.4 0.7-11.4 2.9-19.8 4.8-8.4 1.9-20.1 4.1-25.9 5-5.8 0.9-14.3 2.1-18.9 2.6-4.5 0.6-9.3 1-12.7 1l-10.3-23h-49.5l-2.9 7.2c-1.6 4-4 9.9-7.8 19.3h-27.1c-15.7 0-29.9-0.4-33.8-0.8-3.7-0.4-11.9-1.2-18.3-1.7-6.3-0.6-16.4-1.7-22.3-2.6-6-0.8-11.9-1.8-13.1-2.2-1.3-0.3-3.7-1.8-5.4-3.3-1.8-1.5-3.7-3.9-4.3-5.3-0.7-1.5-1.2-4.1-1.2-6.1 0-2 0.3-4.6 0.6-5.9 0.4-1.3 1.7-3.6 3.1-5.1 1.3-1.4 3.4-3.3 4.6-4.1 1.2-0.7 3.5-1.6 5.1-1.8 1.8-0.3 6.3 0 11.8 0.8 5 0.7 12.6 1.8 17 2.3 4.4 0.5 12.4 1.3 17.9 1.6 5.4 0.4 18.7 1 29.4 1.3 13.6 0.5 28.3 0.5 48.6 0 17.4-0.4 35.4-1.2 44.8-1.9 8.6-0.7 20.5-2 26.5-2.9 6-0.9 13.7-2.1 17.2-2.6 3.6-0.5 9.9-1.7 14.1-2.6 4.2-0.9 11.1-2.5 15.4-3.5 4.2-1.1 11.7-3.1 16.6-4.5 4.9-1.4 14-4.4 20.1-6.6 6.2-2.2 14.7-5.6 18.9-7.4 4.2-1.8 14-6.3 21.7-9.9 7.8-3.6 18.7-8.5 24.3-11 5.7-2.5 13.9-5.9 18.2-7.7 4.4-1.8 11.8-4.7 16.4-6.4 4.5-1.8 14-5.1 21.1-7.4 7-2.3 14.5-4.7 16.6-5.4 2.1-0.7 9-2.5 15.3-4.1 6.4-1.7 16.7-4 23-5.2 6.4-1.3 13.4-2.6 15.7-2.9 2.3-0.4 10.1-1.3 17.3-2 7.2-0.7 13.2-1.5 13.3-1.6 0.2-0.2 2.9-0.3 6.1-0.3z"/><path fill-rule="evenodd" class="c" d="m555.3 130c26.3 0.1 31.9 0.3 36.8 1.2 3.1 0.6 8 2 10.8 3 2.9 1.1 6.5 2.7 8 3.6 1.6 1 4.9 3.6 7.3 5.9 2.4 2.3 5.6 5.9 7.1 8 1.5 2.1 3.5 5.4 4.4 7.2 0.9 1.9 2.3 5.6 3.1 8.3 1.1 3.8 1.4 6.7 1.4 12.3 0 5-0.3 8.7-1.1 11.6-0.6 2.2-2.1 6.3-3.4 8.9-1.8 3.6-3.8 6.1-7.9 10.2-3.9 3.9-7 6.3-16.3 11.4l2.2 1.3c1.3 0.7 4.4 3.5 11.5 11l-2.7 2c-1.5 1.1-3.1 2.5-3.5 3.1-0.5 0.5-1.5 2.3-2.4 4-0.9 1.7-1.8 4.3-2 5.8-0.2 1.5-0.1 4.1 0.3 5.9 0.4 1.7 1.6 4.4 2.7 5.9 1 1.5 3 3.4 4.3 4.3 1.3 0.8 7.1 3.3 23.5 9.3l4.6 10.1c2.6 5.5 4.7 10.2 4.7 10.5 0 0.3-0.7 1.9-2.9 6.9h-41.3l-1.3-2.8c-0.8-1.4-5.6-11.9-10.6-23.1-5.1-11.3-10.5-22.6-12.1-25.3-1.5-2.6-4.1-6.4-5.7-8.5-1.6-2-4.1-4.5-5.6-5.5-1.5-1-4-2.3-5.6-2.9-1.8-0.7-6-1.3-19.2-1.9v70h-43.4v-171.4l11.6-0.2c6.4-0.1 25.7-0.2 42.7-0.1zm-10.9 70.6c13.2 0 20.2-0.3 24.2-0.6 5-0.4 8.1-1.1 10.2-2.1 1.7-0.7 4.2-2.5 5.6-4 1.6-1.5 3.1-3.8 3.7-5.7 0.6-1.8 1.1-4.9 1.1-6.9 0-2-0.3-4.9-0.7-6.4-0.4-1.5-1.6-4.1-2.9-5.7-1.6-2.3-3.2-3.6-6.5-5.2l-4.3-2-30.2-0.5zm127.2-71l38 0.1 26.9 32.3c14.8 17.7 27.1 32.2 27.5 32 0.3-0.1 12.9-14.6 55-64.4l37.7 0.4 0.2 78.9c0 43.5-0.1 79.3-0.4 79.7-0.2 0.3-2 1.9-4 3.5-1.9 1.6-5.6 4.4-13.1 9.6l-26.5-0.1-0.3-103.6-45.4 54.4-6.4 0.1-13.8-16.5c-7.5-9.1-17.8-21.4-31.6-38.1l-0.3 36.6-34.9-12-3.7 8.7c-2.1 4.8-4.1 9-4.4 9.4-0.3 0.3-0.5-23.9-0.5-55.2zm-267 0.6l4.1 9.2c2.3 5 5 10.8 6 12.9 1 2.1 8.1 17.8 15.6 34.9 7.6 17 21 47.2 29.8 67.1 8.8 19.9 17.1 38.7 20.9 47.3l-46.3 0.1-14.1-33.9-76.1-0.1-12.9 33.6-22.8 0.2c-14.9 0.1-22.8-0.1-22.8-0.5 0-0.4 12.9-32.4 28.5-71.1 15.7-38.8 29.2-72 30-73.7 0.9-1.8 3.4-8 5.8-13.8 2.3-5.8 4.4-10.9 4.6-11.3 0.2-0.6 5.8-0.8 49.7-0.9zm-42.8 91.7l-6.1 15.8 52.1-0.1c-20.3-50-26.5-64.5-26.9-64.5-0.4 0-3.4 7.4-6.8 16.5-3.4 9-9 23.6-12.3 32.3z"/><path fill-rule="evenodd" class="a" d="m1103.8 129.1c5 0 12.4 0.4 16.6 0.9 4.1 0.6 10 1.9 13.1 2.9 3.1 1 8.2 3.2 11.5 4.8 3.2 1.6 7.9 4.4 10.3 6.3 2.5 1.8 5.7 4.7 7.3 6.4 1.6 1.8 3.9 4.8 5.1 6.8 1.3 1.9 3.2 5.5 4.3 8 1.2 2.4 2.5 6.6 3 9.2 0.6 3.7 0.8 13.5 0.8 42.5 0 33.6-0.1 38.3-1.1 42.6-0.6 2.6-2.2 7.1-3.6 9.9-1.4 2.8-4.1 7.1-6 9.6-1.8 2.4-5.7 6.3-8.5 8.6-2.9 2.3-8 5.5-11.4 7.2-3.4 1.7-8.2 3.7-10.8 4.6-2.5 0.9-8.2 2.2-12.6 2.9-6.9 1.2-9.5 1.4-19.2 1.1-9.6-0.3-12.2-0.6-18.5-2.3-4.1-1-9.7-2.8-12.5-4-2.8-1.2-7.7-3.9-10.8-6-3.2-2.1-7.3-5.4-9.3-7.3-2-2-4.6-5.1-5.9-7.1-1.2-1.9-4-6.9-10.1-18.8l-0.2-38.4c-0.1-29.8 0.1-39.2 0.7-42.2 0.5-2.1 1.5-5.7 2.2-8 0.7-2.3 2-5.6 2.9-7.3 0.9-1.8 2.8-4.8 4.3-6.8 1.5-1.9 4.4-5 6.5-6.9 2-1.9 6.2-5 9.2-7 3-2 7.9-4.7 10.8-6 3-1.2 7.5-2.9 10-3.7 2.4-0.7 6.3-1.6 8.6-1.9 2.3-0.3 8.2-0.5 13.3-0.6zm-12.7 43.9c-1.9 0.9-5.1 3.2-7.2 5.1l-3.6 3.4v69.7c6.6 5.3 10 7.6 11.8 8.5 1.7 0.8 4.7 1.9 6.5 2.3 1.9 0.3 5 0.7 7.1 0.7 2 0 5.8-0.6 8.4-1.2 2.7-0.7 5.8-1.7 7.1-2.4 1.2-0.6 4.2-3.1 6.7-5.4l4.5-4.4c-0.7-64.5-0.7-65-2.1-68-0.9-2-2.5-3.8-4.5-5.3-1.7-1.2-5.2-2.9-7.8-3.7-2.7-0.9-6.3-1.9-8.2-2.3-1.8-0.4-4.1-0.7-5.1-0.6-1 0-3.6 0.4-5.9 0.9-2.3 0.5-5.7 1.7-7.7 2.7zm259.7-42.8l39.8 0.3c34.1 0.2 40.4 0.4 44.8 1.3 2.9 0.6 7.5 2 10.3 3.1 2.8 1.1 7.4 3.3 10.1 4.9 2.8 1.6 7.2 5 9.9 7.5 2.6 2.4 5.8 6 7.2 7.9 1.3 2 3.4 5.6 4.7 8.2 1.3 2.6 2.5 6.4 2.9 8.6 0.3 2.2 0.9 11.1 1.3 19.7 0.5 8.9 0.6 25.6 0.4 38.7-0.2 18.3-0.5 23.9-1.3 27.5-0.6 2.4-1.8 6.5-2.6 9.1-0.9 2.5-2.7 6.3-4.1 8.3-1.4 2-3.9 5.2-5.6 7.1-1.7 1.9-6 5.4-9.5 7.7-4 2.7-8.5 5.1-12.1 6.4-3.2 1.1-8.1 2.6-10.9 3.3-3.7 0.9-9.2 1.4-19.8 1.9-8.1 0.3-26.2 0.6-65.6 0.6v-41.9l32.5-0.5c17.8-0.2 34.3-0.7 36.6-1 2.3-0.2 5.6-1.2 7.3-2 1.8-0.9 4.3-2.6 5.6-3.8 1.2-1.3 2.6-3.4 3-4.8q0.8-2.6 1.2-28.8c0.2-18.1 0.1-27.9-0.4-31.6-0.6-4.1-1.2-6.1-2.5-8-1-1.4-2.8-3.1-4-3.9-1.2-0.8-3.5-1.8-5.1-2.2-1.6-0.4-8.7-0.9-28.8-1.6l-0.1 28.1c0 15.5-0.2 30.1-0.4 32.6-0.3 2.7-0.8 4.5-1.2 4.6-0.5 0.1-3.4-2-6.4-4.8-3.1-2.8-12.8-12-37.3-35.9zm-61.8 2.2l7.7 3.9c4.2 2.1 9.8 5.5 12.5 7.5 2.6 2 5.9 5.1 7.3 6.9 1.4 1.8 3.6 4.9 4.8 6.9 1.3 2.1 3.2 6.6 4.4 10.1 1.2 3.5 2.5 9.1 3 12.5 0.5 3.3 0.9 7.6 0.9 9.6 0 1.9-0.4 6.5-1 10.2-0.5 3.7-2 9.7-3.2 13.4-1.3 3.7-3.2 8.2-4.3 9.9-1 1.8-3.2 4.8-4.8 6.7-1.7 1.9-5 5-7.4 6.8-2.5 1.8-5.8 4-7.3 4.8-1.5 0.9-2.7 1.8-2.7 2.2 0 0.3 3.4 5.1 7.6 10.6 4.1 5.4 12.6 16.5 19 24.5 6.3 8 12.5 15.8 13.7 17.4 1.9 2.4 2.1 3 1.3 3.4-0.5 0.3-5 0.8-9.9 1-4.9 0.2-17 0.2-44.6-0.6l-11.5-16c-6.4-8.8-14.1-19.3-17.2-23.4-3-4-6.7-8.4-8.2-9.7-1.4-1.3-3-2.4-3.5-2.4-0.6 0-1.3 0.8-1.7 1.7-0.5 1.2-0.9 10.6-1.5 50.7h-45.1v-83.7c0-46.1 0.2-84.3 0.4-84.8 0.4-0.9 4.7-1 91.3-0.1zm-46.3 76.9c24-0.8 29.4-1.2 31.6-1.9 2.3-0.7 4.1-1.8 6.2-4 2-2.2 3.2-4.2 4-6.6 0.6-1.9 1-4.4 1-5.4 0-1.1-0.5-3.8-1.2-6.1-0.8-2.6-2-4.8-3.1-5.9-1-0.9-2.9-2.4-4.3-3.3-1.6-1.1-4.5-2-7.7-2.6-3.1-0.6-9.3-1-15.8-1h-10.7zm-556.2 27.2c0.3 0 7.5 2.4 16 5.3 8.6 3 17.9 6.3 20.7 7.5 2.8 1.2 7.1 3.5 9.6 5.1 2.4 1.6 6.3 4.5 8.6 6.5 2.3 1.9 5.8 5.5 7.7 7.9 2 2.4 4.9 6.6 6.5 9.2 1.7 2.7 3.8 6.8 4.8 9.3 1.1 2.5 2.4 6.1 2.9 8 0.6 1.9 1.3 5.2 1.7 7.3 0.4 2.2 0.7 7.5 0.7 11.9 0 4.4-0.3 9.5-0.6 11.5-0.4 1.9-2.8 9-5.2 15.6-2.5 6.7-5.3 13.5-6.2 15.1-0.9 1.6-3 4.7-4.7 7-1.7 2.3-5 6.1-7.4 8.4-2.4 2.4-6.7 5.9-9.5 8-2.8 2-8.3 5.1-12.1 7-3.9 1.9-9.9 4.2-13.5 5.1-5.3 1.5-8.1 1.8-16.9 2-8 0.3-11.9 0.1-16-0.7-3-0.5-7.7-1.8-10.5-2.7-2.9-0.9-11.8-4.4-19.9-7.7-8-3.4-15.3-6.4-17.5-7.2l2.4-5.6c1.4-3.1 3.3-7.2 4.1-9.1 0.9-2 4-9 6.9-15.7 2.9-6.7 6.2-14.5 7.3-17.3 1.2-2.8 6-14 10.8-24.9 4.7-10.9 11.6-26.7 15.3-35.2 3.6-8.4 8.2-19 10-23.5 1.9-4.5 3.7-8.1 4-8.1z"/><path class="d" d="m627.1 241.6c0.2 0 2.8 0.7 5.7 1.6 2.9 1 5.6 1.9 5.9 2.1 0.4 0.2 1.1 0.5 1.6 0.5 0.6 0.1 7.1 2.3 14.6 4.8 7.5 2.6 13.6 4.9 13.6 5.2 0 0.3-1.5 3.9-3.2 8.1-2.1 5-3.6 7.7-4.2 7.7-0.5 0-1.7-0.3-2.7-0.7-1-0.4-2-0.8-2.4-0.9-0.3-0.1-5.7-1.9-11.8-4.1-6.2-2.2-13.8-5.1-17-6.5-3.1-1.4-6.4-3.2-7.2-4.1-1-1.2-1.4-2.4-1.4-4.6 0-1.9 0.4-3.7 1.2-4.9 0.6-1 2.4-2.4 4-3 1.5-0.7 3-1.2 3.3-1.2zm-33.7 72.9c1.9 0 5.8 0.9 9.5 2.1 3.6 1.2 7.3 2.6 8.4 3 1 0.5 2 0.9 2.2 0.9 0.2 0 1.5 0.5 2.9 0.9 1.4 0.5 3.1 1.2 3.8 1.6 0.7 0.4 1.6 0.7 1.9 0.8 0.4 0 1.8 0.6 3.2 1.2 1.4 0.6 2.9 1.2 3.2 1.3 0.4 0.1 1.5 0.5 2.6 1 1 0.4 2 0.8 2.2 0.9 0.2 0 0.9 0.3 1.6 0.6 0.8 0.2 1.4 0.6 1.5 0.9 0.1 0.2-1.5 4.2-3.5 8.7-1.9 4.6-3.6 8.4-3.8 8.5-0.1 0.1-1.9-0.4-3.9-1.2-2.1-0.7-4.1-1.6-4.5-2-0.5-0.5-0.9-0.6-0.8-0.3 0 0.3-0.7 0.1-1.5-0.3-0.7-0.4-2-0.9-2.7-1-0.7-0.1-1.4-0.4-1.6-0.7-0.1-0.2-0.7-0.5-1.2-0.6-0.6-0.1-4.3-1.5-8.4-3.1-4-1.6-9.7-4.1-12.6-5.4-3.1-1.5-5.6-3.1-6-3.9-0.4-0.8-0.9-2.5-1-3.7-0.2-1.2-0.1-2.9 0.1-3.7 0.2-0.8 1.5-2.6 2.8-4 2.3-2.3 2.8-2.5 5.6-2.5z"/></svg>