<svg version="1.2" baseProfile="tiny-ps" xmlns="http://www.w3.org/2000/svg" viewBox="0 0 1195 277" width="164" height="38">
	<title>betterdiscord2_server-wordmark</title>
	<style>
		tspan { white-space:pre }
		.shp0 { fill: #3e83e6 } 
		.shp1 { fill: #ffffff } 
		.shp2 { fill: #8e9297 } 
		.shp3 { fill: #fffeff } 
	</style>
	<path id="Path 0" class="shp0" d="M1157.29 64.69L1186.76 64.67L1189.49 67.42L1180.78 76.13L1162.84 76.14L1154.36 67.7L1155.82 66.19L1157.29 64.69ZM1192.48 70.67C1192.63 70.68 1193.36 71.29 1195.5 73.4L1195.46 102.26L1192.24 105.52L1183.51 96.79L1183.29 79.39L1187.75 75.02C1190.21 72.63 1192.33 70.67 1192.48 70.67ZM1163.3 99.53L1180.78 99.52L1186.76 105.5L1180.78 111.48L1163.33 111.48L1157.35 105.5L1160.33 102.51L1163.3 99.53ZM1151.35 105.48L1160.1 114.21L1160.1 132.13L1151.64 140.58L1148.61 137.6L1148.43 108.29L1149.89 106.88L1151.35 105.48ZM1162.81 134.86L1180.78 134.87L1189.49 143.57L1186.76 146.33L1157.35 146.33L1154.36 143.3L1158.58 139.08L1162.81 134.86Z" />
	<path id="BetterDiscord " fill-rule="evenodd" class="shp1" d="M37.31 124.14C47.53 124.14 48.42 124.27 50.68 124.57C51.99 124.87 53.96 125.16 54.99 125.45C55.86 125.74 57.55 126.4 58.57 126.83C59.59 127.13 61.27 127.86 62.15 128.29C63.09 128.73 64.56 129.68 65.29 130.12C65.87 130.56 67.26 131.58 67.99 132.38C68.72 133.12 70.11 134.14 70.55 134.71C70.98 135.37 72.01 136.54 72.66 137.41C73.25 138.29 74.13 139.97 74.7 141.14C75.29 142.38 76.09 143.98 76.38 144.79C76.68 145.51 76.83 146.82 77.12 147.92C77.4 148.81 77.7 150.7 77.7 151.94C77.85 153.11 77.85 155.37 77.85 156.54C77.85 158.21 77.56 159.38 77.27 160.76C76.97 161.65 76.38 163.24 75.95 164.2C75.51 165.08 74.57 166.46 74.13 167.18C73.68 167.92 72.81 169.08 72.14 169.89C71.57 170.62 70.4 171.64 69.52 172.23C68.72 172.88 67.84 173.62 67.55 173.62C67.11 173.75 67.11 173.75 68.57 174.64C69.52 175.06 70.83 176.03 71.57 176.45C72.14 176.9 73.53 178.06 74.57 179.15C75.51 180.17 76.97 181.78 77.7 182.88C78.51 183.91 79.24 185.3 79.53 185.87C79.82 186.46 80.4 187.92 80.7 188.87C80.99 189.89 81.42 191.57 81.79 192.59C82.09 193.75 82.38 195.58 82.38 196.75C82.38 197.99 82.38 200.02 82.23 201.27C82.09 202.43 81.79 204.41 81.42 205.43C81.14 206.45 80.7 208.13 80.4 209.29C80.11 210.54 79.09 212.44 78.51 213.83C77.85 214.99 76.83 216.95 76.09 217.84C75.51 218.71 73.97 220.25 73.11 221.12C72.14 221.99 70.55 223.24 69.52 223.96C68.42 224.69 66.82 225.79 65.72 226.23C64.85 226.67 62.73 227.39 61.57 227.84C60.39 228.27 58.42 228.78 57.4 229.08C56.31 229.37 54.4 229.66 53.31 229.8C51.56 230.1 48.27 230.1 0.5 230.24L0.5 206.74L14.16 206.74C21.61 206.74 27.61 206.74 27.61 206.6C27.61 206.6 31.62 206.45 36.44 206.45C44.7 206.45 45.42 206.6 46.88 206.17C47.83 205.87 49 205.43 49.59 205.14C50.17 204.85 51.26 204.12 51.99 203.46C52.72 202.73 53.68 201.71 53.96 201.12C54.26 200.47 54.7 199.31 54.99 198.71C55.14 198.13 55.28 196.6 55.28 195.87C55.28 195.14 55.14 193.75 54.99 193.17C54.84 192.59 54.4 191.57 54.11 190.91C53.82 190.33 53.01 189.44 52.58 189.02C52.14 188.57 51.26 187.48 50.54 187.03C49.88 186.61 48.57 186.02 47.68 185.72C46.01 185.3 46.01 185.3 31.62 185.14L31.62 165.51L37.9 165.51C42.72 165.51 44.7 165.51 45.72 165.22C46.44 165.08 47.68 164.77 48.13 164.49C48.7 164.2 49.59 163.61 50.17 162.96C50.83 162.52 51.7 161.5 51.99 160.91C52.29 160.33 52.72 159.1 52.87 158.36C53.01 157.63 53.16 156.54 53.16 156.1C53.16 155.66 53.01 154.79 52.87 154.19C52.87 153.54 52.58 152.67 52.29 152.09C51.99 151.64 51.4 150.55 50.83 149.97C50.31 149.38 49.29 148.51 48.7 148.21C48.13 147.92 46.88 147.42 46.15 147.27C45.27 146.98 43.59 146.82 27.45 146.82L27.45 168.94C27.45 186.46 27.31 191.05 27.16 191.05C27.02 191.05 24.9 189.44 22.57 187.18C20 184.93 16.72 181.78 14.75 180.17C12.92 178.5 9.05 174.93 0.5 167.34L0.5 124.14L37.31 124.14ZM121.07 165.8L164.01 165.8L164.01 188.97L121.07 188.97L121.07 204.82L167.74 204.82L167.74 230.08L94 230.08L94 124.26L167.74 124.26L167.74 149.38L121.07 149.38L121.07 165.8ZM230.85 149.52L230.85 230.08L203.79 230.08L203.79 149.52L175.67 149.52L175.67 124.1L258.98 124.1L258.98 149.52L230.85 149.52ZM318.37 149.52L318.37 230.08L291.29 230.08L291.29 149.52L263.16 149.52L263.16 124.1L346.47 124.1L346.47 149.52L318.37 149.52ZM384.03 165.8L426.95 165.8L426.95 188.97L384.03 188.97L384.03 204.82L430.69 204.82L430.69 230.08L356.95 230.08L356.95 124.26L430.69 124.26L430.69 149.38L384.03 149.38L384.03 165.8ZM476.76 196.44L471.98 196.44L471.98 230.08L444.9 230.08L444.9 124.26L487.23 124.26C509.06 124.26 525.96 134.27 526.57 159.09C526.57 178.66 518.64 189.72 505.78 193.75L534.64 230.08L501.28 230.08L476.76 196.44ZM487.68 173.43C504.58 173.43 504.58 149.21 487.68 149.21L471.98 149.21L471.98 173.43L487.68 173.43ZM541.54 122.13L563.53 122.13C579.37 122.13 585.95 122.28 587.12 122.5C588.07 122.5 589.67 122.79 590.7 122.94C591.79 123.07 593.26 123.38 594.13 123.67C595.07 123.96 596.69 124.25 597.77 124.54C598.79 124.83 600.26 125.43 601.21 125.77C602.09 126.07 603.62 126.8 604.5 127.24C605.52 127.68 606.91 128.4 607.5 128.77C608.07 129.21 609.54 130.08 610.63 130.82C611.66 131.55 613.18 132.94 613.92 133.81C614.8 134.69 615.96 136.06 616.62 136.8C617.06 137.53 617.94 138.63 618.24 139.21C618.66 139.8 619.33 140.97 619.62 141.76C619.91 142.5 620.5 143.81 620.79 144.61C621.07 145.34 621.52 146.65 621.81 147.46C622.1 148.34 622.46 149.79 622.61 150.74C622.75 151.62 623.06 153.07 623.2 153.88C623.35 155.04 623.35 160.31 623.35 176.87C623.35 194.09 623.35 198.55 623.2 199.71C623.06 200.52 622.9 201.97 622.61 202.84C622.46 203.79 622.1 205.11 621.81 205.84C621.52 206.64 621.22 207.81 620.93 208.24C620.65 208.69 620.5 209.78 620.2 210.22C619.91 210.65 619.48 211.67 618.97 212.41C618.52 213.2 617.79 214.22 617.5 214.67C617.21 215.11 616.62 215.91 616.19 216.49C615.67 217.08 614.65 218.24 614.07 218.83C613.49 219.63 612.24 220.66 611.51 221.23C610.77 221.82 609.39 222.77 608.67 223.21C607.93 223.64 606.26 224.66 604.94 225.33C603.77 225.91 601.94 226.64 601.21 226.93C600.26 227.21 598.66 227.8 597.63 228.1C596.54 228.46 594.65 228.9 593.4 229.19C592.23 229.48 590.4 229.63 589.38 229.78C588.35 229.92 586.39 230.21 585.22 230.21C583.83 230.21 573.53 230.36 541.54 230.36L541.54 204.67L562.57 204.67C580.54 204.67 583.98 204.67 585.51 204.38C586.39 204.38 587.7 204.09 588.35 203.79C588.94 203.51 589.96 203.36 590.4 202.99C590.85 202.7 591.79 202.26 592.09 201.97C592.52 201.68 592.97 201.1 593.4 200.66C593.68 200.15 594.5 199.42 594.79 198.83C595.07 198.25 595.52 197.23 595.96 195.55L595.96 157.31C595.96 156.73 595.67 155.63 595.37 155.04C595.07 154.46 594.79 153.59 594.5 153.07C594.13 152.64 593.54 151.91 593.11 151.47C592.66 151.03 591.79 150.23 591.35 149.94C590.85 149.65 589.96 149.21 589.38 148.92C588.8 148.63 587.55 148.34 586.98 148.34C586.39 148.18 585.08 147.89 583.98 147.89C582.96 147.89 578.94 147.75 568.13 147.75L568.13 191.83C568.13 191.83 566.81 190.74 565.28 189.42C563.82 188.11 559.59 184.3 556.15 181.18C552.72 177.89 548.12 173.73 541.54 167.74L541.54 122.13ZM663.43 230.08L636.65 230.08L636.65 124.26L663.43 124.26L663.43 230.08ZM692 196.59C702.61 209.44 725.95 210.04 726.7 198.69C726.99 192.71 717.27 189.27 708.6 188.08C691.54 185.39 675.99 174.63 675.99 154.45C675.99 133.67 694.84 122.76 714.28 122.76C727.14 122.76 739.56 126.36 750.48 139.65L732.97 153.11C721.91 141.3 702.92 141.74 702.46 154C702.77 159.09 708.3 162.06 716.52 163.87C735.37 167.3 754.22 173.88 753.02 199.88C752.12 220.37 730.59 231.57 711.14 231.57C698.42 231.57 684.96 225.15 675.09 212.44L692 196.59ZM841.86 207.81C833.04 224.99 817.04 231.57 803.72 231.57C782.93 231.57 761.99 219.46 761.99 195.4L761.99 158.94C761.99 135.01 782.93 122.76 804.18 122.76C817.19 122.76 832.89 128.29 841.42 147.13L819.58 155.94C812.41 142.79 788.77 145.78 788.77 158.94L788.77 195.4C788.77 208.11 812.7 211.69 818.54 197.04L841.86 207.81ZM849.05 159.09C849.05 134.72 870.88 122.76 892.87 122.76C914.86 122.76 936.85 134.87 936.85 159.09L936.85 195.25C936.85 219.46 915 231.57 893.02 231.57C871.03 231.57 849.05 219.46 849.05 195.25L849.05 159.09ZM875.81 195.25C875.81 203.02 884.49 206.76 893.02 206.76C901.54 206.76 910.07 202.88 910.07 195.25L910.07 159.09C910.07 150.87 901.24 147.13 892.57 147.13C884.2 147.13 875.81 151.31 875.81 159.09L875.81 195.25ZM982.92 196.44L978.13 196.44L978.13 230.08L951.06 230.08L951.06 124.26L993.38 124.26C1015.21 124.26 1032.11 134.27 1032.72 159.09C1032.72 178.66 1024.8 189.72 1011.93 193.75L1040.8 230.08L1007.45 230.08L982.92 196.44ZM993.83 173.43C1010.73 173.43 1010.73 149.21 993.83 149.21L978.13 149.21L978.13 173.43L993.83 173.43ZM1047.69 122.13L1069.68 122.13C1085.52 122.13 1092.1 122.28 1093.27 122.5C1094.22 122.5 1095.82 122.79 1096.85 122.94C1097.94 123.07 1099.41 123.38 1100.28 123.67C1101.23 123.96 1102.84 124.25 1103.93 124.54C1104.95 124.83 1106.41 125.43 1107.37 125.77C1108.24 126.07 1109.78 126.8 1110.65 127.24C1111.67 127.68 1113.06 128.4 1113.65 128.77C1114.23 129.21 1115.69 130.08 1116.78 130.82C1117.8 131.55 1119.34 132.94 1120.08 133.81C1120.95 134.69 1122.11 136.06 1122.78 136.8C1123.21 137.53 1124.1 138.63 1124.38 139.21C1124.82 139.8 1125.48 140.97 1125.77 141.76C1126.06 142.5 1126.65 143.81 1126.93 144.61C1127.23 145.34 1127.67 146.65 1127.96 147.46C1128.25 148.34 1128.61 149.79 1128.76 150.74C1128.91 151.62 1129.21 153.07 1129.35 153.88C1129.5 155.04 1129.5 160.31 1129.5 176.87C1129.5 194.09 1129.5 198.55 1129.35 199.71C1129.21 200.52 1129.06 201.97 1128.76 202.84C1128.61 203.79 1128.25 205.11 1127.96 205.84C1127.67 206.64 1127.37 207.81 1127.08 208.24C1126.8 208.69 1126.65 209.78 1126.35 210.22C1126.06 210.65 1125.62 211.67 1125.12 212.41C1124.67 213.2 1123.94 214.22 1123.65 214.67C1123.36 215.11 1122.78 215.91 1122.34 216.49C1121.82 217.08 1120.8 218.24 1120.22 218.83C1119.64 219.63 1118.39 220.66 1117.67 221.23C1116.93 221.82 1115.55 222.77 1114.82 223.21C1114.08 223.64 1112.41 224.66 1111.1 225.33C1109.92 225.91 1108.1 226.64 1107.37 226.93C1106.41 227.21 1104.8 227.8 1103.78 228.1C1102.69 228.46 1100.8 228.9 1099.54 229.19C1098.38 229.48 1096.56 229.63 1095.54 229.78C1094.51 229.92 1092.54 230.21 1091.37 230.21C1089.99 230.21 1079.69 230.36 1047.69 230.36L1047.69 204.67L1068.73 204.67C1086.69 204.67 1090.13 204.67 1091.67 204.38C1092.54 204.38 1093.85 204.09 1094.51 203.79C1095.1 203.51 1096.12 203.36 1096.56 202.99C1096.99 202.7 1097.94 202.26 1098.24 201.97C1098.67 201.68 1099.12 201.1 1099.54 200.66C1099.84 200.15 1100.65 199.42 1100.93 198.83C1101.23 198.25 1101.67 197.23 1102.11 195.55L1102.11 157.31C1102.11 156.73 1101.82 155.63 1101.53 155.04C1101.23 154.46 1100.93 153.59 1100.65 153.07C1100.28 152.64 1099.69 151.91 1099.26 151.47C1098.82 151.03 1097.94 150.23 1097.5 149.94C1096.99 149.65 1096.12 149.21 1095.54 148.92C1094.95 148.63 1093.71 148.34 1093.12 148.34C1092.54 148.18 1091.23 147.89 1090.13 147.89C1089.11 147.89 1085.1 147.75 1074.28 147.75L1074.28 191.83C1074.28 191.83 1072.96 190.74 1071.43 189.42C1069.97 188.11 1065.73 184.3 1062.3 181.18C1058.88 177.89 1054.27 173.73 1047.69 167.74L1047.69 122.13Z" />
	<path id="Official BetterDiscord Server " fill-rule="evenodd" class="shp2" d="M276.15 89.54C263.81 89.54 255.81 80.47 255.81 67.08C255.81 53.62 263.87 44.5 276.28 44.5C288.73 44.5 296.6 53.55 296.6 66.96C296.6 80.35 288.61 89.54 276.15 89.54ZM276.21 51.42C268.78 51.42 264.31 57.51 264.31 67.01C264.31 76.51 268.78 82.62 276.21 82.62C283.7 82.62 288.18 76.51 288.18 67.01C288.18 57.51 283.63 51.42 276.21 51.42ZM316.56 50.04C313.98 50.04 312.59 51.16 312.59 53.86L312.59 58.33L318.39 58.33L319.32 64.5L312.59 64.5L312.59 88.71L305.11 88.71L305.11 64.5L300.7 64.5L300.7 58.33L305.11 58.33L305.11 53.12C305.11 46.39 309.38 43.86 315.62 43.86C316.94 43.86 317.94 44 318.7 44.12L319.7 50.28C318.96 50.16 317.82 50.04 316.56 50.04ZM337.46 50.04C334.88 50.04 333.5 51.16 333.5 53.86L333.5 58.33L339.29 58.33L340.23 64.5L333.5 64.5L333.5 88.71L326 88.71L326 64.5L321.6 64.5L321.6 58.33L326 58.33L326 53.12C326 46.39 330.28 43.86 336.51 43.86C337.84 43.86 338.84 44 339.6 44.12L340.61 50.28C339.85 50.16 338.72 50.04 337.46 50.04ZM348.92 53.24C346.4 53.24 344.38 51.48 344.38 48.96C344.38 46.39 346.4 44.56 348.92 44.56C351.38 44.56 353.39 46.39 353.39 48.96C353.39 51.48 351.38 53.24 348.92 53.24ZM345.07 88.71L345.07 58.33L352.63 58.33L352.63 88.71L345.07 88.71ZM373.46 89.28C365.03 89.28 359.05 83.62 359.05 73.69C359.05 63.12 365.66 57.7 373.72 57.7C377.8 57.7 380.83 58.77 383.23 60.28L382.16 67.08C379.57 65.13 377.11 64.24 374.15 64.24C369.81 64.24 366.67 67.46 366.67 73.5C366.67 79.78 370.07 82.8 374.66 82.8C377.3 82.8 379.7 82.11 382.54 79.9L383.54 86.32C380.45 88.46 377.3 89.28 373.46 89.28ZM393.73 53.24C391.22 53.24 389.2 51.48 389.2 48.96C389.2 46.39 391.22 44.56 393.73 44.56C396.19 44.56 398.2 46.39 398.2 48.96C398.2 51.48 396.19 53.24 393.73 53.24ZM389.89 88.71L389.89 58.33L397.45 58.33L397.45 88.71L389.89 88.71ZM423.14 88.71L422.5 84.75C420.05 87.33 416.9 89.35 412.37 89.35C407.21 89.35 403.74 86.2 403.74 80.92C403.74 73.55 409.79 70.35 422.07 69.15L422.07 68.27C422.07 65 420.17 63.74 416.83 63.74C413.32 63.74 409.98 64.75 406.7 66.2L405.76 60.16C409.29 58.77 412.99 57.7 417.85 57.7C425.71 57.7 429.61 60.59 429.61 67.89L429.61 88.71L423.14 88.71ZM422.07 73.55C413.32 74.62 411.23 77.2 411.23 80.09C411.23 82.3 412.62 83.62 414.95 83.62C417.52 83.62 419.99 82.43 422.07 80.35L422.07 73.55ZM437.42 88.71L437.42 44.5L444.98 43.29L444.98 88.71L437.42 88.71ZM479.66 88.71L467.2 88.71L467.2 45.31L479.84 45.31C489.61 45.31 494.26 49.71 494.26 56.58C494.26 61.1 491.75 64.05 487.97 65.63C492.81 67.14 496.02 70.28 496.02 76.07C496.02 84.62 489.85 88.71 479.66 88.71ZM479.41 51.67L475.19 51.67L475.19 63.17L479.03 63.17C483.94 63.17 486.52 60.97 486.52 57.27C486.52 53.81 484.44 51.67 479.41 51.67ZM479.53 69.09L475.19 69.09L475.19 82.36L479.66 82.36C484.94 82.36 488.03 80.16 488.03 75.82C488.03 71.42 485.08 69.09 479.53 69.09ZM527.5 75L507.99 75C508.37 80.92 511.51 83.5 516.17 83.5C520.07 83.5 523.28 82.05 526.62 79.71L527.5 85.63C524.23 87.89 520.26 89.35 515.35 89.35C506.85 89.35 500.5 84.5 500.5 73.55C500.5 63.68 506.41 57.7 514.34 57.7C523.47 57.7 527.56 64.56 527.56 73.17C527.56 73.81 527.5 74.56 527.5 75ZM514.16 62.93C511.14 62.93 508.68 65.32 508.11 70.28L520.2 70.28C519.7 65.56 517.81 62.93 514.16 62.93ZM545.25 89.21C539.27 89.21 535.24 87.01 535.24 80.09L535.24 64.5L530.97 64.5L530.97 58.33L535.24 58.33L535.24 48.71L542.67 47.58L542.67 58.33L548.9 58.33L549.85 64.5L542.67 64.5L542.67 78.84C542.67 81.29 543.8 82.62 546.7 82.62C547.58 82.62 548.4 82.55 549.09 82.36L550.04 88.71C548.84 88.97 547.45 89.21 545.25 89.21ZM567.28 89.21C561.3 89.21 557.27 87.01 557.27 80.09L557.27 64.5L553 64.5L553 58.33L557.27 58.33L557.27 48.71L564.7 47.58L564.7 58.33L570.93 58.33L571.88 64.5L564.7 64.5L564.7 78.84C564.7 81.29 565.83 82.62 568.73 82.62C569.62 82.62 570.43 82.55 571.12 82.36L572.07 88.71C570.88 88.97 569.48 89.21 567.28 89.21ZM602.92 75L583.4 75C583.78 80.92 586.93 83.5 591.58 83.5C595.49 83.5 598.7 82.05 602.04 79.71L602.92 85.63C599.64 87.89 595.67 89.35 590.76 89.35C582.26 89.35 575.91 84.5 575.91 73.55C575.91 63.68 581.82 57.7 589.76 57.7C598.89 57.7 602.97 64.56 602.97 73.17C602.97 73.81 602.92 74.56 602.92 75ZM589.57 62.93C586.55 62.93 584.09 65.32 583.52 70.28L595.61 70.28C595.11 65.56 593.22 62.93 589.57 62.93ZM616.63 71.29L616.63 88.71L609.08 88.71L609.08 58.33L615.51 58.33L616.44 64.43C618.46 60.92 621.48 57.96 626.2 57.7L627.4 65.19C622.68 65.51 618.78 68.02 616.63 71.29ZM646.72 88.71L632.94 88.71L632.94 45.31L646.72 45.31C661.83 45.31 669.63 54.19 669.63 66.96C669.63 79.85 661.52 88.71 646.72 88.71ZM646.67 52.17L641.24 52.17L641.24 81.86L646.53 81.86C655.66 81.86 661.14 77.2 661.14 67.01C661.14 57.01 655.35 52.17 646.67 52.17ZM680.65 53.24C678.14 53.24 676.12 51.48 676.12 48.96C676.12 46.39 678.14 44.56 680.65 44.56C683.1 44.56 685.12 46.39 685.12 48.96C685.12 51.48 683.1 53.24 680.65 53.24ZM676.81 88.71L676.81 58.33L684.37 58.33L684.37 88.71L676.81 88.71ZM702.62 89.28C698.22 89.28 693.68 87.89 690.78 86.32L691.8 80.04C695.07 82.17 699.1 83.62 702.87 83.62C706.15 83.62 707.91 82.43 707.91 80.47C707.91 78.34 706.59 77.46 701.74 76.25C694.38 74.37 691.3 72.24 691.3 66.7C691.3 61.48 695.45 57.77 702.5 57.77C706.46 57.77 710.11 58.52 713.14 59.9L712.13 66.2C709.11 64.5 705.51 63.43 702.5 63.43C699.67 63.43 698.28 64.5 698.28 66.2C698.28 67.83 699.41 68.71 703.94 69.9C711.81 71.92 714.9 74.06 714.9 79.78C714.9 85.75 710.61 89.28 702.62 89.28ZM733.72 89.28C725.28 89.28 719.31 83.62 719.31 73.69C719.31 63.12 725.92 57.7 733.97 57.7C738.06 57.7 741.08 58.77 743.47 60.28L742.41 67.08C739.82 65.13 737.37 64.24 734.41 64.24C730.07 64.24 726.92 67.46 726.92 73.5C726.92 79.78 730.32 82.8 734.91 82.8C737.56 82.8 739.95 82.11 742.78 79.9L743.79 86.32C740.7 88.46 737.56 89.28 733.72 89.28ZM761.92 89.35C753.67 89.35 747.69 83.43 747.69 73.55C747.69 63.68 753.74 57.7 761.99 57.7C770.29 57.7 776.34 63.68 776.34 73.55C776.34 83.43 770.23 89.35 761.92 89.35ZM761.92 63.93C757.45 63.93 755.06 67.89 755.06 73.55C755.06 79.09 757.51 83.17 761.92 83.17C766.57 83.17 768.97 79.21 768.97 73.55C768.97 67.96 766.45 63.93 761.92 63.93ZM790 71.29L790 88.71L782.44 88.71L782.44 58.33L788.86 58.33L789.81 64.43C791.82 60.92 794.84 57.96 799.56 57.7L800.76 65.19C796.04 65.51 792.13 68.02 790 71.29ZM824.62 88.71L823.98 84.5C821.85 87.08 818.89 89.35 814.67 89.35C808.31 89.35 803.21 84.62 803.21 74.37C803.21 63.05 809.45 58.02 816.49 58.02C819.39 58.02 821.73 58.52 823.55 59.15L823.55 44.5L831.1 43.29L831.1 88.71L824.62 88.71ZM823.55 65.38C821.66 64.5 820.21 64.05 817.63 64.05C813.67 64.05 810.77 67.27 810.77 73.93C810.77 79.85 813.29 82.62 816.63 82.62C819.39 82.62 821.54 80.98 823.55 78.46L823.55 65.38ZM864.84 89.21C859.55 89.21 855.02 88.02 851.18 86.2L852.44 78.59C856.09 80.73 860.62 82.43 864.96 82.43C868.8 82.43 871.45 80.6 871.45 77.14C871.45 73.93 869.94 72.61 863.64 69.9C855.21 66.44 851.81 63.68 851.81 56.96C851.81 49.28 857.73 44.81 865.84 44.81C870.75 44.81 874.16 45.82 877.3 47.46L876.04 55C872.9 52.93 869.18 51.6 865.79 51.6C861.62 51.6 859.81 53.62 859.81 56.25C859.81 59.02 861.19 60.35 867.23 62.86C876.17 66.51 879.45 69.59 879.45 76.32C879.45 84.81 873.21 89.21 864.84 89.21ZM911.23 75L891.72 75C892.09 80.92 895.24 83.5 899.9 83.5C903.81 83.5 907.01 82.05 910.35 79.71L911.23 85.63C907.96 87.89 903.99 89.35 899.09 89.35C890.59 89.35 884.22 84.5 884.22 73.55C884.22 63.68 890.15 57.7 898.07 57.7C907.2 57.7 911.3 64.56 911.3 73.17C911.3 73.81 911.23 74.56 911.23 75ZM897.88 62.93C894.87 62.93 892.42 65.32 891.85 70.28L903.93 70.28C903.43 65.56 901.53 62.93 897.88 62.93ZM924.96 71.29L924.96 88.71L917.4 88.71L917.4 58.33L923.82 58.33L924.77 64.43C926.78 60.92 929.8 57.96 934.52 57.7L935.72 65.19C931 65.51 927.09 68.02 924.96 71.29ZM955.74 88.84L948.37 88.84L937.74 58.9L945.66 57.89L952.47 79.47L959.01 58.33L966.5 58.33L955.74 88.84ZM995.77 75L976.26 75C976.63 80.92 979.78 83.5 984.44 83.5C988.35 83.5 991.55 82.05 994.89 79.71L995.77 85.63C992.5 87.89 988.53 89.35 983.63 89.35C975.12 89.35 968.76 84.5 968.76 73.55C968.76 63.68 974.69 57.7 982.61 57.7C991.74 57.7 995.84 64.56 995.84 73.17C995.84 73.81 995.77 74.56 995.77 75ZM982.42 62.93C979.41 62.93 976.95 65.32 976.39 70.28L988.47 70.28C987.97 65.56 986.07 62.93 982.42 62.93ZM1009.5 71.29L1009.5 88.71L1001.94 88.71L1001.94 58.33L1008.36 58.33L1009.31 64.43C1011.32 60.92 1014.34 57.96 1019.06 57.7L1020.26 65.19C1015.54 65.51 1011.64 68.02 1009.5 71.29Z" />
	<g id="Folder 1">
		<path id="Path 1" class="shp0" d="M215.38 36.44L214.93 36.48C214.69 36.49 214.49 36.55 214.49 36.61C214.49 36.67 214.65 36.79 214.83 36.88C215.01 36.97 215.29 37.12 215.44 37.24C215.57 37.35 215.36 37.28 214.96 37.08C214.56 36.87 214.21 36.68 214.18 36.64C214.16 36.62 214.2 36.55 214.29 36.5C214.37 36.45 214.66 36.41 215.38 36.44ZM190.47 36.54C201.83 36.58 203.68 36.6 204.67 36.75C205.31 36.84 206.18 36.99 206.64 37.08C207.11 37.17 207.62 37.27 207.79 37.3C207.97 37.33 208.59 37.52 209.19 37.71C209.79 37.9 210.56 38.16 210.9 38.28C211.25 38.4 212 38.72 212.57 39.01C213.14 39.29 213.81 39.65 214.04 39.8C214.29 39.97 214.76 40.28 215.09 40.5C215.41 40.73 216.16 41.38 216.74 41.95C217.32 42.53 218 43.31 218.25 43.67C218.5 44.05 218.76 44.45 218.83 44.56C218.9 44.67 219.18 45.19 219.43 45.7C219.7 46.21 220.04 47.08 220.21 47.62C220.38 48.17 220.58 48.91 220.67 49.28C220.76 49.66 220.88 50.55 220.95 51.26C221.02 52.06 221.05 53.15 221 54.12C220.97 54.97 220.87 56.09 220.78 56.61C220.69 57.12 220.55 57.84 220.47 58.21C220.38 58.59 220.17 59.29 220 59.78C219.83 60.26 219.51 61.05 219.28 61.52C219.05 61.98 218.86 62.39 218.86 62.43C218.86 62.45 218.58 62.88 218.22 63.38C217.87 63.89 217.47 64.4 217.34 64.53C217.21 64.65 217.09 64.8 217.09 64.84C217.09 64.89 217.35 65.22 217.66 65.59C217.97 65.97 218.23 66.3 218.23 66.34C218.23 66.39 218.37 66.62 218.53 66.87C218.7 67.11 219.02 67.68 219.25 68.13C219.48 68.59 219.83 69.46 220.03 70.06C220.23 70.66 220.49 71.64 220.61 72.24C220.73 72.84 220.88 73.84 220.94 74.48C220.99 75.1 221.05 76.09 221.05 76.66C221.04 77.22 220.99 78.13 220.94 78.68C220.88 79.23 220.76 79.99 220.67 80.39C220.58 80.79 220.47 81.28 220.43 81.48C220.39 81.68 220.28 82.02 220.18 82.22C220.08 82.41 220 82.64 220 82.73C220 82.82 219.8 83.31 219.55 83.82C219.31 84.33 218.81 85.2 218.45 85.74C218.09 86.29 217.65 86.89 217.47 87.09C217.3 87.28 216.94 87.65 216.67 87.91C216.42 88.17 215.97 88.57 215.69 88.8C215.4 89.04 214.85 89.44 214.45 89.69C214.04 89.96 213.53 90.25 213.3 90.36C213.08 90.46 212.81 90.6 212.73 90.67C212.64 90.74 212.29 90.92 211.95 91.06C211.61 91.22 210.93 91.48 210.44 91.67C209.96 91.85 208.92 92.15 208.16 92.34C207.38 92.53 206.4 92.74 205.97 92.81C205.54 92.87 204.7 92.97 204.1 93.04C203.44 93.11 198.57 93.17 191.68 93.21C185.44 93.24 179.67 93.25 177.33 93.17L177.28 87.51C177.24 83.81 177.26 81.81 177.33 81.72C177.42 81.61 179.9 81.58 189.65 81.56C201.74 81.53 201.87 81.53 202.54 81.32C202.91 81.19 203.49 80.96 203.84 80.79C204.18 80.63 204.48 80.47 204.51 80.44C204.55 80.4 204.7 80.28 204.88 80.17C205.05 80.05 205.43 79.66 205.72 79.29C206.01 78.92 206.4 78.26 206.59 77.8C206.89 77.07 206.93 76.86 206.93 76.03C206.93 75.29 206.87 74.93 206.64 74.26C206.49 73.81 206.23 73.25 206.07 73.02C205.92 72.8 205.54 72.36 205.23 72.05C204.92 71.75 204.35 71.35 203.95 71.15C203.55 70.95 202.89 70.68 202.49 70.56C201.81 70.35 201.5 70.33 198.28 70.29C196.37 70.27 194.76 70.23 194.72 70.18C194.67 70.15 194.64 67.75 194.64 64.86C194.64 61.98 194.67 59.59 194.72 59.55C194.76 59.51 196.39 59.46 198.33 59.44C201.46 59.39 201.94 59.36 202.54 59.18C202.91 59.07 203.45 58.86 203.74 58.71C204.03 58.57 204.51 58.26 204.83 58.02C205.14 57.79 205.58 57.34 205.82 57.04C206.04 56.74 206.36 56.19 206.53 55.82C206.79 55.26 206.84 54.97 206.89 54.12C206.92 53.45 206.89 52.87 206.8 52.51C206.72 52.19 206.54 51.73 206.41 51.47C206.26 51.2 206 50.79 205.81 50.53C205.63 50.27 205.15 49.82 204.76 49.54C204.31 49.19 203.67 48.85 201.97 48.19L197.06 48.17C193.94 48.16 192.07 48.18 191.94 48.25C191.73 48.35 191.72 48.46 191.72 60.48C191.72 67.95 191.69 72.64 191.62 72.71C191.57 72.77 191.33 72.64 190.98 72.33C190.68 72.07 190.27 71.71 190.06 71.52C189.86 71.33 189.31 70.83 188.82 70.39C188.33 69.96 187.42 69.14 186.79 68.56C186.16 67.97 185.39 67.27 185.07 66.99C184.75 66.7 184.2 66.22 183.83 65.9C183.47 65.59 183.1 65.26 183 65.18C182.91 65.09 182.55 64.76 182.21 64.45C181.86 64.13 181.05 63.38 180.39 62.77C179.73 62.17 178.83 61.35 178.36 60.95C177.91 60.55 177.49 60.16 177.41 60.08C177.31 59.96 177.27 57.43 177.26 48.32C177.25 41.93 177.28 36.65 177.33 36.6C177.37 36.53 181.87 36.51 190.47 36.54Z" />
		<path id="Path 2" class="shp3" d="M216.92 36.54C218.24 36.58 219.72 36.65 220.21 36.71C220.7 36.77 221.4 36.85 221.77 36.91C222.14 36.98 222.66 37.07 222.92 37.12C223.17 37.17 223.64 37.29 223.95 37.38C224.26 37.47 225.09 37.72 225.78 37.94C226.46 38.17 227.16 38.42 227.34 38.51C227.5 38.6 228.04 38.87 228.53 39.11C229.02 39.36 229.79 39.79 230.24 40.07C230.7 40.36 231.36 40.8 231.7 41.06C232.05 41.33 232.71 41.92 233.19 42.37C233.67 42.83 234.33 43.54 234.65 43.94C234.98 44.33 235.42 44.92 235.62 45.23C235.82 45.55 236.2 46.2 236.45 46.69C236.71 47.18 237.11 48.12 237.36 48.79C237.59 49.46 237.76 50.01 237.72 50.01C237.7 50.01 237.73 50.19 237.81 50.4C237.89 50.61 238.03 51.24 238.12 51.78C238.21 52.32 238.35 53.31 238.41 53.96C238.49 54.77 238.51 58.47 238.48 65.7C238.46 71.49 238.4 76.44 238.37 76.71C238.32 76.97 238.25 77.52 238.18 77.96C238.12 78.38 237.98 79.06 237.87 79.46C237.76 79.86 237.59 80.42 237.51 80.7C237.42 80.99 237.26 81.46 237.13 81.74C237.02 82.03 236.81 82.5 236.68 82.78C236.54 83.07 236.34 83.44 236.24 83.62C236.14 83.79 235.88 84.23 235.66 84.6C235.44 84.98 235.17 85.37 235.07 85.49C234.96 85.6 234.66 85.95 234.38 86.27C234.11 86.59 233.56 87.16 233.16 87.53C232.76 87.92 232.03 88.52 231.54 88.89C231.05 89.25 230.14 89.83 229.52 90.16C228.88 90.5 228.02 90.93 227.59 91.11C227.16 91.28 226.56 91.53 226.25 91.64C225.92 91.76 225.3 91.97 224.84 92.12C224.38 92.26 223.9 92.38 223.77 92.38C223.64 92.4 223.52 92.43 223.5 92.47C223.47 92.51 223.23 92.58 222.95 92.63C222.67 92.67 222.24 92.74 221.98 92.76C221.73 92.78 221.44 92.84 221.36 92.87C221.27 92.91 220.78 92.99 220.27 93.04C219.74 93.09 218.32 93.15 217.09 93.19C215.69 93.23 214.78 93.21 214.65 93.14C214.46 93.04 214.46 93.03 214.71 92.9C214.87 92.82 215.17 92.65 215.39 92.53C215.61 92.41 216.15 92.06 216.57 91.75C217.01 91.45 217.54 91.03 217.77 90.84C218 90.64 218.49 90.17 218.86 89.79C219.24 89.43 219.78 88.84 220.06 88.48C220.35 88.14 220.66 87.71 220.76 87.55C220.86 87.39 221.17 86.88 221.46 86.42C221.75 85.97 222.03 85.42 222.09 85.22C222.16 85.02 222.27 84.79 222.34 84.71C222.4 84.62 222.58 84.18 222.73 83.72C222.87 83.26 223.07 82.63 223.17 82.32C223.27 82.01 223.4 81.48 223.45 81.17C223.51 80.86 223.62 80.16 223.71 79.61C223.85 78.76 223.89 76.89 223.92 65.59C223.95 56.54 223.93 52.21 223.85 51.42C223.79 50.78 223.7 50.01 223.64 49.7C223.6 49.38 223.51 48.91 223.44 48.66C223.38 48.4 223.3 47.96 223.23 47.68C223.17 47.39 223.06 46.97 223.01 46.74C222.94 46.51 222.77 46.09 222.64 45.81C222.49 45.52 222.3 45.07 222.22 44.82C222.13 44.56 221.89 44.07 221.69 43.73C221.5 43.38 221.26 42.98 221.17 42.83C221.07 42.68 220.91 42.45 220.81 42.32C220.7 42.17 220.41 41.78 220.17 41.44C219.91 41.1 219.39 40.49 219 40.09C218.61 39.69 218.1 39.19 217.87 38.99C217.64 38.79 216.87 38.22 216.16 37.73C215.45 37.25 214.78 36.82 214.68 36.79C214.58 36.74 214.5 36.67 214.5 36.6C214.51 36.52 215.24 36.51 216.92 36.54Z" />
	</g>
</svg>