<svg version="1.2" baseProfile="tiny-ps" xmlns="http://www.w3.org/2000/svg" viewBox="0 0 1074 227" width="161" height="34">
	<title>betterdiscord_server-wordmark-svg</title>
	<style>
		tspan { white-space:pre }
		.shp0 { fill: #3e83e6 } 
		.shp1 { fill: #8e9297 } 
		.shp2 { fill: #fffeff } 
	</style>
	<path id="BETTERDISCORD " fill="#ffffff" aria-label="BETTERDISCORD"  d="M11.79 130.06L0.21 130.06L0.21 168.77C7.86 175.58 11.33 178.78 12.96 180.29C14.73 181.72 17.67 184.54 19.96 186.56C22.06 188.59 23.95 190.03 24.08 190.03C24.21 190.03 24.34 185.91 24.34 170.21L24.34 150.4C38.8 150.4 40.3 150.53 41.09 150.79C41.74 150.92 42.85 151.38 43.38 151.64C43.9 151.9 44.82 152.69 45.27 153.21C45.8 153.73 46.32 154.71 46.58 155.11C46.84 155.63 47.1 156.41 47.1 157C47.24 157.53 47.37 158.31 47.37 158.7C47.37 159.09 47.24 160.08 47.1 160.73C46.97 161.38 46.58 162.5 46.32 163.02C46.06 163.54 45.27 164.46 44.68 164.85C44.16 165.44 43.38 165.96 42.85 166.22C42.46 166.49 41.35 166.75 40.7 166.88C39.78 167.14 38.01 167.14 33.7 167.14L28.07 167.14L28.07 184.73C40.96 184.86 40.96 184.86 42.46 185.26C43.25 185.52 44.42 186.04 45.01 186.43C45.67 186.83 46.45 187.81 46.84 188.2C47.24 188.59 47.95 189.38 48.22 189.9C48.48 190.49 48.87 191.4 49 191.93C49.13 192.45 49.26 193.69 49.26 194.35C49.26 195 49.13 196.37 49 196.9C48.74 197.42 48.35 198.47 48.09 199.06C47.82 199.58 46.97 200.49 46.32 201.15C45.67 201.74 44.68 202.39 44.16 202.65C43.64 202.91 42.59 203.31 41.74 203.57C40.43 203.96 39.78 203.83 32.39 203.83C28.07 203.83 24.48 203.96 24.48 203.96C24.48 204.09 19.11 204.09 12.44 204.09L0.21 204.09L0.21 225.15C42.98 225.02 45.93 225.02 47.5 224.76C48.48 224.63 50.18 224.37 51.16 224.1C52.08 223.84 53.84 223.39 54.89 222.99C55.93 222.6 57.83 221.95 58.62 221.55C59.6 221.16 61.04 220.18 62.02 219.53C62.93 218.87 64.37 217.76 65.22 216.98C66.01 216.19 67.38 214.82 67.9 214.03C68.56 213.25 69.47 211.48 70.06 210.44C70.58 209.19 71.5 207.49 71.76 206.38C72.02 205.33 72.42 203.83 72.68 202.91C73 202 73.27 200.23 73.4 199.19C73.53 198.07 73.53 196.24 73.53 195.13C73.53 194.09 73.27 192.45 73 191.4C72.68 190.49 72.28 188.98 72.02 188.07C71.76 187.22 71.24 185.91 70.98 185.39C70.71 184.86 70.06 183.62 69.34 182.71C68.69 181.72 67.38 180.29 66.53 179.37C65.61 178.39 64.37 177.34 63.85 176.95C63.19 176.56 62.02 175.71 61.17 175.31C59.86 174.53 59.86 174.53 60.25 174.4C60.51 174.4 61.3 173.75 62.02 173.16C62.8 172.63 63.85 171.72 64.37 171.06C64.96 170.34 65.74 169.3 66.14 168.64C66.53 167.99 67.38 166.75 67.77 165.96C68.16 165.11 68.69 163.67 68.95 162.89C69.21 161.65 69.47 160.6 69.47 159.09C69.47 158.05 69.47 156.02 69.34 154.97C69.34 153.86 69.08 152.16 68.82 151.38C68.56 150.4 68.43 149.22 68.16 148.57C67.9 147.85 67.18 146.41 66.66 145.3C66.14 144.25 65.35 142.74 64.83 141.96C64.24 141.17 63.32 140.13 62.93 139.54C62.54 139.02 61.3 138.1 60.64 137.45C59.99 136.73 58.75 135.81 58.22 135.42C57.57 135.03 56.26 134.18 55.41 133.78C54.63 133.39 53.12 132.74 52.21 132.48C51.29 132.08 49.79 131.5 49 131.23C48.09 130.97 46.32 130.71 45.14 130.45C43.12 130.19 42.33 130.06 33.17 130.06ZM108.18 152.67L149.97 152.67L149.97 130.17L83.94 130.17L83.94 225L149.97 225L149.97 202.36L108.18 202.36L108.18 188.17L146.62 188.17L146.62 167.41L108.18 167.41ZM231.68 152.81L231.68 130.04L157.07 130.04L157.07 152.81L182.25 152.81L182.25 225L206.5 225L206.5 152.81ZM310.03 152.81L310.03 130.04L235.43 130.04L235.43 152.81L260.61 152.81L260.61 225L284.85 225L284.85 152.81ZM343.65 152.67L385.44 152.67L385.44 130.17L319.41 130.17L319.41 225L385.44 225L385.44 202.36L343.65 202.36L343.65 188.17L382.09 188.17L382.09 167.41L343.65 167.41ZM448.66 225L478.53 225L452.68 192.45C464.2 188.84 471.3 178.92 471.3 161.38C470.76 139.14 455.63 130.17 436.07 130.17L398.17 130.17L398.17 225L422.41 225L422.41 194.86L426.7 194.86ZM422.41 174.24L422.41 152.54L436.47 152.54C451.61 152.54 451.61 174.24 436.47 174.24ZM484.71 148.8L484.71 148.8L484.71 169.14C490.6 174.5 494.72 178.23 497.79 181.17C500.87 183.99 504.66 187.39 505.97 188.56C507.34 189.74 508.52 190.72 508.52 190.72L508.52 170.91L508.52 151.22C518.2 151.22 521.79 151.35 522.71 151.35C523.69 151.35 524.87 151.61 525.39 151.74C525.91 151.74 527.03 152 527.55 152.27C528.07 152.53 528.86 152.92 529.32 153.18C529.71 153.44 530.49 154.16 530.89 154.56C531.28 154.95 531.8 155.6 532.13 155.99C532.39 156.45 532.65 157.24 532.91 157.76C533.17 158.28 533.44 159.26 533.44 159.79L533.44 177.32L533.44 194.06C533.04 195.56 532.65 196.48 532.39 197C532.13 197.52 531.41 198.18 531.15 198.64C530.75 199.03 530.36 199.55 529.97 199.81C529.71 200.08 528.86 200.47 528.47 200.73C528.07 201.06 527.16 201.19 526.63 201.45C526.05 201.71 524.87 201.97 524.08 201.97C522.71 202.23 519.64 202.23 503.55 202.23L484.71 202.23L484.71 225.26C513.36 225.26 522.58 225.12 523.82 225.12C524.87 225.12 526.63 224.86 527.55 224.73C528.47 224.6 530.1 224.47 531.15 224.21C532.26 223.95 533.96 223.55 534.94 223.23C535.86 222.97 537.29 222.44 538.14 222.18C538.8 221.92 540.43 221.27 541.48 220.74C542.66 220.15 544.16 219.24 544.82 218.85C545.47 218.45 546.71 217.6 547.37 217.08C548.02 216.56 549.13 215.64 549.66 214.92C550.18 214.4 551.09 213.35 551.55 212.83C551.94 212.31 552.47 211.59 552.73 211.19C552.99 210.8 553.65 209.89 554.04 209.17C554.5 208.51 554.89 207.6 555.15 207.2C555.41 206.81 555.54 205.83 555.8 205.44C556.07 205.05 556.33 204 556.59 203.28C556.85 202.63 557.18 201.45 557.31 200.6C557.57 199.81 557.7 198.51 557.83 197.79C557.96 196.74 557.96 192.75 557.96 177.32C557.96 162.47 557.96 157.76 557.83 156.71C557.7 155.99 557.44 154.69 557.31 153.9C557.18 153.05 556.85 151.74 556.59 150.96C556.33 150.24 555.93 149.06 555.67 148.41C555.41 147.69 554.89 146.51 554.63 145.86C554.36 145.14 553.78 144.09 553.38 143.57C553.12 143.04 552.34 142.06 551.94 141.41C551.36 140.76 550.31 139.51 549.52 138.73C548.87 137.94 547.5 136.7 546.58 136.05C545.6 135.39 544.29 134.61 543.77 134.22C543.25 133.89 542 133.23 541.09 132.84C540.3 132.45 538.93 131.8 538.14 131.53C537.29 131.21 535.99 130.68 535.07 130.42C534.09 130.16 532.65 129.9 531.8 129.64C531.02 129.38 529.71 129.11 528.73 128.98C527.81 128.85 526.37 128.59 525.52 128.59C524.48 128.39 518.59 128.26 504.4 128.26L484.71 128.26ZM593.86 130.17L569.88 130.17L569.88 225L593.86 225ZM604.3 209.19C613.14 220.58 625.2 226.34 636.58 226.34C654 226.34 673.28 216.29 674.09 197.94C675.16 174.64 658.28 168.74 641.4 165.66C634.04 164.06 629.08 161.38 628.81 156.82C629.22 145.84 646.23 145.44 656.14 156.02L671.81 143.97C662.03 132.04 650.91 128.83 639.4 128.83C621.98 128.83 605.11 138.61 605.11 157.23C605.11 175.31 619.04 184.95 634.31 187.36C642.07 188.43 650.78 191.51 650.51 196.87C649.84 207.05 628.95 206.52 619.44 195ZM732.75 195.4C727.53 208.53 706.1 205.31 706.1 193.93L706.1 161.24C706.1 149.46 727.26 146.78 733.69 158.56L753.25 150.66C745.61 133.79 731.55 128.83 719.89 128.83C700.87 128.83 682.12 139.81 682.12 161.24L682.12 193.93C682.12 215.49 700.87 226.34 719.49 226.34C731.41 226.34 745.75 220.45 753.65 205.04ZM760.08 193.79C760.08 215.49 779.77 226.34 799.46 226.34C819.15 226.34 838.7 215.49 838.7 193.79L838.7 161.38C838.7 139.68 819.01 128.83 799.32 128.83C779.63 128.83 760.08 139.55 760.08 161.38ZM784.05 161.38C784.05 154.41 791.55 150.66 799.05 150.66C806.82 150.66 814.73 154.01 814.73 161.38L814.73 193.79C814.73 200.62 807.09 204.11 799.46 204.11C791.82 204.11 784.05 200.76 784.05 193.79ZM901.92 225L931.79 225L905.94 192.45C917.46 188.84 924.56 178.92 924.56 161.38C924.02 139.14 908.89 130.17 889.33 130.17L851.43 130.17L851.43 225L875.67 225L875.67 194.86L879.95 194.86ZM875.67 174.24L875.67 152.54L889.73 152.54C904.87 152.54 904.87 174.24 889.73 174.24ZM937.97 148.8L937.97 148.8L937.97 169.14C943.86 174.5 947.98 178.23 951.05 181.17C954.12 183.99 957.92 187.39 959.23 188.56C960.6 189.74 961.78 190.72 961.78 190.72L961.78 170.91L961.78 151.22C971.46 151.22 975.05 151.35 975.97 151.35C976.95 151.35 978.13 151.61 978.65 151.74C979.17 151.74 980.29 152 980.81 152.27C981.33 152.53 982.12 152.92 982.57 153.18C982.97 153.44 983.75 154.16 984.14 154.56C984.54 154.95 985.06 155.6 985.39 155.99C985.65 156.45 985.91 157.24 986.17 157.76C986.43 158.28 986.69 159.26 986.69 159.79L986.69 177.32L986.69 194.06C986.3 195.56 985.91 196.48 985.65 197C985.39 197.52 984.67 198.18 984.41 198.64C984.01 199.03 983.62 199.55 983.23 199.81C982.97 200.08 982.12 200.47 981.72 200.73C981.33 201.06 980.42 201.19 979.89 201.45C979.3 201.71 978.13 201.97 977.34 201.97C975.97 202.23 972.89 202.23 956.81 202.23L937.97 202.23L937.97 225.26C966.62 225.26 975.84 225.12 977.08 225.12C978.13 225.12 979.89 224.86 980.81 224.73C981.72 224.6 983.36 224.47 984.41 224.21C985.52 223.95 987.22 223.55 988.2 223.23C989.11 222.97 990.55 222.44 991.4 222.18C992.06 221.92 993.69 221.27 994.74 220.74C995.92 220.15 997.42 219.24 998.07 218.85C998.73 218.45 999.97 217.6 1000.63 217.08C1001.28 216.56 1002.39 215.64 1002.91 214.92C1003.44 214.4 1004.35 213.35 1004.81 212.83C1005.2 212.31 1005.73 211.59 1005.99 211.19C1006.25 210.8 1006.9 209.89 1007.3 209.17C1007.75 208.51 1008.15 207.6 1008.41 207.2C1008.67 206.81 1008.8 205.83 1009.06 205.44C1009.32 205.05 1009.59 204 1009.85 203.28C1010.11 202.63 1010.44 201.45 1010.57 200.6C1010.83 199.81 1010.96 198.51 1011.09 197.79C1011.22 196.74 1011.22 192.75 1011.22 177.32C1011.22 162.47 1011.22 157.76 1011.09 156.71C1010.96 155.99 1010.7 154.69 1010.57 153.9C1010.44 153.05 1010.11 151.74 1009.85 150.96C1009.59 150.24 1009.19 149.06 1008.93 148.41C1008.67 147.69 1008.15 146.51 1007.88 145.86C1007.62 145.14 1007.03 144.09 1006.64 143.57C1006.38 143.04 1005.6 142.06 1005.2 141.41C1004.61 140.76 1003.57 139.51 1002.78 138.73C1002.13 137.94 1000.76 136.7 999.84 136.05C998.86 135.39 997.55 134.61 997.03 134.22C996.5 133.89 995.26 133.23 994.35 132.84C993.56 132.45 992.19 131.8 991.4 131.53C990.55 131.21 989.25 130.68 988.33 130.42C987.35 130.16 985.91 129.9 985.06 129.64C984.27 129.38 982.97 129.11 981.99 128.98C981.07 128.85 979.63 128.59 978.78 128.59C977.73 128.39 971.85 128.26 957.66 128.26L937.97 128.26Z" />
	<path id="Path 0" class="shp0" d="M1030.52 82.32L1028.92 83.97L1038.21 93.24L1057.87 93.22L1067.41 83.67L1064.42 80.65L1032.13 80.67L1030.52 82.32ZM1065.51 92.01L1060.62 96.8L1060.86 115.89L1070.43 125.47L1073.96 121.9L1074 90.23C1071.65 87.91 1070.85 87.24 1070.69 87.23C1070.53 87.23 1068.2 89.38 1065.51 92.01ZM1035.46 122.17L1032.2 125.45L1038.75 132.02L1057.87 132.02L1064.42 125.45L1057.87 118.89L1038.72 118.9L1035.46 122.17ZM1024.02 126.97L1022.42 128.51L1022.62 160.68L1025.94 163.95L1035.21 154.67L1035.21 135.01L1025.62 125.43L1024.02 126.97ZM1033.55 162.3L1028.92 166.93L1032.2 170.26L1064.42 170.26L1067.41 167.23L1057.87 157.68L1038.18 157.67L1033.55 162.3Z" />
	<path id="Official BetterDiscord Server " fill-rule="evenodd" class="shp1" d="M246.83 89.74C235.74 89.74 228.56 81.59 228.56 69.55C228.56 57.45 235.8 49.25 246.94 49.25C258.13 49.25 265.2 57.39 265.2 69.44C265.2 81.48 258.02 89.74 246.83 89.74ZM246.88 55.47C240.21 55.47 236.19 60.95 236.19 69.49C236.19 78.03 240.21 83.52 246.88 83.52C253.61 83.52 257.63 78.03 257.63 69.49C257.63 60.95 253.55 55.47 246.88 55.47ZM283.13 54.23C280.81 54.23 279.56 55.24 279.56 57.67L279.56 61.69L284.77 61.69L285.61 67.23L279.56 67.23L279.56 89L272.84 89L272.84 67.23L268.88 67.23L268.88 61.69L272.84 61.69L272.84 57C272.84 50.95 276.68 48.68 282.28 48.68C283.47 48.68 284.37 48.8 285.05 48.91L285.95 54.45C285.28 54.34 284.26 54.23 283.13 54.23ZM301.9 54.23C299.58 54.23 298.34 55.24 298.34 57.67L298.34 61.69L303.54 61.69L304.39 67.23L298.34 67.23L298.34 89L291.61 89L291.61 67.23L287.65 67.23L287.65 61.69L291.61 61.69L291.61 57C291.61 50.95 295.45 48.68 301.05 48.68C302.24 48.68 303.14 48.8 303.82 48.91L304.73 54.45C304.05 54.34 303.03 54.23 301.9 54.23ZM312.19 57.11C309.93 57.11 308.12 55.53 308.12 53.26C308.12 50.95 309.93 49.31 312.19 49.31C314.4 49.31 316.21 50.95 316.21 53.26C316.21 55.53 314.4 57.11 312.19 57.11ZM308.74 89L308.74 61.69L315.53 61.69L315.53 89L308.74 89ZM334.24 89.51C326.67 89.51 321.29 84.42 321.29 75.49C321.29 65.99 327.23 61.12 334.47 61.12C338.14 61.12 340.86 62.08 343.01 63.44L342.05 69.55C339.73 67.8 337.52 67 334.86 67C330.96 67 328.14 69.89 328.14 75.32C328.14 80.97 331.19 83.68 335.32 83.68C337.69 83.68 339.84 83.06 342.39 81.08L343.29 86.85C340.52 88.77 337.69 89.51 334.24 89.51ZM352.45 57.11C350.19 57.11 348.38 55.53 348.38 53.26C348.38 50.95 350.19 49.31 352.45 49.31C354.66 49.31 356.46 50.95 356.46 53.26C356.46 55.53 354.66 57.11 352.45 57.11ZM349 89L349 61.69L355.79 61.69L355.79 89L349 89ZM378.86 89L378.29 85.44C376.09 87.76 373.26 89.57 369.19 89.57C364.55 89.57 361.44 86.74 361.44 81.99C361.44 75.37 366.87 72.49 377.9 71.41L377.9 70.62C377.9 67.68 376.2 66.55 373.2 66.55C370.04 66.55 367.04 67.46 364.1 68.76L363.25 63.33C366.42 62.08 369.75 61.12 374.11 61.12C381.17 61.12 384.68 63.72 384.68 70.28L384.68 89L378.86 89ZM377.9 75.37C370.04 76.33 368.17 78.65 368.17 81.25C368.17 83.23 369.41 84.42 371.51 84.42C373.82 84.42 376.03 83.35 377.9 81.48L377.9 75.37ZM391.69 89L391.69 49.25L398.48 48.17L398.48 89L391.69 89ZM429.63 89L418.44 89L418.44 49.98L429.8 49.98C438.57 49.98 442.75 53.94 442.75 60.11C442.75 64.18 440.49 66.83 437.1 68.25C441.45 69.61 444.33 72.43 444.33 77.63C444.33 85.32 438.79 89 429.63 89ZM429.41 55.7L425.62 55.7L425.62 66.04L429.07 66.04C433.48 66.04 435.8 64.06 435.8 60.73C435.8 57.62 433.93 55.7 429.41 55.7ZM429.52 71.36L425.62 71.36L425.62 83.29L429.63 83.29C434.38 83.29 437.15 81.31 437.15 77.41C437.15 73.45 434.5 71.36 429.52 71.36ZM472.61 76.67L455.08 76.67C455.42 81.99 458.24 84.31 462.43 84.31C465.93 84.31 468.82 83.01 471.82 80.91L472.61 86.23C469.67 88.26 466.1 89.57 461.69 89.57C454.06 89.57 448.35 85.21 448.35 75.37C448.35 66.5 453.66 61.12 460.79 61.12C468.99 61.12 472.66 67.29 472.66 75.03C472.66 75.6 472.61 76.28 472.61 76.67ZM460.62 65.82C457.91 65.82 455.7 67.97 455.19 72.43L466.05 72.43C465.6 68.19 463.9 65.82 460.62 65.82ZM488.55 89.45C483.18 89.45 479.56 87.47 479.56 81.25L479.56 67.23L475.72 67.23L475.72 61.69L479.56 61.69L479.56 53.04L486.23 52.02L486.23 61.69L491.83 61.69L492.68 67.23L486.23 67.23L486.23 80.12C486.23 82.33 487.25 83.52 489.85 83.52C490.64 83.52 491.38 83.46 492 83.29L492.85 89C491.78 89.23 490.53 89.45 488.55 89.45ZM508.34 89.45C502.97 89.45 499.35 87.47 499.35 81.25L499.35 67.23L495.51 67.23L495.51 61.69L499.35 61.69L499.35 53.04L506.02 52.02L506.02 61.69L511.62 61.69L512.47 67.23L506.02 67.23L506.02 80.12C506.02 82.33 507.04 83.52 509.64 83.52C510.44 83.52 511.17 83.46 511.79 83.29L512.64 89C511.57 89.23 510.32 89.45 508.34 89.45ZM540.35 76.67L522.82 76.67C523.16 81.99 525.99 84.31 530.17 84.31C533.68 84.31 536.56 83.01 539.56 80.91L540.35 86.23C537.41 88.26 533.84 89.57 529.43 89.57C521.8 89.57 516.09 85.21 516.09 75.37C516.09 66.5 521.4 61.12 528.53 61.12C536.73 61.12 540.4 67.29 540.4 75.03C540.4 75.6 540.35 76.28 540.35 76.67ZM528.36 65.82C525.65 65.82 523.44 67.97 522.93 72.43L533.79 72.43C533.34 68.19 531.64 65.82 528.36 65.82ZM552.67 73.34L552.67 89L545.89 89L545.89 61.69L551.66 61.69L552.5 67.17C554.31 64.01 557.03 61.35 561.27 61.12L562.34 67.85C558.1 68.14 554.6 70.4 552.67 73.34ZM579.7 89L567.32 89L567.32 49.98L579.7 49.98C593.27 49.98 600.28 57.96 600.28 69.44C600.28 81.03 592.99 89 579.7 89ZM579.65 56.15L574.78 56.15L574.78 82.84L579.53 82.84C587.73 82.84 592.65 78.65 592.65 69.49C592.65 60.5 587.45 56.15 579.65 56.15ZM610.18 57.11C607.92 57.11 606.11 55.53 606.11 53.26C606.11 50.95 607.92 49.31 610.18 49.31C612.38 49.31 614.19 50.95 614.19 53.26C614.19 55.53 612.38 57.11 610.18 57.11ZM606.73 89L606.73 61.69L613.52 61.69L613.52 89L606.73 89ZM629.91 89.51C625.96 89.51 621.88 88.26 619.28 86.85L620.19 81.2C623.13 83.12 626.75 84.42 630.14 84.42C633.08 84.42 634.66 83.35 634.66 81.59C634.66 79.67 633.48 78.88 629.12 77.8C622.51 76.11 619.74 74.19 619.74 69.21C619.74 64.52 623.47 61.18 629.8 61.18C633.36 61.18 636.64 61.86 639.36 63.1L638.45 68.76C635.74 67.23 632.51 66.27 629.8 66.27C627.26 66.27 626.01 67.23 626.01 68.76C626.01 70.23 627.03 71.02 631.1 72.09C638.17 73.9 640.94 75.83 640.94 80.97C640.94 86.34 637.09 89.51 629.91 89.51ZM657.85 89.51C650.27 89.51 644.9 84.42 644.9 75.49C644.9 65.99 650.84 61.12 658.07 61.12C661.75 61.12 664.46 62.08 666.61 63.44L665.65 69.55C663.33 67.8 661.13 67 658.47 67C654.57 67 651.74 69.89 651.74 75.32C651.74 80.97 654.79 83.68 658.92 83.68C661.3 83.68 663.44 83.06 665.99 81.08L666.89 86.85C664.12 88.77 661.3 89.51 657.85 89.51ZM683.18 89.57C675.77 89.57 670.4 84.25 670.4 75.37C670.4 66.5 675.83 61.12 683.24 61.12C690.7 61.12 696.13 66.5 696.13 75.37C696.13 84.25 690.64 89.57 683.18 89.57ZM683.18 66.72C679.16 66.72 677.02 70.28 677.02 75.37C677.02 80.35 679.22 84.02 683.18 84.02C687.36 84.02 689.51 80.46 689.51 75.37C689.51 70.34 687.25 66.72 683.18 66.72ZM708.4 73.34L708.4 89L701.61 89L701.61 61.69L707.38 61.69L708.23 67.17C710.04 64.01 712.75 61.35 716.99 61.12L718.07 67.85C713.83 68.14 710.32 70.4 708.4 73.34ZM739.5 89L738.93 85.21C737.01 87.53 734.35 89.57 730.56 89.57C724.85 89.57 720.27 85.32 720.27 76.11C720.27 65.93 725.87 61.41 732.2 61.41C734.8 61.41 736.9 61.86 738.54 62.42L738.54 49.25L745.32 48.17L745.32 89L739.5 89ZM738.54 68.02C736.84 67.23 735.54 66.83 733.22 66.83C729.66 66.83 727.06 69.72 727.06 75.71C727.06 81.03 729.32 83.52 732.32 83.52C734.8 83.52 736.73 82.05 738.54 79.78L738.54 68.02ZM775.63 89.45C770.88 89.45 766.81 88.38 763.36 86.74L764.49 79.9C767.77 81.82 771.84 83.35 775.74 83.35C779.19 83.35 781.57 81.71 781.57 78.6C781.57 75.71 780.21 74.52 774.55 72.09C766.98 68.98 763.92 66.5 763.92 60.45C763.92 53.55 769.24 49.53 776.53 49.53C780.94 49.53 784 50.44 786.82 51.91L785.69 58.69C782.87 56.83 779.53 55.64 776.48 55.64C772.74 55.64 771.11 57.45 771.11 59.82C771.11 62.31 772.35 63.5 777.78 65.76C785.81 69.04 788.75 71.81 788.75 77.86C788.75 85.49 783.15 89.45 775.63 89.45ZM817.3 76.67L799.77 76.67C800.11 81.99 802.94 84.31 807.12 84.31C810.63 84.31 813.51 83.01 816.51 80.91L817.3 86.23C814.36 88.26 810.8 89.57 806.39 89.57C798.76 89.57 793.04 85.21 793.04 75.37C793.04 66.5 798.36 61.12 805.48 61.12C813.68 61.12 817.36 67.29 817.36 75.03C817.36 75.6 817.3 76.28 817.3 76.67ZM805.31 65.82C802.6 65.82 800.4 67.97 799.89 72.43L810.74 72.43C810.29 68.19 808.59 65.82 805.31 65.82ZM829.63 73.34L829.63 89L822.84 89L822.84 61.69L828.61 61.69L829.46 67.17C831.27 64.01 833.98 61.35 838.22 61.12L839.3 67.85C835.06 68.14 831.55 70.4 829.63 73.34ZM857.28 89.11L850.66 89.11L841.11 62.2L848.23 61.29L854.34 80.69L860.22 61.69L866.95 61.69L857.28 89.11ZM893.24 76.67L875.71 76.67C876.05 81.99 878.88 84.31 883.06 84.31C886.57 84.31 889.45 83.01 892.45 80.91L893.24 86.23C890.3 88.26 886.74 89.57 882.33 89.57C874.69 89.57 868.98 85.21 868.98 75.37C868.98 66.5 874.3 61.12 881.42 61.12C889.62 61.12 893.3 67.29 893.3 75.03C893.3 75.6 893.24 76.28 893.24 76.67ZM881.25 65.82C878.54 65.82 876.33 67.97 875.83 72.43L886.68 72.43C886.23 68.19 884.53 65.82 881.25 65.82ZM905.57 73.34L905.57 89L898.78 89L898.78 61.69L904.55 61.69L905.4 67.17C907.21 64.01 909.92 61.35 914.16 61.12L915.24 67.85C911 68.14 907.49 70.4 905.57 73.34Z" />
	<g id="Folder 1">
		<path id="Path 1" class="shp0" d="M191.26 42.06C191.18 42.11 191.14 42.17 191.16 42.19C191.19 42.22 191.5 42.39 191.86 42.58C192.22 42.76 192.41 42.83 192.29 42.73C192.16 42.62 191.91 42.48 191.75 42.4C191.58 42.32 191.44 42.21 191.44 42.16C191.44 42.11 191.62 42.05 191.84 42.04L192.24 42.01C191.59 41.98 191.33 42.02 191.26 42.06ZM158.06 42.15C158.02 42.2 157.99 46.94 158 52.69C158.01 60.88 158.04 63.15 158.13 63.26C158.2 63.33 158.58 63.68 158.99 64.04C159.41 64.4 160.22 65.14 160.81 65.68C161.4 66.23 162.13 66.9 162.44 67.19C162.75 67.47 163.07 67.76 163.15 67.84C163.24 67.92 163.58 68.21 163.9 68.49C164.23 68.78 164.73 69.21 165.01 69.47C165.3 69.72 165.99 70.35 166.56 70.88C167.12 71.4 167.94 72.14 168.38 72.53C168.82 72.92 169.32 73.37 169.5 73.54C169.68 73.71 170.05 74.04 170.32 74.27C170.64 74.55 170.85 74.67 170.9 74.61C170.96 74.55 170.99 70.33 170.99 63.62C170.99 52.81 171 52.71 171.18 52.62C171.3 52.56 172.98 52.54 175.78 52.55L180.19 52.57C181.72 53.16 182.3 53.47 182.7 53.78C183.05 54.04 183.48 54.44 183.64 54.67C183.81 54.91 184.05 55.28 184.18 55.52C184.3 55.75 184.46 56.17 184.53 56.45C184.61 56.78 184.64 57.3 184.61 57.9C184.57 58.67 184.52 58.93 184.29 59.43C184.14 59.76 183.85 60.26 183.65 60.53C183.44 60.8 183.04 61.2 182.76 61.41C182.48 61.62 182.04 61.9 181.78 62.03C181.52 62.16 181.04 62.35 180.71 62.45C180.17 62.61 179.74 62.64 176.92 62.68C175.18 62.7 173.72 62.75 173.68 62.78C173.64 62.82 173.61 64.97 173.61 67.56C173.61 70.15 173.64 72.31 173.68 72.34C173.72 72.38 175.16 72.42 176.88 72.44C179.77 72.47 180.05 72.49 180.66 72.68C181.02 72.79 181.61 73.03 181.97 73.21C182.33 73.39 182.84 73.75 183.12 74.02C183.4 74.3 183.74 74.69 183.88 74.89C184.02 75.1 184.25 75.6 184.39 76.01C184.6 76.61 184.65 76.93 184.65 77.6C184.65 78.34 184.61 78.53 184.34 79.19C184.17 79.6 183.82 80.2 183.56 80.53C183.3 80.86 182.96 81.21 182.81 81.32C182.65 81.42 182.51 81.53 182.48 81.56C182.45 81.59 182.18 81.73 181.87 81.88C181.56 82.03 181.04 82.24 180.71 82.35C180.1 82.54 179.99 82.54 169.13 82.57C160.37 82.59 158.14 82.61 158.06 82.71C158 82.79 157.98 84.59 158.02 87.92L158.06 93.01C160.16 93.08 165.35 93.07 170.95 93.04C177.14 93.01 181.51 92.95 182.11 92.89C182.65 92.83 183.4 92.74 183.79 92.68C184.17 92.62 185.05 92.43 185.75 92.26C186.44 92.09 187.37 91.82 187.8 91.66C188.24 91.49 188.85 91.25 189.16 91.11C189.46 90.98 189.78 90.82 189.86 90.76C189.93 90.7 190.17 90.57 190.37 90.48C190.58 90.38 191.04 90.12 191.4 89.88C191.76 89.65 192.26 89.29 192.52 89.08C192.77 88.87 193.17 88.51 193.4 88.28C193.64 88.04 193.96 87.71 194.12 87.54C194.28 87.36 194.67 86.82 195 86.33C195.32 85.84 195.77 85.06 195.99 84.6C196.21 84.14 196.39 83.7 196.39 83.62C196.39 83.54 196.46 83.33 196.55 83.16C196.64 82.98 196.74 82.68 196.78 82.5C196.81 82.32 196.91 81.88 196.99 81.52C197.07 81.16 197.18 80.47 197.23 79.98C197.28 79.49 197.32 78.67 197.33 78.16C197.33 77.65 197.28 76.76 197.23 76.2C197.18 75.63 197.05 74.73 196.94 74.19C196.83 73.65 196.6 72.77 196.42 72.23C196.24 71.69 195.92 70.91 195.72 70.5C195.51 70.09 195.22 69.58 195.07 69.36C194.93 69.14 194.8 68.93 194.8 68.89C194.8 68.85 194.57 68.55 194.29 68.21C194.01 67.88 193.78 67.58 193.78 67.54C193.78 67.5 193.88 67.37 194 67.26C194.12 67.14 194.48 66.68 194.79 66.23C195.11 65.78 195.37 65.39 195.37 65.37C195.37 65.34 195.54 64.97 195.74 64.55C195.95 64.13 196.24 63.42 196.39 62.99C196.54 62.55 196.73 61.92 196.81 61.58C196.88 61.25 197.01 60.6 197.09 60.14C197.17 59.67 197.26 58.67 197.29 57.9C197.33 57.03 197.31 56.05 197.24 55.33C197.18 54.69 197.07 53.89 196.99 53.55C196.91 53.22 196.73 52.55 196.58 52.06C196.43 51.57 196.12 50.79 195.88 50.33C195.65 49.87 195.4 49.41 195.34 49.31C195.28 49.21 195.04 48.85 194.82 48.51C194.59 48.18 193.98 47.48 193.46 46.96C192.94 46.45 192.27 45.86 191.98 45.66C191.68 45.46 191.26 45.18 191.04 45.03C190.83 44.89 190.23 44.57 189.72 44.32C189.2 44.06 188.53 43.77 188.22 43.66C187.91 43.55 187.22 43.32 186.68 43.15C186.14 42.98 185.58 42.81 185.42 42.78C185.27 42.75 184.81 42.66 184.39 42.58C183.98 42.5 183.19 42.37 182.62 42.29C181.73 42.15 180.07 42.13 169.86 42.1C162.14 42.07 158.1 42.09 158.06 42.15Z" />
		<path id="Path 2" class="shp2" d="M191.45 42.15C191.45 42.21 191.52 42.28 191.61 42.32C191.7 42.35 192.3 42.74 192.94 43.17C193.58 43.61 194.27 44.12 194.48 44.3C194.68 44.48 195.14 44.93 195.49 45.29C195.84 45.65 196.31 46.2 196.54 46.5C196.76 46.81 197.02 47.16 197.12 47.29C197.21 47.41 197.35 47.62 197.44 47.75C197.52 47.89 197.74 48.25 197.91 48.56C198.09 48.87 198.3 49.31 198.38 49.54C198.46 49.77 198.63 50.17 198.76 50.43C198.88 50.68 199.03 51.06 199.09 51.27C199.14 51.47 199.24 51.85 199.29 52.11C199.35 52.36 199.43 52.76 199.48 52.99C199.54 53.22 199.62 53.64 199.66 53.93C199.71 54.21 199.79 54.9 199.85 55.47C199.92 56.18 199.94 60.08 199.91 68.21C199.88 78.37 199.85 80.05 199.72 80.82C199.64 81.31 199.54 81.94 199.49 82.22C199.44 82.5 199.33 82.97 199.24 83.25C199.15 83.53 198.97 84.1 198.84 84.51C198.71 84.92 198.55 85.32 198.49 85.4C198.43 85.47 198.33 85.68 198.27 85.86C198.21 86.04 197.96 86.53 197.7 86.94C197.44 87.35 197.16 87.81 197.07 87.95C196.98 88.1 196.7 88.48 196.44 88.79C196.19 89.11 195.71 89.64 195.37 89.97C195.03 90.31 194.59 90.73 194.39 90.91C194.18 91.08 193.7 91.46 193.31 91.73C192.93 92.01 192.45 92.32 192.25 92.43C192.05 92.54 191.78 92.69 191.64 92.76C191.41 92.88 191.41 92.89 191.58 92.98C191.7 93.04 192.52 93.06 193.78 93.02C194.88 92.99 196.16 92.93 196.63 92.89C197.09 92.84 197.53 92.77 197.61 92.74C197.68 92.71 197.94 92.66 198.17 92.64C198.4 92.62 198.79 92.56 199.04 92.52C199.29 92.48 199.51 92.41 199.53 92.38C199.55 92.34 199.66 92.31 199.78 92.3C199.89 92.3 200.32 92.19 200.74 92.06C201.15 91.93 201.71 91.74 202 91.63C202.28 91.53 202.82 91.31 203.21 91.15C203.59 90.99 204.37 90.61 204.94 90.3C205.5 90 206.32 89.48 206.76 89.16C207.2 88.83 207.85 88.29 208.21 87.94C208.57 87.6 209.06 87.09 209.31 86.8C209.56 86.52 209.83 86.2 209.93 86.1C210.02 85.99 210.26 85.64 210.46 85.3C210.65 84.97 210.89 84.57 210.98 84.42C211.07 84.26 211.25 83.93 211.37 83.67C211.49 83.41 211.68 82.99 211.78 82.73C211.89 82.48 212.04 82.06 212.12 81.8C212.19 81.54 212.34 81.04 212.44 80.68C212.54 80.32 212.67 79.71 212.72 79.33C212.78 78.94 212.85 78.44 212.89 78.21C212.92 77.97 212.97 73.52 212.99 68.31C213.02 61.81 213 58.49 212.93 57.76C212.87 57.17 212.75 56.28 212.67 55.8C212.59 55.31 212.46 54.75 212.39 54.56C212.32 54.37 212.29 54.21 212.31 54.21C212.34 54.21 212.19 53.71 211.98 53.11C211.76 52.51 211.4 51.66 211.17 51.22C210.94 50.78 210.6 50.2 210.42 49.91C210.24 49.63 209.85 49.1 209.55 48.75C209.26 48.39 208.67 47.75 208.24 47.34C207.81 46.93 207.21 46.4 206.9 46.16C206.59 45.93 206 45.53 205.59 45.27C205.18 45.02 204.49 44.63 204.05 44.41C203.61 44.19 203.13 43.95 202.98 43.87C202.82 43.79 202.19 43.56 201.58 43.36C200.96 43.16 200.22 42.93 199.94 42.85C199.66 42.77 199.24 42.66 199.01 42.62C198.78 42.57 198.31 42.49 197.98 42.43C197.65 42.38 197.02 42.3 196.58 42.25C196.14 42.2 194.81 42.13 193.62 42.1C192.11 42.07 191.46 42.08 191.45 42.15Z" />
	</g>
</svg>