<svg version="1.2" baseProfile="tiny-ps" xmlns="http://www.w3.org/2000/svg" viewBox="0 0 980 227" width="164" height="38">
	<title>betterdiscord2_server-wordmark</title>
	<style>
		tspan { white-space:pre }
		.shp0 { fill: #ffffff } 
		.shp1 { fill: #3e83e6 } 
		.shp2 { fill: #8e9297 } 
		.shp3 { fill: #fffeff } 
	</style>
	<path id="BETTERDISCORD " fill-rule="evenodd" class="shp0" d="M30.08 105.25C38.44 105.25 39.16 105.37 41.01 105.6C42.08 105.84 43.7 106.08 44.53 106.31C45.25 106.56 46.62 107.09 47.46 107.45C48.29 107.69 49.67 108.28 50.38 108.64C51.15 109 52.35 109.78 52.94 110.13C53.43 110.49 54.56 111.33 55.15 111.98C55.75 112.58 56.89 113.41 57.24 113.89C57.6 114.43 58.44 115.37 58.98 116.09C59.45 116.8 60.17 118.18 60.65 119.14C61.12 120.15 61.78 121.46 62.01 122.12C62.26 122.71 62.38 123.78 62.62 124.68C62.85 125.39 63.09 126.94 63.09 127.95C63.21 128.91 63.21 130.76 63.21 131.7C63.21 133.08 62.97 134.04 62.74 135.17C62.5 135.88 62.01 137.19 61.66 137.96C61.3 138.68 60.53 139.81 60.17 140.41C59.81 141.01 59.09 141.96 58.56 142.61C58.08 143.21 57.12 144.04 56.41 144.53C55.75 145.06 55.03 145.66 54.8 145.66C54.44 145.77 54.44 145.77 55.64 146.48C56.41 146.85 57.48 147.62 58.08 147.98C58.56 148.33 59.69 149.29 60.53 150.18C61.3 151.02 62.5 152.33 63.09 153.23C63.75 154.06 64.34 155.19 64.59 155.67C64.83 156.14 65.3 157.34 65.54 158.11C65.78 158.94 66.14 160.32 66.43 161.15C66.68 162.1 66.92 163.6 66.92 164.55C66.92 165.56 66.92 167.23 66.8 168.25C66.68 169.19 66.43 170.81 66.14 171.64C65.9 172.47 65.54 173.84 65.3 174.8C65.06 175.81 64.22 177.36 63.75 178.5C63.21 179.45 62.38 181.06 61.78 181.77C61.3 182.49 60.05 183.74 59.33 184.46C58.56 185.17 57.24 186.18 56.41 186.78C55.52 187.37 54.2 188.27 53.31 188.62C52.59 188.99 50.85 189.58 49.9 189.93C48.95 190.3 47.34 190.71 46.5 190.95C45.61 191.19 44.05 191.43 43.16 191.55C41.73 191.78 39.03 191.78 0 191.9L0 172.71L11.16 172.71C17.25 172.71 22.15 172.71 22.15 172.59C22.15 172.59 25.43 172.47 29.37 172.47C36.11 172.47 36.71 172.59 37.9 172.24C38.68 172 39.64 171.64 40.11 171.4C40.59 171.16 41.49 170.57 42.08 170.03C42.68 169.43 43.45 168.6 43.7 168.13C43.94 167.59 44.29 166.63 44.53 166.16C44.65 165.68 44.77 164.43 44.77 163.84C44.77 163.23 44.65 162.1 44.53 161.63C44.41 161.15 44.05 160.32 43.82 159.78C43.57 159.31 42.92 158.59 42.56 158.23C42.2 157.88 41.49 156.98 40.89 156.62C40.35 156.26 39.28 155.79 38.56 155.55C37.19 155.19 37.19 155.19 25.43 155.07L25.43 139.04L30.56 139.04C34.5 139.04 36.11 139.04 36.95 138.8C37.55 138.68 38.56 138.45 38.92 138.2C39.4 137.96 40.11 137.49 40.59 136.95C41.12 136.6 41.85 135.76 42.08 135.28C42.32 134.81 42.68 133.79 42.79 133.2C42.92 132.61 43.04 131.7 43.04 131.35C43.04 130.99 42.92 130.28 42.79 129.8C42.79 129.26 42.56 128.55 42.32 128.08C42.08 127.71 41.61 126.82 41.12 126.34C40.71 125.87 39.87 125.15 39.4 124.91C38.92 124.68 37.9 124.26 37.31 124.14C36.59 123.9 35.22 123.78 22.02 123.78L22.02 141.84C22.02 156.14 21.9 159.9 21.79 159.9C21.67 159.9 19.94 158.59 18.02 156.74C15.93 154.9 13.25 152.33 11.64 151.02C10.15 149.65 6.98 146.73 0 140.52L0 105.25L30.08 105.25ZM98.54 139.29L133.62 139.29L133.62 158.2L98.54 158.2L98.54 171.13L136.68 171.13L136.68 191.77L76.42 191.77L76.42 105.35L136.68 105.35L136.68 125.85L98.54 125.85L98.54 139.29ZM188.27 125.98L188.27 191.77L166.14 191.77L166.14 125.98L143.16 125.98L143.16 105.23L211.25 105.23L211.25 125.98L188.27 125.98ZM259.78 125.98L259.78 191.77L237.66 191.77L237.66 125.98L214.67 125.98L214.67 105.23L282.76 105.23L282.76 125.98L259.78 125.98ZM313.44 139.29L348.52 139.29L348.52 158.2L313.44 158.2L313.44 171.13L351.58 171.13L351.58 191.77L291.32 191.77L291.32 105.35L351.58 105.35L351.58 125.85L313.44 125.85L313.44 139.29ZM389.24 164.3L385.32 164.3L385.32 191.77L363.2 191.77L363.2 105.35L397.79 105.35C415.64 105.35 429.45 113.52 429.94 133.79C429.94 149.77 423.46 158.81 412.95 162.1L436.54 191.77L409.28 191.77L389.24 164.3ZM398.15 145.51C411.97 145.51 411.97 125.73 398.15 125.73L385.32 125.73L385.32 145.51L398.15 145.51ZM442.18 103.61L460.15 103.61C473.1 103.61 478.48 103.73 479.43 103.91C480.2 103.91 481.52 104.15 482.36 104.26C483.25 104.38 484.45 104.63 485.16 104.87C485.93 105.1 487.25 105.34 488.14 105.58C488.98 105.81 490.17 106.3 490.94 106.59C491.67 106.83 492.92 107.43 493.64 107.78C494.47 108.14 495.61 108.74 496.08 109.04C496.56 109.39 497.75 110.11 498.65 110.71C499.49 111.3 500.74 112.43 501.33 113.15C502.05 113.86 503.01 115 503.54 115.59C503.9 116.18 504.62 117.08 504.85 117.56C505.22 118.03 505.75 118.99 505.99 119.65C506.23 120.24 506.71 121.31 506.94 121.97C507.18 122.56 507.55 123.64 507.78 124.29C508.02 125.01 508.32 126.2 508.44 126.97C508.56 127.69 508.8 128.88 508.91 129.53C509.03 130.49 509.03 134.78 509.03 148.32C509.03 162.38 509.03 166.01 508.91 166.97C508.8 167.63 508.68 168.81 508.44 169.53C508.32 170.31 508.02 171.38 507.78 171.97C507.55 172.63 507.31 173.59 507.06 173.94C506.82 174.3 506.71 175.19 506.47 175.55C506.23 175.91 505.88 176.74 505.46 177.34C505.1 178 504.5 178.83 504.26 179.18C504.02 179.55 503.54 180.2 503.18 180.68C502.76 181.15 501.93 182.11 501.46 182.58C500.97 183.24 499.96 184.08 499.37 184.55C498.77 185.02 497.63 185.8 497.04 186.16C496.44 186.52 495.07 187.35 493.99 187.88C493.03 188.37 491.55 188.96 490.94 189.2C490.17 189.43 488.86 189.92 488.02 190.15C487.13 190.44 485.58 190.81 484.57 191.05C483.61 191.28 482.12 191.4 481.28 191.52C480.44 191.64 478.83 191.88 477.88 191.88C476.74 191.88 468.33 192 442.18 192L442.18 171.02L459.38 171.02C474.06 171.02 476.86 171.02 478.11 170.78C478.83 170.78 479.91 170.54 480.44 170.31C480.92 170.07 481.75 169.95 482.12 169.65C482.48 169.41 483.25 169.06 483.49 168.81C483.84 168.57 484.2 168.1 484.57 167.74C484.8 167.33 485.46 166.72 485.7 166.25C485.93 165.78 486.29 164.94 486.66 163.57L486.66 132.34C486.66 131.86 486.41 130.97 486.17 130.49C485.93 130.02 485.7 129.3 485.46 128.88C485.16 128.52 484.68 127.93 484.33 127.58C483.96 127.21 483.25 126.55 482.89 126.32C482.48 126.08 481.75 125.73 481.28 125.49C480.8 125.24 479.78 125.01 479.31 125.01C478.83 124.89 477.76 124.65 476.86 124.65C476.02 124.65 472.75 124.53 463.91 124.53L463.91 160.53C463.91 160.53 462.83 159.63 461.58 158.56C460.39 157.49 456.93 154.39 454.12 151.82C451.32 149.15 447.56 145.75 442.18 140.86L442.18 103.61ZM541.8 191.77L519.91 191.77L519.91 105.35L541.8 105.35L541.8 191.77ZM565.14 164.43C573.82 174.93 592.89 175.41 593.5 166.13C593.75 161.25 585.8 158.44 578.71 157.47C564.78 155.27 552.07 146.48 552.07 130.01C552.07 113.04 567.46 104.13 583.36 104.13C593.86 104.13 604.01 107.05 612.94 117.92L598.64 128.91C589.59 119.26 574.07 119.63 573.7 129.63C573.94 133.79 578.47 136.23 585.19 137.69C600.59 140.5 616 145.87 615.02 167.11C614.28 183.83 596.68 192.99 580.79 192.99C570.4 192.99 559.39 187.74 551.33 177.36L565.14 164.43ZM687.63 173.58C680.42 187.62 667.33 192.99 656.45 192.99C639.46 192.99 622.35 183.1 622.35 163.45L622.35 133.66C622.35 114.13 639.46 104.13 656.82 104.13C667.46 104.13 680.29 108.65 687.27 124.02L669.41 131.22C663.55 120.49 644.23 122.93 644.23 133.66L644.23 163.45C644.23 173.82 663.79 176.76 668.56 164.79L687.63 173.58ZM693.5 133.79C693.5 113.9 711.34 104.13 729.31 104.13C747.28 104.13 765.25 114.02 765.25 133.79L765.25 163.33C765.25 183.1 747.41 192.99 729.44 192.99C711.47 192.99 693.5 183.1 693.5 163.33L693.5 133.79ZM715.38 163.33C715.38 169.68 722.47 172.73 729.44 172.73C736.4 172.73 743.38 169.55 743.38 163.33L743.38 133.79C743.38 127.07 736.16 124.02 729.07 124.02C722.22 124.02 715.38 127.44 715.38 133.79L715.38 163.33ZM802.9 164.3L798.99 164.3L798.99 191.77L776.87 191.77L776.87 105.35L811.46 105.35C829.31 105.35 843.12 113.52 843.61 133.79C843.61 149.77 837.13 158.81 826.62 162.1L850.21 191.77L822.95 191.77L802.9 164.3ZM811.83 145.51C825.64 145.51 825.64 125.73 811.83 125.73L798.99 125.73L798.99 145.51L811.83 145.51ZM855.85 103.61L873.82 103.61C886.77 103.61 892.14 103.73 893.1 103.91C893.87 103.91 895.19 104.15 896.03 104.26C896.92 104.38 898.11 104.63 898.83 104.87C899.6 105.1 900.92 105.34 901.81 105.58C902.65 105.81 903.84 106.3 904.61 106.59C905.34 106.83 906.59 107.43 907.31 107.78C908.14 108.14 909.27 108.74 909.75 109.04C910.23 109.39 911.42 110.11 912.32 110.71C913.16 111.3 914.41 112.43 915 113.15C915.72 113.86 916.67 115 917.21 115.59C917.57 116.18 918.29 117.08 918.52 117.56C918.88 118.03 919.42 118.99 919.66 119.65C919.9 120.24 920.38 121.31 920.61 121.97C920.85 122.56 921.22 123.64 921.45 124.29C921.69 125.01 921.99 126.2 922.11 126.97C922.23 127.69 922.47 128.88 922.58 129.53C922.7 130.49 922.7 134.78 922.7 148.32C922.7 162.38 922.7 166.01 922.58 166.97C922.47 167.63 922.35 168.81 922.11 169.53C921.99 170.31 921.69 171.38 921.45 171.97C921.22 172.63 920.97 173.59 920.73 173.94C920.49 174.3 920.38 175.19 920.14 175.55C919.9 175.91 919.54 176.74 919.13 177.34C918.76 178 918.17 178.83 917.93 179.18C917.69 179.55 917.21 180.2 916.85 180.68C916.43 181.15 915.6 182.11 915.12 182.58C914.64 183.24 913.63 184.08 913.04 184.55C912.44 185.02 911.3 185.8 910.7 186.16C910.11 186.52 908.74 187.35 907.66 187.88C906.7 188.37 905.22 188.96 904.61 189.2C903.84 189.43 902.52 189.92 901.69 190.15C900.8 190.44 899.25 190.81 898.24 191.05C897.28 191.28 895.78 191.4 894.95 191.52C894.11 191.64 892.5 191.88 891.55 191.88C890.41 191.88 882 192 855.85 192L855.85 171.02L873.05 171.02C887.72 171.02 890.53 171.02 891.78 170.78C892.5 170.78 893.57 170.54 894.11 170.31C894.59 170.07 895.42 169.95 895.78 169.65C896.15 169.41 896.92 169.06 897.16 168.81C897.51 168.57 897.87 168.1 898.24 167.74C898.47 167.33 899.13 166.72 899.37 166.25C899.6 165.78 899.96 164.94 900.32 163.57L900.32 132.34C900.32 131.86 900.08 130.97 899.84 130.49C899.6 130.02 899.37 129.3 899.13 128.88C898.83 128.52 898.35 127.93 897.99 127.58C897.63 127.21 896.92 126.55 896.56 126.32C896.15 126.08 895.42 125.73 894.95 125.49C894.48 125.24 893.45 125.01 892.98 125.01C892.5 124.89 891.43 124.65 890.53 124.65C889.69 124.65 886.42 124.53 877.58 124.53L877.58 160.53C877.58 160.53 876.5 159.63 875.25 158.56C874.06 157.49 870.59 154.39 867.79 151.82C864.99 149.15 861.23 145.75 855.85 140.86L855.85 103.61Z" />
	<path id="Path 0" class="shp1" d="M941.79 60.24L971.26 60.22L973.99 62.97L965.28 71.68L947.34 71.69L938.86 63.25L940.32 61.74L941.79 60.24ZM976.98 66.22C977.13 66.23 977.86 66.84 980 68.95L979.96 97.81L976.74 101.07L968.01 92.34L967.79 74.94L972.25 70.57C974.71 68.18 976.83 66.22 976.98 66.22ZM947.8 95.08L965.28 95.07L971.26 101.05L965.28 107.03L947.83 107.03L941.85 101.05L944.83 98.06L947.8 95.08ZM935.85 101.03L944.6 109.76L944.6 127.68L936.14 136.13L933.11 133.15L932.93 103.84L934.39 102.43L935.85 101.03ZM947.31 130.41L965.28 130.42L973.99 139.12L971.26 141.88L941.85 141.88L938.86 138.85L943.08 134.63L947.31 130.41Z" />
	<path id="Official BetterDiscord Server " fill-rule="evenodd" class="shp2" d="M225.08 68.51C214.96 68.51 208.4 61.08 208.4 50.11C208.4 39.08 215.01 31.61 225.18 31.61C235.39 31.61 241.84 39.03 241.84 50.01C241.84 60.98 235.29 68.51 225.08 68.51ZM225.12 37.28C219.04 37.28 215.37 42.27 215.37 50.05C215.37 57.83 219.04 62.84 225.12 62.84C231.27 62.84 234.94 57.83 234.94 50.05C234.94 42.27 231.21 37.28 225.12 37.28ZM258.21 36.15C256.09 36.15 254.95 37.07 254.95 39.28L254.95 42.94L259.71 42.94L260.47 47.99L254.95 47.99L254.95 67.83L248.82 67.83L248.82 47.99L245.2 47.99L245.2 42.94L248.82 42.94L248.82 38.67C248.82 33.16 252.32 31.09 257.43 31.09C258.52 31.09 259.34 31.2 259.96 31.3L260.78 36.35C260.17 36.25 259.24 36.15 258.21 36.15ZM275.34 36.15C273.22 36.15 272.09 37.07 272.09 39.28L272.09 42.94L276.84 42.94L277.61 47.99L272.09 47.99L272.09 67.83L265.95 67.83L265.95 47.99L262.33 47.99L262.33 42.94L265.95 42.94L265.95 38.67C265.95 33.16 269.45 31.09 274.56 31.09C275.65 31.09 276.47 31.2 277.09 31.3L277.92 36.35C277.3 36.25 276.37 36.15 275.34 36.15ZM284.73 38.77C282.67 38.77 281.02 37.33 281.02 35.26C281.02 33.16 282.67 31.66 284.73 31.66C286.75 31.66 288.4 33.16 288.4 35.26C288.4 37.33 286.75 38.77 284.73 38.77ZM281.58 67.83L281.58 42.94L287.78 42.94L287.78 67.83L281.58 67.83ZM304.85 68.3C297.95 68.3 293.04 63.66 293.04 55.52C293.04 46.86 298.46 42.42 305.06 42.42C308.41 42.42 310.9 43.3 312.86 44.54L311.98 50.11C309.86 48.51 307.85 47.78 305.42 47.78C301.86 47.78 299.29 50.42 299.29 55.36C299.29 60.51 302.07 62.98 305.84 62.98C308 62.98 309.97 62.42 312.29 60.61L313.11 65.87C310.59 67.62 308 68.3 304.85 68.3ZM321.47 38.77C319.41 38.77 317.76 37.33 317.76 35.26C317.76 33.16 319.41 31.66 321.47 31.66C323.49 31.66 325.13 33.16 325.13 35.26C325.13 37.33 323.49 38.77 321.47 38.77ZM318.32 67.83L318.32 42.94L324.52 42.94L324.52 67.83L318.32 67.83ZM345.58 67.83L345.06 64.59C343.05 66.7 340.47 68.35 336.75 68.35C332.52 68.35 329.68 65.77 329.68 61.44C329.68 55.41 334.63 52.79 344.7 51.8L344.7 51.08C344.7 48.4 343.15 47.37 340.41 47.37C337.53 47.37 334.79 48.2 332.11 49.39L331.33 44.44C334.22 43.3 337.26 42.42 341.24 42.42C347.69 42.42 350.89 44.79 350.89 50.77L350.89 67.83L345.58 67.83ZM344.7 55.41C337.53 56.28 335.82 58.4 335.82 60.77C335.82 62.57 336.95 63.66 338.87 63.66C340.98 63.66 342.99 62.68 344.7 60.98L344.7 55.41ZM357.29 67.83L357.29 31.61L363.48 30.62L363.48 67.83L357.29 67.83ZM391.91 67.83L381.7 67.83L381.7 32.27L392.07 32.27C400.07 32.27 403.89 35.88 403.89 41.5C403.89 45.21 401.82 47.63 398.73 48.92C402.7 50.16 405.33 52.73 405.33 57.47C405.33 64.48 400.27 67.83 391.91 67.83ZM391.71 37.49L388.25 37.49L388.25 46.91L391.4 46.91C395.43 46.91 397.54 45.1 397.54 42.07C397.54 39.23 395.84 37.49 391.71 37.49ZM391.81 51.76L388.25 51.76L388.25 62.63L391.91 62.63C396.25 62.63 398.78 60.82 398.78 57.27C398.78 53.66 396.36 51.76 391.81 51.76ZM431.14 56.59L415.14 56.59C415.45 61.44 418.02 63.56 421.85 63.56C425.04 63.56 427.68 62.37 430.42 60.46L431.14 65.31C428.46 67.16 425.2 68.35 421.17 68.35C414.21 68.35 409 64.38 409 55.41C409 47.33 413.84 42.42 420.35 42.42C427.83 42.42 431.18 48.05 431.18 55.1C431.18 55.62 431.14 56.24 431.14 56.59ZM420.2 46.71C417.72 46.71 415.71 48.67 415.24 52.73L425.15 52.73C424.74 48.87 423.19 46.71 420.2 46.71ZM445.69 68.24C440.79 68.24 437.48 66.44 437.48 60.77L437.48 47.99L433.98 47.99L433.98 42.94L437.48 42.94L437.48 35.06L443.57 34.13L443.57 42.94L448.68 42.94L449.46 47.99L443.57 47.99L443.57 59.74C443.57 61.75 444.5 62.84 446.87 62.84C447.59 62.84 448.27 62.78 448.83 62.63L449.61 67.83C448.63 68.04 447.49 68.24 445.69 68.24ZM463.75 68.24C458.85 68.24 455.54 66.44 455.54 60.77L455.54 47.99L452.04 47.99L452.04 42.94L455.54 42.94L455.54 35.06L461.63 34.13L461.63 42.94L466.74 42.94L467.52 47.99L461.63 47.99L461.63 59.74C461.63 61.75 462.56 62.84 464.93 62.84C465.66 62.84 466.33 62.78 466.9 62.63L467.67 67.83C466.7 68.04 465.55 68.24 463.75 68.24ZM492.96 56.59L476.96 56.59C477.27 61.44 479.86 63.56 483.67 63.56C486.87 63.56 489.5 62.37 492.24 60.46L492.96 65.31C490.28 67.16 487.02 68.35 483 68.35C476.03 68.35 470.82 64.38 470.82 55.41C470.82 47.33 475.67 42.42 482.17 42.42C489.66 42.42 493.01 48.05 493.01 55.1C493.01 55.62 492.96 56.24 492.96 56.59ZM482.02 46.71C479.55 46.71 477.53 48.67 477.06 52.73L486.97 52.73C486.56 48.87 485.01 46.71 482.02 46.71ZM504.21 53.56L504.21 67.83L498.02 67.83L498.02 42.94L503.28 42.94L504.05 47.94C505.7 45.06 508.18 42.63 512.05 42.42L513.03 48.56C509.16 48.82 505.97 50.88 504.21 53.56ZM528.87 67.83L517.58 67.83L517.58 32.27L528.87 32.27C541.26 32.27 547.66 39.54 547.66 50.01C547.66 60.57 541 67.83 528.87 67.83ZM528.83 37.9L524.38 37.9L524.38 62.22L528.72 62.22C536.2 62.22 540.69 58.4 540.69 50.05C540.69 41.86 535.95 37.9 528.83 37.9ZM556.69 38.77C554.63 38.77 552.98 37.33 552.98 35.26C552.98 33.16 554.63 31.66 556.69 31.66C558.7 31.66 560.35 33.16 560.35 35.26C560.35 37.33 558.7 38.77 556.69 38.77ZM553.54 67.83L553.54 42.94L559.74 42.94L559.74 67.83L553.54 67.83ZM574.7 68.3C571.09 68.3 567.37 67.16 565 65.87L565.83 60.72C568.51 62.47 571.81 63.66 574.91 63.66C577.59 63.66 579.03 62.68 579.03 61.08C579.03 59.33 577.96 58.61 573.98 57.62C567.95 56.08 565.42 54.33 565.42 49.8C565.42 45.52 568.82 42.48 574.6 42.48C577.85 42.48 580.84 43.1 583.32 44.23L582.49 49.39C580.02 47.99 577.07 47.12 574.6 47.12C572.28 47.12 571.14 47.99 571.14 49.39C571.14 50.73 572.07 51.45 575.79 52.42C582.24 54.07 584.77 55.83 584.77 60.51C584.77 65.41 581.25 68.3 574.7 68.3ZM600.2 68.3C593.28 68.3 588.38 63.66 588.38 55.52C588.38 46.86 593.8 42.42 600.4 42.42C603.76 42.42 606.23 43.3 608.19 44.54L607.32 50.11C605.2 48.51 603.19 47.78 600.76 47.78C597.21 47.78 594.62 50.42 594.62 55.36C594.62 60.51 597.41 62.98 601.18 62.98C603.35 62.98 605.3 62.42 607.63 60.61L608.45 65.87C605.92 67.62 603.35 68.3 600.2 68.3ZM623.32 68.35C616.55 68.35 611.65 63.5 611.65 55.41C611.65 47.33 616.61 42.42 623.37 42.42C630.18 42.42 635.13 47.33 635.13 55.41C635.13 63.5 630.12 68.35 623.32 68.35ZM623.32 47.53C619.65 47.53 617.69 50.77 617.69 55.41C617.69 59.95 619.7 63.29 623.32 63.29C627.13 63.29 629.09 60.05 629.09 55.41C629.09 50.83 627.03 47.53 623.32 47.53ZM646.33 53.56L646.33 67.83L640.14 67.83L640.14 42.94L645.4 42.94L646.18 47.94C647.83 45.06 650.3 42.63 654.17 42.42L655.16 48.56C651.29 48.82 648.09 50.88 646.33 53.56ZM674.72 67.83L674.2 64.38C672.44 66.49 670.02 68.35 666.56 68.35C661.35 68.35 657.17 64.48 657.17 56.08C657.17 46.81 662.28 42.69 668.05 42.69C670.43 42.69 672.34 43.1 673.84 43.61L673.84 31.61L680.03 30.62L680.03 67.83L674.72 67.83ZM673.84 48.71C672.29 47.99 671.1 47.63 668.99 47.63C665.74 47.63 663.36 50.26 663.36 55.72C663.36 60.57 665.43 62.84 668.16 62.84C670.43 62.84 672.19 61.5 673.84 59.43L673.84 48.71ZM707.69 68.24C703.36 68.24 699.64 67.27 696.49 65.77L697.52 59.54C700.52 61.29 704.23 62.68 707.79 62.68C710.94 62.68 713.11 61.19 713.11 58.35C713.11 55.72 711.87 54.64 706.71 52.42C699.8 49.59 697 47.33 697 41.81C697 35.53 701.86 31.86 708.51 31.86C712.54 31.86 715.33 32.69 717.9 34.03L716.87 40.21C714.3 38.51 711.25 37.43 708.47 37.43C705.05 37.43 703.57 39.08 703.57 41.24C703.57 43.51 704.7 44.59 709.65 46.65C716.98 49.64 719.67 52.17 719.67 57.68C719.67 64.63 714.55 68.24 707.69 68.24ZM745.72 56.59L729.72 56.59C730.03 61.44 732.62 63.56 736.43 63.56C739.63 63.56 742.26 62.37 745 60.46L745.72 65.31C743.04 67.16 739.79 68.35 735.76 68.35C728.8 68.35 723.58 64.38 723.58 55.41C723.58 47.33 728.44 42.42 734.93 42.42C742.42 42.42 745.78 48.05 745.78 55.1C745.78 55.62 745.72 56.24 745.72 56.59ZM734.78 46.71C732.31 46.71 730.3 48.67 729.83 52.73L739.73 52.73C739.32 48.87 737.77 46.71 734.78 46.71ZM756.97 53.56L756.97 67.83L750.78 67.83L750.78 42.94L756.04 42.94L756.82 47.94C758.47 45.06 760.94 42.63 764.81 42.42L765.8 48.56C761.93 48.82 758.73 50.88 756.97 53.56ZM782.21 67.93L776.17 67.93L767.45 43.41L773.95 42.58L779.53 60.26L784.89 42.94L791.03 42.94L782.21 67.93ZM815.03 56.59L799.03 56.59C799.34 61.44 801.92 63.56 805.74 63.56C808.94 63.56 811.57 62.37 814.31 60.46L815.03 65.31C812.35 67.16 809.1 68.35 805.07 68.35C798.1 68.35 792.89 64.38 792.89 55.41C792.89 47.33 797.74 42.42 804.24 42.42C811.72 42.42 815.08 48.05 815.08 55.1C815.08 55.62 815.03 56.24 815.03 56.59ZM804.09 46.71C801.61 46.71 799.6 48.67 799.14 52.73L809.04 52.73C808.63 48.87 807.08 46.71 804.09 46.71ZM826.28 53.56L826.28 67.83L820.08 67.83L820.08 42.94L825.35 42.94L826.13 47.94C827.78 45.06 830.25 42.63 834.12 42.42L835.11 48.56C831.24 48.82 828.03 50.88 826.28 53.56Z" />
	<g id="Folder 1">
		<path id="Path 1" class="shp1" d="M175.26 25.01L174.89 25.04C174.69 25.05 174.53 25.1 174.53 25.15C174.53 25.19 174.65 25.29 174.81 25.36C174.96 25.44 175.18 25.57 175.3 25.67C175.41 25.76 175.24 25.69 174.91 25.53C174.58 25.36 174.3 25.2 174.27 25.17C174.25 25.16 174.29 25.1 174.36 25.06C174.43 25.02 174.66 24.98 175.26 25.01ZM154.83 25.09C164.15 25.12 165.67 25.14 166.48 25.26C167 25.34 167.72 25.46 168.09 25.53C168.48 25.6 168.9 25.68 169.03 25.71C169.18 25.74 169.69 25.89 170.18 26.05C170.68 26.2 171.31 26.41 171.59 26.51C171.87 26.61 172.48 26.88 172.96 27.11C173.42 27.34 173.97 27.63 174.16 27.76C174.36 27.9 174.75 28.15 175.02 28.34C175.28 28.52 175.9 29.06 176.37 29.52C176.85 29.99 177.4 30.63 177.61 30.93C177.81 31.24 178.03 31.57 178.09 31.66C178.14 31.75 178.37 32.17 178.58 32.59C178.8 33.01 179.08 33.72 179.22 34.17C179.35 34.61 179.52 35.23 179.59 35.53C179.67 35.84 179.77 36.56 179.82 37.15C179.88 37.8 179.9 38.7 179.87 39.49C179.84 40.19 179.76 41.1 179.68 41.53C179.61 41.95 179.49 42.54 179.43 42.84C179.35 43.15 179.18 43.73 179.04 44.13C178.91 44.52 178.64 45.17 178.45 45.55C178.27 45.93 178.11 46.27 178.11 46.3C178.11 46.32 177.88 46.67 177.58 47.08C177.3 47.49 176.97 47.91 176.86 48.02C176.75 48.12 176.66 48.24 176.66 48.27C176.66 48.31 176.87 48.58 177.13 48.89C177.38 49.2 177.59 49.47 177.59 49.5C177.59 49.54 177.71 49.73 177.84 49.93C177.98 50.13 178.24 50.6 178.43 50.97C178.62 51.35 178.91 52.06 179.07 52.55C179.24 53.04 179.45 53.84 179.55 54.33C179.65 54.83 179.77 55.65 179.81 56.17C179.86 56.68 179.9 57.49 179.9 57.95C179.89 58.42 179.86 59.16 179.81 59.61C179.77 60.06 179.67 60.69 179.59 61.01C179.52 61.34 179.43 61.74 179.4 61.91C179.36 62.07 179.27 62.35 179.19 62.51C179.11 62.66 179.04 62.86 179.04 62.93C179.04 63 178.88 63.4 178.68 63.82C178.48 64.24 178.07 64.95 177.78 65.4C177.47 65.84 177.12 66.34 176.97 66.5C176.83 66.66 176.53 66.96 176.32 67.17C176.11 67.38 175.74 67.71 175.51 67.9C175.28 68.1 174.82 68.42 174.49 68.63C174.16 68.85 173.74 69.09 173.55 69.18C173.37 69.26 173.15 69.38 173.09 69.43C173.01 69.49 172.72 69.64 172.45 69.75C172.16 69.88 171.61 70.1 171.2 70.26C170.81 70.4 169.96 70.65 169.33 70.8C168.7 70.96 167.89 71.13 167.55 71.18C167.19 71.24 166.5 71.32 166.01 71.38C165.46 71.43 161.48 71.49 155.83 71.51C150.72 71.54 145.98 71.55 144.06 71.49L144.03 66.85C143.99 63.81 144.01 62.17 144.06 62.1C144.14 62.01 146.17 61.99 154.17 61.97C164.08 61.94 164.18 61.94 164.73 61.77C165.04 61.67 165.51 61.48 165.79 61.34C166.08 61.21 166.32 61.08 166.35 61.05C166.38 61.02 166.5 60.92 166.65 60.83C166.79 60.73 167.1 60.41 167.34 60.11C167.57 59.81 167.89 59.26 168.05 58.89C168.29 58.29 168.33 58.12 168.33 57.44C168.33 56.83 168.28 56.54 168.09 55.99C167.97 55.62 167.76 55.16 167.63 54.97C167.5 54.79 167.19 54.44 166.93 54.18C166.68 53.93 166.21 53.61 165.88 53.44C165.56 53.28 165.02 53.06 164.69 52.96C164.13 52.79 163.88 52.77 161.24 52.74C159.67 52.72 158.35 52.69 158.32 52.65C158.28 52.62 158.25 50.65 158.25 48.29C158.25 45.93 158.28 43.97 158.32 43.94C158.35 43.91 159.69 43.86 161.28 43.85C163.85 43.81 164.24 43.78 164.73 43.64C165.04 43.55 165.47 43.37 165.71 43.25C165.95 43.14 166.35 42.88 166.61 42.69C166.86 42.5 167.23 42.13 167.42 41.89C167.6 41.64 167.86 41.18 168 40.88C168.21 40.43 168.26 40.19 168.29 39.49C168.32 38.94 168.29 38.47 168.22 38.17C168.16 37.91 168.01 37.53 167.9 37.32C167.78 37.1 167.56 36.77 167.41 36.55C167.26 36.34 166.87 35.97 166.55 35.74C166.19 35.45 165.66 35.17 164.26 34.63L160.23 34.61C157.68 34.61 156.15 34.62 156.04 34.68C155.87 34.76 155.86 34.85 155.86 44.7C155.86 50.82 155.84 54.66 155.78 54.72C155.74 54.77 155.54 54.66 155.25 54.41C155.01 54.2 154.67 53.9 154.5 53.74C154.34 53.59 153.88 53.18 153.48 52.82C153.08 52.47 152.33 51.79 151.82 51.32C151.3 50.84 150.67 50.26 150.41 50.03C150.15 49.8 149.69 49.4 149.39 49.14C149.1 48.89 148.79 48.62 148.71 48.55C148.64 48.48 148.34 48.21 148.06 47.96C147.78 47.69 147.11 47.08 146.57 46.58C146.03 46.09 145.29 45.41 144.91 45.09C144.54 44.76 144.19 44.44 144.13 44.37C144.04 44.27 144.02 42.21 144.01 34.74C144 29.5 144.03 25.18 144.06 25.14C144.1 25.08 147.79 25.06 154.83 25.09Z" />
		<path id="Path 2" class="shp3" d="M176.52 25.09C177.6 25.12 178.82 25.18 179.22 25.23C179.62 25.27 180.19 25.35 180.5 25.39C180.8 25.45 181.23 25.52 181.44 25.57C181.65 25.6 182.03 25.7 182.28 25.78C182.54 25.85 183.22 26.06 183.78 26.24C184.34 26.42 184.91 26.63 185.06 26.7C185.2 26.78 185.63 27 186.04 27.2C186.44 27.4 187.07 27.75 187.44 27.98C187.82 28.22 188.35 28.58 188.64 28.79C188.92 29.01 189.47 29.49 189.86 29.87C190.25 30.24 190.79 30.82 191.06 31.15C191.33 31.47 191.68 31.95 191.85 32.21C192.01 32.47 192.32 33 192.53 33.4C192.74 33.8 193.07 34.58 193.27 35.12C193.46 35.67 193.6 36.13 193.57 36.13C193.56 36.13 193.58 36.27 193.65 36.45C193.71 36.62 193.83 37.13 193.9 37.58C193.98 38.01 194.09 38.82 194.14 39.36C194.2 40.03 194.22 43.05 194.19 48.98C194.18 53.72 194.13 57.78 194.1 58C194.07 58.21 194 58.66 193.95 59.02C193.9 59.37 193.78 59.92 193.69 60.25C193.6 60.58 193.46 61.03 193.4 61.27C193.33 61.51 193.19 61.89 193.09 62.12C193 62.35 192.83 62.74 192.72 62.97C192.61 63.21 192.44 63.51 192.36 63.66C192.28 63.79 192.06 64.16 191.89 64.46C191.7 64.77 191.48 65.09 191.4 65.19C191.31 65.28 191.06 65.57 190.84 65.83C190.61 66.09 190.16 66.56 189.83 66.87C189.5 67.18 188.91 67.68 188.51 67.98C188.11 68.27 187.36 68.74 186.85 69.02C186.33 69.3 185.62 69.64 185.27 69.79C184.91 69.94 184.42 70.14 184.16 70.23C183.9 70.33 183.39 70.5 183.01 70.62C182.63 70.74 182.24 70.84 182.14 70.84C182.03 70.85 181.93 70.87 181.91 70.91C181.89 70.94 181.69 71 181.46 71.04C181.24 71.08 180.88 71.13 180.67 71.15C180.46 71.17 180.22 71.21 180.16 71.24C180.09 71.27 179.68 71.33 179.26 71.38C178.83 71.41 177.67 71.47 176.66 71.49C175.51 71.53 174.76 71.51 174.65 71.46C174.5 71.38 174.5 71.37 174.71 71.26C174.84 71.19 175.08 71.06 175.27 70.96C175.45 70.86 175.89 70.57 176.23 70.32C176.59 70.07 177.03 69.73 177.22 69.57C177.4 69.41 177.8 69.02 178.11 68.71C178.42 68.41 178.86 67.93 179.09 67.64C179.33 67.36 179.58 67.01 179.67 66.87C179.75 66.75 180 66.33 180.24 65.95C180.48 65.58 180.71 65.13 180.76 64.97C180.82 64.81 180.91 64.61 180.96 64.55C181.02 64.48 181.16 64.11 181.28 63.74C181.4 63.37 181.56 62.85 181.65 62.59C181.73 62.34 181.83 61.91 181.87 61.65C181.92 61.4 182.01 60.82 182.08 60.38C182.2 59.67 182.23 58.14 182.26 48.89C182.28 41.48 182.27 37.92 182.2 37.28C182.15 36.76 182.07 36.13 182.03 35.87C181.99 35.61 181.92 35.23 181.86 35.02C181.82 34.81 181.75 34.44 181.69 34.21C181.65 33.98 181.55 33.63 181.51 33.45C181.45 33.26 181.32 32.91 181.21 32.68C181.09 32.45 180.93 32.08 180.86 31.87C180.79 31.66 180.6 31.26 180.43 30.98C180.28 30.7 180.08 30.37 180 30.24C179.92 30.12 179.79 29.93 179.71 29.82C179.62 29.7 179.38 29.38 179.18 29.1C178.97 28.83 178.54 28.33 178.22 28C177.9 27.67 177.48 27.26 177.3 27.1C177.11 26.93 176.48 26.47 175.9 26.07C175.31 25.67 174.76 25.32 174.68 25.29C174.6 25.26 174.54 25.19 174.54 25.14C174.55 25.07 175.14 25.06 176.52 25.09Z" />
	</g>
</svg>