<svg version="1.2" baseProfile="tiny-ps" xmlns="http://www.w3.org/2000/svg" viewBox="0 0 1074 227" width="161" height="34">
	<title>banner</title>
	<style>
		tspan { white-space:pre }
		.shp0 { fill: #3e83e6 } 
		.shp1 { fill: #fffeff } 
	</style>
	<path id="BetterDiscord " fill="#ffffff" aria-label="BetterDiscord"  d="M11.52 115.2L-0.78 115.2L-0.78 156.3C7.35 163.53 11.03 166.93 12.77 168.52C14.64 170.05 17.76 173.04 20.2 175.19C22.42 177.34 24.43 178.87 24.57 178.87C24.71 178.87 24.85 174.5 24.85 157.83L24.85 136.79C40.19 136.79 41.79 136.93 42.62 137.21C43.32 137.35 44.5 137.83 45.05 138.11C45.61 138.39 46.58 139.22 47.07 139.78C47.62 140.33 48.18 141.37 48.46 141.79C48.73 142.35 49.01 143.18 49.01 143.8C49.15 144.36 49.29 145.19 49.29 145.61C49.29 146.03 49.15 147.07 49.01 147.76C48.87 148.46 48.46 149.64 48.18 150.19C47.9 150.75 47.07 151.72 46.44 152.14C45.89 152.76 45.05 153.32 44.5 153.6C44.08 153.87 42.9 154.15 42.21 154.29C41.24 154.57 39.36 154.57 34.78 154.57L28.81 154.57L28.81 173.25C42.49 173.39 42.49 173.39 44.08 173.8C44.92 174.08 46.17 174.64 46.79 175.05C47.48 175.47 48.32 176.51 48.73 176.93C49.15 177.34 49.92 178.18 50.19 178.73C50.47 179.36 50.89 180.33 51.03 180.89C51.17 181.44 51.3 182.76 51.3 183.45C51.3 184.15 51.17 185.61 51.03 186.16C50.75 186.72 50.33 187.83 50.05 188.45C49.78 189.01 48.87 189.98 48.18 190.68C47.48 191.3 46.44 192 45.89 192.27C45.33 192.55 44.22 192.97 43.32 193.25C41.93 193.66 41.24 193.52 33.39 193.52C28.81 193.52 24.99 193.66 24.99 193.66C24.99 193.8 19.29 193.8 12.21 193.8L-0.78 193.8L-0.78 216.16C44.64 216.02 47.76 216.02 49.43 215.74C50.47 215.61 52.28 215.33 53.32 215.05C54.29 214.77 56.16 214.29 57.28 213.87C58.39 213.45 60.4 212.76 61.23 212.34C62.28 211.92 63.8 210.88 64.84 210.19C65.82 209.49 67.34 208.31 68.25 207.48C69.08 206.65 70.54 205.19 71.09 204.36C71.79 203.52 72.76 201.65 73.39 200.54C73.94 199.22 74.91 197.41 75.19 196.23C75.47 195.12 75.89 193.52 76.16 192.55C76.51 191.58 76.79 189.7 76.93 188.59C77.07 187.41 77.07 185.47 77.07 184.29C77.07 183.18 76.79 181.44 76.51 180.33C76.16 179.36 75.75 177.76 75.47 176.79C75.19 175.89 74.64 174.5 74.36 173.94C74.08 173.39 73.39 172.07 72.62 171.09C71.93 170.05 70.54 168.52 69.64 167.55C68.66 166.51 67.34 165.4 66.79 164.98C66.09 164.57 64.84 163.66 63.94 163.25C62.55 162.41 62.55 162.41 62.97 162.28C63.25 162.28 64.08 161.58 64.84 160.96C65.68 160.4 66.79 159.43 67.34 158.73C67.97 157.97 68.8 156.86 69.22 156.16C69.64 155.47 70.54 154.15 70.96 153.32C71.37 152.41 71.93 150.89 72.21 150.05C72.48 148.73 72.76 147.62 72.76 146.03C72.76 144.92 72.76 142.76 72.62 141.65C72.62 140.47 72.34 138.67 72.07 137.83C71.79 136.79 71.65 135.54 71.37 134.85C71.09 134.08 70.33 132.56 69.77 131.37C69.22 130.26 68.39 128.67 67.83 127.83C67.21 127 66.23 125.89 65.82 125.26C65.4 124.71 64.08 123.74 63.39 123.04C62.69 122.28 61.37 121.31 60.82 120.89C60.12 120.47 58.73 119.57 57.83 119.15C57 118.74 55.4 118.04 54.43 117.76C53.46 117.35 51.86 116.72 51.03 116.45C50.05 116.17 48.18 115.89 46.93 115.61C44.78 115.33 43.94 115.2 34.22 115.2ZM113.86 139.21L158.23 139.21L158.23 115.32L88.12 115.32L88.12 216L158.23 216L158.23 191.97L113.86 191.97L113.86 176.89L154.68 176.89L154.68 154.85L113.86 154.85ZM244.98 139.35L244.98 115.17L165.77 115.17L165.77 139.35L192.5 139.35L192.5 216L218.24 216L218.24 139.35ZM328.17 139.35L328.17 115.17L248.96 115.17L248.96 139.35L275.7 139.35L275.7 216L301.44 216L301.44 139.35ZM363.87 139.21L408.24 139.21L408.24 115.32L338.13 115.32L338.13 216L408.24 216L408.24 191.97L363.87 191.97L363.87 176.89L404.68 176.89L404.68 154.85L363.87 154.85ZM475.36 216L507.07 216L479.63 181.44C491.86 177.6 499.39 167.08 499.39 148.45C498.82 124.84 482.75 115.32 461.99 115.32L421.75 115.32L421.75 216L447.49 216L447.49 184L452.04 184ZM447.49 162.1L447.49 139.06L462.42 139.06C478.49 139.06 478.49 162.1 462.42 162.1ZM513.63 135.1L513.63 135.1L513.63 156.69C519.88 162.39 524.26 166.34 527.52 169.47C530.79 172.45 534.81 176.07 536.2 177.32C537.66 178.57 538.91 179.61 538.91 179.61L538.91 158.57L538.91 137.67C549.19 137.67 553.01 137.8 553.98 137.8C555.02 137.8 556.27 138.08 556.83 138.22C557.38 138.22 558.56 138.5 559.12 138.78C559.67 139.05 560.51 139.47 560.99 139.75C561.41 140.03 562.24 140.79 562.66 141.21C563.07 141.62 563.63 142.32 563.98 142.73C564.26 143.22 564.53 144.05 564.81 144.61C565.09 145.16 565.37 146.21 565.37 146.76L565.37 165.37L565.37 183.15C564.95 184.75 564.53 185.72 564.26 186.27C563.98 186.83 563.21 187.52 562.94 188.01C562.52 188.43 562.1 188.98 561.69 189.26C561.41 189.54 560.51 189.95 560.09 190.23C559.67 190.58 558.7 190.72 558.14 190.99C557.52 191.27 556.27 191.55 555.44 191.55C553.98 191.83 550.71 191.83 533.63 191.83L513.63 191.83L513.63 216.27C544.05 216.27 553.84 216.13 555.16 216.13C556.27 216.13 558.14 215.85 559.12 215.72C560.09 215.58 561.82 215.44 562.94 215.16C564.12 214.88 565.92 214.47 566.96 214.12C567.94 213.84 569.46 213.28 570.37 213.01C571.06 212.73 572.8 212.04 573.91 211.48C575.16 210.85 576.75 209.88 577.45 209.47C578.14 209.05 579.46 208.15 580.16 207.59C580.85 207.04 582.03 206.06 582.59 205.3C583.14 204.74 584.11 203.63 584.6 203.08C585.02 202.52 585.57 201.76 585.85 201.34C586.13 200.92 586.82 199.95 587.24 199.19C587.73 198.49 588.14 197.52 588.42 197.11C588.7 196.69 588.84 195.65 589.11 195.23C589.39 194.81 589.67 193.7 589.95 192.94C590.23 192.24 590.57 190.99 590.71 190.09C590.99 189.26 591.13 187.87 591.27 187.11C591.41 186 591.41 181.76 591.41 165.37C591.41 149.61 591.41 144.61 591.27 143.5C591.13 142.73 590.85 141.35 590.71 140.51C590.57 139.61 590.23 138.22 589.95 137.39C589.67 136.62 589.25 135.37 588.98 134.68C588.7 133.92 588.14 132.67 587.86 131.97C587.59 131.21 586.96 130.1 586.55 129.54C586.27 128.99 585.43 127.94 585.02 127.25C584.39 126.55 583.28 125.24 582.45 124.4C581.75 123.57 580.3 122.25 579.32 121.56C578.28 120.86 576.89 120.03 576.34 119.61C575.78 119.26 574.46 118.57 573.49 118.15C572.66 117.74 571.2 117.04 570.37 116.76C569.46 116.42 568.07 115.86 567.1 115.58C566.06 115.31 564.53 115.03 563.63 114.75C562.8 114.47 561.41 114.19 560.37 114.06C559.39 113.92 557.87 113.64 556.96 113.64C555.85 113.43 549.6 113.29 534.53 113.29L513.63 113.29ZM629.52 115.32L604.06 115.32L604.06 216L629.52 216ZM640.61 199.22C649.99 211.31 662.79 217.42 674.88 217.42C693.37 217.42 713.85 206.76 714.7 187.27C715.84 162.53 697.92 156.27 680 153C672.18 151.29 666.92 148.45 666.63 143.62C667.06 131.95 685.12 131.53 695.64 142.76L712.28 129.96C701.9 117.31 690.1 113.89 677.87 113.89C659.38 113.89 641.46 124.27 641.46 144.04C641.46 163.24 656.25 173.48 672.46 176.04C680.71 177.18 689.95 180.45 689.67 186.14C688.96 196.94 666.77 196.37 656.68 184.14ZM776.99 184.57C771.44 198.51 748.69 195.1 748.69 183.01L748.69 148.31C748.69 135.79 771.16 132.95 777.98 145.46L798.75 137.07C790.64 119.15 775.71 113.89 763.34 113.89C743.14 113.89 723.23 125.55 723.23 148.31L723.23 183.01C723.23 205.9 743.14 217.42 762.91 217.42C775.57 217.42 790.78 211.16 799.17 194.81ZM806 182.87C806 205.9 826.9 217.42 847.81 217.42C868.71 217.42 889.48 205.9 889.48 182.87L889.48 148.45C889.48 125.41 868.57 113.89 847.67 113.89C826.76 113.89 806 125.27 806 148.45ZM831.45 148.45C831.45 141.06 839.42 137.07 847.38 137.07C855.63 137.07 864.02 140.63 864.02 148.45L864.02 182.87C864.02 190.12 855.91 193.82 847.81 193.82C839.7 193.82 831.45 190.26 831.45 182.87ZM956.6 216L988.31 216L960.87 181.44C973.1 177.6 980.63 167.08 980.63 148.45C980.06 124.84 963.99 115.32 943.23 115.32L902.99 115.32L902.99 216L928.73 216L928.73 184L933.28 184ZM928.73 162.1L928.73 139.06L943.66 139.06C959.73 139.06 959.73 162.1 943.66 162.1ZM994.87 135.1L994.87 135.1L994.87 156.69C1001.12 162.39 1005.5 166.34 1008.76 169.47C1012.02 172.45 1016.05 176.07 1017.44 177.32C1018.9 178.57 1020.15 179.61 1020.15 179.61L1020.15 158.57L1020.15 137.67C1030.43 137.67 1034.25 137.8 1035.22 137.8C1036.26 137.8 1037.51 138.08 1038.06 138.22C1038.62 138.22 1039.8 138.5 1040.36 138.78C1040.91 139.05 1041.74 139.47 1042.23 139.75C1042.65 140.03 1043.48 140.79 1043.9 141.21C1044.31 141.62 1044.87 142.32 1045.22 142.73C1045.49 143.22 1045.77 144.05 1046.05 144.61C1046.33 145.16 1046.61 146.21 1046.61 146.76L1046.61 165.37L1046.61 183.15C1046.19 184.75 1045.77 185.72 1045.49 186.27C1045.22 186.83 1044.45 187.52 1044.17 188.01C1043.76 188.43 1043.34 188.98 1042.93 189.26C1042.65 189.54 1041.74 189.95 1041.33 190.23C1040.91 190.58 1039.94 190.72 1039.38 190.99C1038.76 191.27 1037.51 191.55 1036.68 191.55C1035.22 191.83 1031.95 191.83 1014.87 191.83L994.87 191.83L994.87 216.27C1025.29 216.27 1035.08 216.13 1036.4 216.13C1037.51 216.13 1039.38 215.85 1040.36 215.72C1041.33 215.58 1043.06 215.44 1044.17 215.16C1045.36 214.88 1047.16 214.47 1048.2 214.12C1049.17 213.84 1050.7 213.28 1051.61 213.01C1052.3 212.73 1054.04 212.04 1055.15 211.48C1056.4 210.85 1057.99 209.88 1058.69 209.47C1059.38 209.05 1060.7 208.15 1061.4 207.59C1062.09 207.04 1063.27 206.06 1063.83 205.3C1064.38 204.74 1065.35 203.63 1065.84 203.08C1066.26 202.52 1066.81 201.76 1067.09 201.34C1067.37 200.92 1068.06 199.95 1068.48 199.19C1068.96 198.49 1069.38 197.52 1069.66 197.11C1069.94 196.69 1070.08 195.65 1070.35 195.23C1070.63 194.81 1070.91 193.7 1071.19 192.94C1071.46 192.24 1071.81 190.99 1071.95 190.09C1072.23 189.26 1072.37 187.87 1072.51 187.11C1072.65 186 1072.65 181.76 1072.65 165.37C1072.65 149.61 1072.65 144.61 1072.51 143.5C1072.37 142.73 1072.09 141.35 1071.95 140.51C1071.81 139.61 1071.46 138.22 1071.19 137.39C1070.91 136.62 1070.49 135.37 1070.21 134.68C1069.94 133.92 1069.38 132.67 1069.1 131.97C1068.83 131.21 1068.2 130.1 1067.78 129.54C1067.51 128.99 1066.67 127.94 1066.26 127.25C1065.63 126.55 1064.52 125.24 1063.69 124.4C1062.99 123.57 1061.53 122.25 1060.56 121.56C1059.52 120.86 1058.13 120.03 1057.58 119.61C1057.02 119.26 1055.7 118.57 1054.73 118.15C1053.9 117.74 1052.44 117.04 1051.61 116.76C1050.7 116.42 1049.31 115.86 1048.34 115.58C1047.3 115.31 1045.77 115.03 1044.87 114.75C1044.04 114.47 1042.65 114.19 1041.61 114.06C1040.63 113.92 1039.11 113.64 1038.2 113.64C1037.09 113.43 1030.84 113.29 1015.77 113.29L994.87 113.29Z" />
	<path id="Official BetterDiscord Server " fill="#8e9297" aria-label="Official BetterDiscord Server"  d="M265.2 69.44C265.2 57.39 258.13 49.25 246.94 49.25C235.8 49.25 228.56 57.45 228.56 69.55C228.56 81.59 235.74 89.74 246.83 89.74C258.02 89.74 265.2 81.48 265.2 69.44ZM257.63 69.49C257.63 78.03 253.61 83.52 246.88 83.52C240.21 83.52 236.19 78.03 236.19 69.49C236.19 60.95 240.21 55.47 246.88 55.47C253.55 55.47 257.63 60.95 257.63 69.49ZM285.95 54.45L285.05 48.91C284.37 48.8 283.47 48.68 282.28 48.68C276.68 48.68 272.84 50.95 272.84 57L272.84 61.69L268.88 61.69L268.88 67.23L272.84 67.23L272.84 89L279.56 89L279.56 67.23L285.61 67.23L284.77 61.69L279.56 61.69L279.56 57.67C279.56 55.24 280.81 54.23 283.13 54.23C284.26 54.23 285.28 54.34 285.95 54.45ZM304.73 54.45L303.82 48.91C303.14 48.8 302.24 48.68 301.05 48.68C295.45 48.68 291.61 50.95 291.61 57L291.61 61.69L287.65 61.69L287.65 67.23L291.61 67.23L291.61 89L298.34 89L298.34 67.23L304.39 67.23L303.54 61.69L298.34 61.69L298.34 57.67C298.34 55.24 299.58 54.23 301.9 54.23C303.03 54.23 304.05 54.34 304.73 54.45ZM316.21 53.26C316.21 50.95 314.4 49.31 312.19 49.31C309.93 49.31 308.12 50.95 308.12 53.26C308.12 55.53 309.93 57.11 312.19 57.11C314.4 57.11 316.21 55.53 316.21 53.26ZM315.53 89L315.53 61.69L308.74 61.69L308.74 89ZM343.29 86.85L342.39 81.08C339.84 83.06 337.69 83.68 335.32 83.68C331.19 83.68 328.14 80.97 328.14 75.32C328.14 69.89 330.96 67 334.86 67C337.52 67 339.73 67.8 342.05 69.55L343.01 63.44C340.86 62.08 338.14 61.12 334.47 61.12C327.23 61.12 321.29 65.99 321.29 75.49C321.29 84.42 326.67 89.51 334.24 89.51C337.69 89.51 340.52 88.77 343.29 86.85ZM356.46 53.26C356.46 50.95 354.66 49.31 352.45 49.31C350.19 49.31 348.38 50.95 348.38 53.26C348.38 55.53 350.19 57.11 352.45 57.11C354.66 57.11 356.46 55.53 356.46 53.26ZM355.79 89L355.79 61.69L349 61.69L349 89ZM384.68 89L384.68 70.28C384.68 63.72 381.17 61.12 374.11 61.12C369.75 61.12 366.42 62.08 363.25 63.33L364.1 68.76C367.04 67.46 370.04 66.55 373.2 66.55C376.2 66.55 377.9 67.68 377.9 70.62L377.9 71.41C366.87 72.49 361.44 75.37 361.44 81.99C361.44 86.74 364.55 89.57 369.19 89.57C373.26 89.57 376.09 87.76 378.29 85.44L378.86 89ZM377.9 81.48C376.03 83.35 373.82 84.42 371.51 84.42C369.41 84.42 368.17 83.23 368.17 81.25C368.17 78.65 370.04 76.33 377.9 75.37ZM398.48 89L398.48 48.17L391.69 49.25L391.69 89ZM444.33 77.63C444.33 72.43 441.45 69.61 437.1 68.25C440.49 66.83 442.75 64.18 442.75 60.11C442.75 53.94 438.57 49.98 429.8 49.98L418.44 49.98L418.44 89L429.63 89C438.79 89 444.33 85.32 444.33 77.63ZM435.8 60.73C435.8 64.06 433.48 66.04 429.07 66.04L425.62 66.04L425.62 55.7L429.41 55.7C433.93 55.7 435.8 57.62 435.8 60.73ZM437.15 77.41C437.15 81.31 434.38 83.29 429.63 83.29L425.62 83.29L425.62 71.36L429.52 71.36C434.5 71.36 437.15 73.45 437.15 77.41ZM472.66 75.03C472.66 67.29 468.99 61.12 460.79 61.12C453.66 61.12 448.35 66.5 448.35 75.37C448.35 85.21 454.06 89.57 461.69 89.57C466.1 89.57 469.67 88.26 472.61 86.23L471.82 80.91C468.82 83.01 465.93 84.31 462.43 84.31C458.24 84.31 455.42 81.99 455.08 76.67L472.61 76.67C472.61 76.28 472.66 75.6 472.66 75.03ZM466.05 72.43L455.19 72.43C455.7 67.97 457.91 65.82 460.62 65.82C463.9 65.82 465.6 68.19 466.05 72.43ZM492.85 89L492 83.29C491.38 83.46 490.64 83.52 489.85 83.52C487.25 83.52 486.23 82.33 486.23 80.12L486.23 67.23L492.68 67.23L491.83 61.69L486.23 61.69L486.23 52.02L479.56 53.04L479.56 61.69L475.72 61.69L475.72 67.23L479.56 67.23L479.56 81.25C479.56 87.47 483.18 89.45 488.55 89.45C490.53 89.45 491.78 89.23 492.85 89ZM512.64 89L511.79 83.29C511.17 83.46 510.44 83.52 509.64 83.52C507.04 83.52 506.02 82.33 506.02 80.12L506.02 67.23L512.47 67.23L511.62 61.69L506.02 61.69L506.02 52.02L499.35 53.04L499.35 61.69L495.51 61.69L495.51 67.23L499.35 67.23L499.35 81.25C499.35 87.47 502.97 89.45 508.34 89.45C510.32 89.45 511.57 89.23 512.64 89ZM540.4 75.03C540.4 67.29 536.73 61.12 528.53 61.12C521.4 61.12 516.09 66.5 516.09 75.37C516.09 85.21 521.8 89.57 529.43 89.57C533.84 89.57 537.41 88.26 540.35 86.23L539.56 80.91C536.56 83.01 533.68 84.31 530.17 84.31C525.99 84.31 523.16 81.99 522.82 76.67L540.35 76.67C540.35 76.28 540.4 75.6 540.4 75.03ZM533.79 72.43L522.93 72.43C523.44 67.97 525.65 65.82 528.36 65.82C531.64 65.82 533.34 68.19 533.79 72.43ZM562.34 67.85L561.27 61.12C557.03 61.35 554.31 64.01 552.5 67.17L551.66 61.69L545.89 61.69L545.89 89L552.67 89L552.67 73.34C554.6 70.4 558.1 68.14 562.34 67.85ZM600.28 69.44C600.28 57.96 593.27 49.98 579.7 49.98L567.32 49.98L567.32 89L579.7 89C592.99 89 600.28 81.03 600.28 69.44ZM592.65 69.49C592.65 78.65 587.73 82.84 579.53 82.84L574.78 82.84L574.78 56.15L579.65 56.15C587.45 56.15 592.65 60.5 592.65 69.49ZM614.19 53.26C614.19 50.95 612.38 49.31 610.18 49.31C607.92 49.31 606.11 50.95 606.11 53.26C606.11 55.53 607.92 57.11 610.18 57.11C612.38 57.11 614.19 55.53 614.19 53.26ZM613.52 89L613.52 61.69L606.73 61.69L606.73 89ZM640.94 80.97C640.94 75.83 638.17 73.9 631.1 72.09C627.03 71.02 626.01 70.23 626.01 68.76C626.01 67.23 627.26 66.27 629.8 66.27C632.51 66.27 635.74 67.23 638.45 68.76L639.36 63.1C636.64 61.86 633.36 61.18 629.8 61.18C623.47 61.18 619.74 64.52 619.74 69.21C619.74 74.19 622.51 76.11 629.12 77.8C633.48 78.88 634.66 79.67 634.66 81.59C634.66 83.35 633.08 84.42 630.14 84.42C626.75 84.42 623.13 83.12 620.19 81.2L619.28 86.85C621.88 88.26 625.96 89.51 629.91 89.51C637.09 89.51 640.94 86.34 640.94 80.97ZM666.89 86.85L665.99 81.08C663.44 83.06 661.3 83.68 658.92 83.68C654.79 83.68 651.74 80.97 651.74 75.32C651.74 69.89 654.57 67 658.47 67C661.13 67 663.33 67.8 665.65 69.55L666.61 63.44C664.46 62.08 661.75 61.12 658.07 61.12C650.84 61.12 644.9 65.99 644.9 75.49C644.9 84.42 650.27 89.51 657.85 89.51C661.3 89.51 664.12 88.77 666.89 86.85ZM696.13 75.37C696.13 66.5 690.7 61.12 683.24 61.12C675.83 61.12 670.4 66.5 670.4 75.37C670.4 84.25 675.77 89.57 683.18 89.57C690.64 89.57 696.13 84.25 696.13 75.37ZM689.51 75.37C689.51 80.46 687.36 84.02 683.18 84.02C679.22 84.02 677.02 80.35 677.02 75.37C677.02 70.28 679.16 66.72 683.18 66.72C687.25 66.72 689.51 70.34 689.51 75.37ZM718.07 67.85L716.99 61.12C712.75 61.35 710.04 64.01 708.23 67.17L707.38 61.69L701.61 61.69L701.61 89L708.4 89L708.4 73.34C710.32 70.4 713.83 68.14 718.07 67.85ZM745.32 89L745.32 48.17L738.54 49.25L738.54 62.42C736.9 61.86 734.8 61.41 732.2 61.41C725.87 61.41 720.27 65.93 720.27 76.11C720.27 85.32 724.85 89.57 730.56 89.57C734.35 89.57 737.01 87.53 738.93 85.21L739.5 89ZM738.54 79.78C736.73 82.05 734.8 83.52 732.32 83.52C729.32 83.52 727.06 81.03 727.06 75.71C727.06 69.72 729.66 66.83 733.22 66.83C735.54 66.83 736.84 67.23 738.54 68.02ZM788.75 77.86C788.75 71.81 785.81 69.04 777.78 65.76C772.35 63.5 771.11 62.31 771.11 59.82C771.11 57.45 772.74 55.64 776.48 55.64C779.53 55.64 782.87 56.83 785.69 58.69L786.82 51.91C784 50.44 780.94 49.53 776.53 49.53C769.24 49.53 763.92 53.55 763.92 60.45C763.92 66.5 766.98 68.98 774.55 72.09C780.21 74.52 781.57 75.71 781.57 78.6C781.57 81.71 779.19 83.35 775.74 83.35C771.84 83.35 767.77 81.82 764.49 79.9L763.36 86.74C766.81 88.38 770.88 89.45 775.63 89.45C783.15 89.45 788.75 85.49 788.75 77.86ZM817.36 75.03C817.36 67.29 813.68 61.12 805.48 61.12C798.36 61.12 793.04 66.5 793.04 75.37C793.04 85.21 798.76 89.57 806.39 89.57C810.8 89.57 814.36 88.26 817.3 86.23L816.51 80.91C813.51 83.01 810.63 84.31 807.12 84.31C802.94 84.31 800.11 81.99 799.77 76.67L817.3 76.67C817.3 76.28 817.36 75.6 817.36 75.03ZM810.74 72.43L799.89 72.43C800.4 67.97 802.6 65.82 805.31 65.82C808.59 65.82 810.29 68.19 810.74 72.43ZM839.3 67.85L838.22 61.12C833.98 61.35 831.27 64.01 829.46 67.17L828.61 61.69L822.84 61.69L822.84 89L829.63 89L829.63 73.34C831.55 70.4 835.06 68.14 839.3 67.85ZM866.95 61.69L860.22 61.69L854.34 80.69L848.23 61.29L841.11 62.2L850.66 89.11L857.28 89.11ZM893.3 75.03C893.3 67.29 889.62 61.12 881.42 61.12C874.3 61.12 868.98 66.5 868.98 75.37C868.98 85.21 874.69 89.57 882.33 89.57C886.74 89.57 890.3 88.26 893.24 86.23L892.45 80.91C889.45 83.01 886.57 84.31 883.06 84.31C878.88 84.31 876.05 81.99 875.71 76.67L893.24 76.67C893.24 76.28 893.3 75.6 893.3 75.03ZM886.68 72.43L875.83 72.43C876.33 67.97 878.54 65.82 881.25 65.82C884.53 65.82 886.23 68.19 886.68 72.43ZM915.24 67.85L914.16 61.12C909.92 61.35 907.21 64.01 905.4 67.17L904.55 61.69L898.78 61.69L898.78 89L905.57 89L905.57 73.34C907.49 70.4 911 68.14 915.24 67.85Z" />
	<g id="Folder 1">
		<path id="Path 1" class="shp0" d="M191.26 42.06C191.18 42.11 191.14 42.17 191.16 42.19C191.19 42.22 191.5 42.39 191.86 42.58C192.22 42.76 192.41 42.83 192.29 42.73C192.16 42.62 191.91 42.48 191.75 42.4C191.58 42.32 191.44 42.21 191.44 42.16C191.44 42.11 191.62 42.05 191.84 42.04L192.24 42.01C191.59 41.98 191.33 42.02 191.26 42.06ZM158.06 42.15C158.02 42.2 157.99 46.94 158 52.69C158.01 60.88 158.04 63.15 158.13 63.26C158.2 63.33 158.58 63.68 158.99 64.04C159.41 64.4 160.22 65.14 160.81 65.68C161.4 66.23 162.13 66.9 162.44 67.19C162.75 67.47 163.07 67.76 163.15 67.84C163.24 67.92 163.58 68.21 163.9 68.49C164.23 68.78 164.73 69.21 165.01 69.47C165.3 69.72 165.99 70.35 166.56 70.88C167.12 71.4 167.94 72.14 168.38 72.53C168.82 72.92 169.32 73.37 169.5 73.54C169.68 73.71 170.05 74.04 170.32 74.27C170.64 74.55 170.85 74.67 170.9 74.61C170.96 74.55 170.99 70.33 170.99 63.62C170.99 52.81 171 52.71 171.18 52.62C171.3 52.56 172.98 52.54 175.78 52.55L180.19 52.57C181.72 53.16 182.3 53.47 182.7 53.78C183.05 54.04 183.48 54.44 183.64 54.67C183.81 54.91 184.05 55.28 184.18 55.52C184.3 55.75 184.46 56.17 184.53 56.45C184.61 56.78 184.64 57.3 184.61 57.9C184.57 58.67 184.52 58.93 184.29 59.43C184.14 59.76 183.85 60.26 183.65 60.53C183.44 60.8 183.04 61.2 182.76 61.41C182.48 61.62 182.04 61.9 181.78 62.03C181.52 62.16 181.04 62.35 180.71 62.45C180.17 62.61 179.74 62.64 176.92 62.68C175.18 62.7 173.72 62.75 173.68 62.78C173.64 62.82 173.61 64.97 173.61 67.56C173.61 70.15 173.64 72.31 173.68 72.34C173.72 72.38 175.16 72.42 176.88 72.44C179.77 72.47 180.05 72.49 180.66 72.68C181.02 72.79 181.61 73.03 181.97 73.21C182.33 73.39 182.84 73.75 183.12 74.02C183.4 74.3 183.74 74.69 183.88 74.89C184.02 75.1 184.25 75.6 184.39 76.01C184.6 76.61 184.65 76.93 184.65 77.6C184.65 78.34 184.61 78.53 184.34 79.19C184.17 79.6 183.82 80.2 183.56 80.53C183.3 80.86 182.96 81.21 182.81 81.32C182.65 81.42 182.51 81.53 182.48 81.56C182.45 81.59 182.18 81.73 181.87 81.88C181.56 82.03 181.04 82.24 180.71 82.35C180.1 82.54 179.99 82.54 169.13 82.57C160.37 82.59 158.14 82.61 158.06 82.71C158 82.79 157.98 84.59 158.02 87.92L158.06 93.01C160.16 93.08 165.35 93.07 170.95 93.04C177.14 93.01 181.51 92.95 182.11 92.89C182.65 92.83 183.4 92.74 183.79 92.68C184.17 92.62 185.05 92.43 185.75 92.26C186.44 92.09 187.37 91.82 187.8 91.66C188.24 91.49 188.85 91.25 189.16 91.11C189.46 90.98 189.78 90.82 189.86 90.76C189.93 90.7 190.17 90.57 190.37 90.48C190.58 90.38 191.04 90.12 191.4 89.88C191.76 89.65 192.26 89.29 192.52 89.08C192.77 88.87 193.17 88.51 193.4 88.28C193.64 88.04 193.96 87.71 194.12 87.54C194.28 87.36 194.67 86.82 195 86.33C195.32 85.84 195.77 85.06 195.99 84.6C196.21 84.14 196.39 83.7 196.39 83.62C196.39 83.54 196.46 83.33 196.55 83.16C196.64 82.98 196.74 82.68 196.78 82.5C196.81 82.32 196.91 81.88 196.99 81.52C197.07 81.16 197.18 80.47 197.23 79.98C197.28 79.49 197.32 78.67 197.33 78.16C197.33 77.65 197.28 76.76 197.23 76.2C197.18 75.63 197.05 74.73 196.94 74.19C196.83 73.65 196.6 72.77 196.42 72.23C196.24 71.69 195.92 70.91 195.72 70.5C195.51 70.09 195.22 69.58 195.07 69.36C194.93 69.14 194.8 68.93 194.8 68.89C194.8 68.85 194.57 68.55 194.29 68.21C194.01 67.88 193.78 67.58 193.78 67.54C193.78 67.5 193.88 67.37 194 67.26C194.12 67.14 194.48 66.68 194.79 66.23C195.11 65.78 195.37 65.39 195.37 65.37C195.37 65.34 195.54 64.97 195.74 64.55C195.95 64.13 196.24 63.42 196.39 62.99C196.54 62.55 196.73 61.92 196.81 61.58C196.88 61.25 197.01 60.6 197.09 60.14C197.17 59.67 197.26 58.67 197.29 57.9C197.33 57.03 197.31 56.05 197.24 55.33C197.18 54.69 197.07 53.89 196.99 53.55C196.91 53.22 196.73 52.55 196.58 52.06C196.43 51.57 196.12 50.79 195.88 50.33C195.65 49.87 195.4 49.41 195.34 49.31C195.28 49.21 195.04 48.85 194.82 48.51C194.59 48.18 193.98 47.48 193.46 46.96C192.94 46.45 192.27 45.86 191.98 45.66C191.68 45.46 191.26 45.18 191.04 45.03C190.83 44.89 190.23 44.57 189.72 44.32C189.2 44.06 188.53 43.77 188.22 43.66C187.91 43.55 187.22 43.32 186.68 43.15C186.14 42.98 185.58 42.81 185.42 42.78C185.27 42.75 184.81 42.66 184.39 42.58C183.98 42.5 183.19 42.37 182.62 42.29C181.73 42.15 180.07 42.13 169.86 42.1C162.14 42.07 158.1 42.09 158.06 42.15Z" />
		<path id="Path 2" class="shp1" d="M191.45 42.15C191.45 42.21 191.52 42.28 191.61 42.32C191.7 42.35 192.3 42.74 192.94 43.17C193.58 43.61 194.27 44.12 194.48 44.3C194.68 44.48 195.14 44.93 195.49 45.29C195.84 45.65 196.31 46.2 196.54 46.5C196.76 46.81 197.02 47.16 197.12 47.29C197.21 47.41 197.35 47.62 197.44 47.75C197.52 47.89 197.74 48.25 197.91 48.56C198.09 48.87 198.3 49.31 198.38 49.54C198.46 49.77 198.63 50.17 198.76 50.43C198.88 50.68 199.03 51.06 199.09 51.27C199.14 51.47 199.24 51.85 199.29 52.11C199.35 52.36 199.43 52.76 199.48 52.99C199.54 53.22 199.62 53.64 199.66 53.93C199.71 54.21 199.79 54.9 199.85 55.47C199.92 56.18 199.94 60.08 199.91 68.21C199.88 78.37 199.85 80.05 199.72 80.82C199.64 81.31 199.54 81.94 199.49 82.22C199.44 82.5 199.33 82.97 199.24 83.25C199.15 83.53 198.97 84.1 198.84 84.51C198.71 84.92 198.55 85.32 198.49 85.4C198.43 85.47 198.33 85.68 198.27 85.86C198.21 86.04 197.96 86.53 197.7 86.94C197.44 87.35 197.16 87.81 197.07 87.95C196.98 88.1 196.7 88.48 196.44 88.79C196.19 89.11 195.71 89.64 195.37 89.97C195.03 90.31 194.59 90.73 194.39 90.91C194.18 91.08 193.7 91.46 193.31 91.73C192.93 92.01 192.45 92.32 192.25 92.43C192.05 92.54 191.78 92.69 191.64 92.76C191.41 92.88 191.41 92.89 191.58 92.98C191.7 93.04 192.52 93.06 193.78 93.02C194.88 92.99 196.16 92.93 196.63 92.89C197.09 92.84 197.53 92.77 197.61 92.74C197.68 92.71 197.94 92.66 198.17 92.64C198.4 92.62 198.79 92.56 199.04 92.52C199.29 92.48 199.51 92.41 199.53 92.38C199.55 92.34 199.66 92.31 199.78 92.3C199.89 92.3 200.32 92.19 200.74 92.06C201.15 91.93 201.71 91.74 202 91.63C202.28 91.53 202.82 91.31 203.21 91.15C203.59 90.99 204.37 90.61 204.94 90.3C205.5 90 206.32 89.48 206.76 89.16C207.2 88.83 207.85 88.29 208.21 87.94C208.57 87.6 209.06 87.09 209.31 86.8C209.56 86.52 209.83 86.2 209.93 86.1C210.02 85.99 210.26 85.64 210.46 85.3C210.65 84.97 210.89 84.57 210.98 84.42C211.07 84.26 211.25 83.93 211.37 83.67C211.49 83.41 211.68 82.99 211.78 82.73C211.89 82.48 212.04 82.06 212.12 81.8C212.19 81.54 212.34 81.04 212.44 80.68C212.54 80.32 212.67 79.71 212.72 79.33C212.78 78.94 212.85 78.44 212.89 78.21C212.92 77.97 212.97 73.52 212.99 68.31C213.02 61.81 213 58.49 212.93 57.76C212.87 57.17 212.75 56.28 212.67 55.8C212.59 55.31 212.46 54.75 212.39 54.56C212.32 54.37 212.29 54.21 212.31 54.21C212.34 54.21 212.19 53.71 211.98 53.11C211.76 52.51 211.4 51.66 211.17 51.22C210.94 50.78 210.6 50.2 210.42 49.91C210.24 49.63 209.85 49.1 209.55 48.75C209.26 48.39 208.67 47.75 208.24 47.34C207.81 46.93 207.21 46.4 206.9 46.16C206.59 45.93 206 45.53 205.59 45.27C205.18 45.02 204.49 44.63 204.05 44.41C203.61 44.19 203.13 43.95 202.98 43.87C202.82 43.79 202.19 43.56 201.58 43.36C200.96 43.16 200.22 42.93 199.94 42.85C199.66 42.77 199.24 42.66 199.01 42.62C198.78 42.57 198.31 42.49 197.98 42.43C197.65 42.38 197.02 42.3 196.58 42.25C196.14 42.2 194.81 42.13 193.62 42.1C192.11 42.07 191.46 42.08 191.45 42.15Z" />
	</g>
</svg>