<svg version="1.2" baseProfile="tiny-ps" xmlns="http://www.w3.org/2000/svg" viewBox="0 0 1074 227" width="161" height="34">
	<title>betterdiscord2_server-wordmark</title>
	<style>
		tspan { white-space:pre }
		.shp0 { fill: #ffffff } 
		.shp1 { fill: #3e83e6 } 
		.shp2 { fill: #8e9297 } 
		.shp3 { fill: #fffeff } 
	</style>
	<path id="BETTERDISCORD " fill-rule="evenodd" class="shp0" d="M33.17 109.06C42.33 109.06 43.12 109.19 45.14 109.45C46.32 109.71 48.09 109.97 49 110.23C49.79 110.5 51.29 111.08 52.21 111.48C53.12 111.74 54.63 112.39 55.41 112.78C56.26 113.18 57.57 114.03 58.22 114.42C58.75 114.81 59.99 115.73 60.64 116.45C61.3 117.1 62.54 118.02 62.93 118.54C63.32 119.13 64.24 120.17 64.83 120.96C65.35 121.74 66.14 123.25 66.66 124.3C67.18 125.41 67.9 126.85 68.16 127.57C68.43 128.22 68.56 129.4 68.82 130.38C69.08 131.16 69.34 132.86 69.34 133.97C69.47 135.02 69.47 137.05 69.47 138.09C69.47 139.6 69.21 140.65 68.95 141.89C68.69 142.67 68.16 144.11 67.77 144.96C67.38 145.75 66.53 146.99 66.14 147.64C65.74 148.3 64.96 149.34 64.37 150.06C63.85 150.72 62.8 151.63 62.02 152.16C61.3 152.75 60.51 153.4 60.25 153.4C59.86 153.53 59.86 153.53 61.17 154.31C62.02 154.71 63.19 155.56 63.85 155.95C64.37 156.34 65.61 157.39 66.53 158.37C67.38 159.29 68.69 160.72 69.34 161.71C70.06 162.62 70.71 163.86 70.98 164.39C71.24 164.91 71.76 166.22 72.02 167.07C72.28 167.98 72.68 169.49 73 170.4C73.27 171.45 73.53 173.09 73.53 174.13C73.53 175.24 73.53 177.07 73.4 178.19C73.27 179.23 73 181 72.68 181.91C72.42 182.83 72.02 184.33 71.76 185.38C71.5 186.49 70.58 188.19 70.06 189.44C69.47 190.48 68.56 192.25 67.9 193.03C67.38 193.82 66.01 195.19 65.22 195.98C64.37 196.76 62.93 197.87 62.02 198.53C61.04 199.18 59.6 200.16 58.62 200.55C57.83 200.95 55.93 201.6 54.89 201.99C53.84 202.39 52.08 202.84 51.16 203.1C50.18 203.37 48.48 203.63 47.5 203.76C45.93 204.02 42.98 204.02 0.21 204.15L0.21 183.09L12.44 183.09C19.11 183.09 24.48 183.09 24.48 182.96C24.48 182.96 28.07 182.83 32.39 182.83C39.78 182.83 40.43 182.96 41.74 182.57C42.59 182.31 43.64 181.91 44.16 181.65C44.68 181.39 45.67 180.74 46.32 180.15C46.97 179.49 47.82 178.58 48.09 178.06C48.35 177.47 48.74 176.42 49 175.9C49.13 175.37 49.26 174 49.26 173.35C49.26 172.69 49.13 171.45 49 170.93C48.87 170.4 48.48 169.49 48.22 168.9C47.95 168.38 47.24 167.59 46.84 167.2C46.45 166.81 45.67 165.83 45.01 165.43C44.42 165.04 43.25 164.52 42.46 164.26C40.96 163.86 40.96 163.86 28.07 163.73L28.07 146.14L33.7 146.14C38.01 146.14 39.78 146.14 40.7 145.88C41.35 145.75 42.46 145.49 42.85 145.22C43.38 144.96 44.16 144.44 44.68 143.85C45.27 143.46 46.06 142.54 46.32 142.02C46.58 141.5 46.97 140.38 47.1 139.73C47.24 139.08 47.37 138.09 47.37 137.7C47.37 137.31 47.24 136.53 47.1 136C47.1 135.41 46.84 134.63 46.58 134.11C46.32 133.71 45.8 132.73 45.27 132.21C44.82 131.69 43.9 130.9 43.38 130.64C42.85 130.38 41.74 129.92 41.09 129.79C40.3 129.53 38.8 129.4 24.34 129.4L24.34 149.21C24.34 164.91 24.21 169.03 24.08 169.03C23.95 169.03 22.06 167.59 19.96 165.56C17.67 163.54 14.73 160.72 12.96 159.29C11.33 157.78 7.86 154.58 0.21 147.77L0.21 109.06L33.17 109.06ZM108.18 146.41L146.62 146.41L146.62 167.17L108.18 167.17L108.18 181.36L149.97 181.36L149.97 204L83.94 204L83.94 109.17L149.97 109.17L149.97 131.67L108.18 131.67L108.18 146.41ZM206.5 131.81L206.5 204L182.25 204L182.25 131.81L157.07 131.81L157.07 109.04L231.68 109.04L231.68 131.81L206.5 131.81ZM284.85 131.81L284.85 204L260.61 204L260.61 131.81L235.43 131.81L235.43 109.04L310.03 109.04L310.03 131.81L284.85 131.81ZM343.65 146.41L382.09 146.41L382.09 167.17L343.65 167.17L343.65 181.36L385.44 181.36L385.44 204L319.41 204L319.41 109.17L385.44 109.17L385.44 131.67L343.65 131.67L343.65 146.41ZM426.7 173.86L422.41 173.86L422.41 204L398.17 204L398.17 109.17L436.07 109.17C455.63 109.17 470.76 118.14 471.3 140.38C471.3 157.92 464.2 167.84 452.68 171.45L478.53 204L448.66 204L426.7 173.86ZM436.47 153.24C451.61 153.24 451.61 131.54 436.47 131.54L422.41 131.54L422.41 153.24L436.47 153.24ZM484.71 107.26L504.4 107.26C518.59 107.26 524.48 107.39 525.52 107.59C526.37 107.59 527.81 107.85 528.73 107.98C529.71 108.11 531.02 108.38 531.8 108.64C532.65 108.9 534.09 109.16 535.07 109.42C535.99 109.68 537.29 110.21 538.14 110.53C538.93 110.8 540.3 111.45 541.09 111.84C542 112.23 543.25 112.89 543.77 113.22C544.29 113.61 545.6 114.39 546.58 115.05C547.5 115.7 548.87 116.94 549.52 117.73C550.31 118.51 551.36 119.76 551.94 120.41C552.34 121.06 553.12 122.04 553.38 122.57C553.78 123.09 554.36 124.14 554.63 124.86C554.89 125.51 555.41 126.69 555.67 127.41C555.93 128.06 556.33 129.24 556.59 129.96C556.85 130.74 557.18 132.05 557.31 132.9C557.44 133.69 557.7 134.99 557.83 135.71C557.96 136.76 557.96 141.47 557.96 156.32C557.96 171.75 557.96 175.74 557.83 176.79C557.7 177.51 557.57 178.81 557.31 179.6C557.18 180.45 556.85 181.63 556.59 182.28C556.33 183 556.07 184.05 555.8 184.44C555.54 184.83 555.41 185.81 555.15 186.2C554.89 186.6 554.5 187.51 554.04 188.17C553.65 188.89 552.99 189.8 552.73 190.19C552.47 190.59 551.94 191.31 551.55 191.83C551.09 192.35 550.18 193.4 549.66 193.92C549.13 194.64 548.02 195.56 547.37 196.08C546.71 196.6 545.47 197.45 544.82 197.85C544.16 198.24 542.66 199.15 541.48 199.74C540.43 200.27 538.8 200.92 538.14 201.18C537.29 201.44 535.86 201.97 534.94 202.23C533.96 202.55 532.26 202.95 531.15 203.21C530.1 203.47 528.47 203.6 527.55 203.73C526.63 203.86 524.87 204.12 523.82 204.12C522.58 204.12 513.36 204.26 484.71 204.26L484.71 181.23L503.55 181.23C519.64 181.23 522.71 181.23 524.08 180.97C524.87 180.97 526.05 180.71 526.63 180.45C527.16 180.19 528.07 180.06 528.47 179.73C528.86 179.47 529.71 179.08 529.97 178.81C530.36 178.55 530.75 178.03 531.15 177.64C531.41 177.18 532.13 176.52 532.39 176C532.65 175.48 533.04 174.56 533.44 173.06L533.44 138.79C533.44 138.26 533.17 137.28 532.91 136.76C532.65 136.24 532.39 135.45 532.13 134.99C531.8 134.6 531.28 133.95 530.89 133.56C530.49 133.16 529.71 132.44 529.32 132.18C528.86 131.92 528.07 131.53 527.55 131.27C527.03 131 525.91 130.74 525.39 130.74C524.87 130.61 523.69 130.35 522.71 130.35C521.79 130.35 518.2 130.22 508.52 130.22L508.52 169.72C508.52 169.72 507.34 168.74 505.97 167.56C504.66 166.39 500.87 162.99 497.79 160.17C494.72 157.23 490.6 153.5 484.71 148.14L484.71 107.26ZM593.86 204L569.88 204L569.88 109.17L593.86 109.17L593.86 204ZM619.44 174C628.95 185.52 649.84 186.05 650.51 175.87C650.78 170.51 642.07 167.43 634.31 166.36C619.04 163.95 605.11 154.31 605.11 136.23C605.11 117.61 621.98 107.83 639.4 107.83C650.91 107.83 662.03 111.04 671.81 122.97L656.14 135.02C646.23 124.44 629.22 124.84 628.81 135.82C629.08 140.38 634.04 143.06 641.4 144.66C658.28 147.74 675.16 153.64 674.09 176.94C673.28 195.29 654 205.34 636.58 205.34C625.2 205.34 613.14 199.58 604.3 188.19L619.44 174ZM753.65 184.04C745.75 199.45 731.41 205.34 719.49 205.34C700.87 205.34 682.12 194.49 682.12 172.93L682.12 140.24C682.12 118.81 700.87 107.83 719.89 107.83C731.55 107.83 745.61 112.79 753.25 129.66L733.69 137.56C727.26 125.78 706.1 128.46 706.1 140.24L706.1 172.93C706.1 184.31 727.53 187.53 732.75 174.4L753.65 184.04ZM760.08 140.38C760.08 118.55 779.63 107.83 799.32 107.83C819.01 107.83 838.7 118.68 838.7 140.38L838.7 172.79C838.7 194.49 819.15 205.34 799.46 205.34C779.77 205.34 760.08 194.49 760.08 172.79L760.08 140.38ZM784.05 172.79C784.05 179.76 791.82 183.11 799.46 183.11C807.09 183.11 814.73 179.62 814.73 172.79L814.73 140.38C814.73 133.01 806.82 129.66 799.05 129.66C791.55 129.66 784.05 133.41 784.05 140.38L784.05 172.79ZM879.95 173.86L875.67 173.86L875.67 204L851.43 204L851.43 109.17L889.33 109.17C908.89 109.17 924.02 118.14 924.56 140.38C924.56 157.92 917.46 167.84 905.94 171.45L931.79 204L901.92 204L879.95 173.86ZM889.73 153.24C904.87 153.24 904.87 131.54 889.73 131.54L875.67 131.54L875.67 153.24L889.73 153.24ZM937.97 107.26L957.66 107.26C971.85 107.26 977.73 107.39 978.78 107.59C979.63 107.59 981.07 107.85 981.99 107.98C982.97 108.11 984.27 108.38 985.06 108.64C985.91 108.9 987.35 109.16 988.33 109.42C989.25 109.68 990.55 110.21 991.4 110.53C992.19 110.8 993.56 111.45 994.35 111.84C995.26 112.23 996.5 112.89 997.03 113.22C997.55 113.61 998.86 114.39 999.84 115.05C1000.76 115.7 1002.13 116.94 1002.78 117.73C1003.57 118.51 1004.61 119.76 1005.2 120.41C1005.6 121.06 1006.38 122.04 1006.64 122.57C1007.03 123.09 1007.62 124.14 1007.88 124.86C1008.15 125.51 1008.67 126.69 1008.93 127.41C1009.19 128.06 1009.59 129.24 1009.85 129.96C1010.11 130.74 1010.44 132.05 1010.57 132.9C1010.7 133.69 1010.96 134.99 1011.09 135.71C1011.22 136.76 1011.22 141.47 1011.22 156.32C1011.22 171.75 1011.22 175.74 1011.09 176.79C1010.96 177.51 1010.83 178.81 1010.57 179.6C1010.44 180.45 1010.11 181.63 1009.85 182.28C1009.59 183 1009.32 184.05 1009.06 184.44C1008.8 184.83 1008.67 185.81 1008.41 186.2C1008.15 186.6 1007.75 187.51 1007.3 188.17C1006.9 188.89 1006.25 189.8 1005.99 190.19C1005.73 190.59 1005.2 191.31 1004.81 191.83C1004.35 192.35 1003.44 193.4 1002.91 193.92C1002.39 194.64 1001.28 195.56 1000.63 196.08C999.97 196.6 998.73 197.45 998.07 197.85C997.42 198.24 995.92 199.15 994.74 199.74C993.69 200.27 992.06 200.92 991.4 201.18C990.55 201.44 989.11 201.97 988.2 202.23C987.22 202.55 985.52 202.95 984.41 203.21C983.36 203.47 981.72 203.6 980.81 203.73C979.89 203.86 978.13 204.12 977.08 204.12C975.84 204.12 966.62 204.26 937.97 204.26L937.97 181.23L956.81 181.23C972.89 181.23 975.97 181.23 977.34 180.97C978.13 180.97 979.3 180.71 979.89 180.45C980.42 180.19 981.33 180.06 981.72 179.73C982.12 179.47 982.97 179.08 983.23 178.81C983.62 178.55 984.01 178.03 984.41 177.64C984.67 177.18 985.39 176.52 985.65 176C985.91 175.48 986.3 174.56 986.69 173.06L986.69 138.79C986.69 138.26 986.43 137.28 986.17 136.76C985.91 136.24 985.65 135.45 985.39 134.99C985.06 134.6 984.54 133.95 984.14 133.56C983.75 133.16 982.97 132.44 982.57 132.18C982.12 131.92 981.33 131.53 980.81 131.27C980.29 131 979.17 130.74 978.65 130.74C978.13 130.61 976.95 130.35 975.97 130.35C975.05 130.35 971.46 130.22 961.78 130.22L961.78 169.72C961.78 169.72 960.6 168.74 959.23 167.56C957.92 166.39 954.12 162.99 951.05 160.17C947.98 157.23 943.86 153.5 937.97 148.14L937.97 107.26Z" />
	<path id="Path 0" class="shp1" d="M1032.13 59.67L1064.42 59.65L1067.41 62.67L1057.87 72.22L1038.21 72.24L1028.92 62.97L1030.52 61.32L1032.13 59.67ZM1070.69 66.23C1070.85 66.24 1071.65 66.91 1074 69.23L1073.96 100.9L1070.43 104.47L1060.86 94.89L1060.62 75.8L1065.51 71.01C1068.2 68.38 1070.53 66.23 1070.69 66.23ZM1038.72 97.9L1057.87 97.89L1064.42 104.45L1057.87 111.02L1038.75 111.02L1032.2 104.45L1035.46 101.17L1038.72 97.9ZM1025.62 104.43L1035.21 114.01L1035.21 133.67L1025.94 142.95L1022.62 139.68L1022.42 107.51L1024.02 105.97L1025.62 104.43ZM1038.18 136.67L1057.87 136.68L1067.41 146.23L1064.42 149.26L1032.2 149.26L1028.92 145.93L1033.55 141.3L1038.18 136.67Z" />
	<path id="Official BetterDiscord Server " fill-rule="evenodd" class="shp2" d="M246.83 68.74C235.74 68.74 228.56 60.59 228.56 48.55C228.56 36.45 235.8 28.25 246.94 28.25C258.13 28.25 265.2 36.39 265.2 48.44C265.2 60.48 258.02 68.74 246.83 68.74ZM246.88 34.47C240.21 34.47 236.19 39.95 236.19 48.49C236.19 57.03 240.21 62.52 246.88 62.52C253.61 62.52 257.63 57.03 257.63 48.49C257.63 39.95 253.55 34.47 246.88 34.47ZM283.13 33.23C280.81 33.23 279.56 34.24 279.56 36.67L279.56 40.69L284.77 40.69L285.61 46.23L279.56 46.23L279.56 68L272.84 68L272.84 46.23L268.88 46.23L268.88 40.69L272.84 40.69L272.84 36C272.84 29.95 276.68 27.68 282.28 27.68C283.47 27.68 284.37 27.8 285.05 27.91L285.95 33.45C285.28 33.34 284.26 33.23 283.13 33.23ZM301.9 33.23C299.58 33.23 298.34 34.24 298.34 36.67L298.34 40.69L303.54 40.69L304.39 46.23L298.34 46.23L298.34 68L291.61 68L291.61 46.23L287.65 46.23L287.65 40.69L291.61 40.69L291.61 36C291.61 29.95 295.45 27.68 301.05 27.68C302.24 27.68 303.14 27.8 303.82 27.91L304.73 33.45C304.05 33.34 303.03 33.23 301.9 33.23ZM312.19 36.11C309.93 36.11 308.12 34.53 308.12 32.26C308.12 29.95 309.93 28.31 312.19 28.31C314.4 28.31 316.21 29.95 316.21 32.26C316.21 34.53 314.4 36.11 312.19 36.11ZM308.74 68L308.74 40.69L315.53 40.69L315.53 68L308.74 68ZM334.24 68.51C326.67 68.51 321.29 63.42 321.29 54.49C321.29 44.99 327.23 40.12 334.47 40.12C338.14 40.12 340.86 41.08 343.01 42.44L342.05 48.55C339.73 46.8 337.52 46 334.86 46C330.96 46 328.14 48.89 328.14 54.32C328.14 59.97 331.19 62.68 335.32 62.68C337.69 62.68 339.84 62.06 342.39 60.08L343.29 65.85C340.52 67.77 337.69 68.51 334.24 68.51ZM352.45 36.11C350.19 36.11 348.38 34.53 348.38 32.26C348.38 29.95 350.19 28.31 352.45 28.31C354.66 28.31 356.46 29.95 356.46 32.26C356.46 34.53 354.66 36.11 352.45 36.11ZM349 68L349 40.69L355.79 40.69L355.79 68L349 68ZM378.86 68L378.29 64.44C376.09 66.76 373.26 68.57 369.19 68.57C364.55 68.57 361.44 65.74 361.44 60.99C361.44 54.37 366.87 51.49 377.9 50.41L377.9 49.62C377.9 46.68 376.2 45.55 373.2 45.55C370.04 45.55 367.04 46.46 364.1 47.76L363.25 42.33C366.42 41.08 369.75 40.12 374.11 40.12C381.17 40.12 384.68 42.72 384.68 49.28L384.68 68L378.86 68ZM377.9 54.37C370.04 55.33 368.17 57.65 368.17 60.25C368.17 62.23 369.41 63.42 371.51 63.42C373.82 63.42 376.03 62.35 377.9 60.48L377.9 54.37ZM391.69 68L391.69 28.25L398.48 27.17L398.48 68L391.69 68ZM429.63 68L418.44 68L418.44 28.98L429.8 28.98C438.57 28.98 442.75 32.94 442.75 39.11C442.75 43.18 440.49 45.83 437.1 47.25C441.45 48.61 444.33 51.43 444.33 56.63C444.33 64.32 438.79 68 429.63 68ZM429.41 34.7L425.62 34.7L425.62 45.04L429.07 45.04C433.48 45.04 435.8 43.06 435.8 39.73C435.8 36.62 433.93 34.7 429.41 34.7ZM429.52 50.36L425.62 50.36L425.62 62.29L429.63 62.29C434.38 62.29 437.15 60.31 437.15 56.41C437.15 52.45 434.5 50.36 429.52 50.36ZM472.61 55.67L455.08 55.67C455.42 60.99 458.24 63.31 462.43 63.31C465.93 63.31 468.82 62.01 471.82 59.91L472.61 65.23C469.67 67.26 466.1 68.57 461.69 68.57C454.06 68.57 448.35 64.21 448.35 54.37C448.35 45.5 453.66 40.12 460.79 40.12C468.99 40.12 472.66 46.29 472.66 54.03C472.66 54.6 472.61 55.28 472.61 55.67ZM460.62 44.82C457.91 44.82 455.7 46.97 455.19 51.43L466.05 51.43C465.6 47.19 463.9 44.82 460.62 44.82ZM488.55 68.45C483.18 68.45 479.56 66.47 479.56 60.25L479.56 46.23L475.72 46.23L475.72 40.69L479.56 40.69L479.56 32.04L486.23 31.02L486.23 40.69L491.83 40.69L492.68 46.23L486.23 46.23L486.23 59.12C486.23 61.33 487.25 62.52 489.85 62.52C490.64 62.52 491.38 62.46 492 62.29L492.85 68C491.78 68.23 490.53 68.45 488.55 68.45ZM508.34 68.45C502.97 68.45 499.35 66.47 499.35 60.25L499.35 46.23L495.51 46.23L495.51 40.69L499.35 40.69L499.35 32.04L506.02 31.02L506.02 40.69L511.62 40.69L512.47 46.23L506.02 46.23L506.02 59.12C506.02 61.33 507.04 62.52 509.64 62.52C510.44 62.52 511.17 62.46 511.79 62.29L512.64 68C511.57 68.23 510.32 68.45 508.34 68.45ZM540.35 55.67L522.82 55.67C523.16 60.99 525.99 63.31 530.17 63.31C533.68 63.31 536.56 62.01 539.56 59.91L540.35 65.23C537.41 67.26 533.84 68.57 529.43 68.57C521.8 68.57 516.09 64.21 516.09 54.37C516.09 45.5 521.4 40.12 528.53 40.12C536.73 40.12 540.4 46.29 540.4 54.03C540.4 54.6 540.35 55.28 540.35 55.67ZM528.36 44.82C525.65 44.82 523.44 46.97 522.93 51.43L533.79 51.43C533.34 47.19 531.64 44.82 528.36 44.82ZM552.67 52.34L552.67 68L545.89 68L545.89 40.69L551.66 40.69L552.5 46.17C554.31 43.01 557.03 40.35 561.27 40.12L562.34 46.85C558.1 47.14 554.6 49.4 552.67 52.34ZM579.7 68L567.32 68L567.32 28.98L579.7 28.98C593.27 28.98 600.28 36.96 600.28 48.44C600.28 60.03 592.99 68 579.7 68ZM579.65 35.15L574.78 35.15L574.78 61.84L579.53 61.84C587.73 61.84 592.65 57.65 592.65 48.49C592.65 39.5 587.45 35.15 579.65 35.15ZM610.18 36.11C607.92 36.11 606.11 34.53 606.11 32.26C606.11 29.95 607.92 28.31 610.18 28.31C612.38 28.31 614.19 29.95 614.19 32.26C614.19 34.53 612.38 36.11 610.18 36.11ZM606.73 68L606.73 40.69L613.52 40.69L613.52 68L606.73 68ZM629.91 68.51C625.96 68.51 621.88 67.26 619.28 65.85L620.19 60.2C623.13 62.12 626.75 63.42 630.14 63.42C633.08 63.42 634.66 62.35 634.66 60.59C634.66 58.67 633.48 57.88 629.12 56.8C622.51 55.11 619.74 53.19 619.74 48.21C619.74 43.52 623.47 40.18 629.8 40.18C633.36 40.18 636.64 40.86 639.36 42.1L638.45 47.76C635.74 46.23 632.51 45.27 629.8 45.27C627.26 45.27 626.01 46.23 626.01 47.76C626.01 49.23 627.03 50.02 631.1 51.09C638.17 52.9 640.94 54.83 640.94 59.97C640.94 65.34 637.09 68.51 629.91 68.51ZM657.85 68.51C650.27 68.51 644.9 63.42 644.9 54.49C644.9 44.99 650.84 40.12 658.07 40.12C661.75 40.12 664.46 41.08 666.61 42.44L665.65 48.55C663.33 46.8 661.13 46 658.47 46C654.57 46 651.74 48.89 651.74 54.32C651.74 59.97 654.79 62.68 658.92 62.68C661.3 62.68 663.44 62.06 665.99 60.08L666.89 65.85C664.12 67.77 661.3 68.51 657.85 68.51ZM683.18 68.57C675.77 68.57 670.4 63.25 670.4 54.37C670.4 45.5 675.83 40.12 683.24 40.12C690.7 40.12 696.13 45.5 696.13 54.37C696.13 63.25 690.64 68.57 683.18 68.57ZM683.18 45.72C679.16 45.72 677.02 49.28 677.02 54.37C677.02 59.35 679.22 63.02 683.18 63.02C687.36 63.02 689.51 59.46 689.51 54.37C689.51 49.34 687.25 45.72 683.18 45.72ZM708.4 52.34L708.4 68L701.61 68L701.61 40.69L707.38 40.69L708.23 46.17C710.04 43.01 712.75 40.35 716.99 40.12L718.07 46.85C713.83 47.14 710.32 49.4 708.4 52.34ZM739.5 68L738.93 64.21C737.01 66.53 734.35 68.57 730.56 68.57C724.85 68.57 720.27 64.32 720.27 55.11C720.27 44.93 725.87 40.41 732.2 40.41C734.8 40.41 736.9 40.86 738.54 41.42L738.54 28.25L745.32 27.17L745.32 68L739.5 68ZM738.54 47.02C736.84 46.23 735.54 45.83 733.22 45.83C729.66 45.83 727.06 48.72 727.06 54.71C727.06 60.03 729.32 62.52 732.32 62.52C734.8 62.52 736.73 61.05 738.54 58.78L738.54 47.02ZM775.63 68.45C770.88 68.45 766.81 67.38 763.36 65.74L764.49 58.9C767.77 60.82 771.84 62.35 775.74 62.35C779.19 62.35 781.57 60.71 781.57 57.6C781.57 54.71 780.21 53.52 774.55 51.09C766.98 47.98 763.92 45.5 763.92 39.45C763.92 32.55 769.24 28.53 776.53 28.53C780.94 28.53 784 29.44 786.82 30.91L785.69 37.69C782.87 35.83 779.53 34.64 776.48 34.64C772.74 34.64 771.11 36.45 771.11 38.82C771.11 41.31 772.35 42.5 777.78 44.76C785.81 48.04 788.75 50.81 788.75 56.86C788.75 64.49 783.15 68.45 775.63 68.45ZM817.3 55.67L799.77 55.67C800.11 60.99 802.94 63.31 807.12 63.31C810.63 63.31 813.51 62.01 816.51 59.91L817.3 65.23C814.36 67.26 810.8 68.57 806.39 68.57C798.76 68.57 793.04 64.21 793.04 54.37C793.04 45.5 798.36 40.12 805.48 40.12C813.68 40.12 817.36 46.29 817.36 54.03C817.36 54.6 817.3 55.28 817.3 55.67ZM805.31 44.82C802.6 44.82 800.4 46.97 799.89 51.43L810.74 51.43C810.29 47.19 808.59 44.82 805.31 44.82ZM829.63 52.34L829.63 68L822.84 68L822.84 40.69L828.61 40.69L829.46 46.17C831.27 43.01 833.98 40.35 838.22 40.12L839.3 46.85C835.06 47.14 831.55 49.4 829.63 52.34ZM857.28 68.11L850.66 68.11L841.11 41.2L848.23 40.29L854.34 59.69L860.22 40.69L866.95 40.69L857.28 68.11ZM893.24 55.67L875.71 55.67C876.05 60.99 878.88 63.31 883.06 63.31C886.57 63.31 889.45 62.01 892.45 59.91L893.24 65.23C890.3 67.26 886.74 68.57 882.33 68.57C874.69 68.57 868.98 64.21 868.98 54.37C868.98 45.5 874.3 40.12 881.42 40.12C889.62 40.12 893.3 46.29 893.3 54.03C893.3 54.6 893.24 55.28 893.24 55.67ZM881.25 44.82C878.54 44.82 876.33 46.97 875.83 51.43L886.68 51.43C886.23 47.19 884.53 44.82 881.25 44.82ZM905.57 52.34L905.57 68L898.78 68L898.78 40.69L904.55 40.69L905.4 46.17C907.21 43.01 909.92 40.35 914.16 40.12L915.24 46.85C911 47.14 907.49 49.4 905.57 52.34Z" />
	<g id="Folder 1">
		<path id="Path 1" class="shp1" d="M192.24 21.01L191.84 21.04C191.62 21.05 191.44 21.11 191.44 21.16C191.44 21.21 191.58 21.32 191.75 21.4C191.91 21.48 192.16 21.62 192.29 21.73C192.41 21.83 192.22 21.76 191.86 21.58C191.5 21.39 191.19 21.22 191.16 21.19C191.14 21.17 191.18 21.11 191.26 21.06C191.33 21.02 191.59 20.98 192.24 21.01ZM169.86 21.1C180.07 21.13 181.73 21.15 182.62 21.29C183.19 21.37 183.98 21.5 184.39 21.58C184.81 21.66 185.27 21.75 185.42 21.78C185.58 21.81 186.14 21.98 186.68 22.15C187.22 22.32 187.91 22.55 188.22 22.66C188.53 22.77 189.2 23.06 189.72 23.32C190.23 23.57 190.83 23.89 191.04 24.03C191.26 24.18 191.68 24.46 191.98 24.66C192.27 24.86 192.94 25.45 193.46 25.96C193.98 26.48 194.59 27.18 194.82 27.51C195.04 27.85 195.28 28.21 195.34 28.31C195.4 28.41 195.65 28.87 195.88 29.33C196.12 29.79 196.43 30.57 196.58 31.06C196.73 31.55 196.91 32.22 196.99 32.55C197.07 32.89 197.18 33.69 197.24 34.33C197.31 35.05 197.33 36.03 197.29 36.9C197.26 37.67 197.17 38.67 197.09 39.14C197.01 39.6 196.88 40.25 196.81 40.58C196.73 40.92 196.54 41.55 196.39 41.99C196.24 42.42 195.95 43.13 195.74 43.55C195.54 43.97 195.37 44.34 195.37 44.37C195.37 44.39 195.11 44.78 194.79 45.23C194.48 45.68 194.12 46.14 194 46.26C193.88 46.37 193.78 46.5 193.78 46.54C193.78 46.58 194.01 46.88 194.29 47.21C194.57 47.55 194.8 47.85 194.8 47.89C194.8 47.93 194.93 48.14 195.07 48.36C195.22 48.58 195.51 49.09 195.72 49.5C195.92 49.91 196.24 50.69 196.42 51.23C196.6 51.77 196.83 52.65 196.94 53.19C197.05 53.73 197.18 54.63 197.23 55.2C197.28 55.76 197.33 56.65 197.33 57.16C197.32 57.67 197.28 58.49 197.23 58.98C197.18 59.47 197.07 60.16 196.99 60.52C196.91 60.88 196.81 61.32 196.78 61.5C196.74 61.68 196.64 61.98 196.55 62.16C196.46 62.33 196.39 62.54 196.39 62.62C196.39 62.7 196.21 63.14 195.99 63.6C195.77 64.06 195.32 64.84 195 65.33C194.67 65.82 194.28 66.36 194.12 66.54C193.96 66.71 193.64 67.04 193.4 67.28C193.17 67.51 192.77 67.87 192.52 68.08C192.26 68.29 191.76 68.65 191.4 68.88C191.04 69.12 190.58 69.38 190.37 69.48C190.17 69.57 189.93 69.7 189.86 69.76C189.78 69.82 189.46 69.98 189.16 70.11C188.85 70.25 188.24 70.49 187.8 70.66C187.37 70.82 186.44 71.09 185.75 71.26C185.05 71.43 184.17 71.62 183.79 71.68C183.4 71.74 182.65 71.83 182.11 71.89C181.51 71.95 177.14 72.01 170.95 72.04C165.35 72.07 160.16 72.08 158.06 72.01L158.02 66.92C157.98 63.59 158 61.79 158.06 61.71C158.14 61.61 160.37 61.59 169.13 61.57C179.99 61.54 180.1 61.54 180.71 61.35C181.04 61.24 181.56 61.03 181.87 60.88C182.18 60.73 182.45 60.59 182.48 60.56C182.51 60.53 182.65 60.42 182.81 60.32C182.96 60.21 183.3 59.86 183.56 59.53C183.82 59.2 184.17 58.6 184.34 58.19C184.61 57.53 184.65 57.34 184.65 56.6C184.65 55.93 184.6 55.61 184.39 55.01C184.25 54.6 184.02 54.1 183.88 53.89C183.74 53.69 183.4 53.3 183.12 53.02C182.84 52.75 182.33 52.39 181.97 52.21C181.61 52.03 181.02 51.79 180.66 51.68C180.05 51.49 179.77 51.47 176.88 51.44C175.16 51.42 173.72 51.38 173.68 51.34C173.64 51.31 173.61 49.15 173.61 46.56C173.61 43.97 173.64 41.82 173.68 41.78C173.72 41.75 175.18 41.7 176.92 41.68C179.74 41.64 180.17 41.61 180.71 41.45C181.04 41.35 181.52 41.16 181.78 41.03C182.04 40.9 182.48 40.62 182.76 40.41C183.04 40.2 183.44 39.8 183.65 39.53C183.85 39.26 184.14 38.76 184.29 38.43C184.52 37.93 184.57 37.67 184.61 36.9C184.64 36.3 184.61 35.78 184.53 35.45C184.46 35.17 184.3 34.75 184.18 34.52C184.05 34.28 183.81 33.91 183.64 33.67C183.48 33.44 183.05 33.04 182.7 32.78C182.3 32.47 181.72 32.16 180.19 31.57L175.78 31.55C172.98 31.54 171.3 31.56 171.18 31.62C171 31.71 170.99 31.81 170.99 42.62C170.99 49.33 170.96 53.55 170.9 53.61C170.85 53.67 170.64 53.55 170.32 53.27C170.05 53.04 169.68 52.71 169.5 52.54C169.32 52.37 168.82 51.92 168.38 51.53C167.94 51.14 167.12 50.4 166.56 49.88C165.99 49.35 165.3 48.72 165.01 48.47C164.73 48.21 164.23 47.78 163.9 47.49C163.58 47.21 163.24 46.92 163.15 46.84C163.07 46.76 162.75 46.47 162.44 46.19C162.13 45.9 161.4 45.23 160.81 44.68C160.22 44.14 159.41 43.4 158.99 43.04C158.58 42.68 158.2 42.33 158.13 42.26C158.04 42.15 158.01 39.88 158 31.69C157.99 25.94 158.02 21.2 158.06 21.15C158.1 21.09 162.14 21.07 169.86 21.1Z" />
		<path id="Path 2" class="shp3" d="M193.62 21.1C194.81 21.13 196.14 21.2 196.58 21.25C197.02 21.3 197.65 21.38 197.98 21.43C198.31 21.49 198.78 21.57 199.01 21.62C199.24 21.66 199.66 21.77 199.94 21.85C200.22 21.93 200.96 22.16 201.58 22.36C202.19 22.56 202.82 22.79 202.98 22.87C203.13 22.95 203.61 23.19 204.05 23.41C204.49 23.63 205.18 24.02 205.59 24.27C206 24.53 206.59 24.93 206.9 25.16C207.21 25.4 207.81 25.93 208.24 26.34C208.67 26.75 209.26 27.39 209.55 27.75C209.85 28.1 210.24 28.63 210.42 28.91C210.6 29.2 210.94 29.78 211.17 30.22C211.4 30.66 211.76 31.51 211.98 32.11C212.19 32.71 212.34 33.21 212.31 33.21C212.29 33.21 212.32 33.37 212.39 33.56C212.46 33.75 212.59 34.31 212.67 34.8C212.75 35.28 212.87 36.17 212.93 36.76C213 37.49 213.02 40.81 212.99 47.31C212.97 52.52 212.92 56.97 212.89 57.21C212.85 57.44 212.78 57.94 212.72 58.33C212.67 58.71 212.54 59.32 212.44 59.68C212.34 60.04 212.19 60.54 212.12 60.8C212.04 61.06 211.89 61.48 211.78 61.73C211.68 61.99 211.49 62.41 211.37 62.67C211.25 62.93 211.07 63.26 210.98 63.42C210.89 63.57 210.65 63.97 210.46 64.3C210.26 64.64 210.02 64.99 209.93 65.1C209.83 65.2 209.56 65.52 209.31 65.8C209.06 66.09 208.57 66.6 208.21 66.94C207.85 67.29 207.2 67.83 206.76 68.16C206.32 68.48 205.5 69 204.94 69.3C204.37 69.61 203.59 69.99 203.21 70.15C202.82 70.31 202.28 70.53 202 70.63C201.71 70.74 201.15 70.93 200.74 71.06C200.32 71.19 199.89 71.3 199.78 71.3C199.66 71.31 199.55 71.34 199.53 71.38C199.51 71.41 199.29 71.48 199.04 71.52C198.79 71.56 198.4 71.62 198.17 71.64C197.94 71.66 197.68 71.71 197.61 71.74C197.53 71.77 197.09 71.84 196.63 71.89C196.16 71.93 194.88 71.99 193.78 72.02C192.52 72.06 191.7 72.04 191.58 71.98C191.41 71.89 191.41 71.88 191.64 71.76C191.78 71.69 192.05 71.54 192.25 71.43C192.45 71.32 192.93 71.01 193.31 70.73C193.7 70.46 194.18 70.08 194.39 69.91C194.59 69.73 195.03 69.31 195.37 68.97C195.71 68.64 196.19 68.11 196.44 67.79C196.7 67.48 196.98 67.1 197.07 66.95C197.16 66.81 197.44 66.35 197.7 65.94C197.96 65.53 198.21 65.04 198.27 64.86C198.33 64.68 198.43 64.47 198.49 64.4C198.55 64.32 198.71 63.92 198.84 63.51C198.97 63.1 199.15 62.53 199.24 62.25C199.33 61.97 199.44 61.5 199.49 61.22C199.54 60.94 199.64 60.31 199.72 59.82C199.85 59.05 199.88 57.37 199.91 47.21C199.94 39.08 199.92 35.18 199.85 34.47C199.79 33.9 199.71 33.21 199.66 32.93C199.62 32.64 199.54 32.22 199.48 31.99C199.43 31.76 199.35 31.36 199.29 31.11C199.24 30.85 199.14 30.47 199.09 30.27C199.03 30.06 198.88 29.68 198.76 29.43C198.63 29.17 198.46 28.77 198.38 28.54C198.3 28.31 198.09 27.87 197.91 27.56C197.74 27.25 197.52 26.89 197.44 26.75C197.35 26.62 197.21 26.41 197.12 26.29C197.02 26.16 196.76 25.81 196.54 25.5C196.31 25.2 195.84 24.65 195.49 24.29C195.14 23.93 194.68 23.48 194.48 23.3C194.27 23.12 193.58 22.61 192.94 22.17C192.3 21.74 191.7 21.35 191.61 21.32C191.52 21.28 191.45 21.21 191.45 21.15C191.46 21.08 192.11 21.07 193.62 21.1Z" />
	</g>
</svg>