<svg version="1.2" baseProfile="tiny-ps" xmlns="http://www.w3.org/2000/svg" viewBox="0 0 1074 227" width="161" height="34">
	<title>betterdiscord_server-wordmark</title>
	<style>
		tspan { white-space:pre }
		.shp0 { fill: #ffffff } 
		.shp1 { fill: #8e9297 } 
		.shp2 { fill: #3e83e6 } 
		.shp3 { fill: #fffeff } 
	</style>
	<path id="BetterDiscord " fill-rule="evenodd" class="shp0" d="M35.22 98.2C44.94 98.2 45.78 98.33 47.93 98.61C49.18 98.89 51.05 99.17 52.03 99.45C52.86 99.72 54.46 100.35 55.43 100.76C56.4 101.04 58 101.74 58.83 102.15C59.73 102.57 61.12 103.47 61.82 103.89C62.37 104.31 63.69 105.28 64.39 106.04C65.08 106.74 66.4 107.71 66.82 108.26C67.23 108.89 68.21 110 68.83 110.83C69.39 111.67 70.22 113.26 70.77 114.37C71.33 115.56 72.09 117.08 72.37 117.85C72.65 118.54 72.79 119.79 73.07 120.83C73.34 121.67 73.62 123.47 73.62 124.65C73.76 125.76 73.76 127.92 73.76 129.03C73.76 130.62 73.48 131.73 73.21 133.05C72.93 133.89 72.37 135.41 71.96 136.32C71.54 137.15 70.64 138.47 70.22 139.16C69.8 139.86 68.97 140.97 68.34 141.73C67.79 142.43 66.68 143.4 65.84 143.96C65.08 144.58 64.25 145.28 63.97 145.28C63.55 145.41 63.55 145.41 64.94 146.25C65.84 146.66 67.09 147.57 67.79 147.98C68.34 148.4 69.66 149.51 70.64 150.55C71.54 151.52 72.93 153.05 73.62 154.09C74.39 155.07 75.08 156.39 75.36 156.94C75.64 157.5 76.19 158.89 76.47 159.79C76.75 160.76 77.16 162.36 77.51 163.33C77.79 164.44 78.07 166.18 78.07 167.29C78.07 168.47 78.07 170.41 77.93 171.59C77.79 172.7 77.51 174.58 77.16 175.55C76.89 176.52 76.47 178.12 76.19 179.23C75.91 180.41 74.94 182.22 74.39 183.54C73.76 184.65 72.79 186.52 72.09 187.36C71.54 188.19 70.08 189.65 69.25 190.48C68.34 191.31 66.82 192.49 65.84 193.19C64.8 193.88 63.28 194.92 62.23 195.34C61.4 195.76 59.39 196.45 58.28 196.87C57.16 197.29 55.29 197.77 54.32 198.05C53.28 198.33 51.47 198.61 50.43 198.74C48.76 199.02 45.64 199.02 0.22 199.16L0.22 176.8L13.21 176.8C20.29 176.8 25.99 176.8 25.99 176.66C25.99 176.66 29.81 176.52 34.39 176.52C42.24 176.52 42.93 176.66 44.32 176.25C45.22 175.97 46.33 175.55 46.89 175.27C47.44 175 48.48 174.3 49.18 173.68C49.87 172.98 50.78 172.01 51.05 171.45C51.33 170.83 51.75 169.72 52.03 169.16C52.17 168.61 52.3 167.15 52.3 166.45C52.3 165.76 52.17 164.44 52.03 163.89C51.89 163.33 51.47 162.36 51.19 161.73C50.92 161.18 50.15 160.34 49.73 159.93C49.32 159.51 48.48 158.47 47.79 158.05C47.17 157.64 45.92 157.08 45.08 156.8C43.49 156.39 43.49 156.39 29.81 156.25L29.81 137.57L35.78 137.57C40.36 137.57 42.24 137.57 43.21 137.29C43.9 137.15 45.08 136.87 45.5 136.6C46.05 136.32 46.89 135.76 47.44 135.14C48.07 134.72 48.9 133.75 49.18 133.19C49.46 132.64 49.87 131.46 50.01 130.76C50.15 130.07 50.29 129.03 50.29 128.61C50.29 128.19 50.15 127.36 50.01 126.8C50.01 126.18 49.73 125.35 49.46 124.79C49.18 124.37 48.62 123.33 48.07 122.78C47.58 122.22 46.61 121.39 46.05 121.11C45.5 120.83 44.32 120.35 43.62 120.21C42.79 119.93 41.19 119.79 25.85 119.79L25.85 140.83C25.85 157.5 25.71 161.87 25.57 161.87C25.43 161.87 23.42 160.34 21.2 158.19C18.76 156.04 15.64 153.05 13.77 151.52C12.03 149.93 8.35 146.53 0.22 139.3L0.22 98.2L35.22 98.2ZM114.86 137.85L155.68 137.85L155.68 159.89L114.86 159.89L114.86 174.97L159.23 174.97L159.23 199L89.12 199L89.12 98.32L159.23 98.32L159.23 122.21L114.86 122.21L114.86 137.85ZM219.24 122.35L219.24 199L193.5 199L193.5 122.35L166.77 122.35L166.77 98.17L245.98 98.17L245.98 122.35L219.24 122.35ZM302.44 122.35L302.44 199L276.7 199L276.7 122.35L249.96 122.35L249.96 98.17L329.17 98.17L329.17 122.35L302.44 122.35ZM364.87 137.85L405.68 137.85L405.68 159.89L364.87 159.89L364.87 174.97L409.24 174.97L409.24 199L339.13 199L339.13 98.32L409.24 98.32L409.24 122.21L364.87 122.21L364.87 137.85ZM453.04 167L448.49 167L448.49 199L422.75 199L422.75 98.32L462.99 98.32C483.75 98.32 499.82 107.84 500.39 131.45C500.39 150.08 492.86 160.6 480.63 164.44L508.07 199L476.36 199L453.04 167ZM463.42 145.1C479.49 145.1 479.49 122.06 463.42 122.06L448.49 122.06L448.49 145.1L463.42 145.1ZM514.63 96.29L535.53 96.29C550.6 96.29 556.85 96.43 557.96 96.64C558.87 96.64 560.39 96.92 561.37 97.06C562.41 97.19 563.8 97.47 564.63 97.75C565.53 98.03 567.06 98.31 568.1 98.58C569.07 98.86 570.46 99.42 571.37 99.76C572.2 100.04 573.66 100.74 574.49 101.15C575.46 101.57 576.78 102.26 577.34 102.61C577.89 103.03 579.28 103.86 580.32 104.56C581.3 105.25 582.75 106.57 583.45 107.4C584.28 108.24 585.39 109.55 586.02 110.25C586.43 110.94 587.27 111.99 587.55 112.54C587.96 113.1 588.59 114.21 588.86 114.97C589.14 115.67 589.7 116.92 589.98 117.68C590.25 118.37 590.67 119.62 590.95 120.39C591.23 121.22 591.57 122.61 591.71 123.51C591.85 124.35 592.13 125.73 592.27 126.5C592.41 127.61 592.41 132.61 592.41 148.37C592.41 164.76 592.41 169 592.27 170.11C592.13 170.87 591.99 172.26 591.71 173.09C591.57 173.99 591.23 175.24 590.95 175.94C590.67 176.7 590.39 177.81 590.11 178.23C589.84 178.65 589.7 179.69 589.42 180.11C589.14 180.52 588.73 181.49 588.24 182.19C587.82 182.95 587.13 183.92 586.85 184.34C586.57 184.76 586.02 185.52 585.6 186.08C585.11 186.63 584.14 187.74 583.59 188.3C583.03 189.06 581.85 190.04 581.16 190.59C580.46 191.15 579.14 192.05 578.45 192.47C577.75 192.88 576.16 193.85 574.91 194.48C573.8 195.04 572.06 195.73 571.37 196.01C570.46 196.28 568.94 196.84 567.96 197.12C566.92 197.47 565.12 197.88 563.94 198.16C562.82 198.44 561.09 198.58 560.12 198.72C559.14 198.85 557.27 199.13 556.16 199.13C554.84 199.13 545.05 199.27 514.63 199.27L514.63 174.83L534.63 174.83C551.71 174.83 554.98 174.83 556.44 174.55C557.27 174.55 558.52 174.27 559.14 173.99C559.7 173.72 560.67 173.58 561.09 173.23C561.51 172.95 562.41 172.54 562.69 172.26C563.1 171.98 563.52 171.43 563.94 171.01C564.21 170.52 564.98 169.83 565.26 169.27C565.53 168.72 565.95 167.75 566.37 166.15L566.37 129.76C566.37 129.21 566.09 128.16 565.81 127.61C565.53 127.05 565.26 126.22 564.98 125.73C564.63 125.32 564.07 124.62 563.66 124.21C563.24 123.79 562.41 123.03 561.99 122.75C561.51 122.47 560.67 122.05 560.12 121.78C559.56 121.5 558.38 121.22 557.83 121.22C557.27 121.08 556.02 120.8 554.98 120.8C554.01 120.8 550.19 120.67 539.91 120.67L539.91 162.61C539.91 162.61 538.66 161.57 537.2 160.32C535.81 159.07 531.79 155.45 528.52 152.47C525.26 149.34 520.88 145.39 514.63 139.69L514.63 96.29ZM630.52 199L605.06 199L605.06 98.32L630.52 98.32L630.52 199ZM657.68 167.14C667.77 179.37 689.96 179.94 690.67 169.14C690.95 163.45 681.71 160.18 673.46 159.04C657.25 156.48 642.46 146.24 642.46 127.04C642.46 107.27 660.38 96.89 678.87 96.89C691.1 96.89 702.9 100.31 713.28 112.96L696.64 125.76C686.12 114.53 668.06 114.95 667.63 126.62C667.92 131.45 673.18 134.29 681 136C698.92 139.27 716.84 145.53 715.7 170.27C714.85 189.76 694.37 200.42 675.88 200.42C663.79 200.42 650.99 194.31 641.61 182.22L657.68 167.14ZM800.17 177.81C791.78 194.16 776.57 200.42 763.91 200.42C744.14 200.42 724.23 188.9 724.23 166.01L724.23 131.31C724.23 108.55 744.14 96.89 764.34 96.89C776.71 96.89 791.64 102.15 799.75 120.07L778.98 128.46C772.16 115.95 749.69 118.79 749.69 131.31L749.69 166.01C749.69 178.1 772.44 181.51 777.99 167.57L800.17 177.81ZM807 131.45C807 108.27 827.76 96.89 848.67 96.89C869.57 96.89 890.48 108.41 890.48 131.45L890.48 165.87C890.48 188.9 869.71 200.42 848.81 200.42C827.9 200.42 807 188.9 807 165.87L807 131.45ZM832.45 165.87C832.45 173.26 840.7 176.82 848.81 176.82C856.91 176.82 865.02 173.12 865.02 165.87L865.02 131.45C865.02 123.63 856.63 120.07 848.38 120.07C840.42 120.07 832.45 124.06 832.45 131.45L832.45 165.87ZM934.28 167L929.73 167L929.73 199L903.99 199L903.99 98.32L944.23 98.32C964.99 98.32 981.06 107.84 981.63 131.45C981.63 150.08 974.1 160.6 961.87 164.44L989.31 199L957.6 199L934.28 167ZM944.66 145.1C960.73 145.1 960.73 122.06 944.66 122.06L929.73 122.06L929.73 145.1L944.66 145.1ZM995.87 96.29L1016.77 96.29C1031.84 96.29 1038.09 96.43 1039.2 96.64C1040.11 96.64 1041.63 96.92 1042.61 97.06C1043.65 97.19 1045.04 97.47 1045.87 97.75C1046.77 98.03 1048.3 98.31 1049.34 98.58C1050.31 98.86 1051.7 99.42 1052.61 99.76C1053.44 100.04 1054.9 100.74 1055.73 101.15C1056.7 101.57 1058.02 102.26 1058.58 102.61C1059.13 103.03 1060.52 103.86 1061.56 104.56C1062.53 105.25 1063.99 106.57 1064.69 107.4C1065.52 108.24 1066.63 109.55 1067.26 110.25C1067.67 110.94 1068.51 111.99 1068.78 112.54C1069.2 113.1 1069.83 114.21 1070.1 114.97C1070.38 115.67 1070.94 116.92 1071.21 117.68C1071.49 118.37 1071.91 119.62 1072.19 120.39C1072.46 121.22 1072.81 122.61 1072.95 123.51C1073.09 124.35 1073.37 125.73 1073.51 126.5C1073.65 127.61 1073.65 132.61 1073.65 148.37C1073.65 164.76 1073.65 169 1073.51 170.11C1073.37 170.87 1073.23 172.26 1072.95 173.09C1072.81 173.99 1072.46 175.24 1072.19 175.94C1071.91 176.7 1071.63 177.81 1071.35 178.23C1071.08 178.65 1070.94 179.69 1070.66 180.11C1070.38 180.52 1069.96 181.49 1069.48 182.19C1069.06 182.95 1068.37 183.92 1068.09 184.34C1067.81 184.76 1067.26 185.52 1066.84 186.08C1066.35 186.63 1065.38 187.74 1064.83 188.3C1064.27 189.06 1063.09 190.04 1062.4 190.59C1061.7 191.15 1060.38 192.05 1059.69 192.47C1058.99 192.88 1057.4 193.85 1056.15 194.48C1055.04 195.04 1053.3 195.73 1052.61 196.01C1051.7 196.28 1050.17 196.84 1049.2 197.12C1048.16 197.47 1046.36 197.88 1045.17 198.16C1044.06 198.44 1042.33 198.58 1041.36 198.72C1040.38 198.85 1038.51 199.13 1037.4 199.13C1036.08 199.13 1026.29 199.27 995.87 199.27L995.87 174.83L1015.87 174.83C1032.95 174.83 1036.22 174.83 1037.68 174.55C1038.51 174.55 1039.76 174.27 1040.38 173.99C1040.94 173.72 1041.91 173.58 1042.33 173.23C1042.74 172.95 1043.65 172.54 1043.93 172.26C1044.34 171.98 1044.76 171.43 1045.17 171.01C1045.45 170.52 1046.22 169.83 1046.49 169.27C1046.77 168.72 1047.19 167.75 1047.61 166.15L1047.61 129.76C1047.61 129.21 1047.33 128.16 1047.05 127.61C1046.77 127.05 1046.49 126.22 1046.22 125.73C1045.87 125.32 1045.31 124.62 1044.9 124.21C1044.48 123.79 1043.65 123.03 1043.23 122.75C1042.74 122.47 1041.91 122.05 1041.36 121.78C1040.8 121.5 1039.62 121.22 1039.06 121.22C1038.51 121.08 1037.26 120.8 1036.22 120.8C1035.25 120.8 1031.43 120.67 1021.15 120.67L1021.15 162.61C1021.15 162.61 1019.9 161.57 1018.44 160.32C1017.05 159.07 1013.02 155.45 1009.76 152.47C1006.5 149.34 1002.12 145.39 995.87 139.69L995.87 96.29Z" />
	<path id="Official BetterDiscord Server " fill-rule="evenodd" class="shp1" d="M247.83 72.74C236.74 72.74 229.56 64.59 229.56 52.55C229.56 40.45 236.8 32.25 247.94 32.25C259.13 32.25 266.2 40.39 266.2 52.44C266.2 64.48 259.02 72.74 247.83 72.74ZM247.88 38.47C241.21 38.47 237.19 43.95 237.19 52.49C237.19 61.03 241.21 66.52 247.88 66.52C254.61 66.52 258.63 61.03 258.63 52.49C258.63 43.95 254.55 38.47 247.88 38.47ZM284.13 37.23C281.81 37.23 280.56 38.24 280.56 40.67L280.56 44.69L285.77 44.69L286.61 50.23L280.56 50.23L280.56 72L273.84 72L273.84 50.23L269.88 50.23L269.88 44.69L273.84 44.69L273.84 40C273.84 33.95 277.68 31.68 283.28 31.68C284.47 31.68 285.37 31.8 286.05 31.91L286.95 37.45C286.28 37.34 285.26 37.23 284.13 37.23ZM302.9 37.23C300.58 37.23 299.34 38.24 299.34 40.67L299.34 44.69L304.54 44.69L305.39 50.23L299.34 50.23L299.34 72L292.61 72L292.61 50.23L288.65 50.23L288.65 44.69L292.61 44.69L292.61 40C292.61 33.95 296.45 31.68 302.05 31.68C303.24 31.68 304.14 31.8 304.82 31.91L305.73 37.45C305.05 37.34 304.03 37.23 302.9 37.23ZM313.19 40.11C310.93 40.11 309.12 38.53 309.12 36.26C309.12 33.95 310.93 32.31 313.19 32.31C315.4 32.31 317.21 33.95 317.21 36.26C317.21 38.53 315.4 40.11 313.19 40.11ZM309.74 72L309.74 44.69L316.53 44.69L316.53 72L309.74 72ZM335.24 72.51C327.67 72.51 322.29 67.42 322.29 58.49C322.29 48.99 328.23 44.12 335.47 44.12C339.14 44.12 341.86 45.08 344.01 46.44L343.05 52.55C340.73 50.8 338.52 50 335.86 50C331.96 50 329.14 52.89 329.14 58.32C329.14 63.97 332.19 66.68 336.32 66.68C338.69 66.68 340.84 66.06 343.39 64.08L344.29 69.85C341.52 71.77 338.69 72.51 335.24 72.51ZM353.45 40.11C351.19 40.11 349.38 38.53 349.38 36.26C349.38 33.95 351.19 32.31 353.45 32.31C355.66 32.31 357.46 33.95 357.46 36.26C357.46 38.53 355.66 40.11 353.45 40.11ZM350 72L350 44.69L356.79 44.69L356.79 72L350 72ZM379.86 72L379.29 68.44C377.09 70.76 374.26 72.57 370.19 72.57C365.55 72.57 362.44 69.74 362.44 64.99C362.44 58.37 367.87 55.49 378.9 54.41L378.9 53.62C378.9 50.68 377.2 49.55 374.2 49.55C371.04 49.55 368.04 50.46 365.1 51.76L364.25 46.33C367.42 45.08 370.75 44.12 375.11 44.12C382.17 44.12 385.68 46.72 385.68 53.28L385.68 72L379.86 72ZM378.9 58.37C371.04 59.33 369.17 61.65 369.17 64.25C369.17 66.23 370.41 67.42 372.51 67.42C374.82 67.42 377.03 66.35 378.9 64.48L378.9 58.37ZM392.69 72L392.69 32.25L399.48 31.17L399.48 72L392.69 72ZM430.63 72L419.44 72L419.44 32.98L430.8 32.98C439.57 32.98 443.75 36.94 443.75 43.11C443.75 47.18 441.49 49.83 438.1 51.25C442.45 52.61 445.33 55.43 445.33 60.63C445.33 68.32 439.79 72 430.63 72ZM430.41 38.7L426.62 38.7L426.62 49.04L430.07 49.04C434.48 49.04 436.8 47.06 436.8 43.73C436.8 40.62 434.93 38.7 430.41 38.7ZM430.52 54.36L426.62 54.36L426.62 66.29L430.63 66.29C435.38 66.29 438.15 64.31 438.15 60.41C438.15 56.45 435.5 54.36 430.52 54.36ZM473.61 59.67L456.08 59.67C456.42 64.99 459.24 67.31 463.43 67.31C466.93 67.31 469.82 66.01 472.82 63.91L473.61 69.23C470.67 71.26 467.1 72.57 462.69 72.57C455.06 72.57 449.35 68.21 449.35 58.37C449.35 49.5 454.66 44.12 461.79 44.12C469.99 44.12 473.66 50.29 473.66 58.03C473.66 58.6 473.61 59.28 473.61 59.67ZM461.62 48.82C458.91 48.82 456.7 50.97 456.19 55.43L467.05 55.43C466.6 51.19 464.9 48.82 461.62 48.82ZM489.55 72.45C484.18 72.45 480.56 70.47 480.56 64.25L480.56 50.23L476.72 50.23L476.72 44.69L480.56 44.69L480.56 36.04L487.23 35.02L487.23 44.69L492.83 44.69L493.68 50.23L487.23 50.23L487.23 63.12C487.23 65.33 488.25 66.52 490.85 66.52C491.64 66.52 492.38 66.46 493 66.29L493.85 72C492.78 72.23 491.53 72.45 489.55 72.45ZM509.34 72.45C503.97 72.45 500.35 70.47 500.35 64.25L500.35 50.23L496.51 50.23L496.51 44.69L500.35 44.69L500.35 36.04L507.02 35.02L507.02 44.69L512.62 44.69L513.47 50.23L507.02 50.23L507.02 63.12C507.02 65.33 508.04 66.52 510.64 66.52C511.44 66.52 512.17 66.46 512.79 66.29L513.64 72C512.57 72.23 511.32 72.45 509.34 72.45ZM541.35 59.67L523.82 59.67C524.16 64.99 526.99 67.31 531.17 67.31C534.68 67.31 537.56 66.01 540.56 63.91L541.35 69.23C538.41 71.26 534.84 72.57 530.43 72.57C522.8 72.57 517.09 68.21 517.09 58.37C517.09 49.5 522.4 44.12 529.53 44.12C537.73 44.12 541.4 50.29 541.4 58.03C541.4 58.6 541.35 59.28 541.35 59.67ZM529.36 48.82C526.65 48.82 524.44 50.97 523.93 55.43L534.79 55.43C534.34 51.19 532.64 48.82 529.36 48.82ZM553.67 56.34L553.67 72L546.89 72L546.89 44.69L552.66 44.69L553.5 50.17C555.31 47.01 558.03 44.35 562.27 44.12L563.34 50.85C559.1 51.14 555.6 53.4 553.67 56.34ZM580.7 72L568.32 72L568.32 32.98L580.7 32.98C594.27 32.98 601.28 40.96 601.28 52.44C601.28 64.03 593.99 72 580.7 72ZM580.65 39.15L575.78 39.15L575.78 65.84L580.53 65.84C588.73 65.84 593.65 61.65 593.65 52.49C593.65 43.5 588.45 39.15 580.65 39.15ZM611.18 40.11C608.92 40.11 607.11 38.53 607.11 36.26C607.11 33.95 608.92 32.31 611.18 32.31C613.38 32.31 615.19 33.95 615.19 36.26C615.19 38.53 613.38 40.11 611.18 40.11ZM607.73 72L607.73 44.69L614.52 44.69L614.52 72L607.73 72ZM630.91 72.51C626.96 72.51 622.88 71.26 620.28 69.85L621.19 64.2C624.13 66.12 627.75 67.42 631.14 67.42C634.08 67.42 635.66 66.35 635.66 64.59C635.66 62.67 634.48 61.88 630.12 60.8C623.51 59.11 620.74 57.19 620.74 52.21C620.74 47.52 624.47 44.18 630.8 44.18C634.36 44.18 637.64 44.86 640.36 46.1L639.45 51.76C636.74 50.23 633.51 49.27 630.8 49.27C628.26 49.27 627.01 50.23 627.01 51.76C627.01 53.23 628.03 54.02 632.1 55.09C639.17 56.9 641.94 58.83 641.94 63.97C641.94 69.34 638.09 72.51 630.91 72.51ZM658.85 72.51C651.27 72.51 645.9 67.42 645.9 58.49C645.9 48.99 651.84 44.12 659.07 44.12C662.75 44.12 665.46 45.08 667.61 46.44L666.65 52.55C664.33 50.8 662.13 50 659.47 50C655.57 50 652.74 52.89 652.74 58.32C652.74 63.97 655.79 66.68 659.92 66.68C662.3 66.68 664.44 66.06 666.99 64.08L667.89 69.85C665.12 71.77 662.3 72.51 658.85 72.51ZM684.18 72.57C676.77 72.57 671.4 67.25 671.4 58.37C671.4 49.5 676.83 44.12 684.24 44.12C691.7 44.12 697.13 49.5 697.13 58.37C697.13 67.25 691.64 72.57 684.18 72.57ZM684.18 49.72C680.16 49.72 678.02 53.28 678.02 58.37C678.02 63.35 680.22 67.02 684.18 67.02C688.36 67.02 690.51 63.46 690.51 58.37C690.51 53.34 688.25 49.72 684.18 49.72ZM709.4 56.34L709.4 72L702.61 72L702.61 44.69L708.38 44.69L709.23 50.17C711.04 47.01 713.75 44.35 717.99 44.12L719.07 50.85C714.83 51.14 711.32 53.4 709.4 56.34ZM740.5 72L739.93 68.21C738.01 70.53 735.35 72.57 731.56 72.57C725.85 72.57 721.27 68.32 721.27 59.11C721.27 48.93 726.87 44.41 733.2 44.41C735.8 44.41 737.9 44.86 739.54 45.42L739.54 32.25L746.32 31.17L746.32 72L740.5 72ZM739.54 51.02C737.84 50.23 736.54 49.83 734.22 49.83C730.66 49.83 728.06 52.72 728.06 58.71C728.06 64.03 730.32 66.52 733.32 66.52C735.8 66.52 737.73 65.05 739.54 62.78L739.54 51.02ZM776.63 72.45C771.88 72.45 767.81 71.38 764.36 69.74L765.49 62.9C768.77 64.82 772.84 66.35 776.74 66.35C780.19 66.35 782.57 64.71 782.57 61.6C782.57 58.71 781.21 57.52 775.55 55.09C767.98 51.98 764.92 49.5 764.92 43.45C764.92 36.55 770.24 32.53 777.53 32.53C781.94 32.53 785 33.44 787.82 34.91L786.69 41.69C783.87 39.83 780.53 38.64 777.48 38.64C773.74 38.64 772.11 40.45 772.11 42.82C772.11 45.31 773.35 46.5 778.78 48.76C786.81 52.04 789.75 54.81 789.75 60.86C789.75 68.49 784.15 72.45 776.63 72.45ZM818.3 59.67L800.77 59.67C801.11 64.99 803.94 67.31 808.12 67.31C811.63 67.31 814.51 66.01 817.51 63.91L818.3 69.23C815.36 71.26 811.8 72.57 807.39 72.57C799.76 72.57 794.04 68.21 794.04 58.37C794.04 49.5 799.36 44.12 806.48 44.12C814.68 44.12 818.36 50.29 818.36 58.03C818.36 58.6 818.3 59.28 818.3 59.67ZM806.31 48.82C803.6 48.82 801.4 50.97 800.89 55.43L811.74 55.43C811.29 51.19 809.59 48.82 806.31 48.82ZM830.63 56.34L830.63 72L823.84 72L823.84 44.69L829.61 44.69L830.46 50.17C832.27 47.01 834.98 44.35 839.22 44.12L840.3 50.85C836.06 51.14 832.55 53.4 830.63 56.34ZM858.28 72.11L851.66 72.11L842.11 45.2L849.23 44.29L855.34 63.69L861.22 44.69L867.95 44.69L858.28 72.11ZM894.24 59.67L876.71 59.67C877.05 64.99 879.88 67.31 884.06 67.31C887.57 67.31 890.45 66.01 893.45 63.91L894.24 69.23C891.3 71.26 887.74 72.57 883.33 72.57C875.69 72.57 869.98 68.21 869.98 58.37C869.98 49.5 875.3 44.12 882.42 44.12C890.62 44.12 894.3 50.29 894.3 58.03C894.3 58.6 894.24 59.28 894.24 59.67ZM882.25 48.82C879.54 48.82 877.33 50.97 876.83 55.43L887.68 55.43C887.23 51.19 885.53 48.82 882.25 48.82ZM906.57 56.34L906.57 72L899.78 72L899.78 44.69L905.55 44.69L906.4 50.17C908.21 47.01 910.92 44.35 915.16 44.12L916.24 50.85C912 51.14 908.49 53.4 906.57 56.34Z" />
	<g id="Folder 1">
		<path id="Path 1" class="shp2" d="M193.24 25.01L192.84 25.04C192.62 25.05 192.44 25.11 192.44 25.16C192.44 25.21 192.58 25.32 192.75 25.4C192.91 25.48 193.16 25.62 193.29 25.73C193.41 25.83 193.22 25.76 192.86 25.58C192.5 25.39 192.19 25.22 192.16 25.19C192.14 25.17 192.18 25.11 192.26 25.06C192.33 25.02 192.59 24.98 193.24 25.01ZM170.86 25.1C181.07 25.13 182.73 25.15 183.62 25.29C184.19 25.37 184.98 25.5 185.39 25.58C185.81 25.66 186.27 25.75 186.42 25.78C186.58 25.81 187.14 25.98 187.68 26.15C188.22 26.32 188.91 26.55 189.22 26.66C189.53 26.77 190.2 27.06 190.72 27.32C191.23 27.57 191.83 27.89 192.04 28.03C192.26 28.18 192.68 28.46 192.98 28.66C193.27 28.86 193.94 29.45 194.46 29.96C194.98 30.48 195.59 31.18 195.82 31.51C196.04 31.85 196.28 32.21 196.34 32.31C196.4 32.41 196.65 32.87 196.88 33.33C197.12 33.79 197.43 34.57 197.58 35.06C197.73 35.55 197.91 36.22 197.99 36.55C198.07 36.89 198.18 37.69 198.24 38.33C198.31 39.05 198.33 40.03 198.29 40.9C198.26 41.67 198.17 42.67 198.09 43.14C198.01 43.6 197.88 44.25 197.81 44.58C197.73 44.92 197.54 45.55 197.39 45.99C197.24 46.42 196.95 47.13 196.74 47.55C196.54 47.97 196.37 48.34 196.37 48.37C196.37 48.39 196.11 48.78 195.79 49.23C195.48 49.68 195.12 50.14 195 50.26C194.88 50.37 194.78 50.5 194.78 50.54C194.78 50.58 195.01 50.88 195.29 51.21C195.57 51.55 195.8 51.85 195.8 51.89C195.8 51.93 195.93 52.14 196.07 52.36C196.22 52.58 196.51 53.09 196.72 53.5C196.92 53.91 197.24 54.69 197.42 55.23C197.6 55.77 197.83 56.65 197.94 57.19C198.05 57.73 198.18 58.63 198.23 59.2C198.28 59.76 198.33 60.65 198.33 61.16C198.32 61.67 198.28 62.49 198.23 62.98C198.18 63.47 198.07 64.16 197.99 64.52C197.91 64.88 197.81 65.32 197.78 65.5C197.74 65.68 197.64 65.98 197.55 66.16C197.46 66.33 197.39 66.54 197.39 66.62C197.39 66.7 197.21 67.14 196.99 67.6C196.77 68.06 196.32 68.84 196 69.33C195.67 69.82 195.28 70.36 195.12 70.54C194.96 70.71 194.64 71.04 194.4 71.28C194.17 71.51 193.77 71.87 193.52 72.08C193.26 72.29 192.76 72.65 192.4 72.88C192.04 73.12 191.58 73.38 191.37 73.48C191.17 73.57 190.93 73.7 190.86 73.76C190.78 73.82 190.46 73.98 190.16 74.11C189.85 74.25 189.24 74.49 188.8 74.66C188.37 74.82 187.44 75.09 186.75 75.26C186.05 75.43 185.17 75.62 184.79 75.68C184.4 75.74 183.65 75.83 183.11 75.89C182.51 75.95 178.14 76.01 171.95 76.04C166.35 76.07 161.16 76.08 159.06 76.01L159.02 70.92C158.98 67.59 159 65.79 159.06 65.71C159.14 65.61 161.37 65.59 170.13 65.57C180.99 65.54 181.1 65.54 181.71 65.35C182.04 65.24 182.56 65.03 182.87 64.88C183.18 64.73 183.45 64.59 183.48 64.56C183.51 64.53 183.65 64.42 183.81 64.32C183.96 64.21 184.3 63.86 184.56 63.53C184.82 63.2 185.17 62.6 185.34 62.19C185.61 61.53 185.65 61.34 185.65 60.6C185.65 59.93 185.6 59.61 185.39 59.01C185.25 58.6 185.02 58.1 184.88 57.89C184.74 57.69 184.4 57.3 184.12 57.02C183.84 56.75 183.33 56.39 182.97 56.21C182.61 56.03 182.02 55.79 181.66 55.68C181.05 55.49 180.77 55.47 177.88 55.44C176.16 55.42 174.72 55.38 174.68 55.34C174.64 55.31 174.61 53.15 174.61 50.56C174.61 47.97 174.64 45.82 174.68 45.78C174.72 45.75 176.18 45.7 177.92 45.68C180.74 45.64 181.17 45.61 181.71 45.45C182.04 45.35 182.52 45.16 182.78 45.03C183.04 44.9 183.48 44.62 183.76 44.41C184.04 44.2 184.44 43.8 184.65 43.53C184.85 43.26 185.14 42.76 185.29 42.43C185.52 41.93 185.57 41.67 185.61 40.9C185.64 40.3 185.61 39.78 185.53 39.45C185.46 39.17 185.3 38.75 185.18 38.52C185.05 38.28 184.81 37.91 184.64 37.67C184.48 37.44 184.05 37.04 183.7 36.78C183.3 36.47 182.72 36.16 181.19 35.57L176.78 35.55C173.98 35.54 172.3 35.56 172.18 35.62C172 35.71 171.99 35.81 171.99 46.62C171.99 53.33 171.96 57.55 171.9 57.61C171.85 57.67 171.64 57.55 171.32 57.27C171.05 57.04 170.68 56.71 170.5 56.54C170.32 56.37 169.82 55.92 169.38 55.53C168.94 55.14 168.12 54.4 167.56 53.88C166.99 53.35 166.3 52.72 166.01 52.47C165.73 52.21 165.23 51.78 164.9 51.49C164.58 51.21 164.24 50.92 164.15 50.84C164.07 50.76 163.75 50.47 163.44 50.19C163.13 49.9 162.4 49.23 161.81 48.68C161.22 48.14 160.41 47.4 159.99 47.04C159.58 46.68 159.2 46.33 159.13 46.26C159.04 46.15 159.01 43.88 159 35.69C158.99 29.94 159.02 25.2 159.06 25.15C159.1 25.09 163.14 25.07 170.86 25.1Z" />
		<path id="Path 2" class="shp3" d="M194.62 25.1C195.81 25.13 197.14 25.2 197.58 25.25C198.02 25.3 198.65 25.38 198.98 25.43C199.31 25.49 199.78 25.57 200.01 25.62C200.24 25.66 200.66 25.77 200.94 25.85C201.22 25.93 201.96 26.16 202.58 26.36C203.19 26.56 203.82 26.79 203.98 26.87C204.13 26.95 204.61 27.19 205.05 27.41C205.49 27.63 206.18 28.02 206.59 28.27C207 28.53 207.59 28.93 207.9 29.16C208.21 29.4 208.81 29.93 209.24 30.34C209.67 30.75 210.26 31.39 210.55 31.75C210.85 32.1 211.24 32.63 211.42 32.91C211.6 33.2 211.94 33.78 212.17 34.22C212.4 34.66 212.76 35.51 212.98 36.11C213.19 36.71 213.34 37.21 213.31 37.21C213.29 37.21 213.32 37.37 213.39 37.56C213.46 37.75 213.59 38.31 213.67 38.8C213.75 39.28 213.87 40.17 213.93 40.76C214 41.49 214.02 44.81 213.99 51.31C213.97 56.52 213.92 60.97 213.89 61.21C213.85 61.44 213.78 61.94 213.72 62.33C213.67 62.71 213.54 63.32 213.44 63.68C213.34 64.04 213.19 64.54 213.12 64.8C213.04 65.06 212.89 65.48 212.78 65.73C212.68 65.99 212.49 66.41 212.37 66.67C212.25 66.93 212.07 67.26 211.98 67.42C211.89 67.57 211.65 67.97 211.46 68.3C211.26 68.64 211.02 68.99 210.93 69.1C210.83 69.2 210.56 69.52 210.31 69.8C210.06 70.09 209.57 70.6 209.21 70.94C208.85 71.29 208.2 71.83 207.76 72.16C207.32 72.48 206.5 73 205.94 73.3C205.37 73.61 204.59 73.99 204.21 74.15C203.82 74.31 203.28 74.53 203 74.63C202.71 74.74 202.15 74.93 201.74 75.06C201.32 75.19 200.89 75.3 200.78 75.3C200.66 75.31 200.55 75.34 200.53 75.38C200.51 75.41 200.29 75.48 200.04 75.52C199.79 75.56 199.4 75.62 199.17 75.64C198.94 75.66 198.68 75.71 198.61 75.74C198.53 75.77 198.09 75.84 197.63 75.89C197.16 75.93 195.88 75.99 194.78 76.02C193.52 76.06 192.7 76.04 192.58 75.98C192.41 75.89 192.41 75.88 192.64 75.76C192.78 75.69 193.05 75.54 193.25 75.43C193.45 75.32 193.93 75.01 194.31 74.73C194.7 74.46 195.18 74.08 195.39 73.91C195.59 73.73 196.03 73.31 196.37 72.97C196.71 72.64 197.19 72.11 197.44 71.79C197.7 71.48 197.98 71.1 198.07 70.95C198.16 70.81 198.44 70.35 198.7 69.94C198.96 69.53 199.21 69.04 199.27 68.86C199.33 68.68 199.43 68.47 199.49 68.4C199.55 68.32 199.71 67.92 199.84 67.51C199.97 67.1 200.15 66.53 200.24 66.25C200.33 65.97 200.44 65.5 200.49 65.22C200.54 64.94 200.64 64.31 200.72 63.82C200.85 63.05 200.88 61.37 200.91 51.21C200.94 43.08 200.92 39.18 200.85 38.47C200.79 37.9 200.71 37.21 200.66 36.93C200.62 36.64 200.54 36.22 200.48 35.99C200.43 35.76 200.35 35.36 200.29 35.11C200.24 34.85 200.14 34.47 200.09 34.27C200.03 34.06 199.88 33.68 199.76 33.43C199.63 33.17 199.46 32.77 199.38 32.54C199.3 32.31 199.09 31.87 198.91 31.56C198.74 31.25 198.52 30.89 198.44 30.75C198.35 30.62 198.21 30.41 198.12 30.29C198.02 30.16 197.76 29.81 197.54 29.5C197.31 29.2 196.84 28.65 196.49 28.29C196.14 27.93 195.68 27.48 195.48 27.3C195.27 27.12 194.58 26.61 193.94 26.17C193.3 25.74 192.7 25.35 192.61 25.32C192.52 25.28 192.45 25.21 192.45 25.15C192.46 25.08 193.11 25.07 194.62 25.1Z" />
	</g>
</svg>