<svg version="1.2" baseProfile="tiny-ps" xmlns="http://www.w3.org/2000/svg" viewBox="0 0 1195 277" width="164" height="38">
	<title>betterdiscord_server-wordmark</title>
	<style>
		tspan { white-space:pre }
		.shp0 { fill: #ffffff } 
		.shp1 { fill: #8e9297 } 
		.shp2 { fill: #3e83e6 } 
		.shp3 { fill: #fffeff } 
	</style>
	<path id="BetterDiscord " fill-rule="evenodd" class="shp0" d="M38.96 117.41C49.78 117.41 50.72 117.55 53.11 117.86C54.5 118.18 56.59 118.49 57.68 118.8C58.6 119.1 60.38 119.8 61.46 120.26C62.54 120.57 64.32 121.35 65.25 121.8C66.25 122.27 67.8 123.27 68.58 123.74C69.19 124.2 70.66 125.28 71.44 126.13C72.21 126.91 73.68 127.99 74.14 128.6C74.6 129.3 75.69 130.53 76.38 131.46C77 132.39 77.93 134.16 78.54 135.4C79.16 136.72 80.01 138.41 80.32 139.27C80.63 140.03 80.79 141.42 81.1 142.58C81.4 143.52 81.71 145.52 81.71 146.83C81.87 148.07 81.87 150.47 81.87 151.7C81.87 153.47 81.56 154.71 81.26 156.17C80.94 157.11 80.32 158.8 79.86 159.81C79.4 160.74 78.4 162.2 77.93 162.97C77.46 163.75 76.54 164.98 75.83 165.83C75.22 166.61 73.99 167.69 73.05 168.31C72.21 169 71.28 169.78 70.97 169.78C70.5 169.92 70.5 169.92 72.05 170.86C73.05 171.31 74.44 172.33 75.22 172.78C75.83 173.25 77.3 174.48 78.4 175.64C79.4 176.72 80.94 178.42 81.71 179.58C82.57 180.67 83.34 182.14 83.65 182.75C83.96 183.37 84.57 184.92 84.89 185.92C85.2 187 85.65 188.78 86.04 189.86C86.36 191.09 86.67 193.03 86.67 194.26C86.67 195.58 86.67 197.73 86.51 199.05C86.36 200.28 86.04 202.37 85.65 203.45C85.35 204.53 84.89 206.31 84.57 207.54C84.26 208.86 83.18 210.87 82.57 212.34C81.87 213.57 80.79 215.65 80.01 216.59C79.4 217.51 77.77 219.14 76.85 220.06C75.83 220.98 74.14 222.3 73.05 223.07C71.89 223.84 70.2 225 69.03 225.47C68.11 225.93 65.87 226.7 64.64 227.17C63.39 227.63 61.31 228.17 60.23 228.48C59.07 228.79 57.05 229.1 55.9 229.25C54.04 229.56 50.56 229.56 0 229.71L0 204.84L14.46 204.84C22.34 204.84 28.69 204.84 28.69 204.69C28.69 204.69 32.94 204.53 38.04 204.53C46.78 204.53 47.55 204.69 49.09 204.23C50.1 203.92 51.33 203.45 51.96 203.14C52.57 202.84 53.73 202.06 54.5 201.37C55.27 200.59 56.29 199.51 56.59 198.89C56.9 198.2 57.37 196.97 57.68 196.34C57.83 195.73 57.98 194.11 57.98 193.33C57.98 192.56 57.83 191.09 57.68 190.48C57.52 189.86 57.05 188.78 56.74 188.08C56.44 187.47 55.58 186.53 55.12 186.08C54.66 185.61 53.73 184.45 52.96 183.98C52.27 183.53 50.88 182.91 49.94 182.59C48.17 182.14 48.17 182.14 32.94 181.98L32.94 161.2L39.59 161.2C44.69 161.2 46.78 161.2 47.86 160.89C48.63 160.74 49.94 160.42 50.41 160.12C51.02 159.81 51.96 159.19 52.57 158.5C53.27 158.03 54.19 156.95 54.5 156.33C54.82 155.72 55.27 154.41 55.43 153.63C55.58 152.86 55.74 151.7 55.74 151.24C55.74 150.77 55.58 149.85 55.43 149.22C55.43 148.53 55.12 147.61 54.82 146.99C54.5 146.52 53.88 145.36 53.27 144.75C52.72 144.13 51.64 143.2 51.02 142.89C50.41 142.58 49.09 142.05 48.32 141.89C47.39 141.58 45.61 141.42 28.53 141.42L28.53 164.83C28.53 183.37 28.38 188.23 28.22 188.23C28.07 188.23 25.83 186.53 23.36 184.14C20.64 181.75 17.17 178.42 15.08 176.72C13.15 174.95 9.05 171.17 0 163.13L0 117.41L38.96 117.41ZM127.62 161.51L173.07 161.51L173.07 186.03L127.62 186.03L127.62 202.81L177.02 202.81L177.02 229.54L98.97 229.54L98.97 117.54L177.02 117.54L177.02 144.12L127.62 144.12L127.62 161.51ZM243.82 144.27L243.82 229.54L215.17 229.54L215.17 144.27L185.41 144.27L185.41 117.37L273.59 117.37L273.59 144.27L243.82 144.27ZM336.45 144.27L336.45 229.54L307.79 229.54L307.79 144.27L278.02 144.27L278.02 117.37L366.2 117.37L366.2 144.27L336.45 144.27ZM405.95 161.51L451.38 161.51L451.38 186.03L405.95 186.03L405.95 202.81L455.34 202.81L455.34 229.54L377.29 229.54L377.29 117.54L455.34 117.54L455.34 144.12L405.95 144.12L405.95 161.51ZM504.1 193.94L499.04 193.94L499.04 229.54L470.38 229.54L470.38 117.54L515.18 117.54C538.29 117.54 556.18 128.13 556.82 154.4C556.82 175.12 548.43 186.82 534.82 191.09L565.37 229.54L530.06 229.54L504.1 193.94ZM515.66 169.58C533.55 169.58 533.55 143.95 515.66 143.95L499.04 143.95L499.04 169.58L515.66 169.58ZM572.67 115.28L595.94 115.28C612.71 115.28 619.67 115.44 620.91 115.67C621.92 115.67 623.61 115.98 624.7 116.14C625.86 116.28 627.41 116.6 628.33 116.91C629.33 117.22 631.04 117.53 632.19 117.83C633.27 118.14 634.82 118.77 635.83 119.14C636.76 119.45 638.38 120.23 639.31 120.69C640.39 121.16 641.86 121.92 642.48 122.31C643.09 122.78 644.64 123.7 645.8 124.48C646.89 125.25 648.5 126.72 649.28 127.64C650.21 128.58 651.44 130.03 652.14 130.81C652.6 131.58 653.54 132.75 653.85 133.36C654.3 133.98 655.01 135.22 655.31 136.06C655.62 136.84 656.24 138.23 656.55 139.08C656.85 139.85 657.32 141.24 657.63 142.09C657.94 143.02 658.32 144.56 658.48 145.56C658.63 146.5 658.95 148.03 659.1 148.89C659.26 150.12 659.26 155.69 659.26 173.22C659.26 191.45 659.26 196.17 659.1 197.4C658.95 198.25 658.79 199.79 658.48 200.71C658.32 201.72 657.94 203.11 657.63 203.89C657.32 204.73 657.01 205.97 656.7 206.43C656.4 206.9 656.24 208.06 655.93 208.52C655.62 208.98 655.16 210.06 654.62 210.84C654.15 211.68 653.38 212.76 653.07 213.23C652.76 213.7 652.14 214.54 651.68 215.16C651.13 215.78 650.05 217.01 649.44 217.63C648.82 218.48 647.5 219.57 646.73 220.18C645.95 220.8 644.48 221.81 643.72 222.27C642.94 222.73 641.17 223.81 639.78 224.51C638.54 225.13 636.6 225.9 635.83 226.21C634.82 226.51 633.13 227.13 632.04 227.45C630.88 227.83 628.88 228.29 627.56 228.6C626.32 228.91 624.39 229.07 623.31 229.23C622.22 229.37 620.14 229.68 618.9 229.68C617.43 229.68 606.53 229.84 572.67 229.84L572.67 202.65L594.93 202.65C613.95 202.65 617.59 202.65 619.21 202.34C620.14 202.34 621.53 202.03 622.22 201.72C622.84 201.42 623.92 201.26 624.39 200.87C624.86 200.56 625.86 200.1 626.17 199.79C626.63 199.48 627.1 198.87 627.56 198.4C627.86 197.86 628.72 197.09 629.03 196.47C629.33 195.85 629.8 194.77 630.27 192.99L630.27 152.52C630.27 151.9 629.96 150.74 629.65 150.12C629.33 149.5 629.03 148.58 628.72 148.03C628.33 147.58 627.71 146.8 627.25 146.34C626.78 145.87 625.86 145.03 625.39 144.72C624.86 144.41 623.92 143.94 623.31 143.64C622.69 143.33 621.37 143.02 620.76 143.02C620.14 142.86 618.75 142.55 617.59 142.55C616.51 142.55 612.26 142.4 600.81 142.4L600.81 189.06C600.81 189.06 599.42 187.9 597.8 186.51C596.25 185.12 591.77 181.09 588.13 177.78C584.5 174.3 579.63 169.9 572.67 163.56L572.67 115.28ZM701.68 229.54L673.34 229.54L673.34 117.54L701.68 117.54L701.68 229.54ZM731.92 194.1C743.15 207.7 767.86 208.33 768.65 196.32C768.96 189.99 758.67 186.35 749.49 185.09C731.44 182.24 714.98 170.85 714.98 149.49C714.98 127.5 734.93 115.95 755.51 115.95C769.12 115.95 782.26 119.76 793.82 133.83L775.29 148.07C763.58 135.57 743.48 136.04 743 149.02C743.32 154.4 749.18 157.55 757.88 159.46C777.83 163.09 797.78 170.06 796.51 197.58C795.56 219.26 772.77 231.12 752.18 231.12C738.72 231.12 724.47 224.32 714.03 210.87L731.92 194.1ZM890.55 205.97C881.21 224.15 864.27 231.12 850.18 231.12C828.17 231.12 806.01 218.3 806.01 192.84L806.01 154.24C806.01 128.92 828.17 115.95 850.66 115.95C864.43 115.95 881.05 121.8 890.08 141.74L866.96 151.07C859.37 137.15 834.35 140.31 834.35 154.24L834.35 192.84C834.35 206.29 859.68 210.08 865.86 194.57L890.55 205.97ZM898.15 154.4C898.15 128.61 921.26 115.95 944.54 115.95C967.81 115.95 991.09 128.77 991.09 154.4L991.09 192.68C991.09 218.3 967.96 231.12 944.7 231.12C921.42 231.12 898.15 218.3 898.15 192.68L898.15 154.4ZM926.48 192.68C926.48 200.9 935.67 204.86 944.7 204.86C953.71 204.86 962.74 200.75 962.74 192.68L962.74 154.4C962.74 145.7 953.4 141.74 944.22 141.74C935.36 141.74 926.48 146.17 926.48 154.4L926.48 192.68ZM1039.85 193.94L1034.78 193.94L1034.78 229.54L1006.13 229.54L1006.13 117.54L1050.92 117.54C1074.03 117.54 1091.92 128.13 1092.56 154.4C1092.56 175.12 1084.18 186.82 1070.56 191.09L1101.11 229.54L1065.81 229.54L1039.85 193.94ZM1051.4 169.58C1069.29 169.58 1069.29 143.95 1051.4 143.95L1034.78 143.95L1034.78 169.58L1051.4 169.58ZM1108.41 115.28L1131.68 115.28C1148.45 115.28 1155.41 115.44 1156.65 115.67C1157.66 115.67 1159.35 115.98 1160.44 116.14C1161.6 116.28 1163.15 116.6 1164.07 116.91C1165.08 117.22 1166.78 117.53 1167.94 117.83C1169.02 118.14 1170.56 118.77 1171.58 119.14C1172.5 119.45 1174.13 120.23 1175.05 120.69C1176.13 121.16 1177.6 121.92 1178.22 122.31C1178.84 122.78 1180.38 123.7 1181.54 124.48C1182.62 125.25 1184.25 126.72 1185.03 127.64C1185.95 128.58 1187.18 130.03 1187.89 130.81C1188.34 131.58 1189.28 132.75 1189.58 133.36C1190.05 133.98 1190.75 135.22 1191.05 136.06C1191.36 136.84 1191.98 138.23 1192.28 139.08C1192.6 139.85 1193.06 141.24 1193.37 142.09C1193.68 143.02 1194.06 144.56 1194.22 145.56C1194.38 146.5 1194.69 148.03 1194.84 148.89C1195 150.12 1195 155.69 1195 173.22C1195 191.45 1195 196.17 1194.84 197.4C1194.69 198.25 1194.53 199.79 1194.22 200.71C1194.06 201.72 1193.68 203.11 1193.37 203.89C1193.06 204.73 1192.75 205.97 1192.44 206.43C1192.14 206.9 1191.98 208.06 1191.67 208.52C1191.36 208.98 1190.89 210.06 1190.36 210.84C1189.89 211.68 1189.12 212.76 1188.81 213.23C1188.5 213.7 1187.89 214.54 1187.42 215.16C1186.87 215.78 1185.79 217.01 1185.18 217.63C1184.56 218.48 1183.24 219.57 1182.48 220.18C1181.7 220.8 1180.23 221.81 1179.46 222.27C1178.68 222.73 1176.91 223.81 1175.52 224.51C1174.28 225.13 1172.35 225.9 1171.58 226.21C1170.56 226.51 1168.86 227.13 1167.78 227.45C1166.62 227.83 1164.62 228.29 1163.29 228.6C1162.06 228.91 1160.13 229.07 1159.05 229.23C1157.96 229.37 1155.88 229.68 1154.64 229.68C1153.18 229.68 1142.28 229.84 1108.41 229.84L1108.41 202.65L1130.68 202.65C1149.69 202.65 1153.33 202.65 1154.96 202.34C1155.88 202.34 1157.27 202.03 1157.96 201.72C1158.59 201.42 1159.67 201.26 1160.13 200.87C1160.59 200.56 1161.6 200.1 1161.91 199.79C1162.37 199.48 1162.84 198.87 1163.29 198.4C1163.61 197.86 1164.46 197.09 1164.76 196.47C1165.08 195.85 1165.54 194.77 1166.01 192.99L1166.01 152.52C1166.01 151.9 1165.7 150.74 1165.39 150.12C1165.08 149.5 1164.76 148.58 1164.46 148.03C1164.07 147.58 1163.45 146.8 1162.99 146.34C1162.53 145.87 1161.6 145.03 1161.13 144.72C1160.59 144.41 1159.67 143.94 1159.05 143.64C1158.43 143.33 1157.12 143.02 1156.49 143.02C1155.88 142.86 1154.49 142.55 1153.33 142.55C1152.25 142.55 1148 142.4 1136.55 142.4L1136.55 189.06C1136.55 189.06 1135.16 187.9 1133.54 186.51C1131.99 185.12 1127.5 181.09 1123.87 177.78C1120.25 174.3 1115.37 169.9 1108.41 163.56L1108.41 115.28Z" />
	<path id="Official BetterDiscord Server " fill-rule="evenodd" class="shp1" d="M275.65 89.09C263.31 89.09 255.31 80.02 255.31 66.63C255.31 53.17 263.37 44.05 275.78 44.05C288.23 44.05 296.1 53.1 296.1 66.51C296.1 79.9 288.11 89.09 275.65 89.09ZM275.71 50.97C268.28 50.97 263.81 57.06 263.81 66.56C263.81 76.06 268.28 82.17 275.71 82.17C283.2 82.17 287.68 76.06 287.68 66.56C287.68 57.06 283.13 50.97 275.71 50.97ZM316.06 49.59C313.48 49.59 312.09 50.71 312.09 53.41L312.09 57.88L317.89 57.88L318.82 64.05L312.09 64.05L312.09 88.26L304.61 88.26L304.61 64.05L300.2 64.05L300.2 57.88L304.61 57.88L304.61 52.67C304.61 45.94 308.88 43.41 315.12 43.41C316.44 43.41 317.44 43.55 318.2 43.67L319.2 49.83C318.46 49.71 317.32 49.59 316.06 49.59ZM336.96 49.59C334.38 49.59 333 50.71 333 53.41L333 57.88L338.79 57.88L339.73 64.05L333 64.05L333 88.26L325.5 88.26L325.5 64.05L321.1 64.05L321.1 57.88L325.5 57.88L325.5 52.67C325.5 45.94 329.78 43.41 336.01 43.41C337.34 43.41 338.34 43.55 339.1 43.67L340.11 49.83C339.35 49.71 338.22 49.59 336.96 49.59ZM348.42 52.79C345.9 52.79 343.88 51.03 343.88 48.51C343.88 45.94 345.9 44.11 348.42 44.11C350.88 44.11 352.89 45.94 352.89 48.51C352.89 51.03 350.88 52.79 348.42 52.79ZM344.57 88.26L344.57 57.88L352.13 57.88L352.13 88.26L344.57 88.26ZM372.96 88.83C364.53 88.83 358.55 83.17 358.55 73.24C358.55 62.67 365.16 57.25 373.22 57.25C377.3 57.25 380.33 58.32 382.73 59.83L381.66 66.63C379.07 64.68 376.61 63.79 373.65 63.79C369.31 63.79 366.17 67.01 366.17 73.05C366.17 79.33 369.57 82.35 374.16 82.35C376.8 82.35 379.2 81.66 382.04 79.45L383.04 85.87C379.95 88.01 376.8 88.83 372.96 88.83ZM393.23 52.79C390.72 52.79 388.7 51.03 388.7 48.51C388.7 45.94 390.72 44.11 393.23 44.11C395.69 44.11 397.7 45.94 397.7 48.51C397.7 51.03 395.69 52.79 393.23 52.79ZM389.39 88.26L389.39 57.88L396.95 57.88L396.95 88.26L389.39 88.26ZM422.64 88.26L422 84.3C419.55 86.88 416.4 88.9 411.87 88.9C406.71 88.9 403.24 85.75 403.24 80.47C403.24 73.1 409.29 69.9 421.57 68.7L421.57 67.82C421.57 64.55 419.67 63.29 416.33 63.29C412.82 63.29 409.48 64.3 406.2 65.75L405.26 59.71C408.79 58.32 412.49 57.25 417.35 57.25C425.21 57.25 429.11 60.14 429.11 67.44L429.11 88.26L422.64 88.26ZM421.57 73.1C412.82 74.17 410.73 76.75 410.73 79.64C410.73 81.85 412.12 83.17 414.45 83.17C417.02 83.17 419.49 81.98 421.57 79.9L421.57 73.1ZM436.92 88.26L436.92 44.05L444.48 42.84L444.48 88.26L436.92 88.26ZM479.16 88.26L466.7 88.26L466.7 44.86L479.34 44.86C489.11 44.86 493.76 49.26 493.76 56.13C493.76 60.65 491.25 63.6 487.47 65.18C492.31 66.69 495.52 69.83 495.52 75.62C495.52 84.17 489.35 88.26 479.16 88.26ZM478.91 51.22L474.69 51.22L474.69 62.72L478.53 62.72C483.44 62.72 486.02 60.52 486.02 56.82C486.02 53.36 483.94 51.22 478.91 51.22ZM479.03 68.64L474.69 68.64L474.69 81.91L479.16 81.91C484.44 81.91 487.53 79.71 487.53 75.37C487.53 70.97 484.58 68.64 479.03 68.64ZM527 74.55L507.49 74.55C507.87 80.47 511.01 83.05 515.67 83.05C519.57 83.05 522.78 81.6 526.12 79.26L527 85.18C523.73 87.44 519.76 88.9 514.85 88.9C506.35 88.9 500 84.05 500 73.1C500 63.23 505.91 57.25 513.84 57.25C522.97 57.25 527.06 64.11 527.06 72.72C527.06 73.36 527 74.11 527 74.55ZM513.66 62.48C510.64 62.48 508.18 64.87 507.61 69.83L519.7 69.83C519.2 65.11 517.31 62.48 513.66 62.48ZM544.75 88.76C538.77 88.76 534.74 86.56 534.74 79.64L534.74 64.05L530.47 64.05L530.47 57.88L534.74 57.88L534.74 48.26L542.17 47.13L542.17 57.88L548.4 57.88L549.35 64.05L542.17 64.05L542.17 78.39C542.17 80.84 543.3 82.17 546.2 82.17C547.08 82.17 547.9 82.1 548.59 81.91L549.54 88.26C548.34 88.52 546.95 88.76 544.75 88.76ZM566.78 88.76C560.8 88.76 556.77 86.56 556.77 79.64L556.77 64.05L552.5 64.05L552.5 57.88L556.77 57.88L556.77 48.26L564.2 47.13L564.2 57.88L570.43 57.88L571.38 64.05L564.2 64.05L564.2 78.39C564.2 80.84 565.33 82.17 568.23 82.17C569.12 82.17 569.93 82.1 570.62 81.91L571.57 88.26C570.38 88.52 568.98 88.76 566.78 88.76ZM602.42 74.55L582.9 74.55C583.28 80.47 586.43 83.05 591.08 83.05C594.99 83.05 598.2 81.6 601.54 79.26L602.42 85.18C599.14 87.44 595.17 88.9 590.26 88.9C581.76 88.9 575.41 84.05 575.41 73.1C575.41 63.23 581.32 57.25 589.26 57.25C598.39 57.25 602.47 64.11 602.47 72.72C602.47 73.36 602.42 74.11 602.42 74.55ZM589.07 62.48C586.05 62.48 583.59 64.87 583.02 69.83L595.11 69.83C594.61 65.11 592.72 62.48 589.07 62.48ZM616.13 70.84L616.13 88.26L608.58 88.26L608.58 57.88L615.01 57.88L615.94 63.98C617.96 60.47 620.98 57.51 625.7 57.25L626.9 64.74C622.18 65.06 618.28 67.57 616.13 70.84ZM646.22 88.26L632.44 88.26L632.44 44.86L646.22 44.86C661.33 44.86 669.13 53.74 669.13 66.51C669.13 79.4 661.02 88.26 646.22 88.26ZM646.17 51.72L640.74 51.72L640.74 81.41L646.03 81.41C655.16 81.41 660.64 76.75 660.64 66.56C660.64 56.56 654.85 51.72 646.17 51.72ZM680.15 52.79C677.64 52.79 675.62 51.03 675.62 48.51C675.62 45.94 677.64 44.11 680.15 44.11C682.6 44.11 684.62 45.94 684.62 48.51C684.62 51.03 682.6 52.79 680.15 52.79ZM676.31 88.26L676.31 57.88L683.87 57.88L683.87 88.26L676.31 88.26ZM702.12 88.83C697.72 88.83 693.18 87.44 690.28 85.87L691.3 79.59C694.57 81.72 698.6 83.17 702.37 83.17C705.65 83.17 707.41 81.98 707.41 80.02C707.41 77.89 706.09 77.01 701.24 75.8C693.88 73.92 690.8 71.79 690.8 66.25C690.8 61.03 694.95 57.32 702 57.32C705.96 57.32 709.61 58.07 712.64 59.45L711.63 65.75C708.61 64.05 705.01 62.98 702 62.98C699.17 62.98 697.78 64.05 697.78 65.75C697.78 67.38 698.91 68.26 703.44 69.45C711.31 71.47 714.4 73.61 714.4 79.33C714.4 85.3 710.11 88.83 702.12 88.83ZM733.22 88.83C724.78 88.83 718.81 83.17 718.81 73.24C718.81 62.67 725.42 57.25 733.47 57.25C737.56 57.25 740.58 58.32 742.97 59.83L741.91 66.63C739.32 64.68 736.87 63.79 733.91 63.79C729.57 63.79 726.42 67.01 726.42 73.05C726.42 79.33 729.82 82.35 734.41 82.35C737.06 82.35 739.45 81.66 742.28 79.45L743.29 85.87C740.2 88.01 737.06 88.83 733.22 88.83ZM761.42 88.9C753.17 88.9 747.19 82.98 747.19 73.1C747.19 63.23 753.24 57.25 761.49 57.25C769.79 57.25 775.84 63.23 775.84 73.1C775.84 82.98 769.73 88.9 761.42 88.9ZM761.42 63.48C756.95 63.48 754.56 67.44 754.56 73.1C754.56 78.64 757.01 82.72 761.42 82.72C766.07 82.72 768.47 78.76 768.47 73.1C768.47 67.51 765.95 63.48 761.42 63.48ZM789.5 70.84L789.5 88.26L781.94 88.26L781.94 57.88L788.36 57.88L789.31 63.98C791.32 60.47 794.34 57.51 799.06 57.25L800.26 64.74C795.54 65.06 791.63 67.57 789.5 70.84ZM824.12 88.26L823.48 84.05C821.35 86.63 818.39 88.9 814.17 88.9C807.81 88.9 802.71 84.17 802.71 73.92C802.71 62.6 808.95 57.57 815.99 57.57C818.89 57.57 821.23 58.07 823.05 58.7L823.05 44.05L830.6 42.84L830.6 88.26L824.12 88.26ZM823.05 64.93C821.16 64.05 819.71 63.6 817.13 63.6C813.17 63.6 810.27 66.82 810.27 73.48C810.27 79.4 812.79 82.17 816.13 82.17C818.89 82.17 821.04 80.53 823.05 78.01L823.05 64.93ZM864.34 88.76C859.05 88.76 854.52 87.57 850.68 85.75L851.94 78.14C855.59 80.28 860.12 81.98 864.46 81.98C868.3 81.98 870.95 80.15 870.95 76.69C870.95 73.48 869.44 72.16 863.14 69.45C854.71 65.99 851.31 63.23 851.31 56.51C851.31 48.83 857.23 44.36 865.34 44.36C870.25 44.36 873.66 45.37 876.8 47.01L875.54 54.55C872.4 52.48 868.68 51.15 865.29 51.15C861.12 51.15 859.31 53.17 859.31 55.8C859.31 58.57 860.69 59.9 866.73 62.41C875.67 66.06 878.95 69.14 878.95 75.87C878.95 84.36 872.71 88.76 864.34 88.76ZM910.73 74.55L891.22 74.55C891.59 80.47 894.74 83.05 899.4 83.05C903.31 83.05 906.51 81.6 909.85 79.26L910.73 85.18C907.46 87.44 903.49 88.9 898.59 88.9C890.09 88.9 883.72 84.05 883.72 73.1C883.72 63.23 889.65 57.25 897.57 57.25C906.7 57.25 910.8 64.11 910.8 72.72C910.8 73.36 910.73 74.11 910.73 74.55ZM897.38 62.48C894.37 62.48 891.92 64.87 891.35 69.83L903.43 69.83C902.93 65.11 901.03 62.48 897.38 62.48ZM924.46 70.84L924.46 88.26L916.9 88.26L916.9 57.88L923.32 57.88L924.27 63.98C926.28 60.47 929.3 57.51 934.02 57.25L935.22 64.74C930.5 65.06 926.59 67.57 924.46 70.84ZM955.24 88.39L947.87 88.39L937.24 58.45L945.16 57.44L951.97 79.02L958.51 57.88L966 57.88L955.24 88.39ZM995.27 74.55L975.76 74.55C976.13 80.47 979.28 83.05 983.94 83.05C987.85 83.05 991.05 81.6 994.39 79.26L995.27 85.18C992 87.44 988.03 88.9 983.13 88.9C974.62 88.9 968.26 84.05 968.26 73.1C968.26 63.23 974.19 57.25 982.11 57.25C991.24 57.25 995.34 64.11 995.34 72.72C995.34 73.36 995.27 74.11 995.27 74.55ZM981.92 62.48C978.91 62.48 976.45 64.87 975.89 69.83L987.97 69.83C987.47 65.11 985.57 62.48 981.92 62.48ZM1009 70.84L1009 88.26L1001.44 88.26L1001.44 57.88L1007.86 57.88L1008.81 63.98C1010.82 60.47 1013.84 57.51 1018.56 57.25L1019.76 64.74C1015.04 65.06 1011.14 67.57 1009 70.84Z" />
	<g id="Folder 1">
		<path id="Path 1" class="shp2" d="M214.88 35.99L214.43 36.03C214.19 36.04 213.99 36.1 213.99 36.16C213.99 36.22 214.15 36.34 214.33 36.43C214.51 36.52 214.79 36.67 214.94 36.79C215.07 36.9 214.86 36.83 214.46 36.63C214.06 36.42 213.71 36.23 213.68 36.19C213.66 36.17 213.7 36.1 213.79 36.05C213.87 36 214.16 35.96 214.88 35.99ZM189.97 36.09C201.33 36.13 203.18 36.15 204.17 36.3C204.81 36.39 205.68 36.54 206.14 36.63C206.61 36.72 207.12 36.82 207.29 36.85C207.47 36.88 208.09 37.07 208.69 37.26C209.29 37.45 210.06 37.71 210.4 37.83C210.75 37.95 211.5 38.27 212.07 38.56C212.64 38.84 213.31 39.2 213.54 39.35C213.79 39.52 214.26 39.83 214.59 40.05C214.91 40.28 215.66 40.93 216.24 41.5C216.82 42.08 217.5 42.86 217.75 43.22C218 43.6 218.26 44 218.33 44.11C218.4 44.22 218.68 44.74 218.93 45.25C219.2 45.76 219.54 46.63 219.71 47.17C219.88 47.72 220.08 48.46 220.17 48.83C220.26 49.21 220.38 50.1 220.45 50.81C220.52 51.61 220.55 52.7 220.5 53.67C220.47 54.52 220.37 55.64 220.28 56.16C220.19 56.67 220.05 57.39 219.97 57.76C219.88 58.14 219.67 58.84 219.5 59.33C219.33 59.81 219.01 60.6 218.78 61.07C218.55 61.53 218.36 61.94 218.36 61.98C218.36 62 218.08 62.43 217.72 62.93C217.37 63.44 216.97 63.95 216.84 64.08C216.71 64.2 216.59 64.35 216.59 64.39C216.59 64.44 216.85 64.77 217.16 65.14C217.47 65.52 217.73 65.85 217.73 65.89C217.73 65.94 217.87 66.17 218.03 66.42C218.2 66.66 218.52 67.23 218.75 67.68C218.98 68.14 219.33 69.01 219.53 69.61C219.73 70.21 219.99 71.19 220.11 71.79C220.23 72.39 220.38 73.39 220.44 74.03C220.49 74.65 220.55 75.64 220.55 76.21C220.54 76.77 220.49 77.68 220.44 78.23C220.38 78.78 220.26 79.54 220.17 79.94C220.08 80.34 219.97 80.83 219.93 81.03C219.89 81.23 219.78 81.57 219.68 81.77C219.58 81.96 219.5 82.19 219.5 82.28C219.5 82.37 219.3 82.86 219.05 83.37C218.81 83.88 218.31 84.75 217.95 85.29C217.59 85.84 217.15 86.44 216.97 86.64C216.8 86.83 216.44 87.2 216.17 87.46C215.92 87.72 215.47 88.12 215.19 88.35C214.9 88.59 214.35 88.99 213.95 89.24C213.54 89.51 213.03 89.8 212.8 89.91C212.58 90.01 212.31 90.15 212.23 90.22C212.14 90.29 211.79 90.47 211.45 90.61C211.11 90.77 210.43 91.03 209.94 91.22C209.46 91.4 208.42 91.7 207.66 91.89C206.88 92.08 205.9 92.29 205.47 92.36C205.04 92.42 204.2 92.52 203.6 92.59C202.94 92.66 198.07 92.72 191.18 92.76C184.94 92.79 179.17 92.8 176.83 92.72L176.78 87.06C176.74 83.36 176.76 81.36 176.83 81.27C176.92 81.16 179.4 81.13 189.15 81.11C201.24 81.08 201.37 81.08 202.04 80.87C202.41 80.74 202.99 80.51 203.34 80.34C203.68 80.18 203.98 80.02 204.01 79.99C204.05 79.95 204.2 79.83 204.38 79.72C204.55 79.6 204.93 79.21 205.22 78.84C205.51 78.47 205.9 77.81 206.09 77.35C206.39 76.62 206.43 76.41 206.43 75.58C206.43 74.84 206.37 74.48 206.14 73.81C205.99 73.36 205.73 72.8 205.57 72.57C205.42 72.35 205.04 71.91 204.73 71.6C204.42 71.3 203.85 70.9 203.45 70.7C203.05 70.5 202.39 70.23 201.99 70.11C201.31 69.9 201 69.88 197.78 69.84C195.87 69.82 194.26 69.78 194.22 69.73C194.17 69.7 194.14 67.3 194.14 64.41C194.14 61.53 194.17 59.14 194.22 59.1C194.26 59.06 195.89 59.01 197.83 58.99C200.96 58.94 201.44 58.91 202.04 58.73C202.41 58.62 202.95 58.41 203.24 58.26C203.53 58.12 204.01 57.81 204.33 57.57C204.64 57.34 205.08 56.89 205.32 56.59C205.54 56.29 205.86 55.74 206.03 55.37C206.29 54.81 206.34 54.52 206.39 53.67C206.42 53 206.39 52.42 206.3 52.06C206.22 51.74 206.04 51.28 205.91 51.02C205.76 50.75 205.5 50.34 205.31 50.08C205.13 49.82 204.65 49.37 204.26 49.09C203.81 48.74 203.17 48.4 201.47 47.74L196.56 47.72C193.44 47.71 191.57 47.73 191.44 47.8C191.23 47.9 191.22 48.01 191.22 60.03C191.22 67.5 191.19 72.19 191.12 72.26C191.07 72.32 190.83 72.19 190.48 71.88C190.18 71.62 189.77 71.26 189.56 71.07C189.36 70.88 188.81 70.38 188.32 69.94C187.83 69.51 186.92 68.69 186.29 68.11C185.66 67.52 184.89 66.82 184.57 66.54C184.25 66.25 183.7 65.77 183.33 65.45C182.97 65.14 182.6 64.81 182.5 64.73C182.41 64.64 182.05 64.31 181.71 64C181.36 63.68 180.55 62.93 179.89 62.32C179.23 61.72 178.33 60.9 177.86 60.5C177.41 60.1 176.99 59.71 176.91 59.63C176.81 59.51 176.77 56.98 176.76 47.87C176.75 41.48 176.78 36.2 176.83 36.15C176.87 36.08 181.37 36.06 189.97 36.09Z" />
		<path id="Path 2" class="shp3" d="M216.42 36.09C217.74 36.13 219.22 36.2 219.71 36.26C220.2 36.32 220.9 36.4 221.27 36.46C221.64 36.53 222.16 36.62 222.42 36.67C222.67 36.72 223.14 36.84 223.45 36.93C223.76 37.02 224.59 37.27 225.28 37.49C225.96 37.72 226.66 37.97 226.84 38.06C227 38.15 227.54 38.42 228.03 38.66C228.52 38.91 229.29 39.34 229.74 39.62C230.2 39.91 230.86 40.35 231.2 40.61C231.55 40.88 232.21 41.47 232.69 41.92C233.17 42.38 233.83 43.09 234.15 43.49C234.48 43.88 234.92 44.47 235.12 44.78C235.32 45.1 235.7 45.75 235.95 46.24C236.21 46.73 236.61 47.67 236.86 48.34C237.09 49.01 237.26 49.56 237.22 49.56C237.2 49.56 237.23 49.74 237.31 49.95C237.39 50.16 237.53 50.79 237.62 51.33C237.71 51.87 237.85 52.86 237.91 53.51C237.99 54.32 238.01 58.02 237.98 65.25C237.96 71.04 237.9 75.99 237.87 76.26C237.82 76.52 237.75 77.07 237.68 77.51C237.62 77.93 237.48 78.61 237.37 79.01C237.26 79.41 237.09 79.97 237.01 80.25C236.92 80.54 236.76 81.01 236.63 81.29C236.52 81.58 236.31 82.05 236.18 82.33C236.04 82.62 235.84 82.99 235.74 83.17C235.64 83.34 235.38 83.78 235.16 84.15C234.94 84.53 234.67 84.92 234.57 85.04C234.46 85.15 234.16 85.5 233.88 85.82C233.61 86.14 233.06 86.71 232.66 87.08C232.26 87.47 231.53 88.07 231.04 88.44C230.55 88.8 229.64 89.38 229.02 89.71C228.38 90.05 227.52 90.48 227.09 90.66C226.66 90.83 226.06 91.08 225.75 91.19C225.42 91.31 224.8 91.52 224.34 91.67C223.88 91.81 223.4 91.93 223.27 91.93C223.14 91.95 223.02 91.98 223 92.02C222.97 92.06 222.73 92.13 222.45 92.18C222.17 92.22 221.74 92.29 221.48 92.31C221.23 92.33 220.94 92.39 220.86 92.42C220.77 92.46 220.28 92.54 219.77 92.59C219.24 92.64 217.82 92.7 216.59 92.74C215.19 92.78 214.28 92.76 214.15 92.69C213.96 92.59 213.96 92.58 214.21 92.45C214.37 92.37 214.67 92.2 214.89 92.08C215.11 91.96 215.65 91.61 216.07 91.3C216.51 91 217.04 90.58 217.27 90.39C217.5 90.19 217.99 89.72 218.36 89.34C218.74 88.98 219.28 88.39 219.56 88.03C219.85 87.69 220.16 87.26 220.26 87.1C220.36 86.94 220.67 86.43 220.96 85.97C221.25 85.52 221.53 84.97 221.59 84.77C221.66 84.57 221.77 84.34 221.84 84.26C221.9 84.17 222.08 83.73 222.23 83.27C222.37 82.81 222.57 82.18 222.67 81.87C222.77 81.56 222.9 81.03 222.95 80.72C223.01 80.41 223.12 79.71 223.21 79.16C223.35 78.31 223.39 76.44 223.42 65.14C223.45 56.09 223.43 51.76 223.35 50.97C223.29 50.33 223.2 49.56 223.14 49.25C223.1 48.93 223.01 48.46 222.94 48.21C222.88 47.95 222.8 47.51 222.73 47.23C222.67 46.94 222.56 46.52 222.51 46.29C222.44 46.06 222.27 45.64 222.14 45.36C221.99 45.07 221.8 44.62 221.72 44.37C221.63 44.11 221.39 43.62 221.19 43.28C221 42.93 220.76 42.53 220.67 42.38C220.57 42.23 220.41 42 220.31 41.87C220.2 41.72 219.91 41.33 219.67 40.99C219.41 40.65 218.89 40.04 218.5 39.64C218.11 39.24 217.6 38.74 217.37 38.54C217.14 38.34 216.37 37.77 215.66 37.28C214.95 36.8 214.28 36.37 214.18 36.34C214.08 36.29 214 36.22 214 36.15C214.01 36.07 214.74 36.06 216.42 36.09Z" />
	</g>
</svg>