<svg version="1.2" xmlns="http://www.w3.org/2000/svg" viewBox="0 0 1750 405" width="164" height="38"><style>.a{fill:#fff}</style><path fill-rule="evenodd" class="a" d="m1166 2.6c136.5 0 204.7 0.2 205.7 0.4 0.9 0.1 2.5 0.7 3.5 1.2 1.3 0.6 2.6 1.5 3.6 2.4 0.8 0.9 1.8 2.2 2.3 3 0.4 0.8 0.9 2.1 1.1 3.1 0.3 0.9 0.5 2.4 0.5 3.3 0 1.1-0.2 2.2-0.6 3-0.4 0.8-2 2.7-4.4 5.2-2.1 2.2-4.5 4.9-5.3 6-0.7 1.2-1.7 3.2-3.1 6.9l-0.1 158.6c-0.1 150.6-0.2 158.8-0.6 161.3-0.3 1.4-0.8 3.6-1.1 4.8-0.3 1.1-0.9 3.2-1.4 4.6-0.5 1.4-1.4 3.6-1.9 4.8-0.6 1.2-1.7 3.2-2.5 4.5-0.7 1.2-2.1 3.4-3.2 4.8-1 1.4-3 3.7-4.4 5-1.4 1.4-3.4 3.3-4.4 4.2-1.1 0.8-3.1 2.2-4.4 3.1-1.3 0.8-3.8 2.2-5.5 3.1-1.7 0.8-4.6 2-6.5 2.6-1.8 0.7-4.6 1.4-6.1 1.7-1.6 0.4-4.3 0.8-6.1 0.9-2.2 0.2-50.7 0.3-155.5 0.3-104.4 0-153.3-0.1-155.5-0.3-1.8-0.1-4.5-0.5-6-0.8-1.6-0.3-4.4-1.1-6.2-1.7-1.9-0.6-4.8-1.8-6.5-2.7-1.7-0.8-4.2-2.2-5.6-3.1-1.4-1-3.8-2.8-5.4-4.1-1.5-1.3-3.8-3.6-5.1-5-1.3-1.5-3.3-4.1-4.4-5.8-1.2-1.7-2.8-4.5-3.6-6.3-0.9-1.8-2-4.5-2.6-6.2-0.5-1.6-1.2-4.2-1.5-5.7-0.3-1.6-0.7-4.1-0.9-5.7-0.2-1.9-0.3-49-0.3-159 0-136.3-0.1-156.4-0.4-158.2-0.3-1-0.8-2.7-1.3-3.8-0.5-1-1.4-2.5-2.1-3.5-0.7-0.9-2.8-3.2-4.7-5.2-2.5-2.6-3.7-3.9-4.3-5.2-0.7-1.5-0.8-1.8-0.6-4.1 0.1-1.8 0.3-2.7 1-4.2 0.4-1 1.2-2.3 1.7-3 0.5-0.7 1.7-1.8 2.6-2.5 1-0.7 2.4-1.4 3.2-1.7 0.8-0.3 2.2-0.6 3.1-0.8 1.2-0.2 61.1-0.2 205.8-0.2zm-761.2 266.1c19.8 0 31.5 0.1 33.1 0.3 1.3 0.1 3.6 0.5 5 0.8 1.5 0.3 3.7 0.9 4.9 1.3 1.3 0.4 3.3 1.2 4.4 1.7 1.2 0.6 3.1 1.7 4.4 2.5 1.2 0.8 3 2.2 3.9 3.1 0.9 0.9 2.3 2.5 3 3.5 0.7 1 1.8 2.8 2.3 3.9 0.5 1.2 1.3 3.2 1.7 4.5 0.4 1.4 0.8 3.6 1 5 0.2 1.6 0.3 4.2 0.2 7.3-0.1 3.4-0.3 5.4-0.7 7-0.3 1.2-0.8 3-1.2 3.8-0.3 0.8-1.1 2.4-1.8 3.5-0.7 1.1-2.3 3-3.6 4.3-1.3 1.2-3.3 2.8-4.6 3.5-1.2 0.8-2.7 1.6-3.4 1.9-0.7 0.2-1.2 0.6-1.2 0.7 0 0.2 0.5 0.5 1.2 0.8 0.7 0.3 2.2 1.1 3.4 1.8 1.6 0.9 3.2 2.2 5.1 4.1 1.9 2 3.2 3.6 4 5 0.6 1.1 1.5 3.1 1.9 4.2 0.4 1.2 0.9 3.3 1.2 4.8 0.3 2.1 0.4 3.8 0.3 7.6-0.1 4.3-0.3 5.3-1 8.1-0.5 1.8-1.2 4.2-1.7 5.2-0.5 1.1-1.5 2.8-2.2 3.8-0.6 1-1.9 2.6-2.8 3.5-0.9 0.9-2.5 2.3-3.5 3.1-1 0.7-2.9 1.9-4.2 2.6-1.3 0.6-3.9 1.7-5.8 2.3-1.8 0.7-4.8 1.4-6.6 1.8-3.2 0.6-3.6 0.6-35 0.7-31.1 0.1-31.8 0.1-33.6-0.4-1.4-0.5-2.1-0.9-3-1.8-0.6-0.7-1.3-1.5-1.5-1.9-0.2-0.4-0.5-1.4-0.8-2.3-0.2-1.2-0.3-11.6-0.3-52.6 0-31.5 0.1-51.5 0.3-52.4 0.1-0.8 0.5-2 0.9-2.6 0.3-0.7 1.1-1.7 1.7-2.2 0.6-0.4 1.7-1.1 2.5-1.3 1.4-0.5 3.9-0.5 32.1-0.5zm-17.2 21.3l-0.1 28.5c46.7-0.2 48.7-0.2 50.2-0.7 1-0.3 2.4-0.9 3.3-1.2 0.8-0.5 2.1-1.3 2.8-1.8 0.7-0.6 1.7-1.7 2.2-2.6 0.6-0.8 1.2-2.2 1.5-3.2 0.4-1.2 0.6-2.5 0.6-4.7 0-2.2-0.1-3.6-0.5-4.8-0.3-0.9-0.9-2.4-1.4-3.4-0.5-0.9-1.6-2.3-2.4-3.1-0.9-0.8-2.3-1.8-3.1-2.2-0.9-0.5-2.5-1.1-3.7-1.4-2-0.6-2.8-0.6-25.1-0.7l-23-0.1zm0 75.1l1.4 1.4c43.7-0.1 46.5-0.2 48.2-0.6 1.1-0.3 2.9-0.9 4.1-1.5 1.2-0.6 2.5-1.5 3.5-2.4 0.8-0.9 1.8-2.2 2.2-3.1 0.4-0.8 1-2.3 1.2-3.2 0.3-1 0.5-2.9 0.5-4.8 0-1.9-0.2-3.7-0.5-4.7-0.2-0.9-0.8-2.3-1.1-3.1-0.5-0.8-1.5-2.1-2.2-2.9-0.9-1-2.2-1.9-3.4-2.5-1.1-0.5-2.8-1.2-3.7-1.4-1.5-0.5-3.7-0.5-25.9-0.6l-24.3-0.1zm297.3-98.7c1.7 0 4.2 0.1 5.4 0.3 1.3 0.1 3.3 0.5 4.5 0.8 1.3 0.3 3.5 1.2 5 1.9 2.2 1.1 3.1 1.7 5.2 3.8 1.4 1.4 3.2 3.6 4 4.7 0.7 1.2 2 3.3 2.7 4.8 0.7 1.5 1.7 3.6 2.1 4.6 0.4 1.1 6.6 14.7 13.7 30.3 7.1 15.5 14.9 32.5 17.3 37.7 3.2 7 4.6 9.9 5.5 10.8 0.6 0.8 1.7 1.7 2.5 2 1 0.6 1.9 0.7 3.3 0.7 1.1 0 2.5-0.1 3.1-0.3 0.7-0.2 1.6-0.8 2.1-1.3 0.5-0.5 1.2-1.4 2.2-3.1l0.1-95.5h20.5v49c0 42.5 0 49.4-0.4 51.5-0.2 1.4-0.8 3.5-1.3 4.9-0.5 1.4-1.5 3.4-2.3 4.6-0.8 1.1-2.2 2.8-3.1 3.8-1 0.9-2.5 2.1-3.3 2.6-0.8 0.5-2.3 1.2-3.4 1.6-1 0.4-2.7 1-3.9 1.3-1.1 0.3-3.8 0.7-5.8 0.8-2.4 0.2-4.7 0.2-7 0-1.8-0.1-4.4-0.5-5.7-0.9-1.4-0.3-3.4-1-4.5-1.5-1.2-0.6-2.9-1.6-3.8-2.2-1-0.7-2.5-2-3.4-3-1-1-2.3-2.6-2.9-3.5-0.6-0.9-1.7-2.8-2.4-4.2-0.7-1.4-1.7-3.5-2.1-4.7-0.5-1.1-4.7-10.4-9.3-20.6-4.7-10.2-11.9-25.9-16-34.9-4.1-9-8.2-17.9-9-19.8-0.9-1.9-2.1-4-2.6-4.6-0.6-0.7-1.7-1.5-2.4-1.9-1.1-0.5-1.8-0.7-3.4-0.7-1.1 0-2.4 0.2-3.1 0.4-0.6 0.3-1.5 0.8-2 1.3-0.6 0.4-1.3 1.3-2.2 3.1l-0.1 95.7h-20.6v-48.7c0.1-46 0.1-48.9 0.6-51.7 0.3-1.6 0.9-3.9 1.4-5.2 0.4-1.2 1.3-3 1.9-3.9 0.5-0.9 1.6-2.4 2.3-3.2 0.7-0.8 2.1-2.1 3-2.7 0.9-0.7 2.6-1.7 3.8-2.2 1.1-0.6 3.1-1.3 4.3-1.6 1.3-0.3 3.2-0.6 4.3-0.8 1-0.1 3.4-0.3 5.2-0.3zm-123.7 2.3c12-0.1 15.5 0 18.3 0.4 1.9 0.2 4.5 0.7 5.9 1 1.4 0.2 3.7 0.9 5.2 1.4 1.5 0.4 4.4 1.6 6.4 2.6 2 1 4.7 2.5 5.9 3.4 1.2 0.9 3 2.3 3.9 3.1 0.9 0.7 2.4 2.3 3.4 3.5 1 1.1 2.5 3.1 3.4 4.4 0.8 1.2 2 3.4 2.7 4.7 0.7 1.4 1.7 3.8 2.3 5.4 0.6 1.5 1.5 4.3 1.9 6 0.5 1.8 1.1 4.8 1.4 6.6 0.3 1.9 0.6 4.7 0.8 6.4 0.2 1.6 0.3 6.2 0.3 10.2 0 4-0.1 8.7-0.3 10.3-0.2 1.6-0.5 4.2-0.7 5.8-0.2 1.5-0.8 4.3-1.2 6.1-0.5 1.9-1.3 4.6-1.7 5.9-0.5 1.4-1.5 3.7-2.1 5.1-0.7 1.4-1.8 3.4-2.4 4.5-0.7 1.1-2 3-3 4.2-0.9 1.3-2.7 3.2-3.8 4.2-1.2 1.1-3.2 2.7-4.4 3.6-1.2 0.9-3.4 2.2-4.9 3-1.4 0.8-3.8 1.9-5.3 2.4-1.5 0.6-4.1 1.4-5.9 1.9-1.8 0.4-4.7 1-6.5 1.3-2.8 0.4-5.2 0.5-19.2 0.5-14.2 0-16.4-0.1-19.3-0.5-1.8-0.3-4.9-1-6.9-1.5-2-0.5-4.7-1.4-6-1.9-1.4-0.5-3.2-1.3-4.1-1.8-0.9-0.5-3.1-1.8-4.8-2.9-1.9-1.3-4.2-3.2-5.9-4.9-1.8-1.8-3.6-3.9-4.9-5.9-1.1-1.7-2.4-3.8-2.8-4.6-0.5-0.9-1.3-2.9-1.9-4.4-0.6-1.6-1.4-3.7-1.7-4.8-0.3-1.1-0.9-3.4-1.3-5.2-0.4-1.8-1-4.9-1.2-6.9-0.5-3-0.5-5.5-0.5-13.6 0-9 0-10.5 0.6-14.4 0.4-2.3 1.1-6.2 1.7-8.5 0.6-2.3 1.6-5.5 2.2-6.9 0.5-1.5 1.6-3.9 2.4-5.4 0.8-1.4 2.2-3.8 3.3-5.3 1-1.4 2.9-3.7 4.3-5 1.3-1.4 3.6-3.3 5-4.3 1.5-1.1 4.2-2.7 6-3.6 1.9-0.9 4.5-2.1 5.8-2.5 1.3-0.5 3.9-1.2 5.6-1.6 1.8-0.4 4.6-0.9 6.2-1.1 2.2-0.3 6.7-0.4 17.8-0.4zm-16.7 21c-1 0.2-2.9 0.7-4.2 1.1-1.3 0.3-3.4 1.2-4.8 1.9-1.3 0.7-3.1 1.8-4 2.6-0.9 0.7-2.4 2.2-3.4 3.3-0.8 1.1-2.1 3-2.8 4.3-0.7 1.4-1.6 3.4-2 4.7-0.4 1.2-1 3.4-1.3 4.8-0.3 1.4-0.7 4.1-0.9 6.1-0.3 2.2-0.5 6.1-0.5 9.5 0 3.3 0.2 7.2 0.5 9.3 0.2 2 0.6 4.7 0.9 6.1 0.3 1.3 0.9 3.4 1.3 4.6 0.4 1.2 1.1 3 1.6 3.9 0.5 1 1.4 2.6 2 3.5 0.7 0.9 2 2.4 2.9 3.4 1 0.9 2.7 2.2 3.7 2.9 1.1 0.6 3 1.5 4.1 1.9 1.1 0.5 3.1 1.1 4.6 1.4 1.3 0.4 3.6 0.8 4.9 0.9 1.3 0.2 7.7 0.3 14.6 0.3 9.3 0 12.9-0.1 15.2-0.4 1.6-0.2 3.9-0.7 5-1 1.1-0.3 2.8-0.9 3.8-1.3 0.9-0.4 2.5-1.2 3.4-1.7 0.9-0.6 2.3-1.6 3.2-2.3 0.8-0.7 2.1-2.1 2.9-3.1 0.8-1 1.9-2.7 2.4-3.7 0.6-1 1.5-3 2-4.4 0.5-1.4 1.2-4.2 1.6-6.1 0.4-1.9 0.8-5.2 1-7.3 0.2-2.4 0.3-6.3 0.2-9.9-0.1-3.2-0.4-7.2-0.6-8.8-0.3-1.7-0.8-4.1-1.2-5.5-0.3-1.4-1-3.6-1.5-4.8-0.5-1.2-1.4-3.2-2.1-4.4-0.6-1.1-2-2.9-2.9-3.9-0.9-1-2.4-2.3-3.3-3-0.9-0.6-2.6-1.6-3.7-2.2-1.1-0.5-3-1.2-4.3-1.6-1.3-0.5-3.6-1-5.1-1.2-2-0.4-5.3-0.5-13.5-0.6-5.9 0-12.4 0-14.3 0.2-2 0.1-4.3 0.3-5.4 0.5zm373.5-21.1v20.3h-29.2c-16 0-30.7 0.1-32.7 0.3-2.1 0.1-4.3 0.5-5.5 0.8-1.1 0.4-2.4 0.9-3.1 1.2-0.6 0.3-1.7 1.2-2.4 1.9-0.8 0.7-1.8 1.8-2.2 2.5-0.5 0.7-1.1 2-1.4 3-0.3 0.9-0.6 2.7-0.7 3.9-0.2 1.4-0.1 3 0.1 4.4 0.3 1.2 0.8 2.9 1.3 3.9 0.6 1.2 1.5 2.3 2.4 3.2 0.9 0.7 2.3 1.7 3.2 2.2 0.9 0.4 2.5 1 3.5 1.2 1.7 0.6 3.8 0.6 65.8 0.7v18.6h-30.6c-18.8 0-31.3 0.1-32.5 0.3-1.1 0.1-2.7 0.4-3.7 0.7-0.9 0.2-2.3 0.7-3 1.1-0.8 0.4-2.1 1.3-3 2-0.8 0.7-1.8 1.9-2.2 2.6-0.4 0.7-1 2.1-1.3 3-0.2 0.9-0.5 2.7-0.6 4.1-0.1 1.4 0.1 3.1 0.3 4.3 0.2 1.1 0.8 2.7 1.2 3.7 0.5 0.9 1.5 2.3 2.3 3.2 0.9 0.9 2.2 1.8 3.5 2.4 1.2 0.6 3.1 1.3 4.5 1.6 2.4 0.5 4.5 0.5 66.3 0.5v20.5h-32.3c-20.6 0-33.3-0.1-35.2-0.2-1.7-0.2-4.2-0.6-5.8-0.9-1.5-0.3-3.9-0.9-5.3-1.4-1.3-0.5-3.6-1.4-5-2.1-1.4-0.7-3.4-1.9-4.5-2.6-1-0.7-2.5-2.1-3.5-3-0.9-1-2.2-2.5-2.9-3.5-0.7-1.1-1.7-2.9-2.3-4.3-0.6-1.3-1.3-3.4-1.6-4.7-0.3-1.4-0.7-3.5-0.9-4.8-0.1-1.3-0.3-3.4-0.3-4.7 0-1.2 0.2-3.3 0.3-4.7 0.2-1.4 0.6-3.5 0.9-4.7 0.3-1.1 1-3.2 1.7-4.5 0.6-1.3 1.6-3.1 2.3-4.1 0.7-0.9 2.1-2.5 3.1-3.4 1.1-1.1 2.7-2.3 3.5-2.9 0.9-0.5 2.4-1.3 3.3-1.8 1-0.5 1.8-0.9 1.8-1 0-0.1-0.8-0.5-1.8-1-0.9-0.4-2.6-1.4-3.7-2.1-1.1-0.8-3-2.4-4.2-3.7-1.8-1.9-2.5-2.9-3.7-5.4-0.8-1.7-1.7-4.2-2.1-5.5-0.3-1.3-0.7-3.9-0.8-5.8-0.2-2.3-0.2-4.4-0.1-6.6 0.2-1.8 0.7-4.5 1.1-6 0.4-1.6 1.3-4.1 2-5.7 0.8-1.5 2.2-3.8 3.1-4.9 1-1.2 2.8-3 4.1-4.1 1.2-1 3.4-2.3 4.7-3 1.3-0.7 3.2-1.6 4.2-2 1-0.4 3.1-1 4.6-1.4 1.6-0.4 4.2-0.9 5.8-1.1 2.4-0.3 9-0.4 69.2-0.5z"/><path fill-rule="evenodd" d="m1239.3 60.9c1.1 0 3 0.2 4.1 0.4 1 0.2 2.8 0.8 3.9 1.4 1.1 0.5 2.8 1.5 3.8 2.3 0.9 0.7 2.4 2.2 3.1 3.2 0.8 1 1.8 2.7 2.4 3.8 0.5 1.1 1.2 2.8 1.4 3.8 0.4 1.5 0.5 2.8 0.5 7 0 4.6-0.1 5.5-0.7 7.9-0.4 1.5-1.2 3.7-1.8 5.1-0.5 1.3-1.6 3.1-2.3 4-0.6 1-1.8 2.2-2.6 2.8-0.7 0.6-1.8 1.3-2.5 1.6-0.7 0.4-1.9 0.8-2.7 1-0.8 0.2-2.2 0.4-3.2 0.4-1.1 0-2.6-0.2-3.6-0.5-0.9-0.2-2.6-0.9-3.8-1.5-1.1-0.6-2.9-1.8-3.9-2.7-0.9-0.9-2.4-2.6-3.1-3.7-0.8-1.2-1.9-3.3-2.5-4.7-0.6-1.4-1.4-3.7-1.8-5.2-0.4-1.4-0.9-4-1-5.6-0.3-2.1-0.3-3.7-0.1-5.5 0.2-1.5 0.6-3.5 1-4.4 0.3-1 1.1-2.5 1.6-3.4 0.5-0.9 1.7-2.4 2.7-3.3 0.9-0.8 2.6-2 3.7-2.5 1-0.5 2.7-1.1 3.6-1.3 0.9-0.2 2.6-0.4 3.8-0.4zm-237.7 3.9c11.6 0 11.6 0 12.4 0.7 0.5 0.3 1 0.9 1.2 1.3 0.2 0.4 0.2 1.2 0.1 1.8-0.1 0.6-0.4 1.2-1.8 2.4h-23.9l-0.1-2.9c0-1.6 0.1-3 0.2-3.1 0.2-0.1 5.5-0.2 11.9-0.2zm-12 27.6h20.5l0.9 0.8c0.7 0.6 0.9 0.9 0.9 2.1 0 1.2-0.1 1.4-2.1 3.3h-20.2zm238.2 20.9c2.6 0 3.1 0.1 4.7 0.9 1 0.5 2.5 1.5 3.3 2.2 0.8 0.8 1.8 2.1 2.2 2.8 0.5 0.8 1.1 2.3 1.5 3.4 0.5 1.5 0.7 2.4 0.5 3.8 0 1-0.3 2.4-0.7 3.1-0.3 0.7-1.8 2.8-3.4 4.6-1.6 1.9-3.1 3.9-3.4 4.5-0.3 0.6-0.5 1.5-0.5 1.9 0 0.5 0.2 1.3 0.5 1.9 0.3 0.5 1.1 1.5 1.9 2.2 0.7 0.7 2.1 1.6 3.1 2 0.9 0.5 2.5 1 3.5 1.2 1.1 0.2 2.7 0.3 4 0.2 1.3-0.2 4.2-0.7 6.5-1.2 2.3-0.6 6.7-1.8 9.6-2.8 2.9-1 9.4-3.3 14.5-5.1 5-1.8 10.6-3.7 12.5-4.2 1.8-0.6 4.9-1.3 6.7-1.7 1.9-0.4 4.9-0.9 6.8-1.2 2.6-0.4 5.1-0.5 11.8-0.5 6.7 0 9.1 0.1 11.6 0.5 1.8 0.3 4.7 0.8 6.5 1.2 1.8 0.3 5.1 1.2 7.3 1.8 2.3 0.7 5.9 1.9 8.2 2.8 2.2 0.8 5.3 2.2 6.8 3.1 1.6 0.9 3.4 2.2 4.2 2.9 0.7 0.8 1.7 2.1 2.1 3 0.7 1.5 0.8 1.8 0.8 5.2 0 3.1-0.1 3.6-0.6 4.3-0.3 0.4-0.9 1-1.3 1.3-0.5 0.4-1.5 0.6-4 0.8-1.9 0.1-3.9 0.4-4.5 0.6-0.6 0.2-1.7 0.8-2.5 1.3-0.7 0.5-1.7 1.6-2.3 2.4-0.5 0.8-1.1 2.1-1.3 3-0.3 1.4-0.2 1.9 0.5 5.5 0.7 3.3 0.8 4.5 0.8 8.3 0 3.4-0.2 5-0.7 7.3-0.3 1.6-0.9 3.9-1.3 5.2-0.4 1.2-1.9 4.6-3.4 7.4-1.4 2.9-3.5 6.6-4.6 8.3-1.1 1.7-2.9 4.3-4.1 5.8-1.2 1.4-3.3 3.8-4.7 5.2-1.4 1.3-3.8 3.4-5.2 4.5-1.5 1.1-4 2.7-5.5 3.6-1.6 0.9-4.2 2.1-5.9 2.7-1.7 0.7-4.6 1.5-6.3 1.9-2.7 0.6-4.1 0.7-8.1 0.7-3.3 0-5.5-0.1-7.4-0.5-1.5-0.2-3.9-0.7-5.5-1.2-1.5-0.4-4.3-1.3-6-1.9-1.8-0.7-4.5-1.9-5.9-2.6-1.5-0.8-4.2-2.4-6.1-3.6-1.8-1.3-4.7-3.4-6.5-4.8-1.7-1.4-4.4-3.9-6-5.5-1.6-1.6-3.9-4.1-5.1-5.7-1.3-1.5-3.3-4.3-4.5-6.2-1.3-1.8-3.2-5.2-4.3-7.6-1.2-2.3-3.3-7.3-4.8-11.1-1.5-3.8-3-7.5-3.4-8.4-0.5-0.8-1.3-2.1-2-2.8-0.6-0.7-1.7-1.5-2.4-1.8-0.6-0.3-2.2-0.6-3.4-0.6-1.8-0.2-2.5-0.1-4.5 0.9v3c0 2.6-0.2 3.3-0.6 4.2-0.3 0.6-1.1 1.5-1.6 2-1.1 0.8-1.3 0.9-3.3 0.9-2 0-2.3-0.1-3.5-0.9-0.6-0.5-1.5-1.4-1.9-2.1-0.5-1.1-0.7-1.7-0.8-6.7l-0.9-0.6q-0.9-0.6-2.4-0.6c-0.8 0-3.7 0.4-6.4 0.8-2.6 0.4-6.3 1-8.2 1.4-1.8 0.4-4.8 1.1-6.6 1.5-1.8 0.5-5 1.5-7.3 2.2-2.2 0.8-6 2.2-8.4 3.2-2.4 1-6.6 2.9-9.3 4.1-2.7 1.3-7.2 3.6-10 5-2.8 1.5-7.5 4.1-10.4 5.7-2.9 1.7-7.3 4.2-9.6 5.5-2.3 1.3-6.6 3.7-9.7 5.2-3 1.5-7.1 3.4-9.1 4.3-2 0.9-5.5 2.2-11.8 4.3h-3.9c-4 0-4 0-7.5-1.2-1.9-0.7-5.2-2-7.3-3.1-2.1-1-4.8-2.5-6.1-3.3-1.2-0.8-4-3-6.3-4.9-2.2-1.9-6.7-5.8-9.9-8.7-3.3-2.9-6.9-6.1-8-7-1.2-1.1-3.2-2.5-4.4-3.3-1.3-0.8-5.3-3-9.1-4.9-3.8-1.9-8.6-4.1-10.7-5.1-2.1-0.9-5.4-2.1-7.4-2.7-1.9-0.7-4.9-1.5-6.7-1.9-1.8-0.4-4.8-0.9-6.6-1.2-2.3-0.3-5.3-0.5-9.4-0.5-5.6 0-6.5 0.1-11.3 0.9-4.1 0.7-5.4 0.9-6.3 0.6-0.5-0.1-1.4-0.6-1.9-1-0.5-0.5-1.2-1.4-1.6-2.2-0.4-1-0.6-1.9-0.6-3.2 0-1 0.2-2.4 0.4-3 0.1-0.6 0.8-1.6 1.3-2.2 0.5-0.6 2.6-2.2 4.6-3.6 2.1-1.3 5-3.1 6.6-4 1.7-1 4.7-2.5 6.8-3.4 2.1-1 5.3-2.3 7.2-2.9 1.8-0.7 4.7-1.6 6.4-2 1.7-0.5 4.6-1.1 6.3-1.4 1.8-0.3 4.9-0.7 6.8-0.9 2-0.2 4.7-0.2 6.3-0.1 1.6 0.1 3.8 0.4 5.1 0.6 1.2 0.2 3.2 0.7 4.3 1.1 1.2 0.4 3.1 1.2 4.3 1.8 1.2 0.6 3.4 1.9 4.8 2.8 1.4 1 3.3 2.1 4.2 2.5 0.8 0.5 2.4 1.1 3.5 1.5 1 0.4 3 0.9 4.3 1.2 1.4 0.3 3.7 0.5 5.4 0.5 1.7 0 3.7-0.2 4.8-0.5 1.1-0.2 2.7-0.7 3.5-1.1 0.9-0.3 3.2-1.6 5-2.7 1.9-1.2 4.6-2.8 5.9-3.6 1.4-0.8 4.1-2.2 6.1-3.1 1.9-0.9 4.7-2.1 6.2-2.6 1.4-0.6 3.9-1.4 5.5-1.8 1.5-0.4 4.2-0.9 5.9-1.1 1.8-0.2 4.2-0.4 5.4-0.4 1.2 0 3.5 0.2 5.1 0.4 1.6 0.2 4 0.7 5.2 1 1.2 0.3 3.3 1 4.6 1.5 1.4 0.6 3.2 1.5 4.1 2 1 0.6 2.6 1.8 3.7 2.6 1 0.9 3 2.9 4.4 4.6 1.3 1.6 3 3.4 3.7 3.9 0.6 0.6 1.7 1.4 2.4 1.9 0.7 0.5 2 1.2 2.8 1.6 0.8 0.4 2.5 1 3.7 1.4 1.3 0.4 4 0.9 5.9 1.1 1.9 0.3 5.3 0.6 7.5 0.7 2.1 0.2 6.2 0.2 9.1 0.2 3-0.1 7.2-0.4 9.5-0.6 2.3-0.2 5.7-0.7 7.6-1 2-0.3 5.4-1 7.6-1.6 2.3-0.5 5.8-1.5 7.9-2.2 2.1-0.7 4.7-1.7 5.8-2.2 1.3-0.7 2.6-1.5 3.6-2.5 0.8-0.8 1.8-2.2 2.2-3 0.5-1 0.8-2 0.8-2.8q0-1.3-1-3.7c-0.9-2-1.1-2.8-1.2-4.9-0.1-1.9 0-3 0.4-4.2 0.2-0.9 0.8-2.4 1.3-3.3 0.5-1 1.6-2.4 2.4-3.3 0.9-0.9 2.2-1.9 3-2.4 0.8-0.4 2.1-1 3-1.3 1.1-0.4 2.2-0.5 4.5-0.4zm-39 10.2c0.9 0 2.2 0.3 2.8 0.6 0.6 0.3 1.6 0.9 2.1 1.3 0.5 0.5 1.2 1.4 1.6 2 0.4 0.6 0.8 1.7 0.8 2.5 0.2 0.8 0.1 1.9-0.1 2.7-0.2 0.7-0.7 1.7-1.2 2.4-0.5 0.6-1.6 1.4-2.4 1.8-0.9 0.4-1.8 0.7-2.7 0.7-0.8 0-2-0.3-2.7-0.6-0.7-0.3-1.9-1.1-2.7-1.8-0.7-0.7-1.6-1.8-2-2.4-0.4-0.6-0.7-1.7-0.8-2.4-0.2-0.9-0.1-1.6 0.4-2.6 0.3-0.8 1.1-1.9 1.6-2.5 0.6-0.6 1.7-1.3 2.4-1.5q1.2-0.4 2.9-0.2zm-178.8 51.6c2.9-0.1 4.5 0.1 6.2 0.5 1.2 0.3 3.3 1 4.6 1.5 1.3 0.6 3.1 1.5 4.1 2.1 0.9 0.5 2.4 1.5 3.2 2.2 0.8 0.6 2.3 1.9 3.1 2.8 0.9 0.9 2.1 2.5 2.8 3.5 0.7 1 1.7 2.9 2.3 4.3 0.6 1.3 1.3 3.4 1.6 4.6 0.3 1.2 0.7 3.3 0.9 4.7 0.2 1.6 0.3 4.3 0.2 6.9-0.1 3.5-0.3 4.9-0.9 7-0.4 1.5-1 3.4-1.3 4.3-0.3 0.8-0.9 2.1-1.3 2.8-0.4 0.7-1.6 2.1-2.6 3.1-1.1 1-2.9 2.4-4.1 3.1-1.2 0.7-2.9 1.5-3.8 1.8-0.8 0.4-2.4 0.9-3.4 1.2-1.4 0.4-2.8 0.5-6.3 0.5-3.8 0-4.9-0.1-6.9-0.7-1.3-0.3-3.8-1.1-5.5-1.6-1.7-0.6-4-1.5-5-2-1.1-0.5-2.8-1.6-3.8-2.3-1-0.8-2.6-2.2-3.5-3.1-1-1-2.3-2.7-3-3.8-0.8-1.1-1.8-2.9-2.3-4-0.6-1.1-1.3-2.9-1.7-4-0.4-1.2-0.9-3.4-1.2-4.8-0.4-2-0.4-3.6-0.3-6.2 0.1-2.6 0.3-4.1 0.8-6 0.4-1.3 1.2-3.2 1.6-4.2 0.5-1 1.5-2.5 2.1-3.4 0.7-1 1.8-2.3 2.6-3 0.7-0.7 2.1-1.8 2.9-2.3 0.9-0.6 2.5-1.5 3.7-2 1.1-0.6 2.9-1.4 3.9-1.8 1-0.4 2.8-0.9 4.1-1.2 1.5-0.4 3.4-0.5 6.2-0.5zm206.4 10.2c0.7 0.1 2.3 0.6 3.3 1.1 1.1 0.6 2.6 1.6 3.4 2.3 0.8 0.8 1.9 2.1 2.5 3.1 0.6 0.9 1.3 2.4 1.6 3.3 0.3 1 0.6 2.5 0.7 3.6 0.1 1 0.1 2.7-0.1 3.8-0.2 1.1-0.8 2.8-1.3 4-0.5 1.1-1.6 2.6-2.3 3.4-0.8 0.8-2 1.8-2.8 2.2-1.2 0.6-1.7 0.7-3.6 0.7-1.3 0-3.2-0.3-4.2-0.5-1.1-0.3-2.7-0.8-3.4-1.2-0.8-0.4-2.1-1.3-2.9-2.1-0.8-0.8-1.8-2.2-2.3-3.2-0.5-0.9-1-2.5-1.3-3.6-0.3-1.3-0.4-2.7-0.4-4 0.1-1.4 0.4-2.4 1.1-3.9 0.5-1.1 1.4-2.7 2.1-3.5 0.7-0.9 1.8-2 2.5-2.6 0.6-0.5 1.7-1.3 2.3-1.7 0.6-0.3 1.7-0.8 2.4-1 0.7-0.2 1.9-0.3 2.7-0.2zm-74.6 29.4c0.9 0 2 0.2 2.5 0.4 0.5 0.2 1.3 0.7 1.7 1.2 0.4 0.4 0.9 1.1 1 1.6 0.2 0.4 0.3 1.5 0.3 2.4 0 1.1-0.2 2-0.6 3-0.4 0.7-1.1 1.6-1.5 2-0.5 0.3-1.4 0.7-2 0.9-0.8 0.2-1.6 0.2-2.4 0-0.7-0.1-1.5-0.5-1.9-0.8-0.4-0.3-1-1-1.5-1.5-0.4-0.5-0.9-1.6-1.1-2.5-0.2-1.1-0.2-1.8 0-2.7 0.2-0.7 0.7-1.6 1.1-2.1 0.5-0.5 1.2-1.1 1.8-1.4 0.6-0.3 1.6-0.5 2.6-0.5zm90.9 12.4c2.1 0.1 2.8 0.2 4.4 1 1.1 0.5 2.5 1.5 3.2 2.2 0.8 0.6 1.9 2 2.4 3.1 0.6 1.1 1.3 3 1.6 4.3 0.3 1.4 0.6 3.6 0.7 5.1 0.2 1.6 0.1 3.5-0.1 4.6-0.2 1.1-0.6 3-1 4.1-0.4 1.2-1.1 2.9-1.7 3.8-0.5 0.9-1.6 2.3-2.4 3.1-0.8 0.7-2.5 1.8-3.8 2.4-1.2 0.6-3 1.2-4 1.4-1.2 0.2-2.2 0.2-3.5 0-0.9-0.2-2.4-0.7-3.3-1.1-0.8-0.5-2.2-1.5-3.1-2.2-0.9-0.7-2.1-1.9-2.8-2.7-0.6-0.8-1.6-2.3-2.1-3.3-0.6-1.1-1.2-2.7-1.4-3.7-0.2-1-0.4-2.8-0.4-4 0-1.2 0.1-3.1 0.4-4.1 0.2-1 0.8-2.7 1.3-3.8 0.6-1.4 1.4-2.5 2.9-3.9 1.1-1.1 3-2.7 4.3-3.5 1.2-0.9 3-1.9 4-2.2 1.5-0.5 2.3-0.6 4.4-0.6zm-151 9.5c1 0 2.6 0.1 3.5 0.3 0.8 0.2 2.3 0.7 3.3 1.1 1 0.5 2.3 1.5 3.1 2.2 0.7 0.8 1.9 2.4 2.5 3.6 0.6 1.2 1.4 3.2 1.7 4.3 0.3 1.2 0.7 3 0.8 4.1 0.1 1.3 0 2.8-0.3 4.2-0.2 1.5-0.8 3.2-1.6 4.8-0.8 1.8-1.6 3-2.7 4.2-0.9 0.9-2.1 1.9-2.7 2.3-0.7 0.3-1.9 0.9-2.8 1.1-1.2 0.4-2.3 0.5-3.4 0.4-1-0.1-2.4-0.5-3.3-0.8-0.9-0.4-2.3-1.3-3.2-2-0.8-0.7-2-2-2.6-2.9-0.6-1-1.5-2.3-1.9-3-0.4-0.7-1-2.3-1.4-3.6-0.5-1.6-0.8-3.4-0.9-5.2-0.1-1.7 0-3.5 0.2-4.4 0.1-0.8 0.6-2.3 1.1-3.2 0.4-1 1.4-2.4 2.2-3.2 0.7-0.9 1.8-1.9 2.5-2.4 0.6-0.5 1.7-1.1 2.5-1.4 0.8-0.3 2.3-0.5 3.4-0.5zm126.9 19.1c0.9 0 2.3 0.4 3.1 0.7 0.9 0.2 2.2 0.9 2.9 1.4 0.8 0.5 1.8 1.4 2.4 2 0.5 0.6 1.2 2 1.7 3 0.5 1 1.1 2.8 1.3 3.9 0.4 1.5 0.5 3 0.4 5.1-0.1 2.1-0.3 3.3-0.7 4.2-0.3 0.7-1.1 1.8-1.7 2.5-0.6 0.6-1.7 1.5-2.5 1.9-0.8 0.3-2.3 0.8-3.4 0.9-1.2 0.2-2.6 0.2-3.9 0-1.1-0.1-2.6-0.6-3.4-1-0.8-0.3-2.1-1.2-2.8-1.9-0.7-0.7-1.6-2-1.9-2.7-0.4-0.9-0.9-2.5-1.2-3.6-0.3-1.5-0.4-3-0.3-4.8q0.1-2.7 0.8-5c0.4-1.2 1.2-2.8 1.7-3.5 0.5-0.7 1.5-1.6 2.2-2 0.7-0.4 1.8-0.9 2.5-1 0.7-0.2 2-0.2 2.8-0.1zm-53.2 10.8c4-0.1 5.8 0 7.9 0.5 1.5 0.2 3.7 0.9 5 1.4 1.2 0.4 3 1.4 4 2 1 0.7 2.5 1.9 3.2 2.8 0.8 0.8 1.9 2.3 2.5 3.3 0.6 1.1 1.7 3.5 2.5 5.5 0.8 2 9.8 25.8 20.1 52.9 10.3 27.1 19 49.8 19.3 50.6 0.4 1 0.5 1.3 0.2 1.4-0.2 0.1-5.4 0.1-22.8 0l-9.3-24.3h-66.4l-9.6 24.3-11.5 0.1c-6.2 0-11.4 0-11.4-0.1 0-0.1 3.9-10 8.7-22.1 4.8-12.1 12.8-32.3 17.8-44.9 4.9-12.6 10.5-26.8 12.4-31.5 1.8-4.8 3.9-9.6 4.5-10.7 0.5-1.2 1.6-2.9 2.4-3.7 0.7-0.9 2-2.2 2.9-2.8 0.8-0.7 2.2-1.5 3.1-2 0.8-0.4 2.2-0.9 3.1-1.2 0.8-0.3 2.6-0.8 3.9-1 1.8-0.4 3.7-0.5 7.5-0.5zm-176.5 1.9h20.8v39.1c0 25 0.1 40.1 0.3 41.6 0.2 1.3 0.5 3.3 0.9 4.4 0.3 1 0.9 2.6 1.4 3.5 0.5 0.8 1.7 2.3 2.7 3.3 1.3 1.3 2.4 2.1 4.3 3 1.5 0.7 3.6 1.5 4.7 1.8 1.2 0.3 3.4 0.7 4.9 0.8 1.8 0.2 11.3 0.4 51.1 0.4v20.8l-27.1-0.2c-23.3 0-27.4-0.1-30-0.5-1.6-0.3-4.3-0.8-5.9-1.2-1.6-0.4-3.9-1.1-5-1.5-1.1-0.5-2.9-1.3-4-1.9-1.2-0.5-3-1.6-4.1-2.3-1-0.8-2.8-2.2-3.9-3.2-1-0.9-2.7-2.8-3.6-4-0.9-1.2-2.2-3.4-2.9-4.8-0.7-1.4-1.7-3.6-2.1-4.9-0.4-1.3-1-3.8-1.4-5.5-0.3-1.7-0.7-4.7-0.8-6.7-0.2-2.3-0.3-18.9-0.3-42.9zm308.6 0.2c30.8 0 31.6 0.1 34.6 0.6 1.7 0.4 4.2 1 5.6 1.4 1.4 0.4 3.7 1.2 5.1 1.8 1.4 0.6 3.5 1.8 4.8 2.6 1.2 0.8 2.9 2.2 3.9 3 0.9 0.9 2.2 2.4 3 3.4 0.8 1 2 3 2.7 4.3 0.6 1.4 1.5 3.8 1.9 5.2 0.3 1.5 0.8 4.1 1 5.7 0.2 1.7 0.3 4.3 0.2 6.3-0.1 1.8-0.4 4.4-0.7 5.6-0.2 1.3-0.7 3.2-1.1 4.2-0.4 1.1-1.2 2.9-1.9 4-0.6 1.1-2 2.8-3 3.9-1 1-2.9 2.6-4.2 3.5-1.3 0.9-3.1 1.9-4 2.3-0.9 0.4-1.6 0.8-1.6 0.8-0.1 0.1 0.8 0.6 1.7 1.1 1 0.5 2.5 1.4 3.5 2 0.9 0.6 2.6 1.9 3.7 3 1.2 1.1 2.8 3 3.7 4.3 0.9 1.3 1.9 3.2 2.2 4.1 0.4 0.9 0.9 2.6 1.2 3.8 0.3 1.2 0.7 3.6 0.9 5.3 0.2 2.4 0.2 4.2 0 6.9-0.2 2-0.6 4.6-0.9 5.8-0.3 1.2-0.9 3.1-1.4 4.3-0.4 1.3-1.4 3.2-2.2 4.4-0.8 1.2-2.1 2.9-3 3.9-0.9 1-2.5 2.4-3.5 3.2-1 0.7-2.8 1.8-4 2.4-1.1 0.7-3.2 1.6-4.6 2.1-1.4 0.6-3.6 1.3-4.9 1.6-1.3 0.3-3.7 0.8-5.4 1.1-2.6 0.4-6.7 0.4-32.6 0.5-20.1 0.1-30.4 0-31.8-0.1-1.2-0.2-2.8-0.6-3.6-1-0.7-0.4-1.6-1-2-1.5-0.5-0.4-1.1-1.4-2.1-3.6v-53.2c0-50 0-53.2 0.5-54.2 0.3-0.5 1-1.5 1.5-2.2 0.6-0.6 1.6-1.4 2.1-1.7 0.6-0.2 1.6-0.6 2.1-0.8 0.7-0.1 14-0.2 32.6-0.1zm-216.4 4.5c0.9 0.1 2.1 0.4 2.8 0.8 0.6 0.4 1.5 1.1 1.8 1.7 0.4 0.5 0.9 1.3 1.2 1.8 0.3 0.6 0.6 1.8 0.6 2.7 0.1 0.9 0 2.3-0.2 3q-0.3 1.2-1.5 2.4c-0.8 0.8-1.5 1.2-2.3 1.3-0.8 0.2-1.4 0.1-2.3-0.3-1-0.3-1.6-0.9-2.7-2.3-0.7-1-1.6-2.5-1.9-3.4-0.3-0.8-0.6-2.2-0.7-3.1-0.1-1.3-0.1-1.7 0.5-2.5 0.4-0.5 1.2-1.3 1.9-1.6 1.1-0.6 1.6-0.7 2.8-0.5zm158 25.1c0.9 0 1.9 0.3 2.6 0.6 0.6 0.3 1.5 1.1 1.9 1.8q0.8 1.1 0.9 2.6c0 0.8-0.1 1.9-0.3 2.5-0.2 0.6-0.6 1.5-1 2-0.4 0.6-1.2 1.2-1.8 1.5-0.6 0.3-1.7 0.6-2.4 0.6-0.7 0-1.5-0.2-1.9-0.3-0.3-0.2-1-0.7-1.4-1.1-0.4-0.4-1-1.4-1.3-2.2-0.3-0.8-0.6-2.1-0.6-2.8 0-0.9 0.2-1.8 0.7-2.6 0.4-0.9 1-1.5 1.9-1.9q1.2-0.6 2.7-0.7z"/><path class="a" d="m1111.8 138.3c3.4 0.1 4.2 0.2 6 0.9 1.2 0.4 3 1.2 4.1 1.9 1.1 0.6 3 2.2 4.3 3.6 1.4 1.3 3.2 3.4 4 4.8 0.9 1.3 2.2 3.6 3 5.2 0.8 1.5 1.7 3.8 2.1 5 0.4 1.3 1 3.1 1.2 4.1 0.3 1.1 0.5 3.7 0.6 6.8 0.1 3.9 0.1 5.2-0.3 6.8-0.3 1.1-0.9 2.8-1.3 3.8-0.6 1.1-1.6 2.5-2.5 3.4-1.1 1.1-2.3 2-3.8 2.7-1.9 0.9-2.6 1.1-4.5 1.2-1.6 0.1-2.8 0-3.9-0.4-1-0.2-2.3-0.8-3-1.2-0.7-0.5-1.9-1.5-2.7-2.3-0.8-0.9-2.3-2.7-3.4-4.2-1.1-1.5-2.5-3.5-3.2-4.5-0.6-1-2-2.7-3-3.8-1.1-1-2.7-2.4-3.6-3.1-0.9-0.6-3-1.9-4.6-2.7-1.7-0.8-3.7-2-4.7-2.6-0.9-0.7-2.2-1.9-3-2.7-0.7-0.8-1.7-2.3-2.2-3.3-0.8-1.6-0.9-2.2-0.9-3.9 0-1.6 0.1-2.3 0.9-3.8 0.5-1.1 1.5-2.6 2.2-3.4 0.8-0.8 2.4-2.1 3.6-2.8 1.2-0.8 3.3-2 4.5-2.5 1.2-0.6 3.4-1.4 4.8-1.8 1.4-0.4 3.2-0.9 3.9-1 0.8-0.1 3.2-0.2 5.4-0.2zm188.1 25.1c1.8 0.1 4.6 0.3 6.2 0.7 1.5 0.2 3.6 0.8 4.6 1.2 1 0.5 2.9 1.5 4.2 2.4 1.3 0.8 3.4 2.5 4.5 3.7 1.2 1.1 2.8 3.1 3.7 4.4 0.8 1.2 2.1 3.5 2.8 5 0.8 1.7 1.5 3.6 1.7 4.7 0.1 1 0.3 3.4 0.3 5.4 0 2.1-0.2 4.8-0.5 6.2-0.2 1.4-0.7 3.6-1.1 4.8-0.4 1.2-1.3 3.7-2.2 5.3-0.9 1.7-2.2 4-3 5.1-0.7 1-2.2 2.5-3.2 3.3-1 0.8-2.7 1.9-3.8 2.5-1.2 0.6-3.1 1.3-4.2 1.6-1.2 0.4-3.5 0.8-5.1 0.9-2 0.2-4 0.2-6.2 0-1.8-0.1-4.7-0.5-6.6-0.8-1.8-0.3-4.3-0.9-5.5-1.2-1.1-0.3-3-0.9-4.1-1.4-1.1-0.4-3.2-1.4-4.5-2.1-1.4-0.6-3.8-2.1-5.4-3.1-1.8-1.2-3.7-2.8-5-4.1-1-1.2-2.5-3.1-3.2-4.3-0.7-1.2-1.7-3.5-2.2-5.1-0.8-2.2-1-3.3-1.1-5.6-0.1-2.5 0-3.1 0.6-5.2 0.5-1.3 1.2-3.1 1.6-4.1 0.5-0.9 1.3-2.2 1.8-2.9 0.4-0.7 1.4-1.9 2.1-2.7 0.7-0.7 2.4-2.2 3.7-3.2 1.3-1.1 3.6-2.8 5.2-3.8 1.5-1 4.2-2.5 5.9-3.3 1.7-0.9 4.1-2 5.5-2.4 1.3-0.5 3.4-1.1 4.7-1.3 1.4-0.3 2.9-0.5 3.4-0.6 0.6 0 2.5-0.1 4.4 0zm-218.4 10c1.1 0 2.6 0.2 3.8 0.6 1.1 0.3 2.8 1 3.7 1.5 0.9 0.5 2.5 1.5 3.5 2.3 1 0.8 2.4 2.1 3.1 3 0.7 0.8 1.7 2.1 2.3 3 0.6 0.8 1.6 2.6 2.2 4 1.2 2.4 1.3 2.7 1.3 5 0 2-0.2 2.6-0.8 3.9-0.4 0.8-1.2 1.9-1.8 2.4-0.6 0.5-2 1.3-3.1 1.9-1.8 0.8-2.1 0.9-4.9 0.9-2.6 0-3.2-0.1-5.3-0.9-1.4-0.5-3.4-1.5-4.6-2.2-1.2-0.7-3-2-4-3-1.1-1-2.5-2.5-3.1-3.5-0.7-0.9-1.6-2.4-2-3.3-0.7-1.5-0.8-2.1-0.8-4.2 0-2.3 0.1-2.8 0.9-4.4 0.5-1 1.5-2.6 2.4-3.5 0.8-0.9 1.9-1.9 2.4-2.2 0.6-0.4 1.5-0.8 2-1 0.6-0.2 1.8-0.3 2.8-0.3zm-69.6 11.4c1.4 0 3.5 0.3 4.5 0.5 1.1 0.2 2.8 0.9 3.8 1.4 1 0.4 2.4 1.4 3.1 2 0.8 0.6 1.9 1.9 2.6 2.8 0.7 0.9 1.6 2.2 1.9 2.8 0.3 0.6 0.9 2.1 1.3 3.2 0.4 1.2 1 3.4 1.3 4.8 0.4 2 0.6 3.7 0.6 6.6 0 3.1-0.1 4.6-0.6 6.7-0.3 1.5-0.8 3.2-1.1 3.8-0.3 0.6-1.2 1.7-1.9 2.4-0.8 0.7-2.2 1.7-3.2 2.2-1 0.6-2.8 1.3-3.8 1.7-1.6 0.5-2.6 0.6-4.8 0.6-2.1 0-3.6-0.2-5.8-0.7-1.6-0.5-4.1-1.3-5.6-1.9-1.5-0.6-3.2-1.4-3.9-1.8-0.7-0.5-2-1.5-3-2.4-0.9-0.9-2.1-2.3-2.7-3.1-0.5-0.9-1.4-2.4-1.8-3.4-0.5-1-1.1-2.6-1.4-3.6-0.4-1.4-0.5-2.8-0.5-5.4 0-2.6 0.1-4 0.5-5.3 0.3-1 1-2.8 1.6-4 0.6-1.1 1.7-2.7 2.4-3.5 0.8-0.7 2.3-2 3.3-2.7 1.1-0.7 3-1.7 4.2-2.1 1.2-0.6 3.1-1.1 4.3-1.4 1.4-0.2 3.2-0.3 4.7-0.2zm144.1 102.8c0.8 0.1 1.8 0.4 2.5 0.7 0.7 0.4 1.5 1.1 1.9 1.7 0.4 0.6 5.1 12.7 10.4 26.9 5.4 14.1 9.7 25.8 9.7 25.9 0 0.1-11.5 0.1-25.5 0.1-16.8-0.1-25.5-0.2-25.5-0.4 0.1-0.1 4.6-11.7 10.2-25.7 5.5-14 10.4-26 10.8-26.7 0.4-0.6 1.2-1.4 1.7-1.6 0.5-0.3 1.3-0.6 1.7-0.7 0.5-0.2 1.4-0.2 2.1-0.2zm135.2 1.1c11 0 21.2 0.1 22.7 0.2 1.6 0.2 3.5 0.5 4.3 0.6 0.7 0.2 2.3 0.8 3.4 1.3 1.3 0.6 2.6 1.5 3.5 2.4 0.9 0.8 1.9 2.3 2.4 3.3 0.5 0.9 1.1 2.5 1.3 3.5 0.3 0.9 0.5 2.9 0.5 4.3 0 1.4-0.2 3.2-0.5 4.1-0.2 0.9-0.6 2.1-0.9 2.8-0.3 0.6-1.1 1.6-1.7 2.3-0.5 0.6-1.7 1.5-2.5 2.1-0.8 0.5-2.4 1.2-3.5 1.6-1.1 0.3-3 0.8-4.1 0.9-1.3 0.2-10.8 0.3-47.2 0.2v-14.1c0-13.2 0.1-14.1 0.6-14.6 0.2-0.4 0.7-0.7 1.1-0.7 0.3-0.1 9.6-0.2 20.6-0.2zm1.5 47c23.1 0.1 23.5 0.1 25.9 0.7 1.3 0.4 3.2 1 4.2 1.5 1 0.6 2.4 1.6 3.2 2.4 0.8 0.7 1.8 2.1 2.3 3 0.4 1 0.9 2.6 1.1 3.6 0.3 1 0.4 2.8 0.4 4 0 1.3-0.2 3.2-0.4 4.3-0.2 1-0.7 2.6-1.1 3.3-0.4 0.8-1.3 2.2-2.2 3.1-1.1 1.2-2 1.9-3.7 2.7-1.3 0.6-3.3 1.3-4.5 1.5-1.8 0.4-5.6 0.5-24.9 0.5-12.4 0-22.9-0.1-23.2-0.2-0.2-0.1-0.6-0.6-0.7-1.1-0.2-0.5-0.3-6.6-0.3-14.9-0.1-8.3 0-14.2 0.2-14.3 0.1-0.1 10.8-0.2 23.7-0.1z"/></svg>