<svg version="1.2" xmlns="http://www.w3.org/2000/svg" viewBox="0 0 1750 405" width="164" height="38">
	<title>projectps_server-wordmark-svg</title>
	<style>
		.s0 { fill: #ff0000;stroke: #000000;stroke-width: 11 } 
		.s1 { fill: #ffffff;stroke: #000000;paint-order:stroke fill markers;stroke-linejoin: round;stroke-width: 22 } 
		.s2 { fill: #ffffff } 
		.s3 { fill: #000000 } 
	</style>
	<g id="Layer 3">
		<path id="Path 2" class="s0" d="m224 84c0.9 0 2.7 0 4 0.1 1.2 0 3.1 0 4.1 0 1.1 0.1 2.8 0.2 4 0.2 1.2 0.1 3 0.2 4.2 0.2 1.2 0.1 3.3 0.3 4.8 0.4 1.5 0.1 3.7 0.3 5 0.4 1.2 0.2 3.2 0.4 4.4 0.5 1.2 0.2 3.2 0.4 4.5 0.6 1.3 0.2 3.6 0.5 5.2 0.8 1.6 0.2 3.9 0.6 5.2 0.8 1.3 0.2 3.6 0.7 5.1 1 1.5 0.2 4 0.8 5.6 1.1 1.5 0.3 4 0.9 5.6 1.3 1.5 0.4 3.9 1 5.3 1.3 1.3 0.4 3.7 1.1 5.2 1.5 1.5 0.4 4 1.2 5.4 1.6 1.4 0.5 3.8 1.3 5.2 1.7 1.4 0.5 3.3 1.2 4.3 1.6 1.1 0.4 3 1.2 4.4 1.7 1.4 0.6 3.4 1.4 4.5 1.9 1.1 0.5 2.7 1.2 3.6 1.6 0.9 0.4 2.7 1.4 4.1 2.1 1.5 0.7 3 1.5 3.5 1.7 0.4 0.3 1.7 0.9 2.8 1.5 1.2 0.6 3 1.5 4 2.1 1.1 0.6 2.5 1.5 3.1 1.8 0.7 0.4 2.1 1.3 3.1 2 1.1 0.6 2.5 1.5 3.1 1.9 0.6 0.4 1.6 1.1 2.3 1.5 0.7 0.5 2 1.4 2.9 2 0.8 0.6 2.1 1.5 2.8 1.9 0.7 0.5 2.2 1.7 3.4 2.6 1.2 0.9 3 2.3 4 3.1 1 0.8 2.3 1.9 2.8 2.4 0.6 0.4 1.7 1.4 2.4 2 0.7 0.6 1.9 1.7 2.7 2.4 0.8 0.8 2.4 2.3 3.6 3.6 1.3 1.2 2.9 2.9 3.7 3.8 0.8 0.9 2 2.2 2.6 2.9 0.6 0.7 1.6 1.9 2.2 2.6 0.6 0.8 1.4 1.9 1.8 2.5 0.5 0.6 1.1 1.5 1.4 1.9 0.4 0.5 1 1.5 1.5 2.1 0.4 0.7 1.1 1.8 1.5 2.6 0.5 0.7 1.1 1.8 1.4 2.3 0.3 0.6 0.5 1 0.5 1 0 0.1-17.1 0.1-76 0.1l-1-0.7c-0.5-0.4-1.4-1.2-2-1.6-0.7-0.5-1.8-1.3-2.5-1.8-0.7-0.5-1.9-1.3-2.6-1.8-0.7-0.5-1.9-1.3-2.6-1.8-0.8-0.4-2-1.2-2.8-1.7-0.7-0.4-1.8-1.1-2.3-1.3-0.5-0.3-1.6-1-2.6-1.5-0.9-0.5-2.7-1.4-3.9-2.1-1.3-0.6-3-1.4-3.7-1.8-0.7-0.3-2-0.9-2.9-1.3-0.9-0.4-2.3-1-3.2-1.3-0.8-0.3-2.1-0.9-2.9-1.2-0.8-0.2-2.2-0.8-3.3-1.1-1-0.4-3-1.1-4.4-1.5-1.3-0.4-3.1-1-3.9-1.2-0.8-0.2-2.6-0.7-4.1-1.1-1.4-0.3-3.3-0.8-4.2-1-0.9-0.2-2.3-0.5-3-0.6-0.7-0.2-1.8-0.4-2.3-0.5-0.6-0.1-2-0.3-3.2-0.5-1.2-0.2-3.2-0.5-4.3-0.6-1.1-0.2-3-0.4-4.2-0.5-1.2-0.1-2.6-0.3-3.3-0.3-0.6-0.1-2-0.2-3.1-0.2-1.1-0.1-2.8-0.2-3.7-0.2-1-0.1-4.2-0.1-7.1-0.1-3 0-6.4 0.1-7.6 0.1-1.3 0.1-3.4 0.2-4.8 0.3-1.4 0.1-3.5 0.3-4.7 0.4-1.2 0.1-3.3 0.4-4.6 0.5-1.4 0.2-3.6 0.5-5.1 0.7-1.4 0.3-3.6 0.6-5 0.9-1.3 0.2-3.5 0.7-4.8 1-1.4 0.3-3.5 0.7-4.7 1-1.2 0.3-3.1 0.8-4.3 1.1-1.1 0.3-3 0.8-4.2 1.2-1.2 0.4-3.1 1-4.2 1.3-1.2 0.4-2.9 1-4 1.4-1 0.4-2.7 1-3.8 1.4-1 0.4-2.7 1.2-3.8 1.6-1.1 0.5-2.8 1.3-3.8 1.7-0.9 0.5-2.5 1.3-3.3 1.8-0.9 0.5-2.5 1.4-3.5 2-0.9 0.6-2.5 1.6-3.4 2.2-0.9 0.6-2.3 1.5-3 2-0.7 0.5-1.8 1.2-2.5 1.7-0.6 0.5-2 1.5-3 2.2-1 0.8-2.4 1.9-3 2.4-0.6 0.5-1.7 1.4-2.4 2-0.6 0.6-1.7 1.6-2.3 2.2-0.6 0.5-1.9 1.8-2.8 2.7-0.9 0.8-2.6 2.5-3.6 3.6-1.1 1.2-2.4 2.6-2.8 3.2-0.5 0.6-1.2 1.6-1.7 2.2-0.4 0.7-1.2 1.8-1.7 2.5-0.4 0.7-1.1 1.8-1.4 2.4-0.4 0.5-0.9 1.5-1.3 2.1-0.3 0.6-0.9 1.8-1.3 2.6-0.4 0.8-1 2-1.2 2.5-0.3 0.6-0.8 1.8-1.1 2.7-0.4 0.8-0.9 2.4-1.3 3.4-0.3 1.1-0.8 2.7-1 3.6-0.3 0.9-0.6 2.3-0.8 3.1-0.2 0.9-0.4 2.1-0.5 2.8-0.1 0.8-0.3 1.9-0.4 2.6 0 0.6-0.1 1.7-0.2 2.2 0 0.6-0.1 2.4-0.1 3.9 0 1.5 0 3.3 0 4 0.1 0.7 0.2 2 0.3 2.9 0.1 1 0.3 2.4 0.4 3.2 0.2 0.9 0.4 2.3 0.6 3.2 0.2 0.8 0.5 2 0.7 2.7 0.2 0.6 0.5 1.8 0.8 2.6 0.3 0.9 0.7 2.2 1 2.9 0.3 0.8 0.8 2 1.1 2.8 0.4 0.8 1 2.1 1.3 2.8 0.4 0.7 1 2 1.5 2.8 0.5 0.9 1.2 2.2 1.7 3 0.5 0.7 1.3 2 1.8 2.7 0.5 0.8 1.4 2 2 2.8 0.6 0.8 1.5 1.9 2 2.5 0.5 0.6 1.6 1.8 2.3 2.6 0.7 0.8 2.2 2.3 3.2 3.3 1.1 1 2.5 2.4 3.3 3 0.7 0.7 1.9 1.7 2.6 2.3 0.7 0.6 1.8 1.5 2.4 2 0.6 0.5 1.6 1.3 2.2 1.8 0.7 0.5 1.8 1.3 2.5 1.9 0.8 0.6 2.3 1.7 3.5 2.5 1.1 0.7 2.8 1.9 3.7 2.4 0.9 0.6 2.2 1.4 3 1.8 0.7 0.5 2.1 1.2 3 1.7 0.9 0.5 2.6 1.5 3.9 2.1 1.3 0.7 3.1 1.6 4 2 0.9 0.4 2.4 1.1 3.3 1.5 0.9 0.4 2.5 1 3.6 1.5 1.1 0.4 2.8 1.1 4 1.5 1.1 0.4 2.8 1 3.9 1.4 1.1 0.3 2.8 0.9 3.9 1.2 1.1 0.3 2.8 0.8 3.8 1.1 1.1 0.2 2.9 0.7 4.1 0.9 1.2 0.3 3.2 0.7 4.4 1 1.3 0.2 3.2 0.6 4.2 0.7 1 0.2 2.5 0.4 3.4 0.6 0.9 0.1 2.2 0.3 3 0.4 0.8 0.1 2.2 0.2 3.1 0.3 1 0.1 2.5 0.3 3.4 0.3 0.8 0.1 2.3 0.2 3.2 0.3 0.9 0 1.8 0.1 2.2 0.1 0.3 0 1.7 0.1 3.1 0.1 1.4 0 3.6 0.1 4.8 0.1 1.3 0 3.6-0.1 5.3-0.1 1.6 0 4-0.1 5.2-0.2 1.2-0.1 3.2-0.2 4.4-0.3 1.2-0.1 3.1-0.3 4.3-0.4 1.2-0.1 2.9-0.3 3.9-0.5 1-0.1 2.7-0.3 3.8-0.5 1.1-0.2 2.9-0.4 3.9-0.6 0.9-0.2 2.8-0.5 4-0.8 1.2-0.2 3.3-0.7 4.6-0.9 1.3-0.3 3.1-0.8 4.1-1 1-0.3 2.5-0.7 3.5-1 1-0.2 2.5-0.7 3.4-0.9 0.9-0.3 2.6-0.9 3.7-1.2 1.2-0.4 3-1.1 4.1-1.5 1-0.3 2.6-0.9 3.5-1.3 0.9-0.4 2.3-1 3.2-1.3 0.8-0.4 2.3-1 3.3-1.5 1-0.5 2.6-1.3 3.5-1.7 0.8-0.5 2.2-1.3 3-1.8 0.8-0.4 2.1-1.2 2.9-1.7 0.7-0.5 1.8-1.1 2.2-1.4 0.5-0.3 1.7-1.1 2.6-1.7 0.9-0.6 2.4-1.7 3.3-2.3 0.9-0.7 2.3-1.8 3.2-2.5 1-0.7 2.1-1.7 2.7-2.1 0.5-0.5 1.5-1.3 2.2-1.9 0.6-0.6 1.8-1.7 2.6-2.5 0.8-0.7 1.9-1.9 2.6-2.5 0.6-0.7 1.7-1.8 2.3-2.6 0.6-0.7 1.7-1.9 2.4-2.7 0.6-0.8 1.7-2.2 2.4-3.2 0.7-0.9 1.8-2.4 2.3-3.3 0.6-0.9 1.5-2.2 1.9-2.9 0.4-0.7 1-1.8 1.4-2.5 0.3-0.6 0.9-1.9 1.4-2.7 0.4-0.9 1-2.3 1.3-3.1 0.4-0.7 0.9-2.1 1.7-4.4h64l-0.1 0.2c0 0.1 0 0.4-0.1 0.6 0 0.2-0.2 1.3-0.4 2.5-0.1 1.2-0.5 3-0.7 4.1-0.2 1.1-0.6 2.9-0.9 3.9-0.3 1.1-0.6 2.3-0.7 2.7-0.1 0.4-0.5 1.6-0.8 2.5-0.3 1-0.8 2.4-1.1 3.2-0.3 0.8-0.8 2.2-1.2 3.1-0.4 0.9-1.1 2.5-1.6 3.5-0.5 1-1.4 2.7-1.9 3.6-0.5 1-1.1 2.1-1.4 2.5-0.3 0.5-0.9 1.5-1.4 2.3-0.5 0.8-1.2 1.9-1.7 2.5-0.4 0.7-1.1 1.7-1.6 2.3-0.4 0.6-1.3 1.8-1.9 2.7-0.7 0.8-1.8 2.2-2.4 3-0.7 0.7-1.7 2-2.4 2.8-0.6 0.7-1.8 2.1-2.6 2.9-0.8 0.9-2.5 2.7-3.7 4-1.4 1.4-3.6 3.5-5.8 5.5-1.9 1.7-4.1 3.7-4.9 4.5-0.8 0.7-2.1 1.9-2.9 2.6-0.9 0.7-2.2 1.9-3 2.5-0.8 0.7-2.1 1.7-2.9 2.4-0.8 0.6-2.3 1.7-3.3 2.5-1 0.8-2.6 2-3.6 2.7-1 0.7-2.6 1.8-3.6 2.4-0.9 0.7-2.4 1.6-3.2 2.1-0.8 0.5-2.3 1.4-3.2 2-1 0.5-2.4 1.4-3.3 1.9-0.9 0.5-2.3 1.3-3.3 1.8-0.9 0.5-2.9 1.5-4.5 2.3-1.5 0.8-3.6 1.8-4.7 2.3-1 0.4-2.7 1.2-3.7 1.6-1 0.5-2.8 1.2-4 1.7-1.2 0.5-3.8 1.5-5.8 2.3-2 0.7-4.5 1.7-5.6 2-1.1 0.4-3 1.1-4.3 1.5-1.2 0.4-2.9 0.9-3.7 1.1-0.8 0.3-2.4 0.7-3.6 1.1-1.1 0.3-3.1 0.8-4.3 1.1-1.2 0.3-3.3 0.8-4.6 1.1-1.2 0.3-3.4 0.8-4.9 1.1-1.4 0.3-3.4 0.7-4.5 0.9-1 0.2-3.1 0.5-4.6 0.8-1.4 0.2-3.9 0.6-5.4 0.8-1.6 0.2-4 0.6-5.3 0.7-1.4 0.2-3.7 0.5-5.1 0.6-1.4 0.2-3.8 0.4-5.2 0.5-1.5 0.1-3.6 0.3-4.7 0.4-1.1 0-3 0.1-4 0.2-1.1 0-2.3 0.1-2.6 0.1-0.3 0-1.6 0.1-2.9 0.1-1.3 0.1-5.2 0.1-8.7 0.1-3.4 0-7.4 0-8.8-0.1-1.4 0-3.4-0.1-4.4-0.1-1.1-0.1-2.9-0.2-4.1-0.3-1.2 0-3.1-0.2-4.4-0.3-1.3-0.1-3.1-0.2-4.2-0.3-1-0.1-2.7-0.3-3.9-0.4-1.1-0.1-2.9-0.4-4.1-0.5-1.1-0.2-3-0.4-4.2-0.6-1.2-0.2-3.5-0.5-5.1-0.8-1.5-0.2-3.7-0.6-4.7-0.8-1.1-0.2-2.9-0.6-4.1-0.8-1.1-0.3-3.1-0.7-4.4-1-1.3-0.3-3.5-0.8-4.9-1.2-1.4-0.4-3.5-0.9-4.7-1.3-1.1-0.3-3.1-0.9-4.5-1.3-1.4-0.5-3.3-1.1-4.3-1.4-1-0.4-2.3-0.8-2.9-1.1-0.6-0.2-1.7-0.6-2.4-0.8-0.7-0.3-1.7-0.7-2.4-1-0.6-0.2-1.7-0.7-2.5-1.1-0.8-0.3-1.9-0.8-2.6-1.1-0.6-0.3-1.6-0.7-2.1-1-0.6-0.3-2-1-3.3-1.6-1.2-0.6-2.3-1.2-2.3-1.2-0.1-0.1-1.6-0.9-3.4-1.8-1.8-0.9-3.9-2-4.7-2.4-0.9-0.5-2.4-1.3-3.4-1.9-1-0.5-2.7-1.5-3.6-2.1-1-0.5-2.5-1.4-3.2-1.9-0.7-0.4-2.1-1.3-3-1.9-0.9-0.6-2.3-1.6-3.3-2.2-0.9-0.6-2.3-1.7-3.2-2.3-0.9-0.7-2.2-1.7-3.1-2.3-0.8-0.7-2.2-1.8-3-2.5-0.9-0.7-2.2-1.8-3-2.4-0.7-0.7-2-1.7-2.7-2.4-0.8-0.7-2.4-2.1-3.5-3.2-1.1-1-3.5-3.4-5.4-5.3-1.8-1.8-4-4.1-4.8-5.1-0.9-0.9-2.1-2.3-2.7-3.1-0.6-0.7-1.8-2.2-2.6-3.2-0.8-1.1-1.9-2.5-2.4-3.2-0.6-0.6-1.4-1.8-2-2.6-0.5-0.8-1.4-2.1-1.9-2.9-0.6-0.8-1.4-2.1-2-2.9-0.5-0.8-1.3-2.1-1.9-3-0.5-0.8-1.4-2.3-2-3.3-0.6-0.9-1.6-2.7-2.3-3.8-0.7-1.1-1.9-3.3-2.7-4.7-0.8-1.5-1.8-3.3-2.3-4-0.5-0.8-1.3-2.2-2-3.1-0.6-1-1.7-2.6-2.5-3.6-0.7-1-1.8-2.4-2.4-3.1-0.6-0.7-1.6-1.9-2.2-2.6-0.7-0.7-1.9-2-2.8-2.9-0.8-0.9-2-2-2.6-2.5-0.5-0.4-1.3-1.1-1.7-1.5-0.4-0.3-1.2-0.9-1.7-1.3-0.5-0.5-1.5-1.1-2-1.6-0.6-0.4-1.6-1.1-2.2-1.5-0.6-0.4-1.7-1.1-2.4-1.5-0.7-0.4-2-1.1-2.8-1.6-0.9-0.4-2.1-1-2.7-1.3-0.7-0.3-1.3-0.6-1.3-0.6 0 0 0.5-0.4 1.1-0.7 0.6-0.4 1.9-1.1 2.7-1.6 0.9-0.6 2.4-1.6 3.5-2.2 1-0.7 2.4-1.7 3.1-2.3 0.7-0.5 1.8-1.4 2.3-1.8 0.6-0.5 1.4-1.1 1.8-1.5 0.5-0.4 1.4-1.2 2-1.8 0.7-0.7 1.9-1.9 2.7-2.7 0.8-0.8 2-2.1 2.7-2.9 0.7-0.8 1.6-1.9 2-2.5 0.5-0.6 1.2-1.5 1.6-2.1 0.4-0.5 1.2-1.6 1.6-2.2 0.5-0.7 1.4-2.3 2.1-3.4 0.8-1.2 1.8-2.9 2.3-3.8 0.5-0.9 1.3-2.3 1.8-3.2 0.4-0.8 1-2 1.4-2.7 0.3-0.6 0.9-2 1.4-3 0.4-0.9 1.6-3.7 2.7-6.1 1.1-2.4 2.3-5.3 2.8-6.3 0.5-1.1 1.4-2.8 1.9-3.7 0.5-1 1.4-2.6 1.9-3.5 0.5-0.9 1.4-2.4 2-3.3 0.6-0.9 1.5-2.4 2.2-3.4 0.6-0.9 1.6-2.3 2.2-3.2 0.6-0.8 1.6-2.2 2.2-3 0.6-0.8 1.7-2.1 2.5-3 0.7-0.9 1.7-2.2 2.3-2.8 0.6-0.7 1.8-2 2.7-3 1-1 2.5-2.6 3.3-3.5 0.9-0.8 2.2-2.1 2.9-2.7 0.6-0.7 1.9-1.8 2.6-2.5 0.8-0.7 2.1-1.8 2.8-2.4 0.7-0.6 2.1-1.7 3-2.4 0.9-0.8 2.4-1.9 3.4-2.6 0.9-0.8 2.3-1.8 3.1-2.3 0.8-0.5 2.3-1.6 3.4-2.2 1-0.7 2.5-1.7 3.3-2.2 0.8-0.4 2-1.2 2.7-1.6 0.7-0.5 2.3-1.4 3.5-2.1 1.2-0.7 2.9-1.6 3.8-2.2 1-0.5 3-1.6 4.5-2.4 1.6-0.8 4-2 5.4-2.7 1.4-0.7 3.2-1.6 4-1.9 0.8-0.4 2.3-1.1 3.3-1.5 1-0.5 2.7-1.2 3.7-1.6 1.1-0.5 2.6-1.1 3.4-1.4 0.8-0.3 2.1-0.8 2.7-1 0.7-0.3 2.1-0.8 3.2-1.1 1.1-0.4 2.8-1 3.9-1.3 1.1-0.3 2.5-0.7 3.1-0.9 0.6-0.2 1.8-0.5 2.7-0.8 0.9-0.2 2.3-0.6 3.1-0.8 0.9-0.2 2.4-0.6 3.4-0.9 1.1-0.2 2.8-0.6 3.9-0.9 1.1-0.2 3.2-0.7 4.8-1 1.5-0.3 3.9-0.8 5.3-1 1.4-0.3 3.7-0.6 5.1-0.9 1.4-0.2 3.6-0.5 4.8-0.7 1.3-0.1 3.2-0.4 4.3-0.5 1.1-0.1 2.9-0.3 4.2-0.4 1.2-0.2 2.9-0.3 3.8-0.4 0.9-0.1 2.2-0.2 2.8-0.2 0.7-0.1 2.3-0.2 3.6-0.2 1.3-0.1 3-0.2 3.8-0.2 0.8-0.1 1.6-0.1 1.8-0.1 0.1 0 2.1-0.1 4.3-0.1 2.3 0 4.2-0.1 4.2-0.1 0 0 0.7 0 1.6 0z"/>
	</g>
	<path id="Gaming Club" fill-rule="evenodd" class="s1" d="m228 269.2q-20.5 0-37.4-4.2-16.8-4.2-29.1-11.8-12.3-7.6-19.1-17.9-6.5-10.3-6.5-22.3 0-11.9 6.8-22.2 7-10.3 19.6-17.8 12.8-7.6 29.8-11.8 17.1-4.2 37.5-4.2 14 0 26.8 2.3 12.8 2.4 23.4 6.4 10.5 4.1 17.3 9.4l-23.4 15.2q-9.7-5.7-20.8-8.9-11-3.2-23.9-3.2-11.8 0-21.8 2.6-9.8 2.5-17.3 7.3-7.3 4.7-11.6 11.1-4 6.4-4 13.8 0 7.3 4.3 13.7 4.5 6.4 12 11.2 7.8 4.7 18.1 7.5 10.3 2.7 22.1 2.7 8.3 0 15.6-1.6 7.5-1.7 13-4.5 5.8-2.8 9.1-6.6 3-3.4 3.2-7.4h-44.9v-19.6h80.9q0.5 1.7 0.7 4.2 0.3 2.5 0.3 4.8 0.2 2.3 0.2 3.9 0 10.6-6 19.4-6 8.8-17.1 15.1-11 6.4-25.9 10-14.8 3.4-31.9 3.4zm43.7-41.2h4.8l-4.8-4.4v3.8q0 0.3 0 0.6zm172.8 39.7h-33.6v-8q-0.8 0.4-1.5 0.8-7.6 4-16.4 6.4-8.8 2.3-18.6 2.3-12.5 0-22.8-3.1-10-3.1-16.1-8.6-5.8-5.6-5.8-13 0-6.4 3.8-11.2 3.8-5 11.1-8.1 7.5-3.3 18.5-5 11.3-1.7 26.2-1.7h21.6v-2.4q0-6.5-6.6-9.9-6.2-3.6-17-3.6-10.3 0-18.4 2.5-8 2.5-15 7.8l-21.9-13.1q12.1-7.8 26.9-12 15-4.2 32.6-4.2 16.1 0 27.9 3.1 12.1 3.1 18.6 9.4 6.5 6.2 6.5 15.7zm-55.7-34.4q-6.1 0-10.8 0.6-4.6 0.6-7.8 2-3 1.4-4.8 3.3-1.5 1.9-1.5 4.4 0 2.6 2.3 4.6 2.2 2.1 6 3.1 4 1.1 9 1.1 7.3 0 13.8-1.5 6.8-1.6 12.1-4.4 2.1-1.1 3.8-2.3v-10.9zm123.5 34.4h-35.9v-82.3h34.4l0.5 10.9q1-0.8 2-1.6 4.8-3.4 10.8-5.8 6-2.3 12.8-3.7 7.1-1.4 13.8-1.4 10.6 0 18.6 2 8.3 2 14.1 6.4 3.9 2.9 6.5 7.1 2.9-2.8 7-5.4 5.1-3.1 11.3-5.3 6.3-2.3 13.1-3.6 6.8-1.2 13.3-1.2 15.6 0 25.6 3.9 10.3 3.9 15.3 11.5 5.3 7.5 5.3 18.7v49.8h-35.6v-48.3q0-8.4-5.6-12.4-5.2-4.1-16.3-4.1-5.8 0-10.8 1.3-5 1.1-8.5 3.3-3.5 2.1-5.6 4.9-2 2.8-2 6.3v49h-35.6v-48.6q0-7.8-5.8-12-5.5-4.2-16.1-4.2-5.5 0-10.5 1.3-5 1.1-8.6 3.3-3.5 2-5.5 4.9-2 2.8-2 6.3zm-1-71.5q-3.1 2.7-5 5.8l5.3-0.9zm78.6 3q-0.7 0.6-1.3 1.3l-1.8 2.3 5.3 0.7q-1-2.3-2.2-4.3zm127.8-13.9h35.6v82.3h-35.6zm17.8-17q-10.6 0-16.3-3.1-5.8-3.1-5.8-8.9 0-5.3 5.8-8.5 6-3.4 16.3-3.4 10 0 15.8 3.1 5.8 3.1 5.8 8.8 0 5.5-5.8 8.8-5.8 3.2-15.8 3.2zm56.2 99.3v-82.3h34.4l0.7 10.7q1.4-1.1 3.1-2.2 7.3-4.6 17.3-7.4 10.1-2.8 20.9-2.8 15.1 0 25.1 3.7 10.3 3.7 15.3 11.4 5.3 7.4 5.3 18.6v50.3h-35.7v-48.7q0-5.6-2.5-9.3-2.5-3.8-7.5-5.5-5-1.7-12.8-1.5-6 0-11.1 1.2-5 1.1-9 3.3-3.8 2.2-5.8 5-2 2.8-2 6.2v49.3c-3.7 0-24.9 0-27.9 0q-4.5 0-7.8 0zm35.1-71.6q-4.8 3.7-6.7 8l7.1-1.9zm181.6 107.4q-15.5 0-31.1-2.8-15.3-2.8-24.9-7.5l12.6-15.8q8 3.4 18.3 5.4 10.6 2 21.6 2 13.3 0 21.6-2.5 8.5-2.5 12.6-7.3 4.2-5 4.2-12.4v-5.9q-1.1 0.8-2.5 1.7-6.8 4.2-16.8 6.8-10 2.7-21.1 2.7-18.3 0-32.9-5.3-14.3-5.5-22.6-14.8-8.3-9.3-8.3-21.5 0-12.4 8.3-22.1 8.3-9.6 22.4-15.1 14.3-5.4 32.1-5.4 7.5 0 14.3 1.1 7 1 12.8 3.1 6 1.8 10.8 4.2 2.5 1.2 4.5 2.6l0.5-9.3h34.4v76.1q0 9.9-5 17.9-4.8 7.8-14 13.2-9.1 5.3-22.1 8.1-13.1 2.8-29.7 2.8zm34.9-46.8q4.8-3.6 6.1-7.5l-6.1-0.9zm1-62.1l-0.5 9.6 7.6-1.4q-0.8-2.8-3.8-5.6-1.4-1.3-3.3-2.6zm-34.9 55.4q10.6 0 18.4-3 8-3 12.3-8.3 4.5-5.2 4.5-12.2 0-7.2-4.5-12.5-4.3-5.3-12.3-8.2-7.8-3.2-18.4-3.2-10.3 0-18.1 3.2-7.7 2.9-12.3 8.2-4.2 5.3-4.2 12.3 0 7 4.2 12.4 4.6 5.3 12.3 8.3 7.8 3 18.1 3zm263.7 19.3q-19.3 0-35.7-4.1-16-4.2-28.1-11.7-11.8-7.6-18.3-17.9-6.3-10.2-6.3-22.5 0-12 6.8-22.1 6.8-10.3 19.1-17.9 12.3-7.7 28.6-11.9 16.6-4.2 35.9-4.2 12.6 0 24.6 2.2 12.3 2 22.4 6.2 10.3 4.1 17.6 9.5l-23.7 16.4q-8.7-5.9-19-9-10.3-3.2-22.1-3.2-10.8 0-20.4 2.5-9.3 2.4-16.3 6.9-7 4.5-11 10.7-4.1 6.2-4.1 13.9 0 7.7 3.8 14.1 4 6.3 11.3 10.8 7.3 4.3 17.3 6.8 10.3 2.4 22.6 2.4 8.1 0 15.3-1.4 7.6-1.4 14.1-3.9 6.5-2.5 11.6-5.8l18.3 18.2q-5.8 4.2-16.1 7.6-10.3 3.5-22.8 5.5-12.6 1.9-25.4 1.9zm126.8-1.6h-35.6v-115.2h35.6zm80.4 1.6q-14.3 0-24.9-3.9-10.5-4.1-16.3-11.4-5.5-7.4-5.5-17.7v-50.9h35.6v46.8q0 8.8 6.6 13.7 6.7 4.9 18.5 4.9 6.1 0 10.8-1.1 5.1-1.3 8.6-3.5 3.5-2.1 5.5-5.1 2-2.9 2-6.5v-49.2h35.7v82.3h-33.9l-0.7-11.4q-1.8 1.6-4.1 3-7 4.7-16.8 7.3-9.8 2.7-21.1 2.7zm42-13q4-3.4 5.9-7.4l-6.2 1.9zm147 12.9q-8.7 0-17-1.5-8.3-1.7-15.1-4.4-5.7-2.2-9.8-5l-0.7 9.1h-33.9v-114.9h35.9v42.2q3.9-2.9 9.5-5.2 6.5-2.8 14.3-4.3 7.8-1.6 15.8-1.6 17.6 0 31.2 5.6 13.5 5.5 21.3 15.3 8.1 9.6 8.1 21.9 0 12.5-7.8 22.1-7.8 9.7-21.4 15.3-13.3 5.4-30.4 5.4zm-41.9-10.9l0.8-10.2-8.1 2q1.3 3.7 5.8 7.2 0.7 0.5 1.5 1zm1.3-63.6q-0.7 0.4-1.3 0.9-4.3 3.4-5.8 7.2l7.1 1.7zm32.1 55.7q10.1 0 17.3-2.9 7.6-3.1 11.8-8.4 4.3-5.5 4.3-12.6 0-7-4.3-12.3-4-5.5-11.5-8.4-7.5-3.2-17.6-3.2-9.8 0-17.3 3.2-7.5 2.9-11.8 8.4-4.3 5.3-4.3 12.3 0 7.1 4.3 12.6 4.3 5.3 11.8 8.4 7.5 2.9 17.3 2.9z"/>
	<g id="Layer 2">
		<path id="Path 0" class="s2" d="m1627.9 242c2.1 0 3.6 0.7 4.6 2.3 0.8 1.2 1.5 2.9 1.5 3.7 0 0.8-0.5 3.2-1 5.3-0.8 3-1.8 4-5 5.5-2.2 0.9-4 2-4 2.5 0 0.4-1.5 0.7-3.3 0.7-2.5 0.1-3.5-0.5-4.5-2.7-1.2-2.5-1.1-3.3 0.6-6.8 1.1-2.2 3.3-5.5 5-7.3 2.1-2.3 3.9-3.2 6.1-3.2z"/>
		<path id="Path 1" class="s3" d="m226.5 185.4c6.1 0.3 14.4 1.2 18.5 2 4.1 0.9 8.2 2.2 9 2.9 0.8 0.8 3.8 2 6.5 2.6 3.8 0.8 5.2 1.7 5.7 3.4 0.4 1.2 0.3 3-0.3 3.9-0.8 1.7-2.4 1.7-36.4 0.5l-2.2 3.4c-1.1 1.9-3.3 4-4.7 4.6-1.4 0.7-2.8 2.4-3.1 3.8-0.4 1.8 0.2 3 2 4.5 1.4 1.1 2.9 3.8 3.5 6 0.6 2.2 0.7 5.9 0.3 8.2-0.4 2.9-1.7 5.3-3.9 7.5-2.7 2.8-3.9 3.3-7.8 3.3-3.8 0-5.2-0.6-8.4-3.4-2-1.8-5.7-4.4-8.2-5.6-2.5-1.3-7.1-4.8-10.3-7.9-3.2-3.1-6.2-7-6.7-8.9-0.7-2-0.7-4.4 0-6.5 0.5-2 3.9-6.1 8.7-10.7 7.2-6.9 8.5-7.8 17.3-10.8 9-3.1 10.1-3.2 20.5-2.8zm1446.5 24.6l6.2 5.5c3.8 3.3 6.8 6.9 7.5 9 1.1 2.9 1 4.1-0.1 6.7-0.7 1.8-2.2 4.1-3.2 5-1.1 1-3.3 2.5-5.1 3.5-1.7 1-5.1 2.9-7.5 4.2-2.5 1.4-6 2.4-8.3 2.4-2.2 0-7.8-1.4-12.5-3.2-4.7-1.8-9.6-4.3-10.8-5.4-1.3-1.2-3-3.4-3.8-5-0.8-1.5-1.4-4.3-1.4-6.2 0-1.9 0.6-4.7 1.4-6.3 0.8-1.5 2.5-3.7 3.8-4.9 1.2-1.2 4.1-2.9 6.3-3.7 2.6-1 8-1.5 27.5-1.6z"/>
		<path id="Path 2" class="s2" d="m1047.2 192c0.7 0 1.8 0.4 2.3 0.8 0.6 0.4 2.3 2.7 3.8 5.2 2.4 4.1 2.5 4.7 1.2 6.8-1.2 1.7-2.4 2.2-6 2.2-2.5 0-5.5-0.4-6.8-0.8-1.2-0.5-2.5-1.8-3-2.8-0.4-1.2-0.2-2.7 0.7-3.9 0.7-1.1 2.5-3.2 3.9-4.8 1.4-1.5 3.2-2.7 3.9-2.7zm581.5 2.5c0.7 0.3 1.8 0.5 2.3 0.5 0.5 0 1.7 1.1 2.5 2.5 1 1.7 1.2 3.1 0.6 4.3-0.5 0.9-3 2.8-10.2 6.7l-3.7-2c-2.7-1.5-3.8-2.7-4-4.8-0.1-2.1 0.4-2.9 2.5-3.8 1.6-0.7 4.1-1.8 5.8-2.5 1.7-0.8 3.6-1.1 4.2-0.9zm-805.8 0.5c0.6 0 1.8 0.3 2.7 0.7 0.9 0.5 2.3 2 3 3.5 0.8 1.6 1.2 3.5 0.9 4.3-0.3 0.8-1.7 1.8-3.3 2.2-1.5 0.3-3.7 1.7-5 3-1.2 1.2-2.7 2.3-3.2 2.3-0.6 0-1.7-0.7-2.5-1.5-0.8-0.8-1.5-1.9-1.5-2.5 0-0.6 0.4-2 0.9-3.3 0.5-1.2 2.3-3.7 4-5.5 1.6-1.7 3.5-3.2 4-3.2zm-313.7 1.1c0.5-0.1 1.8 0.3 3 0.7 1.3 0.5 2.6 1.6 3 2.5 0.5 1 0.3 2.6-0.2 3.7-0.8 1.6-2 2-5.5 2-3.7 0-4.6-0.4-5.4-2.3-0.4-1.2-0.6-2.8-0.2-3.6 0.3-0.8 1.5-1.8 2.6-2.2 1.1-0.4 2.3-0.8 2.7-0.8zm82.8 1.9q4 0 6 2c1.6 1.6 1.8 2.4 1 4-0.6 1.1-2.2 2.3-3.8 2.6-1.5 0.4-4.2 0.4-6 0-1.8-0.3-3.6-1.5-4.2-2.6-0.8-1.6-0.6-2.4 1-4q2-2 6-2zm-317.7 25.2c1.1 0.2 2.9 1.4 3.9 2.8 1.3 1.6 1.8 3.3 1.4 4.8-0.3 1.2-1.4 2.4-2.4 2.7-0.9 0.3-2.7-0.2-4-1-1.2-0.8-2.6-2.3-3.2-3.2-0.6-1.3-0.4-2.5 0.7-4.1 0.9-1.4 2.3-2.2 3.6-2zm773.9 22c5.1 0.3 6.4 0.7 8 2.8 1.5 1.9 1.9 3.4 1.4 6.3-0.5 3.1-1.2 4-4.4 5.3-3 1.3-4.4 1.4-7.5 0.5-2-0.6-4.6-2.3-5.7-3.8-1.2-1.6-2.1-3.8-2-5 0-1.3 0.9-3.2 2-4.3 1.7-1.7 3.1-2 8.2-1.8zm472.3 0.9c1.1 0 4 0.4 6.5 0.9 2.5 0.5 4.8 1.5 5.2 2.2 0.4 0.7 0.8 1.6 0.8 2.1 0 0.4-0.9 1.6-2 2.7-1.6 1.6-3.3 2-8.5 2-5.2 0-6.9-0.4-8.5-2-1.1-1.1-2-2.3-2-2.8 0-0.4 0.4-1.2 0.9-1.9 0.5-0.7 1.9-1.6 3.2-2.2 1.3-0.5 3.3-1 4.4-1z"/>
		<path id="Path 3" class="s3" d="m1013.5 207.1c2.2-0.1 5.6 0.4 7.5 1 1.9 0.7 4.3 1.9 5.4 2.8 1 0.9 3.3 3.9 5.2 6.6 2.5 3.8 3.4 6.1 3.4 9.5 0 3-0.6 5.4-2 7.3-1.3 1.8-4.7 3.7-10.3 5.8-5.9 2.2-9.2 2.9-11.7 2.5-1.9-0.3-7.4-1-12.3-1.6-4.8-0.5-9.5-1.4-10.4-1.9-1-0.5-2.8-2-4.1-3.3-1.4-1.4-2.5-4-2.8-6.8-0.4-3.4 0-5.3 1.5-7.7 1.2-1.8 3.3-3.8 4.8-4.5 1.6-0.7 4.5-2.7 6.6-4.5 2.7-2.4 5-3.5 8.5-3.9 2.6-0.3 5.2-0.7 5.7-0.9 0.5-0.2 2.8-0.4 5-0.4z"/>
	</g>
</svg>