<svg version="1.2" xmlns="http://www.w3.org/2000/svg" viewBox="0 0 1750 405" width="164" height="38"><style>.a{fill:#fff}</style><path fill-rule="evenodd" class="a" d="m497.5 205.7v35.7q0 17.2 15.7 17.2 12.1 0 15.9-11.5 1.1-3.6 2.6-4.9 1.7-1.2 5.3-1.2h43.3q1.9 0 3.1 1.4 1.5 1.3 1.5 3.2 0 18.5-10.6 31-19.5 23.3-60.9 23.3-32.4 0-51.8-14.2-19.3-14.4-19.3-44.1v-36.1q0-29 19.8-43.7 19.7-14.6 51.3-14.6 41.4 0 60.9 23.3 10.6 12.5 10.6 31 0 1.9-1.5 3.4-1.2 1.3-3.1 1.3h-43.3q-3.4 0-5.1-1.3-1.5-1.3-2.8-4.9-4-11.4-15.9-11.4-15.7 0-15.7 17.1zm103.4 46.1v-58.6q0-2.3 1.7-4 1.6-1.7 4-1.7h40.5q2.3 0 4 1.7 1.7 1.7 1.7 4v57.1q0 11.7 10.6 11.7 10.7 0 10.7-11.7v-57.1q0-2.3 1.7-4 1.7-1.7 4-1.7h40.3q2.3 0 4 1.7 1.7 1.7 1.7 4v98.9q0 2.3-1.7 4-1.7 1.7-4 1.7h-37.1q-2.4 0-4.1-1.7-1.7-1.7-1.7-4v-7q-9.9 14.8-35.2 14.8-17.4 0-29.3-12-11.8-12.4-11.8-36.1zm269.8-28.5q-3.4 0-6 2.6-2.3 2.5-2.3 7.6v58.6q0 2.3-1.7 4-1.7 1.7-4 1.7h-37.4q-2.3 0-4-1.7-1.7-1.7-1.7-4v-57.1q0-11.7-8.5-11.7-3.6 0-6.1 2.8-2.4 2.6-2.4 7.2v58.8q0 2.3-1.7 4-1.7 1.7-4 1.7h-38.2q-2.3 0-4-1.7-1.7-1.7-1.7-4v-98.9q0-2.3 1.7-4 1.7-1.7 4-1.7h35q2.3 0 4 1.7 1.7 1.7 1.7 4v7q4.3-5.5 12.1-10 8.7-4.8 19.5-4.8 23.4 0 31.5 17.4 5-7.5 14-12.3 8.9-5.1 18.4-5.1 17.2 0 28 12.1 11.1 12.1 11.1 36v58.6q0 2.3-1.7 4-1.7 1.7-4.1 1.7h-37.3q-2.3 0-4-1.7-1.7-1.7-1.7-4v-57.1q0-11.7-8.5-11.7zm126.3 11.9v14.9q0 7.2 1.9 10.4 1.9 3.2 5.9 3.2 4.1 0 5.5-1.3 1.5-1.5 3-5.3 1.7-4 6.2-4h41.3q2.4 0 4.1 1.7 1.7 1.7 1.7 4.4 0 2.8-1.9 7.4-2 4.7-6.6 10.6-4.7 6-11.5 11.1-6.8 4.9-17.8 8.3-11 3.3-24.4 3.3-26.5 0-43.1-13.7-16.3-14-16.3-38.7v-9.7q0-24.6 16.3-38.4 16.6-14 43.1-14 15.7 0 28.4 4.8 12.8 4.7 19.5 11.7 7.1 6.8 10.7 13.4 3.6 6.6 3.6 10.2 0 3.4-1.7 5.1-1.7 1.7-4.1 1.7h-41.3q-4.1 0-6.2-4.3-3-6.3-7.8-6.3-8.5 0-8.5 13.5zm83.3 14.7v-14.5q0-24.1 17.2-37.1 17.2-12.9 44.3-12.9 27.2 0 44.4 12.9 17.2 13 17.2 37.1v14.5q0 24.4-16.6 37.3-16.5 12.7-45 12.7-28.4 0-45-12.7-16.5-12.9-16.5-37.3zm71.1 1.7v-17.9q0-8-2.1-11.2-2.2-3.2-7.5-3.2-5.3 0-7.4 3.2-2.1 3.2-2.1 11.2v17.9q0 8.5 2.1 11.4 2.1 3 7.4 3 5.3 0 7.5-3.2 2.1-3.2 2.1-11.2zm116.5-58.4v7.4q14.9-13.1 33.1-13.1h10.2q2.4 0 4.1 1.7 1.7 1.7 1.7 4v33.1q0 2.4-1.7 4.1-1.7 1.6-4.1 1.6h-27.3q-5.8 0-9.2 2.8-3.1 2.6-3.6 7v50.3q0 2.3-1.7 4-1.7 1.7-4 1.7h-40.3q-2.3 0-4-1.7-1.7-1.7-1.7-4v-98.9q0-2.3 1.7-4 1.7-1.7 4-1.7h37.1q2.4 0 4.1 1.7 1.6 1.7 1.6 4zm62.9 57.7v-16.7q0-23.8 12.7-36.3 12.8-12.5 31-12.5 18.5 0 29.5 9.9v-42.4q0-2.3 1.7-4 1.7-1.7 4-1.7h39.3q2.3 0 4 1.7 1.7 1.7 1.7 4v139.2q0 2.3-1.7 4-1.7 1.7-4 1.7h-36.1q-2.3 0-4-1.7-1.7-1.7-1.7-4v-6.4q-11 14.2-31.2 14.2-20.1 0-32.7-11.8-12.5-12.1-12.5-37.2zm73.2-1.2v-15.7q-0.6-10.7-10.6-10.7-10.6 0-10.6 12.4v14q0 12.3 10.6 12.3 10.6 0 10.6-12.3z"/><path class="a" d="m362.3 244.3c0 63.7-47.4 115.4-111.1 115.4-63.7 0-111.2-51.7-111.2-115.4 0-63.7 111.2-200.3 111.2-200.3 0 0 111.1 136.6 111.1 200.3z"/></svg>