<svg version="1.2" baseProfile="tiny-ps" xmlns="http://www.w3.org/2000/svg" viewBox="0 0 1750 405" width="164" height="38">
	<title>goosenest_server-wordmark-nogoose</title>
	<style>
		tspan { white-space:pre }
		.shp0 { fill: #ffffff } 
	</style>
	<path id="GooseNest " fill-rule="evenodd" class="shp0" d="M248.71 304.42C235.94 304.42 224.36 302.03 213.98 297.25C203.61 292.46 194.73 285.66 187.35 276.89C179.97 267.9 174.18 257.14 169.99 244.57C166 231.79 164 217.52 164 201.77C164 186.2 166.1 172.12 170.29 159.56C174.48 146.99 180.37 136.31 187.95 127.53C195.53 118.55 204.71 111.77 215.48 107.18C226.26 102.39 238.13 100 251.1 100C257.69 100 263.68 100.7 269.06 102.09C274.65 103.49 279.64 105.38 284.03 107.78C288.42 109.97 292.31 112.47 295.7 115.26C299.29 118.06 302.39 120.85 304.98 123.64L296.9 132.92C291.71 127.33 285.53 122.55 278.34 118.55C271.16 114.56 262.18 112.57 251.4 112.57C240.03 112.57 229.85 114.66 220.86 118.85C211.89 123.04 204.21 129.03 197.83 136.81C191.64 144.4 186.85 153.67 183.46 164.65C180.07 175.62 178.37 187.99 178.37 201.77C178.37 215.52 179.97 228.01 183.16 239.17C186.35 250.15 190.94 259.52 196.93 267.32C203.11 275.09 210.6 281.17 219.38 285.57C228.36 289.77 238.43 291.85 249.61 291.85C258.59 291.85 266.97 290.56 274.74 287.96C282.73 285.38 289.11 281.67 293.91 276.89L293.91 215.52L246.61 215.52L246.61 203.85L307.08 203.85L307.08 281.97C300.89 288.57 292.81 293.96 282.83 298.15C273.05 302.34 261.68 304.42 248.71 304.42ZM408.55 304.42C399.97 304.42 391.78 302.73 384 299.34C376.22 295.95 369.34 291.06 363.35 284.67C357.56 278.28 352.87 270.51 349.28 261.33C345.89 251.95 344.19 241.27 344.19 229.29C344.19 217.33 345.89 206.65 349.28 197.27C352.87 187.7 357.56 179.71 363.35 173.33C369.34 166.93 376.22 162.06 384 158.66C391.78 155.27 399.97 153.58 408.55 153.58C417.13 153.58 425.31 155.27 433.09 158.66C441.07 162.06 447.96 166.93 453.74 173.33C459.73 179.71 464.42 187.7 467.81 197.27C471.4 206.65 473.2 217.33 473.2 229.29C473.2 241.27 471.4 251.95 467.81 261.33C464.42 270.51 459.73 278.28 453.74 284.67C447.96 291.06 441.07 295.95 433.09 299.34C425.31 302.73 417.13 304.42 408.55 304.42ZM408.55 292.76C415.73 292.76 422.41 291.26 428.6 288.27C434.99 285.08 440.37 280.69 444.76 275.09C449.35 269.51 452.94 262.83 455.54 255.03C458.13 247.26 459.43 238.67 459.43 229.29C459.43 219.71 458.13 211.03 455.54 203.25C452.94 195.47 449.35 188.78 444.76 183.21C440.37 177.42 434.99 173.02 428.6 170.03C422.41 166.84 415.73 165.24 408.55 165.24C401.36 165.24 394.68 166.84 388.49 170.03C382.31 173.02 376.92 177.42 372.33 183.21C367.94 188.78 364.45 195.47 361.85 203.25C359.26 211.03 357.96 219.71 357.96 229.29C357.96 238.67 359.26 247.26 361.85 255.03C364.45 262.83 367.94 269.51 372.33 275.09C376.92 280.69 382.31 285.08 388.49 288.27C394.68 291.26 401.36 292.76 408.55 292.76ZM568.68 304.42C560.1 304.42 551.92 302.73 544.14 299.34C536.36 295.95 529.47 291.06 523.48 284.67C517.7 278.28 513.01 270.51 509.42 261.33C506.02 251.95 504.33 241.27 504.33 229.29C504.33 217.33 506.02 206.65 509.42 197.27C513.01 187.7 517.7 179.71 523.48 173.33C529.47 166.93 536.36 162.06 544.14 158.66C551.92 155.27 560.1 153.58 568.68 153.58C577.26 153.58 585.44 155.27 593.23 158.66C601.21 162.06 608.09 166.93 613.88 173.33C619.87 179.71 624.55 187.7 627.95 197.27C631.54 206.65 633.33 217.33 633.33 229.29C633.33 241.27 631.54 251.95 627.95 261.33C624.55 270.51 619.87 278.28 613.88 284.67C608.09 291.06 601.21 295.95 593.23 299.34C585.44 302.73 577.26 304.42 568.68 304.42ZM568.68 292.76C575.87 292.76 582.55 291.26 588.74 288.27C595.12 285.08 600.51 280.69 604.9 275.09C609.49 269.51 613.08 262.83 615.67 255.03C618.27 247.26 619.57 238.67 619.57 229.29C619.57 219.71 618.27 211.03 615.67 203.25C613.08 195.47 609.49 188.78 604.9 183.21C600.51 177.42 595.12 173.02 588.74 170.03C582.55 166.84 575.87 165.24 568.68 165.24C561.5 165.24 554.81 166.84 548.63 170.03C542.44 173.02 537.05 177.42 532.46 183.21C528.07 188.78 524.58 195.47 521.99 203.25C519.39 211.03 518.1 219.71 518.1 229.29C518.1 238.67 519.39 247.26 521.99 255.03C524.58 262.83 528.07 269.51 532.46 275.09C537.05 280.69 542.44 285.08 548.63 288.27C554.81 291.26 561.5 292.76 568.68 292.76ZM711.16 304.42C700.38 304.42 690.5 302.53 681.52 298.73C672.55 294.75 664.86 290.06 658.48 284.67L666.26 274.79C672.45 279.98 679.03 284.38 686.01 287.96C693 291.35 701.68 293.06 712.06 293.06C723.43 293.06 731.91 290.26 737.5 284.67C743.28 278.89 746.18 272.21 746.18 264.61C746.18 260.22 745.08 256.34 742.89 252.95C740.89 249.56 738.2 246.65 734.8 244.27C731.41 241.86 727.62 239.77 723.43 237.97C719.44 236.19 715.35 234.48 711.16 232.89C705.77 230.9 700.28 228.79 694.69 226.6C689.31 224.4 684.42 221.82 680.03 218.83C675.64 215.63 672.05 211.94 669.25 207.75C666.66 203.35 665.36 198.06 665.36 191.89C665.36 186.7 666.36 181.8 668.35 177.21C670.35 172.43 673.34 168.34 677.33 164.95C681.33 161.36 686.11 158.56 691.7 156.57C697.49 154.57 704.17 153.58 711.76 153.58C719.34 153.58 726.72 154.97 733.91 157.77C741.29 160.56 747.57 164.15 752.76 168.53L745.58 177.81C740.79 174.22 735.7 171.22 730.31 168.84C724.93 166.24 718.54 164.95 711.16 164.95C705.57 164.95 700.78 165.74 696.79 167.34C692.8 168.74 689.41 170.64 686.61 173.02C684.02 175.43 682.02 178.21 680.63 181.4C679.43 184.59 678.83 187.8 678.83 190.99C678.83 195.18 679.73 198.77 681.52 201.77C683.52 204.56 686.11 207.04 689.31 209.25C692.5 211.44 696.09 213.44 700.08 215.22C704.27 216.83 708.46 218.42 712.65 220.02C718.24 222.21 723.83 224.4 729.42 226.6C735 228.79 739.99 231.5 744.38 234.69C748.97 237.88 752.66 241.86 755.46 246.65C758.25 251.25 759.65 257.03 759.65 264.02C759.65 269.4 758.55 274.59 756.35 279.59C754.36 284.38 751.27 288.66 747.08 292.46C742.89 296.04 737.8 298.94 731.81 301.14C725.82 303.33 718.94 304.42 711.16 304.42ZM852.14 304.43C842.96 304.42 834.28 302.73 826.1 299.34C818.11 295.95 811.13 291.06 805.14 284.67C799.16 278.09 794.37 270.21 790.78 261.02C787.38 251.65 785.69 241.08 785.69 229.29C785.69 217.52 787.38 206.95 790.78 197.56C794.37 188.2 799.06 180.3 804.84 173.93C810.83 167.34 817.52 162.36 824.9 158.96C832.48 155.37 840.25 153.58 848.25 153.58C865.41 153.58 878.88 159.36 888.65 170.94C898.43 182.51 903.32 198.87 903.32 220.02C903.32 221.82 903.32 223.62 903.32 225.41C903.32 227.21 903.12 229 902.72 230.8L799.16 230.79C799.36 239.77 800.75 248.15 803.35 255.94C805.94 263.52 809.53 270.1 814.12 275.7C818.91 281.08 824.6 285.38 831.18 288.57C837.76 291.56 845.15 293.06 853.33 293.06C861.12 293.06 868.1 291.96 874.29 289.77C880.67 287.37 886.56 284.18 891.95 280.19L897.33 290.36C891.55 293.76 885.16 296.95 878.18 299.94C871.39 302.94 862.71 304.43 852.14 304.43ZM799.16 220.02L890.75 220.02C890.75 201.47 886.96 187.7 879.37 178.72C871.79 169.54 861.52 164.95 848.54 164.95C842.36 164.95 836.47 166.24 830.89 168.84C825.3 171.22 820.21 174.83 815.62 179.62C811.23 184.4 807.54 190.18 804.55 196.97C801.75 203.75 799.96 211.44 799.16 220.02ZM956.9 300.84L943.73 300.84L943.73 103.59L958.1 103.59L1041.31 242.77L1063.46 281.98L1064.65 281.98C1064.25 272.4 1063.86 262.83 1063.46 253.25C1063.06 243.67 1062.86 234.09 1062.86 224.51L1062.86 103.59L1076.03 103.59L1076.03 300.84L1061.66 300.84L978.45 161.66L956.3 122.45L955.1 122.45C955.5 132.02 955.9 141.4 956.3 150.58C956.7 159.56 956.9 168.84 956.9 178.42L956.9 300.84ZM1187.07 304.43C1177.9 304.43 1169.22 302.74 1161.03 299.34C1153.05 295.95 1146.07 291.06 1140.08 284.68C1134.1 278.09 1129.31 270.21 1125.71 261.03C1122.32 251.65 1120.63 241.08 1120.63 229.3C1120.63 217.53 1122.32 206.95 1125.71 197.57C1129.31 188.2 1134 180.31 1139.78 173.93C1145.77 167.34 1152.45 162.36 1159.84 158.96C1167.42 155.37 1175.2 153.58 1183.18 153.58C1200.34 153.58 1213.81 159.36 1223.59 170.94C1233.37 182.51 1238.26 198.87 1238.26 220.02C1238.26 221.82 1238.26 223.62 1238.26 225.41C1238.26 227.21 1238.06 229 1237.66 230.8L1134.1 230.8C1134.29 239.78 1135.69 248.16 1138.29 255.94C1140.88 263.52 1144.47 270.11 1149.06 275.7C1153.85 281.08 1159.54 285.38 1166.12 288.57C1172.71 291.56 1180.09 293.06 1188.27 293.06C1196.05 293.06 1203.04 291.96 1209.22 289.77C1215.61 287.37 1221.5 284.18 1226.88 280.19L1232.27 290.36C1226.49 293.76 1220.1 296.95 1213.12 299.94C1206.33 302.94 1197.65 304.43 1187.07 304.43ZM1134.1 220.02L1225.69 220.02C1225.69 201.47 1221.9 187.7 1214.31 178.72C1206.73 169.54 1196.45 164.95 1183.48 164.95C1177.3 164.95 1171.41 166.25 1165.82 168.84C1160.24 171.23 1155.15 174.83 1150.56 179.62C1146.17 184.4 1142.48 190.19 1139.48 196.98C1136.69 203.76 1134.89 211.44 1134.1 220.02ZM1311.89 304.43C1301.12 304.43 1291.24 302.54 1282.26 298.74C1273.28 294.75 1265.6 290.06 1259.21 284.68L1266.99 274.8C1273.18 279.99 1279.76 284.38 1286.75 287.97C1293.73 291.36 1302.41 293.06 1312.79 293.06C1324.16 293.06 1332.64 290.26 1338.23 284.68C1344.02 278.89 1346.91 272.21 1346.91 264.62C1346.91 260.23 1345.81 256.34 1343.62 252.95C1341.62 249.56 1338.93 246.66 1335.54 244.27C1332.14 241.87 1328.35 239.78 1324.16 237.98C1320.17 236.19 1316.08 234.49 1311.89 232.89C1306.5 230.9 1301.02 228.8 1295.43 226.61C1290.04 224.41 1285.15 221.82 1280.76 218.83C1276.37 215.63 1272.78 211.94 1269.99 207.75C1267.39 203.36 1266.1 198.07 1266.1 191.89C1266.1 186.7 1267.09 181.81 1269.09 177.22C1271.08 172.43 1274.08 168.34 1278.07 164.95C1282.06 161.36 1286.85 158.56 1292.44 156.57C1298.22 154.57 1304.91 153.58 1312.49 153.58C1320.07 153.58 1327.46 154.97 1334.64 157.77C1342.02 160.56 1348.31 164.15 1353.5 168.54L1346.31 177.82C1341.52 174.23 1336.44 171.23 1331.05 168.84C1325.66 166.25 1319.27 164.95 1311.89 164.95C1306.3 164.95 1301.51 165.75 1297.52 167.34C1293.53 168.74 1290.14 170.64 1287.35 173.03C1284.75 175.43 1282.76 178.22 1281.36 181.41C1280.16 184.6 1279.56 187.8 1279.56 190.99C1279.56 195.18 1280.46 198.77 1282.26 201.77C1284.25 204.56 1286.85 207.05 1290.04 209.25C1293.23 211.44 1296.83 213.44 1300.82 215.23C1305.01 216.83 1309.2 218.43 1313.39 220.02C1318.97 222.22 1324.56 224.41 1330.15 226.61C1335.74 228.8 1340.73 231.5 1345.12 234.69C1349.7 237.88 1353.4 241.87 1356.19 246.66C1358.98 251.25 1360.38 257.04 1360.38 264.02C1360.38 269.41 1359.28 274.6 1357.09 279.59C1355.09 284.38 1352 288.67 1347.81 292.46C1343.62 296.05 1338.53 298.94 1332.54 301.14C1326.56 303.33 1319.67 304.43 1311.89 304.43ZM1431.62 304.43C1424.63 304.43 1418.85 303.43 1414.26 301.44C1409.67 299.24 1405.98 296.25 1403.18 292.46C1400.39 288.67 1398.39 284.08 1397.2 278.69C1396.2 273.3 1395.7 267.42 1395.7 261.03L1395.7 168.54L1373.25 168.54L1373.25 158.36L1396 157.17L1397.8 115.56L1409.17 115.56L1409.17 157.17L1450.77 157.17L1450.77 168.54L1409.17 168.54L1409.17 262.23C1409.17 266.82 1409.47 271.01 1410.07 274.8C1410.87 278.39 1412.16 281.58 1413.96 284.38C1415.75 286.97 1418.15 289.07 1421.14 290.66C1424.34 292.06 1428.43 292.76 1433.41 292.76C1436.21 292.76 1439.2 292.36 1442.39 291.56C1445.79 290.56 1448.78 289.47 1451.37 288.27L1454.97 299.04C1450.77 300.64 1446.58 301.94 1442.39 302.94C1438.2 303.93 1434.61 304.43 1431.62 304.43Z" />
</svg>