<svg version="1.2" baseProfile="tiny-ps" xmlns="http://www.w3.org/2000/svg" viewBox="0 0 1750 405" width="164" height="38">
	<title>goosenest_server-wordmark-svg</title>
	<defs>
		<image width="722" height="722" id="img1" href="https://kckarnige.is-a.dev/custom-server-logos/res/rounded_goose.png"/>
	</defs>
	<style>
		tspan { white-space:pre }
		.shp0 { fill: #ffffff } 
	</style>
	<use id="Layer 1" href="#img1" transform="matrix(0.353,0,0,0.353,41,125)"/>
	<path id="GooseNest " fill-rule="evenodd" class="shp0" d="M436.05 354.59C423.28 354.59 411.7 352.2 401.33 347.41C390.95 342.62 382.07 335.83 374.69 327.05C367.31 318.07 361.52 307.3 357.33 294.73C353.34 281.96 351.34 267.69 351.34 251.93C351.34 236.36 353.44 222.29 357.63 209.72C361.82 197.15 367.71 186.47 375.29 177.69C382.87 168.71 392.05 161.93 402.83 157.34C413.6 152.55 425.47 150.16 438.44 150.16C445.03 150.16 451.02 150.86 456.4 152.25C461.99 153.65 466.98 155.54 471.37 157.94C475.76 160.13 479.65 162.63 483.04 165.42C486.63 168.22 489.73 171.01 492.32 173.8L484.24 183.08C479.05 177.49 472.87 172.71 465.68 168.71C458.5 164.72 449.52 162.73 438.74 162.73C427.37 162.73 417.19 164.82 408.21 169.01C399.23 173.2 391.55 179.19 385.17 186.97C378.98 194.56 374.19 203.83 370.8 214.81C367.41 225.78 365.71 238.16 365.71 251.93C365.71 265.69 367.31 278.17 370.5 289.34C373.69 300.32 378.28 309.69 384.27 317.48C390.45 325.26 397.94 331.34 406.72 335.73C415.7 339.93 425.77 342.02 436.95 342.02C445.93 342.02 454.31 340.72 462.09 338.13C470.07 335.54 476.46 331.84 481.25 327.05L481.25 265.69L433.95 265.69L433.95 254.02L494.42 254.02L494.42 332.14C488.23 338.73 480.15 344.12 470.17 348.31C460.39 352.5 449.02 354.59 436.05 354.59ZM595.89 354.59C587.31 354.59 579.12 352.9 571.34 349.5C563.56 346.11 556.68 341.22 550.69 334.84C544.9 328.45 540.21 320.67 536.62 311.49C533.23 302.11 531.53 291.44 531.53 279.46C531.53 267.49 533.23 256.81 536.62 247.44C540.21 237.86 544.9 229.88 550.69 223.49C556.68 217.1 563.56 212.22 571.34 208.82C579.12 205.43 587.31 203.74 595.89 203.74C604.47 203.74 612.65 205.43 620.43 208.82C628.41 212.22 635.3 217.1 641.08 223.49C647.07 229.88 651.76 237.86 655.15 247.44C658.74 256.81 660.54 267.49 660.54 279.46C660.54 291.44 658.74 302.11 655.15 311.49C651.76 320.67 647.07 328.45 641.08 334.84C635.3 341.22 628.41 346.11 620.43 349.5C612.65 352.9 604.47 354.59 595.89 354.59ZM595.89 342.92C603.07 342.92 609.75 341.42 615.94 338.43C622.33 335.24 627.71 330.85 632.1 325.26C636.69 319.67 640.28 312.99 642.88 305.2C645.47 297.42 646.77 288.84 646.77 279.46C646.77 269.88 645.47 261.2 642.88 253.42C640.28 245.64 636.69 238.95 632.1 233.37C627.71 227.58 622.33 223.19 615.94 220.2C609.75 217 603.07 215.41 595.89 215.41C588.7 215.41 582.02 217 575.83 220.2C569.65 223.19 564.26 227.58 559.67 233.37C555.28 238.95 551.79 245.64 549.19 253.42C546.6 261.2 545.3 269.88 545.3 279.46C545.3 288.84 546.6 297.42 549.19 305.2C551.79 312.99 555.28 319.67 559.67 325.26C564.26 330.85 569.65 335.24 575.83 338.43C582.02 341.42 588.7 342.92 595.89 342.92ZM756.02 354.59C747.44 354.59 739.26 352.9 731.48 349.5C723.7 346.11 716.81 341.22 710.82 334.84C705.04 328.45 700.35 320.67 696.76 311.49C693.36 302.11 691.67 291.44 691.67 279.46C691.67 267.49 693.36 256.81 696.76 247.44C700.35 237.86 705.04 229.88 710.82 223.49C716.81 217.1 723.7 212.22 731.48 208.82C739.26 205.43 747.44 203.74 756.02 203.74C764.6 203.74 772.78 205.43 780.57 208.82C788.55 212.22 795.43 217.1 801.22 223.49C807.21 229.88 811.89 237.86 815.29 247.44C818.88 256.81 820.67 267.49 820.67 279.46C820.67 291.44 818.88 302.11 815.29 311.49C811.89 320.67 807.21 328.45 801.22 334.84C795.43 341.22 788.55 346.11 780.57 349.5C772.78 352.9 764.6 354.59 756.02 354.59ZM756.02 342.92C763.21 342.92 769.89 341.42 776.08 338.43C782.46 335.24 787.85 330.85 792.24 325.26C796.83 319.67 800.42 312.99 803.01 305.2C805.61 297.42 806.91 288.84 806.91 279.46C806.91 269.88 805.61 261.2 803.01 253.42C800.42 245.64 796.83 238.95 792.24 233.37C787.85 227.58 782.46 223.19 776.08 220.2C769.89 217 763.21 215.41 756.02 215.41C748.84 215.41 742.15 217 735.97 220.2C729.78 223.19 724.39 227.58 719.8 233.37C715.41 238.95 711.92 245.64 709.33 253.42C706.73 261.2 705.44 269.88 705.44 279.46C705.44 288.84 706.73 297.42 709.33 305.2C711.92 312.99 715.41 319.67 719.8 325.26C724.39 330.85 729.78 335.24 735.97 338.43C742.15 341.42 748.84 342.92 756.02 342.92ZM898.5 354.59C887.72 354.59 877.84 352.7 868.86 348.9C859.89 344.91 852.2 340.22 845.82 334.84L853.6 324.96C859.79 330.15 866.37 334.54 873.35 338.13C880.34 341.52 889.02 343.22 899.4 343.22C910.77 343.22 919.25 340.42 924.84 334.84C930.62 329.05 933.52 322.37 933.52 314.78C933.52 310.39 932.42 306.5 930.23 303.11C928.23 299.72 925.54 296.82 922.14 294.43C918.75 292.03 914.96 289.94 910.77 288.14C906.78 286.35 902.69 284.65 898.5 283.05C893.11 281.06 887.62 278.96 882.03 276.77C876.65 274.57 871.76 271.98 867.37 268.99C862.98 265.79 859.39 262.1 856.59 257.91C854 253.52 852.7 248.23 852.7 242.05C852.7 236.86 853.7 231.97 855.69 227.38C857.69 222.59 860.68 218.5 864.67 215.11C868.67 211.52 873.45 208.72 879.04 206.73C884.83 204.73 891.51 203.74 899.1 203.74C906.68 203.74 914.06 205.13 921.25 207.93C928.63 210.72 934.91 214.31 940.1 218.7L932.92 227.98C928.13 224.39 923.04 221.39 917.65 219C912.27 216.41 905.88 215.11 898.5 215.11C892.91 215.11 888.12 215.91 884.13 217.5C880.14 218.9 876.75 220.8 873.95 223.19C871.36 225.59 869.36 228.38 867.97 231.57C866.77 234.76 866.17 237.96 866.17 241.15C866.17 245.34 867.07 248.93 868.86 251.93C870.86 254.72 873.45 257.21 876.65 259.41C879.84 261.6 883.43 263.6 887.42 265.39C891.61 266.99 895.8 268.59 899.99 270.18C905.58 272.38 911.17 274.57 916.76 276.77C922.34 278.96 927.33 281.66 931.72 284.85C936.31 288.04 940 292.03 942.8 296.82C945.59 301.41 946.99 307.2 946.99 314.18C946.99 319.57 945.89 324.76 943.69 329.75C941.7 334.54 938.61 338.83 934.42 342.62C930.23 346.21 925.14 349.1 919.15 351.3C913.16 353.49 906.28 354.59 898.5 354.59ZM1039.48 354.59C1030.3 354.59 1021.62 352.9 1013.44 349.5C1005.45 346.11 998.47 341.22 992.48 334.84C986.5 328.25 981.71 320.37 978.12 311.19C974.72 301.81 973.03 291.24 973.03 279.46C973.03 267.69 974.72 257.11 978.12 247.73C981.71 238.36 986.4 230.47 992.18 224.09C998.17 217.5 1004.86 212.52 1012.24 209.12C1019.82 205.53 1027.6 203.74 1035.59 203.74C1052.75 203.74 1066.22 209.52 1075.99 221.1C1085.77 232.67 1090.66 249.03 1090.66 270.18C1090.66 271.98 1090.66 273.78 1090.66 275.57C1090.66 277.37 1090.46 279.16 1090.06 280.96L986.5 280.96C986.7 289.94 988.09 298.32 990.69 306.1C993.28 313.68 996.87 320.27 1001.46 325.86C1006.25 331.24 1011.94 335.54 1018.52 338.73C1025.11 341.72 1032.49 343.22 1040.67 343.22C1048.46 343.22 1055.44 342.12 1061.63 339.93C1068.01 337.53 1073.9 334.34 1079.29 330.35L1084.67 340.52C1078.89 343.92 1072.5 347.11 1065.52 350.1C1058.73 353.1 1050.05 354.59 1039.48 354.59ZM986.5 270.18L1078.09 270.18C1078.09 251.63 1074.3 237.86 1066.71 228.88C1059.13 219.7 1048.86 215.11 1035.88 215.11C1029.7 215.11 1023.81 216.41 1018.23 219C1012.64 221.39 1007.55 224.99 1002.96 229.78C998.57 234.56 994.88 240.35 991.89 247.14C989.09 253.92 987.3 261.6 986.5 270.18ZM1144.24 351L1131.07 351L1131.07 153.75L1145.44 153.75L1228.65 292.93L1250.8 332.14L1251.99 332.14C1251.59 322.56 1251.2 312.99 1250.8 303.41C1250.4 293.83 1250.2 284.25 1250.2 274.67L1250.2 153.75L1263.37 153.75L1263.37 351L1249 351L1165.79 211.82L1143.64 172.61L1142.44 172.61C1142.84 182.18 1143.24 191.56 1143.64 200.74C1144.04 209.72 1144.24 219 1144.24 228.58L1144.24 351ZM1374.41 354.59C1365.24 354.59 1356.56 352.9 1348.37 349.5C1340.39 346.11 1333.41 341.22 1327.42 334.84C1321.44 328.25 1316.65 320.37 1313.05 311.19C1309.66 301.81 1307.97 291.24 1307.97 279.46C1307.97 267.69 1309.66 257.11 1313.05 247.73C1316.65 238.36 1321.34 230.47 1327.12 224.09C1333.11 217.5 1339.79 212.52 1347.18 209.12C1354.76 205.53 1362.54 203.74 1370.52 203.74C1387.68 203.74 1401.15 209.52 1410.93 221.1C1420.71 232.67 1425.6 249.03 1425.6 270.18C1425.6 271.98 1425.6 273.78 1425.6 275.57C1425.6 277.37 1425.4 279.16 1425 280.96L1321.44 280.96C1321.63 289.94 1323.03 298.32 1325.63 306.1C1328.22 313.68 1331.81 320.27 1336.4 325.86C1341.19 331.24 1346.88 335.54 1353.46 338.73C1360.05 341.72 1367.43 343.22 1375.61 343.22C1383.39 343.22 1390.38 342.12 1396.56 339.93C1402.95 337.53 1408.84 334.34 1414.22 330.35L1419.61 340.52C1413.83 343.92 1407.44 347.11 1400.46 350.1C1393.67 353.1 1384.99 354.59 1374.41 354.59ZM1321.44 270.18L1413.03 270.18C1413.03 251.63 1409.24 237.86 1401.65 228.88C1394.07 219.7 1383.79 215.11 1370.82 215.11C1364.64 215.11 1358.75 216.41 1353.16 219C1347.58 221.39 1342.49 224.99 1337.9 229.78C1333.51 234.56 1329.82 240.35 1326.82 247.14C1324.03 253.92 1322.23 261.6 1321.44 270.18ZM1499.23 354.59C1488.46 354.59 1478.58 352.7 1469.6 348.9C1460.62 344.91 1452.94 340.22 1446.55 334.84L1454.33 324.96C1460.52 330.15 1467.1 334.54 1474.09 338.13C1481.07 341.52 1489.75 343.22 1500.13 343.22C1511.5 343.22 1519.98 340.42 1525.57 334.84C1531.36 329.05 1534.25 322.37 1534.25 314.78C1534.25 310.39 1533.15 306.5 1530.96 303.11C1528.96 299.72 1526.27 296.82 1522.88 294.43C1519.48 292.03 1515.69 289.94 1511.5 288.14C1507.51 286.35 1503.42 284.65 1499.23 283.05C1493.84 281.06 1488.36 278.96 1482.77 276.77C1477.38 274.57 1472.49 271.98 1468.1 268.99C1463.71 265.79 1460.12 262.1 1457.33 257.91C1454.73 253.52 1453.44 248.23 1453.44 242.05C1453.44 236.86 1454.43 231.97 1456.43 227.38C1458.42 222.59 1461.42 218.5 1465.41 215.11C1469.4 211.52 1474.19 208.72 1479.78 206.73C1485.56 204.73 1492.25 203.74 1499.83 203.74C1507.41 203.74 1514.8 205.13 1521.98 207.93C1529.36 210.72 1535.65 214.31 1540.84 218.7L1533.65 227.98C1528.86 224.39 1523.78 221.39 1518.39 219C1513 216.41 1506.61 215.11 1499.23 215.11C1493.64 215.11 1488.85 215.91 1484.86 217.5C1480.87 218.9 1477.48 220.8 1474.69 223.19C1472.09 225.59 1470.1 228.38 1468.7 231.57C1467.5 234.76 1466.9 237.96 1466.9 241.15C1466.9 245.34 1467.8 248.93 1469.6 251.93C1471.59 254.72 1474.19 257.21 1477.38 259.41C1480.57 261.6 1484.17 263.6 1488.16 265.39C1492.35 266.99 1496.54 268.59 1500.73 270.18C1506.31 272.38 1511.9 274.57 1517.49 276.77C1523.08 278.96 1528.07 281.66 1532.46 284.85C1537.04 288.04 1540.74 292.03 1543.53 296.82C1546.32 301.41 1547.72 307.2 1547.72 314.18C1547.72 319.57 1546.62 324.76 1544.43 329.75C1542.43 334.54 1539.34 338.83 1535.15 342.62C1530.96 346.21 1525.87 349.1 1519.88 351.3C1513.9 353.49 1507.01 354.59 1499.23 354.59ZM1618.96 354.59C1611.97 354.59 1606.19 353.59 1601.6 351.6C1597.01 349.4 1593.32 346.41 1590.52 342.62C1587.73 338.83 1585.73 334.24 1584.54 328.85C1583.54 323.46 1583.04 317.58 1583.04 311.19L1583.04 218.7L1560.59 218.7L1560.59 208.52L1583.34 207.33L1585.14 165.72L1596.51 165.72L1596.51 207.33L1638.11 207.33L1638.11 218.7L1596.51 218.7L1596.51 312.39C1596.51 316.98 1596.81 321.17 1597.41 324.96C1598.21 328.55 1599.5 331.74 1601.3 334.54C1603.09 337.13 1605.49 339.23 1608.48 340.82C1611.68 342.22 1615.77 342.92 1620.75 342.92C1623.55 342.92 1626.54 342.52 1629.73 341.72C1633.13 340.72 1636.12 339.63 1638.71 338.43L1642.31 349.2C1638.11 350.8 1633.92 352.1 1629.73 353.1C1625.54 354.09 1621.95 354.59 1618.96 354.59Z" />
</svg>