<svg version="1.2" baseProfile="tiny-ps" xmlns="http://www.w3.org/2000/svg" viewBox="0 0 1750 405" width="164" height="38">
	<title>goosenest_server-wordmark-nogoose-svg</title>
	<style>
		tspan { white-space:pre }
		.shp0 { fill: #ffffff } 
	</style>
	<path id="GooseNest " fill-rule="evenodd" class="shp0" d="M314.23 354.21C301.46 354.21 289.88 351.82 279.5 347.04C269.13 342.25 260.25 335.45 252.87 326.68C245.49 317.69 239.7 306.93 235.51 294.36C231.52 281.58 229.52 267.31 229.52 251.56C229.52 235.99 231.62 221.91 235.81 209.35C240 196.78 245.89 186.1 253.47 177.32C261.05 168.34 270.23 161.56 281 156.97C291.78 152.18 303.65 149.79 316.62 149.79C323.21 149.79 329.2 150.49 334.58 151.88C340.17 153.28 345.16 155.17 349.55 157.57C353.94 159.76 357.83 162.26 361.22 165.05C364.81 167.85 367.91 170.64 370.5 173.43L362.42 182.71C357.23 177.12 351.05 172.34 343.86 168.34C336.68 164.35 327.7 162.36 316.92 162.36C305.55 162.36 295.37 164.45 286.38 168.64C277.41 172.83 269.73 178.82 263.35 186.6C257.16 194.19 252.37 203.46 248.98 214.44C245.59 225.41 243.89 237.78 243.89 251.56C243.89 265.31 245.49 277.8 248.68 288.96C251.87 299.94 256.46 309.31 262.45 317.11C268.63 324.88 276.12 330.96 284.9 335.36C293.88 339.56 303.95 341.64 315.13 341.64C324.11 341.64 332.49 340.35 340.26 337.75C348.25 335.17 354.63 331.46 359.43 326.68L359.43 265.31L312.13 265.31L312.13 253.64L372.6 253.64L372.6 331.76C366.41 338.36 358.33 343.75 348.35 347.94C338.57 352.13 327.2 354.21 314.23 354.21ZM474.07 354.21C465.49 354.21 457.3 352.52 449.52 349.13C441.74 345.74 434.86 340.85 428.87 334.46C423.08 328.07 418.39 320.3 414.8 311.12C411.41 301.74 409.71 291.06 409.71 279.08C409.71 267.12 411.41 256.44 414.8 247.06C418.39 237.49 423.08 229.5 428.87 223.12C434.86 216.72 441.74 211.85 449.52 208.45C457.3 205.06 465.49 203.37 474.07 203.37C482.65 203.37 490.83 205.06 498.61 208.45C506.59 211.85 513.48 216.72 519.26 223.12C525.25 229.5 529.94 237.49 533.33 247.06C536.92 256.44 538.72 267.12 538.72 279.08C538.72 291.06 536.92 301.74 533.33 311.12C529.94 320.3 525.25 328.07 519.26 334.46C513.48 340.85 506.59 345.74 498.61 349.13C490.83 352.52 482.65 354.21 474.07 354.21ZM474.07 342.55C481.25 342.55 487.93 341.05 494.12 338.06C500.51 334.87 505.89 330.48 510.28 324.88C514.87 319.3 518.46 312.62 521.06 304.82C523.65 297.05 524.95 288.46 524.95 279.08C524.95 269.5 523.65 260.82 521.06 253.04C518.46 245.26 514.87 238.57 510.28 233C505.89 227.21 500.51 222.81 494.12 219.82C487.93 216.63 481.25 215.03 474.07 215.03C466.88 215.03 460.2 216.63 454.01 219.82C447.83 222.81 442.44 227.21 437.85 233C433.46 238.57 429.97 245.26 427.37 253.04C424.78 260.82 423.48 269.5 423.48 279.08C423.48 288.46 424.78 297.05 427.37 304.82C429.97 312.62 433.46 319.3 437.85 324.88C442.44 330.48 447.83 334.87 454.01 338.06C460.2 341.05 466.88 342.55 474.07 342.55ZM634.2 354.21C625.62 354.21 617.44 352.52 609.66 349.13C601.88 345.74 594.99 340.85 589 334.46C583.22 328.07 578.53 320.3 574.94 311.12C571.54 301.74 569.85 291.06 569.85 279.08C569.85 267.12 571.54 256.44 574.94 247.06C578.53 237.49 583.22 229.5 589 223.12C594.99 216.72 601.88 211.85 609.66 208.45C617.44 205.06 625.62 203.37 634.2 203.37C642.78 203.37 650.96 205.06 658.75 208.45C666.73 211.85 673.61 216.72 679.4 223.12C685.39 229.5 690.07 237.49 693.47 247.06C697.06 256.44 698.85 267.12 698.85 279.08C698.85 291.06 697.06 301.74 693.47 311.12C690.07 320.3 685.39 328.07 679.4 334.46C673.61 340.85 666.73 345.74 658.75 349.13C650.96 352.52 642.78 354.21 634.2 354.21ZM634.2 342.55C641.39 342.55 648.07 341.05 654.26 338.06C660.64 334.87 666.03 330.48 670.42 324.88C675.01 319.3 678.6 312.62 681.19 304.82C683.79 297.05 685.09 288.46 685.09 279.08C685.09 269.5 683.79 260.82 681.19 253.04C678.6 245.26 675.01 238.57 670.42 233C666.03 227.21 660.64 222.81 654.26 219.82C648.07 216.63 641.39 215.03 634.2 215.03C627.02 215.03 620.33 216.63 614.15 219.82C607.96 222.81 602.57 227.21 597.98 233C593.59 238.57 590.1 245.26 587.51 253.04C584.91 260.82 583.62 269.5 583.62 279.08C583.62 288.46 584.91 297.05 587.51 304.82C590.1 312.62 593.59 319.3 597.98 324.88C602.57 330.48 607.96 334.87 614.15 338.06C620.33 341.05 627.02 342.55 634.2 342.55ZM776.68 354.21C765.9 354.21 756.02 352.32 747.04 348.52C738.07 344.54 730.38 339.85 724 334.46L731.78 324.58C737.97 329.77 744.55 334.17 751.53 337.75C758.52 341.14 767.2 342.85 777.58 342.85C788.95 342.85 797.43 340.05 803.02 334.46C808.8 328.68 811.7 322 811.7 314.4C811.7 310.01 810.6 306.13 808.41 302.74C806.41 299.35 803.72 296.44 800.32 294.06C796.93 291.65 793.14 289.56 788.95 287.76C784.96 285.98 780.87 284.27 776.68 282.68C771.29 280.69 765.8 278.58 760.21 276.39C754.83 274.19 749.94 271.61 745.55 268.62C741.16 265.42 737.57 261.73 734.77 257.54C732.18 253.14 730.88 247.85 730.88 241.68C730.88 236.49 731.88 231.59 733.87 227C735.87 222.22 738.86 218.13 742.85 214.74C746.85 211.15 751.63 208.35 757.22 206.36C763.01 204.36 769.69 203.37 777.28 203.37C784.86 203.37 792.24 204.76 799.43 207.56C806.81 210.35 813.09 213.94 818.28 218.32L811.1 227.6C806.31 224.01 801.22 221.01 795.83 218.63C790.45 216.03 784.06 214.74 776.68 214.74C771.09 214.74 766.3 215.53 762.31 217.13C758.32 218.53 754.93 220.43 752.13 222.81C749.54 225.22 747.54 228 746.15 231.19C744.95 234.38 744.35 237.59 744.35 240.78C744.35 244.97 745.25 248.56 747.04 251.56C749.04 254.35 751.63 256.83 754.83 259.04C758.02 261.23 761.61 263.23 765.6 265.01C769.79 266.62 773.98 268.21 778.17 269.81C783.76 272 789.35 274.19 794.94 276.39C800.52 278.58 805.51 281.29 809.9 284.48C814.49 287.67 818.18 291.65 820.98 296.44C823.77 301.04 825.17 306.82 825.17 313.81C825.17 319.19 824.07 324.38 821.87 329.38C819.88 334.17 816.79 338.45 812.6 342.25C808.41 345.83 803.32 348.73 797.33 350.93C791.34 353.12 784.46 354.21 776.68 354.21ZM917.66 354.22C908.48 354.21 899.8 352.52 891.62 349.13C883.63 345.74 876.65 340.85 870.66 334.46C864.68 327.88 859.89 320 856.3 310.81C852.9 301.44 851.21 290.87 851.21 279.08C851.21 267.31 852.9 256.74 856.3 247.35C859.89 237.99 864.58 230.09 870.36 223.72C876.35 217.13 883.04 212.15 890.42 208.75C898 205.16 905.77 203.37 913.77 203.37C930.93 203.37 944.4 209.15 954.17 220.73C963.95 232.3 968.84 248.66 968.84 269.81C968.84 271.61 968.84 273.41 968.84 275.2C968.84 277 968.64 278.79 968.24 280.59L864.68 280.58C864.88 289.56 866.27 297.94 868.87 305.73C871.46 313.31 875.05 319.89 879.64 325.49C884.43 330.87 890.12 335.17 896.7 338.36C903.28 341.35 910.67 342.85 918.85 342.85C926.64 342.85 933.62 341.75 939.81 339.56C946.19 337.16 952.08 333.97 957.47 329.98L962.85 340.15C957.07 343.55 950.68 346.74 943.7 349.73C936.91 352.73 928.23 354.22 917.66 354.22ZM864.68 269.81L956.27 269.81C956.27 251.26 952.48 237.49 944.89 228.51C937.31 219.33 927.04 214.74 914.06 214.74C907.88 214.74 901.99 216.03 896.41 218.63C890.82 221.01 885.73 224.62 881.14 229.41C876.75 234.19 873.06 239.97 870.07 246.76C867.27 253.54 865.48 261.23 864.68 269.81ZM1022.42 350.63L1009.25 350.63L1009.25 153.38L1023.62 153.38L1106.83 292.56L1128.98 331.77L1130.17 331.77C1129.77 322.19 1129.38 312.62 1128.98 303.04C1128.58 293.46 1128.38 283.88 1128.38 274.3L1128.38 153.38L1141.55 153.38L1141.55 350.63L1127.18 350.63L1043.97 211.45L1021.82 172.24L1020.62 172.24C1021.02 181.81 1021.42 191.19 1021.82 200.37C1022.22 209.35 1022.42 218.63 1022.42 228.21L1022.42 350.63ZM1252.59 354.22C1243.42 354.22 1234.74 352.53 1226.55 349.13C1218.57 345.74 1211.59 340.85 1205.6 334.47C1199.62 327.88 1194.83 320 1191.23 310.82C1187.84 301.44 1186.15 290.87 1186.15 279.09C1186.15 267.32 1187.84 256.74 1191.23 247.36C1194.83 237.99 1199.52 230.1 1205.3 223.72C1211.29 217.13 1217.97 212.15 1225.36 208.75C1232.94 205.16 1240.72 203.37 1248.7 203.37C1265.86 203.37 1279.33 209.15 1289.11 220.73C1298.89 232.3 1303.78 248.66 1303.78 269.81C1303.78 271.61 1303.78 273.41 1303.78 275.2C1303.78 277 1303.58 278.79 1303.18 280.59L1199.62 280.59C1199.81 289.57 1201.21 297.95 1203.81 305.73C1206.4 313.31 1209.99 319.9 1214.58 325.49C1219.37 330.87 1225.06 335.17 1231.64 338.36C1238.23 341.35 1245.61 342.85 1253.79 342.85C1261.57 342.85 1268.56 341.75 1274.74 339.56C1281.13 337.16 1287.02 333.97 1292.4 329.98L1297.79 340.15C1292.01 343.55 1285.62 346.74 1278.64 349.73C1271.85 352.73 1263.17 354.22 1252.59 354.22ZM1199.62 269.81L1291.21 269.81C1291.21 251.26 1287.42 237.49 1279.83 228.51C1272.25 219.33 1261.97 214.74 1249 214.74C1242.82 214.74 1236.93 216.04 1231.34 218.63C1225.76 221.02 1220.67 224.62 1216.08 229.41C1211.69 234.19 1208 239.98 1205 246.77C1202.21 253.55 1200.41 261.23 1199.62 269.81ZM1377.41 354.22C1366.64 354.22 1356.76 352.33 1347.78 348.53C1338.8 344.54 1331.12 339.85 1324.73 334.47L1332.51 324.59C1338.7 329.78 1345.28 334.17 1352.27 337.76C1359.25 341.15 1367.93 342.85 1378.31 342.85C1389.68 342.85 1398.16 340.05 1403.75 334.47C1409.54 328.68 1412.43 322 1412.43 314.41C1412.43 310.02 1411.33 306.13 1409.14 302.74C1407.14 299.35 1404.45 296.45 1401.06 294.06C1397.66 291.66 1393.87 289.57 1389.68 287.77C1385.69 285.98 1381.6 284.28 1377.41 282.68C1372.02 280.69 1366.54 278.59 1360.95 276.4C1355.56 274.2 1350.67 271.61 1346.28 268.62C1341.89 265.42 1338.3 261.73 1335.51 257.54C1332.91 253.15 1331.62 247.86 1331.62 241.68C1331.62 236.49 1332.61 231.6 1334.61 227.01C1336.6 222.22 1339.6 218.13 1343.59 214.74C1347.58 211.15 1352.37 208.35 1357.96 206.36C1363.74 204.36 1370.43 203.37 1378.01 203.37C1385.59 203.37 1392.98 204.76 1400.16 207.56C1407.54 210.35 1413.83 213.94 1419.02 218.33L1411.83 227.61C1407.04 224.02 1401.96 221.02 1396.57 218.63C1391.18 216.04 1384.79 214.74 1377.41 214.74C1371.82 214.74 1367.03 215.54 1363.04 217.13C1359.05 218.53 1355.66 220.43 1352.87 222.82C1350.27 225.22 1348.28 228.01 1346.88 231.2C1345.68 234.39 1345.08 237.59 1345.08 240.78C1345.08 244.97 1345.98 248.56 1347.78 251.56C1349.77 254.35 1352.37 256.84 1355.56 259.04C1358.75 261.23 1362.35 263.23 1366.34 265.02C1370.53 266.62 1374.72 268.22 1378.91 269.81C1384.49 272.01 1390.08 274.2 1395.67 276.4C1401.26 278.59 1406.25 281.29 1410.64 284.48C1415.22 287.67 1418.92 291.66 1421.71 296.45C1424.5 301.04 1425.9 306.83 1425.9 313.81C1425.9 319.2 1424.8 324.39 1422.61 329.38C1420.61 334.17 1417.52 338.46 1413.33 342.25C1409.14 345.84 1404.05 348.73 1398.06 350.93C1392.08 353.12 1385.19 354.22 1377.41 354.22ZM1497.14 354.22C1490.15 354.22 1484.37 353.22 1479.78 351.23C1475.19 349.03 1471.5 346.04 1468.7 342.25C1465.91 338.46 1463.91 333.87 1462.72 328.48C1461.72 323.09 1461.22 317.21 1461.22 310.82L1461.22 218.33L1438.77 218.33L1438.77 208.15L1461.52 206.96L1463.32 165.35L1474.69 165.35L1474.69 206.96L1516.29 206.96L1516.29 218.33L1474.69 218.33L1474.69 312.02C1474.69 316.61 1474.99 320.8 1475.59 324.59C1476.39 328.18 1477.68 331.37 1479.48 334.17C1481.27 336.76 1483.67 338.86 1486.66 340.45C1489.86 341.85 1493.95 342.55 1498.93 342.55C1501.73 342.55 1504.72 342.15 1507.91 341.35C1511.31 340.35 1514.3 339.26 1516.89 338.06L1520.49 348.83C1516.29 350.43 1512.1 351.73 1507.91 352.73C1503.72 353.72 1500.13 354.22 1497.14 354.22Z" />
</svg>
