<svg version="1.2" baseProfile="tiny-ps" xmlns="http://www.w3.org/2000/svg" viewBox="0 0 1750 405" width="164" height="38">
	<title>goosenest_server-wordmark-nogoose-svg</title>
	<style>
		tspan { white-space:pre }
		.shp0 { fill: #ffffff } 
	</style>
	<path id="GooseNest " fill-rule="evenodd" class="shp0" d="M248.71 354.42C235.94 354.42 224.36 352.03 213.98 347.25C203.61 342.46 194.73 335.66 187.35 326.89C179.97 317.9 174.18 307.14 169.99 294.57C166 281.79 164 267.52 164 251.77C164 236.2 166.1 222.12 170.29 209.56C174.48 196.99 180.37 186.31 187.95 177.53C195.53 168.55 204.71 161.77 215.48 157.18C226.26 152.39 238.13 150 251.1 150C257.69 150 263.68 150.7 269.06 152.09C274.65 153.49 279.64 155.38 284.03 157.78C288.42 159.97 292.31 162.47 295.7 165.26C299.29 168.06 302.39 170.85 304.98 173.64L296.9 182.92C291.71 177.33 285.53 172.55 278.34 168.55C271.16 164.56 262.18 162.57 251.4 162.57C240.03 162.57 229.85 164.66 220.86 168.85C211.89 173.04 204.21 179.03 197.83 186.81C191.64 194.4 186.85 203.67 183.46 214.65C180.07 225.62 178.37 237.99 178.37 251.77C178.37 265.52 179.97 278.01 183.16 289.17C186.35 300.15 190.94 309.52 196.93 317.32C203.11 325.09 210.6 331.17 219.38 335.57C228.36 339.77 238.43 341.85 249.61 341.85C258.59 341.85 266.97 340.56 274.74 337.96C282.73 335.38 289.11 331.67 293.91 326.89L293.91 265.52L246.61 265.52L246.61 253.85L307.08 253.85L307.08 331.97C300.89 338.57 292.81 343.96 282.83 348.15C273.05 352.34 261.68 354.42 248.71 354.42ZM408.55 354.42C399.97 354.42 391.78 352.73 384 349.34C376.22 345.95 369.34 341.06 363.35 334.67C357.56 328.28 352.87 320.51 349.28 311.33C345.89 301.95 344.19 291.27 344.19 279.29C344.19 267.33 345.89 256.65 349.28 247.27C352.87 237.7 357.56 229.71 363.35 223.33C369.34 216.93 376.22 212.06 384 208.66C391.78 205.27 399.97 203.58 408.55 203.58C417.13 203.58 425.31 205.27 433.09 208.66C441.07 212.06 447.96 216.93 453.74 223.33C459.73 229.71 464.42 237.7 467.81 247.27C471.4 256.65 473.2 267.33 473.2 279.29C473.2 291.27 471.4 301.95 467.81 311.33C464.42 320.51 459.73 328.28 453.74 334.67C447.96 341.06 441.07 345.95 433.09 349.34C425.31 352.73 417.13 354.42 408.55 354.42ZM408.55 342.76C415.73 342.76 422.41 341.26 428.6 338.27C434.99 335.08 440.37 330.69 444.76 325.09C449.35 319.51 452.94 312.83 455.54 305.03C458.13 297.26 459.43 288.67 459.43 279.29C459.43 269.71 458.13 261.03 455.54 253.25C452.94 245.47 449.35 238.78 444.76 233.21C440.37 227.42 434.99 223.02 428.6 220.03C422.41 216.84 415.73 215.24 408.55 215.24C401.36 215.24 394.68 216.84 388.49 220.03C382.31 223.02 376.92 227.42 372.33 233.21C367.94 238.78 364.45 245.47 361.85 253.25C359.26 261.03 357.96 269.71 357.96 279.29C357.96 288.67 359.26 297.26 361.85 305.03C364.45 312.83 367.94 319.51 372.33 325.09C376.92 330.69 382.31 335.08 388.49 338.27C394.68 341.26 401.36 342.76 408.55 342.76ZM568.68 354.42C560.1 354.42 551.92 352.73 544.14 349.34C536.36 345.95 529.47 341.06 523.48 334.67C517.7 328.28 513.01 320.51 509.42 311.33C506.02 301.95 504.33 291.27 504.33 279.29C504.33 267.33 506.02 256.65 509.42 247.27C513.01 237.7 517.7 229.71 523.48 223.33C529.47 216.93 536.36 212.06 544.14 208.66C551.92 205.27 560.1 203.58 568.68 203.58C577.26 203.58 585.44 205.27 593.23 208.66C601.21 212.06 608.09 216.93 613.88 223.33C619.87 229.71 624.55 237.7 627.95 247.27C631.54 256.65 633.33 267.33 633.33 279.29C633.33 291.27 631.54 301.95 627.95 311.33C624.55 320.51 619.87 328.28 613.88 334.67C608.09 341.06 601.21 345.95 593.23 349.34C585.44 352.73 577.26 354.42 568.68 354.42ZM568.68 342.76C575.87 342.76 582.55 341.26 588.74 338.27C595.12 335.08 600.51 330.69 604.9 325.09C609.49 319.51 613.08 312.83 615.67 305.03C618.27 297.26 619.57 288.67 619.57 279.29C619.57 269.71 618.27 261.03 615.67 253.25C613.08 245.47 609.49 238.78 604.9 233.21C600.51 227.42 595.12 223.02 588.74 220.03C582.55 216.84 575.87 215.24 568.68 215.24C561.5 215.24 554.81 216.84 548.63 220.03C542.44 223.02 537.05 227.42 532.46 233.21C528.07 238.78 524.58 245.47 521.99 253.25C519.39 261.03 518.1 269.71 518.1 279.29C518.1 288.67 519.39 297.26 521.99 305.03C524.58 312.83 528.07 319.51 532.46 325.09C537.05 330.69 542.44 335.08 548.63 338.27C554.81 341.26 561.5 342.76 568.68 342.76ZM711.16 354.42C700.38 354.42 690.5 352.53 681.52 348.73C672.55 344.75 664.86 340.06 658.48 334.67L666.26 324.79C672.45 329.98 679.03 334.38 686.01 337.96C693 341.35 701.68 343.06 712.06 343.06C723.43 343.06 731.91 340.26 737.5 334.67C743.28 328.89 746.18 322.21 746.18 314.61C746.18 310.22 745.08 306.34 742.89 302.95C740.89 299.56 738.2 296.65 734.8 294.27C731.41 291.86 727.62 289.77 723.43 287.97C719.44 286.19 715.35 284.48 711.16 282.89C705.77 280.9 700.28 278.79 694.69 276.6C689.31 274.4 684.42 271.82 680.03 268.83C675.64 265.63 672.05 261.94 669.25 257.75C666.66 253.35 665.36 248.06 665.36 241.89C665.36 236.7 666.36 231.8 668.35 227.21C670.35 222.43 673.34 218.34 677.33 214.95C681.33 211.36 686.11 208.56 691.7 206.57C697.49 204.57 704.17 203.58 711.76 203.58C719.34 203.58 726.72 204.97 733.91 207.77C741.29 210.56 747.57 214.15 752.76 218.53L745.58 227.81C740.79 224.22 735.7 221.22 730.31 218.84C724.93 216.24 718.54 214.95 711.16 214.95C705.57 214.95 700.78 215.74 696.79 217.34C692.8 218.74 689.41 220.64 686.61 223.02C684.02 225.43 682.02 228.21 680.63 231.4C679.43 234.59 678.83 237.8 678.83 240.99C678.83 245.18 679.73 248.77 681.52 251.77C683.52 254.56 686.11 257.04 689.31 259.25C692.5 261.44 696.09 263.44 700.08 265.22C704.27 266.83 708.46 268.42 712.65 270.02C718.24 272.21 723.83 274.4 729.42 276.6C735 278.79 739.99 281.5 744.38 284.69C748.97 287.88 752.66 291.86 755.46 296.65C758.25 301.25 759.65 307.03 759.65 314.02C759.65 319.4 758.55 324.59 756.35 329.59C754.36 334.38 751.27 338.66 747.08 342.46C742.89 346.04 737.8 348.94 731.81 351.14C725.82 353.33 718.94 354.42 711.16 354.42ZM852.14 354.43C842.96 354.42 834.28 352.73 826.1 349.34C818.11 345.95 811.13 341.06 805.14 334.67C799.16 328.09 794.37 320.21 790.78 311.02C787.38 301.65 785.69 291.08 785.69 279.29C785.69 267.52 787.38 256.95 790.78 247.56C794.37 238.2 799.06 230.3 804.84 223.93C810.83 217.34 817.52 212.36 824.9 208.96C832.48 205.37 840.25 203.58 848.25 203.58C865.41 203.58 878.88 209.36 888.65 220.94C898.43 232.51 903.32 248.87 903.32 270.02C903.32 271.82 903.32 273.62 903.32 275.41C903.32 277.21 903.12 279 902.72 280.8L799.16 280.79C799.36 289.77 800.75 298.15 803.35 305.94C805.94 313.52 809.53 320.1 814.12 325.7C818.91 331.08 824.6 335.38 831.18 338.57C837.76 341.56 845.15 343.06 853.33 343.06C861.12 343.06 868.1 341.96 874.29 339.77C880.67 337.37 886.56 334.18 891.95 330.19L897.33 340.36C891.55 343.76 885.16 346.95 878.18 349.94C871.39 352.94 862.71 354.43 852.14 354.43ZM799.16 270.02L890.75 270.02C890.75 251.47 886.96 237.7 879.37 228.72C871.79 219.54 861.52 214.95 848.54 214.95C842.36 214.95 836.47 216.24 830.89 218.84C825.3 221.22 820.21 224.83 815.62 229.62C811.23 234.4 807.54 240.18 804.55 246.97C801.75 253.75 799.96 261.44 799.16 270.02ZM956.9 350.84L943.73 350.84L943.73 153.59L958.1 153.59L1041.31 292.77L1063.46 331.98L1064.65 331.98C1064.25 322.4 1063.86 312.83 1063.46 303.25C1063.06 293.67 1062.86 284.09 1062.86 274.51L1062.86 153.59L1076.03 153.59L1076.03 350.84L1061.66 350.84L978.45 211.66L956.3 172.45L955.1 172.45C955.5 182.02 955.9 191.4 956.3 200.58C956.7 209.56 956.9 218.84 956.9 228.42L956.9 350.84ZM1187.07 354.43C1177.9 354.43 1169.22 352.74 1161.03 349.34C1153.05 345.95 1146.07 341.06 1140.08 334.68C1134.1 328.09 1129.31 320.21 1125.71 311.03C1122.32 301.65 1120.63 291.08 1120.63 279.3C1120.63 267.53 1122.32 256.95 1125.71 247.57C1129.31 238.2 1134 230.31 1139.78 223.93C1145.77 217.34 1152.45 212.36 1159.84 208.96C1167.42 205.37 1175.2 203.58 1183.18 203.58C1200.34 203.58 1213.81 209.36 1223.59 220.94C1233.37 232.51 1238.26 248.87 1238.26 270.02C1238.26 271.82 1238.26 273.62 1238.26 275.41C1238.26 277.21 1238.06 279 1237.66 280.8L1134.1 280.8C1134.29 289.78 1135.69 298.16 1138.29 305.94C1140.88 313.52 1144.47 320.11 1149.06 325.7C1153.85 331.08 1159.54 335.38 1166.12 338.57C1172.71 341.56 1180.09 343.06 1188.27 343.06C1196.05 343.06 1203.04 341.96 1209.22 339.77C1215.61 337.37 1221.5 334.18 1226.88 330.19L1232.27 340.36C1226.49 343.76 1220.1 346.95 1213.12 349.94C1206.33 352.94 1197.65 354.43 1187.07 354.43ZM1134.1 270.02L1225.69 270.02C1225.69 251.47 1221.9 237.7 1214.31 228.72C1206.73 219.54 1196.45 214.95 1183.48 214.95C1177.3 214.95 1171.41 216.25 1165.82 218.84C1160.24 221.23 1155.15 224.83 1150.56 229.62C1146.17 234.4 1142.48 240.19 1139.48 246.98C1136.69 253.76 1134.89 261.44 1134.1 270.02ZM1311.89 354.43C1301.12 354.43 1291.24 352.54 1282.26 348.74C1273.28 344.75 1265.6 340.06 1259.21 334.68L1266.99 324.8C1273.18 329.99 1279.76 334.38 1286.75 337.97C1293.73 341.36 1302.41 343.06 1312.79 343.06C1324.16 343.06 1332.64 340.26 1338.23 334.68C1344.02 328.89 1346.91 322.21 1346.91 314.62C1346.91 310.23 1345.81 306.34 1343.62 302.95C1341.62 299.56 1338.93 296.66 1335.54 294.27C1332.14 291.87 1328.35 289.78 1324.16 287.98C1320.17 286.19 1316.08 284.49 1311.89 282.89C1306.5 280.9 1301.02 278.8 1295.43 276.61C1290.04 274.41 1285.15 271.82 1280.76 268.83C1276.37 265.63 1272.78 261.94 1269.99 257.75C1267.39 253.36 1266.1 248.07 1266.1 241.89C1266.1 236.7 1267.09 231.81 1269.09 227.22C1271.08 222.43 1274.08 218.34 1278.07 214.95C1282.06 211.36 1286.85 208.56 1292.44 206.57C1298.22 204.57 1304.91 203.58 1312.49 203.58C1320.07 203.58 1327.46 204.97 1334.64 207.77C1342.02 210.56 1348.31 214.15 1353.5 218.54L1346.31 227.82C1341.52 224.23 1336.44 221.23 1331.05 218.84C1325.66 216.25 1319.27 214.95 1311.89 214.95C1306.3 214.95 1301.51 215.75 1297.52 217.34C1293.53 218.74 1290.14 220.64 1287.35 223.03C1284.75 225.43 1282.76 228.22 1281.36 231.41C1280.16 234.6 1279.56 237.8 1279.56 240.99C1279.56 245.18 1280.46 248.77 1282.26 251.77C1284.25 254.56 1286.85 257.05 1290.04 259.25C1293.23 261.44 1296.83 263.44 1300.82 265.23C1305.01 266.83 1309.2 268.43 1313.39 270.02C1318.97 272.22 1324.56 274.41 1330.15 276.61C1335.74 278.8 1340.73 281.5 1345.12 284.69C1349.7 287.88 1353.4 291.87 1356.19 296.66C1358.98 301.25 1360.38 307.04 1360.38 314.02C1360.38 319.41 1359.28 324.6 1357.09 329.59C1355.09 334.38 1352 338.67 1347.81 342.46C1343.62 346.05 1338.53 348.94 1332.54 351.14C1326.56 353.33 1319.67 354.43 1311.89 354.43ZM1431.62 354.43C1424.63 354.43 1418.85 353.43 1414.26 351.44C1409.67 349.24 1405.98 346.25 1403.18 342.46C1400.39 338.67 1398.39 334.08 1397.2 328.69C1396.2 323.3 1395.7 317.42 1395.7 311.03L1395.7 218.54L1373.25 218.54L1373.25 208.36L1396 207.17L1397.8 165.56L1409.17 165.56L1409.17 207.17L1450.77 207.17L1450.77 218.54L1409.17 218.54L1409.17 312.23C1409.17 316.82 1409.47 321.01 1410.07 324.8C1410.87 328.39 1412.16 331.58 1413.96 334.38C1415.75 336.97 1418.15 339.07 1421.14 340.66C1424.34 342.06 1428.43 342.76 1433.41 342.76C1436.21 342.76 1439.2 342.36 1442.39 341.56C1445.79 340.56 1448.78 339.47 1451.37 338.27L1454.97 349.04C1450.77 350.64 1446.58 351.94 1442.39 352.94C1438.2 353.93 1434.61 354.43 1431.62 354.43Z" />
</svg>
