<svg version="1.2" baseProfile="tiny-ps" xmlns="http://www.w3.org/2000/svg" viewBox="0 0 1750 405" width="164" height="38">
	<title>New Project</title>
	<style>
		tspan { white-space:pre }
		.shp0 { fill: #74dea9 } 
		.shp1 { fill: #fff773 } 
	</style>
	<path id="Leaf" class="shp0" d="M1453.06 97.09C1450.67 97.08 1446.67 97.52 1444.16 98.07C1441.65 98.62 1437.81 99.85 1435.62 100.8C1433.44 101.75 1431 102.96 1430.21 103.48C1429.42 104 1428.5 104.3 1428.18 104.14C1427.85 103.98 1427.64 103.06 1427.7 102.09C1427.78 101.05 1427.35 100.1 1426.66 99.76C1426 99.44 1422.39 100.28 1418.24 101.72C1414.24 103.1 1408.91 105.47 1406.38 106.98C1403.85 108.49 1401.66 109.64 1401.51 109.54C1401.36 109.43 1400.95 108.16 1400.61 106.69L1399.98 104.04C1394.14 106.31 1390.58 108.04 1388.3 109.35C1386.02 110.66 1382.14 113.38 1379.69 115.41C1377.24 117.44 1374.83 119.48 1374.35 119.95C1373.87 120.42 1373.27 120.71 1373.02 120.6C1372.78 120.49 1372.24 119.41 1371.82 118.18C1371.41 116.96 1370.8 115.83 1370.48 115.67C1370.16 115.51 1368.05 117.05 1365.79 119.08C1363.54 121.12 1360.19 124.52 1358.35 126.64C1356.51 128.76 1354.31 131.64 1353.44 133.03C1352.58 134.41 1351.44 136.41 1350.91 137.46C1350.38 138.5 1349.68 139.23 1349.36 139.08C1349.03 138.92 1348.02 137.61 1347.11 136.17C1345.87 134.2 1345.26 133.68 1344.66 134.08C1344.22 134.37 1342.29 137.95 1340.36 142.03C1338.43 146.12 1336.08 152.2 1335.13 155.56C1334.18 158.91 1333.24 162.5 1333.03 163.54L1332.65 165.43L1326.89 161.43C1325.35 164.64 1324.42 167.97 1323.84 170.9C1323.25 173.82 1322.78 178.19 1322.8 180.6C1322.81 183.02 1323.13 187.25 1323.52 190.01C1323.9 192.78 1324.29 195.55 1324.39 196.17C1324.5 196.8 1325.38 199.54 1326.36 202.27C1327.34 205.01 1328.58 208.28 1329.13 209.54C1329.68 210.81 1330.88 212.86 1331.79 214.11C1332.71 215.35 1333.65 217.28 1333.88 218.39C1334.11 219.51 1334.07 221.62 1333.79 223.09C1333.46 224.84 1331.17 229.84 1327.14 237.57C1323.16 245.23 1321.16 249.58 1321.45 249.96C1321.7 250.29 1323.27 248.74 1325.06 246.41C1326.8 244.14 1330.55 239.8 1333.4 236.76C1336.25 233.72 1340.93 229.09 1343.81 226.46C1346.7 223.84 1353.18 218.27 1358.23 214.09C1363.28 209.9 1370.52 203.71 1374.32 200.33C1378.13 196.95 1383.39 192.1 1386.01 189.56C1388.64 187.01 1393.71 181.91 1397.29 178.22C1400.87 174.53 1406.57 168.42 1409.96 164.64C1413.35 160.85 1419.31 153.88 1423.22 149.15C1427.12 144.41 1430.54 140.07 1430.82 139.5C1431.09 138.93 1431.73 138.42 1432.23 138.36C1432.92 138.28 1432.61 139.08 1430.98 141.59C1429.8 143.42 1426.43 148.2 1423.52 152.21C1420.6 156.22 1415.79 162.43 1412.84 166.02C1409.89 169.62 1404.45 175.85 1400.76 179.89C1397.06 183.92 1391.25 189.98 1387.83 193.35C1384.42 196.72 1379.54 201.42 1376.99 203.8C1374.43 206.18 1369.21 210.88 1365.39 214.25C1361.56 217.63 1355.44 222.79 1351.78 225.74C1348.11 228.69 1345.27 231.3 1345.45 231.55C1345.63 231.8 1347.75 233.35 1350.17 234.99C1352.83 236.81 1356.39 238.66 1359.2 239.71C1361.75 240.65 1366.34 241.85 1369.41 242.36C1372.47 242.88 1376.99 243.35 1379.47 243.42C1381.94 243.49 1386.58 243.22 1389.78 242.83C1392.98 242.44 1397.89 241.54 1400.69 240.84C1403.5 240.14 1406.43 239.05 1407.21 238.42C1408.41 237.44 1408.51 237.06 1407.88 235.83C1407.48 235.03 1406.8 233.84 1406.36 233.19C1405.64 232.1 1406.02 231.83 1410.95 229.92C1413.91 228.77 1418.95 226.48 1422.16 224.82C1425.36 223.17 1429.26 220.86 1430.83 219.7C1433.28 217.87 1433.58 217.45 1433.05 216.59C1432.71 216.04 1431.84 215.3 1431.11 214.94C1430.38 214.59 1429.78 213.96 1429.77 213.56C1429.77 213.16 1431.33 211.53 1433.25 209.95C1435.17 208.37 1438.64 205.2 1440.95 202.9C1443.26 200.61 1446.53 196.93 1448.21 194.73C1449.89 192.54 1451.19 190.54 1451.1 190.29C1451.01 190.05 1449.78 189.4 1448.37 188.85L1445.81 187.85C1448.48 184.25 1450.27 181.73 1451.5 179.91C1452.73 178.1 1455.13 173.68 1456.82 170.08C1458.51 166.49 1460.11 162.66 1460.36 161.58C1460.74 159.97 1460.55 159.52 1459.28 159.08C1458.44 158.78 1457.18 158.34 1456.5 158.1C1455.36 157.69 1455.44 157.17 1457.56 151.84C1458.83 148.65 1460.34 143.96 1460.9 141.42C1461.47 138.89 1461.96 135.43 1462 133.75C1462.03 132.06 1461.79 130.55 1461.47 130.39C1461.14 130.23 1460.02 130.51 1458.98 131.01C1457.93 131.51 1456.81 131.79 1456.49 131.64C1456.16 131.48 1455.89 126.34 1455.87 120.22C1455.86 114.1 1456.27 106.67 1456.78 103.71C1457.3 100.74 1457.65 98.05 1457.56 97.71C1457.48 97.38 1455.45 97.1 1453.06 97.09ZM1316.39 76.35C1316.08 76.43 1315.45 77.4 1314.98 78.52C1314.51 79.63 1312.52 82.47 1310.56 84.83C1308.6 87.2 1305.29 90.94 1303.21 93.14C1301.13 95.35 1299.28 97.16 1299.11 97.18C1298.94 97.2 1298.32 96.49 1297.75 95.61C1297.17 94.73 1296.45 94.02 1296.14 94.02C1295.84 94.02 1294.96 94.83 1294.19 95.81C1293.41 96.79 1291.54 100.11 1290.02 103.19C1288.5 106.27 1286.99 109.93 1286.65 111.32L1286.04 113.86L1281.52 111.13C1278.93 117.23 1277.7 120.98 1277.11 123.4C1276.52 125.83 1275.91 129.31 1275.76 131.14C1275.6 132.97 1275.23 134.76 1274.93 135.12C1274.63 135.47 1273.72 135.44 1272.91 135.05C1272.09 134.66 1271.16 134.62 1270.82 134.96C1270.49 135.3 1270.12 138.32 1269.99 141.67C1269.87 145.02 1270.09 150.29 1270.48 153.39C1270.88 156.49 1271.11 159.22 1270.99 159.47C1270.87 159.71 1270.07 159.9 1269.2 159.88C1268.33 159.86 1267.39 160.07 1267.11 160.33C1266.83 160.6 1267.09 162.74 1267.69 165.09C1268.28 167.44 1269.68 171.56 1270.8 174.25C1271.92 176.93 1273.35 180.09 1273.98 181.27L1275.13 183.4C1271.47 184.73 1270.71 185.4 1270.72 186.12C1270.73 186.73 1272.22 189.43 1274.03 192.11C1275.85 194.79 1279.09 198.78 1281.25 200.97C1283.4 203.17 1287.13 206.33 1289.53 207.99C1292.05 209.73 1295.86 211.78 1298.51 212.81C1301.05 213.79 1304.66 214.8 1306.55 215.04C1308.44 215.29 1310.26 215.4 1310.59 215.3C1310.93 215.2 1310.68 211.43 1310.04 206.91C1309.4 202.39 1308.48 194.89 1307.99 190.24C1307.49 185.59 1306.82 177.23 1306.49 171.65C1306.16 166.08 1305.97 156.96 1306.06 151.39C1306.14 145.82 1306.44 138.25 1306.71 134.57C1306.99 130.89 1307.52 125.57 1307.9 122.75C1308.29 119.92 1308.81 117.55 1309.06 117.47C1309.31 117.39 1309.56 117.51 1309.6 117.73C1309.64 117.95 1309.47 122.13 1309.21 127.02C1308.95 131.91 1308.78 141.18 1308.82 147.62C1308.87 154.06 1309.28 164.59 1309.75 171.03C1310.21 177.47 1311.24 187.49 1312.04 193.29C1312.84 199.09 1313.75 205.76 1314.05 208.11C1314.36 210.46 1314.83 215.45 1315.1 219.19C1315.36 222.93 1315.58 229.02 1315.57 232.73C1315.57 236.43 1315.76 239.57 1316 239.69C1316.25 239.81 1316.92 238.41 1317.51 236.58C1318.1 234.76 1319.34 229.61 1320.28 225.15C1321.23 220.69 1322.25 216.51 1322.57 215.86C1322.88 215.21 1324.58 214.06 1326.35 213.31C1328.12 212.55 1329.62 211.48 1329.69 210.91C1329.76 210.34 1329.3 209.05 1328.65 208.04C1328.01 207.03 1326.26 203.15 1324.77 199.42C1323.28 195.69 1321.73 190.68 1321.32 188.28C1320.92 185.88 1320.6 181.46 1320.63 178.46C1320.65 175.47 1321.11 170.44 1321.66 167.3C1322.21 164.15 1322.98 160.42 1323.37 159L1324.07 156.43C1329.34 159.99 1329.75 160.1 1330.17 159.18C1330.44 158.61 1331.29 155.82 1332.07 152.99C1332.84 150.15 1335.53 143.08 1338.06 137.28C1341.47 129.44 1342.88 126.7 1343.56 126.62C1344.06 126.56 1345.28 127.71 1346.28 129.19C1347.28 130.66 1348.39 131.77 1348.76 131.66C1349.13 131.55 1350.13 129.99 1350.98 128.19C1352.53 124.96 1352.52 124.88 1350.46 119.02C1349.14 115.24 1347.9 112.87 1347.06 112.45C1346.31 112.09 1345.21 112.2 1344.56 112.7C1343.49 113.53 1343.21 113.1 1340.86 107.09C1339.46 103.51 1337.42 99.24 1336.32 97.61C1335.21 95.97 1333.85 94.58 1333.28 94.51C1332.71 94.43 1332.06 94.77 1331.82 95.26C1331.59 95.75 1331.06 96 1330.65 95.81C1330.23 95.63 1329.64 94.64 1329.33 93.62C1329.02 92.6 1327.86 90.07 1326.76 87.99C1325.66 85.9 1323.87 83.16 1322.78 81.88C1321.69 80.6 1319.93 78.81 1318.87 77.88C1317.81 76.96 1316.69 76.27 1316.39 76.35Z" />
	<path id="Bee" fill-rule="evenodd" class="shp1" d="M345.33 72.62C345.83 72.63 346.51 72.67 346.83 72.7C347.16 72.73 347.79 72.84 348.23 72.93C348.67 73.02 349.39 73.21 349.84 73.35C350.28 73.49 351.09 73.81 351.63 74.05C352.31 74.36 353.03 74.8 353.99 75.5C355.01 76.24 355.6 76.74 356.18 77.38C356.62 77.86 357.18 78.52 357.42 78.86C357.66 79.19 358.07 79.84 358.33 80.3C358.59 80.76 358.95 81.51 359.15 81.98C359.34 82.45 359.61 83.22 359.74 83.7C359.9 84.25 360.05 85.05 360.14 85.9C360.23 86.65 360.28 87.63 360.26 88.15C360.24 88.65 360.14 89.56 360.04 90.18C359.94 90.79 359.72 91.72 359.55 92.25C359.38 92.77 359.07 93.57 358.86 94.03C358.65 94.48 358.23 95.24 357.93 95.72C357.63 96.19 357.11 96.91 356.78 97.3C356.44 97.7 355.83 98.33 355.42 98.71C355.01 99.09 354.38 99.61 354.02 99.86C353.66 100.12 353.09 100.5 352.75 100.7C352.4 100.9 351.72 101.24 351.23 101.45C350.75 101.67 349.94 101.96 349.44 102.11C348.94 102.26 348.1 102.45 347.58 102.54C347.06 102.62 346.17 102.7 345.61 102.72C345.06 102.73 344.18 102.71 343.68 102.66C343.17 102.61 342.38 102.49 341.91 102.39C341.45 102.29 340.7 102.08 340.25 101.92C339.8 101.77 339.04 101.45 338.56 101.22C338.03 100.98 337.14 100.42 336.34 99.85C335.36 99.14 334.78 98.64 334.2 98.01C333.76 97.53 333.17 96.82 332.89 96.43C332.61 96.04 332.14 95.27 331.86 94.73C331.57 94.2 331.19 93.39 331.02 92.94C330.81 92.39 330.61 91.63 330.4 90.55C330.17 89.31 330.1 88.74 330.09 87.92C330.08 87.35 330.14 86.41 330.21 85.82C330.28 85.24 330.45 84.35 330.57 83.86C330.7 83.37 330.96 82.59 331.14 82.14C331.32 81.69 331.65 80.98 331.86 80.57C332.07 80.17 332.55 79.41 332.92 78.9C333.28 78.39 333.92 77.63 334.32 77.22C334.73 76.8 335.43 76.18 335.87 75.83C336.31 75.48 337.01 75 337.42 74.76C337.83 74.52 338.49 74.17 338.88 73.99C339.28 73.8 340.01 73.52 340.51 73.36C341.08 73.18 341.96 72.99 342.91 72.84C343.95 72.68 344.7 72.61 345.33 72.62ZM344.99 79.56C344.74 79.56 344.11 79.64 343.61 79.74C343.08 79.85 342.39 80.05 342.01 80.22C341.63 80.38 340.96 80.77 340.51 81.09C340.05 81.42 339.47 81.93 339.16 82.28C338.87 82.62 338.44 83.22 338.21 83.6C337.99 83.98 337.69 84.62 337.56 85.01C337.43 85.41 337.27 86.04 337.21 86.43C337.15 86.81 337.11 87.51 337.12 87.98C337.14 88.47 337.22 89.12 337.31 89.49C337.4 89.85 337.61 90.47 337.78 90.87C337.94 91.27 338.31 91.92 338.59 92.32C338.88 92.73 339.39 93.32 339.73 93.64C340.07 93.96 340.71 94.42 341.14 94.67C341.6 94.93 342.34 95.24 342.89 95.41C343.41 95.56 344.11 95.72 344.44 95.76C344.9 95.81 345.36 95.78 346.49 95.59C347.9 95.37 347.98 95.34 348.75 94.94C349.18 94.71 349.85 94.28 350.22 93.99C350.61 93.67 351.15 93.12 351.49 92.67C351.82 92.24 352.23 91.63 352.39 91.3C352.55 90.98 352.79 90.35 352.92 89.91C353.05 89.46 353.18 88.73 353.22 88.27C353.27 87.67 353.24 87.17 353.12 86.43C353.02 85.83 352.86 85.16 352.71 84.8C352.58 84.46 352.3 83.89 352.1 83.53C351.89 83.18 351.47 82.61 351.15 82.26C350.83 81.91 350.27 81.4 349.9 81.14C349.53 80.87 348.95 80.51 348.6 80.35C348.25 80.19 347.66 79.97 347.3 79.87C346.93 79.77 346.37 79.66 346.04 79.62C345.71 79.58 345.24 79.56 344.99 79.56ZM446.97 66.71C447.52 66.7 448.37 66.7 448.87 66.72C449.38 66.74 450.31 66.82 450.94 66.9C451.58 66.98 452.56 67.14 453.13 67.27C453.7 67.39 454.73 67.67 455.43 67.89C456.12 68.11 457.1 68.46 457.59 68.67C458.08 68.87 458.92 69.26 459.46 69.52C460 69.79 460.87 70.26 461.39 70.58C461.92 70.89 462.98 71.6 463.74 72.15C464.5 72.71 465.64 73.63 466.27 74.2C466.91 74.77 467.88 75.74 468.44 76.35C468.99 76.96 469.68 77.74 469.96 78.1C470.25 78.45 470.71 79.07 471 79.47C471.29 79.87 471.8 80.65 472.14 81.19C472.48 81.74 473.02 82.69 473.34 83.31C473.66 83.93 474.13 84.92 474.38 85.5C474.62 86.09 475 87.09 475.21 87.73C475.55 88.74 475.65 89.22 476 91.41C476.32 93.42 476.4 94.11 476.39 94.84C476.38 95.34 476.34 96.14 476.29 96.62C476.25 97.1 476.13 97.99 476.02 98.59C475.92 99.19 475.71 100.14 475.56 100.7C475.41 101.26 475.1 102.2 474.88 102.78C474.66 103.36 474.27 104.28 474.02 104.82C473.77 105.36 473.35 106.18 473.09 106.64C472.83 107.11 472.29 108.01 471.88 108.64C471.48 109.27 470.77 110.26 470.31 110.83C469.85 111.4 469.15 112.24 468.75 112.68C468.35 113.12 467.66 113.83 467.23 114.26C466.8 114.68 466.02 115.39 465.49 115.84C464.96 116.28 464.13 116.94 463.64 117.3C463.15 117.66 462.36 118.2 461.88 118.51C461.41 118.81 460.53 119.33 459.94 119.66C459.34 119.99 458.28 120.51 457.58 120.81C456.89 121.12 455.75 121.56 455.07 121.79C454.38 122.02 453.21 122.35 452.47 122.53C451.66 122.72 450.61 122.91 449.87 122.99C449.18 123.07 448.15 123.15 447.58 123.16C447.01 123.18 446.07 123.17 445.49 123.13C444.91 123.1 443.88 122.98 443.18 122.86C442.49 122.75 441.48 122.54 440.94 122.4C440.39 122.26 439.24 121.92 438.37 121.64C437.5 121.36 436.12 120.88 435.3 120.57C434.48 120.26 433.1 119.72 432.25 119.36C431.4 119.01 429.49 118.17 428.01 117.5C426.54 116.83 424.35 115.82 423.17 115.24C421.98 114.66 420.12 113.74 419.03 113.19C417.95 112.64 415.73 111.48 414.09 110.62C412.46 109.76 410.25 108.58 409.19 108C408.13 107.42 406.09 106.3 404.67 105.51C403.25 104.71 400.58 103.2 398.74 102.15C396.9 101.09 394.5 99.7 393.4 99.05C392.3 98.4 390.05 97.07 388.4 96.08C386.74 95.1 384.14 93.52 382.6 92.58C381.07 91.64 379.82 90.82 379.83 90.76C379.83 90.69 380.89 90.19 382.42 89.54C383.84 88.93 386.76 87.7 388.91 86.8C391.06 85.9 394.62 84.43 396.82 83.53C399.02 82.63 402.77 81.12 405.16 80.18C407.55 79.23 411.24 77.79 413.35 76.98C415.47 76.17 418.49 75.03 420.06 74.45C421.64 73.87 424.42 72.87 426.24 72.23C428.05 71.6 430.67 70.72 432.04 70.27C433.42 69.83 435.28 69.25 436.18 68.98C437.09 68.71 438.59 68.28 439.52 68.03C440.64 67.73 442.03 67.43 443.6 67.16C445.3 66.86 446.26 66.74 446.97 66.71ZM447.14 75.75C446.5 75.76 445.73 75.86 444.52 76.08C443.58 76.25 442.26 76.54 441.59 76.73C440.92 76.91 439.79 77.24 439.07 77.45C438.36 77.67 437.06 78.08 436.18 78.37C435.31 78.65 433.84 79.15 432.92 79.47C432 79.8 430.07 80.49 428.63 81.02C427.2 81.55 424.85 82.44 423.42 82.99C421.99 83.54 419.78 84.4 418.51 84.9C417.25 85.4 414.81 86.38 413.1 87.08C411.4 87.77 408.03 89.17 405.62 90.18C403.22 91.19 401.23 92.04 401.21 92.06C401.19 92.09 401.32 92.2 401.49 92.3C401.66 92.41 402.92 93.18 404.3 94.01C405.67 94.85 408.03 96.26 409.55 97.16C411.06 98.05 413.71 99.58 415.43 100.56C417.16 101.54 419.47 102.83 420.56 103.43C421.65 104.03 423.52 105.03 424.72 105.67C425.92 106.3 427.94 107.34 429.21 107.97C430.48 108.61 432.54 109.59 433.77 110.15C435.01 110.71 436.78 111.48 437.71 111.85C438.65 112.23 440.08 112.76 440.89 113.03C441.71 113.3 442.86 113.62 443.46 113.76C444.05 113.89 444.87 114.03 445.27 114.06C445.68 114.1 446.36 114.14 446.78 114.15C447.21 114.16 448.11 114.1 448.8 114.02C449.5 113.94 450.48 113.76 451.05 113.62C451.6 113.47 452.43 113.21 452.9 113.04C453.37 112.86 454.14 112.53 454.6 112.31C455.06 112.09 455.87 111.66 456.39 111.34C456.92 111.03 457.76 110.46 458.28 110.08C458.79 109.7 459.65 108.98 460.19 108.48C460.74 107.97 461.51 107.19 461.91 106.73C462.31 106.27 463 105.37 463.45 104.73C463.9 104.09 464.51 103.09 464.82 102.51C465.12 101.93 465.55 100.99 465.77 100.41C465.99 99.84 466.29 98.86 466.44 98.23C466.58 97.61 466.73 96.67 466.77 96.14C466.82 95.61 466.84 94.83 466.83 94.41C466.81 93.99 466.72 93.15 466.63 92.54C466.53 91.93 466.32 91.03 466.17 90.53C466.02 90.03 465.76 89.26 465.59 88.83C465.42 88.4 465.09 87.67 464.86 87.22C464.64 86.78 464.18 85.98 463.85 85.46C463.52 84.94 462.97 84.15 462.62 83.71C462.27 83.27 461.73 82.64 461.43 82.31C461.13 81.99 460.57 81.42 460.18 81.06C459.8 80.7 459.06 80.09 458.55 79.7C458.04 79.31 457.2 78.74 456.67 78.43C456.15 78.11 455.26 77.64 454.7 77.38C454.13 77.12 453.22 76.77 452.67 76.59C452.12 76.42 451.26 76.2 450.78 76.1C450.29 76 449.47 75.88 448.97 75.83C448.46 75.78 447.64 75.74 447.14 75.75ZM318.47 96.61C318.9 96.62 319.58 96.65 319.98 96.68C320.38 96.72 321.03 96.81 321.42 96.88C321.8 96.95 322.5 97.12 322.97 97.26C323.44 97.4 324.29 97.72 324.85 97.98C325.42 98.24 326.24 98.68 326.69 98.96C327.13 99.24 327.82 99.75 328.23 100.09C328.63 100.43 329.27 101.04 329.64 101.44C330.01 101.84 330.58 102.53 330.9 102.98C331.21 103.42 331.68 104.19 331.93 104.67C332.18 105.15 332.55 105.95 332.74 106.44C333.04 107.22 333.13 107.6 333.4 109.28C333.68 111 333.71 111.34 333.66 112.23C333.63 112.79 333.52 113.71 333.42 114.29C333.32 114.86 333.14 115.65 333.02 116.03C332.9 116.41 332.7 116.98 332.57 117.3C332.45 117.62 332.17 118.21 331.96 118.62C331.75 119.03 331.32 119.75 330.99 120.21C330.66 120.68 330.13 121.36 329.81 121.71C329.5 122.07 328.9 122.66 328.48 123.02C328.07 123.38 327.43 123.88 327.07 124.12C326.71 124.36 326.08 124.74 325.67 124.97C325.25 125.19 324.43 125.56 323.85 125.78C322.9 126.15 322.58 126.22 321.01 126.48C319.67 126.69 319.03 126.76 318.34 126.74C317.84 126.73 317.03 126.67 316.55 126.6C316.06 126.54 315.26 126.38 314.77 126.25C314.27 126.12 313.52 125.88 313.1 125.72C312.67 125.56 311.98 125.24 311.56 125.02C311.14 124.8 310.42 124.37 309.97 124.05C309.51 123.74 308.89 123.26 308.58 122.98C308.28 122.71 307.75 122.18 307.41 121.81C307.06 121.44 306.53 120.77 306.22 120.32C305.9 119.87 305.43 119.09 305.17 118.59C304.91 118.08 304.54 117.24 304.35 116.72C304.06 115.94 303.95 115.49 303.72 114.06C303.53 112.82 303.46 112.1 303.47 111.52C303.49 111.06 303.55 110.27 303.62 109.75C303.69 109.23 303.84 108.41 303.96 107.93C304.09 107.44 304.32 106.7 304.48 106.28C304.64 105.85 304.99 105.11 305.25 104.62C305.52 104.13 305.97 103.38 306.27 102.97C306.57 102.55 307.06 101.94 307.35 101.61C307.65 101.28 308.14 100.78 308.45 100.5C308.75 100.23 309.38 99.73 309.85 99.39C310.32 99.06 311.09 98.59 311.55 98.35C312.01 98.11 312.77 97.77 313.24 97.58C313.91 97.32 314.46 97.19 315.9 96.93C317.15 96.71 317.94 96.61 318.47 96.61ZM318.45 103.56C318.15 103.56 317.49 103.64 316.98 103.75C316.48 103.85 315.77 104.05 315.42 104.2C315.07 104.36 314.51 104.66 314.17 104.89C313.84 105.11 313.33 105.51 313.05 105.77C312.76 106.03 312.3 106.58 312.01 106.98C311.73 107.38 311.36 108.03 311.19 108.43C311.02 108.83 310.81 109.47 310.72 109.86C310.63 110.25 310.54 110.88 310.52 111.25C310.5 111.65 310.55 112.35 310.64 112.91C310.73 113.47 310.9 114.18 311.05 114.57C311.19 114.94 311.49 115.55 311.72 115.91C311.95 116.27 312.3 116.76 312.5 117C312.7 117.24 313.21 117.7 313.64 118.03C314.07 118.36 314.68 118.77 315.01 118.93C315.33 119.09 315.96 119.33 316.4 119.45C316.85 119.58 317.5 119.71 317.86 119.75C318.36 119.8 318.8 119.77 319.87 119.59C320.91 119.43 321.37 119.31 321.79 119.12C322.09 118.98 322.63 118.67 322.99 118.43C323.35 118.19 323.88 117.77 324.16 117.51C324.44 117.24 324.87 116.75 325.12 116.4C325.36 116.06 325.71 115.45 325.9 115.05C326.08 114.65 326.31 114.01 326.4 113.62C326.5 113.23 326.6 112.58 326.63 112.18C326.67 111.64 326.63 111.13 326.49 110.3C326.34 109.45 326.22 108.98 326.01 108.51C325.86 108.16 325.55 107.6 325.32 107.26C325.1 106.93 324.72 106.44 324.48 106.18C324.24 105.92 323.79 105.51 323.48 105.26C323.16 105.02 322.62 104.67 322.27 104.48C321.91 104.3 321.26 104.04 320.82 103.92C320.37 103.79 319.78 103.66 319.5 103.62C319.22 103.59 318.75 103.56 318.45 103.56ZM363.81 106.18C364.11 106.15 364.99 106.08 365.78 106.03C366.57 105.99 367.94 105.95 368.81 105.96C369.68 105.97 371.04 106.03 371.82 106.09C372.64 106.15 373.25 106.25 373.26 106.3C373.27 106.36 364.52 114.31 353.82 123.96C338.55 137.75 334.35 141.49 334.24 141.43C334.13 141.36 334.12 141.11 334.14 140.07C334.15 139.37 334.22 138.14 334.29 137.33C334.36 136.52 334.52 135.19 334.64 134.37C334.77 133.55 335 132.36 335.14 131.71C335.28 131.06 335.59 129.89 335.83 129.11C336.07 128.32 336.44 127.2 336.66 126.62C336.89 126.03 337.3 125.05 337.59 124.43C337.87 123.81 338.39 122.79 338.73 122.17C339.07 121.54 339.97 120.17 340.73 119.12C341.48 118.07 342.47 116.82 342.91 116.33C343.36 115.85 344.24 114.98 344.87 114.4C345.5 113.82 346.64 112.89 347.4 112.34C348.16 111.79 349.3 111.03 349.94 110.65C350.58 110.28 351.48 109.79 351.94 109.56C352.4 109.34 353.16 108.99 353.63 108.79C354.09 108.59 354.88 108.28 355.38 108.1C355.87 107.93 356.74 107.64 357.31 107.47C357.89 107.31 358.94 107.03 359.66 106.87C360.39 106.7 361.49 106.49 362.13 106.4C362.76 106.31 363.52 106.21 363.81 106.18ZM389.81 110.79C390.65 111.16 392.04 111.83 392.9 112.26C393.75 112.69 394.99 113.35 395.65 113.72C396.3 114.1 397.36 114.72 398 115.11C398.63 115.51 399.44 116.02 399.79 116.26C400.14 116.49 400.42 116.74 400.41 116.8C400.4 116.86 399.7 117.54 398.86 118.3C398.01 119.06 386.57 129.39 373.43 141.24C360.3 153.09 347.87 164.31 345.82 166.15C343.77 168 342.02 169.53 341.92 169.55C341.77 169.58 341.65 169.39 341.07 168.29C340.69 167.57 340.07 166.29 339.68 165.43C339.29 164.57 338.74 163.27 338.45 162.54C338.16 161.81 337.7 160.58 337.43 159.8C337.16 159.02 336.83 158.05 336.7 157.63C336.49 156.97 336.47 156.86 336.57 156.73C336.63 156.65 348.25 146.15 362.4 133.39C376.54 120.63 388.14 110.18 388.19 110.15C388.24 110.13 388.96 110.41 389.81 110.79ZM411.63 125.75C412.1 126.21 412.97 127.1 413.58 127.73C414.18 128.36 415.12 129.39 415.67 130.02C416.22 130.66 417.07 131.69 417.57 132.3C418.06 132.92 418.66 133.68 418.9 134C419.14 134.31 419.32 134.62 419.31 134.7C419.3 134.78 416.55 137.31 413.2 140.34C409.85 143.36 404.63 148.07 401.6 150.8C398.57 153.54 387.49 163.53 376.98 173.02C366.47 182.5 357.81 190.27 357.73 190.28C357.66 190.29 356.98 189.7 356.22 188.96C355.46 188.22 354.27 187.01 353.58 186.27C352.89 185.54 351.87 184.39 351.32 183.74C350.77 183.08 350 182.14 349.62 181.65C349.24 181.16 348.92 180.71 348.91 180.65C348.89 180.59 362.76 168.04 379.71 152.75C396.66 137.46 410.59 124.94 410.65 124.93C410.72 124.92 411.16 125.29 411.63 125.75ZM318.15 146.54C318.21 146.57 318.84 147.8 319.56 149.29C320.27 150.77 321.53 153.44 322.36 155.22C323.2 157.01 324.38 159.58 324.99 160.92C325.61 162.27 326.72 164.74 327.47 166.42C328.22 168.09 329.56 171.18 330.46 173.28C331.36 175.38 332.54 178.17 333.08 179.48C333.62 180.79 334.57 183.15 335.2 184.72C335.82 186.29 336.79 188.81 337.35 190.31C337.91 191.82 338.7 194.04 339.12 195.24C339.54 196.45 340.12 198.19 340.42 199.11C340.71 200.04 341.09 201.26 341.26 201.83C341.43 202.4 341.77 203.59 342.01 204.48C342.25 205.36 342.64 207.03 342.89 208.19C343.23 209.81 343.36 210.65 343.47 211.86C343.55 212.72 343.6 213.97 343.59 214.65C343.57 215.32 343.49 216.4 343.41 217.03C343.33 217.67 343.16 218.67 343.03 219.27C342.9 219.86 342.6 220.95 342.36 221.69C342.12 222.42 341.67 223.59 341.35 224.29C341.03 224.99 340.49 226.08 340.15 226.7C339.8 227.33 338.99 228.59 338.34 229.5C337.68 230.41 336.79 231.56 336.34 232.06C335.9 232.57 335.11 233.4 334.58 233.92C334.05 234.44 333.21 235.2 332.72 235.62C332.22 236.04 331.29 236.76 330.64 237.24C329.99 237.71 329.04 238.35 328.51 238.67C327.99 238.99 327.13 239.48 326.6 239.75C326.07 240.03 325.3 240.41 324.88 240.6C324.46 240.79 323.64 241.12 323.05 241.34C322.46 241.56 321.47 241.89 320.85 242.07C320.17 242.27 319.05 242.51 318.01 242.67C317.06 242.83 315.88 242.97 315.38 242.99C314.89 243.01 314.07 243 313.57 242.98C313.07 242.97 312.24 242.9 311.73 242.84C311.22 242.77 310.34 242.61 309.77 242.49C309.21 242.36 308.31 242.11 307.79 241.95C307.26 241.78 306.42 241.48 305.91 241.27C305.4 241.07 304.66 240.74 304.25 240.54C303.85 240.34 303.09 239.93 302.57 239.63C302.05 239.33 301.14 238.77 300.56 238.38C299.98 237.99 299.03 237.28 298.45 236.8C297.87 236.31 297.08 235.62 296.7 235.26C296.31 234.9 295.6 234.18 295.12 233.66C294.64 233.13 294.04 232.45 293.79 232.15C293.54 231.84 292.98 231.09 292.55 230.49C292.11 229.88 291.52 229 291.23 228.52C290.94 228.04 290.46 227.18 290.17 226.61C289.87 226.03 289.44 225.12 289.21 224.58C288.98 224.05 288.64 223.16 288.45 222.62C288.27 222.08 287.99 221.16 287.84 220.59C287.66 219.91 287.46 218.8 287.28 217.46C287.11 216.22 287 215.02 287 214.49C287 214 287.02 213.2 287.05 212.71C287.08 212.22 287.21 211.13 287.35 210.29C287.48 209.44 287.78 208.13 288.01 207.37C288.24 206.61 288.63 205.43 288.87 204.74C289.12 204.06 289.66 202.64 290.07 201.61C290.49 200.57 291.17 198.93 291.58 197.97C291.99 197 293.06 194.63 293.96 192.7C294.85 190.76 296.3 187.69 297.18 185.88C298.07 184.07 299.53 181.13 300.43 179.34C301.34 177.55 302.81 174.66 303.71 172.92C304.61 171.19 306.2 168.14 307.25 166.15C308.3 164.17 310.11 160.78 311.27 158.63C312.42 156.49 314.38 152.89 315.62 150.65C316.86 148.41 317.91 146.55 317.96 146.53C318 146.51 318.09 146.51 318.15 146.54ZM317.29 168C317.23 167.9 317.19 167.92 317.07 168.12C316.99 168.26 316.22 169.65 315.37 171.2C314.51 172.76 313.05 175.44 312.13 177.16C311.2 178.87 309.76 181.59 308.92 183.2C308.08 184.8 306.82 187.24 306.12 188.63C305.41 190.01 304.3 192.23 303.65 193.55C303 194.88 301.82 197.35 301.04 199.04C300.25 200.74 299.27 202.93 298.86 203.92C298.44 204.91 297.88 206.31 297.62 207.02C297.35 207.74 297 208.77 296.84 209.32C296.68 209.87 296.47 210.76 296.39 211.3C296.3 211.83 296.21 212.68 296.19 213.18C296.17 213.69 296.18 214.54 296.2 215.09C296.23 215.68 296.35 216.55 296.5 217.26C296.63 217.91 296.87 218.83 297.02 219.31C297.17 219.78 297.48 220.61 297.71 221.14C297.94 221.68 298.34 222.49 298.59 222.95C298.85 223.41 299.42 224.3 299.86 224.92C300.3 225.55 301.11 226.55 301.65 227.13C302.19 227.72 303.01 228.53 303.47 228.93C303.93 229.33 304.72 229.94 305.21 230.28C305.71 230.63 306.43 231.09 306.81 231.3C307.2 231.52 307.93 231.89 308.44 232.12C308.95 232.35 309.75 232.66 310.23 232.81C310.7 232.96 311.44 233.16 311.88 233.25C312.32 233.35 313.03 233.46 313.46 233.5C313.89 233.54 314.67 233.56 315.19 233.54C315.71 233.53 316.55 233.46 317.05 233.38C317.54 233.3 318.33 233.13 318.8 233C319.26 232.88 320.03 232.63 320.5 232.46C320.97 232.28 321.74 231.96 322.2 231.74C322.66 231.52 323.47 231.09 323.99 230.78C324.52 230.46 325.4 229.87 325.96 229.45C326.52 229.04 327.36 228.34 327.84 227.9C328.32 227.45 329 226.77 329.36 226.37C329.72 225.97 330.37 225.16 330.8 224.57C331.23 223.98 331.78 223.16 332.02 222.75C332.26 222.33 332.66 221.56 332.9 221.02C333.15 220.48 333.54 219.44 333.77 218.71C333.99 217.97 334.23 217 334.31 216.54C334.38 216.08 334.46 215.31 334.49 214.83C334.51 214.35 334.51 213.54 334.48 213.02C334.45 212.5 334.36 211.67 334.28 211.17C334.2 210.67 333.96 209.55 333.75 208.67C333.54 207.8 333.18 206.46 332.96 205.69C332.73 204.93 332.27 203.48 331.93 202.46C331.6 201.44 330.94 199.57 330.47 198.3C330 197.03 329.16 194.83 328.6 193.43C328.04 192.02 326.81 189.06 325.87 186.84C324.92 184.62 323.55 181.48 322.82 179.85C322.09 178.22 320.86 175.54 320.09 173.89C319.33 172.25 318.4 170.27 318.03 169.51C317.66 168.75 317.33 168.06 317.29 168ZM426.52 146.07C426.62 146.22 426.95 146.86 427.26 147.48C427.56 148.11 428.2 149.53 428.67 150.65C429.15 151.78 429.8 153.43 430.11 154.32C430.43 155.22 430.87 156.56 431.09 157.29C431.41 158.38 431.47 158.67 431.4 158.81C431.35 158.9 422.69 166.76 412.14 176.27C401.59 185.79 390.14 196.12 386.68 199.23L380.4 204.88C379.09 204.34 378.32 204.02 377.85 203.81C377.38 203.6 376.39 203.14 375.65 202.77C374.91 202.41 373.65 201.76 372.86 201.32C372.07 200.89 370.88 200.2 370.21 199.8C369.55 199.39 368.79 198.92 368.53 198.75C368.26 198.57 368.04 198.39 368.03 198.34C368.03 198.29 381.08 186.47 397.04 172.08C413 157.69 426.12 145.89 426.2 145.86C426.29 145.81 426.4 145.88 426.52 146.07ZM433.5 174.51C433.54 174.57 433.55 175.01 433.53 175.48C433.51 175.96 433.45 176.87 433.39 177.5C433.34 178.13 433.2 179.3 433.07 180.09C432.95 180.88 432.71 182.18 432.53 182.98C432.35 183.78 432 185.11 431.75 185.92C431.49 186.73 431.04 187.99 430.75 188.71C430.46 189.43 430.01 190.43 429.75 190.95C429.5 191.46 429 192.38 428.65 192.98C428.3 193.59 427.69 194.54 427.3 195.1L426.59 196.12C427.23 196.58 427.65 196.96 427.93 197.27C428.21 197.57 428.94 198.51 429.55 199.36C430.17 200.21 431.09 201.58 431.6 202.39C432.11 203.21 432.87 204.47 433.29 205.2C433.71 205.93 434.46 207.26 434.95 208.16C435.44 209.05 436.4 210.83 437.07 212.12C437.74 213.41 438.81 215.53 439.44 216.82C440.08 218.11 441.06 220.16 441.63 221.37C442.19 222.57 442.65 223.62 442.65 223.7C442.65 223.77 442.6 223.84 442.54 223.85C442.48 223.86 440.6 222.42 438.36 220.66C436.12 218.89 432.77 216.25 430.91 214.78C429.06 213.3 426.54 211.3 425.32 210.33C424.1 209.35 422.16 207.78 421 206.84C419.2 205.37 418.86 205.05 418.5 204.5C418.26 204.15 418.05 203.87 418.01 203.88C417.97 203.88 417.22 204.27 416.33 204.73C415.45 205.19 414.11 205.81 413.36 206.1C412.61 206.4 411.42 206.81 410.72 207.03C410.02 207.24 408.77 207.57 407.94 207.76C407.08 207.95 405.73 208.19 404.83 208.3C403.95 208.41 402.78 208.53 402.24 208.56C401.7 208.6 400.68 208.63 399.99 208.65C399.29 208.66 398.21 208.64 397.58 208.62C396.96 208.59 396.29 208.56 396.1 208.54C395.89 208.52 395.75 208.46 395.73 208.38C395.72 208.3 403.25 201.45 414.45 191.35C424.76 182.05 433.25 174.44 433.32 174.43C433.38 174.42 433.47 174.46 433.5 174.51Z" />
	<path id="Hun and Bun " fill="#fff773" aria-label="Hun and Bun"  d="M539.55 243.85L471.75 243.85L482.4 193.75L471.6 193.75L448.95 301L459.75 301L470.4 250.6L538.2 250.6L527.55 301L537.3 301L559.95 193.75L550.2 193.75ZM585.9 223.3L575.7 223.3L565.35 271.45C560.55 295.45 569.7 303.55 583.2 303.55C598.05 303.55 610.5 296.8 617.55 284.8L615 301L624 301L640.5 223.3L630.75 223.3L620.7 270.4C617.1 286.75 600.45 296.8 586.95 296.8C573.75 296.8 572.1 288.25 575.25 272.8ZM700.35 301L709.95 301L719.85 254.05C724.65 231.7 717.15 221.05 702.9 221.05C690.75 221.05 674.7 229.3 668.85 238.75L671.25 223.3L662.4 223.3L645.9 301L655.8 301L666.3 251.35C668.7 239.35 683.25 228.55 696.75 228.55C709.35 228.55 713.7 237.4 710.55 253Z" />
	<path id="Hun and Bun " fill="#000000" aria-label="Hun and Bun"  d="" />
	<path id="Hun and Bun " fill="#ffffff" aria-label="Hun and Bun"  d="M795.45 296.8C780.45 296.8 783 278.05 786.3 262.3C789.9 246.55 796.5 228.7 819.45 228.7C826.8 228.7 830.7 230.5 836.55 233.95L829.5 267.4C827.1 278.65 814.2 296.8 795.45 296.8ZM847.5 227.8C839.4 226.15 833.4 220.9 821.85 220.9C796.05 220.9 782.7 234.1 776.7 262.3C771.45 287.65 774.75 303.4 794.1 303.4C809.7 303.4 823.65 290.5 826.05 285.1L824.4 300.85L832.2 300.85ZM907.65 301L917.25 301L927.15 254.05C931.95 231.7 924.45 221.05 910.2 221.05C898.05 221.05 882 229.3 876.15 238.75L878.55 223.3L869.7 223.3L853.2 301L863.1 301L873.6 251.35C876 239.35 890.55 228.55 904.05 228.55C916.65 228.55 921 237.4 917.85 253ZM995.7 267.7C991.65 286.15 981.75 296.2 963.75 296.2C946.2 296.2 948.45 274.45 951.3 261.7C953.1 254.5 958.05 227.35 979.35 227.35C986.85 227.35 998.25 231.4 1003.05 233.8ZM990.9 290.8C989.4 298.6 989.7 299.5 989.25 301.6L998.7 301.6L1024.05 182.05L1014 182.05L1004.7 225.85C994.95 221.8 986.1 220.45 980.85 220.45C964.65 220.45 947.7 231.85 941.25 261.85C934.95 292.45 946.05 302.8 962.4 302.8C975 302.8 984.9 297.85 990.9 290.8Z" />
	<path id="Hun and Bun " fill="#74dea9" aria-label="Hun and Bun"  d="M1083.6 245.95L1114.2 245.95C1132.95 245.95 1143.75 254.95 1140.6 270.55C1137 286.9 1127.1 297.85 1095.15 297.1L1072.95 296.05ZM1084.95 239.2L1093.2 200.35L1118.1 200.35C1138.05 200.35 1144.2 208 1141.65 220.15C1138.8 233.8 1129.2 239.2 1108.8 239.2ZM1084.8 193.9C1077 230.5 1070.1 264.55 1062.3 301.15C1065.75 301.6 1075.05 302.5 1102.05 302.95C1137.15 303.7 1148.55 287.95 1152.15 271.75C1156.05 253.45 1143.3 244.6 1126.5 241.75C1139.4 240.1 1150.2 233.05 1152.9 220.15C1156.2 205.6 1148.85 193.9 1119.3 193.9ZM1189.35 223.3L1179.15 223.3L1168.8 271.45C1164 295.45 1173.15 303.55 1186.65 303.55C1201.5 303.55 1213.95 296.8 1221 284.8L1218.45 301L1227.45 301L1243.95 223.3L1234.2 223.3L1224.15 270.4C1220.55 286.75 1203.9 296.8 1190.4 296.8C1177.2 296.8 1175.55 288.25 1178.7 272.8ZM1303.8 301L1313.4 301L1323.3 254.05C1328.1 231.7 1320.6 221.05 1306.35 221.05C1294.2 221.05 1278.15 229.3 1272.3 238.75L1274.7 223.3L1265.85 223.3L1249.35 301L1259.25 301L1269.75 251.35C1272.15 239.35 1286.7 228.55 1300.2 228.55C1312.8 228.55 1317.15 237.4 1314 253Z" />
</svg>