<svg version="1.2" baseProfile="tiny-ps" xmlns="http://www.w3.org/2000/svg" viewBox="0 0 1750 405" width="164" height="38">
	<title>Hun and Bun Private Server Logo UwU - Discord Server Logos (Vector Logo)</title>
	<style>
		tspan { white-space:pre }
		.shp0 { fill: #74dea9 } 
		.shp1 { fill: #fff773 } 
		.shp2 { fill: #000000 } 
		.shp3 { fill: #ffffff } 
	</style>
	<path id="Leaf" class="shp0" d="M1746.22 137.85C1744.12 137.22 1740.5 136.56 1738.16 136.39C1735.81 136.21 1732.12 136.29 1729.95 136.55C1727.79 136.82 1725.34 137.24 1724.51 137.49C1723.68 137.74 1722.8 137.76 1722.56 137.54C1722.31 137.31 1722.37 136.45 1722.67 135.62C1723.01 134.73 1722.89 133.78 1722.37 133.3C1721.87 132.85 1718.49 132.64 1714.47 132.82C1710.61 132.99 1705.31 133.68 1702.7 134.34C1700.09 135.01 1697.87 135.44 1697.76 135.32C1697.66 135.18 1697.63 133.96 1697.72 132.58L1697.86 130.09C1692.14 130.56 1688.57 131.15 1686.23 131.7C1683.89 132.26 1679.78 133.63 1677.1 134.77C1674.42 135.91 1671.77 137.07 1671.23 137.36C1670.69 137.64 1670.08 137.74 1669.89 137.58C1669.71 137.42 1669.52 136.33 1669.47 135.14C1669.43 133.97 1669.19 132.82 1668.95 132.59C1668.71 132.37 1666.46 133.17 1663.95 134.36C1661.45 135.56 1657.62 137.67 1655.45 139.05C1653.29 140.43 1650.61 142.38 1649.48 143.37C1648.37 144.36 1646.85 145.81 1646.11 146.6C1645.37 147.37 1644.57 147.83 1644.32 147.61C1644.08 147.38 1643.53 145.97 1643.11 144.47C1642.54 142.42 1642.14 141.81 1641.51 142C1641.05 142.14 1638.42 144.78 1635.66 147.85C1632.9 150.93 1629.26 155.65 1627.55 158.35C1625.84 161.04 1624.08 163.94 1623.62 164.8L1622.8 166.36L1618.79 161.35C1616.6 163.76 1614.92 166.44 1613.64 168.85C1612.36 171.26 1610.81 174.97 1610.2 177.09C1609.58 179.21 1608.75 183.01 1608.38 185.53C1607.99 188.06 1607.61 190.59 1607.53 191.16C1607.46 191.74 1607.52 194.37 1607.67 197.02C1607.81 199.68 1608.05 202.87 1608.2 204.12C1608.35 205.38 1608.87 207.49 1609.34 208.82C1609.82 210.15 1610.14 212.09 1610.05 213.12C1609.96 214.16 1609.38 216 1608.75 217.22C1608 218.66 1604.69 222.45 1599.14 228.18C1593.65 233.86 1590.76 237.15 1590.92 237.56C1591.05 237.91 1592.83 236.96 1595.01 235.39C1597.13 233.85 1601.55 231.02 1604.84 229.1C1608.13 227.18 1613.44 224.34 1616.66 222.79C1619.87 221.24 1627.01 218.05 1632.53 215.7C1638.05 213.35 1646.01 209.81 1650.23 207.83C1654.45 205.86 1660.33 202.98 1663.29 201.44C1666.26 199.89 1672.04 196.74 1676.14 194.44C1680.24 192.14 1686.84 188.27 1690.79 185.84C1694.76 183.4 1701.8 178.84 1706.46 175.71C1711.12 172.58 1715.25 169.66 1715.65 169.24C1716.03 168.81 1716.73 168.53 1717.18 168.6C1717.81 168.71 1717.33 169.33 1715.24 171.11C1713.73 172.41 1709.53 175.72 1705.93 178.48C1702.32 181.23 1696.48 185.42 1692.96 187.8C1689.43 190.19 1683.04 194.23 1678.75 196.81C1674.45 199.38 1667.78 203.18 1663.9 205.24C1660.03 207.3 1654.52 210.15 1651.66 211.57C1648.8 212.99 1643 215.75 1638.77 217.71C1634.53 219.68 1627.81 222.6 1623.83 224.23C1619.85 225.86 1616.67 227.41 1616.77 227.68C1616.86 227.94 1618.31 229.86 1620.01 231.93C1621.87 234.22 1624.5 236.77 1626.69 238.42C1628.69 239.91 1632.4 242.16 1634.96 243.41C1637.5 244.66 1641.34 246.26 1643.5 246.96C1645.65 247.67 1649.79 248.64 1652.7 249.14C1655.6 249.63 1660.14 250.12 1662.78 250.24C1665.43 250.36 1668.28 250.17 1669.13 249.82C1670.44 249.27 1670.63 248.96 1670.39 247.72C1670.25 246.92 1669.97 245.69 1669.75 245.01C1669.4 243.87 1669.81 243.73 1674.63 243.34C1677.52 243.1 1682.54 242.41 1685.79 241.79C1689.03 241.18 1693.05 240.17 1694.73 239.57C1697.35 238.6 1697.73 238.31 1697.49 237.42C1697.33 236.85 1696.76 235.97 1696.22 235.46C1695.67 234.97 1695.31 234.26 1695.4 233.9C1695.51 233.55 1697.3 232.53 1699.39 231.65C1701.49 230.76 1705.36 228.89 1707.99 227.47C1710.61 226.07 1714.44 223.7 1716.48 222.2C1718.53 220.72 1720.19 219.31 1720.18 219.07C1720.16 218.83 1719.25 217.94 1718.16 217.09L1716.18 215.55C1719.46 213.09 1721.68 211.34 1723.24 210.07C1724.79 208.8 1728.05 205.55 1730.47 202.84C1732.89 200.13 1735.29 197.19 1735.79 196.31C1736.54 194.99 1736.49 194.55 1735.49 193.83C1734.84 193.35 1733.85 192.64 1733.31 192.25C1732.42 191.59 1732.63 191.16 1735.88 187.03C1737.82 184.57 1740.37 180.85 1741.52 178.77C1742.68 176.7 1744.02 173.79 1744.49 172.33C1744.96 170.86 1745.14 169.47 1744.9 169.25C1744.65 169.02 1743.6 168.97 1742.56 169.14C1741.5 169.3 1740.45 169.26 1740.21 169.04C1739.96 168.82 1741.06 164.24 1742.64 158.87C1744.23 153.5 1746.53 147.09 1747.75 144.63C1748.98 142.16 1749.99 139.89 1750 139.57C1750.02 139.26 1748.31 138.48 1746.22 137.85ZM1631.78 84C1631.49 83.99 1630.68 84.68 1629.98 85.53C1629.28 86.39 1626.79 88.36 1624.46 89.91C1622.12 91.48 1618.24 93.9 1615.84 95.28C1613.44 96.68 1611.35 97.78 1611.19 97.76C1611.04 97.73 1610.68 96.95 1610.41 96.03C1610.13 95.1 1609.69 94.29 1609.41 94.21C1609.15 94.13 1608.17 94.61 1607.24 95.27C1606.3 95.93 1603.79 98.35 1601.65 100.65C1599.52 102.96 1597.24 105.77 1596.58 106.9L1595.38 108.97L1592.13 105.4C1588.27 110.07 1586.21 113.04 1585.06 115.01C1583.91 116.99 1582.47 119.88 1581.86 121.44C1581.24 123.01 1580.45 124.48 1580.09 124.72C1579.74 124.95 1578.95 124.68 1578.34 124.13C1577.72 123.57 1576.91 123.29 1576.53 123.5C1576.15 123.72 1575.04 126.27 1574.05 129.17C1573.07 132.08 1571.89 136.76 1571.42 139.58C1570.96 142.4 1570.45 144.85 1570.28 145.04C1570.11 145.22 1569.36 145.18 1568.6 144.93C1567.85 144.69 1566.97 144.63 1566.65 144.78C1566.34 144.95 1566.01 146.89 1565.92 149.11C1565.83 151.32 1565.98 155.3 1566.26 157.95C1566.54 160.59 1566.97 163.74 1567.21 164.94L1567.67 167.11C1564.11 167.32 1563.27 167.71 1563.09 168.34C1562.94 168.88 1563.54 171.63 1564.43 174.46C1565.33 177.28 1567.13 181.63 1568.45 184.11C1569.76 186.6 1572.21 190.34 1573.88 192.43C1575.63 194.61 1578.44 197.4 1580.49 199C1582.47 200.52 1585.37 202.35 1586.96 203.05C1588.56 203.76 1590.12 204.33 1590.44 204.33C1590.76 204.33 1591.53 200.96 1592.14 196.83C1592.76 192.7 1593.91 185.88 1594.7 181.68C1595.47 177.47 1597.07 169.96 1598.23 164.99C1599.4 160.01 1601.61 151.97 1603.14 147.11C1604.67 142.24 1606.9 135.68 1608.1 132.53C1609.31 129.37 1611.16 124.85 1612.23 122.47C1613.31 120.09 1614.38 118.15 1614.62 118.15C1614.86 118.14 1615.05 118.31 1615.03 118.51C1615.01 118.72 1613.77 122.34 1612.26 126.56C1610.76 130.78 1608.19 138.86 1606.55 144.52C1604.91 150.18 1602.52 159.52 1601.25 165.29C1599.98 171.06 1598.26 180.11 1597.45 185.41C1596.64 190.7 1595.7 196.79 1595.35 198.93C1595.01 201.07 1594.12 205.57 1593.38 208.92C1592.63 212.27 1591.23 217.66 1590.26 220.92C1589.29 224.16 1588.64 226.96 1588.82 227.13C1589.01 227.3 1589.96 226.25 1590.95 224.8C1591.95 223.36 1594.38 219.16 1596.36 215.5C1598.36 211.83 1600.35 208.44 1600.8 207.95C1601.24 207.46 1603.03 206.89 1604.78 206.7C1606.53 206.49 1608.12 205.95 1608.33 205.47C1608.54 204.98 1608.48 203.73 1608.17 202.68C1607.87 201.63 1607.35 197.77 1607.02 194.11C1606.68 190.45 1606.63 185.65 1606.9 183.44C1607.17 181.23 1608.05 177.27 1608.86 174.65C1609.65 172.03 1611.37 167.74 1612.67 165.13C1613.97 162.51 1615.62 159.44 1616.34 158.3L1617.62 156.23C1621.31 160.72 1621.64 160.93 1622.25 160.23C1622.64 159.8 1624.11 157.58 1625.53 155.3C1626.95 153.01 1631.15 147.51 1634.89 143.08C1639.92 137.1 1641.87 135.06 1642.49 135.17C1642.94 135.25 1643.71 136.58 1644.2 138.13C1644.7 139.68 1645.38 140.95 1645.73 140.95C1646.09 140.95 1647.37 139.84 1648.59 138.48C1650.79 136.06 1650.8 135.98 1650.52 130.31C1650.35 126.65 1649.88 124.25 1649.26 123.66C1648.69 123.15 1647.7 122.96 1647 123.23C1645.84 123.67 1645.71 123.22 1645.22 117.34C1644.92 113.84 1644.25 109.56 1643.71 107.84C1643.17 106.12 1642.34 104.54 1641.85 104.33C1641.38 104.11 1640.72 104.24 1640.38 104.61C1640.05 104.98 1639.52 105.06 1639.21 104.79C1638.89 104.52 1638.63 103.5 1638.62 102.52C1638.62 101.55 1638.26 99.02 1637.84 96.91C1637.42 94.79 1636.56 91.92 1635.94 90.52C1635.32 89.11 1634.24 87.08 1633.56 85.99C1632.87 84.91 1632.07 84.01 1631.78 84Z" />
	<path id="Bee" fill-rule="evenodd" class="shp1" d="M120.65 113.69C121.12 113.7 121.76 113.74 122.06 113.77C122.37 113.79 122.96 113.9 123.37 113.98C123.78 114.07 124.46 114.24 124.88 114.38C125.29 114.51 126.05 114.81 126.56 115.03C127.19 115.32 127.87 115.73 128.77 116.39C129.72 117.08 130.28 117.55 130.82 118.15C131.23 118.6 131.76 119.22 131.98 119.54C132.21 119.85 132.59 120.46 132.83 120.89C133.08 121.32 133.41 122.02 133.6 122.46C133.78 122.9 134.03 123.62 134.15 124.07C134.3 124.59 134.45 125.34 134.53 126.13C134.61 126.84 134.66 127.76 134.64 128.24C134.62 128.71 134.53 129.56 134.44 130.14C134.34 130.72 134.14 131.59 133.98 132.08C133.82 132.57 133.53 133.32 133.33 133.75C133.13 134.17 132.74 134.89 132.46 135.34C132.18 135.78 131.69 136.45 131.38 136.82C131.06 137.19 130.49 137.78 130.11 138.14C129.72 138.49 129.13 138.98 128.8 139.21C128.46 139.46 127.92 139.81 127.61 140C127.28 140.19 126.64 140.51 126.18 140.7C125.73 140.91 124.97 141.18 124.5 141.32C124.04 141.46 123.25 141.64 122.76 141.73C122.27 141.8 121.44 141.88 120.92 141.89C120.4 141.9 119.58 141.88 119.11 141.84C118.63 141.79 117.89 141.68 117.45 141.58C117.02 141.49 116.32 141.29 115.89 141.14C115.47 141 114.76 140.7 114.31 140.49C113.81 140.26 112.98 139.74 112.23 139.21C111.31 138.54 110.77 138.07 110.22 137.48C109.81 137.03 109.26 136.37 109 136C108.74 135.64 108.29 134.91 108.03 134.41C107.76 133.91 107.4 133.15 107.25 132.73C107.05 132.22 106.86 131.5 106.66 130.49C106.45 129.33 106.38 128.8 106.37 128.03C106.36 127.49 106.42 126.61 106.49 126.06C106.55 125.52 106.71 124.68 106.82 124.22C106.95 123.76 107.19 123.03 107.36 122.61C107.53 122.19 107.84 121.52 108.03 121.14C108.23 120.77 108.68 120.05 109.03 119.58C109.36 119.1 109.96 118.39 110.34 118C110.72 117.61 111.38 117.03 111.79 116.7C112.2 116.37 112.86 115.92 113.24 115.7C113.63 115.47 114.24 115.14 114.61 114.98C114.98 114.8 115.67 114.53 116.14 114.38C116.67 114.22 117.5 114.04 118.39 113.9C119.36 113.75 120.06 113.68 120.65 113.69ZM120.33 120.19C120.1 120.19 119.51 120.27 119.04 120.36C118.55 120.47 117.9 120.65 117.54 120.81C117.19 120.96 116.56 121.33 116.14 121.63C115.71 121.94 115.16 122.41 114.87 122.74C114.6 123.06 114.2 123.62 113.98 123.98C113.78 124.34 113.49 124.93 113.37 125.3C113.25 125.68 113.1 126.27 113.05 126.63C112.99 126.99 112.95 127.64 112.96 128.08C112.98 128.54 113.05 129.15 113.14 129.5C113.22 129.84 113.42 130.42 113.58 130.79C113.73 131.17 114.08 131.77 114.34 132.15C114.61 132.53 115.09 133.09 115.41 133.39C115.72 133.69 116.32 134.12 116.73 134.35C117.16 134.6 117.85 134.89 118.37 135.04C118.85 135.19 119.51 135.34 119.82 135.37C120.25 135.42 120.68 135.39 121.74 135.21C123.06 135.01 123.14 134.98 123.86 134.6C124.26 134.39 124.89 133.99 125.24 133.71C125.6 133.41 126.11 132.9 126.42 132.48C126.73 132.07 127.12 131.5 127.27 131.19C127.42 130.89 127.64 130.3 127.76 129.89C127.89 129.47 128.01 128.79 128.05 128.35C128.09 127.79 128.06 127.32 127.95 126.63C127.86 126.07 127.71 125.44 127.57 125.1C127.45 124.79 127.18 124.25 127 123.91C126.8 123.59 126.41 123.05 126.11 122.72C125.81 122.4 125.28 121.92 124.94 121.67C124.59 121.42 124.05 121.08 123.72 120.93C123.39 120.78 122.84 120.58 122.5 120.48C122.15 120.39 121.63 120.29 121.32 120.25C121.01 120.21 120.57 120.19 120.33 120.19ZM215.89 108.15C216.4 108.14 217.2 108.14 217.67 108.16C218.14 108.18 219.02 108.26 219.61 108.33C220.21 108.41 221.12 108.56 221.66 108.68C222.19 108.79 223.16 109.05 223.81 109.26C224.46 109.47 225.38 109.79 225.84 109.99C226.3 110.18 227.08 110.54 227.59 110.79C228.1 111.04 228.91 111.48 229.4 111.78C229.89 112.07 230.89 112.74 231.6 113.25C232.31 113.78 233.38 114.64 233.97 115.17C234.57 115.71 235.48 116.61 236 117.19C236.52 117.76 237.17 118.49 237.43 118.83C237.7 119.15 238.13 119.73 238.4 120.11C238.67 120.48 239.15 121.22 239.47 121.72C239.79 122.24 240.29 123.13 240.59 123.71C240.89 124.29 241.33 125.22 241.57 125.76C241.79 126.31 242.15 127.25 242.35 127.85C242.67 128.8 242.76 129.25 243.09 131.3C243.39 133.18 243.46 133.83 243.45 134.51C243.44 134.98 243.41 135.73 243.36 136.18C243.32 136.63 243.21 137.46 243.11 138.02C243.01 138.59 242.81 139.48 242.67 140C242.53 140.53 242.24 141.41 242.04 141.95C241.83 142.49 241.47 143.36 241.23 143.86C241 144.37 240.6 145.14 240.36 145.57C240.12 146.01 239.61 146.85 239.23 147.44C238.85 148.03 238.19 148.96 237.76 149.49C237.32 150.03 236.67 150.81 236.29 151.23C235.92 151.64 235.27 152.3 234.87 152.71C234.47 153.1 233.74 153.77 233.24 154.19C232.74 154.6 231.96 155.22 231.51 155.56C231.05 155.89 230.31 156.4 229.86 156.69C229.42 156.97 228.59 157.46 228.04 157.77C227.48 158.08 226.48 158.56 225.83 158.84C225.18 159.13 224.11 159.55 223.48 159.76C222.83 159.98 221.73 160.29 221.04 160.46C220.28 160.63 219.3 160.81 218.6 160.89C217.96 160.96 216.99 161.04 216.46 161.05C215.92 161.06 215.04 161.06 214.5 161.02C213.96 160.99 212.99 160.88 212.34 160.76C211.69 160.66 210.74 160.46 210.24 160.33C209.72 160.2 208.64 159.88 207.83 159.62C207.01 159.36 205.72 158.91 204.95 158.62C204.18 158.33 202.89 157.82 202.09 157.49C201.3 157.16 199.51 156.37 198.12 155.74C196.74 155.11 194.69 154.17 193.59 153.62C192.47 153.08 190.73 152.22 189.71 151.7C188.7 151.19 186.62 150.1 185.08 149.3C183.55 148.49 181.48 147.38 180.49 146.84C179.49 146.3 177.58 145.25 176.25 144.51C174.92 143.76 172.42 142.34 170.7 141.36C168.97 140.37 166.72 139.06 165.69 138.46C164.66 137.85 162.55 136.6 161.01 135.67C159.45 134.75 157.02 133.27 155.57 132.39C154.14 131.51 152.97 130.74 152.98 130.69C152.98 130.62 153.97 130.15 155.41 129.54C156.74 128.97 159.47 127.82 161.49 126.98C163.5 126.13 166.84 124.76 168.9 123.91C170.96 123.07 174.47 121.66 176.71 120.77C178.95 119.88 182.41 118.54 184.39 117.78C186.37 117.02 189.2 115.95 190.67 115.41C192.15 114.86 194.76 113.93 196.46 113.33C198.16 112.74 200.61 111.91 201.9 111.49C203.19 111.08 204.93 110.53 205.78 110.28C206.63 110.03 208.03 109.62 208.91 109.39C209.96 109.11 211.26 108.83 212.73 108.58C214.32 108.29 215.22 108.18 215.89 108.15ZM216.05 116.62C215.45 116.63 214.72 116.73 213.59 116.93C212.71 117.09 211.47 117.36 210.85 117.54C210.22 117.71 209.16 118.02 208.48 118.22C207.82 118.42 206.6 118.81 205.78 119.08C204.96 119.34 203.58 119.81 202.72 120.11C201.86 120.42 200.05 121.07 198.7 121.56C197.36 122.06 195.16 122.89 193.82 123.41C192.48 123.92 190.41 124.73 189.22 125.2C188.04 125.67 185.75 126.58 184.15 127.24C182.56 127.89 179.4 129.2 177.14 130.14C174.89 131.09 173.03 131.89 173.01 131.91C172.99 131.93 173.11 132.04 173.27 132.13C173.43 132.23 174.61 132.96 175.91 133.73C177.19 134.52 179.4 135.84 180.83 136.68C182.24 137.52 184.72 138.95 186.33 139.87C187.96 140.79 190.12 142 191.14 142.56C192.16 143.12 193.91 144.06 195.04 144.66C196.16 145.25 198.06 146.22 199.25 146.81C200.44 147.41 202.37 148.33 203.52 148.86C204.68 149.38 206.34 150.1 207.21 150.45C208.09 150.8 209.43 151.3 210.19 151.55C210.96 151.81 212.04 152.11 212.6 152.24C213.15 152.36 213.92 152.49 214.29 152.52C214.68 152.56 215.32 152.59 215.71 152.6C216.11 152.61 216.95 152.56 217.6 152.48C218.26 152.41 219.18 152.24 219.71 152.11C220.22 151.97 221 151.72 221.44 151.56C221.88 151.39 222.6 151.09 223.04 150.88C223.47 150.67 224.23 150.27 224.71 149.97C225.21 149.68 226 149.15 226.48 148.79C226.96 148.43 227.77 147.76 228.27 147.29C228.79 146.81 229.51 146.08 229.88 145.65C230.26 145.22 230.91 144.38 231.33 143.78C231.75 143.18 232.32 142.24 232.61 141.7C232.89 141.15 233.3 140.27 233.5 139.73C233.71 139.2 233.99 138.28 234.13 137.69C234.26 137.11 234.4 136.23 234.44 135.73C234.49 135.23 234.5 134.5 234.49 134.11C234.48 133.71 234.39 132.93 234.31 132.36C234.21 131.78 234.02 130.94 233.88 130.47C233.74 130 233.49 129.28 233.33 128.88C233.17 128.48 232.86 127.79 232.65 127.37C232.44 126.96 232.01 126.21 231.7 125.72C231.39 125.23 230.88 124.49 230.55 124.08C230.22 123.67 229.72 123.08 229.44 122.77C229.15 122.47 228.63 121.94 228.26 121.6C227.91 121.26 227.21 120.69 226.74 120.33C226.26 119.96 225.47 119.43 224.98 119.14C224.49 118.84 223.65 118.39 223.13 118.15C222.6 117.91 221.74 117.58 221.23 117.41C220.71 117.25 219.91 117.05 219.46 116.95C219 116.86 218.23 116.75 217.76 116.7C217.28 116.65 216.51 116.61 216.05 116.62ZM95.49 136.17C95.89 136.18 96.53 136.21 96.9 136.23C97.28 136.27 97.88 136.36 98.25 136.42C98.61 136.49 99.26 136.65 99.7 136.78C100.14 136.91 100.94 137.21 101.46 137.45C102 137.7 102.77 138.11 103.19 138.37C103.6 138.63 104.25 139.11 104.63 139.43C105.01 139.75 105.61 140.32 105.95 140.69C106.3 141.07 106.83 141.72 107.13 142.14C107.42 142.55 107.86 143.27 108.1 143.72C108.33 144.17 108.68 144.92 108.86 145.38C109.14 146.11 109.22 146.47 109.48 148.04C109.74 149.65 109.77 149.97 109.72 150.8C109.69 151.33 109.59 152.19 109.49 152.73C109.4 153.27 109.23 154.01 109.12 154.37C109.01 154.72 108.82 155.26 108.7 155.56C108.59 155.85 108.32 156.41 108.13 156.79C107.93 157.18 107.53 157.85 107.22 158.28C106.91 158.72 106.41 159.36 106.11 159.69C105.82 160.02 105.26 160.58 104.87 160.91C104.48 161.25 103.88 161.72 103.54 161.95C103.21 162.17 102.62 162.53 102.23 162.74C101.84 162.95 101.07 163.29 100.53 163.5C99.64 163.85 99.34 163.91 97.87 164.16C96.61 164.35 96.01 164.42 95.36 164.4C94.9 164.39 94.14 164.33 93.69 164.27C93.23 164.21 92.48 164.06 92.02 163.94C91.55 163.82 90.85 163.59 90.45 163.44C90.05 163.29 89.41 162.99 89.01 162.79C88.62 162.58 87.94 162.18 87.52 161.88C87.09 161.59 86.51 161.14 86.22 160.88C85.94 160.62 85.44 160.13 85.12 159.78C84.8 159.43 84.3 158.81 84.01 158.38C83.71 157.96 83.27 157.23 83.02 156.76C82.78 156.29 82.43 155.5 82.26 155.01C81.98 154.28 81.88 153.86 81.67 152.52C81.49 151.36 81.42 150.68 81.43 150.14C81.45 149.71 81.51 148.97 81.57 148.48C81.64 147.99 81.78 147.23 81.89 146.78C82.01 146.32 82.23 145.62 82.38 145.23C82.53 144.83 82.86 144.13 83.1 143.67C83.35 143.22 83.77 142.51 84.06 142.13C84.34 141.73 84.8 141.16 85.07 140.85C85.35 140.54 85.81 140.08 86.1 139.81C86.38 139.56 86.97 139.09 87.41 138.77C87.85 138.46 88.57 138.02 89 137.8C89.43 137.57 90.15 137.26 90.59 137.08C91.21 136.83 91.73 136.71 93.08 136.47C94.25 136.26 94.99 136.17 95.49 136.17ZM95.47 142.68C95.19 142.68 94.57 142.76 94.09 142.86C93.62 142.95 92.96 143.14 92.63 143.28C92.3 143.43 91.78 143.71 91.46 143.93C91.15 144.13 90.67 144.51 90.41 144.75C90.14 145 89.71 145.51 89.43 145.89C89.17 146.26 88.82 146.87 88.67 147.24C88.51 147.62 88.31 148.22 88.22 148.58C88.14 148.95 88.06 149.54 88.04 149.89C88.02 150.26 88.07 150.92 88.15 151.44C88.23 151.97 88.39 152.63 88.53 153C88.67 153.34 88.95 153.92 89.16 154.25C89.38 154.59 89.71 155.05 89.89 155.27C90.08 155.5 90.56 155.93 90.96 156.24C91.36 156.55 91.94 156.93 92.24 157.08C92.54 157.23 93.13 157.46 93.55 157.57C93.97 157.69 94.58 157.81 94.91 157.85C95.38 157.9 95.8 157.87 96.8 157.7C97.77 157.55 98.2 157.44 98.6 157.26C98.88 157.13 99.38 156.84 99.72 156.61C100.06 156.39 100.56 156 100.82 155.75C101.08 155.5 101.48 155.04 101.72 154.71C101.94 154.39 102.27 153.82 102.45 153.45C102.62 153.07 102.83 152.47 102.92 152.11C103.01 151.74 103.1 151.13 103.13 150.76C103.17 150.25 103.13 149.77 103 149C102.86 148.2 102.75 147.76 102.55 147.32C102.41 146.99 102.12 146.47 101.9 146.15C101.7 145.84 101.34 145.38 101.12 145.14C100.89 144.89 100.47 144.51 100.18 144.27C99.88 144.05 99.37 143.72 99.05 143.54C98.71 143.37 98.1 143.13 97.69 143.02C97.27 142.9 96.71 142.77 96.45 142.74C96.19 142.71 95.75 142.68 95.47 142.68ZM137.97 145.14C138.25 145.11 139.07 145.04 139.81 145C140.55 144.96 141.84 144.92 142.65 144.93C143.47 144.94 144.74 145 145.47 145.05C146.24 145.11 146.81 145.2 146.82 145.25C146.83 145.3 138.63 152.75 128.61 161.8C114.3 174.72 110.37 178.22 110.26 178.16C110.16 178.1 110.15 177.86 110.17 176.89C110.18 176.23 110.24 175.08 110.31 174.32C110.37 173.56 110.52 172.32 110.64 171.55C110.76 170.78 110.97 169.67 111.11 169.06C111.24 168.45 111.53 167.35 111.75 166.62C111.98 165.88 112.32 164.83 112.53 164.29C112.75 163.73 113.13 162.82 113.4 162.24C113.66 161.65 114.15 160.7 114.47 160.12C114.79 159.53 115.63 158.24 116.34 157.26C117.05 156.28 117.97 155.11 118.39 154.65C118.81 154.2 119.63 153.38 120.22 152.84C120.81 152.29 121.88 151.42 122.59 150.91C123.3 150.39 124.37 149.68 124.97 149.32C125.57 148.98 126.42 148.52 126.85 148.3C127.28 148.1 127.99 147.77 128.43 147.58C128.86 147.39 129.6 147.1 130.07 146.93C130.53 146.78 131.34 146.5 131.88 146.34C132.42 146.19 133.41 145.93 134.08 145.78C134.76 145.62 135.79 145.43 136.39 145.34C136.98 145.26 137.7 145.16 137.97 145.14ZM162.33 149.46C163.12 149.8 164.42 150.43 165.22 150.83C166.02 151.24 167.18 151.85 167.8 152.2C168.41 152.56 169.4 153.14 170 153.5C170.59 153.88 171.35 154.36 171.68 154.58C172.01 154.8 172.27 155.03 172.26 155.09C172.25 155.14 171.6 155.78 170.81 156.49C170.01 157.2 159.29 166.88 146.98 177.99C134.68 189.09 123.03 199.6 121.11 201.33C119.19 203.06 117.55 204.49 117.46 204.51C117.32 204.54 117.21 204.36 116.66 203.33C116.31 202.66 115.72 201.46 115.36 200.65C114.99 199.85 114.48 198.63 114.21 197.94C113.94 197.26 113.5 196.11 113.25 195.38C113 194.65 112.69 193.74 112.57 193.34C112.37 192.72 112.35 192.62 112.45 192.5C112.5 192.42 123.39 182.59 136.65 170.63C149.9 158.68 160.76 148.88 160.81 148.86C160.86 148.84 161.53 149.1 162.33 149.46ZM182.77 163.47C183.21 163.9 184.03 164.74 184.6 165.33C185.16 165.92 186.04 166.88 186.56 167.47C187.07 168.07 187.87 169.04 188.34 169.61C188.8 170.19 189.36 170.9 189.59 171.2C189.81 171.49 189.98 171.78 189.97 171.86C189.96 171.93 187.38 174.3 184.25 177.14C181.11 179.97 176.22 184.39 173.38 186.94C170.54 189.51 160.16 198.87 150.31 207.76C140.46 216.65 132.35 223.93 132.27 223.93C132.21 223.94 131.57 223.39 130.86 222.7C130.14 222 129.03 220.87 128.38 220.18C127.74 219.49 126.78 218.42 126.27 217.81C125.75 217.19 125.03 216.31 124.67 215.85C124.32 215.39 124.02 214.97 124.01 214.91C123.99 214.86 136.98 203.1 152.87 188.77C168.75 174.44 181.8 162.71 181.86 162.7C181.92 162.69 182.33 163.04 182.77 163.47ZM95.19 182.95C95.24 182.98 95.83 184.13 96.51 185.53C97.17 186.92 98.35 189.42 99.13 191.08C99.92 192.76 101.02 195.17 101.6 196.43C102.18 197.69 103.22 200 103.92 201.58C104.62 203.14 105.88 206.04 106.72 208.01C107.56 209.97 108.67 212.59 109.18 213.82C109.68 215.04 110.57 217.25 111.16 218.73C111.74 220.2 112.65 222.56 113.18 223.96C113.7 225.38 114.44 227.46 114.83 228.58C115.23 229.72 115.77 231.35 116.05 232.21C116.32 233.08 116.68 234.22 116.84 234.76C117 235.29 117.32 236.41 117.54 237.24C117.77 238.06 118.13 239.63 118.37 240.72C118.69 242.23 118.81 243.02 118.91 244.15C118.99 244.96 119.03 246.13 119.02 246.77C119 247.4 118.93 248.41 118.85 249C118.78 249.6 118.62 250.54 118.5 251.1C118.38 251.65 118.1 252.67 117.87 253.37C117.65 254.05 117.22 255.15 116.92 255.8C116.62 256.46 116.12 257.48 115.8 258.06C115.47 258.65 114.71 259.83 114.1 260.68C113.49 261.54 112.65 262.61 112.23 263.08C111.82 263.56 111.08 264.34 110.58 264.82C110.08 265.31 109.3 266.02 108.84 266.42C108.37 266.81 107.5 267.49 106.89 267.93C106.28 268.38 105.39 268.97 104.89 269.27C104.41 269.57 103.6 270.03 103.1 270.29C102.61 270.55 101.89 270.91 101.49 271.08C101.1 271.26 100.33 271.57 99.78 271.78C99.22 271.98 98.3 272.29 97.72 272.46C97.08 272.65 96.03 272.87 95.06 273.02C94.17 273.17 93.06 273.3 92.59 273.32C92.13 273.34 91.36 273.33 90.9 273.31C90.43 273.3 89.65 273.24 89.17 273.18C88.69 273.12 87.87 272.97 87.33 272.85C86.81 272.73 85.97 272.5 85.48 272.35C84.98 272.19 84.2 271.91 83.72 271.71C83.24 271.52 82.55 271.21 82.16 271.03C81.79 270.84 81.08 270.46 80.59 270.17C80.1 269.89 79.25 269.37 78.71 269C78.16 268.64 77.27 267.97 76.73 267.52C76.18 267.06 75.44 266.42 75.09 266.08C74.72 265.74 74.06 265.07 73.61 264.58C73.16 264.08 72.6 263.45 72.36 263.17C72.13 262.88 71.6 262.17 71.2 261.61C70.79 261.04 70.24 260.21 69.96 259.76C69.69 259.31 69.24 258.51 68.97 257.97C68.69 257.43 68.29 256.58 68.07 256.07C67.86 255.58 67.54 254.74 67.36 254.24C67.19 253.73 66.93 252.87 66.79 252.33C66.62 251.7 66.43 250.66 66.26 249.4C66.1 248.24 66 247.12 66 246.62C66 246.16 66.02 245.41 66.05 244.95C66.07 244.49 66.2 243.47 66.33 242.68C66.45 241.89 66.73 240.66 66.95 239.95C67.16 239.24 67.53 238.13 67.75 237.48C67.99 236.85 68.49 235.52 68.88 234.55C69.27 233.58 69.91 232.04 70.29 231.14C70.68 230.23 71.68 228.01 72.52 226.2C73.36 224.38 74.71 221.51 75.54 219.81C76.37 218.12 77.74 215.36 78.58 213.68C79.44 212.01 80.81 209.3 81.66 207.67C82.5 206.05 83.99 203.19 84.97 201.33C85.96 199.47 87.65 196.29 88.74 194.28C89.82 192.27 91.65 188.9 92.82 186.8C93.98 184.7 94.96 182.96 95.01 182.94C95.05 182.92 95.13 182.92 95.19 182.95ZM94.38 203.06C94.32 202.97 94.29 202.98 94.17 203.17C94.1 203.3 93.38 204.61 92.58 206.06C91.78 207.52 90.41 210.03 89.55 211.64C88.67 213.24 87.33 215.79 86.54 217.3C85.75 218.8 84.57 221.09 83.91 222.39C83.25 223.68 82.21 225.76 81.6 227C80.99 228.24 79.89 230.56 79.16 232.14C78.41 233.74 77.5 235.79 77.11 236.72C76.72 237.64 76.19 238.95 75.95 239.62C75.7 240.29 75.37 241.26 75.22 241.77C75.07 242.29 74.87 243.12 74.8 243.63C74.71 244.13 74.63 244.92 74.61 245.39C74.59 245.87 74.6 246.67 74.62 247.18C74.65 247.73 74.76 248.55 74.9 249.21C75.02 249.82 75.25 250.69 75.39 251.14C75.53 251.58 75.82 252.35 76.03 252.85C76.25 253.36 76.63 254.11 76.86 254.55C77.1 254.98 77.64 255.81 78.05 256.39C78.46 256.98 79.22 257.92 79.73 258.46C80.23 259.01 81 259.77 81.43 260.15C81.86 260.52 82.6 261.09 83.06 261.41C83.53 261.74 84.21 262.17 84.56 262.37C84.93 262.58 85.61 262.92 86.09 263.14C86.57 263.35 87.32 263.64 87.77 263.78C88.21 263.92 88.9 264.11 89.31 264.2C89.72 264.29 90.39 264.39 90.79 264.43C91.2 264.47 91.93 264.49 92.41 264.47C92.9 264.46 93.69 264.39 94.16 264.32C94.61 264.24 95.36 264.08 95.8 263.96C96.23 263.85 96.95 263.62 97.39 263.46C97.83 263.29 98.55 262.99 98.98 262.78C99.41 262.58 100.17 262.17 100.66 261.88C101.15 261.58 101.98 261.03 102.5 260.64C103.03 260.25 103.82 259.6 104.27 259.18C104.72 258.76 105.35 258.12 105.69 257.75C106.03 257.38 106.64 256.62 107.04 256.06C107.44 255.51 107.96 254.74 108.18 254.36C108.41 253.96 108.78 253.24 109.01 252.74C109.24 252.23 109.61 251.26 109.82 250.57C110.03 249.88 110.25 248.97 110.33 248.54C110.39 248.11 110.47 247.39 110.5 246.94C110.52 246.49 110.52 245.73 110.49 245.24C110.46 244.75 110.37 243.98 110.3 243.51C110.22 243.04 110 241.99 109.8 241.17C109.61 240.35 109.27 239.1 109.06 238.37C108.85 237.66 108.42 236.3 108.1 235.35C107.79 234.39 107.17 232.64 106.73 231.45C106.29 230.26 105.5 228.2 104.98 226.89C104.45 225.57 103.3 222.79 102.42 220.71C101.53 218.63 100.25 215.69 99.56 214.16C98.88 212.64 97.73 210.12 97 208.58C96.29 207.04 95.42 205.19 95.07 204.47C94.73 203.76 94.42 203.12 94.38 203.06ZM196.73 182.51C196.82 182.65 197.13 183.25 197.42 183.83C197.7 184.42 198.3 185.75 198.74 186.8C199.19 187.86 199.8 189.41 200.09 190.24C200.39 191.08 200.8 192.34 201.01 193.02C201.31 194.05 201.36 194.32 201.3 194.45C201.25 194.53 193.14 201.9 183.25 210.81C173.37 219.73 162.64 229.41 159.4 232.32L153.51 237.61C152.29 237.11 151.56 236.81 151.12 236.61C150.68 236.42 149.76 235.98 149.06 235.64C148.37 235.3 147.19 234.69 146.45 234.28C145.71 233.88 144.59 233.23 143.96 232.85C143.35 232.47 142.63 232.03 142.39 231.87C142.14 231.7 141.93 231.53 141.92 231.49C141.92 231.44 154.15 220.37 169.1 206.88C184.06 193.4 196.35 182.34 196.43 182.31C196.51 182.27 196.61 182.33 196.73 182.51ZM203.27 209.16C203.3 209.22 203.31 209.63 203.29 210.07C203.27 210.52 203.22 211.37 203.16 211.96C203.12 212.55 202.98 213.65 202.86 214.39C202.75 215.13 202.53 216.35 202.36 217.1C202.19 217.84 201.86 219.09 201.63 219.85C201.38 220.61 200.96 221.79 200.69 222.46C200.42 223.14 200 224.08 199.75 224.56C199.52 225.04 199.05 225.9 198.72 226.46C198.39 227.04 197.82 227.93 197.46 228.45L196.79 229.41C197.39 229.84 197.78 230.19 198.05 230.48C198.31 230.77 198.99 231.65 199.56 232.44C200.15 233.24 201.01 234.52 201.49 235.28C201.96 236.05 202.68 237.23 203.07 237.91C203.46 238.6 204.17 239.84 204.62 240.69C205.08 241.52 205.98 243.19 206.61 244.4C207.24 245.61 208.24 247.59 208.83 248.8C209.43 250.01 210.35 251.93 210.88 253.07C211.41 254.19 211.84 255.17 211.84 255.25C211.84 255.31 211.79 255.38 211.74 255.39C211.68 255.4 209.92 254.05 207.82 252.4C205.72 250.74 202.58 248.27 200.84 246.89C199.11 245.5 196.74 243.63 195.6 242.72C194.46 241.8 192.64 240.33 191.55 239.45C189.87 238.07 189.55 237.77 189.21 237.26C188.99 236.93 188.79 236.67 188.75 236.68C188.71 236.68 188.01 237.04 187.18 237.47C186.35 237.91 185.1 238.49 184.4 238.76C183.69 239.04 182.58 239.42 181.92 239.63C181.27 239.83 180.09 240.14 179.32 240.31C178.51 240.49 177.25 240.72 176.4 240.82C175.58 240.92 174.48 241.03 173.98 241.06C173.47 241.1 172.51 241.13 171.87 241.15C171.21 241.16 170.2 241.14 169.61 241.12C169.03 241.09 168.4 241.06 168.22 241.04C168.03 241.03 167.9 240.97 167.88 240.89C167.87 240.82 174.92 234.4 185.42 224.94C195.08 216.22 203.03 209.09 203.1 209.08C203.15 209.07 203.24 209.11 203.27 209.16Z" />
	<path id="Hun and Bun " class="shp1" d="M373.59 239.37L267.49 239.37L284.16 160.97L267.25 160.97L231.81 328.81L248.71 328.81L265.38 249.93L371.48 249.93L354.81 328.81L370.07 328.81L405.52 160.97L390.26 160.97L373.59 239.37ZM446.13 207.21L430.17 207.21L413.97 282.56C406.46 320.12 420.78 332.8 441.91 332.8C465.14 332.8 484.63 322.24 495.66 303.46L491.67 328.81L505.76 328.81L531.58 207.21L516.32 207.21L500.59 280.92C494.96 306.51 468.9 322.24 447.77 322.24C427.12 322.24 424.53 308.85 429.46 284.68L446.13 207.21ZM625.24 328.81L640.26 328.81L655.76 255.33C663.27 220.36 651.53 203.69 629.23 203.69C610.22 203.69 585.1 216.6 575.94 231.39L579.7 207.21L565.85 207.21L540.03 328.81L555.52 328.81L571.95 251.11C575.71 232.33 598.48 215.43 619.61 215.43C639.33 215.43 646.13 229.28 641.2 253.69L625.24 328.81Z" />
	<path id="Hun and Bun " class="shp2" d="" />
	<path id="Hun and Bun " fill-rule="evenodd" class="shp3" d="M831.58 328.57L819.38 328.57L821.96 303.93C818.2 312.38 796.37 332.56 771.96 332.56C741.67 332.56 736.51 307.92 744.73 268.24C754.12 224.11 775.01 203.45 815.38 203.45C833.46 203.45 842.85 211.67 855.53 214.25L831.58 328.57ZM827.36 276.23L838.39 223.88C829.23 218.48 823.13 215.66 811.63 215.66C775.71 215.66 765.38 243.6 759.75 268.24C754.59 292.89 750.59 322.24 774.07 322.24C803.41 322.24 823.6 293.83 827.36 276.23ZM965.62 253.69C970.55 229.28 963.74 215.43 944.02 215.43C922.9 215.43 900.13 232.33 896.37 251.11L879.94 328.81L864.45 328.81L890.27 207.21L904.12 207.21L900.36 231.39C909.52 216.6 934.63 203.69 953.65 203.69C975.95 203.69 987.69 220.36 980.18 255.33L964.68 328.81L949.66 328.81L965.62 253.69ZM1035.34 331.63C1009.75 331.63 992.38 315.43 1002.24 267.54C1012.34 220.59 1038.86 202.75 1064.21 202.75C1072.43 202.75 1086.28 204.86 1101.54 211.2L1116.09 142.66L1131.82 142.66L1092.15 329.75L1077.36 329.75C1078.06 326.46 1077.59 325.05 1079.94 312.85C1070.55 323.88 1055.06 331.63 1035.34 331.63ZM1098.96 223.64C1091.44 219.89 1073.6 213.55 1061.87 213.55C1028.53 213.55 1020.79 256.04 1017.97 267.3C1013.51 287.26 1009.99 321.3 1037.45 321.3C1065.62 321.3 1081.12 305.57 1087.45 276.69L1098.96 223.64Z" />
	<path id="Hun and Bun " fill-rule="evenodd" class="shp0" d="M1280.88 161.2C1327.13 161.2 1338.63 179.51 1333.47 202.28C1329.24 222.47 1312.34 233.5 1292.15 236.08C1318.44 240.54 1338.4 254.39 1332.29 283.03C1326.66 308.39 1308.82 333.03 1253.89 331.86C1211.63 331.16 1197.08 329.75 1191.68 329.04C1203.89 271.77 1214.69 218.48 1226.89 161.2L1280.88 161.2ZM1264.45 232.09C1296.38 232.09 1311.4 223.64 1315.86 202.28C1319.85 183.27 1310.23 171.29 1279.01 171.29L1240.04 171.29L1227.13 232.09L1264.45 232.09ZM1208.35 321.06L1243.09 322.7C1293.09 323.88 1308.58 306.74 1314.22 281.15C1319.15 256.74 1302.25 242.66 1272.9 242.66L1225.01 242.66L1208.35 321.06ZM1373.84 284.68C1368.91 308.85 1371.5 322.24 1392.15 322.24C1413.28 322.24 1439.34 306.51 1444.97 280.92L1460.7 207.21L1475.96 207.21L1450.14 328.81L1436.05 328.81L1440.04 303.46C1429.01 322.24 1409.52 332.8 1386.28 332.8C1365.16 332.8 1350.84 320.12 1358.35 282.56L1374.55 207.21L1390.51 207.21L1373.84 284.68ZM1585.58 253.69C1590.51 229.28 1583.71 215.43 1563.99 215.43C1542.86 215.43 1520.09 232.33 1516.33 251.11L1499.9 328.81L1484.41 328.81L1510.23 207.21L1524.08 207.21L1520.32 231.39C1529.48 216.6 1554.6 203.69 1573.61 203.69C1595.91 203.69 1607.65 220.36 1600.14 255.33L1584.64 328.81L1569.62 328.81L1585.58 253.69Z" />
</svg>