<svg version="1.2" baseProfile="tiny-ps" xmlns="http://www.w3.org/2000/svg" viewBox="0 0 1750 405" width="164" height="38">
	<title>New Project</title>
	<style>
		tspan { white-space:pre }
		.shp0 { fill: #74dea9 } 
		.shp1 { fill: #fff773 } 
	</style>
	<path id="Leaf" class="shp0" d="M1453.06 133.09C1450.67 133.08 1446.67 133.52 1444.16 134.07C1441.65 134.62 1437.81 135.85 1435.62 136.8C1433.44 137.75 1431 138.96 1430.21 139.48C1429.42 140 1428.5 140.3 1428.18 140.14C1427.85 139.98 1427.64 139.06 1427.7 138.09C1427.78 137.05 1427.35 136.1 1426.66 135.76C1426 135.44 1422.39 136.28 1418.24 137.72C1414.24 139.1 1408.91 141.47 1406.38 142.98C1403.85 144.49 1401.66 145.64 1401.51 145.54C1401.36 145.43 1400.95 144.16 1400.61 142.69L1399.98 140.04C1394.14 142.31 1390.58 144.04 1388.3 145.35C1386.02 146.66 1382.14 149.38 1379.69 151.41C1377.24 153.44 1374.83 155.48 1374.35 155.95C1373.87 156.42 1373.27 156.71 1373.02 156.6C1372.78 156.49 1372.24 155.41 1371.82 154.18C1371.41 152.96 1370.8 151.83 1370.48 151.67C1370.16 151.51 1368.05 153.05 1365.79 155.08C1363.54 157.12 1360.19 160.52 1358.35 162.64C1356.51 164.76 1354.31 167.64 1353.44 169.03C1352.58 170.41 1351.44 172.41 1350.91 173.46C1350.38 174.5 1349.68 175.23 1349.36 175.08C1349.03 174.92 1348.02 173.61 1347.11 172.17C1345.87 170.2 1345.26 169.68 1344.66 170.08C1344.22 170.37 1342.29 173.95 1340.36 178.03C1338.43 182.12 1336.08 188.2 1335.13 191.56C1334.18 194.91 1333.24 198.5 1333.03 199.54L1332.65 201.43L1326.89 197.43C1325.35 200.64 1324.42 203.97 1323.84 206.9C1323.25 209.82 1322.78 214.19 1322.8 216.6C1322.81 219.02 1323.13 223.25 1323.52 226.01C1323.9 228.78 1324.29 231.55 1324.39 232.17C1324.5 232.8 1325.38 235.54 1326.36 238.27C1327.34 241.01 1328.58 244.28 1329.13 245.54C1329.68 246.81 1330.88 248.86 1331.79 250.11C1332.71 251.35 1333.65 253.28 1333.88 254.39C1334.11 255.51 1334.07 257.62 1333.79 259.09C1333.46 260.84 1331.17 265.84 1327.14 273.57C1323.16 281.23 1321.16 285.58 1321.45 285.96C1321.7 286.29 1323.27 284.74 1325.06 282.41C1326.8 280.14 1330.55 275.8 1333.4 272.76C1336.25 269.72 1340.93 265.09 1343.81 262.46C1346.7 259.84 1353.18 254.27 1358.23 250.09C1363.28 245.9 1370.52 239.71 1374.32 236.33C1378.13 232.95 1383.39 228.1 1386.01 225.56C1388.64 223.01 1393.71 217.91 1397.29 214.22C1400.87 210.53 1406.57 204.42 1409.96 200.64C1413.35 196.85 1419.31 189.88 1423.22 185.15C1427.12 180.41 1430.54 176.07 1430.82 175.5C1431.09 174.93 1431.73 174.42 1432.23 174.36C1432.92 174.28 1432.61 175.08 1430.98 177.59C1429.8 179.42 1426.43 184.2 1423.52 188.21C1420.6 192.22 1415.79 198.43 1412.84 202.02C1409.89 205.62 1404.45 211.85 1400.76 215.89C1397.06 219.92 1391.25 225.98 1387.83 229.35C1384.42 232.72 1379.54 237.42 1376.99 239.8C1374.43 242.18 1369.21 246.88 1365.39 250.25C1361.56 253.63 1355.44 258.79 1351.78 261.74C1348.11 264.69 1345.27 267.3 1345.45 267.55C1345.63 267.8 1347.75 269.35 1350.17 270.99C1352.83 272.81 1356.39 274.66 1359.2 275.71C1361.75 276.65 1366.34 277.85 1369.41 278.36C1372.47 278.88 1376.99 279.35 1379.47 279.42C1381.94 279.49 1386.58 279.22 1389.78 278.83C1392.98 278.44 1397.89 277.54 1400.69 276.84C1403.5 276.14 1406.43 275.05 1407.21 274.42C1408.41 273.44 1408.51 273.06 1407.88 271.83C1407.48 271.03 1406.8 269.84 1406.36 269.19C1405.64 268.1 1406.02 267.83 1410.95 265.92C1413.91 264.77 1418.95 262.48 1422.16 260.82C1425.36 259.17 1429.26 256.86 1430.83 255.7C1433.28 253.87 1433.58 253.45 1433.05 252.59C1432.71 252.04 1431.84 251.3 1431.11 250.94C1430.38 250.59 1429.78 249.96 1429.77 249.56C1429.77 249.16 1431.33 247.53 1433.25 245.95C1435.17 244.37 1438.64 241.2 1440.95 238.9C1443.26 236.61 1446.53 232.93 1448.21 230.73C1449.89 228.54 1451.19 226.54 1451.1 226.29C1451.01 226.05 1449.78 225.4 1448.37 224.85L1445.81 223.85C1448.48 220.25 1450.27 217.73 1451.5 215.91C1452.73 214.1 1455.13 209.68 1456.82 206.08C1458.51 202.49 1460.11 198.66 1460.36 197.58C1460.74 195.97 1460.55 195.52 1459.28 195.08C1458.44 194.78 1457.18 194.34 1456.5 194.1C1455.36 193.69 1455.44 193.17 1457.56 187.84C1458.83 184.65 1460.34 179.96 1460.9 177.42C1461.47 174.89 1461.96 171.43 1462 169.75C1462.03 168.06 1461.79 166.55 1461.47 166.39C1461.14 166.23 1460.02 166.51 1458.98 167.01C1457.93 167.51 1456.81 167.79 1456.49 167.64C1456.16 167.48 1455.89 162.34 1455.87 156.22C1455.86 150.1 1456.27 142.67 1456.78 139.71C1457.3 136.74 1457.65 134.05 1457.56 133.71C1457.48 133.38 1455.45 133.1 1453.06 133.09ZM1316.39 112.35C1316.08 112.43 1315.45 113.4 1314.98 114.52C1314.51 115.63 1312.52 118.47 1310.56 120.83C1308.6 123.2 1305.29 126.94 1303.21 129.14C1301.13 131.35 1299.28 133.16 1299.11 133.18C1298.94 133.2 1298.32 132.49 1297.75 131.61C1297.17 130.73 1296.45 130.02 1296.14 130.02C1295.84 130.02 1294.96 130.83 1294.19 131.81C1293.41 132.79 1291.54 136.11 1290.02 139.19C1288.5 142.27 1286.99 145.93 1286.65 147.32L1286.04 149.86L1281.52 147.13C1278.93 153.23 1277.7 156.98 1277.11 159.4C1276.52 161.83 1275.91 165.31 1275.76 167.14C1275.6 168.97 1275.23 170.76 1274.93 171.12C1274.63 171.47 1273.72 171.44 1272.91 171.05C1272.09 170.66 1271.16 170.62 1270.82 170.96C1270.49 171.3 1270.12 174.32 1269.99 177.67C1269.87 181.02 1270.09 186.29 1270.48 189.39C1270.88 192.49 1271.11 195.22 1270.99 195.47C1270.87 195.71 1270.07 195.9 1269.2 195.88C1268.33 195.86 1267.39 196.07 1267.11 196.33C1266.83 196.6 1267.09 198.74 1267.69 201.09C1268.28 203.44 1269.68 207.56 1270.8 210.25C1271.92 212.93 1273.35 216.09 1273.98 217.27L1275.13 219.4C1271.47 220.73 1270.71 221.4 1270.72 222.12C1270.73 222.73 1272.22 225.43 1274.03 228.11C1275.85 230.79 1279.09 234.78 1281.25 236.97C1283.4 239.17 1287.13 242.33 1289.53 243.99C1292.05 245.73 1295.86 247.78 1298.51 248.81C1301.05 249.79 1304.66 250.8 1306.55 251.04C1308.44 251.29 1310.26 251.4 1310.59 251.3C1310.93 251.2 1310.68 247.43 1310.04 242.91C1309.4 238.39 1308.48 230.89 1307.99 226.24C1307.49 221.59 1306.82 213.23 1306.49 207.65C1306.16 202.08 1305.97 192.96 1306.06 187.39C1306.14 181.82 1306.44 174.25 1306.71 170.57C1306.99 166.89 1307.52 161.57 1307.9 158.75C1308.29 155.92 1308.81 153.55 1309.06 153.47C1309.31 153.39 1309.56 153.51 1309.6 153.73C1309.64 153.95 1309.47 158.13 1309.21 163.02C1308.95 167.91 1308.78 177.18 1308.82 183.62C1308.87 190.06 1309.28 200.59 1309.75 207.03C1310.21 213.47 1311.24 223.49 1312.04 229.29C1312.84 235.09 1313.75 241.76 1314.05 244.11C1314.36 246.46 1314.83 251.45 1315.1 255.19C1315.36 258.93 1315.58 265.02 1315.57 268.73C1315.57 272.43 1315.76 275.57 1316 275.69C1316.25 275.81 1316.92 274.41 1317.51 272.58C1318.1 270.76 1319.34 265.61 1320.28 261.15C1321.23 256.69 1322.25 252.51 1322.57 251.86C1322.88 251.21 1324.58 250.06 1326.35 249.31C1328.12 248.55 1329.62 247.48 1329.69 246.91C1329.76 246.34 1329.3 245.05 1328.65 244.04C1328.01 243.03 1326.26 239.15 1324.77 235.42C1323.28 231.69 1321.73 226.68 1321.32 224.28C1320.92 221.88 1320.6 217.46 1320.63 214.46C1320.65 211.47 1321.11 206.44 1321.66 203.3C1322.21 200.15 1322.98 196.42 1323.37 195L1324.07 192.43C1329.34 195.99 1329.75 196.1 1330.17 195.18C1330.44 194.61 1331.29 191.82 1332.07 188.99C1332.84 186.15 1335.53 179.08 1338.06 173.28C1341.47 165.44 1342.88 162.7 1343.56 162.62C1344.06 162.56 1345.28 163.71 1346.28 165.19C1347.28 166.66 1348.39 167.77 1348.76 167.66C1349.13 167.55 1350.13 165.99 1350.98 164.19C1352.53 160.96 1352.52 160.88 1350.46 155.02C1349.14 151.24 1347.9 148.87 1347.06 148.45C1346.31 148.09 1345.21 148.2 1344.56 148.7C1343.49 149.53 1343.21 149.1 1340.86 143.09C1339.46 139.51 1337.42 135.24 1336.32 133.61C1335.21 131.97 1333.85 130.58 1333.28 130.51C1332.71 130.43 1332.06 130.77 1331.82 131.26C1331.59 131.75 1331.06 132 1330.65 131.81C1330.23 131.63 1329.64 130.64 1329.33 129.62C1329.02 128.6 1327.86 126.07 1326.76 123.99C1325.66 121.9 1323.87 119.16 1322.78 117.88C1321.69 116.6 1319.93 114.81 1318.87 113.88C1317.81 112.96 1316.69 112.27 1316.39 112.35Z" />
	<path id="Bee" fill-rule="evenodd" class="shp1" d="M345.33 108.62C345.83 108.63 346.51 108.67 346.83 108.7C347.16 108.73 347.79 108.84 348.23 108.93C348.67 109.02 349.39 109.21 349.84 109.35C350.28 109.49 351.09 109.81 351.63 110.05C352.31 110.36 353.03 110.8 353.99 111.5C355.01 112.24 355.6 112.74 356.18 113.38C356.62 113.86 357.18 114.52 357.42 114.86C357.66 115.19 358.07 115.84 358.33 116.3C358.59 116.76 358.95 117.51 359.15 117.98C359.34 118.45 359.61 119.22 359.74 119.7C359.9 120.25 360.05 121.05 360.14 121.9C360.23 122.65 360.28 123.63 360.26 124.15C360.24 124.65 360.14 125.56 360.04 126.18C359.94 126.79 359.72 127.72 359.55 128.25C359.38 128.77 359.07 129.57 358.86 130.03C358.65 130.48 358.23 131.24 357.93 131.72C357.63 132.19 357.11 132.91 356.78 133.3C356.44 133.7 355.83 134.33 355.42 134.71C355.01 135.09 354.38 135.61 354.02 135.86C353.66 136.12 353.09 136.5 352.75 136.7C352.4 136.9 351.72 137.24 351.23 137.45C350.75 137.67 349.94 137.96 349.44 138.11C348.94 138.26 348.1 138.45 347.58 138.54C347.06 138.62 346.17 138.7 345.61 138.72C345.06 138.73 344.18 138.71 343.68 138.66C343.17 138.61 342.38 138.49 341.91 138.39C341.45 138.29 340.7 138.08 340.25 137.92C339.8 137.77 339.04 137.45 338.56 137.22C338.03 136.98 337.14 136.42 336.34 135.85C335.36 135.14 334.78 134.64 334.2 134.01C333.76 133.53 333.17 132.82 332.89 132.43C332.61 132.04 332.14 131.27 331.86 130.73C331.57 130.2 331.19 129.39 331.02 128.94C330.81 128.39 330.61 127.63 330.4 126.55C330.17 125.31 330.1 124.74 330.09 123.92C330.08 123.35 330.14 122.41 330.21 121.82C330.28 121.24 330.45 120.35 330.57 119.86C330.7 119.37 330.96 118.59 331.14 118.14C331.32 117.69 331.65 116.98 331.86 116.57C332.07 116.17 332.55 115.41 332.92 114.9C333.28 114.39 333.92 113.63 334.32 113.22C334.73 112.8 335.43 112.18 335.87 111.83C336.31 111.48 337.01 111 337.42 110.76C337.83 110.52 338.49 110.17 338.88 109.99C339.28 109.8 340.01 109.52 340.51 109.36C341.08 109.18 341.96 108.99 342.91 108.84C343.95 108.68 344.7 108.61 345.33 108.62ZM344.99 115.56C344.74 115.56 344.11 115.64 343.61 115.74C343.08 115.85 342.39 116.05 342.01 116.22C341.63 116.38 340.96 116.77 340.51 117.09C340.05 117.42 339.47 117.93 339.16 118.28C338.87 118.62 338.44 119.22 338.21 119.6C337.99 119.98 337.69 120.62 337.56 121.01C337.43 121.41 337.27 122.04 337.21 122.43C337.15 122.81 337.11 123.51 337.12 123.98C337.14 124.47 337.22 125.12 337.31 125.49C337.4 125.85 337.61 126.47 337.78 126.87C337.94 127.27 338.31 127.92 338.59 128.32C338.88 128.73 339.39 129.32 339.73 129.64C340.07 129.96 340.71 130.42 341.14 130.67C341.6 130.93 342.34 131.24 342.89 131.41C343.41 131.56 344.11 131.72 344.44 131.76C344.9 131.81 345.36 131.78 346.49 131.59C347.9 131.37 347.98 131.34 348.75 130.94C349.18 130.71 349.85 130.28 350.22 129.99C350.61 129.67 351.15 129.12 351.49 128.67C351.82 128.24 352.23 127.63 352.39 127.3C352.55 126.98 352.79 126.35 352.92 125.91C353.05 125.46 353.18 124.73 353.22 124.27C353.27 123.67 353.24 123.17 353.12 122.43C353.02 121.83 352.86 121.16 352.71 120.8C352.58 120.46 352.3 119.89 352.1 119.53C351.89 119.18 351.47 118.61 351.15 118.26C350.83 117.91 350.27 117.4 349.9 117.14C349.53 116.87 348.95 116.51 348.6 116.35C348.25 116.19 347.66 115.97 347.3 115.87C346.93 115.77 346.37 115.66 346.04 115.62C345.71 115.58 345.24 115.56 344.99 115.56ZM446.97 102.71C447.52 102.7 448.37 102.7 448.87 102.72C449.38 102.74 450.31 102.82 450.94 102.9C451.58 102.98 452.56 103.14 453.13 103.27C453.7 103.39 454.73 103.67 455.43 103.89C456.12 104.11 457.1 104.46 457.59 104.67C458.08 104.87 458.92 105.26 459.46 105.52C460 105.79 460.87 106.26 461.39 106.58C461.92 106.89 462.98 107.6 463.74 108.15C464.5 108.71 465.64 109.63 466.27 110.2C466.91 110.77 467.88 111.74 468.44 112.35C468.99 112.96 469.68 113.74 469.96 114.1C470.25 114.45 470.71 115.07 471 115.47C471.29 115.87 471.8 116.65 472.14 117.19C472.48 117.74 473.02 118.69 473.34 119.31C473.66 119.93 474.13 120.92 474.38 121.5C474.62 122.09 475 123.09 475.21 123.73C475.55 124.74 475.65 125.22 476 127.41C476.32 129.42 476.4 130.11 476.39 130.84C476.38 131.34 476.34 132.14 476.29 132.62C476.25 133.1 476.13 133.99 476.02 134.59C475.92 135.19 475.71 136.14 475.56 136.7C475.41 137.26 475.1 138.2 474.88 138.78C474.66 139.36 474.27 140.28 474.02 140.82C473.77 141.36 473.35 142.18 473.09 142.64C472.83 143.11 472.29 144.01 471.88 144.64C471.48 145.27 470.77 146.26 470.31 146.83C469.85 147.4 469.15 148.24 468.75 148.68C468.35 149.12 467.66 149.83 467.23 150.26C466.8 150.68 466.02 151.39 465.49 151.84C464.96 152.28 464.13 152.94 463.64 153.3C463.15 153.66 462.36 154.2 461.88 154.51C461.41 154.81 460.53 155.33 459.94 155.66C459.34 155.99 458.28 156.51 457.58 156.81C456.89 157.12 455.75 157.56 455.07 157.79C454.38 158.02 453.21 158.35 452.47 158.53C451.66 158.72 450.61 158.91 449.87 158.99C449.18 159.07 448.15 159.15 447.58 159.16C447.01 159.18 446.07 159.17 445.49 159.13C444.91 159.1 443.88 158.98 443.18 158.86C442.49 158.75 441.48 158.54 440.94 158.4C440.39 158.26 439.24 157.92 438.37 157.64C437.5 157.36 436.12 156.88 435.3 156.57C434.48 156.26 433.1 155.72 432.25 155.36C431.4 155.01 429.49 154.17 428.01 153.5C426.54 152.83 424.35 151.82 423.17 151.24C421.98 150.66 420.12 149.74 419.03 149.19C417.95 148.64 415.73 147.48 414.09 146.62C412.46 145.76 410.25 144.58 409.19 144C408.13 143.42 406.09 142.3 404.67 141.51C403.25 140.71 400.58 139.2 398.74 138.15C396.9 137.09 394.5 135.7 393.4 135.05C392.3 134.4 390.05 133.07 388.4 132.08C386.74 131.1 384.14 129.52 382.6 128.58C381.07 127.64 379.82 126.82 379.83 126.76C379.83 126.69 380.89 126.19 382.42 125.54C383.84 124.93 386.76 123.7 388.91 122.8C391.06 121.9 394.62 120.43 396.82 119.53C399.02 118.63 402.77 117.12 405.16 116.18C407.55 115.23 411.24 113.79 413.35 112.98C415.47 112.17 418.49 111.03 420.06 110.45C421.64 109.87 424.42 108.87 426.24 108.23C428.05 107.6 430.67 106.72 432.04 106.27C433.42 105.83 435.28 105.25 436.18 104.98C437.09 104.71 438.59 104.28 439.52 104.03C440.64 103.73 442.03 103.43 443.6 103.16C445.3 102.86 446.26 102.74 446.97 102.71ZM447.14 111.75C446.5 111.76 445.73 111.86 444.52 112.08C443.58 112.25 442.26 112.54 441.59 112.73C440.92 112.91 439.79 113.24 439.07 113.45C438.36 113.67 437.06 114.08 436.18 114.37C435.31 114.65 433.84 115.15 432.92 115.47C432 115.8 430.07 116.49 428.63 117.02C427.2 117.55 424.85 118.44 423.42 118.99C421.99 119.54 419.78 120.4 418.51 120.9C417.25 121.4 414.81 122.38 413.1 123.08C411.4 123.77 408.03 125.17 405.62 126.18C403.22 127.19 401.23 128.04 401.21 128.06C401.19 128.09 401.32 128.2 401.49 128.3C401.66 128.41 402.92 129.18 404.3 130.01C405.67 130.85 408.03 132.26 409.55 133.16C411.06 134.05 413.71 135.58 415.43 136.56C417.16 137.54 419.47 138.83 420.56 139.43C421.65 140.03 423.52 141.03 424.72 141.67C425.92 142.3 427.94 143.34 429.21 143.97C430.48 144.61 432.54 145.59 433.77 146.15C435.01 146.71 436.78 147.48 437.71 147.85C438.65 148.23 440.08 148.76 440.89 149.03C441.71 149.3 442.86 149.62 443.46 149.76C444.05 149.89 444.87 150.03 445.27 150.06C445.68 150.1 446.36 150.14 446.78 150.15C447.21 150.16 448.11 150.1 448.8 150.02C449.5 149.94 450.48 149.76 451.05 149.62C451.6 149.47 452.43 149.21 452.9 149.04C453.37 148.86 454.14 148.53 454.6 148.31C455.06 148.09 455.87 147.66 456.39 147.34C456.92 147.03 457.76 146.46 458.28 146.08C458.79 145.7 459.65 144.98 460.19 144.48C460.74 143.97 461.51 143.19 461.91 142.73C462.31 142.27 463 141.37 463.45 140.73C463.9 140.09 464.51 139.09 464.82 138.51C465.12 137.93 465.55 136.99 465.77 136.41C465.99 135.84 466.29 134.86 466.44 134.23C466.58 133.61 466.73 132.67 466.77 132.14C466.82 131.61 466.84 130.83 466.83 130.41C466.81 129.99 466.72 129.15 466.63 128.54C466.53 127.93 466.32 127.03 466.17 126.53C466.02 126.03 465.76 125.26 465.59 124.83C465.42 124.4 465.09 123.67 464.86 123.22C464.64 122.78 464.18 121.98 463.85 121.46C463.52 120.94 462.97 120.15 462.62 119.71C462.27 119.27 461.73 118.64 461.43 118.31C461.13 117.99 460.57 117.42 460.18 117.06C459.8 116.7 459.06 116.09 458.55 115.7C458.04 115.31 457.2 114.74 456.67 114.43C456.15 114.11 455.26 113.64 454.7 113.38C454.13 113.12 453.22 112.77 452.67 112.59C452.12 112.42 451.26 112.2 450.78 112.1C450.29 112 449.47 111.88 448.97 111.83C448.46 111.78 447.64 111.74 447.14 111.75ZM318.47 132.61C318.9 132.62 319.58 132.65 319.98 132.68C320.38 132.72 321.03 132.81 321.42 132.88C321.8 132.95 322.5 133.12 322.97 133.26C323.44 133.4 324.29 133.72 324.85 133.98C325.42 134.24 326.24 134.68 326.69 134.96C327.13 135.24 327.82 135.75 328.23 136.09C328.63 136.43 329.27 137.04 329.64 137.44C330.01 137.84 330.58 138.53 330.9 138.98C331.21 139.42 331.68 140.19 331.93 140.67C332.18 141.15 332.55 141.95 332.74 142.44C333.04 143.22 333.13 143.6 333.4 145.28C333.68 147 333.71 147.34 333.66 148.23C333.63 148.79 333.52 149.71 333.42 150.29C333.32 150.86 333.14 151.65 333.02 152.03C332.9 152.41 332.7 152.98 332.57 153.3C332.45 153.62 332.17 154.21 331.96 154.62C331.75 155.03 331.32 155.75 330.99 156.21C330.66 156.68 330.13 157.36 329.81 157.71C329.5 158.07 328.9 158.66 328.48 159.02C328.07 159.38 327.43 159.88 327.07 160.12C326.71 160.36 326.08 160.74 325.67 160.97C325.25 161.19 324.43 161.56 323.85 161.78C322.9 162.15 322.58 162.22 321.01 162.48C319.67 162.69 319.03 162.76 318.34 162.74C317.84 162.73 317.03 162.67 316.55 162.6C316.06 162.54 315.26 162.38 314.77 162.25C314.27 162.12 313.52 161.88 313.1 161.72C312.67 161.56 311.98 161.24 311.56 161.02C311.14 160.8 310.42 160.37 309.97 160.05C309.51 159.74 308.89 159.26 308.58 158.98C308.28 158.71 307.75 158.18 307.41 157.81C307.06 157.44 306.53 156.77 306.22 156.32C305.9 155.87 305.43 155.09 305.17 154.59C304.91 154.08 304.54 153.24 304.35 152.72C304.06 151.94 303.95 151.49 303.72 150.06C303.53 148.82 303.46 148.1 303.47 147.52C303.49 147.06 303.55 146.27 303.62 145.75C303.69 145.23 303.84 144.41 303.96 143.93C304.09 143.44 304.32 142.7 304.48 142.28C304.64 141.85 304.99 141.11 305.25 140.62C305.52 140.13 305.97 139.38 306.27 138.97C306.57 138.55 307.06 137.94 307.35 137.61C307.65 137.28 308.14 136.78 308.45 136.5C308.75 136.23 309.38 135.73 309.85 135.39C310.32 135.06 311.09 134.59 311.55 134.35C312.01 134.11 312.77 133.77 313.24 133.58C313.91 133.32 314.46 133.19 315.9 132.93C317.15 132.71 317.94 132.61 318.47 132.61ZM318.45 139.56C318.15 139.56 317.49 139.64 316.98 139.75C316.48 139.85 315.77 140.05 315.42 140.2C315.07 140.36 314.51 140.66 314.17 140.89C313.84 141.11 313.33 141.51 313.05 141.77C312.76 142.03 312.3 142.58 312.01 142.98C311.73 143.38 311.36 144.03 311.19 144.43C311.02 144.83 310.81 145.47 310.72 145.86C310.63 146.25 310.54 146.88 310.52 147.25C310.5 147.65 310.55 148.35 310.64 148.91C310.73 149.47 310.9 150.18 311.05 150.57C311.19 150.94 311.49 151.55 311.72 151.91C311.95 152.27 312.3 152.76 312.5 153C312.7 153.24 313.21 153.7 313.64 154.03C314.07 154.36 314.68 154.77 315.01 154.93C315.33 155.09 315.96 155.33 316.4 155.45C316.85 155.58 317.5 155.71 317.86 155.75C318.36 155.8 318.8 155.77 319.87 155.59C320.91 155.43 321.37 155.31 321.79 155.12C322.09 154.98 322.63 154.67 322.99 154.43C323.35 154.19 323.88 153.77 324.16 153.51C324.44 153.24 324.87 152.75 325.12 152.4C325.36 152.06 325.71 151.45 325.9 151.05C326.08 150.65 326.31 150.01 326.4 149.62C326.5 149.23 326.6 148.58 326.63 148.18C326.67 147.64 326.63 147.13 326.49 146.3C326.34 145.45 326.22 144.98 326.01 144.51C325.86 144.16 325.55 143.6 325.32 143.26C325.1 142.93 324.72 142.44 324.48 142.18C324.24 141.92 323.79 141.51 323.48 141.26C323.16 141.02 322.62 140.67 322.27 140.48C321.91 140.3 321.26 140.04 320.82 139.92C320.37 139.79 319.78 139.66 319.5 139.62C319.22 139.59 318.75 139.56 318.45 139.56ZM363.81 142.18C364.11 142.15 364.99 142.08 365.78 142.03C366.57 141.99 367.94 141.95 368.81 141.96C369.68 141.97 371.04 142.03 371.82 142.09C372.64 142.15 373.25 142.25 373.26 142.3C373.27 142.36 364.52 150.31 353.82 159.96C338.55 173.75 334.35 177.49 334.24 177.43C334.13 177.36 334.12 177.11 334.14 176.07C334.15 175.37 334.22 174.14 334.29 173.33C334.36 172.52 334.52 171.19 334.64 170.37C334.77 169.55 335 168.36 335.14 167.71C335.28 167.06 335.59 165.89 335.83 165.11C336.07 164.32 336.44 163.2 336.66 162.62C336.89 162.03 337.3 161.05 337.59 160.43C337.87 159.81 338.39 158.79 338.73 158.17C339.07 157.54 339.97 156.17 340.73 155.12C341.48 154.07 342.47 152.82 342.91 152.33C343.36 151.85 344.24 150.98 344.87 150.4C345.5 149.82 346.64 148.89 347.4 148.34C348.16 147.79 349.3 147.03 349.94 146.65C350.58 146.28 351.48 145.79 351.94 145.56C352.4 145.34 353.16 144.99 353.63 144.79C354.09 144.59 354.88 144.28 355.38 144.1C355.87 143.93 356.74 143.64 357.31 143.47C357.89 143.31 358.94 143.03 359.66 142.87C360.39 142.7 361.49 142.49 362.13 142.4C362.76 142.31 363.52 142.21 363.81 142.18ZM389.81 146.79C390.65 147.16 392.04 147.83 392.9 148.26C393.75 148.69 394.99 149.35 395.65 149.72C396.3 150.1 397.36 150.72 398 151.11C398.63 151.51 399.44 152.02 399.79 152.26C400.14 152.49 400.42 152.74 400.41 152.8C400.4 152.86 399.7 153.54 398.86 154.3C398.01 155.06 386.57 165.39 373.43 177.24C360.3 189.09 347.87 200.31 345.82 202.15C343.77 204 342.02 205.53 341.92 205.55C341.77 205.58 341.65 205.39 341.07 204.29C340.69 203.57 340.07 202.29 339.68 201.43C339.29 200.57 338.74 199.27 338.45 198.54C338.16 197.81 337.7 196.58 337.43 195.8C337.16 195.02 336.83 194.05 336.7 193.63C336.49 192.97 336.47 192.86 336.57 192.73C336.63 192.65 348.25 182.15 362.4 169.39C376.54 156.63 388.14 146.18 388.19 146.15C388.24 146.13 388.96 146.41 389.81 146.79ZM411.63 161.75C412.1 162.21 412.97 163.1 413.58 163.73C414.18 164.36 415.12 165.39 415.67 166.02C416.22 166.66 417.07 167.69 417.57 168.3C418.06 168.92 418.66 169.68 418.9 170C419.14 170.31 419.32 170.62 419.31 170.7C419.3 170.78 416.55 173.31 413.2 176.34C409.85 179.36 404.63 184.07 401.6 186.8C398.57 189.54 387.49 199.53 376.98 209.02C366.47 218.5 357.81 226.27 357.73 226.28C357.66 226.29 356.98 225.7 356.22 224.96C355.46 224.22 354.27 223.01 353.58 222.27C352.89 221.54 351.87 220.39 351.32 219.74C350.77 219.08 350 218.14 349.62 217.65C349.24 217.16 348.92 216.71 348.91 216.65C348.89 216.59 362.76 204.04 379.71 188.75C396.66 173.46 410.59 160.94 410.65 160.93C410.72 160.92 411.16 161.29 411.63 161.75ZM318.15 182.54C318.21 182.57 318.84 183.8 319.56 185.29C320.27 186.77 321.53 189.44 322.36 191.22C323.2 193.01 324.38 195.58 324.99 196.92C325.61 198.27 326.72 200.74 327.47 202.42C328.22 204.09 329.56 207.18 330.46 209.28C331.36 211.38 332.54 214.17 333.08 215.48C333.62 216.79 334.57 219.15 335.2 220.72C335.82 222.29 336.79 224.81 337.35 226.31C337.91 227.82 338.7 230.04 339.12 231.24C339.54 232.45 340.12 234.19 340.42 235.11C340.71 236.04 341.09 237.26 341.26 237.83C341.43 238.4 341.77 239.59 342.01 240.48C342.25 241.36 342.64 243.03 342.89 244.19C343.23 245.81 343.36 246.65 343.47 247.86C343.55 248.72 343.6 249.97 343.59 250.65C343.57 251.32 343.49 252.4 343.41 253.03C343.33 253.67 343.16 254.67 343.03 255.27C342.9 255.86 342.6 256.95 342.36 257.69C342.12 258.42 341.67 259.59 341.35 260.29C341.03 260.99 340.49 262.08 340.15 262.7C339.8 263.33 338.99 264.59 338.34 265.5C337.68 266.41 336.79 267.56 336.34 268.06C335.9 268.57 335.11 269.4 334.58 269.92C334.05 270.44 333.21 271.2 332.72 271.62C332.22 272.04 331.29 272.76 330.64 273.24C329.99 273.71 329.04 274.35 328.51 274.67C327.99 274.99 327.13 275.48 326.6 275.75C326.07 276.03 325.3 276.41 324.88 276.6C324.46 276.79 323.64 277.12 323.05 277.34C322.46 277.56 321.47 277.89 320.85 278.07C320.17 278.27 319.05 278.51 318.01 278.67C317.06 278.83 315.88 278.97 315.38 278.99C314.89 279.01 314.07 279 313.57 278.98C313.07 278.97 312.24 278.9 311.73 278.84C311.22 278.77 310.34 278.61 309.77 278.49C309.21 278.36 308.31 278.11 307.79 277.95C307.26 277.78 306.42 277.48 305.91 277.27C305.4 277.07 304.66 276.74 304.25 276.54C303.85 276.34 303.09 275.93 302.57 275.63C302.05 275.33 301.14 274.77 300.56 274.38C299.98 273.99 299.03 273.28 298.45 272.8C297.87 272.31 297.08 271.62 296.7 271.26C296.31 270.9 295.6 270.18 295.12 269.66C294.64 269.13 294.04 268.45 293.79 268.15C293.54 267.84 292.98 267.09 292.55 266.49C292.11 265.88 291.52 265 291.23 264.52C290.94 264.04 290.46 263.18 290.17 262.61C289.87 262.03 289.44 261.12 289.21 260.58C288.98 260.05 288.64 259.16 288.45 258.62C288.27 258.08 287.99 257.16 287.84 256.59C287.66 255.91 287.46 254.8 287.28 253.46C287.11 252.22 287 251.02 287 250.49C287 250 287.02 249.2 287.05 248.71C287.08 248.22 287.21 247.13 287.35 246.29C287.48 245.44 287.78 244.13 288.01 243.37C288.24 242.61 288.63 241.43 288.87 240.74C289.12 240.06 289.66 238.64 290.07 237.61C290.49 236.57 291.17 234.93 291.58 233.97C291.99 233 293.06 230.63 293.96 228.7C294.85 226.76 296.3 223.69 297.18 221.88C298.07 220.07 299.53 217.13 300.43 215.34C301.34 213.55 302.81 210.66 303.71 208.92C304.61 207.19 306.2 204.14 307.25 202.15C308.3 200.17 310.11 196.78 311.27 194.63C312.42 192.49 314.38 188.89 315.62 186.65C316.86 184.41 317.91 182.55 317.96 182.53C318 182.51 318.09 182.51 318.15 182.54ZM317.29 204C317.23 203.9 317.19 203.92 317.07 204.12C316.99 204.26 316.22 205.65 315.37 207.2C314.51 208.76 313.05 211.44 312.13 213.16C311.2 214.87 309.76 217.59 308.92 219.2C308.08 220.8 306.82 223.24 306.12 224.63C305.41 226.01 304.3 228.23 303.65 229.55C303 230.88 301.82 233.35 301.04 235.04C300.25 236.74 299.27 238.93 298.86 239.92C298.44 240.91 297.88 242.31 297.62 243.02C297.35 243.74 297 244.77 296.84 245.32C296.68 245.87 296.47 246.76 296.39 247.3C296.3 247.83 296.21 248.68 296.19 249.18C296.17 249.69 296.18 250.54 296.2 251.09C296.23 251.68 296.35 252.55 296.5 253.26C296.63 253.91 296.87 254.83 297.02 255.31C297.17 255.78 297.48 256.61 297.71 257.14C297.94 257.68 298.34 258.49 298.59 258.95C298.85 259.41 299.42 260.3 299.86 260.92C300.3 261.55 301.11 262.55 301.65 263.13C302.19 263.72 303.01 264.53 303.47 264.93C303.93 265.33 304.72 265.94 305.21 266.28C305.71 266.63 306.43 267.09 306.81 267.3C307.2 267.52 307.93 267.89 308.44 268.12C308.95 268.35 309.75 268.66 310.23 268.81C310.7 268.96 311.44 269.16 311.88 269.25C312.32 269.35 313.03 269.46 313.46 269.5C313.89 269.54 314.67 269.56 315.19 269.54C315.71 269.53 316.55 269.46 317.05 269.38C317.54 269.3 318.33 269.13 318.8 269C319.26 268.88 320.03 268.63 320.5 268.46C320.97 268.28 321.74 267.96 322.2 267.74C322.66 267.52 323.47 267.09 323.99 266.78C324.52 266.46 325.4 265.87 325.96 265.45C326.52 265.04 327.36 264.34 327.84 263.9C328.32 263.45 329 262.77 329.36 262.37C329.72 261.97 330.37 261.16 330.8 260.57C331.23 259.98 331.78 259.16 332.02 258.75C332.26 258.33 332.66 257.56 332.9 257.02C333.15 256.48 333.54 255.44 333.77 254.71C333.99 253.97 334.23 253 334.31 252.54C334.38 252.08 334.46 251.31 334.49 250.83C334.51 250.35 334.51 249.54 334.48 249.02C334.45 248.5 334.36 247.67 334.28 247.17C334.2 246.67 333.96 245.55 333.75 244.67C333.54 243.8 333.18 242.46 332.96 241.69C332.73 240.93 332.27 239.48 331.93 238.46C331.6 237.44 330.94 235.57 330.47 234.3C330 233.03 329.16 230.83 328.6 229.43C328.04 228.02 326.81 225.06 325.87 222.84C324.92 220.62 323.55 217.48 322.82 215.85C322.09 214.22 320.86 211.54 320.09 209.89C319.33 208.25 318.4 206.27 318.03 205.51C317.66 204.75 317.33 204.06 317.29 204ZM426.52 182.07C426.62 182.22 426.95 182.86 427.26 183.48C427.56 184.11 428.2 185.53 428.67 186.65C429.15 187.78 429.8 189.43 430.11 190.32C430.43 191.22 430.87 192.56 431.09 193.29C431.41 194.38 431.47 194.67 431.4 194.81C431.35 194.9 422.69 202.76 412.14 212.27C401.59 221.79 390.14 232.12 386.68 235.23L380.4 240.88C379.09 240.34 378.32 240.02 377.85 239.81C377.38 239.6 376.39 239.14 375.65 238.77C374.91 238.41 373.65 237.76 372.86 237.32C372.07 236.89 370.88 236.2 370.21 235.8C369.55 235.39 368.79 234.92 368.53 234.75C368.26 234.57 368.04 234.39 368.03 234.34C368.03 234.29 381.08 222.47 397.04 208.08C413 193.69 426.12 181.89 426.2 181.86C426.29 181.81 426.4 181.88 426.52 182.07ZM433.5 210.51C433.54 210.57 433.55 211.01 433.53 211.48C433.51 211.96 433.45 212.87 433.39 213.5C433.34 214.13 433.2 215.3 433.07 216.09C432.95 216.88 432.71 218.18 432.53 218.98C432.35 219.78 432 221.11 431.75 221.92C431.49 222.73 431.04 223.99 430.75 224.71C430.46 225.43 430.01 226.43 429.75 226.95C429.5 227.46 429 228.38 428.65 228.98C428.3 229.59 427.69 230.54 427.3 231.1L426.59 232.12C427.23 232.58 427.65 232.96 427.93 233.27C428.21 233.57 428.94 234.51 429.55 235.36C430.17 236.21 431.09 237.58 431.6 238.39C432.11 239.21 432.87 240.47 433.29 241.2C433.71 241.93 434.46 243.26 434.95 244.16C435.44 245.05 436.4 246.83 437.07 248.12C437.74 249.41 438.81 251.53 439.44 252.82C440.08 254.11 441.06 256.16 441.63 257.37C442.19 258.57 442.65 259.62 442.65 259.7C442.65 259.77 442.6 259.84 442.54 259.85C442.48 259.86 440.6 258.42 438.36 256.66C436.12 254.89 432.77 252.25 430.91 250.78C429.06 249.3 426.54 247.3 425.32 246.33C424.1 245.35 422.16 243.78 421 242.84C419.2 241.37 418.86 241.05 418.5 240.5C418.26 240.15 418.05 239.87 418.01 239.88C417.97 239.88 417.22 240.27 416.33 240.73C415.45 241.19 414.11 241.81 413.36 242.1C412.61 242.4 411.42 242.81 410.72 243.03C410.02 243.24 408.77 243.57 407.94 243.76C407.08 243.95 405.73 244.19 404.83 244.3C403.95 244.41 402.78 244.53 402.24 244.56C401.7 244.6 400.68 244.63 399.99 244.65C399.29 244.66 398.21 244.64 397.58 244.62C396.96 244.59 396.29 244.56 396.1 244.54C395.89 244.52 395.75 244.46 395.73 244.38C395.72 244.3 403.25 237.45 414.45 227.35C424.76 218.05 433.25 210.44 433.32 210.43C433.38 210.42 433.47 210.46 433.5 210.51Z" />
	<path id="Hun and Bun " fill="#fff773" aria-label="Hun and Bun"  d="M539.55 279.85L471.75 279.85L482.4 229.75L471.6 229.75L448.95 337L459.75 337L470.4 286.6L538.2 286.6L527.55 337L537.3 337L559.95 229.75L550.2 229.75ZM585.9 259.3L575.7 259.3L565.35 307.45C560.55 331.45 569.7 339.55 583.2 339.55C598.05 339.55 610.5 332.8 617.55 320.8L615 337L624 337L640.5 259.3L630.75 259.3L620.7 306.4C617.1 322.75 600.45 332.8 586.95 332.8C573.75 332.8 572.1 324.25 575.25 308.8ZM700.35 337L709.95 337L719.85 290.05C724.65 267.7 717.15 257.05 702.9 257.05C690.75 257.05 674.7 265.3 668.85 274.75L671.25 259.3L662.4 259.3L645.9 337L655.8 337L666.3 287.35C668.7 275.35 683.25 264.55 696.75 264.55C709.35 264.55 713.7 273.4 710.55 289Z" />
	<path id="Hun and Bun " fill="#000000" aria-label="Hun and Bun"  d="" />
	<path id="Hun and Bun " fill="#ffffff" aria-label="Hun and Bun"  d="M795.45 332.8C780.45 332.8 783 314.05 786.3 298.3C789.9 282.55 796.5 264.7 819.45 264.7C826.8 264.7 830.7 266.5 836.55 269.95L829.5 303.4C827.1 314.65 814.2 332.8 795.45 332.8ZM847.5 263.8C839.4 262.15 833.4 256.9 821.85 256.9C796.05 256.9 782.7 270.1 776.7 298.3C771.45 323.65 774.75 339.4 794.1 339.4C809.7 339.4 823.65 326.5 826.05 321.1L824.4 336.85L832.2 336.85ZM907.65 337L917.25 337L927.15 290.05C931.95 267.7 924.45 257.05 910.2 257.05C898.05 257.05 882 265.3 876.15 274.75L878.55 259.3L869.7 259.3L853.2 337L863.1 337L873.6 287.35C876 275.35 890.55 264.55 904.05 264.55C916.65 264.55 921 273.4 917.85 289ZM995.7 303.7C991.65 322.15 981.75 332.2 963.75 332.2C946.2 332.2 948.45 310.45 951.3 297.7C953.1 290.5 958.05 263.35 979.35 263.35C986.85 263.35 998.25 267.4 1003.05 269.8ZM990.9 326.8C989.4 334.6 989.7 335.5 989.25 337.6L998.7 337.6L1024.05 218.05L1014 218.05L1004.7 261.85C994.95 257.8 986.1 256.45 980.85 256.45C964.65 256.45 947.7 267.85 941.25 297.85C934.95 328.45 946.05 338.8 962.4 338.8C975 338.8 984.9 333.85 990.9 326.8Z" />
	<path id="Hun and Bun " fill="#74dea9" aria-label="Hun and Bun"  d="M1083.6 281.95L1114.2 281.95C1132.95 281.95 1143.75 290.95 1140.6 306.55C1137 322.9 1127.1 333.85 1095.15 333.1L1072.95 332.05ZM1084.95 275.2L1093.2 236.35L1118.1 236.35C1138.05 236.35 1144.2 244 1141.65 256.15C1138.8 269.8 1129.2 275.2 1108.8 275.2ZM1084.8 229.9C1077 266.5 1070.1 300.55 1062.3 337.15C1065.75 337.6 1075.05 338.5 1102.05 338.95C1137.15 339.7 1148.55 323.95 1152.15 307.75C1156.05 289.45 1143.3 280.6 1126.5 277.75C1139.4 276.1 1150.2 269.05 1152.9 256.15C1156.2 241.6 1148.85 229.9 1119.3 229.9ZM1189.35 259.3L1179.15 259.3L1168.8 307.45C1164 331.45 1173.15 339.55 1186.65 339.55C1201.5 339.55 1213.95 332.8 1221 320.8L1218.45 337L1227.45 337L1243.95 259.3L1234.2 259.3L1224.15 306.4C1220.55 322.75 1203.9 332.8 1190.4 332.8C1177.2 332.8 1175.55 324.25 1178.7 308.8ZM1303.8 337L1313.4 337L1323.3 290.05C1328.1 267.7 1320.6 257.05 1306.35 257.05C1294.2 257.05 1278.15 265.3 1272.3 274.75L1274.7 259.3L1265.85 259.3L1249.35 337L1259.25 337L1269.75 287.35C1272.15 275.35 1286.7 264.55 1300.2 264.55C1312.8 264.55 1317.15 273.4 1314 289Z" />
</svg>