<svg version="1.2" baseProfile="tiny-ps" xmlns="http://www.w3.org/2000/svg" viewBox="0 0 1750 405" width="164" height="38">
	<title>Hun and Bun Private Server Logo UwU - Discord Server Logos (Vector Logo)</title>
	<style>
		tspan { white-space:pre }
		.shp0 { fill: #74dea9 } 
		.shp1 { fill: #fff773 } 
		.shp2 { fill: #000000 } 
		.shp3 { fill: #ffffff } 
	</style>
	<path id="Leaf" class="shp0" d="M1701.22 131.85C1699.12 131.22 1695.5 130.56 1693.16 130.39C1690.81 130.21 1687.12 130.29 1684.95 130.55C1682.79 130.82 1680.34 131.24 1679.51 131.49C1678.68 131.74 1677.8 131.76 1677.56 131.54C1677.31 131.31 1677.37 130.45 1677.67 129.62C1678.01 128.73 1677.89 127.78 1677.37 127.3C1676.87 126.85 1673.49 126.64 1669.47 126.82C1665.61 126.99 1660.31 127.68 1657.7 128.34C1655.09 129.01 1652.87 129.44 1652.76 129.32C1652.66 129.18 1652.63 127.96 1652.72 126.58L1652.86 124.09C1647.14 124.56 1643.57 125.15 1641.23 125.7C1638.89 126.26 1634.78 127.63 1632.1 128.77C1629.42 129.91 1626.77 131.07 1626.23 131.36C1625.69 131.64 1625.08 131.74 1624.89 131.58C1624.71 131.42 1624.52 130.33 1624.47 129.14C1624.43 127.97 1624.19 126.82 1623.95 126.59C1623.71 126.37 1621.46 127.17 1618.95 128.36C1616.45 129.56 1612.62 131.67 1610.45 133.05C1608.29 134.43 1605.61 136.38 1604.48 137.37C1603.37 138.36 1601.85 139.81 1601.11 140.6C1600.37 141.37 1599.57 141.83 1599.32 141.61C1599.08 141.38 1598.53 139.97 1598.11 138.47C1597.54 136.42 1597.14 135.81 1596.51 136C1596.05 136.14 1593.42 138.78 1590.66 141.85C1587.9 144.93 1584.26 149.65 1582.55 152.35C1580.84 155.04 1579.08 157.94 1578.62 158.8L1577.8 160.36L1573.79 155.35C1571.6 157.76 1569.92 160.44 1568.64 162.85C1567.36 165.26 1565.81 168.97 1565.2 171.09C1564.58 173.21 1563.75 177.01 1563.38 179.53C1562.99 182.06 1562.61 184.59 1562.53 185.16C1562.46 185.74 1562.52 188.37 1562.67 191.02C1562.81 193.68 1563.05 196.87 1563.2 198.12C1563.35 199.38 1563.87 201.49 1564.34 202.82C1564.82 204.15 1565.14 206.09 1565.05 207.12C1564.96 208.16 1564.38 210 1563.75 211.22C1563 212.66 1559.69 216.45 1554.14 222.18C1548.65 227.86 1545.76 231.15 1545.92 231.56C1546.05 231.91 1547.83 230.96 1550.01 229.39C1552.13 227.85 1556.55 225.02 1559.84 223.1C1563.13 221.18 1568.44 218.34 1571.66 216.79C1574.87 215.24 1582.01 212.05 1587.53 209.7C1593.05 207.35 1601.01 203.81 1605.23 201.83C1609.45 199.86 1615.33 196.98 1618.29 195.44C1621.26 193.89 1627.04 190.74 1631.14 188.44C1635.24 186.14 1641.84 182.27 1645.79 179.84C1649.76 177.4 1656.8 172.84 1661.46 169.71C1666.12 166.58 1670.25 163.66 1670.65 163.24C1671.03 162.81 1671.73 162.53 1672.18 162.6C1672.81 162.71 1672.33 163.33 1670.24 165.11C1668.73 166.41 1664.53 169.72 1660.93 172.48C1657.32 175.23 1651.48 179.42 1647.96 181.8C1644.43 184.19 1638.04 188.23 1633.75 190.81C1629.45 193.38 1622.78 197.18 1618.9 199.24C1615.03 201.3 1609.52 204.15 1606.66 205.57C1603.8 206.99 1598 209.75 1593.77 211.71C1589.53 213.68 1582.81 216.6 1578.83 218.23C1574.85 219.86 1571.67 221.41 1571.77 221.68C1571.86 221.94 1573.31 223.86 1575.01 225.93C1576.87 228.22 1579.5 230.77 1581.69 232.42C1583.69 233.91 1587.4 236.16 1589.96 237.41C1592.5 238.66 1596.34 240.26 1598.5 240.96C1600.65 241.67 1604.79 242.64 1607.7 243.14C1610.6 243.63 1615.14 244.12 1617.78 244.24C1620.43 244.36 1623.28 244.17 1624.13 243.82C1625.44 243.27 1625.63 242.96 1625.39 241.72C1625.25 240.92 1624.97 239.69 1624.75 239.01C1624.4 237.87 1624.81 237.73 1629.63 237.34C1632.52 237.1 1637.54 236.41 1640.79 235.79C1644.03 235.18 1648.05 234.17 1649.73 233.57C1652.35 232.6 1652.73 232.31 1652.49 231.42C1652.33 230.85 1651.76 229.97 1651.22 229.46C1650.67 228.97 1650.31 228.26 1650.4 227.9C1650.51 227.55 1652.3 226.53 1654.39 225.65C1656.49 224.76 1660.36 222.89 1662.99 221.47C1665.61 220.07 1669.44 217.7 1671.48 216.2C1673.53 214.72 1675.19 213.31 1675.18 213.07C1675.16 212.83 1674.25 211.94 1673.16 211.09L1671.18 209.55C1674.46 207.09 1676.68 205.34 1678.24 204.07C1679.79 202.8 1683.05 199.55 1685.47 196.84C1687.89 194.13 1690.29 191.19 1690.79 190.31C1691.54 188.99 1691.49 188.55 1690.49 187.83C1689.84 187.35 1688.85 186.64 1688.31 186.25C1687.42 185.59 1687.63 185.16 1690.88 181.03C1692.82 178.57 1695.37 174.85 1696.52 172.77C1697.68 170.7 1699.02 167.79 1699.49 166.33C1699.96 164.86 1700.14 163.47 1699.9 163.25C1699.65 163.02 1698.6 162.97 1697.56 163.14C1696.5 163.3 1695.45 163.26 1695.21 163.04C1694.96 162.82 1696.06 158.24 1697.64 152.87C1699.23 147.5 1701.53 141.09 1702.75 138.63C1703.98 136.16 1704.99 133.89 1705 133.57C1705.02 133.26 1703.31 132.48 1701.22 131.85ZM1586.78 78C1586.49 77.99 1585.68 78.68 1584.98 79.53C1584.28 80.39 1581.79 82.36 1579.46 83.91C1577.12 85.48 1573.24 87.9 1570.84 89.28C1568.44 90.68 1566.35 91.78 1566.19 91.76C1566.04 91.73 1565.68 90.95 1565.41 90.03C1565.13 89.1 1564.69 88.29 1564.41 88.21C1564.15 88.13 1563.17 88.61 1562.24 89.27C1561.3 89.93 1558.79 92.35 1556.65 94.65C1554.52 96.96 1552.24 99.77 1551.58 100.9L1550.38 102.97L1547.13 99.4C1543.27 104.07 1541.21 107.04 1540.06 109.01C1538.91 110.99 1537.47 113.88 1536.86 115.44C1536.24 117.01 1535.45 118.48 1535.09 118.72C1534.74 118.95 1533.95 118.68 1533.34 118.13C1532.72 117.57 1531.91 117.29 1531.53 117.5C1531.15 117.72 1530.04 120.27 1529.05 123.17C1528.07 126.08 1526.89 130.76 1526.42 133.58C1525.96 136.4 1525.45 138.85 1525.28 139.04C1525.11 139.22 1524.36 139.18 1523.6 138.93C1522.85 138.69 1521.97 138.63 1521.65 138.78C1521.34 138.95 1521.01 140.89 1520.92 143.11C1520.83 145.32 1520.98 149.3 1521.26 151.95C1521.54 154.59 1521.97 157.74 1522.21 158.94L1522.67 161.11C1519.11 161.32 1518.27 161.71 1518.09 162.34C1517.94 162.88 1518.54 165.63 1519.43 168.46C1520.33 171.28 1522.13 175.63 1523.45 178.11C1524.76 180.6 1527.21 184.34 1528.88 186.43C1530.63 188.61 1533.44 191.4 1535.49 193C1537.47 194.52 1540.37 196.35 1541.96 197.05C1543.56 197.76 1545.12 198.33 1545.44 198.33C1545.76 198.33 1546.53 194.96 1547.14 190.83C1547.76 186.7 1548.91 179.88 1549.7 175.68C1550.47 171.47 1552.07 163.96 1553.23 158.99C1554.4 154.01 1556.61 145.97 1558.14 141.11C1559.67 136.24 1561.9 129.68 1563.1 126.53C1564.31 123.37 1566.16 118.85 1567.23 116.47C1568.31 114.09 1569.38 112.15 1569.62 112.15C1569.86 112.14 1570.05 112.31 1570.03 112.51C1570.01 112.72 1568.77 116.34 1567.26 120.56C1565.76 124.78 1563.19 132.86 1561.55 138.52C1559.91 144.18 1557.52 153.52 1556.25 159.29C1554.98 165.06 1553.26 174.11 1552.45 179.41C1551.64 184.7 1550.7 190.79 1550.35 192.93C1550.01 195.07 1549.12 199.57 1548.38 202.92C1547.63 206.27 1546.23 211.66 1545.26 214.92C1544.29 218.16 1543.64 220.96 1543.82 221.13C1544.01 221.3 1544.96 220.25 1545.95 218.8C1546.95 217.36 1549.38 213.16 1551.36 209.5C1553.36 205.83 1555.35 202.44 1555.8 201.95C1556.24 201.46 1558.03 200.89 1559.78 200.7C1561.53 200.49 1563.12 199.95 1563.33 199.47C1563.54 198.98 1563.48 197.73 1563.17 196.68C1562.87 195.63 1562.35 191.77 1562.02 188.11C1561.68 184.45 1561.63 179.65 1561.9 177.44C1562.17 175.23 1563.05 171.27 1563.86 168.65C1564.65 166.03 1566.37 161.74 1567.67 159.13C1568.97 156.51 1570.62 153.44 1571.34 152.3L1572.62 150.23C1576.31 154.72 1576.64 154.93 1577.25 154.23C1577.64 153.8 1579.11 151.58 1580.53 149.3C1581.95 147.01 1586.15 141.51 1589.89 137.08C1594.92 131.1 1596.87 129.06 1597.49 129.17C1597.94 129.25 1598.71 130.58 1599.2 132.13C1599.7 133.68 1600.38 134.95 1600.73 134.95C1601.09 134.95 1602.37 133.84 1603.59 132.48C1605.79 130.06 1605.8 129.98 1605.52 124.31C1605.35 120.65 1604.88 118.25 1604.26 117.66C1603.69 117.15 1602.7 116.96 1602 117.23C1600.84 117.67 1600.71 117.22 1600.22 111.34C1599.92 107.84 1599.25 103.56 1598.71 101.84C1598.17 100.12 1597.34 98.54 1596.85 98.33C1596.38 98.11 1595.72 98.24 1595.38 98.61C1595.05 98.98 1594.52 99.06 1594.21 98.79C1593.89 98.52 1593.63 97.5 1593.62 96.52C1593.62 95.55 1593.26 93.02 1592.84 90.91C1592.42 88.79 1591.56 85.92 1590.94 84.52C1590.32 83.11 1589.24 81.08 1588.56 79.99C1587.87 78.91 1587.07 78.01 1586.78 78Z" />
	<path id="Bee" fill-rule="evenodd" class="shp1" d="M75.65 107.69C76.12 107.7 76.76 107.74 77.06 107.77C77.37 107.79 77.96 107.9 78.37 107.98C78.78 108.07 79.46 108.24 79.88 108.38C80.29 108.51 81.05 108.81 81.56 109.03C82.19 109.32 82.87 109.73 83.77 110.39C84.72 111.08 85.28 111.55 85.82 112.15C86.23 112.6 86.76 113.22 86.98 113.54C87.21 113.85 87.59 114.46 87.83 114.89C88.08 115.32 88.41 116.02 88.6 116.46C88.78 116.9 89.03 117.62 89.15 118.07C89.3 118.59 89.45 119.34 89.53 120.13C89.61 120.84 89.66 121.76 89.64 122.24C89.62 122.71 89.53 123.56 89.44 124.14C89.34 124.72 89.14 125.59 88.98 126.08C88.82 126.57 88.53 127.32 88.33 127.75C88.13 128.17 87.74 128.89 87.46 129.34C87.18 129.78 86.69 130.45 86.38 130.82C86.06 131.19 85.49 131.78 85.11 132.14C84.72 132.49 84.13 132.98 83.8 133.21C83.46 133.46 82.92 133.81 82.61 134C82.28 134.19 81.64 134.51 81.18 134.7C80.73 134.91 79.97 135.18 79.5 135.32C79.04 135.46 78.25 135.64 77.76 135.73C77.27 135.8 76.44 135.88 75.92 135.89C75.4 135.9 74.58 135.88 74.11 135.84C73.63 135.79 72.89 135.68 72.45 135.58C72.02 135.49 71.32 135.29 70.89 135.14C70.47 135 69.76 134.7 69.31 134.49C68.81 134.26 67.98 133.74 67.23 133.21C66.31 132.54 65.77 132.07 65.22 131.48C64.81 131.03 64.26 130.37 64 130C63.74 129.64 63.29 128.91 63.03 128.41C62.76 127.91 62.4 127.15 62.25 126.73C62.05 126.22 61.86 125.5 61.66 124.49C61.45 123.33 61.38 122.8 61.37 122.03C61.36 121.49 61.42 120.61 61.49 120.06C61.55 119.52 61.71 118.68 61.82 118.22C61.95 117.76 62.19 117.03 62.36 116.61C62.53 116.19 62.84 115.52 63.03 115.14C63.23 114.77 63.68 114.05 64.03 113.58C64.36 113.1 64.96 112.39 65.34 112C65.72 111.61 66.38 111.03 66.79 110.7C67.2 110.37 67.86 109.92 68.24 109.7C68.63 109.47 69.24 109.14 69.61 108.98C69.98 108.8 70.67 108.53 71.14 108.38C71.67 108.22 72.5 108.04 73.39 107.9C74.36 107.75 75.06 107.68 75.65 107.69ZM75.33 114.19C75.1 114.19 74.51 114.27 74.04 114.36C73.55 114.47 72.9 114.65 72.54 114.81C72.19 114.96 71.56 115.33 71.14 115.63C70.71 115.94 70.16 116.41 69.87 116.74C69.6 117.06 69.2 117.62 68.98 117.98C68.78 118.34 68.49 118.93 68.37 119.3C68.25 119.68 68.1 120.27 68.05 120.63C67.99 120.99 67.95 121.64 67.96 122.08C67.98 122.54 68.05 123.15 68.14 123.5C68.22 123.84 68.42 124.42 68.58 124.79C68.73 125.17 69.08 125.77 69.34 126.15C69.61 126.53 70.09 127.09 70.41 127.39C70.72 127.69 71.32 128.12 71.73 128.35C72.16 128.6 72.85 128.89 73.37 129.04C73.85 129.19 74.51 129.34 74.82 129.37C75.25 129.42 75.68 129.39 76.74 129.21C78.06 129.01 78.14 128.98 78.86 128.6C79.26 128.39 79.89 127.99 80.24 127.71C80.6 127.41 81.11 126.9 81.42 126.48C81.73 126.07 82.12 125.5 82.27 125.19C82.42 124.89 82.64 124.3 82.76 123.89C82.89 123.47 83.01 122.79 83.05 122.35C83.09 121.79 83.06 121.32 82.95 120.63C82.86 120.07 82.71 119.44 82.57 119.1C82.45 118.79 82.18 118.25 82 117.91C81.8 117.59 81.41 117.05 81.11 116.72C80.81 116.4 80.28 115.92 79.94 115.67C79.59 115.42 79.05 115.08 78.72 114.93C78.39 114.78 77.84 114.58 77.5 114.48C77.15 114.39 76.63 114.29 76.32 114.25C76.01 114.21 75.57 114.19 75.33 114.19ZM170.89 102.15C171.4 102.14 172.2 102.14 172.67 102.16C173.14 102.18 174.02 102.26 174.61 102.33C175.21 102.41 176.12 102.56 176.66 102.68C177.19 102.79 178.16 103.05 178.81 103.26C179.46 103.47 180.38 103.79 180.84 103.99C181.3 104.18 182.08 104.54 182.59 104.79C183.1 105.04 183.91 105.48 184.4 105.78C184.89 106.07 185.89 106.74 186.6 107.25C187.31 107.78 188.38 108.64 188.97 109.17C189.57 109.71 190.48 110.61 191 111.19C191.52 111.76 192.17 112.49 192.43 112.83C192.7 113.15 193.13 113.73 193.4 114.11C193.67 114.48 194.15 115.22 194.47 115.72C194.79 116.24 195.29 117.13 195.59 117.71C195.89 118.29 196.33 119.22 196.57 119.76C196.79 120.31 197.15 121.25 197.35 121.85C197.67 122.8 197.76 123.25 198.09 125.3C198.39 127.18 198.46 127.83 198.45 128.51C198.44 128.98 198.41 129.73 198.36 130.18C198.32 130.63 198.21 131.46 198.11 132.02C198.01 132.59 197.81 133.48 197.67 134C197.53 134.53 197.24 135.41 197.04 135.95C196.83 136.49 196.47 137.36 196.23 137.86C196 138.37 195.6 139.14 195.36 139.57C195.12 140.01 194.61 140.85 194.23 141.44C193.85 142.03 193.19 142.96 192.76 143.49C192.32 144.03 191.67 144.81 191.29 145.23C190.92 145.64 190.27 146.3 189.87 146.71C189.47 147.1 188.74 147.77 188.24 148.19C187.74 148.6 186.96 149.22 186.51 149.56C186.05 149.89 185.31 150.4 184.86 150.69C184.42 150.97 183.59 151.46 183.04 151.77C182.48 152.08 181.48 152.56 180.83 152.84C180.18 153.13 179.11 153.55 178.48 153.76C177.83 153.98 176.73 154.29 176.04 154.46C175.28 154.63 174.3 154.81 173.6 154.89C172.96 154.96 171.99 155.04 171.46 155.05C170.92 155.06 170.04 155.06 169.5 155.02C168.96 154.99 167.99 154.88 167.34 154.76C166.69 154.66 165.74 154.46 165.24 154.33C164.72 154.2 163.64 153.88 162.83 153.62C162.01 153.36 160.72 152.91 159.95 152.62C159.18 152.33 157.89 151.82 157.09 151.49C156.3 151.16 154.51 150.37 153.12 149.74C151.74 149.11 149.69 148.17 148.59 147.62C147.47 147.08 145.73 146.22 144.71 145.7C143.7 145.19 141.62 144.1 140.08 143.3C138.55 142.49 136.48 141.38 135.49 140.84C134.49 140.3 132.58 139.25 131.25 138.51C129.92 137.76 127.42 136.34 125.7 135.36C123.97 134.37 121.72 133.06 120.69 132.46C119.66 131.85 117.55 130.6 116.01 129.67C114.45 128.75 112.02 127.27 110.57 126.39C109.14 125.51 107.97 124.74 107.98 124.69C107.98 124.62 108.97 124.15 110.41 123.54C111.74 122.97 114.47 121.82 116.49 120.98C118.5 120.13 121.84 118.76 123.9 117.91C125.96 117.07 129.47 115.66 131.71 114.77C133.95 113.88 137.41 112.54 139.39 111.78C141.37 111.02 144.2 109.95 145.67 109.41C147.15 108.86 149.76 107.93 151.46 107.33C153.16 106.74 155.61 105.91 156.9 105.49C158.19 105.08 159.93 104.53 160.78 104.28C161.63 104.03 163.03 103.62 163.91 103.39C164.96 103.11 166.26 102.83 167.73 102.58C169.32 102.29 170.22 102.18 170.89 102.15ZM171.05 110.62C170.45 110.63 169.72 110.73 168.59 110.93C167.71 111.09 166.47 111.36 165.85 111.54C165.22 111.71 164.16 112.02 163.48 112.22C162.82 112.42 161.6 112.81 160.78 113.08C159.96 113.34 158.58 113.81 157.72 114.11C156.86 114.42 155.05 115.07 153.7 115.56C152.36 116.06 150.16 116.89 148.82 117.41C147.48 117.92 145.41 118.73 144.22 119.2C143.04 119.67 140.75 120.58 139.15 121.24C137.56 121.89 134.4 123.2 132.14 124.14C129.89 125.09 128.03 125.89 128.01 125.91C127.99 125.93 128.11 126.04 128.27 126.13C128.43 126.23 129.61 126.96 130.91 127.73C132.19 128.52 134.4 129.84 135.83 130.68C137.24 131.52 139.72 132.95 141.33 133.87C142.96 134.79 145.12 136 146.14 136.56C147.16 137.12 148.91 138.06 150.04 138.66C151.16 139.25 153.06 140.22 154.25 140.81C155.44 141.41 157.37 142.33 158.52 142.86C159.68 143.38 161.34 144.1 162.21 144.45C163.09 144.8 164.43 145.3 165.19 145.55C165.96 145.81 167.04 146.11 167.6 146.24C168.15 146.36 168.92 146.49 169.29 146.52C169.68 146.56 170.32 146.59 170.71 146.6C171.11 146.61 171.95 146.56 172.6 146.48C173.26 146.41 174.18 146.24 174.71 146.11C175.22 145.97 176 145.72 176.44 145.56C176.88 145.39 177.6 145.09 178.04 144.88C178.47 144.67 179.23 144.27 179.71 143.97C180.21 143.68 181 143.15 181.48 142.79C181.96 142.43 182.77 141.76 183.27 141.29C183.79 140.81 184.51 140.08 184.88 139.65C185.26 139.22 185.91 138.38 186.33 137.78C186.75 137.18 187.32 136.24 187.61 135.7C187.89 135.15 188.3 134.27 188.5 133.73C188.71 133.2 188.99 132.28 189.13 131.69C189.26 131.11 189.4 130.23 189.44 129.73C189.49 129.23 189.5 128.5 189.49 128.11C189.48 127.71 189.39 126.93 189.31 126.36C189.21 125.78 189.02 124.94 188.88 124.47C188.74 124 188.49 123.28 188.33 122.88C188.17 122.48 187.86 121.79 187.65 121.37C187.44 120.96 187.01 120.21 186.7 119.72C186.39 119.23 185.88 118.49 185.55 118.08C185.22 117.67 184.72 117.08 184.44 116.77C184.15 116.47 183.63 115.94 183.26 115.6C182.91 115.26 182.21 114.69 181.74 114.33C181.26 113.96 180.47 113.43 179.98 113.14C179.49 112.84 178.65 112.39 178.13 112.15C177.6 111.91 176.74 111.58 176.23 111.41C175.71 111.25 174.91 111.05 174.46 110.95C174 110.86 173.23 110.75 172.76 110.7C172.28 110.65 171.51 110.61 171.05 110.62ZM50.49 130.17C50.89 130.18 51.53 130.21 51.9 130.23C52.28 130.27 52.88 130.36 53.25 130.42C53.61 130.49 54.26 130.65 54.7 130.78C55.14 130.91 55.94 131.21 56.46 131.45C57 131.7 57.77 132.11 58.19 132.37C58.6 132.63 59.25 133.11 59.63 133.43C60.01 133.75 60.61 134.32 60.95 134.69C61.3 135.07 61.83 135.72 62.13 136.14C62.42 136.55 62.86 137.27 63.1 137.72C63.33 138.17 63.68 138.92 63.86 139.38C64.14 140.11 64.22 140.47 64.48 142.04C64.74 143.65 64.77 143.97 64.72 144.8C64.69 145.33 64.59 146.19 64.49 146.73C64.4 147.27 64.23 148.01 64.12 148.37C64.01 148.72 63.82 149.26 63.7 149.56C63.59 149.85 63.32 150.41 63.13 150.79C62.93 151.18 62.53 151.85 62.22 152.28C61.91 152.72 61.41 153.36 61.11 153.69C60.82 154.02 60.26 154.58 59.87 154.91C59.48 155.25 58.88 155.72 58.54 155.95C58.21 156.17 57.62 156.53 57.23 156.74C56.84 156.95 56.07 157.29 55.53 157.5C54.64 157.85 54.34 157.91 52.87 158.16C51.61 158.35 51.01 158.42 50.36 158.4C49.9 158.39 49.14 158.33 48.69 158.27C48.23 158.21 47.48 158.06 47.02 157.94C46.55 157.82 45.85 157.59 45.45 157.44C45.05 157.29 44.41 156.99 44.01 156.79C43.62 156.58 42.94 156.18 42.52 155.88C42.09 155.59 41.51 155.14 41.22 154.88C40.94 154.62 40.44 154.13 40.12 153.78C39.8 153.43 39.3 152.81 39.01 152.38C38.71 151.96 38.27 151.23 38.02 150.76C37.78 150.29 37.43 149.5 37.26 149.01C36.98 148.28 36.88 147.86 36.67 146.52C36.49 145.36 36.42 144.68 36.43 144.14C36.45 143.71 36.51 142.97 36.57 142.48C36.64 141.99 36.78 141.23 36.89 140.78C37.01 140.32 37.23 139.62 37.38 139.23C37.53 138.83 37.86 138.13 38.1 137.67C38.35 137.22 38.77 136.51 39.06 136.13C39.34 135.73 39.8 135.16 40.07 134.85C40.35 134.54 40.81 134.08 41.1 133.81C41.38 133.56 41.97 133.09 42.41 132.77C42.85 132.46 43.57 132.02 44 131.8C44.43 131.57 45.15 131.26 45.59 131.08C46.21 130.83 46.73 130.71 48.08 130.47C49.25 130.26 49.99 130.17 50.49 130.17ZM50.47 136.68C50.19 136.68 49.57 136.76 49.09 136.86C48.62 136.95 47.96 137.14 47.63 137.28C47.3 137.43 46.78 137.71 46.46 137.93C46.15 138.13 45.67 138.51 45.41 138.75C45.14 139 44.71 139.51 44.43 139.89C44.17 140.26 43.82 140.87 43.67 141.24C43.51 141.62 43.31 142.22 43.22 142.58C43.14 142.95 43.06 143.54 43.04 143.89C43.02 144.26 43.07 144.92 43.15 145.44C43.23 145.97 43.39 146.63 43.53 147C43.67 147.34 43.95 147.92 44.16 148.25C44.38 148.59 44.71 149.05 44.89 149.27C45.08 149.5 45.56 149.93 45.96 150.24C46.36 150.55 46.94 150.93 47.24 151.08C47.54 151.23 48.13 151.46 48.55 151.57C48.97 151.69 49.58 151.81 49.91 151.85C50.38 151.9 50.8 151.87 51.8 151.7C52.77 151.55 53.2 151.44 53.6 151.26C53.88 151.13 54.38 150.84 54.72 150.61C55.06 150.39 55.56 150 55.82 149.75C56.08 149.5 56.48 149.04 56.72 148.71C56.94 148.39 57.27 147.82 57.45 147.45C57.62 147.07 57.83 146.47 57.92 146.11C58.01 145.74 58.1 145.13 58.13 144.76C58.17 144.25 58.13 143.77 58 143C57.86 142.2 57.75 141.76 57.55 141.32C57.41 140.99 57.12 140.47 56.9 140.15C56.7 139.84 56.34 139.38 56.12 139.14C55.89 138.89 55.47 138.51 55.18 138.27C54.88 138.05 54.37 137.72 54.05 137.54C53.71 137.37 53.1 137.13 52.69 137.02C52.27 136.9 51.71 136.77 51.45 136.74C51.19 136.71 50.75 136.68 50.47 136.68ZM92.97 139.14C93.25 139.11 94.07 139.04 94.81 139C95.55 138.96 96.84 138.92 97.65 138.93C98.47 138.94 99.74 139 100.47 139.05C101.24 139.11 101.81 139.2 101.82 139.25C101.83 139.3 93.63 146.75 83.61 155.8C69.3 168.72 65.37 172.22 65.26 172.16C65.16 172.1 65.15 171.86 65.17 170.89C65.18 170.23 65.24 169.08 65.31 168.32C65.37 167.56 65.52 166.32 65.64 165.55C65.76 164.78 65.97 163.67 66.11 163.06C66.24 162.45 66.53 161.35 66.75 160.62C66.98 159.88 67.32 158.83 67.53 158.29C67.75 157.73 68.13 156.82 68.4 156.24C68.66 155.65 69.15 154.7 69.47 154.12C69.79 153.53 70.63 152.24 71.34 151.26C72.05 150.28 72.97 149.11 73.39 148.65C73.81 148.2 74.63 147.38 75.22 146.84C75.81 146.29 76.88 145.42 77.59 144.91C78.3 144.39 79.37 143.68 79.97 143.32C80.57 142.98 81.42 142.52 81.85 142.3C82.28 142.1 82.99 141.77 83.43 141.58C83.86 141.39 84.6 141.1 85.07 140.93C85.53 140.78 86.34 140.5 86.88 140.34C87.42 140.19 88.41 139.93 89.08 139.78C89.76 139.62 90.79 139.43 91.39 139.34C91.98 139.26 92.7 139.16 92.97 139.14ZM117.33 143.46C118.12 143.8 119.42 144.43 120.22 144.83C121.02 145.24 122.18 145.85 122.8 146.2C123.41 146.56 124.4 147.14 125 147.5C125.59 147.88 126.35 148.36 126.68 148.58C127.01 148.8 127.27 149.03 127.26 149.09C127.25 149.14 126.6 149.78 125.81 150.49C125.01 151.2 114.29 160.88 101.98 171.99C89.68 183.09 78.03 193.6 76.11 195.33C74.19 197.06 72.55 198.49 72.46 198.51C72.32 198.54 72.21 198.36 71.66 197.33C71.31 196.66 70.72 195.46 70.36 194.65C69.99 193.85 69.48 192.63 69.21 191.94C68.94 191.26 68.5 190.11 68.25 189.38C68 188.65 67.69 187.74 67.57 187.34C67.37 186.72 67.35 186.62 67.45 186.5C67.5 186.42 78.39 176.59 91.65 164.63C104.9 152.68 115.76 142.88 115.81 142.86C115.86 142.84 116.53 143.1 117.33 143.46ZM137.77 157.47C138.21 157.9 139.03 158.74 139.6 159.33C140.16 159.92 141.04 160.88 141.56 161.47C142.07 162.07 142.87 163.04 143.34 163.61C143.8 164.19 144.36 164.9 144.59 165.2C144.81 165.49 144.98 165.78 144.97 165.86C144.96 165.93 142.38 168.3 139.25 171.14C136.11 173.97 131.22 178.39 128.38 180.94C125.54 183.51 115.16 192.87 105.31 201.76C95.46 210.65 87.35 217.93 87.27 217.93C87.21 217.94 86.57 217.39 85.86 216.7C85.14 216 84.03 214.87 83.38 214.18C82.74 213.49 81.78 212.42 81.27 211.81C80.75 211.19 80.03 210.31 79.67 209.85C79.32 209.39 79.02 208.97 79.01 208.91C78.99 208.86 91.98 197.1 107.87 182.77C123.75 168.44 136.8 156.71 136.86 156.7C136.92 156.69 137.33 157.04 137.77 157.47ZM50.19 176.95C50.24 176.98 50.83 178.13 51.51 179.53C52.17 180.92 53.35 183.42 54.13 185.08C54.92 186.76 56.02 189.17 56.6 190.43C57.18 191.69 58.22 194 58.92 195.58C59.62 197.14 60.88 200.04 61.72 202.01C62.56 203.97 63.67 206.59 64.18 207.82C64.68 209.04 65.57 211.25 66.16 212.73C66.74 214.2 67.65 216.56 68.18 217.96C68.7 219.38 69.44 221.46 69.83 222.58C70.23 223.72 70.77 225.35 71.05 226.21C71.32 227.08 71.68 228.22 71.84 228.76C72 229.29 72.32 230.41 72.54 231.24C72.77 232.06 73.13 233.63 73.37 234.72C73.69 236.23 73.81 237.02 73.91 238.15C73.99 238.96 74.03 240.13 74.02 240.77C74 241.4 73.93 242.41 73.85 243C73.78 243.6 73.62 244.54 73.5 245.1C73.38 245.65 73.1 246.67 72.87 247.37C72.65 248.05 72.22 249.15 71.92 249.8C71.62 250.46 71.12 251.48 70.8 252.06C70.47 252.65 69.71 253.83 69.1 254.68C68.49 255.54 67.65 256.61 67.23 257.08C66.82 257.56 66.08 258.34 65.58 258.82C65.08 259.31 64.3 260.02 63.84 260.42C63.37 260.81 62.5 261.49 61.89 261.93C61.28 262.38 60.39 262.97 59.89 263.27C59.41 263.57 58.6 264.03 58.1 264.29C57.61 264.55 56.89 264.91 56.49 265.08C56.1 265.26 55.33 265.57 54.78 265.78C54.22 265.98 53.3 266.29 52.72 266.46C52.08 266.65 51.03 266.87 50.06 267.02C49.17 267.17 48.06 267.3 47.59 267.32C47.13 267.34 46.36 267.33 45.9 267.31C45.43 267.3 44.65 267.24 44.17 267.18C43.69 267.12 42.87 266.97 42.33 266.85C41.81 266.73 40.97 266.5 40.48 266.35C39.98 266.19 39.2 265.91 38.72 265.71C38.24 265.52 37.55 265.21 37.16 265.03C36.79 264.84 36.08 264.46 35.59 264.17C35.1 263.89 34.25 263.37 33.71 263C33.16 262.64 32.27 261.97 31.73 261.52C31.18 261.06 30.44 260.42 30.09 260.08C29.72 259.74 29.06 259.07 28.61 258.58C28.16 258.08 27.6 257.45 27.36 257.17C27.13 256.88 26.6 256.17 26.2 255.61C25.79 255.04 25.24 254.21 24.96 253.76C24.69 253.31 24.24 252.51 23.97 251.97C23.69 251.43 23.29 250.58 23.07 250.07C22.86 249.58 22.54 248.74 22.36 248.24C22.19 247.73 21.93 246.87 21.79 246.33C21.62 245.7 21.43 244.66 21.26 243.4C21.1 242.24 21 241.12 21 240.62C21 240.16 21.02 239.41 21.05 238.95C21.07 238.49 21.2 237.47 21.33 236.68C21.45 235.89 21.73 234.66 21.95 233.95C22.16 233.24 22.53 232.13 22.75 231.48C22.99 230.85 23.49 229.52 23.88 228.55C24.27 227.58 24.91 226.04 25.29 225.14C25.68 224.23 26.68 222.01 27.52 220.2C28.36 218.38 29.71 215.51 30.54 213.81C31.37 212.12 32.74 209.36 33.58 207.68C34.44 206.01 35.81 203.3 36.66 201.67C37.5 200.05 38.99 197.19 39.97 195.33C40.96 193.47 42.65 190.29 43.74 188.28C44.82 186.27 46.65 182.9 47.82 180.8C48.98 178.7 49.96 176.96 50.01 176.94C50.05 176.92 50.13 176.92 50.19 176.95ZM49.38 197.06C49.32 196.97 49.29 196.98 49.17 197.17C49.1 197.3 48.38 198.61 47.58 200.06C46.78 201.52 45.41 204.03 44.55 205.64C43.67 207.24 42.33 209.79 41.54 211.3C40.75 212.8 39.57 215.09 38.91 216.39C38.25 217.68 37.21 219.76 36.6 221C35.99 222.24 34.89 224.56 34.16 226.14C33.41 227.74 32.5 229.79 32.11 230.72C31.72 231.64 31.19 232.95 30.95 233.62C30.7 234.29 30.37 235.26 30.22 235.77C30.07 236.29 29.87 237.12 29.8 237.63C29.71 238.13 29.63 238.92 29.61 239.39C29.59 239.87 29.6 240.67 29.62 241.18C29.65 241.73 29.76 242.55 29.9 243.21C30.02 243.82 30.25 244.69 30.39 245.14C30.53 245.58 30.82 246.35 31.03 246.85C31.25 247.36 31.63 248.11 31.86 248.55C32.1 248.98 32.64 249.81 33.05 250.39C33.46 250.98 34.22 251.92 34.73 252.46C35.23 253.01 36 253.77 36.43 254.15C36.86 254.52 37.6 255.09 38.06 255.41C38.53 255.74 39.21 256.17 39.56 256.37C39.93 256.58 40.61 256.92 41.09 257.14C41.57 257.35 42.32 257.64 42.77 257.78C43.21 257.92 43.9 258.11 44.31 258.2C44.72 258.29 45.39 258.39 45.79 258.43C46.2 258.47 46.93 258.49 47.41 258.47C47.9 258.46 48.69 258.39 49.16 258.32C49.61 258.24 50.36 258.08 50.8 257.96C51.23 257.85 51.95 257.62 52.39 257.46C52.83 257.29 53.55 256.99 53.98 256.78C54.41 256.58 55.17 256.17 55.66 255.88C56.15 255.58 56.98 255.03 57.5 254.64C58.03 254.25 58.82 253.6 59.27 253.18C59.72 252.76 60.35 252.12 60.69 251.75C61.03 251.38 61.64 250.62 62.04 250.06C62.44 249.51 62.96 248.74 63.18 248.36C63.41 247.96 63.78 247.24 64.01 246.74C64.24 246.23 64.61 245.26 64.82 244.57C65.03 243.88 65.25 242.97 65.33 242.54C65.39 242.11 65.47 241.39 65.5 240.94C65.52 240.49 65.52 239.73 65.49 239.24C65.46 238.75 65.37 237.98 65.3 237.51C65.22 237.04 65 235.99 64.8 235.17C64.61 234.35 64.27 233.1 64.06 232.37C63.85 231.66 63.42 230.3 63.1 229.35C62.79 228.39 62.17 226.64 61.73 225.45C61.29 224.26 60.5 222.2 59.98 220.89C59.45 219.57 58.3 216.79 57.42 214.71C56.53 212.63 55.25 209.69 54.56 208.16C53.88 206.64 52.73 204.12 52 202.58C51.29 201.04 50.42 199.19 50.07 198.47C49.73 197.76 49.42 197.12 49.38 197.06ZM151.73 176.51C151.82 176.65 152.13 177.25 152.42 177.83C152.7 178.42 153.3 179.75 153.74 180.8C154.19 181.86 154.8 183.41 155.09 184.24C155.39 185.08 155.8 186.34 156.01 187.02C156.31 188.05 156.36 188.32 156.3 188.45C156.25 188.53 148.14 195.9 138.25 204.81C128.37 213.73 117.64 223.41 114.4 226.32L108.51 231.61C107.29 231.11 106.56 230.81 106.12 230.61C105.68 230.42 104.76 229.98 104.06 229.64C103.37 229.3 102.19 228.69 101.45 228.28C100.71 227.88 99.59 227.23 98.96 226.85C98.35 226.47 97.63 226.03 97.39 225.87C97.14 225.7 96.93 225.53 96.92 225.49C96.92 225.44 109.15 214.37 124.1 200.88C139.06 187.4 151.35 176.34 151.43 176.31C151.51 176.27 151.61 176.33 151.73 176.51ZM158.27 203.16C158.3 203.22 158.31 203.63 158.29 204.07C158.27 204.52 158.22 205.37 158.16 205.96C158.12 206.55 157.98 207.65 157.86 208.39C157.75 209.13 157.53 210.35 157.36 211.1C157.19 211.84 156.86 213.09 156.63 213.85C156.38 214.61 155.96 215.79 155.69 216.46C155.42 217.14 155 218.08 154.75 218.56C154.52 219.04 154.05 219.9 153.72 220.46C153.39 221.04 152.82 221.93 152.46 222.45L151.79 223.41C152.39 223.84 152.78 224.19 153.05 224.48C153.31 224.77 153.99 225.65 154.56 226.44C155.15 227.24 156.01 228.52 156.49 229.28C156.96 230.05 157.68 231.23 158.07 231.91C158.46 232.6 159.17 233.84 159.62 234.69C160.08 235.52 160.98 237.19 161.61 238.4C162.24 239.61 163.24 241.59 163.83 242.8C164.43 244.01 165.35 245.93 165.88 247.07C166.41 248.19 166.84 249.17 166.84 249.25C166.84 249.31 166.79 249.38 166.74 249.39C166.68 249.4 164.92 248.05 162.82 246.4C160.72 244.74 157.58 242.27 155.84 240.89C154.11 239.5 151.74 237.63 150.6 236.72C149.46 235.8 147.64 234.33 146.55 233.45C144.87 232.07 144.55 231.77 144.21 231.26C143.99 230.93 143.79 230.67 143.75 230.68C143.71 230.68 143.01 231.04 142.18 231.47C141.35 231.91 140.1 232.49 139.4 232.76C138.69 233.04 137.58 233.42 136.92 233.63C136.27 233.83 135.09 234.14 134.32 234.31C133.51 234.49 132.25 234.72 131.4 234.82C130.58 234.92 129.48 235.03 128.98 235.06C128.47 235.1 127.51 235.13 126.87 235.15C126.21 235.16 125.2 235.14 124.61 235.12C124.03 235.09 123.4 235.06 123.22 235.04C123.03 235.03 122.9 234.97 122.88 234.89C122.87 234.82 129.92 228.4 140.42 218.94C150.08 210.22 158.03 203.09 158.1 203.08C158.15 203.07 158.24 203.11 158.27 203.16Z" />
	<path id="Hun and Bun " class="shp1" d="M328.59 233.37L222.49 233.37L239.16 154.97L222.25 154.97L186.81 322.81L203.71 322.81L220.38 243.93L326.48 243.93L309.81 322.81L325.07 322.81L360.52 154.97L345.26 154.97L328.59 233.37ZM401.13 201.21L385.17 201.21L368.97 276.56C361.46 314.12 375.78 326.8 396.91 326.8C420.14 326.8 439.63 316.24 450.66 297.46L446.67 322.81L460.76 322.81L486.58 201.21L471.32 201.21L455.59 274.92C449.96 300.51 423.9 316.24 402.77 316.24C382.12 316.24 379.53 302.85 384.46 278.68L401.13 201.21ZM580.24 322.81L595.26 322.81L610.76 249.33C618.27 214.36 606.53 197.69 584.23 197.69C565.22 197.69 540.1 210.6 530.94 225.39L534.7 201.21L520.85 201.21L495.03 322.81L510.52 322.81L526.95 245.11C530.71 226.33 553.48 209.43 574.61 209.43C594.33 209.43 601.13 223.28 596.2 247.69L580.24 322.81Z" />
	<path id="Hun and Bun " class="shp2" d="" />
	<path id="Hun and Bun " fill-rule="evenodd" class="shp3" d="M786.58 322.57L774.38 322.57L776.96 297.93C773.2 306.38 751.37 326.56 726.96 326.56C696.67 326.56 691.51 301.92 699.73 262.24C709.12 218.11 730.01 197.45 770.38 197.45C788.46 197.45 797.85 205.67 810.53 208.25L786.58 322.57ZM782.36 270.23L793.39 217.88C784.23 212.48 778.13 209.66 766.63 209.66C730.71 209.66 720.38 237.6 714.75 262.24C709.59 286.89 705.59 316.24 729.07 316.24C758.41 316.24 778.6 287.83 782.36 270.23ZM920.62 247.69C925.55 223.28 918.74 209.43 899.02 209.43C877.9 209.43 855.13 226.33 851.37 245.11L834.94 322.81L819.45 322.81L845.27 201.21L859.12 201.21L855.36 225.39C864.52 210.6 889.63 197.69 908.65 197.69C930.95 197.69 942.69 214.36 935.18 249.33L919.68 322.81L904.66 322.81L920.62 247.69ZM990.34 325.63C964.75 325.63 947.38 309.43 957.24 261.54C967.34 214.59 993.86 196.75 1019.21 196.75C1027.43 196.75 1041.28 198.86 1056.54 205.2L1071.09 136.66L1086.82 136.66L1047.15 323.75L1032.36 323.75C1033.06 320.46 1032.59 319.05 1034.94 306.85C1025.55 317.88 1010.06 325.63 990.34 325.63ZM1053.96 217.64C1046.44 213.89 1028.6 207.55 1016.87 207.55C983.53 207.55 975.79 250.04 972.97 261.3C968.51 281.26 964.99 315.3 992.45 315.3C1020.62 315.3 1036.12 299.57 1042.45 270.69L1053.96 217.64Z" />
	<path id="Hun and Bun " fill-rule="evenodd" class="shp0" d="M1235.88 155.2C1282.13 155.2 1293.63 173.51 1288.47 196.28C1284.24 216.47 1267.34 227.5 1247.15 230.08C1273.44 234.54 1293.4 248.39 1287.29 277.03C1281.66 302.39 1263.82 327.03 1208.89 325.86C1166.63 325.16 1152.08 323.75 1146.68 323.04C1158.89 265.77 1169.69 212.48 1181.89 155.2L1235.88 155.2ZM1219.45 226.09C1251.38 226.09 1266.4 217.64 1270.86 196.28C1274.85 177.27 1265.23 165.29 1234.01 165.29L1195.04 165.29L1182.13 226.09L1219.45 226.09ZM1163.35 315.06L1198.09 316.7C1248.09 317.88 1263.58 300.74 1269.22 275.15C1274.15 250.74 1257.25 236.66 1227.9 236.66L1180.01 236.66L1163.35 315.06ZM1328.84 278.68C1323.91 302.85 1326.5 316.24 1347.15 316.24C1368.28 316.24 1394.34 300.51 1399.97 274.92L1415.7 201.21L1430.96 201.21L1405.14 322.81L1391.05 322.81L1395.04 297.46C1384.01 316.24 1364.52 326.8 1341.28 326.8C1320.16 326.8 1305.84 314.12 1313.35 276.56L1329.55 201.21L1345.51 201.21L1328.84 278.68ZM1540.58 247.69C1545.51 223.28 1538.71 209.43 1518.99 209.43C1497.86 209.43 1475.09 226.33 1471.33 245.11L1454.9 322.81L1439.41 322.81L1465.23 201.21L1479.08 201.21L1475.32 225.39C1484.48 210.6 1509.6 197.69 1528.61 197.69C1550.91 197.69 1562.65 214.36 1555.14 249.33L1539.64 322.81L1524.62 322.81L1540.58 247.69Z" />
</svg>