<svg version="1.2" baseProfile="tiny-ps" xmlns="http://www.w3.org/2000/svg" viewBox="0 0 1750 405" width="164" height="38">
	<title>hun&amp;bun_priv_server-wordmark</title>
	<style>
		tspan { white-space:pre }
		.shp0 { fill: #74dea9 } 
		.shp1 { fill: #fff773 } 
		.shp2 { fill: #000000 } 
		.shp3 { fill: #ffffff } 
	</style>
	<path id="Leaf" class="shp0" d="M1750 115.57C1749.99 115.89 1748.98 118.16 1747.75 120.63C1746.53 123.09 1744.23 129.5 1742.64 134.87C1741.06 140.24 1739.96 144.82 1740.21 145.04C1740.45 145.26 1741.5 145.3 1742.56 145.14C1743.6 144.97 1744.65 145.02 1744.9 145.25C1745.14 145.47 1744.96 146.86 1744.49 148.33C1744.02 149.79 1742.68 152.7 1741.52 154.77C1740.37 156.85 1737.82 160.57 1735.88 163.03C1732.63 167.16 1732.42 167.59 1733.31 168.25C1733.85 168.64 1734.84 169.35 1735.49 169.83C1736.49 170.55 1736.54 170.99 1735.79 172.31C1735.29 173.19 1732.89 176.13 1730.47 178.84C1728.05 181.55 1724.79 184.8 1723.24 186.07C1721.68 187.34 1719.46 189.09 1716.18 191.55L1718.16 193.09C1719.25 193.94 1720.16 194.83 1720.18 195.07C1720.19 195.31 1718.53 196.72 1716.48 198.2C1714.44 199.7 1710.61 202.07 1707.99 203.47C1705.36 204.89 1701.49 206.76 1699.39 207.65C1697.3 208.53 1695.51 209.55 1695.4 209.9C1695.31 210.26 1695.67 210.97 1696.22 211.46C1696.76 211.97 1697.33 212.85 1697.49 213.42C1697.73 214.31 1697.35 214.6 1694.73 215.57C1693.05 216.17 1689.03 217.18 1685.79 217.79C1682.54 218.41 1677.52 219.1 1674.63 219.34C1669.81 219.73 1669.4 219.87 1669.75 221.01C1669.97 221.69 1670.25 222.92 1670.39 223.72C1670.63 224.96 1670.44 225.27 1669.13 225.82C1668.28 226.17 1665.43 226.36 1662.78 226.24C1660.14 226.12 1655.6 225.63 1652.7 225.14C1649.79 224.64 1645.65 223.67 1643.5 222.96C1641.34 222.26 1637.5 220.66 1634.96 219.41C1632.4 218.16 1628.69 215.91 1626.69 214.42C1624.5 212.77 1621.87 210.22 1620.01 207.93C1618.31 205.86 1616.86 203.94 1616.77 203.68C1616.67 203.41 1619.85 201.86 1623.83 200.23C1627.81 198.6 1634.53 195.68 1638.77 193.71C1643 191.75 1648.8 188.99 1651.66 187.57C1654.52 186.15 1660.03 183.3 1663.9 181.24C1667.78 179.18 1674.45 175.38 1678.75 172.81C1683.04 170.23 1689.43 166.19 1692.96 163.8C1696.48 161.42 1702.32 157.23 1705.93 154.48C1709.53 151.72 1713.73 148.41 1715.24 147.11C1717.33 145.33 1717.81 144.71 1717.18 144.6C1716.73 144.53 1716.03 144.81 1715.65 145.24C1715.25 145.66 1711.12 148.58 1706.46 151.71C1701.8 154.84 1694.76 159.4 1690.79 161.84C1686.84 164.27 1680.24 168.14 1676.14 170.44C1672.04 172.74 1666.26 175.89 1663.29 177.44C1660.33 178.98 1654.45 181.86 1650.23 183.83C1646.01 185.81 1638.05 189.35 1632.53 191.7C1627.01 194.05 1619.87 197.24 1616.66 198.79C1613.44 200.34 1608.13 203.18 1604.84 205.1C1601.55 207.02 1597.13 209.85 1595.01 211.39C1592.83 212.96 1591.05 213.91 1590.92 213.56C1590.76 213.15 1593.65 209.86 1599.14 204.18C1604.69 198.45 1608 194.66 1608.75 193.22C1609.38 192 1609.96 190.16 1610.05 189.12C1610.14 188.09 1609.82 186.15 1609.34 184.82C1608.87 183.49 1608.35 181.38 1608.2 180.12C1608.05 178.87 1607.81 175.68 1607.67 173.02C1607.52 170.37 1607.46 167.74 1607.53 167.16C1607.61 166.59 1607.99 164.06 1608.38 161.53C1608.75 159.01 1609.58 155.21 1610.2 153.09C1610.81 150.97 1612.36 147.26 1613.64 144.85C1614.92 142.44 1616.6 139.76 1618.79 137.35L1622.8 142.36L1623.62 140.8C1624.08 139.94 1625.84 137.04 1627.55 134.35C1629.26 131.65 1632.9 126.93 1635.66 123.85C1638.42 120.78 1641.05 118.14 1641.51 118C1642.14 117.81 1642.54 118.42 1643.11 120.47C1643.53 121.97 1644.08 123.38 1644.32 123.61C1644.57 123.83 1645.37 123.37 1646.11 122.6C1646.85 121.81 1648.37 120.36 1649.48 119.37C1650.61 118.38 1653.29 116.43 1655.45 115.05C1657.62 113.67 1661.45 111.56 1663.95 110.36C1666.46 109.17 1668.71 108.37 1668.95 108.59C1669.19 108.82 1669.43 109.97 1669.47 111.14C1669.52 112.33 1669.71 113.42 1669.89 113.58C1670.08 113.74 1670.69 113.64 1671.23 113.36C1671.77 113.07 1674.42 111.91 1677.1 110.77C1679.78 109.63 1683.89 108.26 1686.23 107.7C1688.57 107.15 1692.14 106.56 1697.86 106.09L1697.72 108.58C1697.63 109.96 1697.66 111.18 1697.76 111.32C1697.87 111.44 1700.09 111.01 1702.7 110.34C1705.31 109.68 1710.61 108.99 1714.47 108.82C1718.49 108.64 1721.87 108.85 1722.37 109.3C1722.89 109.78 1723.01 110.73 1722.67 111.62C1722.37 112.45 1722.31 113.31 1722.56 113.54C1722.8 113.76 1723.68 113.74 1724.51 113.49C1725.34 113.24 1727.79 112.82 1729.95 112.55C1732.12 112.29 1735.81 112.21 1738.16 112.39C1740.5 112.56 1744.12 113.22 1746.22 113.85C1748.31 114.48 1750.02 115.26 1750 115.57ZM1633.56 61.99C1634.24 63.08 1635.32 65.11 1635.94 66.52C1636.56 67.92 1637.42 70.79 1637.84 72.91C1638.26 75.02 1638.62 77.55 1638.62 78.52C1638.63 79.5 1638.89 80.52 1639.21 80.79C1639.52 81.06 1640.05 80.98 1640.38 80.61C1640.72 80.24 1641.38 80.11 1641.85 80.33C1642.34 80.54 1643.17 82.12 1643.71 83.84C1644.25 85.56 1644.92 89.84 1645.22 93.34C1645.71 99.22 1645.84 99.67 1647 99.23C1647.7 98.96 1648.69 99.15 1649.26 99.66C1649.88 100.25 1650.35 102.65 1650.52 106.31C1650.8 111.98 1650.79 112.06 1648.59 114.48C1647.37 115.84 1646.09 116.95 1645.73 116.95C1645.38 116.95 1644.7 115.68 1644.2 114.13C1643.71 112.58 1642.94 111.25 1642.49 111.17C1641.87 111.06 1639.92 113.1 1634.89 119.08C1631.15 123.51 1626.95 129.01 1625.53 131.3C1624.11 133.58 1622.64 135.8 1622.25 136.23C1621.64 136.93 1621.31 136.72 1617.62 132.23L1616.34 134.3C1615.62 135.44 1613.97 138.51 1612.67 141.13C1611.37 143.74 1609.65 148.03 1608.86 150.65C1608.05 153.27 1607.17 157.23 1606.9 159.44C1606.63 161.65 1606.68 166.45 1607.02 170.11C1607.35 173.77 1607.87 177.63 1608.17 178.68C1608.48 179.73 1608.54 180.98 1608.33 181.47C1608.12 181.95 1606.53 182.49 1604.78 182.7C1603.03 182.89 1601.24 183.46 1600.8 183.95C1600.35 184.44 1598.36 187.83 1596.36 191.5C1594.38 195.16 1591.95 199.36 1590.95 200.8C1589.96 202.25 1589.01 203.3 1588.82 203.13C1588.64 202.96 1589.29 200.16 1590.26 196.92C1591.23 193.66 1592.63 188.27 1593.38 184.92C1594.12 181.57 1595.01 177.07 1595.35 174.93C1595.7 172.79 1596.64 166.7 1597.45 161.41C1598.26 156.11 1599.98 147.06 1601.25 141.29C1602.52 135.52 1604.91 126.18 1606.55 120.52C1608.19 114.86 1610.76 106.78 1612.26 102.56C1613.77 98.34 1615.01 94.72 1615.03 94.51C1615.05 94.31 1614.86 94.14 1614.62 94.15C1614.38 94.15 1613.31 96.09 1612.23 98.47C1611.16 100.85 1609.31 105.37 1608.1 108.53C1606.9 111.68 1604.67 118.24 1603.14 123.11C1601.61 127.97 1599.4 136.01 1598.23 140.99C1597.07 145.96 1595.47 153.47 1594.7 157.68C1593.91 161.88 1592.76 168.7 1592.14 172.83C1591.53 176.96 1590.76 180.33 1590.44 180.33C1590.12 180.33 1588.56 179.76 1586.96 179.05C1585.37 178.35 1582.47 176.52 1580.49 175C1578.44 173.4 1575.63 170.61 1573.88 168.43C1572.21 166.34 1569.76 162.6 1568.45 160.11C1567.13 157.63 1565.33 153.28 1564.43 150.46C1563.54 147.63 1562.94 144.88 1563.09 144.34C1563.27 143.71 1564.11 143.32 1567.67 143.11L1567.21 140.94C1566.97 139.74 1566.54 136.59 1566.26 133.95C1565.98 131.3 1565.83 127.32 1565.92 125.11C1566.01 122.89 1566.34 120.95 1566.65 120.78C1566.97 120.63 1567.85 120.69 1568.6 120.93C1569.36 121.18 1570.11 121.22 1570.28 121.04C1570.45 120.85 1570.96 118.4 1571.42 115.58C1571.89 112.76 1573.07 108.08 1574.05 105.17C1575.04 102.27 1576.15 99.72 1576.53 99.5C1576.91 99.29 1577.72 99.57 1578.34 100.13C1578.95 100.68 1579.74 100.95 1580.09 100.72C1580.45 100.48 1581.24 99.01 1581.86 97.44C1582.47 95.88 1583.91 92.99 1585.06 91.01C1586.21 89.04 1588.27 86.07 1592.13 81.4L1595.38 84.97L1596.58 82.9C1597.24 81.77 1599.52 78.96 1601.65 76.65C1603.79 74.35 1606.3 71.93 1607.24 71.27C1608.17 70.61 1609.15 70.13 1609.41 70.21C1609.69 70.29 1610.13 71.1 1610.41 72.03C1610.68 72.95 1611.04 73.73 1611.19 73.76C1611.35 73.78 1613.44 72.68 1615.84 71.28C1618.24 69.9 1622.12 67.48 1624.46 65.91C1626.79 64.36 1629.28 62.39 1629.98 61.53C1630.68 60.68 1631.49 59.99 1631.78 60C1632.07 60.01 1632.87 60.91 1633.56 61.99Z" />
	<path id="Bee" fill-rule="evenodd" class="shp1" d="M120.65 89.69C121.12 89.7 121.76 89.74 122.06 89.77C122.37 89.79 122.96 89.9 123.37 89.98C123.78 90.07 124.46 90.24 124.88 90.38C125.29 90.51 126.05 90.81 126.56 91.03C127.19 91.32 127.87 91.73 128.77 92.39C129.72 93.08 130.28 93.55 130.82 94.15C131.23 94.6 131.76 95.22 131.98 95.54C132.21 95.85 132.59 96.46 132.83 96.89C133.08 97.32 133.41 98.02 133.6 98.46C133.78 98.9 134.03 99.62 134.15 100.07C134.3 100.59 134.45 101.34 134.53 102.13C134.61 102.84 134.66 103.76 134.64 104.24C134.62 104.71 134.53 105.56 134.44 106.14C134.34 106.72 134.14 107.59 133.98 108.08C133.82 108.57 133.53 109.32 133.33 109.75C133.13 110.17 132.74 110.89 132.46 111.34C132.18 111.78 131.69 112.45 131.38 112.82C131.06 113.19 130.49 113.78 130.11 114.14C129.72 114.49 129.13 114.98 128.8 115.21C128.46 115.46 127.92 115.81 127.61 116C127.28 116.19 126.64 116.51 126.18 116.7C125.73 116.91 124.97 117.18 124.5 117.32C124.04 117.46 123.25 117.64 122.76 117.73C122.27 117.8 121.44 117.88 120.92 117.89C120.4 117.9 119.58 117.88 119.11 117.84C118.63 117.79 117.89 117.68 117.45 117.58C117.02 117.49 116.32 117.29 115.89 117.14C115.47 117 114.76 116.7 114.31 116.49C113.81 116.26 112.98 115.74 112.23 115.21C111.31 114.54 110.77 114.07 110.22 113.48C109.81 113.03 109.26 112.37 109 112C108.74 111.64 108.29 110.91 108.03 110.41C107.76 109.91 107.4 109.15 107.25 108.73C107.05 108.22 106.86 107.5 106.66 106.49C106.45 105.33 106.38 104.8 106.37 104.03C106.36 103.49 106.42 102.61 106.49 102.06C106.55 101.52 106.71 100.68 106.82 100.22C106.95 99.76 107.19 99.03 107.36 98.61C107.53 98.19 107.84 97.52 108.03 97.14C108.23 96.77 108.68 96.05 109.03 95.58C109.36 95.1 109.96 94.39 110.34 94C110.72 93.61 111.38 93.03 111.79 92.7C112.2 92.37 112.86 91.92 113.24 91.7C113.63 91.47 114.24 91.14 114.61 90.98C114.98 90.8 115.67 90.53 116.14 90.38C116.67 90.22 117.5 90.04 118.39 89.9C119.36 89.75 120.06 89.68 120.65 89.69ZM120.33 96.19C120.1 96.19 119.51 96.27 119.04 96.36C118.55 96.47 117.9 96.65 117.54 96.81C117.19 96.96 116.56 97.33 116.14 97.63C115.71 97.94 115.16 98.41 114.87 98.74C114.6 99.06 114.2 99.62 113.98 99.98C113.78 100.34 113.49 100.93 113.37 101.3C113.25 101.68 113.1 102.27 113.05 102.63C112.99 102.99 112.95 103.64 112.96 104.08C112.98 104.54 113.05 105.15 113.14 105.5C113.22 105.84 113.42 106.42 113.58 106.79C113.73 107.17 114.08 107.77 114.34 108.15C114.61 108.53 115.09 109.09 115.41 109.39C115.72 109.69 116.32 110.12 116.73 110.35C117.16 110.6 117.85 110.89 118.37 111.04C118.85 111.19 119.51 111.34 119.82 111.37C120.25 111.42 120.68 111.39 121.74 111.21C123.06 111.01 123.14 110.98 123.86 110.6C124.26 110.39 124.89 109.99 125.24 109.71C125.6 109.41 126.11 108.9 126.42 108.48C126.73 108.07 127.12 107.5 127.27 107.19C127.42 106.89 127.64 106.3 127.76 105.89C127.89 105.47 128.01 104.79 128.05 104.35C128.09 103.79 128.06 103.32 127.95 102.63C127.86 102.07 127.71 101.44 127.57 101.1C127.45 100.79 127.18 100.25 127 99.91C126.8 99.59 126.41 99.05 126.11 98.72C125.81 98.4 125.28 97.92 124.94 97.67C124.59 97.42 124.05 97.08 123.72 96.93C123.39 96.78 122.84 96.58 122.5 96.48C122.15 96.39 121.63 96.29 121.32 96.25C121.01 96.21 120.57 96.19 120.33 96.19ZM215.89 84.15C216.4 84.14 217.2 84.14 217.67 84.16C218.14 84.18 219.02 84.26 219.61 84.33C220.21 84.41 221.12 84.56 221.66 84.68C222.19 84.79 223.16 85.05 223.81 85.26C224.46 85.47 225.38 85.79 225.84 85.99C226.3 86.18 227.08 86.54 227.59 86.79C228.1 87.04 228.91 87.48 229.4 87.78C229.89 88.07 230.89 88.74 231.6 89.25C232.31 89.78 233.38 90.64 233.97 91.17C234.57 91.71 235.48 92.61 236 93.19C236.52 93.76 237.17 94.49 237.43 94.83C237.7 95.15 238.13 95.73 238.4 96.11C238.67 96.48 239.15 97.22 239.47 97.72C239.79 98.24 240.29 99.13 240.59 99.71C240.89 100.29 241.33 101.22 241.57 101.76C241.79 102.31 242.15 103.25 242.35 103.85C242.67 104.8 242.76 105.25 243.09 107.3C243.39 109.18 243.46 109.83 243.45 110.51C243.44 110.98 243.41 111.73 243.36 112.18C243.32 112.63 243.21 113.46 243.11 114.02C243.01 114.59 242.81 115.48 242.67 116C242.53 116.53 242.24 117.41 242.04 117.95C241.83 118.49 241.47 119.36 241.23 119.86C241 120.37 240.6 121.14 240.36 121.57C240.12 122.01 239.61 122.85 239.23 123.44C238.85 124.03 238.19 124.96 237.76 125.49C237.32 126.03 236.67 126.81 236.29 127.23C235.92 127.64 235.27 128.3 234.87 128.71C234.47 129.1 233.74 129.77 233.24 130.19C232.74 130.6 231.96 131.22 231.51 131.56C231.05 131.89 230.31 132.4 229.86 132.69C229.42 132.97 228.59 133.46 228.04 133.77C227.48 134.08 226.48 134.56 225.83 134.84C225.18 135.13 224.11 135.55 223.48 135.76C222.83 135.98 221.73 136.29 221.04 136.46C220.28 136.63 219.3 136.81 218.6 136.89C217.96 136.96 216.99 137.04 216.46 137.05C215.92 137.06 215.04 137.06 214.5 137.02C213.96 136.99 212.99 136.88 212.34 136.76C211.69 136.66 210.74 136.46 210.24 136.33C209.72 136.2 208.64 135.88 207.83 135.62C207.01 135.36 205.72 134.91 204.95 134.62C204.18 134.33 202.89 133.82 202.09 133.49C201.3 133.16 199.51 132.37 198.12 131.74C196.74 131.11 194.69 130.17 193.59 129.62C192.47 129.08 190.73 128.22 189.71 127.7C188.7 127.19 186.62 126.1 185.08 125.3C183.55 124.49 181.48 123.38 180.49 122.84C179.49 122.3 177.58 121.25 176.25 120.51C174.92 119.76 172.42 118.34 170.7 117.36C168.97 116.37 166.72 115.06 165.69 114.46C164.66 113.85 162.55 112.6 161.01 111.67C159.45 110.75 157.02 109.27 155.57 108.39C154.14 107.51 152.97 106.74 152.98 106.69C152.98 106.62 153.97 106.15 155.41 105.54C156.74 104.97 159.47 103.82 161.49 102.98C163.5 102.13 166.84 100.76 168.9 99.91C170.96 99.07 174.47 97.66 176.71 96.77C178.95 95.88 182.41 94.54 184.39 93.78C186.37 93.02 189.2 91.95 190.67 91.41C192.15 90.86 194.76 89.93 196.46 89.33C198.16 88.74 200.61 87.91 201.9 87.49C203.19 87.08 204.93 86.53 205.78 86.28C206.63 86.03 208.03 85.62 208.91 85.39C209.96 85.11 211.26 84.83 212.73 84.58C214.32 84.29 215.22 84.18 215.89 84.15ZM216.05 92.62C215.45 92.63 214.72 92.73 213.59 92.93C212.71 93.09 211.47 93.36 210.85 93.54C210.22 93.71 209.16 94.02 208.48 94.22C207.82 94.42 206.6 94.81 205.78 95.08C204.96 95.34 203.58 95.81 202.72 96.11C201.86 96.42 200.05 97.07 198.7 97.56C197.36 98.06 195.16 98.89 193.82 99.41C192.48 99.92 190.41 100.73 189.22 101.2C188.04 101.67 185.75 102.58 184.15 103.24C182.56 103.89 179.4 105.2 177.14 106.14C174.89 107.09 173.03 107.89 173.01 107.91C172.99 107.93 173.11 108.04 173.27 108.13C173.43 108.23 174.61 108.96 175.91 109.73C177.19 110.52 179.4 111.84 180.83 112.68C182.24 113.52 184.72 114.95 186.33 115.87C187.96 116.79 190.12 118 191.14 118.56C192.16 119.12 193.91 120.06 195.04 120.66C196.16 121.25 198.06 122.22 199.25 122.81C200.44 123.41 202.37 124.33 203.52 124.86C204.68 125.38 206.34 126.1 207.21 126.45C208.09 126.8 209.43 127.3 210.19 127.55C210.96 127.81 212.04 128.11 212.6 128.24C213.15 128.36 213.92 128.49 214.29 128.52C214.68 128.56 215.32 128.59 215.71 128.6C216.11 128.61 216.95 128.56 217.6 128.48C218.26 128.41 219.18 128.24 219.71 128.11C220.22 127.97 221 127.72 221.44 127.56C221.88 127.39 222.6 127.09 223.04 126.88C223.47 126.67 224.23 126.27 224.71 125.97C225.21 125.68 226 125.15 226.48 124.79C226.96 124.43 227.77 123.76 228.27 123.29C228.79 122.81 229.51 122.08 229.88 121.65C230.26 121.22 230.91 120.38 231.33 119.78C231.75 119.18 232.32 118.24 232.61 117.7C232.89 117.15 233.3 116.27 233.5 115.73C233.71 115.2 233.99 114.28 234.13 113.69C234.26 113.11 234.4 112.23 234.44 111.73C234.49 111.23 234.5 110.5 234.49 110.11C234.48 109.71 234.39 108.93 234.31 108.36C234.21 107.78 234.02 106.94 233.88 106.47C233.74 106 233.49 105.28 233.33 104.88C233.17 104.48 232.86 103.79 232.65 103.37C232.44 102.96 232.01 102.21 231.7 101.72C231.39 101.23 230.88 100.49 230.55 100.08C230.22 99.67 229.72 99.08 229.44 98.77C229.15 98.47 228.63 97.94 228.26 97.6C227.91 97.26 227.21 96.69 226.74 96.33C226.26 95.96 225.47 95.43 224.98 95.14C224.49 94.84 223.65 94.39 223.13 94.15C222.6 93.91 221.74 93.58 221.23 93.41C220.71 93.25 219.91 93.05 219.46 92.95C219 92.86 218.23 92.75 217.76 92.7C217.28 92.65 216.51 92.61 216.05 92.62ZM95.49 112.17C95.89 112.18 96.53 112.21 96.9 112.23C97.28 112.27 97.88 112.36 98.25 112.42C98.61 112.49 99.26 112.65 99.7 112.78C100.14 112.91 100.94 113.21 101.46 113.45C102 113.7 102.77 114.11 103.19 114.37C103.6 114.63 104.25 115.11 104.63 115.43C105.01 115.75 105.61 116.32 105.95 116.69C106.3 117.07 106.83 117.72 107.13 118.14C107.42 118.55 107.86 119.27 108.1 119.72C108.33 120.17 108.68 120.92 108.86 121.38C109.14 122.11 109.22 122.47 109.48 124.04C109.74 125.65 109.77 125.97 109.72 126.8C109.69 127.33 109.59 128.19 109.49 128.73C109.4 129.27 109.23 130.01 109.12 130.37C109.01 130.72 108.82 131.26 108.7 131.56C108.59 131.85 108.32 132.41 108.13 132.79C107.93 133.18 107.53 133.85 107.22 134.28C106.91 134.72 106.41 135.36 106.11 135.69C105.82 136.02 105.26 136.58 104.87 136.91C104.48 137.25 103.88 137.72 103.54 137.95C103.21 138.17 102.62 138.53 102.23 138.74C101.84 138.95 101.07 139.29 100.53 139.5C99.64 139.85 99.34 139.91 97.87 140.16C96.61 140.35 96.01 140.42 95.36 140.4C94.9 140.39 94.14 140.33 93.69 140.27C93.23 140.21 92.48 140.06 92.02 139.94C91.55 139.82 90.85 139.59 90.45 139.44C90.05 139.29 89.41 138.99 89.01 138.79C88.62 138.58 87.94 138.18 87.52 137.88C87.09 137.59 86.51 137.14 86.22 136.88C85.94 136.62 85.44 136.13 85.12 135.78C84.8 135.43 84.3 134.81 84.01 134.38C83.71 133.96 83.27 133.23 83.02 132.76C82.78 132.29 82.43 131.5 82.26 131.01C81.98 130.28 81.88 129.86 81.67 128.52C81.49 127.36 81.42 126.68 81.43 126.14C81.45 125.71 81.51 124.97 81.57 124.48C81.64 123.99 81.78 123.23 81.89 122.78C82.01 122.32 82.23 121.62 82.38 121.23C82.53 120.83 82.86 120.13 83.1 119.67C83.35 119.22 83.77 118.51 84.06 118.13C84.34 117.73 84.8 117.16 85.07 116.85C85.35 116.54 85.81 116.08 86.1 115.81C86.38 115.56 86.97 115.09 87.41 114.77C87.85 114.46 88.57 114.02 89 113.8C89.43 113.57 90.15 113.26 90.59 113.08C91.21 112.83 91.73 112.71 93.08 112.47C94.25 112.26 94.99 112.17 95.49 112.17ZM95.47 118.68C95.19 118.68 94.57 118.76 94.09 118.86C93.62 118.95 92.96 119.14 92.63 119.28C92.3 119.43 91.78 119.71 91.46 119.93C91.15 120.13 90.67 120.51 90.41 120.75C90.14 121 89.71 121.51 89.43 121.89C89.17 122.26 88.82 122.87 88.67 123.24C88.51 123.62 88.31 124.22 88.22 124.58C88.14 124.95 88.06 125.54 88.04 125.89C88.02 126.26 88.07 126.92 88.15 127.44C88.23 127.97 88.39 128.63 88.53 129C88.67 129.34 88.95 129.92 89.16 130.25C89.38 130.59 89.71 131.05 89.89 131.27C90.08 131.5 90.56 131.93 90.96 132.24C91.36 132.55 91.94 132.93 92.24 133.08C92.54 133.23 93.13 133.46 93.55 133.57C93.97 133.69 94.58 133.81 94.91 133.85C95.38 133.9 95.8 133.87 96.8 133.7C97.77 133.55 98.2 133.44 98.6 133.26C98.88 133.13 99.38 132.84 99.72 132.61C100.06 132.39 100.56 132 100.82 131.75C101.08 131.5 101.48 131.04 101.72 130.71C101.94 130.39 102.27 129.82 102.45 129.45C102.62 129.07 102.83 128.47 102.92 128.11C103.01 127.74 103.1 127.13 103.13 126.76C103.17 126.25 103.13 125.77 103 125C102.86 124.2 102.75 123.76 102.55 123.32C102.41 122.99 102.12 122.47 101.9 122.15C101.7 121.84 101.34 121.38 101.12 121.14C100.89 120.89 100.47 120.51 100.18 120.27C99.88 120.05 99.37 119.72 99.05 119.54C98.71 119.37 98.1 119.13 97.69 119.02C97.27 118.9 96.71 118.77 96.45 118.74C96.19 118.71 95.75 118.68 95.47 118.68ZM137.97 121.14C138.25 121.11 139.07 121.04 139.81 121C140.55 120.96 141.84 120.92 142.65 120.93C143.47 120.94 144.74 121 145.47 121.05C146.24 121.11 146.81 121.2 146.82 121.25C146.83 121.3 138.63 128.75 128.61 137.8C114.3 150.72 110.37 154.22 110.26 154.16C110.16 154.1 110.15 153.86 110.17 152.89C110.18 152.23 110.24 151.08 110.31 150.32C110.37 149.56 110.52 148.32 110.64 147.55C110.76 146.78 110.97 145.67 111.11 145.06C111.24 144.45 111.53 143.35 111.75 142.62C111.98 141.88 112.32 140.83 112.53 140.29C112.75 139.73 113.13 138.82 113.4 138.24C113.66 137.65 114.15 136.7 114.47 136.12C114.79 135.53 115.63 134.24 116.34 133.26C117.05 132.28 117.97 131.11 118.39 130.65C118.81 130.2 119.63 129.38 120.22 128.84C120.81 128.29 121.88 127.42 122.59 126.91C123.3 126.39 124.37 125.68 124.97 125.32C125.57 124.98 126.42 124.52 126.85 124.3C127.28 124.1 127.99 123.77 128.43 123.58C128.86 123.39 129.6 123.1 130.07 122.93C130.53 122.78 131.34 122.5 131.88 122.34C132.42 122.19 133.41 121.93 134.08 121.78C134.76 121.62 135.79 121.43 136.39 121.34C136.98 121.26 137.7 121.16 137.97 121.14ZM162.33 125.46C163.12 125.8 164.42 126.43 165.22 126.83C166.02 127.24 167.18 127.85 167.8 128.2C168.41 128.56 169.4 129.14 170 129.5C170.59 129.88 171.35 130.36 171.68 130.58C172.01 130.8 172.27 131.03 172.26 131.09C172.25 131.14 171.6 131.78 170.81 132.49C170.01 133.2 159.29 142.88 146.98 153.99C134.68 165.09 123.03 175.6 121.11 177.33C119.19 179.06 117.55 180.49 117.46 180.51C117.32 180.54 117.21 180.36 116.66 179.33C116.31 178.66 115.72 177.46 115.36 176.65C114.99 175.85 114.48 174.63 114.21 173.94C113.94 173.26 113.5 172.11 113.25 171.38C113 170.65 112.69 169.74 112.57 169.34C112.37 168.72 112.35 168.62 112.45 168.5C112.5 168.42 123.39 158.59 136.65 146.63C149.9 134.68 160.76 124.88 160.81 124.86C160.86 124.84 161.53 125.1 162.33 125.46ZM182.77 139.47C183.21 139.9 184.03 140.74 184.6 141.33C185.16 141.92 186.04 142.88 186.56 143.47C187.07 144.07 187.87 145.04 188.34 145.61C188.8 146.19 189.36 146.9 189.59 147.2C189.81 147.49 189.98 147.78 189.97 147.86C189.96 147.93 187.38 150.3 184.25 153.14C181.11 155.97 176.22 160.39 173.38 162.94C170.54 165.51 160.16 174.87 150.31 183.76C140.46 192.65 132.35 199.93 132.27 199.93C132.21 199.94 131.57 199.39 130.86 198.7C130.14 198 129.03 196.87 128.38 196.18C127.74 195.49 126.78 194.42 126.27 193.81C125.75 193.19 125.03 192.31 124.67 191.85C124.32 191.39 124.02 190.97 124.01 190.91C123.99 190.86 136.98 179.1 152.87 164.77C168.75 150.44 181.8 138.71 181.86 138.7C181.92 138.69 182.33 139.04 182.77 139.47ZM95.19 158.95C95.24 158.98 95.83 160.13 96.51 161.53C97.17 162.92 98.35 165.42 99.13 167.08C99.92 168.76 101.02 171.17 101.6 172.43C102.18 173.69 103.22 176 103.92 177.58C104.62 179.14 105.88 182.04 106.72 184.01C107.56 185.97 108.67 188.59 109.18 189.82C109.68 191.04 110.57 193.25 111.16 194.73C111.74 196.2 112.65 198.56 113.18 199.96C113.7 201.38 114.44 203.46 114.83 204.58C115.23 205.72 115.77 207.35 116.05 208.21C116.32 209.08 116.68 210.22 116.84 210.76C117 211.29 117.32 212.41 117.54 213.24C117.77 214.06 118.13 215.63 118.37 216.72C118.69 218.23 118.81 219.02 118.91 220.15C118.99 220.96 119.03 222.13 119.02 222.77C119 223.4 118.93 224.41 118.85 225C118.78 225.6 118.62 226.54 118.5 227.1C118.38 227.65 118.1 228.67 117.87 229.37C117.65 230.05 117.22 231.15 116.92 231.8C116.62 232.46 116.12 233.48 115.8 234.06C115.47 234.65 114.71 235.83 114.1 236.68C113.49 237.54 112.65 238.61 112.23 239.08C111.82 239.56 111.08 240.34 110.58 240.82C110.08 241.31 109.3 242.02 108.84 242.42C108.37 242.81 107.5 243.49 106.89 243.93C106.28 244.38 105.39 244.97 104.89 245.27C104.41 245.57 103.6 246.03 103.1 246.29C102.61 246.55 101.89 246.91 101.49 247.08C101.1 247.26 100.33 247.57 99.78 247.78C99.22 247.98 98.3 248.29 97.72 248.46C97.08 248.65 96.03 248.87 95.06 249.02C94.17 249.17 93.06 249.3 92.59 249.32C92.13 249.34 91.36 249.33 90.9 249.31C90.43 249.3 89.65 249.24 89.17 249.18C88.69 249.12 87.87 248.97 87.33 248.85C86.81 248.73 85.97 248.5 85.48 248.35C84.98 248.19 84.2 247.91 83.72 247.71C83.24 247.52 82.55 247.21 82.16 247.03C81.79 246.84 81.08 246.46 80.59 246.17C80.1 245.89 79.25 245.37 78.71 245C78.16 244.64 77.27 243.97 76.73 243.52C76.18 243.06 75.44 242.42 75.09 242.08C74.72 241.74 74.06 241.07 73.61 240.58C73.16 240.08 72.6 239.45 72.36 239.17C72.13 238.88 71.6 238.17 71.2 237.61C70.79 237.04 70.24 236.21 69.96 235.76C69.69 235.31 69.24 234.51 68.97 233.97C68.69 233.43 68.29 232.58 68.07 232.07C67.86 231.58 67.54 230.74 67.36 230.24C67.19 229.73 66.93 228.87 66.79 228.33C66.62 227.7 66.43 226.66 66.26 225.4C66.1 224.24 66 223.12 66 222.62C66 222.16 66.02 221.41 66.05 220.95C66.07 220.49 66.2 219.47 66.33 218.68C66.45 217.89 66.73 216.66 66.95 215.95C67.16 215.24 67.53 214.13 67.75 213.48C67.99 212.85 68.49 211.52 68.88 210.55C69.27 209.58 69.91 208.04 70.29 207.14C70.68 206.23 71.68 204.01 72.52 202.2C73.36 200.38 74.71 197.51 75.54 195.81C76.37 194.12 77.74 191.36 78.58 189.68C79.44 188.01 80.81 185.3 81.66 183.67C82.5 182.05 83.99 179.19 84.97 177.33C85.96 175.47 87.65 172.29 88.74 170.28C89.82 168.27 91.65 164.9 92.82 162.8C93.98 160.7 94.96 158.96 95.01 158.94C95.05 158.92 95.13 158.92 95.19 158.95ZM94.38 179.06C94.32 178.97 94.29 178.98 94.17 179.17C94.1 179.3 93.38 180.61 92.58 182.06C91.78 183.52 90.41 186.03 89.55 187.64C88.67 189.24 87.33 191.79 86.54 193.3C85.75 194.8 84.57 197.09 83.91 198.39C83.25 199.68 82.21 201.76 81.6 203C80.99 204.24 79.89 206.56 79.16 208.14C78.41 209.74 77.5 211.79 77.11 212.72C76.72 213.64 76.19 214.95 75.95 215.62C75.7 216.29 75.37 217.26 75.22 217.77C75.07 218.29 74.87 219.12 74.8 219.63C74.71 220.13 74.63 220.92 74.61 221.39C74.59 221.87 74.6 222.67 74.62 223.18C74.65 223.73 74.76 224.55 74.9 225.21C75.02 225.82 75.25 226.69 75.39 227.14C75.53 227.58 75.82 228.35 76.03 228.85C76.25 229.36 76.63 230.11 76.86 230.55C77.1 230.98 77.64 231.81 78.05 232.39C78.46 232.98 79.22 233.92 79.73 234.46C80.23 235.01 81 235.77 81.43 236.15C81.86 236.52 82.6 237.09 83.06 237.41C83.53 237.74 84.21 238.17 84.56 238.37C84.93 238.58 85.61 238.92 86.09 239.14C86.57 239.35 87.32 239.64 87.77 239.78C88.21 239.92 88.9 240.11 89.31 240.2C89.72 240.29 90.39 240.39 90.79 240.43C91.2 240.47 91.93 240.49 92.41 240.47C92.9 240.46 93.69 240.39 94.16 240.32C94.61 240.24 95.36 240.08 95.8 239.96C96.23 239.85 96.95 239.62 97.39 239.46C97.83 239.29 98.55 238.99 98.98 238.78C99.41 238.58 100.17 238.17 100.66 237.88C101.15 237.58 101.98 237.03 102.5 236.64C103.03 236.25 103.82 235.6 104.27 235.18C104.72 234.76 105.35 234.12 105.69 233.75C106.03 233.38 106.64 232.62 107.04 232.06C107.44 231.51 107.96 230.74 108.18 230.36C108.41 229.96 108.78 229.24 109.01 228.74C109.24 228.23 109.61 227.26 109.82 226.57C110.03 225.88 110.25 224.97 110.33 224.54C110.39 224.11 110.47 223.39 110.5 222.94C110.52 222.49 110.52 221.73 110.49 221.24C110.46 220.75 110.37 219.98 110.3 219.51C110.22 219.04 110 217.99 109.8 217.17C109.61 216.35 109.27 215.1 109.06 214.37C108.85 213.66 108.42 212.3 108.1 211.35C107.79 210.39 107.17 208.64 106.73 207.45C106.29 206.26 105.5 204.2 104.98 202.89C104.45 201.57 103.3 198.79 102.42 196.71C101.53 194.63 100.25 191.69 99.56 190.16C98.88 188.64 97.73 186.12 97 184.58C96.29 183.04 95.42 181.19 95.07 180.47C94.73 179.76 94.42 179.12 94.38 179.06ZM196.73 158.51C196.82 158.65 197.13 159.25 197.42 159.83C197.7 160.42 198.3 161.75 198.74 162.8C199.19 163.86 199.8 165.41 200.09 166.24C200.39 167.08 200.8 168.34 201.01 169.02C201.31 170.05 201.36 170.32 201.3 170.45C201.25 170.53 193.14 177.9 183.25 186.81C173.37 195.73 162.64 205.41 159.4 208.32L153.51 213.61C152.29 213.11 151.56 212.81 151.12 212.61C150.68 212.42 149.76 211.98 149.06 211.64C148.37 211.3 147.19 210.69 146.45 210.28C145.71 209.88 144.59 209.23 143.96 208.85C143.35 208.47 142.63 208.03 142.39 207.87C142.14 207.7 141.93 207.53 141.92 207.49C141.92 207.44 154.15 196.37 169.1 182.88C184.06 169.4 196.35 158.34 196.43 158.31C196.51 158.27 196.61 158.33 196.73 158.51ZM203.27 185.16C203.3 185.22 203.31 185.63 203.29 186.07C203.27 186.52 203.22 187.37 203.16 187.96C203.12 188.55 202.98 189.65 202.86 190.39C202.75 191.13 202.53 192.35 202.36 193.1C202.19 193.84 201.86 195.09 201.63 195.85C201.38 196.61 200.96 197.79 200.69 198.46C200.42 199.14 200 200.08 199.75 200.56C199.52 201.04 199.05 201.9 198.72 202.46C198.39 203.04 197.82 203.93 197.46 204.45L196.79 205.41C197.39 205.84 197.78 206.19 198.05 206.48C198.31 206.77 198.99 207.65 199.56 208.44C200.15 209.24 201.01 210.52 201.49 211.28C201.96 212.05 202.68 213.23 203.07 213.91C203.46 214.6 204.17 215.84 204.62 216.69C205.08 217.52 205.98 219.19 206.61 220.4C207.24 221.61 208.24 223.59 208.83 224.8C209.43 226.01 210.35 227.93 210.88 229.07C211.41 230.19 211.84 231.17 211.84 231.25C211.84 231.31 211.79 231.38 211.74 231.39C211.68 231.4 209.92 230.05 207.82 228.4C205.72 226.74 202.58 224.27 200.84 222.89C199.11 221.5 196.74 219.63 195.6 218.72C194.46 217.8 192.64 216.33 191.55 215.45C189.87 214.07 189.55 213.77 189.21 213.26C188.99 212.93 188.79 212.67 188.75 212.68C188.71 212.68 188.01 213.04 187.18 213.47C186.35 213.91 185.1 214.49 184.4 214.76C183.69 215.04 182.58 215.42 181.92 215.63C181.27 215.83 180.09 216.14 179.32 216.31C178.51 216.49 177.25 216.72 176.4 216.82C175.58 216.92 174.48 217.03 173.98 217.06C173.47 217.1 172.51 217.13 171.87 217.15C171.21 217.16 170.2 217.14 169.61 217.12C169.03 217.09 168.4 217.06 168.22 217.04C168.03 217.03 167.9 216.97 167.88 216.89C167.87 216.82 174.92 210.4 185.42 200.94C195.08 192.22 203.03 185.09 203.1 185.08C203.15 185.07 203.24 185.11 203.27 185.16Z" />
	<path id="Hun and Bun " class="shp1" d="M390.26 136.97L405.52 136.97L370.07 304.81L354.81 304.81L371.48 225.93L265.38 225.93L248.71 304.81L231.81 304.81L267.25 136.97L284.16 136.97L267.49 215.37L373.59 215.37L390.26 136.97ZM429.46 260.68C424.53 284.85 427.12 298.24 447.77 298.24C468.9 298.24 494.96 282.51 500.59 256.92L516.32 183.21L531.58 183.21L505.76 304.81L491.67 304.81L495.66 279.46C484.63 298.24 465.14 308.8 441.91 308.8C420.78 308.8 406.46 296.12 413.97 258.56L430.17 183.21L446.13 183.21L429.46 260.68ZM641.2 229.69C646.13 205.28 639.33 191.43 619.61 191.43C598.48 191.43 575.71 208.33 571.95 227.11L555.52 304.81L540.03 304.81L565.85 183.21L579.7 183.21L575.94 207.39C585.1 192.6 610.22 179.69 629.23 179.69C651.53 179.69 663.27 196.36 655.76 231.33L640.26 304.81L625.24 304.81L641.2 229.69Z" />
	<path id="Hun and Bun " class="shp2" d="" />
	<path id="Hun and Bun " fill-rule="evenodd" class="shp3" d="M831.58 304.57L819.38 304.57L821.96 279.93C818.2 288.38 796.37 308.56 771.96 308.56C741.67 308.56 736.51 283.92 744.73 244.24C754.12 200.11 775.01 179.45 815.38 179.45C833.46 179.45 842.85 187.67 855.53 190.25L831.58 304.57ZM827.36 252.23L838.39 199.88C829.23 194.48 823.13 191.66 811.63 191.66C775.71 191.66 765.38 219.6 759.75 244.24C754.59 268.89 750.59 298.24 774.07 298.24C803.41 298.24 823.6 269.83 827.36 252.23ZM965.62 229.69C970.55 205.28 963.74 191.43 944.02 191.43C922.9 191.43 900.13 208.33 896.37 227.11L879.94 304.81L864.45 304.81L890.27 183.21L904.12 183.21L900.36 207.39C909.52 192.6 934.63 179.69 953.65 179.69C975.95 179.69 987.69 196.36 980.18 231.33L964.68 304.81L949.66 304.81L965.62 229.69ZM1035.34 307.63C1009.75 307.63 992.38 291.43 1002.24 243.54C1012.34 196.59 1038.86 178.75 1064.21 178.75C1072.43 178.75 1086.28 180.86 1101.54 187.2L1116.09 118.66L1131.82 118.66L1092.15 305.75L1077.36 305.75C1078.06 302.46 1077.59 301.05 1079.94 288.85C1070.55 299.88 1055.06 307.63 1035.34 307.63ZM1098.96 199.64C1091.44 195.89 1073.6 189.55 1061.87 189.55C1028.53 189.55 1020.79 232.04 1017.97 243.3C1013.51 263.26 1009.99 297.3 1037.45 297.3C1065.62 297.3 1081.12 281.57 1087.45 252.69L1098.96 199.64Z" />
	<path id="Hun and Bun " fill-rule="evenodd" class="shp0" d="M1280.88 137.2C1327.13 137.2 1338.63 155.51 1333.47 178.28C1329.24 198.47 1312.34 209.5 1292.15 212.08C1318.44 216.54 1338.4 230.39 1332.29 259.03C1326.66 284.39 1308.82 309.03 1253.89 307.86C1211.63 307.16 1197.08 305.75 1191.68 305.04C1203.89 247.77 1214.69 194.48 1226.89 137.2L1280.88 137.2ZM1264.45 208.09C1296.38 208.09 1311.4 199.64 1315.86 178.28C1319.85 159.27 1310.23 147.29 1279.01 147.29L1240.04 147.29L1227.13 208.09L1264.45 208.09ZM1208.35 297.06L1243.09 298.7C1293.09 299.88 1308.58 282.74 1314.22 257.15C1319.15 232.74 1302.25 218.66 1272.9 218.66L1225.01 218.66L1208.35 297.06ZM1373.84 260.68C1368.91 284.85 1371.5 298.24 1392.15 298.24C1413.28 298.24 1439.34 282.51 1444.97 256.92L1460.7 183.21L1475.96 183.21L1450.14 304.81L1436.05 304.81L1440.04 279.46C1429.01 298.24 1409.52 308.8 1386.28 308.8C1365.16 308.8 1350.84 296.12 1358.35 258.56L1374.55 183.21L1390.51 183.21L1373.84 260.68ZM1585.58 229.69C1590.51 205.28 1583.71 191.43 1563.99 191.43C1542.86 191.43 1520.09 208.33 1516.33 227.11L1499.9 304.81L1484.41 304.81L1510.23 183.21L1524.08 183.21L1520.32 207.39C1529.48 192.6 1554.6 179.69 1573.61 179.69C1595.91 179.69 1607.65 196.36 1600.14 231.33L1584.64 304.81L1569.62 304.81L1585.58 229.69Z" />
</svg>