<svg version="1.2" baseProfile="tiny-ps" xmlns="http://www.w3.org/2000/svg" viewBox="0 0 1750 405" width="164" height="38">
	<title>New Project</title>
	<style>
		tspan { white-space:pre }
		.shp0 { fill: #74dea9 } 
		.shp1 { fill: #fff773 } 
	</style>
	<path id="Leaf" class="shp0" d="M1439.06 80.09C1436.67 80.08 1432.67 80.52 1430.16 81.07C1427.65 81.62 1423.81 82.85 1421.62 83.8C1419.44 84.75 1417 85.96 1416.21 86.48C1415.42 87 1414.5 87.3 1414.18 87.14C1413.85 86.98 1413.64 86.06 1413.7 85.09C1413.78 84.05 1413.35 83.1 1412.66 82.76C1412 82.44 1408.39 83.28 1404.24 84.72C1400.24 86.1 1394.91 88.47 1392.38 89.98C1389.85 91.49 1387.66 92.64 1387.51 92.54C1387.36 92.43 1386.95 91.16 1386.61 89.69L1385.98 87.04C1380.14 89.31 1376.58 91.04 1374.3 92.35C1372.02 93.66 1368.14 96.38 1365.69 98.41C1363.24 100.44 1360.83 102.48 1360.35 102.95C1359.87 103.42 1359.27 103.71 1359.02 103.6C1358.78 103.49 1358.24 102.41 1357.82 101.18C1357.41 99.96 1356.8 98.83 1356.48 98.67C1356.16 98.51 1354.05 100.05 1351.79 102.08C1349.54 104.12 1346.19 107.52 1344.35 109.64C1342.51 111.76 1340.31 114.64 1339.44 116.03C1338.58 117.41 1337.44 119.41 1336.91 120.46C1336.38 121.5 1335.68 122.23 1335.36 122.08C1335.03 121.92 1334.02 120.61 1333.11 119.17C1331.87 117.2 1331.26 116.68 1330.66 117.08C1330.22 117.37 1328.29 120.95 1326.36 125.03C1324.43 129.12 1322.08 135.2 1321.13 138.56C1320.18 141.91 1319.24 145.5 1319.03 146.54L1318.65 148.43L1312.89 144.43C1311.35 147.64 1310.42 150.97 1309.84 153.9C1309.25 156.82 1308.78 161.19 1308.8 163.6C1308.81 166.02 1309.13 170.25 1309.52 173.01C1309.9 175.78 1310.29 178.55 1310.39 179.17C1310.5 179.8 1311.38 182.54 1312.36 185.27C1313.34 188.01 1314.58 191.28 1315.13 192.54C1315.68 193.81 1316.88 195.86 1317.79 197.11C1318.71 198.35 1319.65 200.28 1319.88 201.39C1320.11 202.51 1320.07 204.62 1319.79 206.09C1319.46 207.84 1317.17 212.84 1313.14 220.57C1309.16 228.23 1307.16 232.58 1307.45 232.96C1307.7 233.29 1309.27 231.74 1311.06 229.41C1312.8 227.14 1316.55 222.8 1319.4 219.76C1322.25 216.72 1326.93 212.09 1329.81 209.46C1332.7 206.84 1339.18 201.27 1344.23 197.09C1349.28 192.9 1356.52 186.71 1360.32 183.33C1364.13 179.95 1369.39 175.1 1372.01 172.56C1374.64 170.01 1379.71 164.91 1383.29 161.22C1386.87 157.53 1392.57 151.42 1395.96 147.64C1399.35 143.85 1405.31 136.88 1409.22 132.15C1413.12 127.41 1416.54 123.07 1416.82 122.5C1417.09 121.93 1417.73 121.42 1418.23 121.36C1418.92 121.28 1418.61 122.08 1416.98 124.59C1415.8 126.42 1412.43 131.2 1409.52 135.21C1406.6 139.22 1401.79 145.43 1398.84 149.02C1395.89 152.62 1390.45 158.85 1386.76 162.89C1383.06 166.92 1377.25 172.98 1373.83 176.35C1370.42 179.72 1365.54 184.42 1362.99 186.8C1360.43 189.18 1355.21 193.88 1351.39 197.25C1347.56 200.63 1341.44 205.79 1337.78 208.74C1334.11 211.69 1331.27 214.3 1331.45 214.55C1331.63 214.8 1333.75 216.35 1336.17 217.99C1338.83 219.81 1342.39 221.66 1345.2 222.71C1347.75 223.65 1352.34 224.85 1355.41 225.36C1358.47 225.88 1362.99 226.35 1365.47 226.42C1367.94 226.49 1372.58 226.22 1375.78 225.83C1378.98 225.44 1383.89 224.54 1386.69 223.84C1389.5 223.14 1392.43 222.05 1393.21 221.42C1394.41 220.44 1394.51 220.06 1393.88 218.83C1393.48 218.03 1392.8 216.84 1392.36 216.19C1391.64 215.1 1392.02 214.83 1396.95 212.92C1399.91 211.77 1404.95 209.48 1408.16 207.82C1411.36 206.17 1415.26 203.86 1416.83 202.7C1419.28 200.87 1419.58 200.45 1419.05 199.59C1418.71 199.04 1417.84 198.3 1417.11 197.94C1416.38 197.59 1415.78 196.96 1415.77 196.56C1415.77 196.16 1417.33 194.53 1419.25 192.95C1421.17 191.37 1424.64 188.2 1426.95 185.9C1429.26 183.61 1432.53 179.93 1434.21 177.73C1435.89 175.54 1437.19 173.54 1437.1 173.29C1437.01 173.05 1435.78 172.4 1434.37 171.85L1431.81 170.85C1434.48 167.25 1436.27 164.73 1437.5 162.91C1438.73 161.1 1441.13 156.68 1442.82 153.08C1444.51 149.49 1446.11 145.66 1446.36 144.58C1446.74 142.97 1446.55 142.52 1445.28 142.08C1444.44 141.78 1443.18 141.34 1442.5 141.1C1441.36 140.69 1441.44 140.17 1443.56 134.84C1444.83 131.65 1446.34 126.96 1446.9 124.42C1447.47 121.89 1447.96 118.43 1448 116.75C1448.03 115.06 1447.79 113.55 1447.47 113.39C1447.14 113.23 1446.02 113.51 1444.98 114.01C1443.93 114.51 1442.81 114.79 1442.49 114.64C1442.16 114.48 1441.89 109.34 1441.87 103.22C1441.86 97.1 1442.27 89.67 1442.78 86.71C1443.3 83.74 1443.65 81.05 1443.56 80.71C1443.48 80.38 1441.45 80.1 1439.06 80.09ZM1302.39 59.35C1302.08 59.43 1301.45 60.4 1300.98 61.52C1300.51 62.63 1298.52 65.47 1296.56 67.83C1294.6 70.2 1291.29 73.94 1289.21 76.14C1287.13 78.35 1285.28 80.16 1285.11 80.18C1284.94 80.2 1284.32 79.49 1283.75 78.61C1283.17 77.73 1282.45 77.02 1282.14 77.02C1281.84 77.02 1280.96 77.83 1280.19 78.81C1279.41 79.79 1277.54 83.11 1276.02 86.19C1274.5 89.27 1272.99 92.93 1272.65 94.32L1272.04 96.86L1267.52 94.13C1264.93 100.23 1263.7 103.98 1263.11 106.4C1262.52 108.83 1261.91 112.31 1261.76 114.14C1261.6 115.97 1261.23 117.76 1260.93 118.12C1260.63 118.47 1259.72 118.44 1258.91 118.05C1258.09 117.66 1257.16 117.62 1256.82 117.96C1256.49 118.3 1256.12 121.32 1255.99 124.67C1255.87 128.02 1256.09 133.29 1256.48 136.39C1256.88 139.49 1257.11 142.22 1256.99 142.47C1256.87 142.71 1256.07 142.9 1255.2 142.88C1254.33 142.86 1253.39 143.07 1253.11 143.33C1252.83 143.6 1253.09 145.74 1253.69 148.09C1254.28 150.44 1255.68 154.56 1256.8 157.25C1257.92 159.93 1259.35 163.09 1259.98 164.27L1261.13 166.4C1257.47 167.73 1256.71 168.4 1256.72 169.12C1256.73 169.73 1258.22 172.43 1260.03 175.11C1261.85 177.79 1265.09 181.78 1267.25 183.97C1269.4 186.17 1273.13 189.33 1275.53 190.99C1278.05 192.73 1281.86 194.78 1284.51 195.81C1287.05 196.79 1290.66 197.8 1292.55 198.04C1294.44 198.29 1296.26 198.4 1296.59 198.3C1296.93 198.2 1296.68 194.43 1296.04 189.91C1295.4 185.39 1294.48 177.89 1293.99 173.24C1293.49 168.59 1292.82 160.23 1292.49 154.65C1292.16 149.08 1291.97 139.96 1292.06 134.39C1292.14 128.82 1292.44 121.25 1292.71 117.57C1292.99 113.89 1293.52 108.57 1293.9 105.75C1294.29 102.92 1294.81 100.55 1295.06 100.47C1295.31 100.39 1295.56 100.51 1295.6 100.73C1295.64 100.95 1295.47 105.13 1295.21 110.02C1294.95 114.91 1294.78 124.18 1294.82 130.62C1294.87 137.06 1295.28 147.59 1295.75 154.03C1296.21 160.47 1297.24 170.49 1298.04 176.29C1298.84 182.09 1299.75 188.76 1300.05 191.11C1300.36 193.46 1300.83 198.45 1301.1 202.19C1301.36 205.93 1301.58 212.02 1301.57 215.73C1301.57 219.43 1301.76 222.57 1302 222.69C1302.25 222.81 1302.92 221.41 1303.51 219.58C1304.1 217.76 1305.34 212.61 1306.28 208.15C1307.23 203.69 1308.25 199.51 1308.57 198.86C1308.88 198.21 1310.58 197.06 1312.35 196.31C1314.12 195.55 1315.62 194.48 1315.69 193.91C1315.76 193.34 1315.3 192.05 1314.65 191.04C1314.01 190.03 1312.26 186.15 1310.77 182.42C1309.28 178.69 1307.73 173.68 1307.32 171.28C1306.92 168.88 1306.6 164.46 1306.63 161.46C1306.65 158.47 1307.11 153.44 1307.66 150.3C1308.21 147.15 1308.98 143.42 1309.37 142L1310.07 139.43C1315.34 142.99 1315.75 143.1 1316.17 142.18C1316.44 141.61 1317.29 138.82 1318.07 135.99C1318.84 133.15 1321.53 126.08 1324.06 120.28C1327.47 112.44 1328.88 109.7 1329.56 109.62C1330.06 109.56 1331.28 110.71 1332.28 112.19C1333.28 113.66 1334.39 114.77 1334.76 114.66C1335.13 114.55 1336.13 112.99 1336.98 111.19C1338.53 107.96 1338.52 107.88 1336.46 102.02C1335.14 98.24 1333.9 95.87 1333.06 95.45C1332.31 95.09 1331.21 95.2 1330.56 95.7C1329.49 96.53 1329.21 96.1 1326.86 90.09C1325.46 86.51 1323.42 82.24 1322.32 80.61C1321.21 78.97 1319.85 77.58 1319.28 77.51C1318.71 77.43 1318.06 77.77 1317.82 78.26C1317.59 78.75 1317.06 79 1316.65 78.81C1316.23 78.63 1315.64 77.64 1315.33 76.62C1315.02 75.6 1313.86 73.07 1312.76 70.99C1311.66 68.9 1309.87 66.16 1308.78 64.88C1307.69 63.6 1305.93 61.81 1304.87 60.88C1303.81 59.96 1302.69 59.27 1302.39 59.35Z" />
	<path id="Bee" fill-rule="evenodd" class="shp1" d="M331.33 55.62C331.83 55.63 332.51 55.67 332.83 55.7C333.16 55.73 333.79 55.84 334.23 55.93C334.67 56.02 335.39 56.21 335.84 56.35C336.28 56.49 337.09 56.81 337.63 57.05C338.31 57.36 339.03 57.8 339.99 58.5C341.01 59.24 341.6 59.74 342.18 60.38C342.62 60.86 343.18 61.52 343.42 61.86C343.66 62.19 344.07 62.84 344.33 63.3C344.59 63.76 344.95 64.51 345.15 64.98C345.34 65.45 345.61 66.22 345.74 66.7C345.9 67.25 346.05 68.05 346.14 68.9C346.23 69.65 346.28 70.63 346.26 71.15C346.24 71.65 346.14 72.56 346.04 73.18C345.94 73.79 345.72 74.72 345.55 75.25C345.38 75.77 345.07 76.57 344.86 77.03C344.65 77.48 344.23 78.24 343.93 78.72C343.63 79.19 343.11 79.91 342.78 80.3C342.44 80.7 341.83 81.33 341.42 81.71C341.01 82.09 340.38 82.61 340.02 82.86C339.66 83.12 339.09 83.5 338.75 83.7C338.4 83.9 337.72 84.24 337.23 84.45C336.75 84.67 335.94 84.96 335.44 85.11C334.94 85.26 334.1 85.45 333.58 85.54C333.06 85.62 332.17 85.7 331.61 85.72C331.06 85.73 330.18 85.71 329.68 85.66C329.17 85.61 328.38 85.49 327.91 85.39C327.45 85.29 326.7 85.08 326.25 84.92C325.8 84.77 325.04 84.45 324.56 84.22C324.03 83.98 323.14 83.42 322.34 82.85C321.36 82.14 320.78 81.64 320.2 81.01C319.76 80.53 319.17 79.82 318.89 79.43C318.61 79.04 318.14 78.27 317.86 77.73C317.57 77.2 317.19 76.39 317.02 75.94C316.81 75.39 316.61 74.63 316.4 73.55C316.17 72.31 316.1 71.74 316.09 70.92C316.08 70.35 316.14 69.41 316.21 68.82C316.28 68.24 316.45 67.35 316.57 66.86C316.7 66.37 316.96 65.59 317.14 65.14C317.32 64.69 317.65 63.98 317.86 63.57C318.07 63.17 318.55 62.41 318.92 61.9C319.28 61.39 319.92 60.63 320.32 60.22C320.73 59.8 321.43 59.18 321.87 58.83C322.31 58.48 323.01 58 323.42 57.76C323.83 57.52 324.49 57.17 324.88 56.99C325.28 56.8 326.01 56.52 326.51 56.36C327.08 56.18 327.96 55.99 328.91 55.84C329.95 55.68 330.7 55.61 331.33 55.62ZM330.99 62.56C330.74 62.56 330.11 62.64 329.61 62.74C329.08 62.85 328.39 63.05 328.01 63.22C327.63 63.38 326.96 63.77 326.51 64.09C326.05 64.42 325.47 64.93 325.16 65.28C324.87 65.62 324.44 66.22 324.21 66.6C323.99 66.98 323.69 67.62 323.56 68.01C323.43 68.41 323.27 69.04 323.21 69.43C323.15 69.81 323.11 70.51 323.12 70.98C323.14 71.47 323.22 72.12 323.31 72.49C323.4 72.85 323.61 73.47 323.78 73.87C323.94 74.27 324.31 74.92 324.59 75.32C324.88 75.73 325.39 76.32 325.73 76.64C326.07 76.96 326.71 77.42 327.14 77.67C327.6 77.93 328.34 78.24 328.89 78.41C329.41 78.56 330.11 78.72 330.44 78.76C330.9 78.81 331.36 78.78 332.49 78.59C333.9 78.37 333.98 78.34 334.75 77.94C335.18 77.71 335.85 77.28 336.22 76.99C336.61 76.67 337.15 76.12 337.49 75.67C337.82 75.24 338.23 74.63 338.39 74.3C338.55 73.98 338.79 73.35 338.92 72.91C339.05 72.46 339.18 71.73 339.22 71.27C339.27 70.67 339.24 70.17 339.12 69.43C339.02 68.83 338.86 68.16 338.71 67.8C338.58 67.46 338.3 66.89 338.1 66.53C337.89 66.18 337.47 65.61 337.15 65.26C336.83 64.91 336.27 64.4 335.9 64.14C335.53 63.87 334.95 63.51 334.6 63.35C334.25 63.19 333.66 62.97 333.3 62.87C332.93 62.77 332.37 62.66 332.04 62.62C331.71 62.58 331.24 62.56 330.99 62.56ZM432.97 49.71C433.52 49.7 434.37 49.7 434.87 49.72C435.38 49.74 436.31 49.82 436.94 49.9C437.58 49.98 438.56 50.14 439.13 50.27C439.7 50.39 440.73 50.67 441.43 50.89C442.12 51.11 443.1 51.46 443.59 51.67C444.08 51.87 444.92 52.26 445.46 52.52C446 52.79 446.87 53.26 447.39 53.58C447.92 53.89 448.98 54.6 449.74 55.15C450.5 55.71 451.64 56.63 452.27 57.2C452.91 57.77 453.88 58.74 454.44 59.35C454.99 59.96 455.68 60.74 455.96 61.1C456.25 61.45 456.71 62.07 457 62.47C457.29 62.87 457.8 63.65 458.14 64.19C458.48 64.74 459.02 65.69 459.34 66.31C459.66 66.93 460.13 67.92 460.38 68.5C460.62 69.09 461 70.09 461.21 70.73C461.55 71.74 461.65 72.22 462 74.41C462.32 76.42 462.4 77.11 462.39 77.84C462.38 78.34 462.34 79.14 462.29 79.62C462.25 80.1 462.13 80.99 462.02 81.59C461.92 82.19 461.71 83.14 461.56 83.7C461.41 84.26 461.1 85.2 460.88 85.78C460.66 86.36 460.27 87.28 460.02 87.82C459.77 88.36 459.35 89.18 459.09 89.64C458.83 90.11 458.29 91.01 457.88 91.64C457.48 92.27 456.77 93.26 456.31 93.83C455.85 94.4 455.15 95.24 454.75 95.68C454.35 96.12 453.66 96.83 453.23 97.26C452.8 97.68 452.02 98.39 451.49 98.84C450.96 99.28 450.13 99.94 449.64 100.3C449.15 100.66 448.36 101.2 447.88 101.51C447.41 101.81 446.53 102.33 445.94 102.66C445.34 102.99 444.28 103.51 443.58 103.81C442.89 104.12 441.75 104.56 441.07 104.79C440.38 105.02 439.21 105.35 438.47 105.53C437.66 105.72 436.61 105.91 435.87 105.99C435.18 106.07 434.15 106.15 433.58 106.16C433.01 106.18 432.07 106.17 431.49 106.13C430.91 106.1 429.88 105.98 429.18 105.86C428.49 105.75 427.48 105.54 426.94 105.4C426.39 105.26 425.24 104.92 424.37 104.64C423.5 104.36 422.12 103.88 421.3 103.57C420.48 103.26 419.1 102.72 418.25 102.36C417.4 102.01 415.49 101.17 414.01 100.5C412.54 99.83 410.35 98.82 409.17 98.24C407.98 97.66 406.12 96.74 405.03 96.19C403.95 95.64 401.73 94.48 400.09 93.62C398.46 92.76 396.25 91.58 395.19 91C394.13 90.42 392.09 89.3 390.67 88.51C389.25 87.71 386.58 86.2 384.74 85.15C382.9 84.09 380.5 82.7 379.4 82.05C378.3 81.4 376.05 80.07 374.4 79.08C372.74 78.1 370.14 76.52 368.6 75.58C367.07 74.64 365.82 73.82 365.83 73.76C365.83 73.69 366.89 73.19 368.42 72.54C369.84 71.93 372.76 70.7 374.91 69.8C377.06 68.9 380.62 67.43 382.82 66.53C385.02 65.63 388.77 64.12 391.16 63.18C393.55 62.23 397.24 60.79 399.35 59.98C401.47 59.17 404.49 58.03 406.06 57.45C407.64 56.87 410.42 55.87 412.24 55.23C414.05 54.6 416.67 53.72 418.04 53.27C419.42 52.83 421.28 52.25 422.18 51.98C423.09 51.71 424.59 51.28 425.52 51.03C426.64 50.73 428.03 50.43 429.6 50.16C431.3 49.86 432.26 49.74 432.97 49.71ZM433.14 58.75C432.5 58.76 431.73 58.86 430.52 59.08C429.58 59.25 428.26 59.54 427.59 59.73C426.92 59.91 425.79 60.24 425.07 60.45C424.36 60.67 423.06 61.08 422.18 61.37C421.31 61.65 419.84 62.15 418.92 62.47C418 62.8 416.07 63.49 414.63 64.02C413.2 64.55 410.85 65.44 409.42 65.99C407.99 66.54 405.78 67.4 404.51 67.9C403.25 68.4 400.81 69.38 399.1 70.08C397.4 70.77 394.03 72.17 391.62 73.18C389.22 74.19 387.23 75.04 387.21 75.06C387.19 75.09 387.32 75.2 387.49 75.3C387.66 75.41 388.92 76.18 390.3 77.01C391.67 77.85 394.03 79.26 395.55 80.16C397.06 81.05 399.71 82.58 401.43 83.56C403.16 84.54 405.47 85.83 406.56 86.43C407.65 87.03 409.52 88.03 410.72 88.67C411.92 89.3 413.94 90.34 415.21 90.97C416.48 91.61 418.54 92.59 419.77 93.15C421.01 93.71 422.78 94.48 423.71 94.85C424.65 95.23 426.08 95.76 426.89 96.03C427.71 96.3 428.86 96.62 429.46 96.76C430.05 96.89 430.87 97.03 431.27 97.06C431.68 97.1 432.36 97.14 432.78 97.15C433.21 97.16 434.11 97.1 434.8 97.02C435.5 96.94 436.48 96.76 437.05 96.62C437.6 96.47 438.43 96.21 438.9 96.04C439.37 95.86 440.14 95.53 440.6 95.31C441.06 95.09 441.87 94.66 442.39 94.34C442.92 94.03 443.76 93.46 444.28 93.08C444.79 92.7 445.65 91.98 446.19 91.48C446.74 90.97 447.51 90.19 447.91 89.73C448.31 89.27 449 88.37 449.45 87.73C449.9 87.09 450.51 86.09 450.82 85.51C451.12 84.93 451.55 83.99 451.77 83.41C451.99 82.84 452.29 81.86 452.44 81.23C452.58 80.61 452.73 79.67 452.77 79.14C452.82 78.61 452.84 77.83 452.83 77.41C452.81 76.99 452.72 76.15 452.63 75.54C452.53 74.93 452.32 74.03 452.17 73.53C452.02 73.03 451.76 72.26 451.59 71.83C451.42 71.4 451.09 70.67 450.86 70.22C450.64 69.78 450.18 68.98 449.85 68.46C449.52 67.94 448.97 67.15 448.62 66.71C448.27 66.27 447.73 65.64 447.43 65.31C447.13 64.99 446.57 64.42 446.18 64.06C445.8 63.7 445.06 63.09 444.55 62.7C444.04 62.31 443.2 61.74 442.67 61.43C442.15 61.11 441.26 60.64 440.7 60.38C440.13 60.12 439.22 59.77 438.67 59.59C438.12 59.42 437.26 59.2 436.78 59.1C436.29 59 435.47 58.88 434.97 58.83C434.46 58.78 433.64 58.74 433.14 58.75ZM304.47 79.61C304.9 79.62 305.58 79.65 305.98 79.68C306.38 79.72 307.03 79.81 307.42 79.88C307.8 79.95 308.5 80.12 308.97 80.26C309.44 80.4 310.29 80.72 310.85 80.98C311.42 81.24 312.24 81.68 312.69 81.96C313.13 82.24 313.82 82.75 314.23 83.09C314.63 83.43 315.27 84.04 315.64 84.44C316.01 84.84 316.58 85.53 316.9 85.98C317.21 86.42 317.68 87.19 317.93 87.67C318.18 88.15 318.55 88.95 318.74 89.44C319.04 90.22 319.13 90.6 319.4 92.28C319.68 94 319.71 94.34 319.66 95.23C319.63 95.79 319.52 96.71 319.42 97.29C319.32 97.86 319.14 98.65 319.02 99.03C318.9 99.41 318.7 99.98 318.57 100.3C318.45 100.62 318.17 101.21 317.96 101.62C317.75 102.03 317.32 102.75 316.99 103.21C316.66 103.68 316.13 104.36 315.81 104.71C315.5 105.07 314.9 105.66 314.48 106.02C314.07 106.38 313.43 106.88 313.07 107.12C312.71 107.36 312.08 107.74 311.67 107.97C311.25 108.19 310.43 108.56 309.85 108.78C308.9 109.15 308.58 109.22 307.01 109.48C305.67 109.69 305.03 109.76 304.34 109.74C303.84 109.73 303.03 109.67 302.55 109.6C302.06 109.54 301.26 109.38 300.77 109.25C300.27 109.12 299.52 108.88 299.1 108.72C298.67 108.56 297.98 108.24 297.56 108.02C297.14 107.8 296.42 107.37 295.97 107.05C295.51 106.74 294.89 106.26 294.58 105.98C294.28 105.71 293.75 105.18 293.41 104.81C293.06 104.44 292.53 103.77 292.22 103.32C291.9 102.87 291.43 102.09 291.17 101.59C290.91 101.08 290.54 100.24 290.35 99.72C290.06 98.94 289.95 98.49 289.72 97.06C289.53 95.82 289.46 95.1 289.47 94.52C289.49 94.06 289.55 93.27 289.62 92.75C289.69 92.23 289.84 91.41 289.96 90.93C290.09 90.44 290.32 89.7 290.48 89.28C290.64 88.85 290.99 88.11 291.25 87.62C291.52 87.13 291.97 86.38 292.27 85.97C292.57 85.55 293.06 84.94 293.35 84.61C293.65 84.28 294.14 83.78 294.45 83.5C294.75 83.23 295.38 82.73 295.85 82.39C296.32 82.06 297.09 81.59 297.55 81.35C298.01 81.11 298.77 80.77 299.24 80.58C299.91 80.32 300.46 80.19 301.9 79.93C303.15 79.71 303.94 79.61 304.47 79.61ZM304.45 86.56C304.15 86.56 303.49 86.64 302.98 86.75C302.48 86.85 301.77 87.05 301.42 87.2C301.07 87.36 300.51 87.66 300.17 87.89C299.84 88.11 299.33 88.51 299.05 88.77C298.76 89.03 298.3 89.58 298.01 89.98C297.73 90.38 297.36 91.03 297.19 91.43C297.02 91.83 296.81 92.47 296.72 92.86C296.63 93.25 296.54 93.88 296.52 94.25C296.5 94.65 296.55 95.35 296.64 95.91C296.73 96.47 296.9 97.18 297.05 97.57C297.19 97.94 297.49 98.55 297.72 98.91C297.95 99.27 298.3 99.76 298.5 100C298.7 100.24 299.21 100.7 299.64 101.03C300.07 101.36 300.68 101.77 301.01 101.93C301.33 102.09 301.96 102.33 302.4 102.45C302.85 102.58 303.5 102.71 303.86 102.75C304.36 102.8 304.8 102.77 305.87 102.59C306.91 102.43 307.37 102.31 307.79 102.12C308.09 101.98 308.63 101.67 308.99 101.43C309.35 101.19 309.88 100.77 310.16 100.51C310.44 100.24 310.87 99.75 311.12 99.4C311.36 99.06 311.71 98.45 311.9 98.05C312.08 97.65 312.31 97.01 312.4 96.62C312.5 96.23 312.6 95.58 312.63 95.18C312.67 94.64 312.63 94.13 312.49 93.3C312.34 92.45 312.22 91.98 312.01 91.51C311.86 91.16 311.55 90.6 311.32 90.26C311.1 89.93 310.72 89.44 310.48 89.18C310.24 88.92 309.79 88.51 309.48 88.26C309.16 88.02 308.62 87.67 308.27 87.48C307.91 87.3 307.26 87.04 306.82 86.92C306.37 86.79 305.78 86.66 305.5 86.62C305.22 86.59 304.75 86.56 304.45 86.56ZM349.81 89.18C350.11 89.15 350.99 89.08 351.78 89.03C352.57 88.99 353.94 88.95 354.81 88.96C355.68 88.97 357.04 89.03 357.82 89.09C358.64 89.15 359.25 89.25 359.26 89.3C359.27 89.36 350.52 97.31 339.82 106.96C324.55 120.75 320.35 124.49 320.24 124.43C320.13 124.36 320.12 124.11 320.14 123.07C320.15 122.37 320.22 121.14 320.29 120.33C320.36 119.52 320.52 118.19 320.64 117.37C320.77 116.55 321 115.36 321.14 114.71C321.28 114.06 321.59 112.89 321.83 112.11C322.07 111.32 322.44 110.2 322.66 109.62C322.89 109.03 323.3 108.05 323.59 107.43C323.87 106.81 324.39 105.79 324.73 105.17C325.07 104.54 325.97 103.17 326.73 102.12C327.48 101.07 328.47 99.82 328.91 99.33C329.36 98.85 330.24 97.98 330.87 97.4C331.5 96.82 332.64 95.89 333.4 95.34C334.16 94.79 335.3 94.03 335.94 93.65C336.58 93.28 337.48 92.79 337.94 92.56C338.4 92.34 339.16 91.99 339.63 91.79C340.09 91.59 340.88 91.28 341.38 91.1C341.87 90.93 342.74 90.64 343.31 90.47C343.89 90.31 344.94 90.03 345.66 89.87C346.39 89.7 347.49 89.49 348.13 89.4C348.76 89.31 349.52 89.21 349.81 89.18ZM375.81 93.79C376.65 94.16 378.04 94.83 378.9 95.26C379.75 95.69 380.99 96.35 381.65 96.72C382.3 97.1 383.36 97.72 384 98.11C384.63 98.51 385.44 99.02 385.79 99.26C386.14 99.49 386.42 99.74 386.41 99.8C386.4 99.86 385.7 100.54 384.86 101.3C384.01 102.06 372.57 112.39 359.43 124.24C346.3 136.09 333.87 147.31 331.82 149.15C329.77 151 328.02 152.53 327.92 152.55C327.77 152.58 327.65 152.39 327.07 151.29C326.69 150.57 326.07 149.29 325.68 148.43C325.29 147.57 324.74 146.27 324.45 145.54C324.16 144.81 323.7 143.58 323.43 142.8C323.16 142.02 322.83 141.05 322.7 140.63C322.49 139.97 322.47 139.86 322.57 139.73C322.63 139.65 334.25 129.15 348.4 116.39C362.54 103.63 374.14 93.18 374.19 93.15C374.24 93.13 374.96 93.41 375.81 93.79ZM397.63 108.75C398.1 109.21 398.97 110.1 399.58 110.73C400.18 111.36 401.12 112.39 401.67 113.02C402.22 113.66 403.07 114.69 403.57 115.3C404.06 115.92 404.66 116.68 404.9 117C405.14 117.31 405.32 117.62 405.31 117.7C405.3 117.78 402.55 120.31 399.2 123.34C395.85 126.36 390.63 131.07 387.6 133.8C384.57 136.54 373.49 146.53 362.98 156.02C352.47 165.5 343.81 173.27 343.73 173.28C343.66 173.29 342.98 172.7 342.22 171.96C341.46 171.22 340.27 170.01 339.58 169.27C338.89 168.54 337.87 167.39 337.32 166.74C336.77 166.08 336 165.14 335.62 164.65C335.24 164.16 334.92 163.71 334.91 163.65C334.89 163.59 348.76 151.04 365.71 135.75C382.66 120.46 396.59 107.94 396.65 107.93C396.72 107.92 397.16 108.29 397.63 108.75ZM304.15 129.54C304.21 129.57 304.84 130.8 305.56 132.29C306.27 133.77 307.53 136.44 308.36 138.22C309.2 140.01 310.38 142.58 310.99 143.92C311.61 145.27 312.72 147.74 313.47 149.42C314.22 151.09 315.56 154.18 316.46 156.28C317.36 158.38 318.54 161.17 319.08 162.48C319.62 163.79 320.57 166.15 321.2 167.72C321.82 169.29 322.79 171.81 323.35 173.31C323.91 174.82 324.7 177.04 325.12 178.24C325.54 179.45 326.12 181.19 326.42 182.11C326.71 183.04 327.09 184.26 327.26 184.83C327.43 185.4 327.77 186.59 328.01 187.48C328.25 188.36 328.64 190.03 328.89 191.19C329.23 192.81 329.36 193.65 329.47 194.86C329.55 195.72 329.6 196.97 329.59 197.65C329.57 198.32 329.49 199.4 329.41 200.03C329.33 200.67 329.16 201.67 329.03 202.27C328.9 202.86 328.6 203.95 328.36 204.69C328.12 205.42 327.67 206.59 327.35 207.29C327.03 207.99 326.49 209.08 326.15 209.7C325.8 210.33 324.99 211.59 324.34 212.5C323.68 213.41 322.79 214.56 322.34 215.06C321.9 215.57 321.11 216.4 320.58 216.92C320.05 217.44 319.21 218.2 318.72 218.62C318.22 219.04 317.29 219.76 316.64 220.24C315.99 220.71 315.04 221.35 314.51 221.67C313.99 221.99 313.13 222.48 312.6 222.75C312.07 223.03 311.3 223.41 310.88 223.6C310.46 223.79 309.64 224.12 309.05 224.34C308.46 224.56 307.47 224.89 306.85 225.07C306.17 225.27 305.05 225.51 304.01 225.67C303.06 225.83 301.88 225.97 301.38 225.99C300.89 226.01 300.07 226 299.57 225.98C299.07 225.97 298.24 225.9 297.73 225.84C297.22 225.77 296.34 225.61 295.77 225.49C295.21 225.36 294.31 225.11 293.79 224.95C293.26 224.78 292.42 224.48 291.91 224.27C291.4 224.07 290.66 223.74 290.25 223.54C289.85 223.34 289.09 222.93 288.57 222.63C288.05 222.33 287.14 221.77 286.56 221.38C285.98 220.99 285.03 220.28 284.45 219.8C283.87 219.31 283.08 218.62 282.7 218.26C282.31 217.9 281.6 217.18 281.12 216.66C280.64 216.13 280.04 215.45 279.79 215.15C279.54 214.84 278.98 214.09 278.55 213.49C278.11 212.88 277.52 212 277.23 211.52C276.94 211.04 276.46 210.18 276.17 209.61C275.87 209.03 275.44 208.12 275.21 207.58C274.98 207.05 274.64 206.16 274.45 205.62C274.27 205.08 273.99 204.16 273.84 203.59C273.66 202.91 273.46 201.8 273.28 200.46C273.11 199.22 273 198.02 273 197.49C273 197 273.02 196.2 273.05 195.71C273.08 195.22 273.21 194.13 273.35 193.29C273.48 192.44 273.78 191.13 274.01 190.37C274.24 189.61 274.63 188.43 274.87 187.74C275.12 187.06 275.66 185.64 276.07 184.61C276.49 183.57 277.17 181.93 277.58 180.97C277.99 180 279.06 177.63 279.96 175.7C280.85 173.76 282.3 170.69 283.18 168.88C284.07 167.07 285.53 164.13 286.43 162.34C287.34 160.55 288.81 157.66 289.71 155.92C290.61 154.19 292.2 151.14 293.25 149.15C294.3 147.17 296.11 143.78 297.27 141.63C298.42 139.49 300.38 135.89 301.62 133.65C302.86 131.41 303.91 129.55 303.96 129.53C304 129.51 304.09 129.51 304.15 129.54ZM303.29 151C303.23 150.9 303.19 150.92 303.07 151.12C302.99 151.26 302.22 152.65 301.37 154.2C300.51 155.76 299.05 158.44 298.13 160.16C297.2 161.87 295.76 164.59 294.92 166.2C294.08 167.8 292.82 170.24 292.12 171.63C291.41 173.01 290.3 175.23 289.65 176.55C289 177.88 287.82 180.35 287.04 182.04C286.25 183.74 285.27 185.93 284.86 186.92C284.44 187.91 283.88 189.31 283.62 190.02C283.35 190.74 283 191.77 282.84 192.32C282.68 192.87 282.47 193.76 282.39 194.3C282.3 194.83 282.21 195.68 282.19 196.18C282.17 196.69 282.18 197.54 282.2 198.09C282.23 198.68 282.35 199.55 282.5 200.26C282.63 200.91 282.87 201.83 283.02 202.31C283.17 202.78 283.48 203.61 283.71 204.14C283.94 204.68 284.34 205.49 284.59 205.95C284.85 206.41 285.42 207.3 285.86 207.92C286.3 208.55 287.11 209.55 287.65 210.13C288.19 210.72 289.01 211.53 289.47 211.93C289.93 212.33 290.72 212.94 291.21 213.28C291.71 213.63 292.43 214.09 292.81 214.3C293.2 214.52 293.93 214.89 294.44 215.12C294.95 215.35 295.75 215.66 296.23 215.81C296.7 215.96 297.44 216.16 297.88 216.25C298.32 216.35 299.03 216.46 299.46 216.5C299.89 216.54 300.67 216.56 301.19 216.54C301.71 216.53 302.55 216.46 303.05 216.38C303.54 216.3 304.33 216.13 304.8 216C305.26 215.88 306.03 215.63 306.5 215.46C306.97 215.28 307.74 214.96 308.2 214.74C308.66 214.52 309.47 214.09 309.99 213.78C310.52 213.46 311.4 212.87 311.96 212.45C312.52 212.04 313.36 211.34 313.84 210.9C314.32 210.45 315 209.77 315.36 209.37C315.72 208.97 316.37 208.16 316.8 207.57C317.23 206.98 317.78 206.16 318.02 205.75C318.26 205.33 318.66 204.56 318.9 204.02C319.15 203.48 319.54 202.44 319.77 201.71C319.99 200.97 320.23 200 320.31 199.54C320.38 199.08 320.46 198.31 320.49 197.83C320.51 197.35 320.51 196.54 320.48 196.02C320.45 195.5 320.36 194.67 320.28 194.17C320.2 193.67 319.96 192.55 319.75 191.67C319.54 190.8 319.18 189.46 318.96 188.69C318.73 187.93 318.27 186.48 317.93 185.46C317.6 184.44 316.94 182.57 316.47 181.3C316 180.03 315.16 177.83 314.6 176.43C314.04 175.02 312.81 172.06 311.87 169.84C310.92 167.62 309.55 164.48 308.82 162.85C308.09 161.22 306.86 158.54 306.09 156.89C305.33 155.25 304.4 153.27 304.03 152.51C303.66 151.75 303.33 151.06 303.29 151ZM412.52 129.07C412.62 129.22 412.95 129.86 413.26 130.48C413.56 131.11 414.2 132.53 414.67 133.65C415.15 134.78 415.8 136.43 416.11 137.32C416.43 138.22 416.87 139.56 417.09 140.29C417.41 141.38 417.47 141.67 417.4 141.81C417.35 141.9 408.69 149.76 398.14 159.27C387.59 168.79 376.14 179.12 372.68 182.23L366.4 187.88C365.09 187.34 364.32 187.02 363.85 186.81C363.38 186.6 362.39 186.14 361.65 185.77C360.91 185.41 359.65 184.76 358.86 184.32C358.07 183.89 356.88 183.2 356.21 182.8C355.55 182.39 354.79 181.92 354.53 181.75C354.26 181.57 354.04 181.39 354.03 181.34C354.03 181.29 367.08 169.47 383.04 155.08C399 140.69 412.12 128.89 412.2 128.86C412.29 128.81 412.4 128.88 412.52 129.07ZM419.5 157.51C419.54 157.57 419.55 158.01 419.53 158.48C419.51 158.96 419.45 159.87 419.39 160.5C419.34 161.13 419.2 162.3 419.07 163.09C418.95 163.88 418.71 165.18 418.53 165.98C418.35 166.78 418 168.11 417.75 168.92C417.49 169.73 417.04 170.99 416.75 171.71C416.46 172.43 416.01 173.43 415.75 173.95C415.5 174.46 415 175.38 414.65 175.98C414.3 176.59 413.69 177.54 413.3 178.1L412.59 179.12C413.23 179.58 413.65 179.96 413.93 180.27C414.21 180.57 414.94 181.51 415.55 182.36C416.17 183.21 417.09 184.58 417.6 185.39C418.11 186.21 418.87 187.47 419.29 188.2C419.71 188.93 420.46 190.26 420.95 191.16C421.44 192.05 422.4 193.83 423.07 195.12C423.74 196.41 424.81 198.53 425.44 199.82C426.08 201.11 427.06 203.16 427.63 204.37C428.19 205.57 428.65 206.62 428.65 206.7C428.65 206.77 428.6 206.84 428.54 206.85C428.48 206.86 426.6 205.42 424.36 203.66C422.12 201.89 418.77 199.25 416.91 197.78C415.06 196.3 412.54 194.3 411.32 193.33C410.1 192.35 408.16 190.78 407 189.84C405.2 188.37 404.86 188.05 404.5 187.5C404.26 187.15 404.05 186.87 404.01 186.88C403.97 186.88 403.22 187.27 402.33 187.73C401.45 188.19 400.11 188.81 399.36 189.1C398.61 189.4 397.42 189.81 396.72 190.03C396.02 190.24 394.77 190.57 393.94 190.76C393.08 190.95 391.73 191.19 390.83 191.3C389.95 191.41 388.78 191.53 388.24 191.56C387.7 191.6 386.68 191.63 385.99 191.65C385.29 191.66 384.21 191.64 383.58 191.62C382.96 191.59 382.29 191.56 382.1 191.54C381.89 191.52 381.75 191.46 381.73 191.38C381.72 191.3 389.25 184.45 400.45 174.35C410.76 165.05 419.25 157.44 419.32 157.43C419.38 157.42 419.47 157.46 419.5 157.51Z" />
	<path id="Hun and Bun " fill="#fff773" aria-label="Hun and Bun"  d="M525.55 226.85L457.75 226.85L468.4 176.75L457.6 176.75L434.95 284L445.75 284L456.4 233.6L524.2 233.6L513.55 284L523.3 284L545.95 176.75L536.2 176.75ZM571.9 206.3L561.7 206.3L551.35 254.45C546.55 278.45 555.7 286.55 569.2 286.55C584.05 286.55 596.5 279.8 603.55 267.8L601 284L610 284L626.5 206.3L616.75 206.3L606.7 253.4C603.1 269.75 586.45 279.8 572.95 279.8C559.75 279.8 558.1 271.25 561.25 255.8ZM686.35 284L695.95 284L705.85 237.05C710.65 214.7 703.15 204.05 688.9 204.05C676.75 204.05 660.7 212.3 654.85 221.75L657.25 206.3L648.4 206.3L631.9 284L641.8 284L652.3 234.35C654.7 222.35 669.25 211.55 682.75 211.55C695.35 211.55 699.7 220.4 696.55 236Z" />
	<path id="Hun and Bun " fill="#000000" aria-label="Hun and Bun"  d="" />
	<path id="Hun and Bun " fill="#ffffff" aria-label="Hun and Bun"  d="M781.45 279.8C766.45 279.8 769 261.05 772.3 245.3C775.9 229.55 782.5 211.7 805.45 211.7C812.8 211.7 816.7 213.5 822.55 216.95L815.5 250.4C813.1 261.65 800.2 279.8 781.45 279.8ZM833.5 210.8C825.4 209.15 819.4 203.9 807.85 203.9C782.05 203.9 768.7 217.1 762.7 245.3C757.45 270.65 760.75 286.4 780.1 286.4C795.7 286.4 809.65 273.5 812.05 268.1L810.4 283.85L818.2 283.85ZM893.65 284L903.25 284L913.15 237.05C917.95 214.7 910.45 204.05 896.2 204.05C884.05 204.05 868 212.3 862.15 221.75L864.55 206.3L855.7 206.3L839.2 284L849.1 284L859.6 234.35C862 222.35 876.55 211.55 890.05 211.55C902.65 211.55 907 220.4 903.85 236ZM981.7 250.7C977.65 269.15 967.75 279.2 949.75 279.2C932.2 279.2 934.45 257.45 937.3 244.7C939.1 237.5 944.05 210.35 965.35 210.35C972.85 210.35 984.25 214.4 989.05 216.8ZM976.9 273.8C975.4 281.6 975.7 282.5 975.25 284.6L984.7 284.6L1010.05 165.05L1000 165.05L990.7 208.85C980.95 204.8 972.1 203.45 966.85 203.45C950.65 203.45 933.7 214.85 927.25 244.85C920.95 275.45 932.05 285.8 948.4 285.8C961 285.8 970.9 280.85 976.9 273.8Z" />
	<path id="Hun and Bun " fill="#74dea9" aria-label="Hun and Bun"  d="M1069.6 228.95L1100.2 228.95C1118.95 228.95 1129.75 237.95 1126.6 253.55C1123 269.9 1113.1 280.85 1081.15 280.1L1058.95 279.05ZM1070.95 222.2L1079.2 183.35L1104.1 183.35C1124.05 183.35 1130.2 191 1127.65 203.15C1124.8 216.8 1115.2 222.2 1094.8 222.2ZM1070.8 176.9C1063 213.5 1056.1 247.55 1048.3 284.15C1051.75 284.6 1061.05 285.5 1088.05 285.95C1123.15 286.7 1134.55 270.95 1138.15 254.75C1142.05 236.45 1129.3 227.6 1112.5 224.75C1125.4 223.1 1136.2 216.05 1138.9 203.15C1142.2 188.6 1134.85 176.9 1105.3 176.9ZM1175.35 206.3L1165.15 206.3L1154.8 254.45C1150 278.45 1159.15 286.55 1172.65 286.55C1187.5 286.55 1199.95 279.8 1207 267.8L1204.45 284L1213.45 284L1229.95 206.3L1220.2 206.3L1210.15 253.4C1206.55 269.75 1189.9 279.8 1176.4 279.8C1163.2 279.8 1161.55 271.25 1164.7 255.8ZM1289.8 284L1299.4 284L1309.3 237.05C1314.1 214.7 1306.6 204.05 1292.35 204.05C1280.2 204.05 1264.15 212.3 1258.3 221.75L1260.7 206.3L1251.85 206.3L1235.35 284L1245.25 284L1255.75 234.35C1258.15 222.35 1272.7 211.55 1286.2 211.55C1298.8 211.55 1303.15 220.4 1300 236Z" />
</svg>