<svg version="1.2" xmlns="http://www.w3.org/2000/svg" viewBox="0 0 1195 277" width="164" height="38"><style>.a{fill:#a8ec98}.b{fill:#fff}</style><path fill-rule="evenodd" class="a" d="m216.8 37h39.7v161.6h80.8v39.7h-80.8v-39.7h-39.7v39.7h-80.8v-39.7h80.8zm-80.8 0h39.7v120.5h-39.7zm161.6 0h39.7v120.5h-39.7z"/><path fill-rule="evenodd" class="b" d="m1033.1 63.6h25.9v156.6h-25.9zm-604.5 3.2h25.9l0.1 71 61-71h15.8c10.3 0 15.7 0.1 15.7 0.2 0 0.1-14.8 17-65.7 75.1l27.7 30.8c15.2 17 31.1 34.6 42.7 47.4h-32.8l-64.4-71.3-0.1 71.3h-25.9zm179.8 35.3c2.3-0.1 5.1 0 6.6 0.2 1.4 0.1 3.5 0.4 4.7 0.5 1.1 0.2 3.1 0.6 4.4 1 1.3 0.3 3.1 0.8 4 1.1 0.9 0.3 2.3 0.9 3.1 1.2 0.8 0.3 2.2 1 3.1 1.4 0.9 0.5 2.4 1.3 3.2 1.8 0.9 0.5 2.2 1.4 3 2 0.8 0.5 2.1 1.5 2.9 2.1 0.7 0.7 1.9 1.7 2.5 2.3 0.7 0.6 1.9 1.9 2.7 2.8 0.9 1 2 2.4 2.6 3.1 0.5 0.8 1.4 2.1 2 3 0.6 1 1.6 2.6 2.2 3.8 0.6 1.1 1.5 3 1.9 4.1 0.5 1.1 1.1 2.7 1.5 3.6 0.3 1 0.8 2.5 1.1 3.5 0.2 0.9 0.7 2.7 1 4 0.3 1.2 0.7 3.4 0.9 4.7 0.2 1.4 0.5 3.8 0.7 5.3 0.2 1.9 0.3 4.4 0.3 7.9 0 2.8-0.1 5.9-0.3 8.4h-41.6c-27.6 0-41.6 0.1-41.6 0.2 0 0.1 0.1 0.9 0.2 1.8 0.2 0.9 0.4 2.3 0.6 3.2 0.2 0.9 0.5 2.3 0.8 3.1 0.2 0.8 0.6 2.1 0.9 2.8 0.2 0.8 0.7 2 1.1 2.7 0.3 0.7 0.9 1.9 1.4 2.7 0.4 0.7 1.1 1.8 1.5 2.3 0.4 0.6 1.2 1.5 1.7 2.1 0.5 0.6 1.3 1.5 1.9 2 0.5 0.4 1.6 1.2 2.3 1.7 0.8 0.6 2.3 1.4 3.4 2 1.1 0.5 2.6 1.1 3.4 1.4 0.8 0.2 1.9 0.5 2.6 0.7 0.6 0.1 2 0.3 3.1 0.5 1.1 0.1 3.3 0.2 4.9 0.2 1.5 0 3.6-0.1 4.5-0.2 0.9-0.2 2.2-0.4 2.9-0.5 0.7-0.2 1.8-0.5 2.4-0.6 0.7-0.2 1.9-0.7 2.7-1 0.8-0.4 2.1-1 2.7-1.4 0.7-0.4 1.9-1.1 2.6-1.6 0.7-0.5 1.8-1.4 2.3-1.9 0.6-0.5 1.6-1.6 2.3-2.4 0.7-0.8 1.6-2 2-2.7 0.4-0.6 1.1-1.8 1.5-2.5 0.6-1.2 0.8-1.4 1.1-1.4 0.2 0 5.9 1.7 12.7 3.8 6.8 2 12.4 3.8 12.4 3.8 0.1 0.1-0.3 0.9-0.7 1.9-0.5 1-1.4 2.6-2 3.7-0.6 1.1-1.5 2.6-2 3.4-0.6 0.9-1.6 2.3-2.4 3.3-0.7 0.9-2.4 2.8-3.7 4.1-1.2 1.3-3.2 3.1-4.2 4-1.1 0.8-2.6 2-3.5 2.6-0.9 0.6-2.5 1.6-3.6 2.2-1.1 0.7-3 1.7-4.2 2.2-1.2 0.6-2.6 1.2-3.2 1.5-0.6 0.2-2 0.7-3 1.1-1.1 0.3-3 0.9-4.2 1.2-1.2 0.3-3.2 0.7-4.4 0.9-1.2 0.2-3.1 0.4-4.3 0.5-1.1 0.1-3.7 0.2-5.8 0.2-2.1 0-4.7-0.1-5.9-0.2-1.1-0.1-3-0.3-4.2-0.5-1.2-0.2-3.1-0.5-4.2-0.7-1.1-0.3-2.8-0.7-3.7-0.9-1-0.3-2.6-0.8-3.6-1.2-1-0.3-2.6-1-3.6-1.4-1-0.4-2.6-1.2-3.6-1.8-1-0.5-2.6-1.4-3.7-2.1-1-0.6-2.4-1.6-3.1-2.1-0.8-0.6-2.1-1.6-3-2.5-1-0.8-2.6-2.3-3.6-3.3-1-1.1-2.5-2.6-3.2-3.5-0.7-0.9-1.8-2.3-2.4-3.2-0.7-1-1.7-2.4-2.2-3.3-0.5-0.9-1.4-2.5-1.9-3.5-0.5-1.1-1.3-2.7-1.7-3.6-0.4-0.9-1-2.5-1.3-3.6-0.4-1-0.9-2.9-1.3-4.1-0.3-1.2-0.7-3.2-0.9-4.4-0.3-1.2-0.6-3.1-0.7-4.2-0.2-1-0.4-3.5-0.5-5.5-0.1-2.9-0.1-4.6 0-7.7 0.1-2.2 0.4-5.3 0.6-6.8 0.1-1.5 0.5-3.6 0.6-4.6 0.2-1 0.6-2.7 0.9-3.8 0.3-1.1 0.7-2.9 1.1-3.9 0.3-1.1 1-3 1.5-4.3 0.5-1.3 1.5-3.6 2.3-5.2 0.8-1.5 2-3.6 2.7-4.6 0.6-1 1.7-2.6 2.4-3.5 0.6-0.9 2-2.6 2.9-3.6 0.9-1.1 2.7-2.9 4.1-4.1 1.3-1.2 3.1-2.7 4-3.3 0.9-0.7 2.5-1.7 3.4-2.3 1-0.7 3-1.7 4.3-2.4 1.4-0.7 3.5-1.6 4.7-2.1 1.2-0.4 3.2-1.1 4.4-1.4 1.2-0.3 3-0.8 4-1 1.1-0.2 2.9-0.5 4-0.7 1.1-0.1 2.6-0.3 3.4-0.4 0.8-0.1 3.2-0.1 5.4-0.1zm-4.7 23c-0.6 0.1-1.7 0.3-2.3 0.4-0.6 0.1-2 0.5-3 0.8-1 0.3-2.7 1-3.8 1.6-1 0.5-2.4 1.3-3 1.7-0.6 0.5-1.5 1.2-2.1 1.8-0.6 0.5-1.5 1.4-2.1 2-0.5 0.6-1.4 1.8-2 2.7-0.6 1-1.5 2.6-2 3.6-0.5 1-1.2 2.6-1.6 3.6-0.3 1-0.9 2.8-1.1 3.9-0.3 1.2-0.6 2.4-0.6 2.7l-0.1 0.5h56.4c-0.2-0.7-0.4-1.8-0.6-2.9-0.1-1.1-0.4-2.6-0.6-3.3-0.2-0.8-0.6-2-0.8-2.7-0.2-0.7-0.7-2-1-2.8-0.3-0.7-0.9-1.9-1.2-2.5-0.3-0.6-1-1.6-1.4-2.3-0.5-0.7-1.4-1.8-2.1-2.5-0.6-0.7-1.7-1.7-2.5-2.2-0.7-0.5-2-1.3-2.9-1.8-0.8-0.4-2.2-1-3-1.3-0.9-0.2-2.4-0.6-3.5-0.8-1-0.2-2.8-0.4-3.8-0.5-1.1 0-2.2-0.1-2.6-0.1-0.4-0.1-1.7 0-3.1 0-1.3 0.1-2.9 0.2-3.6 0.4zm349.4-23.1c2.5 0 5.1 0.1 6.8 0.3 1.5 0.1 3.6 0.4 4.7 0.6 1.1 0.2 2.8 0.5 3.8 0.7 1 0.3 2.6 0.7 3.7 1 1 0.4 2.8 1 3.9 1.5 1.1 0.4 2.7 1.2 3.6 1.6 0.8 0.5 2.2 1.3 3.1 1.8 0.8 0.5 2.2 1.5 3.1 2.1 0.8 0.6 2.2 1.7 3 2.5 0.9 0.7 2.2 1.9 3.1 2.8 0.8 0.9 1.9 2 2.4 2.6 0.5 0.6 1.4 1.8 2 2.6 0.6 0.9 1.6 2.3 2.2 3.3 0.6 1 1.5 2.6 2 3.6 0.5 1 1.2 2.4 1.5 3.2 0.4 0.8 1 2.4 1.4 3.6 0.5 1.2 1.1 3.2 1.4 4.4 0.4 1.2 0.8 3 1.1 4.1 0.2 1.1 0.5 2.9 0.7 4.1 0.2 1.1 0.5 3.1 0.6 4.4 0.1 1.2 0.3 3.9 0.3 6 0.1 2.2 0.1 5.5-0.1 11.1h-41.7c-39.6 0-41.7 0.1-41.6 0.3 0 0.2 0.1 0.9 0.2 1.7 0.1 0.7 0.4 2.1 0.6 3 0.1 1 0.5 2.5 0.8 3.5 0.2 0.9 0.8 2.5 1.2 3.5 0.4 1 1 2.3 1.3 2.9 0.3 0.6 0.8 1.6 1.2 2.2 0.4 0.6 1.2 1.7 1.8 2.5 0.6 0.7 1.6 1.9 2.2 2.5 0.7 0.7 1.7 1.6 2.4 2 0.6 0.5 1.7 1.2 2.5 1.7 0.7 0.4 1.8 1 2.5 1.2 0.6 0.3 1.8 0.7 2.5 1 0.7 0.2 1.9 0.5 2.6 0.7 0.7 0.1 2.1 0.3 3.1 0.5 1.1 0.1 3.2 0.2 4.8 0.2 1.6 0 3.6-0.1 4.6-0.2 1-0.2 2.3-0.4 3-0.5 0.7-0.2 2-0.5 2.8-0.8 0.9-0.3 2.5-1 3.6-1.5 1.1-0.5 2.7-1.5 3.6-2.1 0.9-0.6 2.2-1.7 2.9-2.4 0.7-0.7 1.7-1.8 2.3-2.4 0.5-0.7 1.3-1.8 1.8-2.6 0.6-0.8 1.2-2 1.6-2.6 0.3-0.7 0.7-1.2 0.8-1.2 0.1 0.1 5.8 1.8 12.5 3.8 6.8 2 12.5 3.8 12.6 3.9 0.2 0.1 0 0.6-0.7 2-0.5 1.1-1.4 2.8-2 3.9-0.6 1.1-1.6 2.7-2.2 3.5-0.6 0.9-1.7 2.4-2.5 3.4-0.8 0.9-2.4 2.7-3.6 4-1.2 1.2-3.1 2.9-4.1 3.7-1.1 0.9-2.7 2-3.5 2.6-0.9 0.6-2.4 1.6-3.4 2.1-1 0.6-2.5 1.4-3.4 1.9-0.9 0.4-2.5 1.2-3.6 1.6-1 0.4-2.8 1.1-3.9 1.4-1.1 0.4-2.8 0.9-3.8 1.1-0.9 0.3-2.5 0.6-3.6 0.8-1 0.2-2.9 0.4-4.3 0.6-1.5 0.1-4 0.2-6.3 0.2-2.1 0-4.8-0.1-5.9-0.2-1.1-0.1-3.1-0.3-4.4-0.5-1.3-0.2-3.1-0.5-3.9-0.7-0.8-0.1-2.5-0.5-3.7-0.9-1.2-0.3-3.1-0.9-4.2-1.3-1.1-0.4-2.7-1-3.5-1.4-0.9-0.4-2.3-1-3.1-1.5-0.7-0.4-2.2-1.2-3.2-1.8-1-0.6-2.5-1.6-3.3-2.2-0.9-0.6-2.3-1.7-3.3-2.5-1-0.8-2.8-2.6-4.1-3.9-1.3-1.3-3-3.2-3.7-4.1-0.7-1-1.7-2.3-2.2-3-0.4-0.7-1.2-2-1.8-2.9-0.5-0.8-1.3-2.4-1.9-3.5-0.5-1-1.2-2.6-1.6-3.4-0.3-0.8-0.9-2.3-1.2-3.3-0.4-1-0.9-2.7-1.2-3.7-0.2-1-0.7-2.7-0.9-3.8-0.2-1.1-0.5-2.8-0.7-3.8-0.1-1-0.3-2.8-0.5-4.1-0.1-1.4-0.2-4.2-0.2-7.1 0-2.9 0.1-5.7 0.2-7.3 0.2-1.4 0.4-3.5 0.5-4.5 0.2-1.1 0.4-2.7 0.6-3.7 0.2-1 0.6-2.6 0.9-3.7 0.3-1.1 0.7-2.9 1.1-4 0.3-1 0.9-2.8 1.4-3.9 0.4-1.1 1.1-2.8 1.6-3.7 0.5-1 1.3-2.6 1.8-3.6 0.6-1 1.6-2.6 2.2-3.6 0.7-1 1.6-2.2 2-2.8 0.4-0.5 1.4-1.7 2.2-2.6 0.8-0.9 2.4-2.6 3.7-3.8 1.2-1.2 3.1-2.8 4.1-3.6 1.1-0.8 2.7-2 3.7-2.6 1-0.6 2.4-1.4 3.1-1.8 0.7-0.4 2.2-1.2 3.2-1.6 1-0.5 2.6-1.2 3.6-1.5 1.1-0.4 2.4-0.9 3-1.1 0.7-0.1 2.3-0.6 3.6-0.9 1.4-0.3 3.3-0.7 4.3-0.8 1-0.2 2.7-0.4 3.8-0.5 1.1-0.1 3.8-0.2 6-0.3zm-4.5 23c-0.6 0.1-1.8 0.4-2.6 0.6-0.9 0.1-1.9 0.4-2.4 0.6-0.4 0.1-1.5 0.5-2.3 0.8-0.8 0.4-2 0.9-2.7 1.3-0.6 0.3-1.8 1.1-2.5 1.6-0.7 0.5-1.9 1.5-2.7 2.2-0.7 0.8-1.9 2.2-2.6 3.1-0.8 1.1-1.7 2.7-2.5 4.3-0.7 1.4-1.5 3.3-1.8 4.2-0.4 1-0.8 2.5-1.1 3.4-0.2 0.8-0.4 2-0.5 2.4l-0.1 0.9h56.4c-0.3-1.3-0.5-2.7-0.7-3.8-0.2-1.2-0.7-2.9-0.9-3.9-0.3-1-0.9-2.6-1.2-3.5-0.4-1-1-2.3-1.4-3-0.3-0.7-1.1-1.9-1.7-2.6-0.5-0.8-1.4-1.9-1.9-2.4-0.5-0.5-1.4-1.2-1.9-1.7-0.6-0.4-1.6-1.1-2.3-1.5-0.7-0.4-1.8-1-2.5-1.2-0.7-0.3-1.9-0.7-2.7-1-0.8-0.2-2.2-0.5-3-0.7-0.8-0.1-2.3-0.3-3.2-0.3-0.9 0-2-0.1-2.4-0.1-0.4-0.1-1.9 0-3.2 0-1.3 0.1-2.9 0.2-3.6 0.3zm-116.9-23.1c1.2 0 3.3 0 4.5 0.1 1.3 0.1 3.1 0.3 4.1 0.5 1.1 0.1 2.8 0.4 3.9 0.6 1.1 0.3 2.9 0.8 4 1.1 1.1 0.4 2.6 1 3.4 1.4 0.8 0.3 2.1 1 2.9 1.5 0.8 0.4 2.2 1.3 3.1 1.9 0.9 0.6 2.1 1.5 2.7 2 0.6 0.5 1.5 1.3 2 1.9 0.6 0.5 1.6 1.5 2.2 2.3 0.7 0.8 1.7 2.1 2.3 2.9 0.6 0.9 1.5 2.2 1.9 2.9 0.5 0.8 1.3 2.2 1.7 3.1 0.5 1 1.1 2.2 1.3 2.7 0.3 0.6 0.7 1.7 1 2.6 0.3 0.9 0.8 2.2 1 3.1 0.3 0.8 0.7 2.5 1 3.7 0.3 1.3 0.7 3.2 0.9 4.3 0.2 1.1 0.6 3.7 1.3 9.5l0.1 70.3h-26.1v-28.1c0-16 0-29.6-0.1-31.4-0.1-1.7-0.3-4-0.4-5-0.1-1.1-0.3-2.8-0.4-3.8-0.1-1-0.4-2.7-0.7-3.7-0.2-1-0.6-2.5-0.9-3.4-0.3-0.9-0.8-2.4-1.2-3.3-0.4-1-1-2.2-1.2-2.8-0.3-0.5-1-1.6-1.5-2.5-0.6-0.8-1.7-2.2-2.4-3-0.8-0.8-1.8-1.8-2.3-2.2-0.4-0.4-1.3-1-2-1.4-0.6-0.4-1.6-1-2.1-1.2-0.6-0.3-1.5-0.6-2-0.8-0.5-0.2-1.6-0.5-2.5-0.7-0.8-0.2-2.7-0.5-4-0.6-1.4-0.1-3.5-0.2-4.6-0.1-1.1 0-2.7 0.2-3.5 0.3-0.9 0.2-2.3 0.5-3 0.7-0.8 0.3-2 0.7-2.7 1-0.7 0.2-1.7 0.7-2.3 1.1-0.6 0.3-1.8 1-2.6 1.6-0.7 0.5-2 1.6-2.7 2.3-0.7 0.8-1.8 2.1-2.5 3-0.6 0.9-1.4 2.4-1.8 3.2-0.4 0.8-1 2.1-1.3 2.8-0.3 0.8-0.7 2-0.9 2.7-0.3 0.7-0.6 2-0.8 2.7-0.1 0.8-0.4 1.9-0.5 2.5 0 0.5-0.2 2-0.4 3.2-0.2 2-0.3 5.8-0.4 66.9h-26v-115.1h23v12.6l1.8-1.9c1-1.1 2.7-2.6 3.7-3.5 1.1-0.8 2.9-2.1 4-2.9 1.2-0.8 3.1-1.9 4.3-2.5 1.1-0.6 2.9-1.4 3.9-1.8 1-0.3 2.5-0.9 3.5-1.1 1-0.3 2.4-0.7 3.2-0.9 0.9-0.2 2.6-0.5 4-0.7 1.3-0.2 3.4-0.4 4.6-0.5 1.1 0 3.2-0.1 4.5-0.1zm-87.8 2.8c1.9 0 4.2 0.1 5 0.2 0.8 0.1 1.7 0.2 2.2 0.3v12c0 9.5 0 12-0.2 12-0.1 0-0.7-0.1-1.3-0.2-0.6-0.2-1.8-0.4-2.7-0.5-0.9-0.2-2.6-0.3-3.8-0.3-1.1 0-2.9 0.1-4 0.2-1 0.1-2.6 0.3-3.5 0.5-0.8 0.2-2.2 0.5-2.9 0.8-0.7 0.2-2.1 0.8-3 1.2-0.9 0.4-2.4 1.2-3.2 1.7-0.9 0.6-2.1 1.3-2.6 1.8-0.6 0.4-1.5 1.2-2.2 1.7-0.6 0.6-1.6 1.6-2.1 2.2-0.5 0.7-1.4 1.9-1.9 2.7-0.6 0.8-1.4 2.3-1.9 3.3-0.4 1-1.1 2.6-1.4 3.5-0.3 0.9-0.8 2.5-1 3.5-0.2 1-0.6 2.7-0.7 3.6-0.3 1.6-0.3 4.1-0.4 65.4h-26.1v-115.1h22.9v18.3l0.6-1.1c0.4-0.6 1.2-1.8 1.7-2.6 0.6-0.9 2.2-2.6 3.6-4 2.2-2.2 2.9-2.8 5-4.2 1.4-0.9 3.4-2.1 4.5-2.6 1-0.5 2.4-1.1 3-1.4 0.6-0.2 2.1-0.7 3.3-1.1 1.2-0.3 3.1-0.8 4.1-1 1-0.2 2.6-0.4 3.7-0.6 1-0.1 3.4-0.2 5.3-0.2z"/></svg>