<svg version="1.2" xmlns="http://www.w3.org/2000/svg" viewBox="0 0 1195 277" width="164" height="38"><style>.a{fill:#a8ec98}.b{fill:#fff}</style><path fill-rule="evenodd" class="a" d="m218.1 43h37.3v152.1h76.1v37.4h-76.1v-37.4h-37.3v37.4h-76.1v-37.4h76.1zm-76.1 0h37.4v113.5h-37.4zm152.1 0h37.4v113.4h-37.4z"/><path fill-rule="evenodd" class="b" d="m986.7 68h24.3v147.5h-24.3zm-569.2 3h24.3l0.1 66.8 57.5-66.8h14.8c9.8 0 14.8 0.1 14.8 0.2 0 0-13.9 16-61.8 70.7l26.1 29c14.3 16 29.2 32.5 40.1 44.6h-30.8l-60.7-67.1-0.1 67.1h-24.3zm169.3 33.2c2.1 0 4.8 0.1 6.2 0.2 1.3 0.1 3.3 0.4 4.4 0.5 1.1 0.2 2.9 0.6 4.1 0.9 1.2 0.3 2.9 0.8 3.8 1.1 0.9 0.3 2.2 0.8 3 1.1 0.7 0.3 2 0.9 2.9 1.3 0.8 0.5 2.2 1.2 3 1.7 0.8 0.5 2.1 1.3 2.8 1.9 0.7 0.5 1.9 1.4 2.7 2 0.7 0.6 1.8 1.6 2.4 2.2 0.6 0.5 1.7 1.7 2.5 2.6 0.8 0.9 1.9 2.2 2.4 2.9 0.5 0.7 1.4 2 1.9 2.9 0.6 0.8 1.5 2.4 2.1 3.5 0.6 1.1 1.4 2.8 1.8 3.8 0.5 1.1 1.1 2.6 1.4 3.5 0.3 0.9 0.7 2.3 1 3.2 0.3 0.9 0.7 2.6 1 3.8 0.2 1.2 0.6 3.2 0.8 4.5 0.2 1.3 0.5 3.5 0.7 4.9 0.2 1.8 0.2 4.1 0.3 7.5 0 2.7-0.1 5.5-0.3 7.9h-39.2c-26 0-39.1 0.1-39.1 0.2 0 0.1 0.1 0.8 0.2 1.7 0.1 0.8 0.4 2.2 0.5 3 0.2 0.8 0.5 2.1 0.7 2.9 0.2 0.8 0.6 2 0.9 2.7 0.2 0.7 0.7 1.8 1 2.5 0.3 0.7 0.9 1.8 1.4 2.5 0.4 0.7 1 1.7 1.4 2.2 0.4 0.5 1.1 1.4 1.6 2 0.4 0.5 1.2 1.4 1.8 1.8 0.5 0.4 1.5 1.2 2.2 1.7 0.6 0.5 2.1 1.3 3.1 1.8 1 0.5 2.5 1.1 3.2 1.3 0.8 0.2 1.9 0.5 2.5 0.7 0.6 0.1 1.9 0.3 2.9 0.4 1.1 0.2 3.1 0.3 4.6 0.3 1.5 0 3.4-0.1 4.2-0.3 0.9-0.1 2.1-0.3 2.8-0.4 0.6-0.2 1.7-0.4 2.3-0.6 0.6-0.2 1.7-0.6 2.5-0.9 0.7-0.3 1.9-0.9 2.6-1.3 0.6-0.4 1.7-1 2.4-1.5 0.7-0.5 1.6-1.3 2.2-1.8 0.5-0.5 1.4-1.5 2.1-2.3 0.7-0.8 1.5-1.9 1.9-2.5 0.4-0.6 1-1.7 1.4-2.4 0.6-1.1 0.8-1.3 1-1.3 0.2 0 5.6 1.6 12 3.6 6.4 1.9 11.6 3.5 11.7 3.6 0 0-0.3 0.8-0.7 1.7-0.4 1-1.3 2.5-1.8 3.5-0.6 1-1.5 2.5-2 3.3-0.5 0.7-1.5 2.1-2.2 3-0.7 0.9-2.3 2.7-3.5 3.9-1.2 1.3-3 2.9-4 3.7-0.9 0.8-2.4 1.9-3.3 2.5-0.8 0.6-2.3 1.5-3.3 2.1-1.1 0.6-2.8 1.6-4 2.1-1.1 0.5-2.5 1.1-3 1.4-0.6 0.2-1.9 0.7-2.8 1-1 0.3-2.8 0.9-4 1.1-1.1 0.3-3 0.7-4.1 0.9-1.2 0.2-3 0.4-4 0.5-1.1 0.1-3.6 0.2-5.5 0.2-2 0-4.5-0.1-5.5-0.2-1.1-0.1-2.9-0.3-4-0.5-1.2-0.2-2.9-0.5-4-0.7-1-0.2-2.6-0.6-3.5-0.9-0.9-0.2-2.4-0.7-3.4-1-0.9-0.4-2.5-1-3.4-1.4-0.9-0.4-2.4-1.1-3.3-1.6-1-0.5-2.5-1.4-3.5-2-1-0.6-2.3-1.5-3-2-0.7-0.5-1.9-1.6-2.8-2.3-0.9-0.8-2.4-2.2-3.4-3.2-0.9-1-2.3-2.4-3-3.3-0.6-0.8-1.7-2.2-2.3-3-0.6-0.9-1.5-2.3-2-3.1-0.5-0.8-1.3-2.3-1.8-3.3-0.5-1-1.2-2.5-1.6-3.4-0.3-0.8-0.9-2.4-1.3-3.3-0.3-1-0.8-2.8-1.1-3.9-0.3-1.1-0.7-3-0.9-4.2-0.3-1.1-0.5-2.9-0.7-3.9-0.1-1-0.3-3.3-0.4-5.2-0.1-2.7-0.1-4.4 0-7.3 0.1-2 0.3-4.9 0.5-6.3 0.2-1.5 0.5-3.4 0.6-4.4 0.2-0.9 0.6-2.5 0.8-3.6 0.3-1 0.8-2.7 1.1-3.7 0.3-0.9 0.9-2.8 1.4-4 0.5-1.2 1.5-3.4 2.2-4.8 0.8-1.5 1.9-3.5 2.5-4.4 0.6-1 1.6-2.5 2.2-3.3 0.7-0.9 1.9-2.4 2.8-3.4 0.9-1 2.6-2.7 3.8-3.8 1.3-1.2 3-2.6 3.9-3.2 0.8-0.6 2.2-1.6 3.2-2.2 0.9-0.6 2.7-1.6 4-2.2 1.3-0.6 3.3-1.5 4.4-1.9 1.1-0.5 3-1.1 4.1-1.4 1.1-0.3 2.9-0.7 3.8-0.9 1-0.2 2.7-0.5 3.7-0.7 1.1-0.1 2.5-0.3 3.3-0.3 0.7-0.1 3-0.2 5.1-0.2zm-4.4 21.7c-0.6 0.1-1.6 0.2-2.2 0.4-0.6 0.1-1.9 0.4-2.9 0.7-0.9 0.3-2.5 1-3.5 1.5-1 0.5-2.3 1.3-2.8 1.7-0.6 0.4-1.5 1.1-2.1 1.6-0.5 0.5-1.4 1.3-1.9 1.9-0.5 0.6-1.3 1.7-1.9 2.6-0.6 0.9-1.4 2.4-1.9 3.3-0.5 0.9-1.1 2.5-1.5 3.5-0.3 0.9-0.8 2.6-1.1 3.7-0.2 1-0.5 2.2-0.5 2.4l-0.1 0.5h53.1c-0.1-0.6-0.3-1.7-0.5-2.7-0.2-1-0.5-2.5-0.6-3.2-0.2-0.6-0.5-1.8-0.8-2.5-0.2-0.7-0.6-1.8-0.9-2.6-0.3-0.7-0.8-1.8-1.1-2.3-0.3-0.6-0.9-1.6-1.4-2.2-0.4-0.7-1.3-1.7-1.9-2.4-0.6-0.6-1.7-1.6-2.3-2-0.7-0.5-2-1.3-2.8-1.7-0.8-0.4-2.1-1-2.9-1.2-0.7-0.3-2.2-0.6-3.2-0.8-1-0.2-2.6-0.4-3.6-0.5-1 0-2.1-0.1-2.4-0.1-0.4 0-1.7 0-3 0.1-1.2 0-2.7 0.1-3.3 0.3zm328.9-21.7c2.3 0 4.8 0.1 6.4 0.2 1.4 0.2 3.4 0.4 4.5 0.6 1 0.2 2.6 0.5 3.5 0.7 0.9 0.2 2.5 0.6 3.5 0.9 0.9 0.4 2.6 1 3.6 1.4 1.1 0.4 2.6 1.1 3.4 1.6 0.8 0.4 2.2 1.1 2.9 1.6 0.8 0.5 2.1 1.4 2.9 2 0.9 0.6 2.2 1.6 2.9 2.3 0.8 0.7 2.1 1.9 2.9 2.7 0.8 0.8 1.8 1.9 2.3 2.5 0.5 0.5 1.3 1.6 1.9 2.4 0.5 0.8 1.4 2.2 2 3.1 0.6 0.9 1.4 2.4 1.9 3.4 0.5 0.9 1.2 2.3 1.5 3 0.3 0.8 0.9 2.3 1.3 3.4 0.4 1.1 1 3 1.3 4.1 0.3 1.1 0.7 2.9 1 3.9 0.2 1 0.5 2.7 0.7 3.8 0.2 1.1 0.4 3 0.5 4.1 0.1 1.2 0.3 3.8 0.4 5.8 0 2 0 5.1-0.1 10.4h-39.3c-37.3 0-39.3 0-39.2 0.3 0 0.1 0.1 0.8 0.2 1.5 0.1 0.7 0.3 2 0.5 2.9 0.2 0.9 0.5 2.4 0.8 3.3 0.2 0.8 0.8 2.3 1.1 3.2 0.4 1 1 2.2 1.2 2.8 0.3 0.6 0.8 1.5 1.2 2 0.3 0.6 1.1 1.7 1.6 2.4 0.6 0.7 1.6 1.8 2.2 2.4 0.6 0.6 1.6 1.5 2.2 1.9 0.6 0.5 1.7 1.1 2.3 1.5 0.7 0.4 1.8 1 2.4 1.2 0.6 0.3 1.7 0.7 2.4 0.9 0.6 0.2 1.7 0.5 2.4 0.7 0.6 0.1 2 0.3 3 0.4 1 0.2 3 0.3 4.5 0.3 1.4 0 3.3-0.1 4.3-0.3 0.9-0.1 2.2-0.3 2.8-0.4 0.6-0.2 1.9-0.5 2.7-0.8 0.8-0.2 2.3-0.9 3.3-1.4 1.1-0.5 2.6-1.4 3.4-1.9 0.8-0.6 2.1-1.6 2.8-2.3 0.6-0.6 1.6-1.7 2.1-2.3 0.5-0.6 1.3-1.7 1.8-2.4 0.4-0.8 1.1-1.9 1.4-2.5 0.3-0.6 0.6-1.1 0.8-1.1 0.1 0.1 5.4 1.7 11.8 3.6 6.4 1.9 11.7 3.6 11.8 3.6 0.2 0.1 0 0.6-0.7 2-0.4 1-1.3 2.6-1.9 3.6-0.5 1-1.5 2.5-2 3.4-0.6 0.8-1.6 2.2-2.4 3.1-0.7 0.9-2.2 2.6-3.3 3.7-1.2 1.2-3 2.8-4 3.6-0.9 0.8-2.4 1.9-3.3 2.4-0.8 0.6-2.2 1.5-3.1 2-0.9 0.5-2.3 1.3-3.2 1.8-0.9 0.4-2.4 1.1-3.4 1.5-1 0.4-2.6 1-3.7 1.3-1 0.4-2.6 0.8-3.5 1.1-0.9 0.2-2.4 0.5-3.4 0.7-1 0.1-2.8 0.4-4.1 0.5-1.4 0.2-3.8 0.3-5.9 0.3-2 0-4.5-0.1-5.5-0.2-1.1-0.1-3-0.3-4.2-0.5-1.3-0.2-2.9-0.5-3.7-0.6-0.8-0.2-2.3-0.6-3.5-0.9-1.1-0.3-2.8-0.8-3.9-1.2-1-0.4-2.5-1-3.4-1.4-0.8-0.3-2.1-0.9-2.8-1.3-0.7-0.4-2.1-1.2-3.1-1.8-0.9-0.5-2.3-1.5-3.1-2-0.8-0.6-2.1-1.7-3.1-2.4-0.9-0.8-2.6-2.4-3.8-3.7-1.2-1.2-2.8-2.9-3.5-3.8-0.7-1-1.6-2.2-2-2.9-0.5-0.6-1.2-1.8-1.7-2.6-0.5-0.9-1.3-2.4-1.8-3.3-0.5-1-1.2-2.5-1.5-3.3-0.3-0.8-0.9-2.2-1.2-3.1-0.4-1-0.8-2.5-1.1-3.5-0.3-0.9-0.7-2.5-0.9-3.6-0.2-1-0.5-2.6-0.6-3.5-0.1-0.9-0.3-2.7-0.5-3.9-0.1-1.3-0.2-3.9-0.2-6.6 0-2.8 0.1-5.4 0.2-7 0.2-1.3 0.4-3.2 0.5-4.2 0.1-1 0.4-2.5 0.5-3.4 0.2-1 0.6-2.5 0.8-3.6 0.3-1 0.8-2.7 1.1-3.7 0.3-1 0.9-2.6 1.3-3.7 0.4-1 1.1-2.6 1.5-3.5 0.5-0.9 1.2-2.4 1.8-3.3 0.5-1 1.4-2.5 2-3.4 0.7-1 1.5-2.1 1.9-2.6 0.4-0.6 1.3-1.7 2-2.5 0.8-0.9 2.4-2.5 3.5-3.6 1.2-1.2 3-2.7 3.9-3.4 1-0.8 2.6-1.9 3.5-2.4 0.9-0.6 2.2-1.4 2.9-1.8 0.7-0.4 2-1 3-1.5 0.9-0.4 2.5-1 3.4-1.4 1-0.3 2.3-0.8 2.9-0.9 0.6-0.2 2.1-0.6 3.3-0.9 1.3-0.3 3.1-0.7 4.1-0.8 0.9-0.2 2.5-0.4 3.6-0.5 1-0.1 3.5-0.2 5.6-0.2zm-4.2 21.6c-0.6 0.1-1.8 0.3-2.5 0.5-0.8 0.2-1.8 0.5-2.2 0.6-0.5 0.1-1.5 0.5-2.2 0.8-0.8 0.3-1.9 0.9-2.5 1.2-0.7 0.3-1.7 1-2.4 1.5-0.7 0.5-1.8 1.4-2.5 2.1-0.7 0.7-1.9 2-2.5 2.9-0.8 1.1-1.6 2.6-2.4 4-0.6 1.4-1.4 3.1-1.7 4.1-0.3 0.9-0.7 2.3-0.9 3.1-0.2 0.8-0.5 1.9-0.6 2.3l-0.1 0.8h53.1c-0.2-1.2-0.4-2.5-0.6-3.6-0.2-1.1-0.6-2.7-0.9-3.7-0.3-0.9-0.8-2.4-1.1-3.3-0.4-0.8-0.9-2.1-1.3-2.7-0.3-0.7-1-1.8-1.6-2.5-0.5-0.8-1.3-1.8-1.8-2.2-0.5-0.5-1.3-1.2-1.8-1.6-0.5-0.4-1.5-1.1-2.1-1.4-0.7-0.4-1.7-1-2.4-1.2-0.6-0.3-1.8-0.7-2.6-0.9-0.7-0.2-2-0.5-2.8-0.7-0.8-0.1-2.1-0.2-3-0.3-0.8 0-1.9-0.1-2.3-0.1-0.3 0-1.7 0-2.9 0.1-1.3 0-2.8 0.1-3.4 0.2zm-110.1-21.8c1.2 0 3.1 0.1 4.3 0.2 1.1 0.1 2.9 0.2 3.8 0.4 1 0.1 2.6 0.4 3.6 0.6 1.1 0.2 2.8 0.7 3.8 1.1 1 0.3 2.5 0.9 3.2 1.2 0.8 0.4 2 1 2.8 1.4 0.8 0.5 2.1 1.3 2.9 1.9 0.8 0.5 1.9 1.4 2.5 1.8 0.6 0.5 1.4 1.3 1.9 1.8 0.6 0.5 1.5 1.5 2.1 2.2 0.6 0.7 1.6 2 2.2 2.7 0.5 0.8 1.3 2.1 1.8 2.8 0.4 0.7 1.1 2 1.6 2.9 0.4 0.9 0.9 2 1.2 2.5 0.2 0.5 0.6 1.6 0.9 2.4 0.3 0.9 0.7 2.2 1 2.9 0.2 0.8 0.6 2.4 0.9 3.6 0.3 1.1 0.7 3 0.8 4 0.2 1 0.6 3.5 1.2 8.9l0.1 66.3h-24.5v-26.5c0-15.1-0.1-27.8-0.2-29.5 0-1.7-0.2-3.8-0.3-4.8-0.1-1-0.3-2.6-0.4-3.6-0.1-0.9-0.4-2.5-0.6-3.4-0.2-1-0.6-2.4-0.9-3.2-0.2-0.9-0.8-2.3-1.1-3.2-0.4-0.9-0.9-2.1-1.2-2.6-0.2-0.5-0.9-1.6-1.4-2.3-0.5-0.8-1.5-2.1-2.2-2.9-0.8-0.8-1.7-1.7-2.1-2-0.5-0.4-1.3-1-1.9-1.4-0.6-0.4-1.6-0.9-2.1-1.1-0.5-0.3-1.3-0.6-1.8-0.7-0.4-0.2-1.5-0.5-2.3-0.7-0.9-0.2-2.6-0.5-3.9-0.6-1.3-0.1-3.2-0.1-4.2-0.1-1.1 0.1-2.6 0.2-3.4 0.4-0.8 0.1-2.1 0.4-2.8 0.6-0.8 0.2-1.9 0.6-2.5 0.9-0.7 0.2-1.7 0.7-2.2 1-0.6 0.3-1.7 1-2.4 1.5-0.7 0.6-1.9 1.5-2.6 2.2-0.7 0.7-1.7 2-2.3 2.9-0.6 0.8-1.4 2.2-1.7 2.9-0.4 0.8-1 2-1.3 2.7-0.2 0.7-0.6 1.8-0.8 2.5-0.3 0.7-0.6 1.9-0.7 2.6-0.2 0.8-0.4 1.8-0.5 2.3-0.1 0.5-0.3 1.9-0.4 3.1-0.2 1.9-0.3 5.4-0.4 63h-24.5v-108.4h21.7v11.8l1.7-1.8c0.9-1 2.5-2.4 3.5-3.2 1-0.8 2.7-2.1 3.7-2.8 1.1-0.7 2.9-1.8 4.1-2.3 1.1-0.6 2.7-1.4 3.6-1.7 1-0.3 2.4-0.8 3.3-1.1 1-0.3 2.3-0.6 3.1-0.8 0.8-0.2 2.4-0.5 3.7-0.6 1.3-0.2 3.2-0.4 4.3-0.5 1.1-0.1 3-0.1 4.3-0.2zm-82.7 2.7c1.8 0 4 0.1 4.7 0.2 0.8 0 1.6 0.2 2.2 0.3v11.3c0 8.9-0.1 11.3-0.2 11.3-0.1 0-0.7-0.1-1.3-0.3-0.5-0.1-1.7-0.3-2.5-0.4-0.9-0.1-2.5-0.3-3.6-0.3-1.1 0-2.8 0.1-3.8 0.2-0.9 0.1-2.4 0.3-3.2 0.5-0.9 0.2-2.1 0.5-2.8 0.7-0.7 0.2-2 0.7-2.8 1.2-0.9 0.4-2.3 1.1-3.1 1.6-0.8 0.5-1.9 1.2-2.4 1.6-0.5 0.4-1.5 1.2-2.1 1.7-0.5 0.5-1.4 1.5-1.9 2-0.5 0.7-1.3 1.8-1.9 2.6-0.5 0.7-1.2 2.2-1.7 3.1-0.4 0.9-1 2.4-1.3 3.3-0.3 0.9-0.8 2.4-1 3.3-0.2 0.9-0.5 2.5-0.7 3.4-0.2 1.5-0.3 3.8-0.3 61.6h-24.5v-108.4h21.5v17.2l0.6-1.1c0.3-0.5 1-1.6 1.6-2.4 0.5-0.8 2-2.4 3.3-3.8 2.1-2 2.7-2.6 4.8-3.9 1.3-0.9 3.1-2 4.1-2.5 1-0.4 2.3-1 2.9-1.2 0.5-0.2 1.9-0.7 3.1-1.1 1.2-0.3 2.9-0.8 3.8-0.9 1-0.2 2.5-0.5 3.5-0.6 1-0.1 3.2-0.2 5-0.2z"/></svg>