<svg version="1.2" baseProfile="tiny-ps" xmlns="http://www.w3.org/2000/svg" viewBox="0 0 1074 227" width="161" height="34">
	<title>lighty_server-wordmark</title>
	<style>
		tspan { white-space:pre }
		.shp0 { fill: #ffffff } 
		.shp1 { fill: #8e9297 } 
		.shp2 { fill: #000000 } 
		.shp3 { fill: #fff3f4 } 
		.shp4 { fill: #c44145 } 
	</style>
	<path id="LIGHTY EMOJIS! " fill-rule="evenodd" class="shp0" d="M27.43 129.8L52.98 104.46L52.98 180.01L93.95 180.01L93.95 205.14L27.43 205.14L27.43 129.8ZM129.49 205L104.03 205L104.03 104.32L129.49 104.32L129.49 205ZM196.47 134.18C190.92 120.67 168.45 123.8 168.45 137.02L168.45 171.58C168.45 187.37 197.89 187.22 197.89 171.58L197.89 167.88L181.82 167.88L181.82 146.55L222.35 146.55L222.35 171.58C222.35 194.76 203.01 206.42 182.82 206.42C162.91 206.42 143 194.76 143 171.58L143 137.02C143 114.27 162.91 102.89 182.82 102.89C195.9 102.89 210.83 108.3 217.8 124.37L196.47 134.18ZM259.75 205L234.16 205L234.16 104.32L259.75 104.32L259.75 142.43L288.76 142.43L288.76 104.32L314.36 104.32L314.36 205L288.76 205L288.76 167.03L259.75 167.03L259.75 205ZM376.79 128.35L376.79 205L351.05 205L351.05 128.35L324.32 128.35L324.32 104.17L403.53 104.17L403.53 128.35L376.79 128.35ZM439.36 205L439.36 165.32L404.24 104.32L433.82 104.32L452.02 141.29L470.22 104.32L500.09 104.32L464.82 165.32L464.82 205L439.36 205ZM553.42 143.85L594.23 143.85L594.23 165.89L553.42 165.89L553.42 180.97L597.79 180.97L597.79 205L527.68 205L527.68 104.32L597.79 104.32L597.79 128.21L553.42 128.21L553.42 143.85ZM611.3 104.32L636.75 104.32L657.94 153.52L679.27 104.32L704.73 104.32L704.73 205L679.13 205L679.27 175.99L680.84 155.65L679.98 155.51L666.76 190.07L649.27 190.07L635.76 155.51L635.05 155.65L636.75 175.99L636.75 205L611.3 205L611.3 104.32ZM718.24 137.45C718.24 114.27 739 102.89 759.91 102.89C780.81 102.89 801.72 114.41 801.72 137.45L801.72 171.87C801.72 194.9 780.95 206.42 760.05 206.42C739.14 206.42 718.24 194.9 718.24 171.87L718.24 137.45ZM743.69 171.87C743.69 179.26 751.94 182.82 760.05 182.82C768.15 182.82 776.26 179.12 776.26 171.87L776.26 137.45C776.26 129.63 767.87 126.07 759.62 126.07C751.66 126.07 743.69 130.06 743.69 137.45L743.69 171.87ZM831.72 170.44C833.14 178.55 839.83 181.82 846.09 181.82C852.34 181.82 858.32 177.98 858.32 172.15L858.32 127.35L835.42 127.35L835.42 104.32L883.49 104.32L883.49 172.15C883.49 194.05 864.29 206.42 845.09 206.42C827.74 206.42 810.53 196.75 807.69 175.42L831.72 170.44ZM924.16 205L898.7 205L898.7 104.32L924.16 104.32L924.16 205ZM951.32 173.14C961.42 185.37 983.6 185.94 984.31 175.14C984.6 169.45 975.36 166.18 967.11 165.04C950.89 162.48 936.11 152.24 936.11 133.04C936.11 113.27 954.02 102.89 972.51 102.89C984.74 102.89 996.54 106.31 1006.93 118.96L990.29 131.76C979.76 120.53 961.7 120.95 961.28 132.62C961.56 137.45 966.82 140.29 974.64 142C992.56 145.27 1010.48 151.53 1009.34 176.27C1008.49 195.76 988.01 206.42 969.52 206.42C957.44 206.42 944.64 200.31 935.25 188.22L951.32 173.14ZM1018.44 103.75L1047.46 103.75L1046.03 173.71L1019.87 173.71L1018.44 103.75ZM1033.09 177.98C1041.06 177.98 1047.46 184.38 1047.46 192.34C1047.46 200.16 1041.06 206.42 1033.09 206.42C1025.27 206.42 1019.01 200.16 1019.01 192.34C1019.01 184.38 1025.27 177.98 1033.09 177.98Z" />
	<path id="Verified Lightcord Server " fill-rule="evenodd" class="shp1" d="M323.86 79.17L316.51 79.17L302.15 40.95L310.06 39.59L320.47 69.5L330.7 39.98L338.51 39.98L323.86 79.17ZM361.58 66.67L344.05 66.67C344.39 71.99 347.21 74.31 351.4 74.31C354.9 74.31 357.79 73.01 360.78 70.91L361.58 76.23C358.64 78.26 355.07 79.57 350.66 79.57C343.03 79.57 337.32 75.21 337.32 65.37C337.32 56.5 342.63 51.12 349.76 51.12C357.96 51.12 361.63 57.29 361.63 65.03C361.63 65.6 361.58 66.28 361.58 66.67ZM349.59 55.82C346.87 55.82 344.67 57.97 344.16 62.43L355.02 62.43C354.56 58.19 352.87 55.82 349.59 55.82ZM373.9 63.34L373.9 79L367.12 79L367.12 51.69L372.88 51.69L373.73 57.17C375.54 54.01 378.26 51.35 382.5 51.12L383.57 57.85C379.33 58.14 375.83 60.4 373.9 63.34ZM391.6 47.11C389.34 47.11 387.53 45.53 387.53 43.26C387.53 40.95 389.34 39.31 391.6 39.31C393.81 39.31 395.62 40.95 395.62 43.26C395.62 45.53 393.81 47.11 391.6 47.11ZM388.15 79L388.15 51.69L394.94 51.69L394.94 79L388.15 79ZM413.99 44.23C411.67 44.23 410.43 45.24 410.43 47.67L410.43 51.69L415.63 51.69L416.48 57.23L410.43 57.23L410.43 79L403.7 79L403.7 57.23L399.74 57.23L399.74 51.69L403.7 51.69L403.7 47C403.7 40.95 407.55 38.68 413.14 38.68C414.33 38.68 415.24 38.8 415.92 38.91L416.82 44.45C416.14 44.34 415.12 44.23 413.99 44.23ZM424.28 47.11C422.02 47.11 420.21 45.53 420.21 43.26C420.21 40.95 422.02 39.31 424.28 39.31C426.49 39.31 428.3 40.95 428.3 43.26C428.3 45.53 426.49 47.11 424.28 47.11ZM420.83 79L420.83 51.69L427.62 51.69L427.62 79L420.83 79ZM457.64 66.67L440.12 66.67C440.46 71.99 443.28 74.31 447.47 74.31C450.97 74.31 453.86 73.01 456.85 70.91L457.64 76.23C454.7 78.26 451.14 79.57 446.73 79.57C439.1 79.57 433.39 75.21 433.39 65.37C433.39 56.5 438.7 51.12 445.83 51.12C454.03 51.12 457.7 57.29 457.7 65.03C457.7 65.6 457.64 66.28 457.64 66.67ZM445.66 55.82C442.94 55.82 440.74 57.97 440.23 62.43L451.09 62.43C450.63 58.19 448.94 55.82 445.66 55.82ZM481.05 79L480.49 75.21C478.57 77.53 475.91 79.57 472.12 79.57C466.41 79.57 461.83 75.32 461.83 66.11C461.83 55.93 467.43 51.41 473.76 51.41C476.36 51.41 478.45 51.86 480.09 52.42L480.09 39.25L486.88 38.17L486.88 79L481.05 79ZM480.09 58.02C478.4 57.23 477.1 56.83 474.78 56.83C471.22 56.83 468.61 59.72 468.61 65.71C468.61 71.03 470.88 73.52 473.87 73.52C476.36 73.52 478.28 72.05 480.09 69.78L480.09 58.02ZM506.56 79L506.56 39.98L514.08 39.98L514.08 72.38L527.08 72.38L528.1 79L506.56 79ZM536.58 47.11C534.32 47.11 532.51 45.53 532.51 43.26C532.51 40.95 534.32 39.31 536.58 39.31C538.79 39.31 540.6 40.95 540.6 43.26C540.6 45.53 538.79 47.11 536.58 47.11ZM533.13 79L533.13 51.69L539.92 51.69L539.92 79L533.13 79ZM571.47 51.29L572.37 56.72L567.4 57.06C567.91 58.14 568.13 59.38 568.13 60.62C568.13 66.5 563.1 70.01 557.22 70.01C556.43 70.01 555.69 69.95 555.01 69.84C554.34 70.35 553.88 70.86 553.88 71.31C553.88 72.21 554.73 72.44 558.97 73.06L562.48 73.4C568.08 74.19 571.58 75.95 571.58 80.13C571.58 86.01 565.14 89.29 557.22 89.29C549.81 89.29 544.21 87.03 544.21 82.51C544.21 79.96 545.97 77.98 549.36 76.06C548.29 75.21 547.78 74.19 547.78 73.12C547.78 71.59 548.96 70.12 551.23 68.77C548 67.24 546.08 64.41 546.08 60.79C546.08 54.86 550.94 51.12 557.05 51.12C560.16 51.12 562.82 52.03 564.8 53.67L571.47 51.29ZM557.11 55.48C554.11 55.48 552.36 57.8 552.36 60.79C552.36 63.62 554.17 65.77 557.11 65.77C560.1 65.77 561.91 63.56 561.91 60.62C561.91 57.68 559.99 55.48 557.11 55.48ZM550.1 81.77C550.1 83.81 552.53 85.28 557.67 85.28C562.53 85.28 565.31 83.64 565.31 81.6C565.31 80.13 564.12 79.28 560.73 78.77L557.05 78.32C555.18 78.1 554.34 77.93 552.98 77.64C551 79.06 550.1 80.36 550.1 81.77ZM592.96 79L592.96 61.13C592.96 58.76 591.94 57.12 589.45 57.12C587.3 57.12 585.21 58.47 583.23 60.57L583.23 79L576.44 79L576.44 39.25L583.23 38.17L583.23 55.14C585.49 53.05 588.32 51.12 591.94 51.12C597.03 51.12 599.74 54.23 599.74 59.32L599.74 79L592.96 79ZM616.93 79.45C611.56 79.45 607.94 77.47 607.94 71.25L607.94 57.23L604.1 57.23L604.1 51.69L607.94 51.69L607.94 43.04L614.61 42.02L614.61 51.69L620.21 51.69L621.06 57.23L614.61 57.23L614.61 70.12C614.61 72.33 615.63 73.52 618.23 73.52C619.02 73.52 619.76 73.46 620.38 73.29L621.23 79C620.15 79.23 618.91 79.45 616.93 79.45ZM637.63 79.51C630.05 79.51 624.68 74.42 624.68 65.49C624.68 55.99 630.61 51.12 637.85 51.12C641.53 51.12 644.24 52.08 646.39 53.44L645.43 59.55C643.11 57.8 640.91 57 638.25 57C634.35 57 631.52 59.89 631.52 65.32C631.52 70.97 634.57 73.68 638.7 73.68C641.08 73.68 643.22 73.06 645.77 71.08L646.67 76.85C643.9 78.77 641.08 79.51 637.63 79.51ZM662.96 79.57C655.55 79.57 650.18 74.25 650.18 65.37C650.18 56.5 655.61 51.12 663.01 51.12C670.48 51.12 675.91 56.5 675.91 65.37C675.91 74.25 670.42 79.57 662.96 79.57ZM662.96 56.72C658.94 56.72 656.79 60.28 656.79 65.37C656.79 70.35 659 74.02 662.96 74.02C667.14 74.02 669.29 70.46 669.29 65.37C669.29 60.34 667.03 56.72 662.96 56.72ZM688.18 63.34L688.18 79L681.39 79L681.39 51.69L687.16 51.69L688.01 57.17C689.82 54.01 692.53 51.35 696.77 51.12L697.85 57.85C693.6 58.14 690.1 60.4 688.18 63.34ZM719.28 79L718.71 75.21C716.79 77.53 714.13 79.57 710.34 79.57C704.63 79.57 700.05 75.32 700.05 66.11C700.05 55.93 705.65 51.41 711.98 51.41C714.58 51.41 716.67 51.86 718.31 52.42L718.31 39.25L725.1 38.17L725.1 79L719.28 79ZM718.31 58.02C716.62 57.23 715.32 56.83 713 56.83C709.44 56.83 706.84 59.72 706.84 65.71C706.84 71.03 709.1 73.52 712.09 73.52C714.58 73.52 716.51 72.05 718.31 69.78L718.31 58.02ZM755.41 79.45C750.66 79.45 746.59 78.38 743.14 76.74L744.27 69.9C747.55 71.82 751.62 73.35 755.52 73.35C758.97 73.35 761.35 71.71 761.35 68.6C761.35 65.71 759.99 64.52 754.33 62.09C746.76 58.98 743.7 56.5 743.7 50.45C743.7 43.55 749.02 39.53 756.31 39.53C760.72 39.53 763.78 40.44 766.6 41.91L765.47 48.69C762.65 46.83 759.31 45.64 756.26 45.64C752.52 45.64 750.88 47.45 750.88 49.82C750.88 52.31 752.13 53.5 757.56 55.76C765.59 59.04 768.53 61.81 768.53 67.86C768.53 75.49 762.93 79.45 755.41 79.45ZM797.08 66.67L779.55 66.67C779.89 71.99 782.72 74.31 786.9 74.31C790.41 74.31 793.29 73.01 796.29 70.91L797.08 76.23C794.14 78.26 790.58 79.57 786.17 79.57C778.53 79.57 772.82 75.21 772.82 65.37C772.82 56.5 778.14 51.12 785.26 51.12C793.46 51.12 797.14 57.29 797.14 65.03C797.14 65.6 797.08 66.28 797.08 66.67ZM785.09 55.82C782.38 55.82 780.17 57.97 779.67 62.43L790.52 62.43C790.07 58.19 788.37 55.82 785.09 55.82ZM809.41 63.34L809.41 79L802.62 79L802.62 51.69L808.39 51.69L809.24 57.17C811.05 54.01 813.76 51.35 818 51.12L819.08 57.85C814.84 58.14 811.33 60.4 809.41 63.34ZM837.06 79.11L830.44 79.11L820.89 52.2L828.01 51.29L834.12 70.69L840 51.69L846.73 51.69L837.06 79.11ZM873.02 66.67L855.49 66.67C855.83 71.99 858.66 74.31 862.84 74.31C866.35 74.31 869.23 73.01 872.23 70.91L873.02 76.23C870.08 78.26 866.52 79.57 862.11 79.57C854.47 79.57 848.76 75.21 848.76 65.37C848.76 56.5 854.08 51.12 861.2 51.12C869.4 51.12 873.08 57.29 873.08 65.03C873.08 65.6 873.02 66.28 873.02 66.67ZM861.03 55.82C858.32 55.82 856.11 57.97 855.6 62.43L866.46 62.43C866.01 58.19 864.31 55.82 861.03 55.82ZM885.35 63.34L885.35 79L878.56 79L878.56 51.69L884.33 51.69L885.18 57.17C886.99 54.01 889.7 51.35 893.94 51.12L895.02 57.85C890.78 58.14 887.27 60.4 885.35 63.34Z" />
	<g id="Layer 5">
		<path id="Path 0" class="shp2" d="M215.6 19C217.48 19 217.69 19.05 218.01 19.52C218.25 19.88 218.36 20.62 218.36 21.8C218.36 22.76 218.21 24.28 218.02 25.17C217.83 26.07 217.67 27.04 217.67 27.33C217.66 27.78 217.75 27.83 218.3 27.72C218.65 27.64 219.52 27.22 220.22 26.79C220.93 26.35 222.55 25.63 223.83 25.18C225.12 24.73 226.92 24.26 227.85 24.13C228.78 24 230.8 23.89 232.34 23.89C234.23 23.89 235.15 23.81 235.19 23.63C235.23 23.43 235.9 23.43 237.81 23.63C239.22 23.77 241.4 23.89 242.65 23.89C243.89 23.89 245.68 24 246.61 24.13C247.53 24.26 249.34 24.73 250.62 25.18C251.91 25.63 253.53 26.34 254.23 26.77C254.94 27.2 255.7 27.62 255.92 27.7C256.18 27.79 256.33 27.74 256.33 27.56C256.32 27.4 256.17 26.54 255.98 25.64C255.79 24.74 255.63 23.2 255.63 22.2C255.63 20.71 255.71 20.32 256.1 19.93C256.42 19.61 256.87 19.47 257.55 19.47C258.1 19.47 260.33 19.63 262.5 19.83C264.68 20.02 267.83 20.45 269.49 20.77C271.16 21.09 273.41 21.61 274.5 21.94C275.59 22.27 277.32 22.78 278.34 23.08C279.37 23.38 280.99 23.85 281.96 24.13C282.92 24.41 284.65 25.09 287.9 26.64L288.41 29.28C288.7 30.74 289.15 33.19 289.42 34.72C289.7 36.26 290.11 38.41 290.35 39.5C290.59 40.59 290.94 42.74 291.14 44.27C291.34 45.81 291.67 48.17 291.87 49.52C292.07 50.86 292.45 52.85 292.7 53.94C292.96 55.03 293.28 56.45 293.41 57.09C293.54 57.73 293.73 59.14 293.83 60.23C293.94 61.32 294.14 63.68 294.28 65.47C294.42 67.27 294.64 69.57 294.77 70.6C294.89 71.62 295 73.46 295 74.67C295 75.89 294.84 78.25 294.63 79.92C294.39 81.93 294.13 83.14 293.85 83.53C293.63 83.85 292.46 84.77 291.25 85.57C290.05 86.37 288.12 87.54 286.96 88.16C285.81 88.79 284.45 89.43 283.94 89.59C283.42 89.76 282.11 90.3 281.02 90.81C279.93 91.32 278.47 91.93 277.76 92.17C276.79 92.51 275.84 92.62 273.8 92.62C272.33 92.62 269.56 92.48 267.65 92.32C264.35 92.04 264.16 92 263.82 91.45C263.53 90.99 263.42 89.8 263.28 86.09C263.19 83.46 263.03 80.76 262.93 80.09C262.82 79.41 262.71 78.86 262.68 78.86C262.65 78.87 262.12 79.12 261.51 79.42C260.91 79.73 259.41 80.29 258.19 80.68C256.98 81.07 254.57 81.66 252.84 81.98C251.11 82.31 249.22 82.64 248.64 82.71C248.07 82.78 246.13 82.94 244.33 83.06C242.54 83.19 238.71 83.29 235.83 83.29C232.95 83.28 229.91 83.19 229.08 83.07C228.24 82.96 226.93 82.8 226.16 82.73C225.4 82.66 223.14 82.28 221.16 81.89C219.17 81.51 216.97 81.01 216.26 80.8C215.56 80.59 214.13 79.99 211.21 78.52L210.94 80.79C210.79 82.04 210.67 84.4 210.66 86.03C210.66 87.66 210.56 89.47 210.44 90.05C210.32 90.63 210.09 91.22 209.93 91.38C209.73 91.56 207.8 91.76 204.38 91.94C200.64 92.15 198.71 92.16 197.63 91.99C196.74 91.84 194.92 91.21 193.2 90.45C191.6 89.74 190.03 89.09 189.71 89C189.39 88.91 188.23 88.35 187.15 87.77C186.06 87.18 184.17 86.05 182.95 85.25C181.74 84.46 180.53 83.57 180.27 83.28C179.93 82.91 179.7 82.04 179.41 80.06C179.19 78.57 179 76.36 179 75.14C179 73.92 179.1 71.83 179.22 70.48C179.35 69.14 179.57 66.62 179.71 64.89C179.86 63.16 180.06 60.85 180.16 59.77C180.27 58.68 180.46 57.26 180.59 56.62C180.71 55.98 181.03 54.57 181.29 53.48C181.55 52.39 181.92 50.4 182.12 49.05C182.32 47.7 182.65 45.35 182.85 43.81C183.05 42.27 183.41 40.12 183.64 39.03C183.88 37.94 184.3 35.8 184.57 34.26C184.84 32.72 185.3 30.27 186.1 26.17L188.19 25.17C189.35 24.62 191.08 23.95 192.04 23.67C193 23.39 194.62 22.91 195.65 22.61C196.67 22.32 198.4 21.8 199.49 21.48C200.58 21.15 202.83 20.62 204.5 20.3C206.17 19.99 208.84 19.6 210.44 19.45C212.04 19.3 213.4 19.14 213.45 19.09C213.5 19.04 214.47 19 215.6 19Z" />
		<path id="Path 1" class="shp3" d="M216.5 20.86L216.5 22.32C216.49 23.12 216.34 24.67 216.14 25.76C215.95 26.84 215.74 28.05 215.69 28.43C215.61 28.97 215.27 29.36 214.27 30.06C213.55 30.58 212.86 31.18 212.75 31.4C212.63 31.63 212.54 32.02 212.54 32.28C212.54 32.64 212.69 32.74 213.24 32.74C213.62 32.74 213.96 32.66 213.99 32.56C214.02 32.45 214.99 31.76 216.15 31.01C217.3 30.27 218.79 29.46 219.47 29.22C220.14 28.98 220.74 28.68 220.81 28.55C220.87 28.42 221.37 28.09 221.91 27.82C222.46 27.55 223.79 27.02 224.88 26.65C226.25 26.19 227.66 25.92 229.43 25.77C230.84 25.66 235.13 25.6 238.98 25.64C242.82 25.68 246.49 25.83 247.13 25.96C247.77 26.1 249.03 26.46 249.92 26.77C250.82 27.07 252 27.55 252.55 27.82C253.09 28.09 253.59 28.42 253.65 28.55C253.72 28.68 254.35 28.99 255.05 29.25C255.75 29.51 257.25 30.3 258.37 31.03C259.49 31.75 260.43 32.43 260.47 32.54C260.5 32.65 260.84 32.74 261.22 32.74C261.79 32.74 261.92 32.65 261.93 32.22C261.93 31.93 261.8 31.51 261.63 31.29C261.47 31.07 260.66 30.42 258.31 28.79L257.92 26.63C257.71 25.45 257.52 23.74 257.49 21.21L259.88 21.39C261.2 21.49 262.53 21.61 262.85 21.66C263.17 21.71 264.12 21.82 264.95 21.9C265.78 21.98 267.8 22.31 269.43 22.62C271.07 22.94 273.64 23.57 275.14 24.03C276.65 24.49 278.82 25.13 279.98 25.44C281.13 25.75 282.62 26.21 283.29 26.46C283.97 26.71 284.94 27.18 285.45 27.5C286.26 28.01 286.41 28.24 286.62 29.31C286.76 29.98 287.13 32.05 287.44 33.91C287.76 35.77 288.17 37.92 288.36 38.68C288.54 39.45 288.9 41.39 289.15 42.99C289.41 44.6 289.79 47.27 290 48.93C290.21 50.6 290.59 52.8 290.84 53.83C291.08 54.85 291.44 56.48 291.63 57.44C291.82 58.4 292.12 60.91 292.31 63.03C292.49 65.14 292.77 68.5 292.93 70.48C293.1 72.64 293.15 75.26 293.05 77C292.96 78.61 292.76 80.54 292.32 82.68L290.22 84.12C289.07 84.91 287.08 86.1 285.8 86.75C284.52 87.41 283.39 87.95 283.29 87.95C283.2 87.95 281.78 88.55 277.18 90.6L274.38 90.7C272.85 90.75 270.23 90.67 268.56 90.54C266.9 90.4 265.47 90.21 265.39 90.11C265.31 90.01 265.12 87.57 264.97 84.69C264.82 81.81 264.63 78.98 264.55 78.4C264.41 77.43 264.46 77.3 265.22 76.54C265.66 76.09 266.31 75.33 266.65 74.85C267 74.37 267.25 73.74 267.22 73.45C267.18 73.1 266.99 72.91 266.64 72.87C266.3 72.83 265.93 73.04 265.59 73.45C265.3 73.79 264.44 74.73 263.67 75.52C262.9 76.31 261.75 77.26 261.11 77.64C260.47 78.01 259.16 78.59 258.19 78.92C257.23 79.25 255.87 79.63 255.17 79.77C254.46 79.91 252.78 80.25 251.44 80.51C249.62 80.87 247.49 81.04 243.17 81.19C239.97 81.29 234.67 81.29 231.41 81.19C227.67 81.07 224.86 80.87 223.83 80.65C222.94 80.45 221.52 80.19 220.69 80.05C219.86 79.92 218.13 79.46 216.85 79.03C215.57 78.61 214.05 78.01 213.47 77.71C212.89 77.41 211.74 76.47 210.91 75.63C210.07 74.78 209.16 73.8 208.87 73.45C208.53 73.04 208.16 72.83 207.82 72.87C207.47 72.91 207.28 73.1 207.24 73.45C207.21 73.74 207.46 74.37 207.81 74.85C208.15 75.33 208.68 75.98 208.98 76.3C209.52 76.88 209.53 76.93 209.3 79.45C209.17 80.86 208.99 83.69 208.91 85.74C208.83 87.79 208.69 89.55 208.61 89.64C208.53 89.74 207.1 89.93 205.43 90.07C203.77 90.21 201.15 90.28 196.81 90.14L193.84 88.81C192.21 88.08 190.79 87.49 190.7 87.48C190.6 87.48 189.48 86.94 188.19 86.29C186.91 85.63 184.92 84.44 181.67 82.21L181.39 80.83C181.23 80.07 181.03 78.14 180.94 76.54C180.85 74.8 180.9 72.17 181.07 70.02C181.22 68.03 181.5 64.68 181.69 62.56C181.87 60.45 182.18 57.93 182.36 56.97C182.55 56.01 182.91 54.38 183.16 53.36C183.4 52.33 183.78 50.13 183.99 48.47C184.2 46.8 184.59 44.13 184.84 42.53C185.09 40.93 185.45 38.99 185.64 38.22C185.82 37.45 186.23 35.3 186.55 33.44C186.87 31.58 187.24 29.51 187.37 28.84C187.58 27.78 187.73 27.54 188.54 27.04C189.06 26.72 190.03 26.25 190.7 26C191.37 25.74 192.86 25.28 194.02 24.97C195.17 24.66 197.37 24.02 198.91 23.55C200.45 23.08 202.81 22.48 204.15 22.23C205.5 21.97 207.23 21.67 207.99 21.56C208.76 21.45 210.28 21.29 211.37 21.2C212.46 21.11 213.4 21 213.45 20.95C213.5 20.9 214.21 20.86 216.5 20.86Z" />
		<path id="Path 2" class="shp2" d="M215.19 52.62C215.33 52.68 215.92 52.79 216.5 52.87C217.07 52.95 218.7 53.18 220.11 53.38C221.52 53.59 224.3 53.83 229.89 54.06L229.95 54.7C229.99 55.19 229.88 55.39 229.43 55.57C229.11 55.7 228.5 55.8 227.33 55.8L227.15 58.31C227.05 59.69 227 60.83 227.03 60.86C227.07 60.88 227.83 60.94 228.73 61C229.62 61.05 230.49 61.16 230.65 61.24C230.81 61.33 230.94 61.66 230.94 61.98C230.94 62.35 230.75 62.65 230.42 62.81C230.13 62.95 229.76 63.01 229.6 62.93C229.44 62.86 228.03 62.72 226.46 62.63C224.89 62.54 222.4 62.48 220.92 62.5C218.99 62.52 217.73 62.67 216.38 63.04C215.36 63.31 214.28 63.58 213.99 63.63C213.64 63.7 213.39 63.57 213.24 63.26C213.11 63 213.06 62.64 213.12 62.44C213.18 62.25 213.97 61.86 216.5 61.05L216.5 57.84C216.5 54.8 216.47 54.64 216.03 54.64C215.78 54.64 215.3 54.51 214.98 54.35C214.65 54.19 214.35 53.95 214.29 53.83C214.24 53.7 214.36 53.35 214.57 53.05C214.77 52.76 215.05 52.56 215.19 52.62ZM261.51 52.57C261.61 52.56 261.84 52.78 262.02 53.07C262.21 53.36 262.31 53.7 262.26 53.83C262.21 53.95 261.9 54.19 261.58 54.35C261.25 54.51 260.78 54.64 260.52 54.64C260.08 54.64 260.06 54.8 260.05 61.05L261.69 61.57C262.58 61.86 263.37 62.25 263.44 62.44C263.5 62.64 263.45 63 263.32 63.26C263.16 63.57 262.91 63.7 262.56 63.63C262.27 63.58 261.2 63.31 260.17 63.04C258.83 62.67 257.57 62.52 255.63 62.5C254.16 62.48 251.67 62.54 250.1 62.63C248.53 62.72 247.12 62.86 246.95 62.93C246.79 63.01 246.43 62.95 246.14 62.81C245.8 62.65 245.62 62.35 245.62 61.98C245.62 61.66 245.75 61.33 245.91 61.24C246.07 61.16 246.93 61.05 247.83 61C248.73 60.94 249.49 60.88 249.52 60.86C249.56 60.83 249.51 59.69 249.23 55.8L248.47 55.8C248.05 55.8 247.45 55.7 247.13 55.57C246.68 55.39 246.56 55.19 246.66 54.06L250.16 53.92C252.08 53.84 254.96 53.59 256.56 53.37C258.17 53.15 259.9 52.89 260.41 52.78C260.92 52.68 261.42 52.58 261.51 52.57Z" />
		<path id="Path 3" class="shp4" d="M218.92 54.95C219.19 55.01 220.37 55.21 221.54 55.38C222.72 55.55 223.64 55.77 223.58 55.86C223.53 55.96 223.77 56.25 224.13 56.51C224.48 56.77 224.9 56.98 225.06 56.98C225.26 56.97 225.35 57.42 225.35 58.48C225.35 59.32 225.3 60.16 225.23 60.35C225.14 60.64 224.53 60.7 218.36 60.7L218.39 57.76C218.43 54.9 218.44 54.83 218.92 54.95Z" />
		<path id="Path 4" class="shp3" d="M257.9 54.91C258.07 54.89 258.19 55.13 258.19 55.46C258.19 55.78 258.06 56.1 257.9 56.17C257.74 56.25 257.25 56.13 256.8 55.92C256.3 55.69 256.07 55.46 256.21 55.34C256.34 55.23 256.71 55.1 257.03 55.04C257.35 54.98 257.74 54.92 257.9 54.91Z" />
		<path id="Path 5" class="shp4" d="M256.01 55.39C256.06 55.49 256.44 55.74 256.86 55.94C257.27 56.14 257.74 56.25 257.9 56.17C258.13 56.07 258.19 56.59 258.19 60.7L254.82 60.7C252.02 60.7 251.42 60.64 251.32 60.35C251.26 60.16 251.21 59.06 251.21 55.81L252.55 55.67C253.28 55.6 254.34 55.46 254.9 55.37C255.46 55.28 255.96 55.29 256.01 55.39Z" />
		<path id="Path 6" class="shp3" d="M224.1 55.67C224.28 55.75 224.63 55.81 224.88 55.81C225.22 55.81 225.35 55.96 225.35 56.39C225.35 56.71 225.22 56.97 225.06 56.98C224.9 56.98 224.48 56.77 224.13 56.51C223.77 56.25 223.55 55.93 223.64 55.79C223.72 55.65 223.93 55.6 224.1 55.67Z" />
		<path id="Path 7" class="shp4" d="M233.57 59.67C233.68 59.79 233.53 60.63 233.23 61.57C232.93 62.51 232.58 63.23 232.45 63.18C232.33 63.13 232.25 62.74 232.29 62.3C232.33 61.87 232.59 61.05 232.87 60.48C233.16 59.88 233.46 59.54 233.57 59.67ZM244.56 59.61C244.69 59.66 244.77 60.06 244.73 60.49C244.69 60.92 244.45 61.75 244.2 62.33C243.89 63.05 243.67 63.3 243.5 63.14C243.33 62.98 243.41 62.4 243.79 61.22C244.08 60.29 244.43 59.56 244.56 59.61ZM236.31 59.77C236.43 59.77 236.52 60 236.52 60.29C236.51 60.58 236.31 61.29 236.08 61.86C235.85 62.44 235.51 62.91 235.34 62.91C235.16 62.91 235.04 62.71 235.06 62.44C235.09 62.19 235.33 61.48 235.59 60.87C235.86 60.26 236.18 59.77 236.31 59.77ZM238.87 59.77C238.99 59.77 239.14 59.85 239.21 59.96C239.27 60.07 239.16 60.72 238.97 61.42C238.78 62.11 238.52 62.78 238.39 62.91C238.24 63.07 238.09 63.07 237.94 62.91C237.79 62.76 237.82 62.26 238.01 61.51C238.17 60.87 238.39 60.22 238.48 60.06C238.57 59.9 238.75 59.77 238.87 59.77ZM241.66 59.77C241.78 59.77 241.94 59.87 242 60C242.07 60.13 241.87 60.83 241.56 61.57C241.25 62.31 240.85 62.96 240.68 63.01C240.45 63.09 240.41 62.92 240.53 62.31C240.62 61.87 240.85 61.12 241.06 60.64C241.26 60.16 241.53 59.77 241.66 59.77ZM209.35 63.86C209.45 63.98 209.3 64.83 209 65.77C208.7 66.7 208.36 67.42 208.23 67.37C208.1 67.32 208.03 66.93 208.06 66.5C208.1 66.06 208.36 65.24 208.64 64.67C208.93 64.08 209.23 63.73 209.35 63.86ZM269.49 63.81C269.62 63.85 269.69 64.25 269.66 64.68C269.62 65.12 269.38 65.94 269.13 66.52C268.81 67.24 268.59 67.5 268.42 67.34C268.25 67.17 268.34 66.59 268.71 65.41C269.01 64.48 269.35 63.76 269.49 63.81ZM212.08 63.96C212.2 63.96 212.3 64.19 212.29 64.48C212.28 64.77 212.09 65.48 211.85 66.06C211.62 66.63 211.28 67.1 211.11 67.1C210.93 67.1 210.81 66.9 210.84 66.64C210.86 66.38 211.1 65.67 211.37 65.07C211.64 64.46 211.96 63.96 212.08 63.96ZM214.64 63.96C214.76 63.96 214.92 64.04 214.99 64.15C215.06 64.25 214.99 64.8 214.84 65.37C214.69 65.94 214.45 66.54 214.31 66.71C214.17 66.87 213.97 67 213.88 67C213.78 66.99 213.68 66.85 213.65 66.68C213.62 66.51 213.78 65.83 214.01 65.17C214.23 64.5 214.52 63.96 214.64 63.96ZM266.58 63.96C266.71 63.96 266.87 64.06 266.93 64.19C266.99 64.32 266.79 65.03 266.48 65.76C266.17 66.5 265.78 67.15 265.61 67.2C265.37 67.28 265.34 67.12 265.46 66.51C265.54 66.07 265.78 65.31 265.98 64.83C266.19 64.35 266.46 63.96 266.58 63.96ZM263.81 64.19C263.93 64.19 264.02 64.32 264.02 64.48C264.02 64.64 263.86 65.32 263.67 66C263.48 66.67 263.21 67.22 263.09 67.22C262.96 67.22 262.81 67.14 262.75 67.05C262.7 66.95 262.76 66.4 262.9 65.82C263.04 65.25 263.26 64.64 263.38 64.48C263.5 64.32 263.7 64.19 263.81 64.19Z" />
		<path id="Path 8" class="shp2" d="M238.51 64.65C238.77 64.65 239.45 64.95 240.02 65.31C240.6 65.68 241.39 66.33 241.79 66.77C242.18 67.21 242.57 67.81 242.66 68.09C242.75 68.4 242.7 68.77 242.53 68.98C242.37 69.18 242 69.33 241.71 69.33C241.39 69.32 241.15 69.14 241.07 68.85C241.01 68.59 240.46 67.96 239.85 67.44C239.24 66.93 238.64 66.5 238.51 66.5C238.38 66.5 237.78 66.93 237.17 67.44C236.56 67.96 236.01 68.59 235.95 68.85C235.88 69.14 235.63 69.32 235.31 69.33C235.02 69.33 234.65 69.18 234.49 68.98C234.32 68.77 234.27 68.4 234.36 68.09C234.45 67.81 234.84 67.21 235.23 66.77C235.63 66.33 236.42 65.68 237 65.32C237.57 64.95 238.25 64.66 238.51 64.65Z" />
	</g>
</svg>