<svg version="1.2" baseProfile="tiny-ps" xmlns="http://www.w3.org/2000/svg" viewBox="0 0 1074 227" width="161" height="34">
	<title>Discontinued Viruscord Server Logo - Discord Server Logos (Vector Logo)</title>
	<defs>
		<linearGradient id="grd1" gradientUnits="userSpaceOnUse"  x1="175.056" y1="-5.017" x2="290.802" y2="116.966">
			<stop offset="0" stop-color="#d35f5f"  />
			<stop offset="1" stop-color="#a02c2c"  />
		</linearGradient>
		<linearGradient id="grd2" gradientUnits="userSpaceOnUse"  x1="173.651" y1="-6.957" x2="356.283" y2="185.611">
			<stop offset="0" stop-color="#ffffff"  />
			<stop offset="1" stop-color="#e9afaf"  />
		</linearGradient>
	</defs>
	<style>
		tspan { white-space:pre }
		.shp0 { fill: #8e9297 } 
		.shp1 { fill: #ffffff } 
		.shp2 { fill: url(#grd1) } 
		.shp3 { fill: url(#grd2) } 
	</style>
	<path id="Official Lightcord Server " fill-rule="evenodd" class="shp0" d="M309.83 83.74C298.74 83.74 291.56 75.59 291.56 63.55C291.56 51.45 298.8 43.25 309.94 43.25C321.13 43.25 328.2 51.39 328.2 63.44C328.2 75.48 321.02 83.74 309.83 83.74ZM309.88 49.47C303.21 49.47 299.19 54.95 299.19 63.49C299.19 72.03 303.21 77.52 309.88 77.52C316.61 77.52 320.63 72.03 320.63 63.49C320.63 54.95 316.55 49.47 309.88 49.47ZM346.13 48.23C343.81 48.23 342.56 49.24 342.56 51.67L342.56 55.69L347.77 55.69L348.61 61.23L342.56 61.23L342.56 83L335.84 83L335.84 61.23L331.88 61.23L331.88 55.69L335.84 55.69L335.84 51C335.84 44.95 339.68 42.68 345.28 42.68C346.47 42.68 347.37 42.8 348.05 42.91L348.95 48.45C348.28 48.34 347.26 48.23 346.13 48.23ZM364.9 48.23C362.58 48.23 361.34 49.24 361.34 51.67L361.34 55.69L366.54 55.69L367.39 61.23L361.34 61.23L361.34 83L354.61 83L354.61 61.23L350.65 61.23L350.65 55.69L354.61 55.69L354.61 51C354.61 44.95 358.45 42.68 364.05 42.68C365.24 42.68 366.14 42.8 366.82 42.91L367.73 48.45C367.05 48.34 366.03 48.23 364.9 48.23ZM375.19 51.11C372.93 51.11 371.12 49.53 371.12 47.26C371.12 44.95 372.93 43.31 375.19 43.31C377.4 43.31 379.21 44.95 379.21 47.26C379.21 49.53 377.4 51.11 375.19 51.11ZM371.74 83L371.74 55.69L378.53 55.69L378.53 83L371.74 83ZM397.24 83.51C389.67 83.51 384.29 78.42 384.29 69.49C384.29 59.99 390.23 55.12 397.47 55.12C401.14 55.12 403.86 56.08 406.01 57.44L405.05 63.55C402.73 61.8 400.52 61 397.86 61C393.96 61 391.14 63.89 391.14 69.32C391.14 74.97 394.19 77.68 398.32 77.68C400.69 77.68 402.84 77.06 405.39 75.08L406.29 80.85C403.52 82.77 400.69 83.51 397.24 83.51ZM415.45 51.11C413.19 51.11 411.38 49.53 411.38 47.26C411.38 44.95 413.19 43.31 415.45 43.31C417.66 43.31 419.46 44.95 419.46 47.26C419.46 49.53 417.66 51.11 415.45 51.11ZM412 83L412 55.69L418.79 55.69L418.79 83L412 83ZM441.86 83L441.29 79.44C439.09 81.76 436.26 83.57 432.19 83.57C427.55 83.57 424.44 80.74 424.44 75.99C424.44 69.37 429.87 66.49 440.9 65.41L440.9 64.62C440.9 61.68 439.2 60.55 436.2 60.55C433.04 60.55 430.04 61.46 427.1 62.76L426.25 57.33C429.42 56.08 432.75 55.12 437.11 55.12C444.17 55.12 447.68 57.72 447.68 64.28L447.68 83L441.86 83ZM440.9 69.37C433.04 70.33 431.17 72.65 431.17 75.25C431.17 77.23 432.41 78.42 434.51 78.42C436.82 78.42 439.03 77.35 440.9 75.48L440.9 69.37ZM454.69 83L454.69 43.25L461.48 42.17L461.48 83L454.69 83ZM481.44 83L481.44 43.98L488.96 43.98L488.96 76.38L501.96 76.38L502.98 83L481.44 83ZM511.46 51.11C509.2 51.11 507.39 49.53 507.39 47.26C507.39 44.95 509.2 43.31 511.46 43.31C513.67 43.31 515.48 44.95 515.48 47.26C515.48 49.53 513.67 51.11 511.46 51.11ZM508.01 83L508.01 55.69L514.8 55.69L514.8 83L508.01 83ZM546.35 55.29L547.26 60.72L542.28 61.06C542.79 62.14 543.01 63.38 543.01 64.62C543.01 70.5 537.98 74.01 532.1 74.01C531.31 74.01 530.57 73.95 529.9 73.84C529.22 74.35 528.77 74.86 528.77 75.31C528.77 76.21 529.61 76.44 533.85 77.06L537.36 77.4C542.96 78.19 546.46 79.95 546.46 84.13C546.46 90.01 540.02 93.29 532.1 93.29C524.69 93.29 519.1 91.03 519.1 86.51C519.1 83.96 520.85 81.98 524.24 80.06C523.17 79.21 522.66 78.19 522.66 77.12C522.66 75.59 523.85 74.12 526.11 72.77C522.88 71.24 520.96 68.41 520.96 64.79C520.96 58.86 525.82 55.12 531.93 55.12C535.04 55.12 537.7 56.03 539.68 57.67L546.35 55.29ZM531.99 59.48C528.99 59.48 527.24 61.8 527.24 64.79C527.24 67.62 529.05 69.77 531.99 69.77C534.99 69.77 536.79 67.56 536.79 64.62C536.79 61.68 534.87 59.48 531.99 59.48ZM524.98 85.77C524.98 87.81 527.41 89.28 532.55 89.28C537.42 89.28 540.19 87.64 540.19 85.6C540.19 84.13 539 83.28 535.61 82.77L531.93 82.32C530.07 82.1 529.22 81.93 527.86 81.64C525.88 83.06 524.98 84.36 524.98 85.77ZM567.84 83L567.84 65.13C567.84 62.76 566.82 61.12 564.33 61.12C562.18 61.12 560.09 62.47 558.11 64.57L558.11 83L551.33 83L551.33 43.25L558.11 42.17L558.11 59.14C560.37 57.05 563.2 55.12 566.82 55.12C571.91 55.12 574.62 58.23 574.62 63.32L574.62 83L567.84 83ZM591.81 83.45C586.44 83.45 582.82 81.47 582.82 75.25L582.82 61.23L578.98 61.23L578.98 55.69L582.82 55.69L582.82 47.04L589.49 46.02L589.49 55.69L595.09 55.69L595.94 61.23L589.49 61.23L589.49 74.12C589.49 76.33 590.51 77.52 593.11 77.52C593.9 77.52 594.64 77.46 595.26 77.29L596.11 83C595.04 83.23 593.79 83.45 591.81 83.45ZM612.51 83.51C604.93 83.51 599.56 78.42 599.56 69.49C599.56 59.99 605.5 55.12 612.73 55.12C616.41 55.12 619.12 56.08 621.27 57.44L620.31 63.55C617.99 61.8 615.79 61 613.13 61C609.23 61 606.4 63.89 606.4 69.32C606.4 74.97 609.45 77.68 613.58 77.68C615.96 77.68 618.11 77.06 620.65 75.08L621.55 80.85C618.78 82.77 615.96 83.51 612.51 83.51ZM637.84 83.57C630.43 83.57 625.06 78.25 625.06 69.37C625.06 60.5 630.49 55.12 637.9 55.12C645.36 55.12 650.79 60.5 650.79 69.37C650.79 78.25 645.3 83.57 637.84 83.57ZM637.84 60.72C633.82 60.72 631.68 64.28 631.68 69.37C631.68 74.35 633.88 78.02 637.84 78.02C642.02 78.02 644.17 74.46 644.17 69.37C644.17 64.34 641.91 60.72 637.84 60.72ZM663.06 67.34L663.06 83L656.27 83L656.27 55.69L662.04 55.69L662.89 61.17C664.7 58.01 667.41 55.35 671.65 55.12L672.73 61.85C668.49 62.14 664.98 64.4 663.06 67.34ZM694.16 83L693.59 79.21C691.67 81.53 689.01 83.57 685.22 83.57C679.51 83.57 674.93 79.32 674.93 70.11C674.93 59.93 680.53 55.41 686.86 55.41C689.46 55.41 691.56 55.86 693.2 56.42L693.2 43.25L699.98 42.17L699.98 83L694.16 83ZM693.2 62.02C691.5 61.23 690.2 60.83 687.88 60.83C684.32 60.83 681.72 63.72 681.72 69.71C681.72 75.03 683.98 77.52 686.98 77.52C689.46 77.52 691.39 76.05 693.2 73.78L693.2 62.02ZM730.29 83.45C725.54 83.45 721.47 82.38 718.02 80.74L719.15 73.9C722.43 75.82 726.5 77.35 730.4 77.35C733.85 77.35 736.23 75.71 736.23 72.6C736.23 69.71 734.87 68.52 729.22 66.09C721.64 62.98 718.58 60.5 718.58 54.45C718.58 47.55 723.9 43.53 731.19 43.53C735.6 43.53 738.66 44.44 741.49 45.91L740.35 52.69C737.53 50.83 734.19 49.64 731.14 49.64C727.41 49.64 725.77 51.45 725.77 53.82C725.77 56.31 727.01 57.5 732.44 59.76C740.47 63.04 743.41 65.81 743.41 71.86C743.41 79.49 737.81 83.45 730.29 83.45ZM771.96 70.67L754.43 70.67C754.77 75.99 757.6 78.31 761.78 78.31C765.29 78.31 768.17 77.01 771.17 74.91L771.96 80.23C769.02 82.26 765.46 83.57 761.05 83.57C753.42 83.57 747.71 79.21 747.71 69.37C747.71 60.5 753.02 55.12 760.15 55.12C768.34 55.12 772.02 61.29 772.02 69.03C772.02 69.6 771.96 70.28 771.96 70.67ZM759.98 59.82C757.26 59.82 755.06 61.97 754.55 66.43L765.4 66.43C764.95 62.19 763.25 59.82 759.98 59.82ZM784.29 67.34L784.29 83L777.5 83L777.5 55.69L783.27 55.69L784.12 61.17C785.93 58.01 788.64 55.35 792.88 55.12L793.96 61.85C789.72 62.14 786.21 64.4 784.29 67.34ZM811.94 83.11L805.32 83.11L795.77 56.2L802.89 55.29L809 74.69L814.88 55.69L821.61 55.69L811.94 83.11ZM847.9 70.67L830.37 70.67C830.71 75.99 833.54 78.31 837.72 78.31C841.23 78.31 844.11 77.01 847.11 74.91L847.9 80.23C844.96 82.26 841.4 83.57 836.99 83.57C829.36 83.57 823.64 79.21 823.64 69.37C823.64 60.5 828.96 55.12 836.08 55.12C844.28 55.12 847.96 61.29 847.96 69.03C847.96 69.6 847.9 70.28 847.9 70.67ZM835.91 59.82C833.2 59.82 831 61.97 830.49 66.43L841.34 66.43C840.89 62.19 839.19 59.82 835.91 59.82ZM860.23 67.34L860.23 83L853.44 83L853.44 55.69L859.21 55.69L860.06 61.17C861.87 58.01 864.58 55.35 868.82 55.12L869.9 61.85C865.66 62.14 862.15 64.4 860.23 67.34Z" />
	<path id="LIGHTCORD " fill-rule="evenodd" class="shp1" d="M112.1 137.85L141.77 108.43L141.77 196.15L189.34 196.15L189.34 225.33L112.1 225.33L112.1 137.85ZM231.09 225L201.54 225L201.54 108.1L231.09 108.1L231.09 225ZM308.86 142.77C302.42 127.09 276.34 130.72 276.34 146.07L276.34 186.2C276.34 204.53 310.52 204.36 310.52 186.2L310.52 181.9L291.86 181.9L291.86 157.14L338.92 157.14L338.92 186.2C338.92 213.11 316.46 226.65 293.01 226.65C269.9 226.65 246.78 213.11 246.78 186.2L246.78 146.07C246.78 119.66 269.9 106.45 293.01 106.45C308.2 106.45 325.54 112.72 333.63 131.38L308.86 142.77ZM382.34 225L352.62 225L352.62 108.1L382.34 108.1L382.34 152.35L416.02 152.35L416.02 108.1L445.75 108.1L445.75 225L416.02 225L416.02 180.91L382.34 180.91L382.34 225ZM518.23 136L518.23 225L488.35 225L488.35 136L457.3 136L457.3 107.93L549.27 107.93L549.27 136L518.23 136ZM645.21 200.4C635.46 219.39 617.8 226.65 603.1 226.65C580.15 226.65 557.03 213.28 557.03 186.69L557.03 146.4C557.03 119.99 580.15 106.45 603.6 106.45C617.96 106.45 635.3 112.56 644.71 133.36L620.6 143.1C612.68 128.57 586.59 131.87 586.59 146.4L586.59 186.69C586.59 200.73 613.01 204.69 619.45 188.51L645.21 200.4ZM653.13 146.57C653.13 119.66 677.24 106.45 701.51 106.45C725.78 106.45 750.06 119.82 750.06 146.57L750.06 186.53C750.06 213.28 725.95 226.65 701.68 226.65C677.4 226.65 653.13 213.28 653.13 186.53L653.13 146.57ZM682.69 186.53C682.69 195.11 692.26 199.24 701.68 199.24C711.09 199.24 720.5 194.95 720.5 186.53L720.5 146.57C720.5 137.49 710.76 133.36 701.18 133.36C691.93 133.36 682.69 137.98 682.69 146.57L682.69 186.53ZM800.91 187.85L795.63 187.85L795.63 225L765.74 225L765.74 108.1L812.47 108.1C836.58 108.1 855.23 119.16 855.89 146.57C855.89 168.2 847.14 180.42 832.94 184.88L864.81 225L827.99 225L800.91 187.85ZM812.96 162.42C831.62 162.42 831.62 135.67 812.96 135.67L795.63 135.67L795.63 162.42L812.96 162.42ZM871.62 107.06L895.42 107.06C909.71 107.06 920.29 107.15 921.89 107.29C923.35 107.41 925.75 107.72 927.21 107.98C928.68 108.23 931.22 108.82 932.87 109.28C934.52 109.75 936.67 110.44 937.64 110.83C938.62 111.22 940.52 112.1 941.86 112.78C943.2 113.47 945.15 114.6 946.19 115.29C947.23 115.98 949.02 117.39 950.18 118.42C951.34 119.44 952.93 121.08 953.72 122.05C954.5 123.02 955.59 124.51 956.15 125.36C956.7 126.22 957.57 127.77 958.08 128.8C958.59 129.84 959.28 131.44 959.61 132.36C959.93 133.27 960.45 135.02 960.74 136.24C961.04 137.46 961.43 139.71 961.62 141.23C961.89 143.52 961.94 148.06 961.94 166.98C961.94 185.31 961.87 190.42 961.63 192.28C961.46 193.56 961.12 195.46 960.87 196.49C960.63 197.53 960.06 199.38 959.61 200.6C959.15 201.82 958.4 203.57 957.94 204.48C957.47 205.4 956.61 206.86 956.03 207.74C955.44 208.61 954.25 210.15 953.4 211.15C952.55 212.15 950.95 213.73 949.85 214.65C948.75 215.57 947.05 216.85 946.08 217.48C945.1 218.12 943.65 219 942.86 219.43C942.07 219.87 940.32 220.68 938.97 221.24C937.63 221.81 935.38 222.6 933.98 223.01C932.58 223.41 930.38 223.95 929.1 224.21C927.82 224.46 925.59 224.82 924.16 225.01C921.96 225.29 917.62 225.35 871.62 225.35L871.62 197.38L885.43 197.36C893.03 197.35 904.14 197.26 910.12 197.17C919.5 197.02 921.2 196.95 922.44 196.61C923.23 196.39 924.38 195.99 924.99 195.72C925.6 195.45 926.7 194.78 927.43 194.24C928.22 193.66 929.13 192.71 929.64 191.93C930.12 191.21 930.77 189.91 931.65 187.51L931.65 144.9L931.16 143.34C930.89 142.49 930.38 141.34 930.03 140.79C929.68 140.24 928.95 139.36 928.41 138.83C927.88 138.31 926.83 137.54 926.1 137.12C925.37 136.7 923.77 136.1 922.55 135.78C920.35 135.19 920.25 135.19 901.8 135.02L901.82 181.96L871.6 152L871.62 107.06Z" />
	<g id="lightcord-svg">
		<path id="Layer" class="shp2" d="M212.62 27.07C211.84 27.1 211.1 27.15 210.97 27.18C210.84 27.22 210.47 27.33 210.15 27.43C209.83 27.54 209.24 27.79 208.86 27.98C208.47 28.18 207.98 28.47 207.76 28.63C207.54 28.79 207.19 29.08 206.97 29.27C206.75 29.46 206.33 29.9 206.04 30.24C205.75 30.59 205.37 31.1 205.21 31.38C205.05 31.66 204.79 32.19 204.63 32.55C204.47 32.92 204.27 33.57 204.17 34L204 34.79C204 78.05 204.02 82.76 204.1 83.2C204.16 83.5 204.28 83.99 204.37 84.3C204.46 84.6 204.7 85.18 204.9 85.59C205.11 86 205.44 86.56 205.65 86.84C205.86 87.12 206.24 87.57 206.5 87.85C206.76 88.12 207.22 88.53 207.53 88.76C207.83 88.99 208.43 89.35 208.86 89.57C209.29 89.79 209.83 90.04 210.07 90.12C210.31 90.2 210.71 90.32 210.97 90.37C211.32 90.45 212.63 90.49 215.95 90.52C218.42 90.54 228.05 90.57 237.33 90.58C246.62 90.59 254.48 90.57 254.8 90.54L255.39 90.48C255.43 90.06 255.36 89.67 255.28 89.35C255.19 89.03 254.97 88.23 254.8 87.59C254.62 86.94 254.36 85.95 254.21 85.39C254.06 84.83 253.89 84.18 253.82 83.94C253.76 83.71 253.7 83.43 253.71 83.34C253.71 83.24 253.74 83.16 253.78 83.16C253.83 83.16 254.17 83.45 254.55 83.8C254.93 84.15 256.15 85.31 257.27 86.37C258.39 87.43 260 88.96 260.86 89.78C261.72 90.6 263.2 92 264.15 92.9C265.11 93.8 266.49 95.11 267.22 95.81C267.95 96.51 268.96 97.46 269.46 97.93C269.96 98.4 270.47 98.84 270.58 98.91C270.69 98.97 270.81 98.99 270.84 98.96C270.87 98.92 270.93 94.57 270.96 89.28C270.99 84 271.01 69.57 271 57.23C270.97 37.14 270.96 34.72 270.85 34.2C270.78 33.88 270.65 33.4 270.57 33.14C270.48 32.88 270.27 32.39 270.1 32.04C269.92 31.7 269.61 31.17 269.39 30.87C269.18 30.57 268.78 30.08 268.51 29.78C268.23 29.49 267.76 29.06 267.45 28.83C267.15 28.6 266.62 28.25 266.28 28.06C265.93 27.87 265.32 27.61 264.91 27.48C264.5 27.35 263.83 27.19 263.42 27.12C262.75 27 260.38 26.99 238.35 27C224.97 27.01 213.39 27.04 212.62 27.07L212.62 27.07Z" />
		<path id="Layer" fill-rule="evenodd" class="shp3" d="M250.19 78.65C250.19 78.65 248.54 76.7 247.17 74.97C253.16 73.29 255.45 69.57 255.45 69.57C253.57 70.79 251.79 71.66 250.19 72.25C247.9 73.2 245.71 73.84 243.56 74.2C239.17 75.02 235.15 74.79 231.72 74.16C229.11 73.66 226.87 72.93 225 72.2C223.95 71.79 222.8 71.3 221.66 70.66C221.52 70.57 221.39 70.52 221.25 70.43C221.16 70.39 221.11 70.34 221.06 70.3C220.24 69.84 219.78 69.52 219.78 69.52C219.78 69.52 221.98 73.16 227.79 74.88C226.41 76.61 224.72 78.65 224.72 78.65C214.62 78.33 210.78 71.75 210.78 71.75C210.78 57.13 217.36 45.28 217.36 45.28C223.95 40.37 230.21 40.51 230.21 40.51L230.67 41.05C222.44 43.41 218.64 47 218.64 47C218.64 47 219.65 46.46 221.34 45.68C226.23 43.55 230.12 42.96 231.72 42.82C231.99 42.78 232.22 42.73 232.5 42.73C235.28 42.37 238.44 42.28 241.73 42.64C246.07 43.14 250.74 44.41 255.49 47C255.49 47 251.88 43.6 244.11 41.23L244.75 40.51C244.75 40.51 251.01 40.37 257.6 45.28C257.6 45.28 264.18 57.13 264.18 71.75C264.18 71.75 260.29 78.33 250.19 78.65L250.19 78.65ZM228.93 57.44C226.32 57.44 224.27 59.71 224.27 62.48C224.27 65.25 226.37 67.52 228.93 67.52C231.54 67.52 233.59 65.25 233.59 62.48C233.64 59.71 231.54 57.44 228.93 57.44ZM245.62 57.44C243.01 57.44 240.95 59.71 240.95 62.48C240.95 65.25 243.06 67.52 245.62 67.52C248.22 67.52 250.28 65.25 250.28 62.48C250.28 59.71 248.22 57.44 245.62 57.44Z" />
	</g>
</svg>