<svg version="1.2" baseProfile="tiny-ps" xmlns="http://www.w3.org/2000/svg" viewBox="0 0 1074 227" width="161" height="34">
	<title>banner</title>
	<style>
		tspan { white-space:pre }
		.shp0 { fill: #000000 } 
		.shp1 { fill: #fff3f4 } 
		.shp2 { fill: #c44145 } 
	</style>
	<path id="LIGHTY EMOJIS! " fill="#ffffff" aria-label="LIGHTY EMOJIS!"  d="M26.43 216.14L26.43 216.14L92.95 216.14L92.95 191.01L51.98 191.01L51.98 115.46L26.43 140.8ZM128.49 115.32L103.03 115.32L103.03 216L128.49 216ZM216.8 135.37C209.83 119.3 194.9 113.89 181.82 113.89C161.91 113.89 142 125.27 142 148.02L142 182.58C142 205.76 161.91 217.42 181.82 217.42C202.01 217.42 221.35 205.76 221.35 182.58L221.35 157.55L180.82 157.55L180.82 178.88L196.89 178.88L196.89 182.58C196.89 198.22 167.45 198.37 167.45 182.58L167.45 148.02C167.45 134.8 189.92 131.67 195.47 145.18ZM258.75 178.03L287.76 178.03L287.76 216L313.36 216L313.36 115.32L287.76 115.32L287.76 153.43L258.75 153.43L258.75 115.32L233.16 115.32L233.16 216L258.75 216ZM402.53 139.35L402.53 115.17L323.32 115.17L323.32 139.35L350.05 139.35L350.05 216L375.79 216L375.79 139.35ZM463.82 216L463.82 176.32L499.09 115.32L469.22 115.32L451.02 152.29L432.82 115.32L403.24 115.32L438.36 176.32L438.36 216ZM552.42 139.21L596.79 139.21L596.79 115.32L526.68 115.32L526.68 216L596.79 216L596.79 191.97L552.42 191.97L552.42 176.89L593.23 176.89L593.23 154.85L552.42 154.85ZM610.3 216L635.75 216L635.75 186.99L634.05 166.65L634.76 166.51L648.27 201.07L665.76 201.07L678.98 166.51L679.84 166.65L678.27 186.99L678.13 216L703.73 216L703.73 115.32L678.27 115.32L656.94 164.52L635.75 115.32L610.3 115.32ZM717.24 182.87C717.24 205.9 738.14 217.42 759.05 217.42C779.95 217.42 800.72 205.9 800.72 182.87L800.72 148.45C800.72 125.41 779.81 113.89 758.91 113.89C738 113.89 717.24 125.27 717.24 148.45ZM742.69 148.45C742.69 141.06 750.66 137.07 758.62 137.07C766.87 137.07 775.26 140.63 775.26 148.45L775.26 182.87C775.26 190.12 767.15 193.82 759.05 193.82C750.94 193.82 742.69 190.26 742.69 182.87ZM806.69 186.42C809.53 207.75 826.74 217.42 844.09 217.42C863.29 217.42 882.49 205.05 882.49 183.15L882.49 115.32L834.42 115.32L834.42 138.35L857.32 138.35L857.32 183.15C857.32 188.98 851.34 192.82 845.09 192.82C838.83 192.82 832.14 189.55 830.72 181.44ZM923.16 115.32L897.7 115.32L897.7 216L923.16 216ZM934.25 199.22C943.64 211.31 956.44 217.42 968.52 217.42C987.01 217.42 1007.49 206.76 1008.34 187.27C1009.48 162.53 991.56 156.27 973.64 153C965.82 151.29 960.56 148.45 960.28 143.62C960.7 131.95 978.76 131.53 989.29 142.76L1005.93 129.96C995.54 117.31 983.74 113.89 971.51 113.89C953.02 113.89 935.11 124.27 935.11 144.04C935.11 163.24 949.89 173.48 966.11 176.04C974.36 177.18 983.6 180.45 983.31 186.14C982.6 196.94 960.42 196.37 950.32 184.14ZM1018.87 184.71L1045.03 184.71L1046.46 114.75L1017.44 114.75ZM1018.01 203.34C1018.01 211.16 1024.27 217.42 1032.09 217.42C1040.06 217.42 1046.46 211.16 1046.46 203.34C1046.46 195.38 1040.06 188.98 1032.09 188.98C1024.27 188.98 1018.01 195.38 1018.01 203.34Z" />
	<path id="Verified Lightcord Server " fill="#8e9297" aria-label="Verified Lightcord Server"  d="M337.51 50.98L329.7 50.98L319.47 80.5L309.06 50.59L301.15 51.95L315.51 90.17L322.86 90.17ZM360.63 76.03C360.63 68.29 356.96 62.12 348.76 62.12C341.63 62.12 336.32 67.5 336.32 76.37C336.32 86.21 342.03 90.57 349.66 90.57C354.07 90.57 357.64 89.26 360.58 87.23L359.78 81.91C356.79 84.01 353.9 85.31 350.4 85.31C346.21 85.31 343.39 82.99 343.05 77.67L360.58 77.67C360.58 77.28 360.63 76.6 360.63 76.03ZM354.02 73.43L343.16 73.43C343.67 68.97 345.87 66.82 348.59 66.82C351.87 66.82 353.56 69.19 354.02 73.43ZM382.57 68.85L381.5 62.12C377.26 62.35 374.54 65.01 372.73 68.17L371.88 62.69L366.12 62.69L366.12 90L372.9 90L372.9 74.34C374.83 71.4 378.33 69.14 382.57 68.85ZM394.62 54.26C394.62 51.95 392.81 50.31 390.6 50.31C388.34 50.31 386.53 51.95 386.53 54.26C386.53 56.53 388.34 58.11 390.6 58.11C392.81 58.11 394.62 56.53 394.62 54.26ZM393.94 90L393.94 62.69L387.15 62.69L387.15 90ZM415.82 55.45L414.92 49.91C414.24 49.8 413.33 49.68 412.14 49.68C406.55 49.68 402.7 51.95 402.7 58L402.7 62.69L398.74 62.69L398.74 68.23L402.7 68.23L402.7 90L409.43 90L409.43 68.23L415.48 68.23L414.63 62.69L409.43 62.69L409.43 58.67C409.43 56.24 410.67 55.23 412.99 55.23C414.12 55.23 415.14 55.34 415.82 55.45ZM427.3 54.26C427.3 51.95 425.49 50.31 423.28 50.31C421.02 50.31 419.21 51.95 419.21 54.26C419.21 56.53 421.02 58.11 423.28 58.11C425.49 58.11 427.3 56.53 427.3 54.26ZM426.62 90L426.62 62.69L419.83 62.69L419.83 90ZM456.7 76.03C456.7 68.29 453.03 62.12 444.83 62.12C437.7 62.12 432.39 67.5 432.39 76.37C432.39 86.21 438.1 90.57 445.73 90.57C450.14 90.57 453.7 89.26 456.64 87.23L455.85 81.91C452.86 84.01 449.97 85.31 446.47 85.31C442.28 85.31 439.46 82.99 439.12 77.67L456.64 77.67C456.64 77.28 456.7 76.6 456.7 76.03ZM450.09 73.43L439.23 73.43C439.74 68.97 441.94 66.82 444.66 66.82C447.94 66.82 449.63 69.19 450.09 73.43ZM485.88 90L485.88 49.17L479.09 50.25L479.09 63.42C477.45 62.86 475.36 62.41 472.76 62.41C466.43 62.41 460.83 66.93 460.83 77.11C460.83 86.32 465.41 90.57 471.12 90.57C474.91 90.57 477.57 88.53 479.49 86.21L480.05 90ZM479.09 80.78C477.28 83.05 475.36 84.52 472.87 84.52C469.88 84.52 467.61 82.03 467.61 76.71C467.61 70.72 470.22 67.83 473.78 67.83C476.1 67.83 477.4 68.23 479.09 69.02ZM527.1 90L526.08 83.38L513.08 83.38L513.08 50.98L505.56 50.98L505.56 90ZM539.6 54.26C539.6 51.95 537.79 50.31 535.58 50.31C533.32 50.31 531.51 51.95 531.51 54.26C531.51 56.53 533.32 58.11 535.58 58.11C537.79 58.11 539.6 56.53 539.6 54.26ZM538.92 90L538.92 62.69L532.13 62.69L532.13 90ZM551.98 88.64C553.34 88.93 554.18 89.1 556.05 89.32L559.73 89.77C563.12 90.28 564.31 91.13 564.31 92.6C564.31 94.64 561.53 96.28 556.67 96.28C551.53 96.28 549.1 94.81 549.1 92.77C549.1 91.36 550 90.06 551.98 88.64ZM560.91 71.62C560.91 74.56 559.1 76.77 556.11 76.77C553.17 76.77 551.36 74.62 551.36 71.79C551.36 68.8 553.11 66.48 556.11 66.48C558.99 66.48 560.91 68.68 560.91 71.62ZM563.8 64.67C561.82 63.03 559.16 62.12 556.05 62.12C549.94 62.12 545.08 65.86 545.08 71.79C545.08 75.41 547 78.24 550.23 79.77C547.96 81.12 546.78 82.59 546.78 84.12C546.78 85.19 547.29 86.21 548.36 87.06C544.97 88.98 543.21 90.96 543.21 93.51C543.21 98.03 548.81 100.29 556.22 100.29C564.14 100.29 570.58 97.01 570.58 91.13C570.58 86.95 567.08 85.19 561.48 84.4L557.97 84.06C553.73 83.44 552.88 83.21 552.88 82.31C552.88 81.86 553.34 81.35 554.01 80.84C554.69 80.95 555.43 81.01 556.22 81.01C562.1 81.01 567.13 77.5 567.13 71.62C567.13 70.38 566.91 69.14 566.4 68.06L571.37 67.72L570.47 62.29ZM598.74 90L598.74 70.32C598.74 65.23 596.03 62.12 590.94 62.12C587.32 62.12 584.49 64.05 582.23 66.14L582.23 49.17L575.44 50.25L575.44 90L582.23 90L582.23 71.57C584.21 69.47 586.3 68.12 588.45 68.12C590.94 68.12 591.96 69.76 591.96 72.13L591.96 90ZM620.23 90L619.38 84.29C618.76 84.46 618.02 84.52 617.23 84.52C614.63 84.52 613.61 83.33 613.61 81.12L613.61 68.23L620.06 68.23L619.21 62.69L613.61 62.69L613.61 53.02L606.94 54.04L606.94 62.69L603.1 62.69L603.1 68.23L606.94 68.23L606.94 82.25C606.94 88.47 610.56 90.45 615.93 90.45C617.91 90.45 619.15 90.23 620.23 90ZM645.67 87.85L644.77 82.08C642.22 84.06 640.08 84.68 637.7 84.68C633.57 84.68 630.52 81.97 630.52 76.32C630.52 70.89 633.35 68 637.25 68C639.91 68 642.11 68.8 644.43 70.55L645.39 64.44C643.24 63.08 640.53 62.12 636.85 62.12C629.61 62.12 623.68 66.99 623.68 76.49C623.68 85.42 629.05 90.51 636.63 90.51C640.08 90.51 642.9 89.77 645.67 87.85ZM674.91 76.37C674.91 67.5 669.48 62.12 662.01 62.12C654.61 62.12 649.18 67.5 649.18 76.37C649.18 85.25 654.55 90.57 661.96 90.57C669.42 90.57 674.91 85.25 674.91 76.37ZM668.29 76.37C668.29 81.46 666.14 85.02 661.96 85.02C658 85.02 655.79 81.35 655.79 76.37C655.79 71.28 657.94 67.72 661.96 67.72C666.03 67.72 668.29 71.34 668.29 76.37ZM696.85 68.85L695.77 62.12C691.53 62.35 688.82 65.01 687.01 68.17L686.16 62.69L680.39 62.69L680.39 90L687.18 90L687.18 74.34C689.1 71.4 692.6 69.14 696.85 68.85ZM724.1 90L724.1 49.17L717.31 50.25L717.31 63.42C715.67 62.86 713.58 62.41 710.98 62.41C704.65 62.41 699.05 66.93 699.05 77.11C699.05 86.32 703.63 90.57 709.34 90.57C713.13 90.57 715.79 88.53 717.71 86.21L718.28 90ZM717.31 80.78C715.51 83.05 713.58 84.52 711.09 84.52C708.1 84.52 705.84 82.03 705.84 76.71C705.84 70.72 708.44 67.83 712 67.83C714.32 67.83 715.62 68.23 717.31 69.02ZM767.53 78.86C767.53 72.81 764.59 70.04 756.56 66.76C751.13 64.5 749.88 63.31 749.88 60.82C749.88 58.45 751.52 56.64 755.26 56.64C758.31 56.64 761.65 57.83 764.47 59.69L765.6 52.91C762.78 51.44 759.72 50.53 755.31 50.53C748.02 50.53 742.7 54.55 742.7 61.45C742.7 67.5 745.76 69.98 753.33 73.09C758.99 75.52 760.35 76.71 760.35 79.6C760.35 82.71 757.97 84.35 754.52 84.35C750.62 84.35 746.55 82.82 743.27 80.9L742.14 87.74C745.59 89.38 749.66 90.45 754.41 90.45C761.93 90.45 767.53 86.49 767.53 78.86ZM796.14 76.03C796.14 68.29 792.46 62.12 784.26 62.12C777.14 62.12 771.82 67.5 771.82 76.37C771.82 86.21 777.53 90.57 785.17 90.57C789.58 90.57 793.14 89.26 796.08 87.23L795.29 81.91C792.29 84.01 789.41 85.31 785.9 85.31C781.72 85.31 778.89 82.99 778.55 77.67L796.08 77.67C796.08 77.28 796.14 76.6 796.14 76.03ZM789.52 73.43L778.67 73.43C779.17 68.97 781.38 66.82 784.09 66.82C787.37 66.82 789.07 69.19 789.52 73.43ZM818.08 68.85L817 62.12C812.76 62.35 810.05 65.01 808.24 68.17L807.39 62.69L801.62 62.69L801.62 90L808.41 90L808.41 74.34C810.33 71.4 813.84 69.14 818.08 68.85ZM845.73 62.69L839 62.69L833.12 81.69L827.01 62.29L819.89 63.2L829.44 90.11L836.06 90.11ZM872.08 76.03C872.08 68.29 868.4 62.12 860.2 62.12C853.08 62.12 847.76 67.5 847.76 76.37C847.76 86.21 853.47 90.57 861.11 90.57C865.52 90.57 869.08 89.26 872.02 87.23L871.23 81.91C868.23 84.01 865.35 85.31 861.84 85.31C857.66 85.31 854.83 82.99 854.49 77.67L872.02 77.67C872.02 77.28 872.08 76.6 872.08 76.03ZM865.46 73.43L854.6 73.43C855.11 68.97 857.32 66.82 860.03 66.82C863.31 66.82 865.01 69.19 865.46 73.43ZM894.02 68.85L892.94 62.12C888.7 62.35 885.99 65.01 884.18 68.17L883.33 62.69L877.56 62.69L877.56 90L884.35 90L884.35 74.34C886.27 71.4 889.78 69.14 894.02 68.85Z" />
	<g id="Layer 5">
		<path id="Path 0" class="shp0" d="M212.45 30.09C212.4 30.14 211.04 30.3 209.44 30.45C207.84 30.6 205.17 30.99 203.5 31.3C201.83 31.62 199.58 32.15 198.49 32.48C197.4 32.8 195.67 33.32 194.65 33.61C193.62 33.91 192 34.39 191.04 34.67C190.08 34.95 188.35 35.62 187.19 36.17L185.1 37.17C184.3 41.27 183.84 43.72 183.57 45.26C183.3 46.8 182.88 48.94 182.64 50.03C182.41 51.12 182.05 53.27 181.85 54.81C181.65 56.35 181.32 58.7 181.12 60.05C180.92 61.4 180.55 63.39 180.29 64.48C180.03 65.57 179.71 66.98 179.59 67.62C179.46 68.26 179.27 69.68 179.16 70.77C179.06 71.85 178.86 74.16 178.71 75.89C178.57 77.62 178.35 80.14 178.22 81.48C178.1 82.83 178 84.92 178 86.14C178 87.36 178.19 89.57 178.41 91.06C178.7 93.04 178.93 93.91 179.27 94.28C179.53 94.57 180.74 95.46 181.95 96.25C183.17 97.05 185.06 98.18 186.15 98.77C187.23 99.35 188.39 99.91 188.71 100C189.03 100.09 190.6 100.74 192.2 101.45C193.92 102.21 195.74 102.84 196.63 102.99C197.71 103.16 199.64 103.15 203.38 102.94C206.8 102.76 208.73 102.56 208.93 102.38C209.09 102.22 209.32 101.63 209.44 101.05C209.56 100.47 209.66 98.66 209.66 97.03C209.67 95.4 209.79 93.04 209.94 91.79L210.21 89.52C213.13 90.99 214.56 91.59 215.26 91.8C215.97 92.01 218.17 92.51 220.16 92.89C222.14 93.28 224.4 93.66 225.16 93.73C225.93 93.8 227.24 93.96 228.08 94.07C228.91 94.19 231.95 94.28 234.83 94.29C237.71 94.29 241.54 94.19 243.33 94.06C245.13 93.94 247.07 93.78 247.64 93.71C248.22 93.64 250.11 93.31 251.84 92.98C253.57 92.66 255.98 92.07 257.19 91.68C258.41 91.29 259.91 90.73 260.51 90.42C261.12 90.12 261.65 89.87 261.68 89.86C261.71 89.86 261.82 90.41 261.93 91.09C262.03 91.76 262.19 94.46 262.28 97.09C262.42 100.8 262.53 101.99 262.82 102.45C263.16 103 263.35 103.04 266.65 103.32C268.56 103.48 271.33 103.62 272.8 103.62C274.84 103.62 275.79 103.51 276.76 103.17C277.47 102.93 278.93 102.32 280.02 101.81C281.11 101.3 282.42 100.76 282.94 100.59C283.45 100.43 284.81 99.79 285.96 99.16C287.12 98.54 289.05 97.37 290.25 96.57C291.46 95.77 292.63 94.85 292.85 94.53C293.13 94.14 293.39 92.93 293.63 90.92C293.84 89.25 294 86.89 294 85.67C294 84.46 293.89 82.62 293.77 81.6C293.64 80.57 293.42 78.27 293.28 76.47C293.14 74.68 292.94 72.32 292.83 71.23C292.73 70.14 292.54 68.73 292.41 68.09C292.28 67.45 291.96 66.03 291.7 64.94C291.45 63.85 291.07 61.86 290.87 60.52C290.67 59.17 290.34 56.81 290.14 55.27C289.94 53.74 289.59 51.59 289.35 50.5C289.11 49.41 288.7 47.26 288.42 45.72C288.15 44.19 287.7 41.74 287.41 40.28L286.9 37.64C283.65 36.09 281.92 35.41 280.96 35.13C279.99 34.85 278.37 34.38 277.34 34.08C276.32 33.78 274.59 33.27 273.5 32.94C272.41 32.61 270.16 32.09 268.49 31.77C266.83 31.45 263.68 31.02 261.5 30.83C259.33 30.63 257.1 30.47 256.55 30.47C255.87 30.47 255.42 30.61 255.1 30.93C254.71 31.32 254.63 31.71 254.63 33.2C254.63 34.2 254.79 35.74 254.98 36.64C255.17 37.54 255.32 38.4 255.33 38.56C255.33 38.74 255.18 38.79 254.92 38.7C254.7 38.62 253.94 38.2 253.23 37.77C252.53 37.34 250.91 36.63 249.62 36.18C248.34 35.73 246.53 35.26 245.61 35.13C244.68 35 242.89 34.89 241.65 34.89C240.4 34.89 238.22 34.77 236.81 34.63C234.9 34.43 234.23 34.43 234.19 34.63C234.15 34.81 233.23 34.89 231.34 34.89C229.8 34.89 227.78 35 226.85 35.13C225.92 35.26 224.12 35.73 222.83 36.18C221.55 36.63 219.93 37.35 219.22 37.79C218.52 38.22 217.65 38.64 217.3 38.72C216.75 38.83 216.66 38.78 216.67 38.33C216.67 38.04 216.83 37.07 217.02 36.17C217.21 35.28 217.36 33.76 217.36 32.8C217.36 31.62 217.25 30.88 217.01 30.52C216.69 30.05 216.48 30 214.6 30C213.47 30 212.5 30.04 212.45 30.09Z" />
		<path id="Path 1" class="shp1" d="M212.45 31.95C212.4 32 211.46 32.11 210.37 32.2C209.28 32.29 207.76 32.45 206.99 32.56C206.23 32.67 204.5 32.97 203.15 33.23C201.81 33.48 199.45 34.08 197.91 34.55C196.37 35.02 194.17 35.66 193.02 35.97C191.86 36.28 190.37 36.74 189.7 37C189.03 37.25 188.06 37.72 187.54 38.04C186.73 38.54 186.58 38.78 186.37 39.84C186.24 40.51 185.87 42.58 185.55 44.44C185.23 46.3 184.82 48.45 184.64 49.22C184.45 49.99 184.09 51.93 183.84 53.53C183.59 55.13 183.2 57.8 182.99 59.47C182.78 61.13 182.4 63.33 182.16 64.36C181.91 65.38 181.55 67.01 181.36 67.97C181.18 68.93 180.87 71.45 180.69 73.56C180.5 75.68 180.22 79.03 180.07 81.02C179.9 83.17 179.85 85.8 179.94 87.54C180.03 89.14 180.23 91.07 180.39 91.83L180.67 93.21C183.92 95.44 185.91 96.63 187.19 97.29C188.48 97.94 189.6 98.48 189.7 98.48C189.79 98.49 191.21 99.08 192.84 99.81L195.81 101.14C200.15 101.28 202.77 101.21 204.43 101.07C206.1 100.93 207.53 100.74 207.61 100.64C207.69 100.55 207.83 98.79 207.91 96.74C207.99 94.69 208.17 91.86 208.3 90.45C208.53 87.93 208.52 87.88 207.98 87.3C207.68 86.98 207.15 86.33 206.81 85.85C206.46 85.37 206.21 84.74 206.24 84.45C206.28 84.1 206.47 83.91 206.82 83.87C207.16 83.83 207.53 84.04 207.87 84.45C208.16 84.8 209.07 85.78 209.91 86.63C210.74 87.47 211.89 88.41 212.47 88.71C213.05 89.01 214.57 89.61 215.85 90.03C217.13 90.46 218.86 90.92 219.69 91.05C220.52 91.19 221.94 91.45 222.83 91.65C223.86 91.87 226.67 92.07 230.41 92.19C233.67 92.29 238.97 92.29 242.17 92.19C246.49 92.04 248.62 91.87 250.44 91.51C251.78 91.25 253.46 90.91 254.17 90.77C254.87 90.63 256.23 90.25 257.19 89.92C258.16 89.59 259.47 89.01 260.11 88.64C260.75 88.26 261.9 87.31 262.67 86.52C263.44 85.73 264.3 84.79 264.59 84.45C264.93 84.04 265.3 83.83 265.64 83.87C265.99 83.91 266.18 84.1 266.22 84.45C266.25 84.74 266 85.37 265.65 85.85C265.31 86.33 264.66 87.09 264.22 87.54C263.46 88.3 263.41 88.43 263.55 89.4C263.63 89.98 263.82 92.81 263.97 95.69C264.12 98.57 264.31 101.01 264.39 101.11C264.47 101.21 265.9 101.4 267.56 101.54C269.23 101.67 271.85 101.75 273.38 101.7L276.18 101.6C280.78 99.55 282.2 98.95 282.29 98.95C282.39 98.95 283.52 98.41 284.8 97.75C286.08 97.1 288.07 95.91 289.22 95.12L291.32 93.68C291.76 91.54 291.96 89.61 292.05 88C292.15 86.26 292.1 83.64 291.93 81.48C291.77 79.5 291.49 76.14 291.31 74.03C291.12 71.91 290.82 69.4 290.63 68.44C290.44 67.48 290.08 65.85 289.84 64.83C289.59 63.8 289.21 61.6 289 59.93C288.79 58.27 288.41 55.6 288.15 53.99C287.9 52.39 287.54 50.45 287.36 49.68C287.17 48.92 286.76 46.77 286.44 44.91C286.13 43.05 285.76 40.98 285.62 40.31C285.41 39.24 285.26 39.01 284.45 38.5C283.94 38.18 282.97 37.71 282.29 37.46C281.62 37.21 280.13 36.75 278.98 36.44C277.82 36.13 275.65 35.49 274.14 35.03C272.64 34.57 270.07 33.94 268.43 33.62C266.8 33.31 264.78 32.98 263.95 32.9C263.12 32.82 262.17 32.71 261.85 32.66C261.53 32.61 260.2 32.49 258.88 32.39L256.49 32.21C256.52 34.74 256.71 36.45 256.92 37.63L257.31 39.79C259.66 41.42 260.47 42.07 260.63 42.29C260.8 42.51 260.93 42.93 260.93 43.22C260.92 43.65 260.79 43.74 260.22 43.74C259.84 43.74 259.5 43.65 259.47 43.54C259.43 43.43 258.49 42.75 257.37 42.03C256.25 41.3 254.75 40.51 254.05 40.25C253.35 39.99 252.72 39.68 252.65 39.55C252.59 39.42 252.09 39.09 251.55 38.82C251 38.55 249.82 38.07 248.92 37.77C248.03 37.46 246.77 37.1 246.13 36.96C245.49 36.83 241.82 36.68 237.98 36.64C234.13 36.6 229.84 36.66 228.43 36.77C226.66 36.92 225.25 37.19 223.88 37.65C222.79 38.02 221.46 38.55 220.91 38.82C220.37 39.09 219.87 39.42 219.81 39.55C219.74 39.68 219.14 39.98 218.47 40.22C217.79 40.46 216.3 41.27 215.15 42.01C213.99 42.76 213.02 43.45 212.99 43.56C212.96 43.66 212.62 43.74 212.24 43.74C211.69 43.74 211.54 43.64 211.54 43.28C211.54 43.02 211.63 42.63 211.75 42.4C211.86 42.18 212.55 41.58 213.27 41.06C214.27 40.36 214.61 39.97 214.69 39.43C214.74 39.05 214.95 37.84 215.14 36.76C215.34 35.67 215.49 34.12 215.5 33.32L215.5 31.86C213.21 31.86 212.5 31.9 212.45 31.95Z" />
		<path id="Path 2" class="shp0" d="M213.57 64.05C213.36 64.35 213.24 64.7 213.29 64.83C213.35 64.95 213.65 65.19 213.98 65.35C214.3 65.51 214.78 65.64 215.03 65.64C215.47 65.64 215.5 65.8 215.5 68.84L215.5 72.05C212.97 72.86 212.18 73.25 212.12 73.44C212.06 73.64 212.11 74 212.24 74.26C212.39 74.57 212.64 74.7 212.99 74.63C213.28 74.58 214.36 74.31 215.38 74.04C216.73 73.67 217.99 73.52 219.92 73.5C221.4 73.48 223.89 73.54 225.46 73.63C227.03 73.72 228.44 73.86 228.6 73.93C228.76 74.01 229.13 73.95 229.42 73.81C229.75 73.65 229.94 73.35 229.94 72.98C229.94 72.66 229.81 72.33 229.65 72.24C229.49 72.16 228.62 72.05 227.73 72C226.83 71.94 226.07 71.88 226.03 71.86C226 71.83 226.05 70.69 226.15 69.31L226.33 66.8C227.5 66.8 228.11 66.7 228.43 66.57C228.88 66.39 228.99 66.19 228.95 65.7L228.89 65.06C223.3 64.83 220.52 64.59 219.11 64.38C217.7 64.18 216.07 63.95 215.5 63.87C214.92 63.79 214.33 63.68 214.19 63.62C214.05 63.56 213.77 63.76 213.57 64.05ZM259.41 63.78C258.9 63.89 257.17 64.15 255.56 64.37C253.96 64.59 251.08 64.84 249.16 64.92L245.66 65.06C245.56 66.19 245.68 66.39 246.13 66.57C246.45 66.7 247.05 66.8 247.47 66.8L248.23 66.8C248.51 70.69 248.56 71.83 248.52 71.86C248.49 71.88 247.73 71.94 246.83 72C245.93 72.05 245.07 72.16 244.91 72.24C244.75 72.33 244.62 72.66 244.62 72.98C244.62 73.35 244.8 73.65 245.14 73.81C245.43 73.95 245.79 74.01 245.95 73.93C246.12 73.86 247.53 73.72 249.1 73.63C250.67 73.54 253.16 73.48 254.63 73.5C256.57 73.52 257.83 73.67 259.17 74.04C260.2 74.31 261.27 74.58 261.56 74.63C261.91 74.7 262.16 74.57 262.32 74.26C262.45 74 262.5 73.64 262.44 73.44C262.37 73.25 261.58 72.86 260.69 72.57L259.05 72.05C259.06 65.8 259.08 65.64 259.52 65.64C259.78 65.64 260.25 65.51 260.58 65.35C260.9 65.19 261.21 64.95 261.26 64.83C261.31 64.7 261.21 64.36 261.02 64.07C260.84 63.78 260.61 63.56 260.51 63.57C260.42 63.58 259.92 63.68 259.41 63.78Z" />
		<path id="Path 3" class="shp2" d="M217.39 68.76L217.36 71.7C223.53 71.7 224.14 71.64 224.23 71.35C224.3 71.16 224.35 70.32 224.35 69.48C224.35 68.42 224.26 67.97 224.06 67.98C223.9 67.98 223.48 67.77 223.13 67.51C222.77 67.25 222.53 66.96 222.58 66.86C222.64 66.77 221.72 66.55 220.54 66.38C219.37 66.21 218.19 66.01 217.92 65.95C217.44 65.83 217.43 65.9 217.39 68.76Z" />
		<path id="Path 4" class="shp1" d="M256.03 66.04C255.71 66.1 255.34 66.23 255.21 66.34C255.07 66.46 255.3 66.69 255.8 66.92C256.25 67.13 256.74 67.25 256.9 67.17C257.06 67.1 257.19 66.78 257.19 66.46C257.19 66.13 257.07 65.89 256.9 65.91C256.74 65.92 256.35 65.98 256.03 66.04Z" />
		<path id="Path 5" class="shp2" d="M253.9 66.37C253.34 66.46 252.28 66.6 251.55 66.67L250.21 66.81C250.21 70.06 250.26 71.16 250.32 71.35C250.42 71.64 251.02 71.7 253.82 71.7L257.19 71.7C257.19 67.59 257.13 67.07 256.9 67.17C256.74 67.25 256.27 67.14 255.86 66.94C255.44 66.74 255.06 66.49 255.01 66.39C254.96 66.29 254.46 66.28 253.9 66.37Z" />
		<path id="Path 6" class="shp1" d="M222.64 66.79C222.55 66.93 222.77 67.25 223.13 67.51C223.48 67.77 223.9 67.98 224.06 67.98C224.22 67.97 224.35 67.71 224.35 67.39C224.35 66.96 224.22 66.81 223.88 66.81C223.63 66.81 223.28 66.75 223.1 66.67C222.93 66.6 222.72 66.65 222.64 66.79Z" />
		<path id="Path 7" class="shp2" d="M231.87 71.48C231.59 72.05 231.33 72.87 231.29 73.3C231.25 73.74 231.33 74.13 231.45 74.18C231.58 74.23 231.93 73.51 232.23 72.57C232.53 71.63 232.68 70.79 232.57 70.67C232.46 70.54 232.16 70.88 231.87 71.48ZM242.79 72.22C242.41 73.4 242.33 73.98 242.5 74.14C242.67 74.3 242.89 74.05 243.2 73.33C243.45 72.75 243.69 71.92 243.73 71.49C243.77 71.06 243.69 70.66 243.56 70.61C243.43 70.56 243.08 71.29 242.79 72.22ZM234.59 71.87C234.33 72.48 234.09 73.19 234.06 73.44C234.04 73.71 234.16 73.91 234.34 73.91C234.51 73.91 234.85 73.44 235.08 72.86C235.31 72.29 235.51 71.58 235.52 71.29C235.52 71 235.43 70.77 235.31 70.77C235.18 70.77 234.86 71.26 234.59 71.87ZM237.48 71.06C237.39 71.22 237.17 71.87 237.01 72.51C236.82 73.26 236.79 73.76 236.94 73.91C237.09 74.07 237.24 74.07 237.39 73.91C237.52 73.78 237.78 73.11 237.97 72.42C238.16 71.72 238.27 71.07 238.21 70.96C238.14 70.85 237.99 70.77 237.87 70.77C237.75 70.77 237.57 70.9 237.48 71.06ZM240.06 71.64C239.85 72.12 239.62 72.87 239.53 73.31C239.41 73.92 239.45 74.09 239.68 74.01C239.85 73.96 240.25 73.31 240.56 72.57C240.87 71.83 241.07 71.13 241 71C240.94 70.87 240.78 70.77 240.66 70.77C240.53 70.77 240.26 71.16 240.06 71.64ZM207.64 75.67C207.36 76.24 207.1 77.06 207.06 77.5C207.03 77.93 207.1 78.32 207.23 78.37C207.36 78.42 207.7 77.7 208 76.77C208.3 75.83 208.45 74.98 208.35 74.86C208.23 74.73 207.93 75.08 207.64 75.67ZM267.71 76.41C267.34 77.59 267.25 78.17 267.42 78.34C267.59 78.5 267.81 78.24 268.13 77.52C268.38 76.94 268.62 76.12 268.66 75.68C268.69 75.25 268.62 74.85 268.49 74.81C268.35 74.76 268.01 75.48 267.71 76.41ZM210.37 76.07C210.1 76.67 209.86 77.38 209.84 77.64C209.81 77.9 209.93 78.1 210.11 78.1C210.28 78.1 210.62 77.63 210.85 77.06C211.09 76.48 211.28 75.77 211.29 75.48C211.3 75.19 211.2 74.96 211.08 74.96C210.96 74.96 210.64 75.46 210.37 76.07ZM213.01 76.17C212.78 76.83 212.62 77.51 212.65 77.68C212.68 77.85 212.78 77.99 212.88 78C212.97 78 213.17 77.87 213.31 77.71C213.45 77.54 213.69 76.94 213.84 76.37C213.99 75.8 214.06 75.25 213.99 75.15C213.92 75.04 213.76 74.96 213.64 74.96C213.52 74.96 213.23 75.5 213.01 76.17ZM264.98 75.83C264.78 76.31 264.54 77.07 264.46 77.51C264.34 78.12 264.37 78.28 264.61 78.2C264.78 78.15 265.17 77.5 265.48 76.76C265.79 76.03 265.99 75.32 265.93 75.19C265.87 75.06 265.71 74.96 265.58 74.96C265.46 74.96 265.19 75.35 264.98 75.83ZM262.38 75.48C262.26 75.64 262.04 76.25 261.9 76.82C261.76 77.4 261.7 77.95 261.75 78.05C261.81 78.14 261.96 78.22 262.09 78.22C262.21 78.22 262.48 77.67 262.67 77C262.86 76.32 263.02 75.64 263.02 75.48C263.02 75.32 262.93 75.19 262.81 75.19C262.7 75.19 262.5 75.32 262.38 75.48Z" />
		<path id="Path 8" class="shp0" d="M236 76.32C235.42 76.68 234.63 77.33 234.23 77.77C233.84 78.21 233.45 78.81 233.36 79.09C233.27 79.4 233.32 79.77 233.49 79.98C233.65 80.18 234.02 80.33 234.31 80.33C234.63 80.32 234.88 80.14 234.95 79.85C235.01 79.59 235.56 78.96 236.17 78.44C236.78 77.93 237.38 77.5 237.51 77.5C237.64 77.5 238.24 77.93 238.85 78.44C239.46 78.96 240.01 79.59 240.07 79.85C240.15 80.14 240.39 80.32 240.71 80.33C241 80.33 241.37 80.18 241.53 79.98C241.7 79.77 241.75 79.4 241.66 79.09C241.57 78.81 241.18 78.21 240.79 77.77C240.39 77.33 239.6 76.68 239.02 76.31C238.45 75.95 237.77 75.65 237.51 75.65C237.25 75.66 236.57 75.95 236 76.32Z" />
	</g>
</svg>