<svg version="1.2" baseProfile="tiny-ps" xmlns="http://www.w3.org/2000/svg" viewBox="0 0 980 227" width="164" height="38">
	<title>lighty_server-wordmark</title>
	<style>
		tspan { white-space:pre }
		.shp0 { fill: #ffffff } 
		.shp1 { fill: #8e9297 } 
		.shp2 { fill: #000000 } 
		.shp3 { fill: #fff3f4 } 
		.shp4 { fill: #c44145 } 
	</style>
	<path id="LIGHTY EMOJIS! " fill-rule="evenodd" class="shp0" d="M0 122.29L24.55 97.98L24.55 170.46L63.91 170.46L63.91 194.57L0 194.57L0 122.29ZM98.05 194.43L73.59 194.43L73.59 97.85L98.05 97.85L98.05 194.43ZM162.41 126.49C157.07 113.53 135.49 116.54 135.49 129.22L135.49 162.37C135.49 177.52 163.77 177.38 163.77 162.37L163.77 158.82L148.33 158.82L148.33 138.36L187.27 138.36L187.27 162.37C187.27 184.61 168.69 195.8 149.29 195.8C130.16 195.8 111.03 184.61 111.03 162.37L111.03 129.22C111.03 107.39 130.16 96.48 149.29 96.48C161.86 96.48 176.2 101.67 182.9 117.08L162.41 126.49ZM223.2 194.43L198.62 194.43L198.62 97.85L223.2 97.85L223.2 134.41L251.07 134.41L251.07 97.85L275.67 97.85L275.67 194.43L251.07 194.43L251.07 158.01L223.2 158.01L223.2 194.43ZM335.65 120.9L335.65 194.43L310.92 194.43L310.92 120.9L285.24 120.9L285.24 97.71L361.34 97.71L361.34 120.9L335.65 120.9ZM395.76 194.43L395.76 156.37L362.02 97.85L390.44 97.85L407.93 133.32L425.41 97.85L454.11 97.85L420.23 156.37L420.23 194.43L395.76 194.43ZM505.35 135.77L544.56 135.77L544.56 156.91L505.35 156.91L505.35 171.38L547.98 171.38L547.98 194.43L480.62 194.43L480.62 97.85L547.98 97.85L547.98 120.77L505.35 120.77L505.35 135.77ZM560.96 97.85L585.41 97.85L605.77 145.05L626.26 97.85L650.72 97.85L650.72 194.43L626.12 194.43L626.26 166.6L627.77 147.09L626.94 146.96L614.24 180.11L597.44 180.11L584.46 146.96L583.77 147.09L585.41 166.6L585.41 194.43L560.96 194.43L560.96 97.85ZM663.7 129.63C663.7 107.39 683.65 96.48 703.73 96.48C723.81 96.48 743.9 107.53 743.9 129.63L743.9 162.65C743.9 184.74 723.95 195.8 703.87 195.8C683.78 195.8 663.7 184.74 663.7 162.65L663.7 129.63ZM688.15 162.65C688.15 169.74 696.08 173.16 703.87 173.16C711.65 173.16 719.44 169.61 719.44 162.65L719.44 129.63C719.44 122.13 711.38 118.71 703.46 118.71C695.81 118.71 688.15 122.54 688.15 129.63L688.15 162.65ZM772.73 161.28C774.09 169.06 780.52 172.2 786.53 172.2C792.54 172.2 798.28 168.51 798.28 162.92L798.28 119.94L776.28 119.94L776.28 97.85L822.46 97.85L822.46 162.92C822.46 183.93 804.02 195.8 785.57 195.8C768.9 195.8 752.37 186.52 749.64 166.06L772.73 161.28ZM861.54 194.43L837.08 194.43L837.08 97.85L861.54 97.85L861.54 194.43ZM887.63 163.87C897.34 175.6 918.65 176.15 919.33 165.79C919.61 160.33 910.73 157.19 902.8 156.1C887.22 153.64 873.02 143.82 873.02 125.4C873.02 106.43 890.23 96.48 907.99 96.48C919.74 96.48 931.08 99.76 941.06 111.89L925.07 124.17C914.96 113.4 897.61 113.8 897.2 125C897.47 129.63 902.52 132.36 910.04 134C927.25 137.13 944.47 143.14 943.38 166.87C942.56 185.57 922.88 195.8 905.12 195.8C893.51 195.8 881.22 189.93 872.19 178.34L887.63 163.87ZM952.12 97.3L980 97.3L978.63 164.42L953.49 164.42L952.12 97.3ZM966.19 168.51C973.85 168.51 980 174.65 980 182.29C980 189.79 973.85 195.8 966.19 195.8C958.68 195.8 952.67 189.79 952.67 182.29C952.67 174.65 958.68 168.51 966.19 168.51Z" />
	<path id="Verified Lightcord Server " fill-rule="evenodd" class="shp1" d="M284.8 73.72L277.74 73.72L263.94 37.06L271.54 35.75L281.54 64.45L291.37 36.13L298.87 36.13L284.8 73.72ZM321.04 61.73L304.19 61.73C304.52 66.83 307.23 69.06 311.26 69.06C314.62 69.06 317.4 67.81 320.27 65.8L321.04 70.9C318.21 72.85 314.78 74.11 310.55 74.11C303.21 74.11 297.73 69.92 297.73 60.48C297.73 51.97 302.83 46.81 309.68 46.81C317.56 46.81 321.08 52.73 321.08 60.16C321.08 60.7 321.04 61.36 321.04 61.73ZM309.52 51.32C306.9 51.32 304.79 53.38 304.3 57.66L314.73 57.66C314.29 53.6 312.67 51.32 309.52 51.32ZM332.87 58.54L332.87 73.56L326.36 73.56L326.36 47.36L331.89 47.36L332.71 52.62C334.45 49.59 337.06 47.03 341.14 46.81L342.16 53.27C338.09 53.55 334.73 55.72 332.87 58.54ZM349.88 42.97C347.71 42.97 345.97 41.45 345.97 39.27C345.97 37.06 347.71 35.48 349.88 35.48C352 35.48 353.74 37.06 353.74 39.27C353.74 41.45 352 42.97 349.88 42.97ZM346.56 73.56L346.56 47.36L353.09 47.36L353.09 73.56L346.56 73.56ZM371.39 40.2C369.16 40.2 367.97 41.17 367.97 43.5L367.97 47.36L372.97 47.36L373.78 52.67L367.97 52.67L367.97 73.56L361.5 73.56L361.5 52.67L357.7 52.67L357.7 47.36L361.5 47.36L361.5 42.86C361.5 37.06 365.2 34.88 370.57 34.88C371.72 34.88 372.59 34.99 373.24 35.1L374.11 40.41C373.46 40.31 372.48 40.2 371.39 40.2ZM381.28 42.97C379.1 42.97 377.37 41.45 377.37 39.27C377.37 37.06 379.1 35.48 381.28 35.48C383.4 35.48 385.14 37.06 385.14 39.27C385.14 41.45 383.4 42.97 381.28 42.97ZM377.96 73.56L377.96 47.36L384.48 47.36L384.48 73.56L377.96 73.56ZM413.33 61.73L396.49 61.73C396.82 66.83 399.53 69.06 403.56 69.06C406.92 69.06 409.7 67.81 412.57 65.8L413.33 70.9C410.5 72.85 407.08 74.11 402.85 74.11C395.51 74.11 390.03 69.92 390.03 60.48C390.03 51.97 395.13 46.81 401.98 46.81C409.86 46.81 413.38 52.73 413.38 60.16C413.38 60.7 413.33 61.36 413.33 61.73ZM401.82 51.32C399.2 51.32 397.09 53.38 396.6 57.66L407.03 57.66C406.59 53.6 404.97 51.32 401.82 51.32ZM435.82 73.56L435.28 69.92C433.44 72.15 430.88 74.11 427.24 74.11C421.75 74.11 417.35 70.03 417.35 61.19C417.35 51.43 422.73 47.09 428.81 47.09C431.31 47.09 433.32 47.52 434.9 48.06L434.9 35.43L441.42 34.39L441.42 73.56L435.82 73.56ZM434.9 53.43C433.27 52.67 432.02 52.29 429.79 52.29C426.37 52.29 423.87 55.06 423.87 60.81C423.87 65.91 426.05 68.3 428.92 68.3C431.31 68.3 433.16 66.89 434.9 64.71L434.9 53.43ZM460.33 73.56L460.33 36.13L467.55 36.13L467.55 67.21L480.04 67.21L481.02 73.56L460.33 73.56ZM489.17 42.97C487 42.97 485.26 41.45 485.26 39.27C485.26 37.06 487 35.48 489.17 35.48C491.29 35.48 493.03 37.06 493.03 39.27C493.03 41.45 491.29 42.97 489.17 42.97ZM485.85 73.56L485.85 47.36L492.38 47.36L492.38 73.56L485.85 73.56ZM522.69 46.98L523.55 52.19L518.78 52.51C519.27 53.55 519.48 54.74 519.48 55.93C519.48 61.57 514.65 64.93 509 64.93C508.24 64.93 507.53 64.88 506.88 64.77C506.23 65.26 505.79 65.75 505.79 66.18C505.79 67.05 506.61 67.27 510.68 67.86L514.05 68.19C519.43 68.94 522.8 70.63 522.8 74.64C522.8 80.28 516.61 83.43 509 83.43C501.88 83.43 496.5 81.26 496.5 76.93C496.5 74.48 498.19 72.58 501.45 70.74C500.42 69.92 499.93 68.94 499.93 67.92C499.93 66.45 501.06 65.04 503.24 63.75C500.14 62.28 498.3 59.56 498.3 56.09C498.3 50.4 502.97 46.81 508.84 46.81C511.82 46.81 514.38 47.69 516.28 49.26L522.69 46.98ZM508.89 51C506.01 51 504.33 53.22 504.33 56.09C504.33 58.8 506.07 60.87 508.89 60.87C511.77 60.87 513.5 58.75 513.5 55.93C513.5 53.11 511.66 51 508.89 51ZM502.16 76.22C502.16 78.17 504.49 79.58 509.43 79.58C514.1 79.58 516.77 78.01 516.77 76.05C516.77 74.64 515.63 73.83 512.37 73.34L508.84 72.91C507.04 72.7 506.23 72.53 504.93 72.25C503.02 73.62 502.16 74.86 502.16 76.22ZM543.34 73.56L543.34 56.42C543.34 54.14 542.36 52.57 539.96 52.57C537.9 52.57 535.89 53.86 533.99 55.88L533.99 73.56L527.46 73.56L527.46 35.43L533.99 34.39L533.99 50.67C536.16 48.66 538.88 46.81 542.36 46.81C547.25 46.81 549.85 49.8 549.85 54.68L549.85 73.56L543.34 73.56ZM566.37 73.99C561.21 73.99 557.73 72.09 557.73 66.12L557.73 52.67L554.04 52.67L554.04 47.36L557.73 47.36L557.73 39.06L564.14 38.08L564.14 47.36L569.52 47.36L570.33 52.67L564.14 52.67L564.14 65.04C564.14 67.16 565.12 68.3 567.61 68.3C568.37 68.3 569.08 68.24 569.68 68.08L570.5 73.56C569.46 73.78 568.27 73.99 566.37 73.99ZM586.25 74.05C578.97 74.05 573.81 69.17 573.81 60.6C573.81 51.49 579.51 46.81 586.46 46.81C590 46.81 592.6 47.73 594.67 49.04L593.75 54.9C591.52 53.22 589.4 52.45 586.85 52.45C583.1 52.45 580.38 55.23 580.38 60.44C580.38 65.86 583.31 68.46 587.28 68.46C589.57 68.46 591.62 67.86 594.07 65.96L594.94 71.5C592.28 73.34 589.57 74.05 586.25 74.05ZM610.59 74.11C603.47 74.11 598.31 69 598.31 60.48C598.31 51.97 603.53 46.81 610.64 46.81C617.81 46.81 623.03 51.97 623.03 60.48C623.03 69 617.76 74.11 610.59 74.11ZM610.59 52.19C606.73 52.19 604.66 55.6 604.66 60.48C604.66 65.26 606.78 68.78 610.59 68.78C614.61 68.78 616.67 65.37 616.67 60.48C616.67 55.66 614.5 52.19 610.59 52.19ZM634.82 58.54L634.82 73.56L628.3 73.56L628.3 47.36L633.84 47.36L634.66 52.62C636.4 49.59 639 47.03 643.07 46.81L644.11 53.27C640.03 53.55 636.66 55.72 634.82 58.54ZM664.7 73.56L664.15 69.92C662.31 72.15 659.75 74.11 656.11 74.11C650.62 74.11 646.22 70.03 646.22 61.19C646.22 51.43 651.6 47.09 657.69 47.09C660.18 47.09 662.19 47.52 663.77 48.06L663.77 35.43L670.29 34.39L670.29 73.56L664.7 73.56ZM663.77 53.43C662.14 52.67 660.89 52.29 658.67 52.29C655.25 52.29 652.75 55.06 652.75 60.81C652.75 65.91 654.92 68.3 657.79 68.3C660.18 68.3 662.04 66.89 663.77 64.71L663.77 53.43ZM699.41 73.99C694.85 73.99 690.94 72.96 687.62 71.39L688.71 64.83C691.86 66.67 695.77 68.14 699.52 68.14C702.83 68.14 705.12 66.57 705.12 63.58C705.12 60.81 703.81 59.67 698.37 57.34C691.1 54.35 688.16 51.97 688.16 46.17C688.16 39.55 693.27 35.69 700.28 35.69C704.51 35.69 707.45 36.57 710.16 37.98L709.08 44.48C706.37 42.7 703.16 41.56 700.23 41.56C696.63 41.56 695.06 43.29 695.06 45.57C695.06 47.95 696.26 49.1 701.48 51.26C709.19 54.41 712.02 57.07 712.02 62.87C712.02 70.19 706.64 73.99 699.41 73.99ZM739.45 61.73L722.6 61.73C722.93 66.83 725.65 69.06 729.67 69.06C733.04 69.06 735.8 67.81 738.69 65.8L739.45 70.9C736.62 72.85 733.2 74.11 728.96 74.11C721.62 74.11 716.14 69.92 716.14 60.48C716.14 51.97 721.25 46.81 728.09 46.81C735.97 46.81 739.5 52.73 739.5 60.16C739.5 60.7 739.45 61.36 739.45 61.73ZM727.93 51.32C725.32 51.32 723.2 53.38 722.72 57.66L733.14 57.66C732.71 53.6 731.08 51.32 727.93 51.32ZM751.29 58.54L751.29 73.56L744.77 73.56L744.77 47.36L750.31 47.36L751.13 52.62C752.87 49.59 755.47 47.03 759.54 46.81L760.58 53.27C756.51 53.55 753.14 55.72 751.29 58.54ZM777.86 73.66L771.5 73.66L762.32 47.85L769.16 46.98L775.03 65.59L780.68 47.36L787.15 47.36L777.86 73.66ZM812.41 61.73L795.56 61.73C795.89 66.83 798.61 69.06 802.63 69.06C806 69.06 808.76 67.81 811.65 65.8L812.41 70.9C809.58 72.85 806.16 74.11 801.92 74.11C794.58 74.11 789.1 69.92 789.1 60.48C789.1 51.97 794.21 46.81 801.05 46.81C808.93 46.81 812.46 52.73 812.46 60.16C812.46 60.7 812.41 61.36 812.41 61.73ZM800.89 51.32C798.28 51.32 796.16 53.38 795.67 57.66L806.1 57.66C805.67 53.6 804.04 51.32 800.89 51.32ZM824.25 58.54L824.25 73.56L817.73 73.56L817.73 47.36L823.27 47.36L824.09 52.62C825.83 49.59 828.43 47.03 832.5 46.81L833.54 53.27C829.47 53.55 826.1 55.72 824.25 58.54Z" />
	<g id="Layer 5">
		<path id="Path 0" class="shp2" d="M180.79 16C182.59 16 182.79 16.05 183.1 16.5C183.33 16.84 183.44 17.55 183.44 18.69C183.44 19.61 183.29 21.07 183.11 21.92C182.93 22.78 182.77 23.71 182.77 23.99C182.76 24.42 182.85 24.47 183.38 24.37C183.72 24.29 184.55 23.89 185.22 23.47C185.91 23.05 187.46 22.36 188.69 21.93C189.93 21.5 191.66 21.05 192.55 20.92C193.45 20.8 195.39 20.69 196.87 20.69C198.68 20.69 199.57 20.61 199.61 20.44C199.65 20.25 200.29 20.25 202.12 20.44C203.48 20.58 205.57 20.69 206.77 20.69C207.97 20.69 209.69 20.8 210.58 20.92C211.46 21.05 213.2 21.5 214.43 21.93C215.67 22.36 217.23 23.04 217.9 23.45C218.58 23.87 219.31 24.27 219.52 24.35C219.77 24.43 219.92 24.38 219.92 24.21C219.91 24.06 219.76 23.23 219.58 22.37C219.4 21.51 219.24 20.03 219.24 19.07C219.24 17.64 219.32 17.27 219.7 16.89C220 16.59 220.44 16.45 221.09 16.45C221.62 16.45 223.76 16.6 225.84 16.8C227.94 16.98 230.97 17.39 232.56 17.7C234.17 18 236.33 18.5 237.37 18.82C238.42 19.14 240.08 19.63 241.06 19.91C242.05 20.2 243.61 20.65 244.54 20.92C245.46 21.19 247.13 21.84 250.25 23.33L250.74 25.86C251.02 27.26 251.45 29.61 251.71 31.08C251.98 32.56 252.37 34.62 252.6 35.67C252.83 36.71 253.17 38.77 253.36 40.24C253.55 41.72 253.87 43.98 254.06 45.28C254.25 46.56 254.62 48.47 254.86 49.52C255.11 50.56 255.42 51.93 255.54 52.54C255.67 53.15 255.85 54.51 255.95 55.55C256.05 56.6 256.24 58.86 256.38 60.58C256.51 62.31 256.72 64.51 256.85 65.5C256.96 66.48 257.07 68.24 257.07 69.41C257.07 70.58 256.92 72.84 256.71 74.44C256.48 76.37 256.23 77.53 255.96 77.9C255.75 78.21 254.63 79.09 253.47 79.86C252.31 80.63 250.46 81.75 249.35 82.35C248.24 82.95 246.93 83.56 246.44 83.72C245.94 83.88 244.69 84.4 243.64 84.89C242.59 85.38 241.19 85.96 240.51 86.19C239.57 86.52 238.66 86.63 236.7 86.63C235.29 86.63 232.63 86.49 230.79 86.34C227.62 86.07 227.44 86.03 227.11 85.5C226.83 85.06 226.73 83.92 226.59 80.36C226.51 77.84 226.35 75.25 226.26 74.6C226.15 73.95 226.05 73.42 226.02 73.42C225.99 73.43 225.48 73.67 224.89 73.96C224.32 74.26 222.88 74.8 221.7 75.17C220.54 75.54 218.23 76.11 216.56 76.42C214.9 76.73 213.09 77.05 212.53 77.12C211.98 77.19 210.12 77.34 208.39 77.45C206.67 77.58 202.99 77.67 200.22 77.67C197.45 77.66 194.53 77.58 193.74 77.46C192.93 77.36 191.67 77.2 190.93 77.14C190.2 77.07 188.03 76.71 186.13 76.33C184.22 75.97 182.1 75.49 181.42 75.29C180.75 75.08 179.37 74.51 176.57 73.1L176.31 75.28C176.16 76.48 176.05 78.74 176.04 80.3C176.04 81.87 175.94 83.6 175.83 84.16C175.71 84.72 175.49 85.28 175.34 85.44C175.15 85.61 173.29 85.8 170.01 85.97C166.41 86.17 164.56 86.18 163.52 86.02C162.67 85.88 160.92 85.27 159.26 84.54C157.73 83.86 156.22 83.24 155.91 83.15C155.6 83.07 154.49 82.53 153.45 81.97C152.4 81.41 150.59 80.32 149.42 79.55C148.25 78.8 147.09 77.94 146.84 77.66C146.52 77.31 146.29 76.48 146.02 74.58C145.8 73.15 145.62 71.03 145.62 69.86C145.62 68.69 145.72 66.68 145.83 65.39C145.96 64.1 146.17 61.68 146.3 60.02C146.45 58.36 146.64 56.15 146.74 55.11C146.84 54.07 147.02 52.7 147.15 52.09C147.26 51.48 147.57 50.12 147.82 49.08C148.07 48.03 148.43 46.12 148.62 44.83C148.81 43.53 149.13 41.28 149.32 39.8C149.51 38.32 149.86 36.26 150.08 35.22C150.31 34.17 150.71 32.12 150.97 30.64C151.23 29.16 151.67 26.81 152.44 22.88L154.45 21.92C155.57 21.39 157.23 20.75 158.15 20.48C159.07 20.21 160.63 19.75 161.62 19.46C162.6 19.18 164.26 18.69 165.31 18.38C166.35 18.06 168.52 17.55 170.12 17.25C171.73 16.95 174.29 16.58 175.83 16.43C177.37 16.29 178.67 16.13 178.72 16.09C178.77 16.04 179.7 16 180.79 16Z" />
		<path id="Path 1" class="shp3" d="M181.65 17.78L181.65 19.18C181.64 19.95 181.5 21.44 181.3 22.48C181.12 23.52 180.92 24.68 180.87 25.05C180.8 25.56 180.47 25.94 179.51 26.61C178.82 27.11 178.15 27.68 178.05 27.9C177.93 28.12 177.85 28.49 177.85 28.74C177.85 29.09 177.99 29.18 178.52 29.18C178.88 29.18 179.21 29.1 179.24 29.01C179.27 28.9 180.2 28.24 181.31 27.52C182.42 26.81 183.85 26.03 184.5 25.8C185.15 25.57 185.72 25.29 185.79 25.16C185.85 25.04 186.33 24.72 186.85 24.46C187.38 24.2 188.65 23.69 189.7 23.34C191.02 22.9 192.37 22.64 194.07 22.49C195.43 22.39 199.55 22.33 203.25 22.37C206.94 22.41 210.46 22.55 211.08 22.68C211.69 22.81 212.9 23.16 213.76 23.45C214.62 23.74 215.76 24.2 216.29 24.46C216.8 24.72 217.28 25.04 217.34 25.16C217.41 25.29 218.01 25.58 218.69 25.83C219.36 26.08 220.8 26.84 221.88 27.54C222.95 28.23 223.86 28.88 223.89 28.99C223.92 29.09 224.25 29.18 224.62 29.18C225.16 29.18 225.29 29.09 225.3 28.68C225.3 28.4 225.17 28 225.01 27.79C224.86 27.58 224.08 26.96 221.82 25.39L221.44 23.32C221.24 22.19 221.06 20.55 221.03 18.12L223.33 18.29C224.6 18.39 225.87 18.5 226.18 18.55C226.49 18.6 227.4 18.71 228.2 18.78C229 18.86 230.94 19.18 232.5 19.47C234.08 19.78 236.55 20.38 237.99 20.83C239.44 21.27 241.52 21.88 242.64 22.18C243.74 22.48 245.18 22.92 245.82 23.16C246.47 23.4 247.4 23.85 247.89 24.15C248.67 24.64 248.82 24.86 249.02 25.89C249.15 26.53 249.51 28.52 249.81 30.3C250.11 32.09 250.51 34.15 250.69 34.88C250.86 35.62 251.21 37.48 251.45 39.01C251.7 40.56 252.06 43.12 252.27 44.71C252.47 46.31 252.83 48.42 253.07 49.41C253.3 50.39 253.65 51.96 253.83 52.88C254.01 53.8 254.3 56.21 254.49 58.24C254.66 60.26 254.93 63.49 255.08 65.39C255.24 67.46 255.29 69.97 255.2 71.64C255.11 73.18 254.92 75.04 254.49 77.09L252.48 78.47C251.37 79.23 249.46 80.37 248.23 80.99C247 81.63 245.92 82.14 245.82 82.14C245.73 82.14 244.37 82.72 239.95 84.69L237.26 84.78C235.79 84.83 233.27 84.75 231.67 84.63C230.07 84.5 228.7 84.31 228.62 84.22C228.54 84.12 228.36 81.78 228.22 79.02C228.07 76.25 227.89 73.54 227.81 72.98C227.68 72.05 227.73 71.93 228.46 71.2C228.88 70.77 229.51 70.04 229.83 69.58C230.17 69.12 230.41 68.51 230.38 68.23C230.34 67.9 230.16 67.72 229.82 67.68C229.5 67.64 229.14 67.84 228.81 68.23C228.54 68.56 227.71 69.46 226.97 70.22C226.23 70.98 225.12 71.89 224.51 72.25C223.89 72.61 222.64 73.17 221.7 73.48C220.78 73.8 219.48 74.16 218.8 74.3C218.12 74.43 216.51 74.76 215.22 75.01C213.47 75.35 211.42 75.52 207.27 75.66C204.2 75.76 199.11 75.76 195.98 75.66C192.38 75.54 189.68 75.35 188.69 75.14C187.84 74.95 186.47 74.7 185.68 74.57C184.88 74.44 183.22 74 181.99 73.59C180.76 73.18 179.3 72.61 178.74 72.32C178.18 72.03 177.08 71.13 176.28 70.33C175.47 69.51 174.6 68.57 174.32 68.23C173.99 67.84 173.64 67.64 173.31 67.68C172.97 67.72 172.79 67.9 172.75 68.23C172.72 68.51 172.96 69.12 173.3 69.58C173.63 70.04 174.14 70.66 174.43 70.97C174.94 71.53 174.95 71.57 174.73 73.99C174.61 75.34 174.43 78.06 174.36 80.02C174.28 81.99 174.15 83.68 174.07 83.77C173.99 83.86 172.62 84.04 171.01 84.18C169.42 84.31 166.9 84.38 162.73 84.25L159.88 82.97C158.31 82.27 156.95 81.7 156.86 81.69C156.77 81.69 155.69 81.18 154.45 80.55C153.22 79.92 151.31 78.78 148.19 76.64L147.92 75.31C147.76 74.59 147.57 72.73 147.49 71.2C147.4 69.53 147.45 67.01 147.61 64.94C147.75 63.04 148.02 59.82 148.21 57.79C148.38 55.76 148.68 53.35 148.85 52.43C149.03 51.5 149.38 49.94 149.62 48.96C149.85 47.97 150.21 45.86 150.42 44.27C150.62 42.67 150.99 40.11 151.23 38.57C151.47 37.04 151.82 35.18 152 34.44C152.17 33.7 152.57 31.64 152.88 29.85C153.18 28.07 153.54 26.08 153.66 25.44C153.87 24.42 154.01 24.19 154.79 23.71C155.29 23.41 156.22 22.96 156.86 22.72C157.51 22.47 158.94 22.02 160.05 21.73C161.16 21.43 163.27 20.82 164.75 20.36C166.23 19.91 168.5 19.34 169.78 19.1C171.08 18.85 172.74 18.56 173.47 18.46C174.21 18.35 175.67 18.2 176.72 18.11C177.77 18.02 178.67 17.92 178.72 17.87C178.77 17.82 179.45 17.78 181.65 17.78Z" />
		<path id="Path 2" class="shp2" d="M180.39 48.25C180.53 48.31 181.09 48.42 181.65 48.49C182.2 48.57 183.76 48.79 185.12 48.98C186.47 49.18 189.14 49.41 194.51 49.63L194.57 50.25C194.61 50.72 194.51 50.91 194.07 51.08C193.77 51.21 193.18 51.3 192.06 51.3L191.88 53.71C191.79 55.03 191.74 56.13 191.77 56.16C191.81 56.18 192.54 56.23 193.4 56.29C194.26 56.34 195.09 56.44 195.24 56.52C195.4 56.61 195.52 56.92 195.52 57.23C195.52 57.59 195.34 57.87 195.02 58.03C194.75 58.16 194.39 58.22 194.24 58.14C194.08 58.08 192.73 57.94 191.22 57.86C189.71 57.77 187.32 57.71 185.9 57.73C184.04 57.75 182.83 57.89 181.53 58.25C180.55 58.51 179.52 58.77 179.24 58.81C178.9 58.88 178.66 58.76 178.52 58.46C178.39 58.21 178.35 57.86 178.4 57.67C178.46 57.49 179.22 57.12 181.65 56.34L181.65 53.26C181.65 50.34 181.62 50.19 181.2 50.19C180.96 50.19 180.5 50.07 180.19 49.91C179.87 49.76 179.58 49.53 179.53 49.41C179.48 49.29 179.59 48.95 179.8 48.66C179.99 48.39 180.26 48.19 180.39 48.25ZM224.89 48.2C224.99 48.19 225.21 48.41 225.38 48.68C225.57 48.96 225.66 49.29 225.61 49.41C225.57 49.53 225.27 49.76 224.96 49.91C224.64 50.07 224.19 50.19 223.94 50.19C223.52 50.19 223.5 50.34 223.49 56.34L225.07 56.84C225.92 57.12 226.68 57.49 226.75 57.67C226.81 57.86 226.76 58.21 226.63 58.46C226.48 58.76 226.24 58.88 225.9 58.81C225.62 58.77 224.6 58.51 223.61 58.25C222.32 57.89 221.11 57.75 219.24 57.73C217.83 57.71 215.44 57.77 213.93 57.86C212.42 57.94 211.07 58.08 210.91 58.14C210.75 58.22 210.41 58.16 210.13 58.03C209.8 57.87 209.63 57.59 209.63 57.23C209.63 56.92 209.75 56.61 209.91 56.52C210.06 56.44 210.89 56.34 211.75 56.29C212.62 56.23 213.35 56.18 213.37 56.16C213.41 56.13 213.36 55.03 213.1 51.3L212.37 51.3C211.96 51.3 211.39 51.21 211.08 51.08C210.65 50.91 210.53 50.72 210.63 49.63L213.99 49.5C215.83 49.42 218.6 49.18 220.14 48.97C221.68 48.76 223.35 48.51 223.84 48.41C224.33 48.31 224.81 48.21 224.89 48.2Z" />
		<path id="Path 3" class="shp4" d="M183.98 50.49C184.23 50.55 185.37 50.74 186.49 50.9C187.63 51.06 188.51 51.27 188.45 51.36C188.4 51.46 188.63 51.73 188.98 51.98C189.32 52.23 189.72 52.43 189.87 52.43C190.07 52.43 190.15 52.86 190.15 53.87C190.15 54.68 190.1 55.49 190.04 55.67C189.95 55.95 189.37 56 183.44 56L183.47 53.18C183.5 50.44 183.51 50.37 183.98 50.49Z" />
		<path id="Path 4" class="shp3" d="M221.43 50.45C221.59 50.43 221.7 50.66 221.7 50.98C221.7 51.28 221.58 51.59 221.43 51.66C221.27 51.73 220.8 51.62 220.37 51.42C219.89 51.2 219.67 50.98 219.8 50.86C219.93 50.76 220.28 50.63 220.59 50.57C220.9 50.52 221.27 50.46 221.43 50.45Z" />
		<path id="Path 5" class="shp4" d="M219.61 50.91C219.66 51.01 220.02 51.25 220.43 51.44C220.82 51.63 221.27 51.73 221.43 51.66C221.65 51.56 221.7 52.06 221.7 56L218.47 56C215.78 56 215.2 55.95 215.1 55.67C215.05 55.49 215 54.43 215 51.31L216.29 51.18C216.99 51.11 218.01 50.98 218.54 50.89C219.08 50.8 219.56 50.81 219.61 50.91Z" />
		<path id="Path 6" class="shp3" d="M188.95 51.18C189.12 51.25 189.46 51.31 189.7 51.31C190.03 51.31 190.15 51.46 190.15 51.87C190.15 52.18 190.03 52.43 189.87 52.43C189.72 52.43 189.32 52.23 188.98 51.98C188.63 51.73 188.42 51.43 188.51 51.29C188.59 51.16 188.79 51.11 188.95 51.18Z" />
		<path id="Path 7" class="shp4" d="M198.05 55.02C198.16 55.13 198.01 55.94 197.72 56.84C197.44 57.74 197.1 58.43 196.97 58.38C196.86 58.33 196.78 57.96 196.82 57.54C196.86 57.13 197.11 56.34 197.38 55.79C197.66 55.22 197.94 54.89 198.05 55.02ZM208.61 54.96C208.73 55.01 208.81 55.39 208.77 55.8C208.73 56.21 208.5 57.01 208.26 57.57C207.97 58.26 207.75 58.5 207.59 58.34C207.43 58.19 207.5 57.63 207.87 56.5C208.15 55.61 208.48 54.91 208.61 54.96ZM200.68 55.11C200.8 55.11 200.88 55.33 200.88 55.61C200.87 55.89 200.68 56.57 200.46 57.12C200.24 57.67 199.91 58.12 199.75 58.12C199.58 58.12 199.46 57.93 199.48 57.67C199.51 57.43 199.74 56.75 199.99 56.17C200.25 55.58 200.56 55.11 200.68 55.11ZM203.14 55.11C203.26 55.11 203.4 55.19 203.47 55.29C203.53 55.4 203.42 56.02 203.24 56.69C203.06 57.36 202.81 58 202.68 58.12C202.54 58.28 202.39 58.28 202.25 58.12C202.1 57.98 202.13 57.5 202.32 56.78C202.47 56.17 202.68 55.54 202.77 55.39C202.85 55.24 203.03 55.11 203.14 55.11ZM205.82 55.11C205.94 55.11 206.09 55.21 206.15 55.33C206.22 55.46 206.02 56.13 205.73 56.84C205.43 57.55 205.04 58.17 204.88 58.22C204.66 58.3 204.62 58.13 204.74 57.55C204.82 57.13 205.04 56.41 205.25 55.95C205.44 55.49 205.7 55.11 205.82 55.11ZM174.78 59.04C174.88 59.15 174.73 59.97 174.44 60.87C174.16 61.76 173.83 62.45 173.7 62.4C173.58 62.35 173.51 61.98 173.54 61.57C173.58 61.15 173.83 60.36 174.1 59.81C174.38 59.25 174.67 58.91 174.78 59.04ZM232.56 58.99C232.69 59.03 232.75 59.41 232.72 59.82C232.69 60.24 232.45 61.03 232.21 61.59C231.91 62.28 231.7 62.53 231.53 62.37C231.37 62.21 231.46 61.65 231.81 60.52C232.1 59.63 232.43 58.94 232.56 58.99ZM177.4 59.13C177.52 59.13 177.61 59.35 177.61 59.63C177.6 59.91 177.41 60.59 177.18 61.15C176.96 61.69 176.64 62.14 176.47 62.14C176.3 62.14 176.18 61.95 176.21 61.7C176.23 61.45 176.46 60.77 176.72 60.2C176.98 59.61 177.29 59.13 177.4 59.13ZM179.86 59.13C179.98 59.13 180.13 59.21 180.2 59.31C180.27 59.41 180.2 59.94 180.06 60.48C179.91 61.03 179.68 61.61 179.55 61.77C179.41 61.92 179.22 62.05 179.13 62.05C179.04 62.04 178.94 61.9 178.91 61.74C178.88 61.58 179.04 60.92 179.26 60.29C179.47 59.65 179.75 59.13 179.86 59.13ZM229.76 59.13C229.89 59.13 230.04 59.23 230.1 59.35C230.16 59.48 229.97 60.16 229.67 60.86C229.37 61.57 229 62.19 228.83 62.24C228.6 62.32 228.57 62.16 228.69 61.58C228.77 61.16 229 60.43 229.19 59.97C229.39 59.51 229.65 59.13 229.76 59.13ZM227.1 59.35C227.22 59.35 227.31 59.48 227.31 59.63C227.31 59.78 227.15 60.44 226.97 61.09C226.79 61.73 226.53 62.26 226.41 62.26C226.29 62.26 226.14 62.18 226.09 62.1C226.04 62 226.09 61.47 226.23 60.92C226.36 60.37 226.58 59.78 226.69 59.63C226.81 59.48 227 59.35 227.1 59.35Z" />
		<path id="Path 8" class="shp2" d="M202.8 59.79C203.05 59.79 203.7 60.08 204.25 60.43C204.8 60.78 205.56 61.4 205.95 61.83C206.32 62.25 206.7 62.82 206.78 63.09C206.87 63.39 206.82 63.75 206.66 63.95C206.5 64.14 206.15 64.28 205.87 64.28C205.56 64.27 205.33 64.1 205.26 63.82C205.2 63.57 204.67 62.97 204.08 62.47C203.5 61.98 202.92 61.57 202.8 61.57C202.67 61.57 202.1 61.98 201.51 62.47C200.92 62.97 200.39 63.57 200.34 63.82C200.27 64.1 200.03 64.27 199.72 64.28C199.44 64.28 199.09 64.14 198.93 63.95C198.77 63.75 198.72 63.39 198.81 63.09C198.9 62.82 199.27 62.25 199.65 61.83C200.03 61.4 200.79 60.78 201.35 60.44C201.89 60.08 202.55 59.8 202.8 59.79Z" />
	</g>
</svg>