<svg version="1.2" xmlns="http://www.w3.org/2000/svg" viewBox="0 0 1750 405" width="164" height="38"><style>.a{opacity:.5}.b{fill:#5865f2}</style><path class="a" d="m0 0h135v13h-122v121h-13v-67zm1614 0h136v134h-13v-121h-123v-6.5zm-1614 269h13v123h122v13h-135v-68zm1737 0h13v136h-136v-13h123v-61.5z"/><path fill-rule="evenodd" class="b" d="m524.1 221.8v-122.4h67.9q24.9 0 41.7 7.8 17.2 7.8 25.6 21.5 8.7 13.4 8.7 31.1 0 17.5-9.1 31.5-8.7 14-27 22.1-18.1 8.4-44.6 8.4zm43.6-31.1h19q10.9 0 18.7-3.8 7.8-3.7 11.8-10.6 3.8-7.1 3.8-16.5 0-13.4-7.8-21.1-8.1-8.1-24-8.1h-21.5zm136.7-70.4q-6.8 0-12.1-2.5-5.3-2.2-8.4-5.9-3.1-4.1-3.1-9.4 0-4.6 3.1-8.7 3.1-3.7 8.4-5.9 5.3-2.2 12.1-2.2 6.6 0 11.6 2.2 5.2 2.2 8.4 5.9 2.8 4.1 2.8 8.7 0 5.3-2.8 9.4-3.2 3.7-8.1 5.9-5.3 2.5-11.9 2.5zm-21.8 6.2h42.7v95.3h-42.7zm113.7 98.7q-15 0-29.3-3.4-14-3.7-25.2-10.9v-29q5.6 4.4 14 8.1 8.7 3.4 18.4 5.3 9.6 1.9 18.4 1.9 6.2 0 9.3-1.6 3.4-1.5 3.4-4 0-2.5-1.8-4.4-1.6-1.8-6.9-2.8l-20.9-5q-12.1-2.8-19.6-7.1-7.1-4.1-10.3-10-3.4-5.9-3.4-13.7 0-10.3 6.9-17.7 6.5-7.5 18.7-11.6 12.4-4.3 28.6-4.3 15 0 27.1 3.4 12.1 2.8 20.2 7.8v27.4q-8.4-4.7-19-7.5-10.9-3.1-22.1-3.1-16.5 0-16.5 5.6 0 1.9 1.3 3.1 1.2 1 3.4 1.9 2.5 0.6 7.2 1.5l17.7 3.5q11.2 1.8 18.7 5.6 7.2 3.7 11.2 10.3 3.7 6.2 3.7 16.1 0 10.6-5.9 18.4-6.2 7.8-18 12.2-12.2 4-29.3 4zm129.5 0q-21.1 0-36.1-7.1-14.9-7.5-22.7-20-7.8-12.7-7.8-28.3 0-15.6 7.8-28 8.1-12.5 23-19.7 15.6-7.1 36.5-7.1 26.4 0 43.6 11.2v31.7q-6-4-14.1-6.5-8-2.8-17.4-2.8-10.9 0-18.7 2.8-7.8 2.8-12.1 7.5-3.8 5-3.8 11.2 0 6.2 3.8 10.9 4 5 11.5 7.8 8.1 2.8 19.3 2.8 8.7 0 17.1-2.5 8.8-2.5 14.7-6.2v30.8q-9.4 5.6-20.6 8.7-11.2 2.8-24 2.8zm122.4 0q-20.8 0-35.8-7.1-15.2-7.5-23-20.3-8.1-12.8-8.1-28.3 0-15.9 8.1-28.1 7.8-12.4 23-19.3 15-7.1 35.8-7.1 20.6 0 35.5 7.1 15.3 6.9 23.1 19 7.8 12.5 7.8 28.4 0 15.9-7.8 28.3-7.8 12.8-23.1 20.3-14.9 7.1-35.5 7.1zm0-31.8q7.2 0 12.5-3.1 5.3-2.8 8.1-8.1 3.1-5.3 3.1-12.1 0-6.9-3.1-12.2-2.8-4.9-8.1-7.7-5.3-2.8-12.5-2.8-7.4 0-13.1 2.8-5.2 2.8-8 7.7-2.9 5.3-2.9 12.2 0 6.8 2.9 12.1 2.8 5.3 8 8.1 5.7 3.1 13.1 3.1zm154.2-75.9q5 0 9 0.9 4.1 1.2 6.9 3.1v37.7q-2.8-1.9-7.5-3.1-4.4-1.3-10-1.3-13.7 0-21.2 8.4-7.7 8.5-7.7 26.5v32.1h-42.7v-102.2h41.7v32.4q3.8-17.7 11.5-26.1 7.8-8.4 20-8.4zm113.9-21.5h42.7v125.8h-42.7v-23.1q-5.2 13.1-16.5 20-11.2 6.5-27.4 6.5-14.3 0-25.5-6.8-10.6-7.2-16.5-19.3-5.9-12.5-5.9-28.1-0.3-16.2 6.2-28.6 6.2-13.1 18.1-20.3 11.5-7.1 26.4-7.1 15.3 0 25.6 6.8 10.3 6.6 15.5 20zm-23.6 96.5q7.1 0 12.4-2.8 5.6-3.1 8.4-8.1 3.2-5.3 3.2-11.8 0-6.6-3.2-11.6-2.8-4.9-8-7.7-5.3-2.9-12.8-2.9-7.2 0-12.5 2.9-5.3 2.8-8.4 7.7-2.8 5.3-2.8 11.9 0 6.5 2.8 11.5 3.1 5.3 8.4 8.1 5.3 2.8 12.5 2.8zm-736.2 140.4q-12.8 0-22.1-4.3-9-4.4-14-11.9-5-7.7-5-17.1 0-9.6 5-17.4 5-7.8 14.3-12.2 9.7-4.3 22.7-4.3 7.8 0 14.4 1.5 6.8 1.6 12.7 4.7v18.4q-3.7-2.5-9.6-4.4-5.6-1.5-12.2-1.5-7.1 0-12.1 1.8-5.3 1.9-7.8 5.3-2.8 3.1-2.8 7.5 0 4.4 2.8 7.8 2.8 3.4 7.8 5.3 5 1.8 12.1 1.8 6.6 0 12.5-1.8 5.6-1.9 9.3-4.7v18.1q-6.2 3.7-13 5.6-6.6 1.8-15 1.8zm79.1-54.8h22.1v52.7h-22.1v-10.9q-2.5 6.2-7.8 9.6-5.3 3.1-12.7 3.1-10.6 0-16.2-5.9-5.6-5.9-5.6-16.8v-31.8h22.1v26.5q0 5.9 2.5 8.7 2.1 2.8 7.4 2.8 5 0 7.8-3.1 2.5-3.1 2.5-9zm58.9 54.5q-7.8 0-15.3-1.9-7.2-1.9-13.1-5.6v-14.9q2.8 2.4 7.5 4 4.4 1.9 9.3 2.8 5 0.9 9.4 0.9 3.4 0 5-0.6 1.5-0.9 1.5-2.2 0-1.2-0.9-2.1-0.6-1-3.4-1.6l-10.9-2.5q-6.3-1.2-10-3.4-3.7-2.5-5.3-5.3-1.6-3.1-1.6-7.2 0-5.3 3.2-9 3.4-4.1 9.9-6.2 6.3-1.9 14.7-1.9 7.4 0 14 1.6 6.2 1.5 10.3 4v14q-4.4-2.2-9.7-3.7-5.6-1.6-11.5-1.6-8.4 0-8.4 2.8 0 1 0.6 1.6 0.6 0.6 1.9 0.9 1.2 0.3 3.7 1l9 1.5q5.6 1.3 9.7 3.1 3.7 1.9 5.6 5.3 2.2 3.1 2.2 8.4 0 5.3-3.1 9.4-3.5 4-9.4 6.2-6.2 2.2-14.9 2.2zm82.8-54.5v15.9h-15.9v36.7h-22.1v-36.7h-14.6v-15.9h14.6v-9.1l22.1-3.4v12.5zm36.1 54.5q-10.5 0-18.3-3.8-7.8-3.7-11.9-10.2-4-6.6-4-14.7 0-8.4 4-14.6 4.1-6.2 11.9-10 7.8-3.4 18.3-3.4 10.9 0 18.4 3.4 7.8 3.8 11.8 10 4.1 6.2 4.1 14.6 0 8.1-4.1 14.7-4 6.5-11.8 10.2-7.8 3.8-18.4 3.8zm0-16.5q3.8 0 6.6-1.6 2.8-1.2 4.3-4 1.3-2.8 1.3-6.3 0-3.7-1.3-6.2-1.5-2.8-4.3-4-2.8-1.6-6.6-1.6-3.7 0-6.5 1.6-2.8 1.2-4.4 4-1.2 2.5-1.2 6.2 0 3.5 1.2 6.3 1.6 2.8 4.4 4 2.8 1.6 6.5 1.6zm120.6-40.2q9.6 0 14.9 5.9 5 6.2 5 17.8v31.1h-22.1v-25.8q0-5.3-1.9-8.4-1.9-2.9-5.9-2.9-4.1 0-6.2 3.2-2.2 2.8-2.2 8.1v25.8h-22.1v-26.8q0-4.6-1.9-7.4-1.9-2.9-5.6-2.9-4.4 0-6.5 3.5-2.2 3.1-2.2 8.7v24.9h-22.1v-52.6h21.8v12.4q2.5-7.4 7.1-11.2 4.7-3.4 11.9-3.4 7.4 0 12.1 3.7 4.7 3.5 6.5 10.6 2.2-7.5 6.9-10.9 5-3.4 12.5-3.4zm82.5 56.7q-8.7 0-16.5-1.9-7.8-2.2-13.7-5.9v-16.2q5.9 3.7 13.1 5.9 7.4 2.2 14.6 2.2 5.6 0 8.1-0.9 2.5-1 2.5-3.2 0-1.8-1.9-3.1-1.5-0.9-6.2-1.8l-9.1-1.6q-11.2-1.9-16.5-6.8-4.9-5-4.9-13.1 0-5.9 3.4-10.6 3.7-4.7 10.9-7.2 7.1-2.5 17.7-2.5 9.1 0 15.6 1.9 6.5 1.9 10.9 4.4v15.5q-4-2.1-10.3-3.7-5.9-1.6-13.4-1.6-11.5 0-11.5 3.8 0 0.9 0.6 1.5 0.7 1 2.2 1.3 1.6 0.6 4.7 0.9l10 1.6q7.4 1.2 12.1 3.7 4.7 2.5 7.2 6.2 2.1 4.1 2.1 9.7 0 6.5-3.7 11.5-4 4.7-11.2 7.5-7.2 2.5-16.8 2.5zm99.6-30.2v5.9h-40.1q2.1 3.7 6.8 5.6 4.7 2.2 11.8 2.2 6 0 10.6-1.6 4.7-1.2 9.4-4v15.5q-4.7 3.1-11.2 4.7-6.9 1.9-14.4 1.9-10.9 0-19-3.8-7.7-3.4-12.1-9.9-4.4-6.6-4.4-15.3 0-8.1 4.1-14.3 3.7-6.2 11.2-10 7.5-3.4 17.4-3.4 10 0 16.5 3.1 6.9 3.4 10.3 9.4 3.1 5.9 3.1 14zm-28.9-10.9q-4.7 0-7.8 1.8-2.8 2.2-4.1 5.3h23.1q-0.6-3.4-3.4-5.3-2.8-1.8-7.8-1.8zm74.7-14.7q2.5 0 4.7 0.7 1.8 0.6 3.4 1.5v19.6q-1.6-0.9-3.7-1.5-2.2-0.6-5.3-0.6-6.9 0-10.9 4.3-4.1 4.1-4.1 13.4v16.5h-21.8v-52.6h21.5v16.8q1.9-9.3 5.9-13.7 4.1-4.4 10.3-4.4zm57 1.3h23.4l-24.3 52.6h-22.8l-24.3-52.6h23.4l12.5 30.5zm85 24.3v5.9h-40.2q1.9 3.7 6.5 5.6 5 1.9 12.2 1.9 5.6 0 10.6-1.3 4.6-1.2 9-4v15.6q-4.4 3.1-11.2 4.6-6.6 1.9-14 1.9-10.9 0-19-3.7-8.1-3.8-12.2-10.3-4.3-6.6-4.3-15 0-8.1 4-14.3 3.8-6.2 11.2-10 7.5-3.7 17.5-3.7 9.9 0 16.5 3.4 6.8 3.1 9.9 9.4 3.5 5.9 3.5 14zm-29-10.9q-4.7 0-7.8 1.9-3.1 1.8-4 5.2h23q-0.6-3.4-3.4-5.2-3.1-1.9-7.8-1.9zm74.7-14.6q2.5 0 4.4 0.6 2.2 0.6 3.7 1.5v19.6q-1.5-0.9-3.7-1.5-2.5-0.9-5.3-0.9-7.2 0-10.9 4.3-4 4.4-4 13.7v16.5h-22.1v-52.6h21.8v16.8q1.8-9.3 5.6-13.7 4-4.3 10.5-4.3zm59.2 35.5h35.5v18.3h-57.9v-62.9h22.4zm72.9 19.9q-10.6 0-18.4-3.7-7.8-3.7-11.8-10.3-4.1-6.5-4.1-14.6 0-8.1 4.1-14.3 4-6.6 11.8-10 7.8-3.7 18.4-3.7 10.9 0 18.4 3.7 7.7 3.4 11.8 9.7 4 6.5 4 14.6 0 8.1-4 14.6-4.1 6.6-11.8 10.3-7.8 3.7-18.4 3.7zm0-16.1q3.7 0 6.5-1.6 2.8-1.6 4.4-4.4 1.2-2.5 1.2-6.2 0-3.4-1.2-6.2-1.6-2.5-4.4-4.1-2.8-1.5-6.5-1.5-3.8 0-6.6 1.5-2.8 1.6-4.3 4.1-1.3 2.8-1.3 6.2 0 3.7 1.3 6.2 1.5 2.8 4.3 4.4 2.8 1.6 6.6 1.6zm85.6-38h22.1v39.5q0 10-4.6 17.1-4.7 7.2-13.1 10.9-8.7 3.8-20.6 3.8-7.8 0-14.6-1.9-6.9-1.5-10.9-4.7v-15.8q3.4 3.1 9 4.9 5.6 2.2 11.9 2.2 10.2 0 15.5-4.7 5.3-4.9 5.3-14.3v-1.2q-3.1 6.8-8.4 10.3-5.3 3.1-12.8 3.1-7.7 0-13.3-3.1-5.7-3.5-8.8-9.1-3.1-5.9-3.1-13.1 0-7.7 3.4-13.7 3.2-6.2 9.1-9.3 5.6-3.4 13.4-3.4 7.4 0 12.4 3.4 5.3 3.1 8.1 10zm-11.8 34.5q3.7 0 6.2-1.2 2.8-1.6 4.4-3.8 1.5-2.4 1.5-5.6 0-3.1-1.5-5.3-1.6-2.4-4.1-3.7-2.8-1.5-6.2-1.5-3.7 0-6.2 1.5-2.8 1.3-4.1 3.7-1.5 2.5-1.5 5.7 0 2.8 1.2 5.2 1.6 2.2 4.4 3.8 2.5 1.2 5.9 1.2zm75.7 20q-10.6 0-18.7-3.8-7.8-4-11.9-10.6-4-6.5-4-14.6 0-8.1 4-14.3 4.1-6.3 11.9-10 7.8-3.7 18.7-3.7 10.5 0 18.3 3.7 7.8 3.7 11.9 10 4 6.2 4 14.3 0 8.4-4 14.9-4.1 6.6-11.9 10.3-7.8 3.8-18.3 3.8zm0-16.5q3.7 0 6.5-1.6 2.8-1.6 4-4 1.6-2.9 1.6-6.3 0-3.7-1.6-6.2-1.2-2.8-4-4.4-2.8-1.2-6.5-1.2-4.1 0-6.9 1.2-2.5 1.6-4 4.4-1.6 2.5-1.6 6.2 0 3.4 1.6 6.3 1.5 2.4 4 4 2.8 1.6 6.9 1.6zm68.2 16.5q-7.8 0-15.3-1.9-7.2-1.9-13.1-5.6v-15q3.1 2.5 7.5 4.1 4.4 1.9 9.3 2.8 5 0.9 9.7 0.9 3.1 0 4.7-0.6 1.8-0.9 1.8-2.2 0-1.2-0.9-2.2-0.9-0.9-3.7-1.5l-10.6-2.5q-6.3-1.6-10.3-3.7-3.7-2.2-5.3-5-1.6-3.1-1.6-7.2 0-5.3 3.5-9 3.4-4.1 9.6-6.2 6.2-2.2 14.7-2.2 7.7 0 14 1.8 6.2 1.6 10.2 4.1v14q-4-2.5-9.6-3.7-5.6-1.6-11.2-1.6-8.7 0-8.7 2.8 0 0.9 0.6 1.6 0.6 0.6 1.9 0.9 1.2 0.3 3.7 0.9l9 1.6q5.9 1.2 9.7 3.1 3.7 1.9 5.6 5.3 2.2 3.1 2.2 8.4 0 5.3-3.2 9.4-3.1 4-9.3 6.2-6.2 2.2-14.9 2.2z"/><path fill-rule="evenodd" class="b" d="m163.8 50.5q0.9 0 1.3 0.3c0 0 0.6 1.3 1.2 2.2 0.6 1.3 1.9 3.8 2.8 5.6 1.2 1.9 2.5 4.7 3.4 6.6 0.6 1.5 1.6 3.7 1.9 4.6 0.6 1 0.9 1.9 0.9 1.9 0 0 1.3-0.3 2.8-0.3 1.3-0.3 3.5-0.6 5-0.9 1.3 0 4.1-0.4 5.9-0.7 2.2 0 5-0.3 6.6-0.6 1.5 0 4.3-0.3 6.8-0.3 2.2-0.3 5.6-0.3 7.8-0.3 2.2-0.3 6.5-0.3 10-0.3 3.4 0 8.1 0 10.2 0.3 2.2 0 5.7 0 7.8 0.3 2.5 0 5.6 0.3 6.9 0.3 1.5 0.3 4 0.3 5.9 0.6 1.6 0.3 4.4 0.7 6.2 0.7 1.9 0.3 4.4 0.6 5.9 0.9 1.3 0 2.5 0.3 2.5 0.3 0-0.3 0.3-0.9 0.7-1.6 0.3-0.9 1.2-2.8 2.1-4.3 0.7-1.6 2.2-4.7 3.5-7.2 0.9-2.2 2.5-5 2.8-5.9 0.6-0.9 1.2-1.9 1.5-1.9 0-0.3 0.3-0.3 0.6-0.3 0.4 0 2.8 0.3 5.3 1 2.5 0.3 6.6 1.2 9.1 1.8 2.5 0.3 5.9 1.3 7.4 1.6 1.9 0.6 4.4 1.2 6 1.5 1.5 0.4 4 1.3 5.9 1.6 1.5 0.6 4 1.2 5.3 1.6 1.2 0.6 4 1.2 6.2 2.1 2.2 0.7 5.6 1.6 7.5 2.5 1.8 0.6 5 1.6 6.5 2.2 1.9 0.6 5.3 2.2 7.8 3.1 2.5 1 6.2 2.5 8.4 3.4 2.2 1 4.4 1.9 5.6 2.5l2.5 3.8c1.6 2.2 3.1 4.3 3.4 5.3 0.7 0.9 1.9 3.1 2.8 4.6 1 1.6 2.5 3.8 3.1 4.7 0.7 1.3 2.2 3.7 3.2 5.3 0.9 1.6 2.1 4.1 3.1 5.3 0.6 1.6 2.2 4 3.1 5.9 0.9 1.6 2.8 5.6 4.3 8.7 1.6 3.1 3.5 7.2 4.4 8.8 0.9 1.8 2.2 4.3 2.8 5.9 0.6 1.5 1.9 4.3 2.5 5.9 0.6 1.9 1.9 4.3 2.2 5.6 0.6 1.2 1.5 3.7 2.2 5.6 0.6 1.6 1.5 3.7 1.8 4.7 0.3 0.9 1.3 3.7 2.2 6.2 0.6 2.5 1.9 5.9 2.5 7.8 0.3 1.5 1.2 4 1.6 5.6 0.3 1.2 0.9 3.4 1.5 5 0.3 1.2 1 4.3 1.6 6.5 0.6 2.5 1.5 5.6 1.8 7.5 0.4 1.5 1 4 1.3 5.6 0.3 1.5 0.6 4 1.2 5.9 0.3 1.9 0.7 4.7 1 5.9 0.3 1.6 0.6 4.4 0.9 5.9 0.3 1.9 0.6 5 0.9 6.9 0.3 1.9 0.7 5 0.7 6.5 0.3 1.6 0.6 4.1 0.6 5.3 0 1.6 0.3 4.7 0.6 6.9 0 2.5 0.3 6.2 0.3 8.4 0.3 2.5 0.3 8.1 0.3 15.6 0 7.1 0 12.7-0.3 15.2 0 1.9-0.3 5.6-0.3 8.1-0.3 2.5-0.6 5.9-0.6 7.8-0.3 3.1-0.3 3.4-0.6 3.7-0.4 0.3-1.9 1.6-3.8 2.8-1.8 1.6-4.6 3.5-5.9 4.4-1.6 0.9-3.7 2.5-5.3 3.4-1.5 1-5 3.1-7.5 4.7-2.8 1.9-6.5 4-8.7 5.3-2.2 1.2-5.6 3.1-7.1 4-1.9 1-6 3.1-9.1 4.7-3.4 1.9-8.1 4.1-10.3 5-2.4 1.2-5.9 2.8-7.7 3.4-2.2 0.9-6 2.5-8.8 3.7-2.8 1.3-6.8 2.9-9 3.5-1.9 0.6-6.2 2.2-9.3 3.1-3.5 1.2-6.3 2.2-6.9 2.2q-0.4 0-0.9 0c0 0-0.9-1.3-1.9-2.8-1.2-1.3-2.8-3.8-3.7-5.3-1.3-1.9-2.8-4.1-3.8-5.3-0.6-1.3-1.8-3.4-2.8-5-0.9-1.3-2.1-3.7-3.1-5-0.6-1.2-2.2-3.7-3.1-5.6-0.6-1.6-1.5-3.1-1.9-3.7-0.3-0.3-0.3-1-0.3-1.3q0-0.6 0.3-0.9c0 0 1.3-0.6 2.2-0.9 1-0.4 3.1-1.3 4.7-1.9 1.6-0.6 4-1.9 5.9-2.5 1.9-0.9 5-2.5 6.9-3.4 1.5-1 4.3-2.2 5.9-3.1 1.5-0.7 3.4-1.9 4-2.2 1-0.6 1.6-1 1.9-1.3 0.3-0.3 0.3-0.3 0.3-0.9 0-0.3-0.3-0.6-1.2-1.2-0.7-0.7-2.2-1.9-3.2-2.5-1.2-1-2.4-1.9-2.4-1.9-0.4-0.3-0.7 0-1.9 0.3-0.9 0.3-2.8 1.2-4.7 2.2-1.9 0.6-4.3 1.9-5.9 2.5-1.6 0.6-4.4 1.5-5.9 2.2-1.9 0.6-4.7 1.8-6.9 2.4-1.8 0.7-5.6 1.9-7.8 2.5-2.4 0.7-5.6 1.6-7.1 2.2-1.6 0.3-4.7 1-6.9 1.6-2.1 0.6-4.9 1.2-6.2 1.2-1.2 0.3-3.7 1-5.6 1.3-1.6 0.3-4.7 0.6-6.5 0.9-2.2 0.3-5 0.9-6.9 0.9-1.5 0.3-4 0.7-5.6 0.7-1.2 0.3-3.7 0.3-5.3 0.6-1.5 0-4.4 0.3-6.2 0.3-1.9 0-6.6 0.3-10.6 0.3-4.4 0-9-0.3-10.9-0.3-1.9 0-5.6-0.3-8.1-0.6-2.5 0-5.9-0.3-7.2-0.7-1.5 0-4.6-0.6-6.8-0.9-2.5-0.3-5.9-0.9-7.8-1.2-1.9-0.3-4.7-1-6.2-1-1.3-0.3-4.4-0.9-6.6-1.5-2.1-0.6-5-1.3-6.8-1.9-1.6-0.3-5-1.2-7.5-2.2-2.8-0.6-6.5-1.8-8.4-2.5-2.2-0.6-5.3-1.8-7.5-2.8-1.8-0.6-5.6-2.1-7.8-3.1-2.1-0.9-4.9-2.2-6.5-2.5-1.2-0.9-2.2-1.2-2.5-1.2 0 0.3-1.5 1.2-3.1 2.5-1.6 1.2-3.1 2.5-3.4 2.5-0.3 0.3-0.3 0.6-0.7 1.2q0 0.3 0.4 0.6c0.3 0.3 2.1 1.3 4 2.5 2.2 1 6.2 3.1 9 4.7 3.2 1.2 6.6 3.1 7.8 3.7 1.6 0.7 3.4 1.3 4.4 1.9 0.9 0.3 2.8 0.9 4 1.6 1.3 0.6 2.5 0.9 2.5 1.2 0.3 0 0.3 0.3 0.3 0.6 0 0.3-0.6 1.6-1.2 2.8-0.6 1.3-1.9 3.8-2.8 5.3-1 1.9-2.5 4.1-3.1 5.3-0.7 1.3-2.2 3.8-3.1 5.6-1.3 1.6-3.2 4.4-4.4 6.2-1.2 1.9-3.1 4.4-4.1 6-0.9 1.2-1.8 2.5-1.8 2.8q-0.5 0-1 0c0 0-0.9 0-1.8-0.3-1-0.4-2.8-1-4.1-1.3-1.5-0.6-4.3-1.5-6.2-2.2-2.2-0.6-5.3-1.8-7.2-2.5-1.8-0.9-4.9-2.1-7.1-2.8-2.2-0.9-5.6-2.5-7.5-3.1-1.9-0.9-5-2.5-7.2-3.4-1.8-0.9-5.3-2.5-6.8-3.1-1.9-1-5.3-2.5-7.2-3.8-2.2-1.2-5.3-2.8-6.8-3.7-1.9-0.9-4.1-2.2-5.3-2.8-1.6-0.9-3.4-2.2-4.7-2.8-0.9-0.6-3.7-2.2-5.6-3.4-2.2-1.3-5-3.1-6.8-4.4-1.6-0.9-4.4-3.1-6.3-4-1.8-1.3-4.3-3.1-5.9-4.4-1.9-1.2-2.8-2.2-3.1-2.5 0-0.3-0.3-2.2-0.3-4-0.3-2.2-0.3-5.3-0.6-7.5 0-2.2-0.4-5-0.4-6.9 0-1.5-0.3-7.7-0.3-14 0-7.1 0-12.4 0-15.2 0.3-2.5 0.3-6.3 0.7-8.1 0-2.2 0.3-5 0.3-6.6 0.3-1.5 0.3-4 0.6-5.9 0-1.5 0.3-4.3 0.6-6.2 0.3-1.9 0.6-5.3 1-7.8 0.3-2.2 0.9-5.9 1.5-8.1 0.3-2.5 0.9-6.2 1.6-9 0.6-2.8 1.2-6.6 1.8-8.7 0.3-2.2 1-5 1.3-6.3 0.6-1.2 1.2-4 1.8-6.2 0.4-1.9 1.3-4.7 1.6-6.2 0.6-1.3 1.3-3.4 1.6-4.7 0.3-1.2 1.2-3.7 1.8-5.6 0.7-1.9 1.6-4.7 2.2-6.5 0.6-1.9 1.9-5 2.5-6.9 0.6-1.9 1.9-4.7 2.2-5.9 0.6-1.3 1.5-3.7 2.2-5 0.6-1.5 1.8-4.4 2.5-6.2 0.9-1.9 2.4-5 3.1-6.9 0.9-1.8 2.8-5.6 4.3-8.7 1.6-3.1 3.8-7.2 5-9.3 0.9-2.2 2.5-4.7 3.1-5.9 0.6-1 1.9-3.5 3.1-5.3 1-1.9 2.8-5 3.8-6.6 1.2-1.9 3.1-5 4.6-7.1q1.9-3.5 5.7-8.8l1.8-0.9c1.3-0.3 3.8-1.6 5.9-2.5 2.2-0.9 5.6-2.5 7.8-3.1 2.2-0.9 5.6-2.2 7.8-3.1 2.2-1 5.9-2.2 8.1-2.8 2.5-1 6.2-1.9 8.4-2.8 2.2-0.6 5.3-1.6 6.9-1.9 1.5-0.6 4.6-1.5 7.4-2.2 2.5-0.6 6.6-1.5 8.4-1.8 1.9-0.7 6.3-1.6 9.4-2.2 3.1-0.6 6.2-1.3 6.8-1.3 0.7-0.3 1.6-0.3 1.9-0.3zm118.7 65.4c-1 0-2.2 0.6-2.9 1-0.9 0.3-2.1 1.2-2.8 1.5-0.6 0.3-2.4 2.2-4.3 3.7-1.9 1.6-3.7 3.5-4.7 4.1-0.6 0.6-1.9 1.9-2.5 2.5-0.9 0.9-2.8 2.5-4.3 3.7-1.3 1.3-3.1 3.1-4.1 3.8-0.6 0.6-2.8 2.5-4.7 4.3-2.1 1.9-4.3 3.8-5.2 4.7-1 0.9-3.8 3.7-6.9 6.2-2.8 2.5-5.9 5.3-6.5 6.2-1 0.7-1.9 1.6-2.2 1.9-0.6 0.3-1.9 1.6-2.8 2.5-1.3 0.9-2.8 2.5-3.4 3.1-1 0.6-2.8 2.5-4.4 3.8-1.6 1.5-3.1 3.1-3.7 3.4-0.4 0.6-1.3 1.5-1.9 2.2-0.6 0.3-1.6 1.2-1.9 1.8-0.6 0.7-1.2 1.6-1.5 1.9-0.3 0.6-1 1.6-1.3 2.2-0.3 0.6-0.9 1.5-1.2 2.5-0.3 0.6-0.7 1.8-1 2.5 0 0.6-0.3 1.8-0.6 2.8 0 1.2 0 2.1 0 5.3 0 3.4 0 3.7 0.3 5.6 0.3 1.2 0.6 2.5 1 3.4 0.3 0.6 0.9 2.2 1.2 3.4 0.6 1 1.6 2.5 1.9 3.1 0.3 0.3 1.2 1.6 1.8 2.2 0.7 0.9 1.6 2.2 2.5 2.8 0.7 0.9 1.9 1.9 2.5 2.5 1 0.3 1.9 1.3 2.5 1.6 0.3 0.3 1.6 0.9 2.2 1.2 0.6 0.3 1.6 0.6 2.2 0.9 0.6 0.4 1.8 0.7 3.1 1l2.2 0.6h9.6c2.2-0.6 3.4-0.9 4.1-1.2 0.6-0.4 2.2-1 3.1-1.3 0.9-0.6 2.5-1.2 3.1-1.9 0.9-0.6 2.2-1.2 2.8-1.8 0.6-0.3 1.6-1.3 2.2-2.2 0.9-0.6 1.9-1.6 2.5-2.2 0.3-0.6 1.5-2.2 2.5-3.1 0.9-1.2 2.8-3.7 3.7-5.3 1.2-1.6 2.8-4 3.7-5.6 1.3-1.2 2.5-3.7 3.5-5 0.9-1.2 2.5-3.7 3.4-5.6 1.2-1.9 2.5-4 2.8-5 0.6-0.6 2.2-3.1 3.4-5.6 1.3-2.2 2.8-4.6 3.4-5.9 0.4-0.9 2.2-4.4 3.8-7.2 1.8-2.8 3.4-5.9 3.7-6.5 0.3-0.6 1.6-2.8 2.5-5 1.3-1.8 2.8-5.3 4.1-7.1 0.9-2.2 1.8-4.4 2.1-5.3 0.3-1 1-2.2 1-3.2 0.6-1.5 0.6-1.8 0.6-4.6 0-2.8 0-3.4-0.3-4.4 0-0.9-0.3-1.8-0.6-2.5-0.4-0.3-1-1.2-1.3-1.8-0.3-0.7-1.2-1.6-1.5-2.2-0.7-0.3-1.6-1.3-2.2-1.9-0.6-0.3-1.9-1.2-2.8-1.5-0.6-0.4-1.9-0.7-2.8-1-1.3-0.3-1.9-0.6-4.1-0.6-1.5 0-2.8 0-3.1 0 0 0.3-0.9 0.3-1.5 0.6zm-84.8 94.7c-1.8 0.3-4 0.6-4.9 0.6-1 0-2.5 0.3-3.5 0.6-0.9 0-2.1 0.3-3.1 0.7-0.6 0.3-1.8 0.6-2.5 0.6-0.9 0.3-2.1 0.6-2.8 0.9-0.9 0.3-1.8 0.9-2.5 1.3-0.6 0.3-2.1 1.2-3.1 1.8-1.2 1-2.5 1.9-3.7 3.1-0.9 1-2.5 2.5-3.1 3.8-1 0.9-1.9 2.5-2.5 3.1-0.3 0.9-1.3 2.2-1.6 3.1-0.6 0.9-1.2 2.8-1.8 3.7-0.4 1.3-1 2.5-1.3 2.8-0.3 0.7-0.9 1-1.2 1.3-0.3 0.3-0.7 0.3-1 0.6-0.3 0-0.9 0-1.2 0-0.3 0.3-0.9 0.3-1.3 0-0.6 0-1.2-0.3-1.8-0.6-0.6-0.3-1.9-0.9-2.5-1.3-1-0.6-2.2-1.2-3.1-1.8-1-0.6-2.2-1.6-3.5-2.2-0.9-0.6-2.1-1.6-2.8-2.2-0.6-0.3-1.8-1.2-2.8-1.9-0.9-0.6-1.8-1.2-1.8-1.2-0.3 0-0.3 0.3 0 3.7 0 1.9 0 4.4 0.3 5.6 0 1 0.3 2.8 0.6 4.1 0 1.2 0.6 3.7 0.9 5 0.3 1.5 1 3.4 1.3 4 0.3 1 0.9 2.5 1.2 3.8 0.7 0.9 1.3 2.8 1.9 4 0.3 0.9 1.2 2.5 1.6 3.1 0.6 0.6 1.2 1.9 1.8 2.8 1 1.3 1.9 2.8 2.8 3.5 0.6 0.9 1.9 2.1 2.5 2.8 0.6 0.6 1.9 1.5 3.1 2.4 1 1 2.5 1.9 3.1 2.2 0.7 0.3 1.9 1 2.5 1.6 1 0.3 2.2 0.9 2.8 0.9 0.4 0.3 1.6 1 2.5 1.3 1 0.3 2.5 0.6 3.1 0.9 1 0 2.5 0.3 3.5 0.6 0.9 0.3 3.1 0.3 4.6 0.6 1.3 0 4.4 0 6.6 0 3.4 0 4.7-0.3 6.5-0.6 1.3 0 2.8-0.3 3.8-0.6 0.9-0.3 2.1-0.6 3.1-0.9 0.9-0.3 2.2-0.7 3.1-1.3 0.9-0.3 2.5-0.9 3.1-1.2 0.6-0.3 2.2-1.3 3.1-1.6 0.6-0.6 2.2-1.5 3.1-2.2 1-0.9 2.5-2.5 3.8-3.7 1.5-1.6 2.8-2.8 4-4 0.6-1.3 1.9-2.9 2.5-3.8 0.6-1.2 1.6-2.8 1.9-4 0.6-1 1.2-2.8 1.8-4.1 0.4-1.2 0.7-3.1 1-4 0.3-1 0.6-2.5 0.6-3.5 0-0.9 0.3-3.1 0.3-4.6 0.3-1.9 0.3-5 0.3-6.9v-4c-2.5-0.7-3.7-1.3-4.6-1.6-1-0.3-2.2-0.9-3.2-1.2-0.9-0.7-2.5-1.6-3.4-2.2-1.2-0.6-2.5-1.9-3.4-2.5-0.9-0.6-2.2-1.9-3.1-3.1-1-0.9-2.5-2.5-3.1-3.4-0.7-1-1.6-2.5-2.2-3.5-0.6-1.2-1-1.5-1.3-1.5 0 0-0.6 0-0.9 0.3-0.6 0-2.5 0-4.1 0z"/></svg>