<svg width="164" height="38" viewBox="0 0 164 38" fill="none" xmlns="http://www.w3.org/2000/svg">
<path d="M43.4354 13.968C43.4354 14.256 43.3754 14.514 43.2554 14.742C43.1474 14.97 42.9974 15.162 42.8054 15.318C42.6254 15.462 42.4214 15.576 42.1934 15.66C41.9774 15.732 41.7554 15.768 41.5274 15.768C41.3954 15.768 41.2574 15.75 41.1134 15.714C40.9814 15.678 40.8554 15.618 40.7354 15.534C40.6274 15.45 40.5374 15.348 40.4654 15.228C40.3934 15.096 40.3574 14.946 40.3574 14.778C40.3574 14.646 40.3934 14.544 40.4654 14.472C40.5374 14.4 40.6154 14.364 40.6994 14.364C40.8314 14.364 40.9094 14.394 40.9334 14.454C40.9694 14.514 40.9994 14.58 41.0234 14.652C41.0594 14.712 41.1074 14.778 41.1674 14.85C41.2274 14.91 41.3474 14.94 41.5274 14.94C41.6474 14.94 41.7734 14.922 41.9054 14.886C42.0374 14.838 42.1634 14.778 42.2834 14.706C42.4034 14.622 42.4994 14.52 42.5714 14.4C42.6554 14.28 42.6974 14.136 42.6974 13.968C42.6974 13.656 42.6434 13.362 42.5354 13.086C42.4394 12.798 42.3074 12.552 42.1394 12.348C41.9714 12.132 41.7674 11.958 41.5274 11.826C41.2874 11.694 41.0294 11.628 40.7534 11.628C40.3934 11.628 40.1054 11.724 39.8894 11.916C39.6854 12.096 39.5294 12.33 39.4214 12.618C39.3134 12.894 39.2414 13.206 39.2054 13.554C39.1814 13.902 39.1694 14.238 39.1694 14.562C39.1694 16.23 39.1754 17.892 39.1874 19.548C39.1994 21.192 39.2054 22.848 39.2054 24.516C39.2054 24.768 39.1874 25.056 39.1514 25.38C39.1274 25.692 39.0734 25.992 38.9894 26.28C38.9054 26.568 38.7734 26.808 38.5934 27C38.4254 27.204 38.1914 27.306 37.8914 27.306C37.6394 27.306 37.4294 27.204 37.2614 27C37.0934 26.796 36.9614 26.544 36.8654 26.244C36.7694 25.944 36.6974 25.632 36.6494 25.308C36.6134 24.984 36.5774 24.714 36.5414 24.498C36.2774 22.542 36.0194 20.592 35.7674 18.648C35.5154 16.704 35.2694 14.748 35.0294 12.78C35.0294 12.744 35.0234 12.66 35.0114 12.528C34.9994 12.396 34.9754 12.264 34.9394 12.132C34.9154 12 34.8854 11.886 34.8494 11.79C34.8134 11.682 34.7654 11.628 34.7054 11.628C34.6214 11.628 34.5554 11.7 34.5074 11.844C34.4594 11.988 34.4234 12.156 34.3994 12.348C34.3874 12.528 34.3814 12.708 34.3814 12.888C34.3934 13.056 34.3994 13.182 34.3994 13.266C34.3994 14.886 34.3874 16.506 34.3634 18.126C34.3394 19.746 34.2734 21.366 34.1654 22.986C34.1294 23.574 34.0394 24.126 33.8954 24.642C33.7514 25.158 33.5474 25.614 33.2834 26.01C33.0314 26.394 32.7014 26.7 32.2934 26.928C31.8974 27.156 31.4114 27.27 30.8354 27.27C30.6554 27.27 30.4694 27.24 30.2774 27.18C30.0854 27.132 29.8994 27.054 29.7194 26.946C29.5514 26.826 29.4134 26.682 29.3054 26.514C29.1854 26.346 29.1254 26.136 29.1254 25.884C29.1254 25.56 29.2334 25.284 29.4494 25.056C29.6654 24.816 29.9174 24.696 30.2054 24.696C30.3014 24.696 30.3854 24.738 30.4574 24.822C30.5294 24.894 30.5654 24.99 30.5654 25.11C30.5654 25.266 30.5294 25.374 30.4574 25.434C30.3854 25.482 30.3074 25.518 30.2234 25.542C30.1394 25.566 30.0554 25.602 29.9714 25.65C29.8994 25.686 29.8634 25.764 29.8634 25.884C29.8634 26.004 29.8994 26.1 29.9714 26.172C30.0554 26.244 30.1454 26.304 30.2414 26.352C30.3374 26.388 30.4394 26.412 30.5474 26.424C30.6674 26.436 30.7634 26.442 30.8354 26.442C31.3034 26.442 31.6934 26.346 32.0054 26.154C32.3294 25.962 32.5934 25.71 32.7974 25.398C33.0014 25.074 33.1514 24.696 33.2474 24.264C33.3434 23.832 33.4094 23.382 33.4454 22.914C33.5534 21.258 33.6134 19.614 33.6254 17.982C33.6494 16.35 33.6614 14.706 33.6614 13.05C33.6614 12.846 33.6674 12.612 33.6794 12.348C33.7034 12.084 33.7514 11.844 33.8234 11.628C33.8954 11.4 33.9974 11.208 34.1294 11.052C34.2734 10.896 34.4654 10.818 34.7054 10.818C34.9214 10.818 35.0894 10.878 35.2094 10.998C35.3414 11.118 35.4434 11.268 35.5154 11.448C35.5874 11.628 35.6354 11.826 35.6594 12.042C35.6954 12.246 35.7254 12.444 35.7494 12.636C36.0134 14.604 36.2654 16.56 36.5054 18.504C36.7574 20.448 37.0094 22.404 37.2614 24.372C37.2734 24.468 37.2914 24.636 37.3154 24.876C37.3514 25.104 37.3934 25.338 37.4414 25.578C37.4894 25.818 37.5494 26.028 37.6214 26.208C37.6934 26.388 37.7834 26.478 37.8914 26.478C38.0354 26.478 38.1434 26.418 38.2154 26.298C38.2994 26.166 38.3594 26.01 38.3954 25.83C38.4434 25.65 38.4674 25.464 38.4674 25.272C38.4794 25.08 38.4854 24.93 38.4854 24.822C38.4854 23.118 38.4794 21.432 38.4674 19.764C38.4554 18.084 38.4494 16.392 38.4494 14.688C38.4494 14.208 38.4734 13.74 38.5214 13.284C38.5694 12.828 38.6714 12.414 38.8274 12.042C38.9954 11.67 39.2294 11.376 39.5294 11.16C39.8414 10.932 40.2494 10.818 40.7534 10.818C41.1374 10.818 41.4854 10.902 41.7974 11.07C42.1214 11.238 42.4034 11.466 42.6434 11.754C42.8954 12.042 43.0874 12.378 43.2194 12.762C43.3634 13.146 43.4354 13.548 43.4354 13.968ZM47.6465 24.21C47.6465 24.234 47.6345 24.27 47.6105 24.318C47.2265 25.218 46.6685 25.932 45.9365 26.46C45.2165 26.976 44.3585 27.234 43.3625 27.234C42.9545 27.234 42.5705 27.156 42.2105 27C41.8505 26.832 41.5385 26.61 41.2745 26.334C41.0105 26.058 40.8005 25.74 40.6445 25.38C40.4885 25.02 40.4105 24.636 40.4105 24.228C40.4105 23.796 40.4885 23.4 40.6445 23.04C40.7885 22.668 40.9925 22.35 41.2565 22.086C41.5325 21.81 41.8505 21.594 42.2105 21.438C42.5825 21.282 42.9845 21.204 43.4165 21.204C43.6565 21.204 43.9145 21.246 44.1905 21.33C44.4665 21.402 44.7245 21.516 44.9645 21.672C45.2045 21.816 45.4025 21.996 45.5585 22.212C45.7145 22.428 45.7925 22.674 45.7925 22.95C45.7925 23.286 45.7145 23.58 45.5585 23.832C45.4145 24.084 45.2225 24.294 44.9825 24.462C44.7425 24.63 44.4725 24.762 44.1725 24.858C43.8725 24.942 43.5725 24.984 43.2725 24.984C42.8765 24.984 42.5105 24.942 42.1745 24.858C41.8505 24.774 41.5085 24.648 41.1485 24.48C41.1845 24.756 41.2625 25.02 41.3825 25.272C41.5145 25.524 41.6765 25.746 41.8685 25.938C42.0725 26.118 42.3005 26.262 42.5525 26.37C42.8045 26.478 43.0745 26.532 43.3625 26.532C44.0105 26.532 44.6045 26.394 45.1445 26.118C45.6965 25.842 46.1465 25.422 46.4945 24.858C46.5305 24.798 46.5725 24.714 46.6205 24.606C46.6805 24.498 46.7405 24.39 46.8005 24.282C46.8725 24.174 46.9445 24.078 47.0165 23.994C47.0885 23.91 47.1665 23.868 47.2505 23.868C47.3465 23.868 47.4365 23.904 47.5205 23.976C47.6045 24.036 47.6465 24.114 47.6465 24.21ZM45.0545 22.95C45.0545 22.782 44.9945 22.638 44.8745 22.518C44.7545 22.386 44.6105 22.278 44.4425 22.194C44.2745 22.098 44.0945 22.026 43.9025 21.978C43.7105 21.93 43.5485 21.906 43.4165 21.906C42.8645 21.906 42.3845 22.074 41.9765 22.41C41.5685 22.734 41.3045 23.166 41.1845 23.706C41.5445 23.898 41.8805 24.042 42.1925 24.138C42.5045 24.222 42.8645 24.264 43.2725 24.264C43.4645 24.264 43.6625 24.24 43.8665 24.192C44.0825 24.132 44.2745 24.048 44.4425 23.94C44.6225 23.832 44.7665 23.7 44.8745 23.544C44.9945 23.376 45.0545 23.178 45.0545 22.95ZM53.8448 24.12C53.8448 24.156 53.8388 24.192 53.8268 24.228C53.8148 24.264 53.8028 24.294 53.7908 24.318C53.6348 24.714 53.3648 25.002 52.9808 25.182C52.6088 25.362 52.2128 25.428 51.7928 25.38C51.5768 25.896 51.2708 26.334 50.8748 26.694C50.4908 27.054 49.9988 27.234 49.3988 27.234C49.0148 27.234 48.6788 27.156 48.3908 27C48.1028 26.844 47.8628 26.64 47.6708 26.388C47.4788 26.124 47.3348 25.824 47.2388 25.488C47.1308 25.14 47.0588 24.762 47.0228 24.354C46.9388 23.19 46.8668 22.026 46.8068 20.862C46.7348 19.686 46.6988 18.504 46.6988 17.316C46.6988 17.076 46.7168 16.746 46.7528 16.326C46.7768 15.894 46.8248 15.438 46.8968 14.958C46.9688 14.466 47.0588 13.974 47.1668 13.482C47.2748 12.978 47.4068 12.528 47.5628 12.132C47.7308 11.724 47.9228 11.394 48.1388 11.142C48.3668 10.89 48.6248 10.764 48.9128 10.764C49.2728 10.764 49.5848 10.908 49.8488 11.196C50.1128 11.484 50.3228 11.844 50.4788 12.276C50.6348 12.696 50.7488 13.14 50.8208 13.608C50.9048 14.076 50.9468 14.49 50.9468 14.85C50.9468 15.57 50.8388 16.344 50.6228 17.172C50.4068 18 50.1308 18.822 49.7948 19.638C49.4708 20.442 49.1228 21.234 48.7508 22.014C48.3788 22.782 48.0368 23.478 47.7248 24.102C47.7488 24.39 47.7968 24.684 47.8688 24.984C47.9408 25.284 48.0368 25.542 48.1568 25.758C48.2888 25.974 48.4508 26.154 48.6428 26.298C48.8468 26.442 49.0988 26.514 49.3988 26.514C49.8188 26.514 50.1668 26.376 50.4428 26.1C50.7188 25.812 50.9348 25.488 51.0908 25.128C50.7428 24.912 50.4908 24.612 50.3348 24.228C50.1788 23.832 50.1008 23.442 50.1008 23.058C50.1008 22.878 50.1188 22.698 50.1548 22.518C50.2028 22.326 50.2688 22.152 50.3528 21.996C50.4488 21.84 50.5688 21.714 50.7128 21.618C50.8568 21.522 51.0368 21.474 51.2528 21.474C51.4448 21.474 51.6008 21.522 51.7208 21.618C51.8528 21.714 51.9548 21.84 52.0268 21.996C52.1108 22.14 52.1708 22.302 52.2068 22.482C52.2428 22.65 52.2608 22.812 52.2608 22.968C52.2608 23.532 52.1888 24.096 52.0448 24.66C52.3208 24.648 52.5428 24.594 52.7108 24.498C52.8908 24.39 53.0168 24.27 53.0888 24.138C53.1488 24.018 53.2028 23.928 53.2508 23.868C53.2988 23.808 53.3768 23.778 53.4848 23.778C53.5808 23.778 53.6648 23.814 53.7368 23.886C53.8088 23.946 53.8448 24.024 53.8448 24.12ZM50.2268 14.85C50.2268 14.622 50.2028 14.328 50.1548 13.968C50.1188 13.596 50.0468 13.236 49.9388 12.888C49.8308 12.54 49.6928 12.24 49.5248 11.988C49.3568 11.736 49.1528 11.61 48.9128 11.61C48.7808 11.61 48.6608 11.682 48.5528 11.826C48.4568 11.958 48.3668 12.12 48.2828 12.312C48.1988 12.492 48.1268 12.678 48.0668 12.87C48.0188 13.062 47.9768 13.212 47.9408 13.32C47.6048 14.64 47.4368 15.972 47.4368 17.316C47.4368 18.204 47.4488 19.086 47.4728 19.962C47.5088 20.826 47.5568 21.702 47.6168 22.59C47.8688 22.074 48.1448 21.492 48.4448 20.844C48.7568 20.196 49.0388 19.53 49.2908 18.846C49.5548 18.162 49.7768 17.478 49.9568 16.794C50.1368 16.098 50.2268 15.45 50.2268 14.85ZM51.5228 22.968C51.5228 22.92 51.5228 22.854 51.5228 22.77C51.5228 22.686 51.5108 22.602 51.4868 22.518C51.4748 22.434 51.4508 22.362 51.4148 22.302C51.3788 22.23 51.3248 22.194 51.2528 22.194C51.1568 22.194 51.0788 22.23 51.0188 22.302C50.9708 22.362 50.9288 22.44 50.8928 22.536C50.8688 22.62 50.8508 22.71 50.8388 22.806C50.8388 22.902 50.8388 22.986 50.8388 23.058C50.8388 23.298 50.8748 23.538 50.9468 23.778C51.0308 24.006 51.1628 24.204 51.3428 24.372C51.4628 23.928 51.5228 23.46 51.5228 22.968ZM62.3895 24.21C62.3895 24.234 62.3835 24.264 62.3715 24.3C62.3595 24.324 62.3475 24.348 62.3355 24.372C62.2275 24.6 62.0775 24.882 61.8855 25.218C61.6935 25.542 61.4775 25.854 61.2375 26.154C61.0095 26.454 60.7515 26.712 60.4635 26.928C60.1875 27.132 59.9055 27.234 59.6175 27.234C59.0415 27.234 58.6515 26.958 58.4475 26.406C58.4355 26.382 58.4235 26.334 58.4115 26.262C58.4115 26.19 58.4055 26.142 58.3935 26.118C58.3695 26.142 58.3515 26.196 58.3395 26.28C58.3275 26.364 58.3095 26.418 58.2855 26.442C58.0815 26.682 57.8415 26.874 57.5655 27.018C57.2895 27.162 56.9895 27.234 56.6655 27.234C56.3295 27.234 55.9995 27.18 55.6755 27.072C55.3635 26.964 55.0815 26.814 54.8295 26.622C54.5895 26.418 54.3915 26.172 54.2355 25.884C54.0915 25.584 54.0195 25.254 54.0195 24.894V24.174L54.0015 23.796C53.9895 23.82 53.9835 23.868 53.9835 23.94C53.9835 24.012 53.9775 24.06 53.9655 24.084C53.9055 24.18 53.8335 24.288 53.7495 24.408C53.6655 24.528 53.5755 24.588 53.4795 24.588C53.3835 24.588 53.2995 24.552 53.2275 24.48C53.1555 24.408 53.1195 24.324 53.1195 24.228C53.1195 24.168 53.1495 24.06 53.2095 23.904C53.2695 23.748 53.3415 23.58 53.4255 23.4C53.4975 23.208 53.5695 23.022 53.6415 22.842C53.7135 22.662 53.7615 22.53 53.7855 22.446C53.8095 22.374 53.8275 22.284 53.8395 22.176C53.8635 22.068 53.8875 21.96 53.9115 21.852C53.9475 21.744 53.9835 21.642 54.0195 21.546C54.0555 21.45 54.0975 21.378 54.1455 21.33C54.2175 21.258 54.3015 21.222 54.3975 21.222C54.5055 21.222 54.5895 21.264 54.6495 21.348C54.7215 21.432 54.7575 21.522 54.7575 21.618V24.894C54.7575 25.158 54.8115 25.392 54.9195 25.596C55.0275 25.8 55.1715 25.974 55.3515 26.118C55.5315 26.25 55.7355 26.352 55.9635 26.424C56.1915 26.496 56.4255 26.532 56.6655 26.532C56.9415 26.532 57.1815 26.46 57.3855 26.316C57.5895 26.172 57.7575 25.992 57.8895 25.776C58.0215 25.548 58.1175 25.302 58.1775 25.038C58.2495 24.774 58.2855 24.528 58.2855 24.3V21.618C58.2855 21.522 58.3215 21.438 58.3935 21.366C58.4655 21.294 58.5495 21.258 58.6455 21.258C58.7415 21.258 58.8255 21.294 58.8975 21.366C58.9815 21.438 59.0235 21.522 59.0235 21.618V25.254C59.0235 25.362 59.0235 25.494 59.0235 25.65C59.0235 25.794 59.0415 25.932 59.0775 26.064C59.1135 26.196 59.1735 26.31 59.2575 26.406C59.3415 26.49 59.4615 26.532 59.6175 26.532C59.7855 26.532 59.9535 26.46 60.1215 26.316C60.3015 26.172 60.4695 25.998 60.6255 25.794C60.7935 25.59 60.9375 25.386 61.0575 25.182C61.1895 24.966 61.2915 24.792 61.3635 24.66C61.4235 24.564 61.4775 24.462 61.5255 24.354C61.5735 24.246 61.6275 24.144 61.6875 24.048C61.7715 23.928 61.8735 23.868 61.9935 23.868C62.0895 23.868 62.1795 23.904 62.2635 23.976C62.3475 24.036 62.3895 24.114 62.3895 24.21ZM67.1173 24.138C67.1173 24.21 67.1053 24.27 67.0813 24.318C66.9853 24.51 66.8713 24.72 66.7393 24.948C66.6073 25.164 66.4573 25.392 66.2893 25.632C66.1453 25.836 65.9953 26.034 65.8393 26.226C65.6833 26.418 65.5093 26.592 65.3173 26.748C65.1373 26.892 64.9453 27.006 64.7413 27.09C64.5373 27.186 64.3153 27.234 64.0753 27.234C63.6433 27.234 63.2713 27.138 62.9593 26.946C62.6593 26.742 62.4133 26.49 62.2213 26.19C62.0293 25.878 61.8853 25.542 61.7893 25.182C61.6933 24.81 61.6393 24.456 61.6273 24.12C61.6513 23.76 61.6513 23.298 61.6273 22.734C61.5913 22.17 61.5613 21.57 61.5373 20.934C61.5013 20.298 61.4713 19.65 61.4473 18.99C61.4233 18.33 61.4113 17.706 61.4113 17.118C61.4113 16.89 61.4293 16.572 61.4653 16.164C61.4893 15.744 61.5373 15.306 61.6093 14.85C61.6693 14.382 61.7593 13.908 61.8793 13.428C61.9873 12.936 62.1253 12.498 62.2933 12.114C62.4613 11.718 62.6533 11.4 62.8693 11.16C63.0973 10.908 63.3553 10.782 63.6433 10.782C64.0753 10.782 64.4353 10.938 64.7233 11.25C65.0233 11.562 65.2633 11.94 65.4433 12.384C65.6233 12.816 65.7493 13.272 65.8213 13.752C65.9053 14.232 65.9473 14.646 65.9473 14.994C65.9473 15.546 65.8633 16.164 65.6953 16.848C65.5273 17.532 65.3113 18.216 65.0473 18.9C64.7953 19.572 64.5253 20.226 64.2373 20.862C63.9493 21.498 63.6853 22.056 63.4453 22.536C63.2893 22.848 63.1333 23.154 62.9773 23.454C62.8213 23.742 62.6173 24.012 62.3653 24.264C62.3893 24.516 62.4373 24.78 62.5093 25.056C62.5933 25.32 62.7013 25.56 62.8333 25.776C62.9773 25.992 63.1513 26.172 63.3553 26.316C63.5593 26.448 63.7993 26.514 64.0753 26.514C64.2793 26.514 64.4653 26.466 64.6333 26.37C64.8133 26.274 64.9753 26.154 65.1193 26.01C65.2633 25.854 65.3953 25.686 65.5153 25.506C65.6473 25.314 65.7673 25.128 65.8753 24.948C66.0433 24.636 66.1933 24.366 66.3253 24.138C66.4693 23.898 66.6073 23.778 66.7393 23.778C66.8353 23.778 66.9193 23.814 66.9913 23.886C67.0753 23.946 67.1173 24.03 67.1173 24.138ZM65.1733 14.994C65.1733 14.526 65.1313 14.094 65.0473 13.698C65.0113 13.494 64.9453 13.272 64.8493 13.032C64.7653 12.792 64.6633 12.57 64.5433 12.366C64.4233 12.162 64.2853 11.994 64.1293 11.862C63.9853 11.718 63.8233 11.646 63.6433 11.646C63.5113 11.646 63.3913 11.718 63.2833 11.862C63.1753 11.994 63.0793 12.162 62.9953 12.366C62.9113 12.558 62.8393 12.756 62.7793 12.96C62.7313 13.152 62.6893 13.308 62.6533 13.428C62.4853 14.028 62.3653 14.634 62.2933 15.246C62.2213 15.846 62.1853 16.452 62.1853 17.064C62.1853 17.544 62.1913 18.054 62.2033 18.594C62.2273 19.134 62.2513 19.668 62.2753 20.196C62.2993 20.712 62.3233 21.204 62.3473 21.672C62.3713 22.14 62.3893 22.53 62.4013 22.842C62.6773 22.326 62.9773 21.726 63.3013 21.042C63.6373 20.346 63.9433 19.638 64.2193 18.918C64.4953 18.186 64.7233 17.478 64.9033 16.794C65.0833 16.098 65.1733 15.498 65.1733 14.994ZM75.697 24.21C75.697 24.234 75.685 24.27 75.661 24.318C75.649 24.354 75.637 24.384 75.625 24.408C75.541 24.564 75.457 24.726 75.373 24.894C75.301 25.05 75.199 25.23 75.067 25.434C74.923 25.65 74.767 25.866 74.599 26.082C74.431 26.298 74.251 26.496 74.059 26.676C73.879 26.844 73.693 26.976 73.501 27.072C73.309 27.18 73.117 27.234 72.925 27.234C72.565 27.234 72.277 27.138 72.061 26.946C71.857 26.742 71.719 26.466 71.647 26.118C71.371 26.466 71.029 26.742 70.621 26.946C70.225 27.138 69.799 27.234 69.343 27.234C68.935 27.234 68.551 27.156 68.191 27C67.831 26.832 67.513 26.616 67.237 26.352C66.973 26.076 66.769 25.758 66.625 25.398C66.469 25.026 66.391 24.636 66.391 24.228C66.391 23.82 66.469 23.436 66.625 23.076C66.769 22.704 66.973 22.38 67.237 22.104C67.513 21.828 67.831 21.612 68.191 21.456C68.551 21.288 68.935 21.204 69.343 21.204C69.775 21.204 70.189 21.3 70.585 21.492C70.981 21.672 71.317 21.924 71.593 22.248C71.593 22.164 71.587 22.068 71.575 21.96C71.563 21.84 71.563 21.732 71.575 21.636C71.599 21.528 71.635 21.438 71.683 21.366C71.743 21.294 71.833 21.258 71.953 21.258C72.049 21.258 72.133 21.294 72.205 21.366C72.289 21.426 72.331 21.504 72.331 21.6V25.254C72.331 25.362 72.331 25.494 72.331 25.65C72.331 25.794 72.349 25.932 72.385 26.064C72.421 26.196 72.481 26.31 72.565 26.406C72.649 26.49 72.769 26.532 72.925 26.532C73.105 26.532 73.291 26.448 73.483 26.28C73.687 26.1 73.873 25.896 74.041 25.668C74.221 25.428 74.377 25.182 74.509 24.93C74.653 24.678 74.761 24.48 74.833 24.336C74.881 24.24 74.935 24.138 74.995 24.03C75.067 23.922 75.169 23.868 75.301 23.868C75.397 23.868 75.487 23.904 75.571 23.976C75.655 24.036 75.697 24.114 75.697 24.21ZM71.593 24.228C71.593 23.916 71.533 23.622 71.413 23.346C71.305 23.07 71.149 22.824 70.945 22.608C70.741 22.392 70.501 22.224 70.225 22.104C69.949 21.972 69.655 21.906 69.343 21.906C69.031 21.906 68.737 21.972 68.461 22.104C68.197 22.224 67.963 22.392 67.759 22.608C67.567 22.824 67.411 23.07 67.291 23.346C67.183 23.622 67.129 23.916 67.129 24.228C67.129 24.528 67.183 24.822 67.291 25.11C67.411 25.386 67.567 25.632 67.759 25.848C67.963 26.052 68.197 26.22 68.461 26.352C68.737 26.472 69.031 26.532 69.343 26.532C69.655 26.532 69.949 26.472 70.225 26.352C70.501 26.22 70.741 26.052 70.945 25.848C71.149 25.632 71.305 25.386 71.413 25.11C71.533 24.834 71.593 24.54 71.593 24.228ZM77.2195 15.732C77.2195 15.828 77.1835 15.984 77.1115 16.2C77.0395 16.416 76.9495 16.632 76.8415 16.848C76.7335 17.064 76.6135 17.256 76.4815 17.424C76.3615 17.592 76.2475 17.676 76.1395 17.676C76.0435 17.676 75.9535 17.646 75.8695 17.586C75.7975 17.514 75.7615 17.43 75.7615 17.334C75.7615 17.286 75.7975 17.202 75.8695 17.082C75.9535 16.962 76.0375 16.83 76.1215 16.686C76.2175 16.53 76.3015 16.368 76.3735 16.2C76.4455 16.032 76.4815 15.876 76.4815 15.732C76.4815 15.636 76.4575 15.546 76.4095 15.462C76.3735 15.366 76.3315 15.282 76.2835 15.21C76.2355 15.126 76.1875 15.054 76.1395 14.994C76.1035 14.922 76.0855 14.868 76.0855 14.832C76.0855 14.736 76.1215 14.652 76.1935 14.58C76.2775 14.508 76.3675 14.472 76.4635 14.472C76.5715 14.472 76.6675 14.526 76.7515 14.634C76.8475 14.73 76.9255 14.844 76.9855 14.976C77.0575 15.108 77.1115 15.246 77.1475 15.39C77.1955 15.534 77.2195 15.648 77.2195 15.732ZM86.3679 24.192C86.3679 24.216 86.3559 24.264 86.3319 24.336C85.9479 25.236 85.4079 25.944 84.7119 26.46C84.0159 26.976 83.1699 27.234 82.1739 27.234H81.3819C81.1899 27.234 80.9499 27.186 80.6619 27.09C80.3859 27.006 80.1159 26.892 79.8519 26.748C79.5879 26.592 79.3659 26.412 79.1859 26.208C79.0059 25.992 78.9159 25.77 78.9159 25.542C78.9159 25.434 78.9519 25.35 79.0239 25.29C79.0959 25.218 79.1799 25.182 79.2759 25.182C79.4559 25.182 79.5579 25.242 79.5819 25.362C79.6179 25.482 79.6659 25.602 79.7259 25.722C79.7739 25.806 79.8639 25.896 79.9959 25.992C80.1399 26.088 80.2959 26.178 80.4639 26.262C80.6439 26.334 80.8179 26.394 80.9859 26.442C81.1539 26.49 81.2859 26.514 81.3819 26.514C81.6699 26.514 81.9279 26.454 82.1559 26.334C82.3839 26.202 82.5759 26.034 82.7319 25.83C82.8879 25.614 83.0079 25.38 83.0919 25.128C83.1759 24.864 83.2179 24.6 83.2179 24.336C83.2179 24 83.1039 23.718 82.8759 23.49C82.6599 23.25 82.3899 23.052 82.0659 22.896C81.7419 22.74 81.3999 22.614 81.0399 22.518C80.6919 22.422 80.3919 22.344 80.1399 22.284C80.0079 22.572 79.8819 22.86 79.7619 23.148C79.6539 23.424 79.5339 23.706 79.4019 23.994C79.3539 24.102 79.2879 24.222 79.2039 24.354C79.1319 24.486 79.0239 24.552 78.8799 24.552C78.7839 24.552 78.6999 24.522 78.6279 24.462C78.5559 24.39 78.5199 24.306 78.5199 24.21C78.5199 24.174 78.5679 24.054 78.6639 23.85C78.7479 23.646 78.8439 23.424 78.9519 23.184C79.0599 22.932 79.1619 22.698 79.2579 22.482C79.3659 22.254 79.4379 22.104 79.4739 22.032C79.2819 21.9 79.1379 21.738 79.0419 21.546C78.9459 21.354 78.8979 21.144 78.8979 20.916C78.8979 20.628 78.9819 20.388 79.1499 20.196C79.3179 19.992 79.5519 19.89 79.8519 19.89C80.0919 19.89 80.2959 19.974 80.4639 20.142C80.6439 20.31 80.7339 20.514 80.7339 20.754C80.7339 20.862 80.6919 21.012 80.6079 21.204C80.5359 21.384 80.4759 21.522 80.4279 21.618C80.7759 21.69 81.1539 21.792 81.5619 21.924C81.9699 22.044 82.3479 22.212 82.6959 22.428C83.0559 22.644 83.3559 22.908 83.5959 23.22C83.8359 23.532 83.9559 23.904 83.9559 24.336C83.9559 24.708 83.8899 25.08 83.7579 25.452C83.6379 25.812 83.4579 26.13 83.2179 26.406C83.6739 26.274 84.0699 26.064 84.4059 25.776C84.7539 25.476 85.0479 25.122 85.2879 24.714C85.3479 24.606 85.4079 24.492 85.4679 24.372C85.5279 24.252 85.5939 24.138 85.6659 24.03C85.7139 23.97 85.7559 23.928 85.7919 23.904C85.8279 23.868 85.8879 23.85 85.9719 23.85C86.0679 23.85 86.1579 23.886 86.2419 23.958C86.3259 24.018 86.3679 24.096 86.3679 24.192ZM79.9959 20.754C79.9959 20.658 79.9479 20.61 79.8519 20.61C79.7559 20.61 79.6959 20.646 79.6719 20.718C79.6479 20.778 79.6359 20.844 79.6359 20.916C79.6359 20.988 79.6419 21.06 79.6539 21.132C79.6779 21.204 79.7139 21.27 79.7619 21.33C79.7859 21.27 79.8279 21.174 79.8879 21.042C79.9599 20.898 79.9959 20.802 79.9959 20.754ZM103.844 15.138C103.844 15.618 103.784 16.092 103.664 16.56C103.544 17.016 103.364 17.43 103.124 17.802C102.884 18.174 102.59 18.474 102.242 18.702C101.894 18.93 101.486 19.044 101.018 19.044C100.85 19.044 100.682 19.014 100.514 18.954C100.346 18.894 100.19 18.804 100.046 18.684C99.9145 18.564 99.8005 18.42 99.7045 18.252C99.6205 18.072 99.5785 17.88 99.5785 17.676C99.5785 17.556 99.6145 17.46 99.6865 17.388C99.7585 17.304 99.8425 17.262 99.9385 17.262C100.034 17.262 100.1 17.28 100.136 17.316C100.184 17.352 100.214 17.394 100.226 17.442C100.25 17.49 100.262 17.55 100.262 17.622C100.274 17.682 100.298 17.748 100.334 17.82C100.394 17.952 100.49 18.054 100.622 18.126C100.754 18.186 100.886 18.216 101.018 18.216C101.378 18.216 101.684 18.126 101.936 17.946C102.2 17.754 102.416 17.508 102.584 17.208C102.764 16.908 102.896 16.578 102.98 16.218C103.064 15.846 103.106 15.486 103.106 15.138C103.106 14.442 102.95 13.866 102.638 13.41C102.326 12.954 101.936 12.6 101.468 12.348C101 12.096 100.49 11.922 99.9385 11.826C99.3865 11.718 98.8645 11.664 98.3725 11.664C98.0605 11.664 97.7425 11.694 97.4185 11.754C97.1065 11.802 96.7945 11.88 96.4825 11.988C96.1585 12.096 95.8225 12.252 95.4745 12.456C95.1385 12.648 94.8265 12.888 94.5385 13.176C94.2505 13.452 94.0165 13.776 93.8365 14.148C93.6565 14.508 93.5665 14.904 93.5665 15.336C93.5665 15.78 93.6685 16.17 93.8725 16.506C94.0765 16.83 94.3885 16.992 94.8085 16.992C95.0125 16.992 95.1985 16.914 95.3665 16.758C95.5345 16.59 95.6785 16.386 95.7985 16.146C95.9305 15.906 96.0325 15.66 96.1045 15.408C96.1765 15.144 96.2125 14.916 96.2125 14.724C96.2125 14.604 96.2485 14.508 96.3205 14.436C96.3925 14.352 96.4765 14.31 96.5725 14.31C96.6685 14.31 96.7525 14.352 96.8245 14.436C96.9085 14.508 96.9505 14.604 96.9505 14.724C96.9505 15.036 96.8965 15.378 96.7885 15.75C96.6925 16.122 96.5485 16.464 96.3565 16.776C96.1645 17.076 95.9365 17.328 95.6725 17.532C95.4085 17.736 95.1205 17.838 94.8085 17.838C94.4965 17.838 94.2145 17.772 93.9625 17.64C93.7225 17.496 93.5185 17.316 93.3505 17.1C93.1825 16.872 93.0565 16.608 92.9725 16.308C92.8765 16.008 92.8285 15.684 92.8285 15.336C92.8285 14.832 92.9125 14.376 93.0805 13.968C93.2485 13.548 93.4765 13.176 93.7645 12.852C94.0525 12.516 94.3825 12.222 94.7545 11.97C95.1385 11.706 95.5345 11.496 95.9425 11.34C96.3505 11.172 96.7645 11.046 97.1845 10.962C97.6045 10.878 98.0005 10.836 98.3725 10.836C98.9725 10.836 99.5905 10.902 100.226 11.034C100.874 11.166 101.462 11.4 101.99 11.736C102.53 12.06 102.974 12.498 103.322 13.05C103.67 13.602 103.844 14.298 103.844 15.138ZM99.5785 12.348C99.5785 12.468 99.5365 12.564 99.4525 12.636C99.3805 12.708 99.2965 12.744 99.2005 12.744C99.0925 12.744 98.9965 12.858 98.9125 13.086C98.8405 13.314 98.7805 13.602 98.7325 13.95C98.6845 14.298 98.6425 14.682 98.6065 15.102C98.5825 15.522 98.5645 15.93 98.5525 16.326C98.5405 16.71 98.5345 17.058 98.5345 17.37C98.5345 17.682 98.5345 17.91 98.5345 18.054C98.5345 18.57 98.5405 19.086 98.5525 19.602C98.5645 20.118 98.5705 20.64 98.5705 21.168C98.5705 21.876 98.5225 22.596 98.4265 23.328C98.3425 24.048 98.1685 24.702 97.9045 25.29C97.6525 25.866 97.2865 26.34 96.8065 26.712C96.3385 27.072 95.7145 27.252 94.9345 27.252C94.7545 27.252 94.5625 27.222 94.3585 27.162C94.1665 27.114 93.9805 27.036 93.8005 26.928C93.6325 26.82 93.4945 26.682 93.3865 26.514C93.2785 26.346 93.2245 26.136 93.2245 25.884C93.2245 25.56 93.3265 25.284 93.5305 25.056C93.7465 24.816 93.9985 24.696 94.2865 24.696C94.3945 24.696 94.4845 24.732 94.5565 24.804C94.6285 24.876 94.6645 24.978 94.6645 25.11C94.6645 25.254 94.6285 25.356 94.5565 25.416C94.4845 25.464 94.4005 25.506 94.3045 25.542C94.2205 25.566 94.1425 25.602 94.0705 25.65C93.9985 25.686 93.9625 25.764 93.9625 25.884C93.9625 25.992 93.9985 26.088 94.0705 26.172C94.1425 26.244 94.2325 26.304 94.3405 26.352C94.4485 26.388 94.5565 26.412 94.6645 26.424C94.7725 26.436 94.8625 26.442 94.9345 26.442C95.5825 26.442 96.0985 26.274 96.4825 25.938C96.8665 25.602 97.1545 25.176 97.3465 24.66C97.5505 24.144 97.6825 23.58 97.7425 22.968C97.8025 22.344 97.8325 21.744 97.8325 21.168C97.8325 20.508 97.8205 19.866 97.7965 19.242C97.7845 18.606 97.7785 17.958 97.7785 17.298C97.7785 17.118 97.7785 16.86 97.7785 16.524C97.7905 16.188 97.8085 15.822 97.8325 15.426C97.8565 15.03 97.8985 14.628 97.9585 14.22C98.0185 13.8 98.1025 13.422 98.2105 13.086C98.3185 12.738 98.4505 12.462 98.6065 12.258C98.7745 12.042 98.9725 11.934 99.2005 11.934C99.2965 11.934 99.3805 11.97 99.4525 12.042C99.5365 12.114 99.5785 12.216 99.5785 12.348ZM109.166 24.21C109.166 24.234 109.154 24.27 109.13 24.318C109.118 24.354 109.106 24.384 109.094 24.408C109.01 24.564 108.926 24.726 108.842 24.894C108.77 25.05 108.668 25.23 108.536 25.434C108.392 25.65 108.236 25.866 108.068 26.082C107.9 26.298 107.72 26.496 107.528 26.676C107.348 26.844 107.162 26.976 106.97 27.072C106.778 27.18 106.586 27.234 106.394 27.234C106.034 27.234 105.746 27.138 105.53 26.946C105.326 26.742 105.188 26.466 105.116 26.118C104.84 26.466 104.498 26.742 104.09 26.946C103.694 27.138 103.268 27.234 102.812 27.234C102.404 27.234 102.02 27.156 101.66 27C101.3 26.832 100.982 26.616 100.706 26.352C100.442 26.076 100.238 25.758 100.094 25.398C99.9377 25.026 99.8597 24.636 99.8597 24.228C99.8597 23.82 99.9377 23.436 100.094 23.076C100.238 22.704 100.442 22.38 100.706 22.104C100.982 21.828 101.3 21.612 101.66 21.456C102.02 21.288 102.404 21.204 102.812 21.204C103.244 21.204 103.658 21.3 104.054 21.492C104.45 21.672 104.786 21.924 105.062 22.248C105.062 22.164 105.056 22.068 105.044 21.96C105.032 21.84 105.032 21.732 105.044 21.636C105.068 21.528 105.104 21.438 105.152 21.366C105.212 21.294 105.302 21.258 105.422 21.258C105.518 21.258 105.602 21.294 105.674 21.366C105.758 21.426 105.8 21.504 105.8 21.6V25.254C105.8 25.362 105.8 25.494 105.8 25.65C105.8 25.794 105.818 25.932 105.854 26.064C105.89 26.196 105.95 26.31 106.034 26.406C106.118 26.49 106.238 26.532 106.394 26.532C106.574 26.532 106.76 26.448 106.952 26.28C107.156 26.1 107.342 25.896 107.51 25.668C107.69 25.428 107.846 25.182 107.978 24.93C108.122 24.678 108.23 24.48 108.302 24.336C108.35 24.24 108.404 24.138 108.464 24.03C108.536 23.922 108.638 23.868 108.77 23.868C108.866 23.868 108.956 23.904 109.04 23.976C109.124 24.036 109.166 24.114 109.166 24.21ZM105.062 24.228C105.062 23.916 105.002 23.622 104.882 23.346C104.774 23.07 104.618 22.824 104.414 22.608C104.21 22.392 103.97 22.224 103.694 22.104C103.418 21.972 103.124 21.906 102.812 21.906C102.5 21.906 102.206 21.972 101.93 22.104C101.666 22.224 101.432 22.392 101.228 22.608C101.036 22.824 100.88 23.07 100.76 23.346C100.652 23.622 100.598 23.916 100.598 24.228C100.598 24.528 100.652 24.822 100.76 25.11C100.88 25.386 101.036 25.632 101.228 25.848C101.432 26.052 101.666 26.22 101.93 26.352C102.206 26.472 102.5 26.532 102.812 26.532C103.124 26.532 103.418 26.472 103.694 26.352C103.97 26.22 104.21 26.052 104.414 25.848C104.618 25.632 104.774 25.386 104.882 25.11C105.002 24.834 105.062 24.54 105.062 24.228ZM113.91 24.138C113.91 24.21 113.898 24.27 113.874 24.318C113.778 24.51 113.664 24.72 113.532 24.948C113.4 25.164 113.25 25.392 113.082 25.632C112.938 25.836 112.788 26.034 112.632 26.226C112.476 26.418 112.302 26.592 112.11 26.748C111.93 26.892 111.738 27.006 111.534 27.09C111.33 27.186 111.108 27.234 110.868 27.234C110.436 27.234 110.064 27.138 109.752 26.946C109.452 26.742 109.206 26.49 109.014 26.19C108.822 25.878 108.678 25.542 108.582 25.182C108.486 24.81 108.432 24.456 108.42 24.12C108.444 23.76 108.444 23.298 108.42 22.734C108.384 22.17 108.354 21.57 108.33 20.934C108.294 20.298 108.264 19.65 108.24 18.99C108.216 18.33 108.204 17.706 108.204 17.118C108.204 16.89 108.222 16.572 108.258 16.164C108.282 15.744 108.33 15.306 108.402 14.85C108.462 14.382 108.552 13.908 108.672 13.428C108.78 12.936 108.918 12.498 109.086 12.114C109.254 11.718 109.446 11.4 109.662 11.16C109.89 10.908 110.148 10.782 110.436 10.782C110.868 10.782 111.228 10.938 111.516 11.25C111.816 11.562 112.056 11.94 112.236 12.384C112.416 12.816 112.542 13.272 112.614 13.752C112.698 14.232 112.74 14.646 112.74 14.994C112.74 15.546 112.656 16.164 112.488 16.848C112.32 17.532 112.104 18.216 111.84 18.9C111.588 19.572 111.318 20.226 111.03 20.862C110.742 21.498 110.478 22.056 110.238 22.536C110.082 22.848 109.926 23.154 109.77 23.454C109.614 23.742 109.41 24.012 109.158 24.264C109.182 24.516 109.23 24.78 109.302 25.056C109.386 25.32 109.494 25.56 109.626 25.776C109.77 25.992 109.944 26.172 110.148 26.316C110.352 26.448 110.592 26.514 110.868 26.514C111.072 26.514 111.258 26.466 111.426 26.37C111.606 26.274 111.768 26.154 111.912 26.01C112.056 25.854 112.188 25.686 112.308 25.506C112.44 25.314 112.56 25.128 112.668 24.948C112.836 24.636 112.986 24.366 113.118 24.138C113.262 23.898 113.4 23.778 113.532 23.778C113.628 23.778 113.712 23.814 113.784 23.886C113.868 23.946 113.91 24.03 113.91 24.138ZM111.966 14.994C111.966 14.526 111.924 14.094 111.84 13.698C111.804 13.494 111.738 13.272 111.642 13.032C111.558 12.792 111.456 12.57 111.336 12.366C111.216 12.162 111.078 11.994 110.922 11.862C110.778 11.718 110.616 11.646 110.436 11.646C110.304 11.646 110.184 11.718 110.076 11.862C109.968 11.994 109.872 12.162 109.788 12.366C109.704 12.558 109.632 12.756 109.572 12.96C109.524 13.152 109.482 13.308 109.446 13.428C109.278 14.028 109.158 14.634 109.086 15.246C109.014 15.846 108.978 16.452 108.978 17.064C108.978 17.544 108.984 18.054 108.996 18.594C109.02 19.134 109.044 19.668 109.068 20.196C109.092 20.712 109.116 21.204 109.14 21.672C109.164 22.14 109.182 22.53 109.194 22.842C109.47 22.326 109.77 21.726 110.094 21.042C110.43 20.346 110.736 19.638 111.012 18.918C111.288 18.186 111.516 17.478 111.696 16.794C111.876 16.098 111.966 15.498 111.966 14.994ZM122.49 24.21C122.49 24.234 122.478 24.27 122.454 24.318C122.442 24.354 122.43 24.384 122.418 24.408C122.334 24.564 122.25 24.726 122.166 24.894C122.094 25.05 121.992 25.23 121.86 25.434C121.716 25.65 121.56 25.866 121.392 26.082C121.224 26.298 121.044 26.496 120.852 26.676C120.672 26.844 120.486 26.976 120.294 27.072C120.102 27.18 119.91 27.234 119.718 27.234C119.358 27.234 119.07 27.138 118.854 26.946C118.65 26.742 118.512 26.466 118.44 26.118C118.164 26.466 117.822 26.742 117.414 26.946C117.018 27.138 116.592 27.234 116.136 27.234C115.728 27.234 115.344 27.156 114.984 27C114.624 26.832 114.306 26.616 114.03 26.352C113.766 26.076 113.562 25.758 113.418 25.398C113.262 25.026 113.184 24.636 113.184 24.228C113.184 23.82 113.262 23.436 113.418 23.076C113.562 22.704 113.766 22.38 114.03 22.104C114.306 21.828 114.624 21.612 114.984 21.456C115.344 21.288 115.728 21.204 116.136 21.204C116.568 21.204 116.982 21.3 117.378 21.492C117.774 21.672 118.11 21.924 118.386 22.248C118.386 22.164 118.38 22.068 118.368 21.96C118.356 21.84 118.356 21.732 118.368 21.636C118.392 21.528 118.428 21.438 118.476 21.366C118.536 21.294 118.626 21.258 118.746 21.258C118.842 21.258 118.926 21.294 118.998 21.366C119.082 21.426 119.124 21.504 119.124 21.6V25.254C119.124 25.362 119.124 25.494 119.124 25.65C119.124 25.794 119.142 25.932 119.178 26.064C119.214 26.196 119.274 26.31 119.358 26.406C119.442 26.49 119.562 26.532 119.718 26.532C119.898 26.532 120.084 26.448 120.276 26.28C120.48 26.1 120.666 25.896 120.834 25.668C121.014 25.428 121.17 25.182 121.302 24.93C121.446 24.678 121.554 24.48 121.626 24.336C121.674 24.24 121.728 24.138 121.788 24.03C121.86 23.922 121.962 23.868 122.094 23.868C122.19 23.868 122.28 23.904 122.364 23.976C122.448 24.036 122.49 24.114 122.49 24.21ZM118.386 24.228C118.386 23.916 118.326 23.622 118.206 23.346C118.098 23.07 117.942 22.824 117.738 22.608C117.534 22.392 117.294 22.224 117.018 22.104C116.742 21.972 116.448 21.906 116.136 21.906C115.824 21.906 115.53 21.972 115.254 22.104C114.99 22.224 114.756 22.392 114.552 22.608C114.36 22.824 114.204 23.07 114.084 23.346C113.976 23.622 113.922 23.916 113.922 24.228C113.922 24.528 113.976 24.822 114.084 25.11C114.204 25.386 114.36 25.632 114.552 25.848C114.756 26.052 114.99 26.22 115.254 26.352C115.53 26.472 115.824 26.532 116.136 26.532C116.448 26.532 116.742 26.472 117.018 26.352C117.294 26.22 117.534 26.052 117.738 25.848C117.942 25.632 118.098 25.386 118.206 25.11C118.326 24.834 118.386 24.54 118.386 24.228ZM128.404 24.21C128.404 24.234 128.392 24.27 128.368 24.318C128.212 24.702 128.014 25.074 127.774 25.434C127.546 25.782 127.276 26.094 126.964 26.37C126.652 26.634 126.304 26.844 125.92 27C125.548 27.156 125.14 27.234 124.696 27.234C124.288 27.234 123.904 27.156 123.544 27C123.184 26.832 122.866 26.616 122.59 26.352C122.326 26.076 122.122 25.758 121.978 25.398C121.822 25.026 121.744 24.636 121.744 24.228C121.744 23.82 121.822 23.436 121.978 23.076C122.122 22.704 122.326 22.38 122.59 22.104C122.866 21.828 123.184 21.612 123.544 21.456C123.904 21.288 124.288 21.204 124.696 21.204C124.78 21.204 124.918 21.222 125.11 21.258C125.314 21.294 125.512 21.348 125.704 21.42C125.908 21.492 126.082 21.576 126.226 21.672C126.382 21.756 126.46 21.852 126.46 21.96C126.46 22.056 126.418 22.14 126.334 22.212C126.262 22.272 126.178 22.302 126.082 22.302C125.974 22.302 125.8 22.236 125.56 22.104C125.332 21.972 125.044 21.906 124.696 21.906C124.384 21.906 124.09 21.972 123.814 22.104C123.55 22.224 123.316 22.392 123.112 22.608C122.92 22.812 122.764 23.058 122.644 23.346C122.536 23.622 122.482 23.916 122.482 24.228C122.482 24.54 122.536 24.834 122.644 25.11C122.764 25.386 122.92 25.632 123.112 25.848C123.316 26.052 123.55 26.22 123.814 26.352C124.09 26.472 124.384 26.532 124.696 26.532C125.308 26.532 125.812 26.376 126.208 26.064C126.616 25.74 126.97 25.326 127.27 24.822C127.342 24.69 127.408 24.564 127.468 24.444C127.54 24.324 127.618 24.198 127.702 24.066C127.738 24.006 127.774 23.958 127.81 23.922C127.858 23.874 127.924 23.85 128.008 23.85C128.104 23.85 128.194 23.886 128.278 23.958C128.362 24.03 128.404 24.114 128.404 24.21ZM134.904 24.21C134.904 24.234 134.892 24.27 134.868 24.318C134.484 25.218 133.926 25.932 133.194 26.46C132.474 26.976 131.616 27.234 130.62 27.234C130.212 27.234 129.828 27.156 129.468 27C129.108 26.832 128.796 26.61 128.532 26.334C128.268 26.058 128.058 25.74 127.902 25.38C127.746 25.02 127.668 24.636 127.668 24.228C127.668 23.796 127.746 23.4 127.902 23.04C128.046 22.668 128.25 22.35 128.514 22.086C128.79 21.81 129.108 21.594 129.468 21.438C129.84 21.282 130.242 21.204 130.674 21.204C130.914 21.204 131.172 21.246 131.448 21.33C131.724 21.402 131.982 21.516 132.222 21.672C132.462 21.816 132.66 21.996 132.816 22.212C132.972 22.428 133.05 22.674 133.05 22.95C133.05 23.286 132.972 23.58 132.816 23.832C132.672 24.084 132.48 24.294 132.24 24.462C132 24.63 131.73 24.762 131.43 24.858C131.13 24.942 130.83 24.984 130.53 24.984C130.134 24.984 129.768 24.942 129.432 24.858C129.108 24.774 128.766 24.648 128.406 24.48C128.442 24.756 128.52 25.02 128.64 25.272C128.772 25.524 128.934 25.746 129.126 25.938C129.33 26.118 129.558 26.262 129.81 26.37C130.062 26.478 130.332 26.532 130.62 26.532C131.268 26.532 131.862 26.394 132.402 26.118C132.954 25.842 133.404 25.422 133.752 24.858C133.788 24.798 133.83 24.714 133.878 24.606C133.938 24.498 133.998 24.39 134.058 24.282C134.13 24.174 134.202 24.078 134.274 23.994C134.346 23.91 134.424 23.868 134.508 23.868C134.604 23.868 134.694 23.904 134.778 23.976C134.862 24.036 134.904 24.114 134.904 24.21ZM132.312 22.95C132.312 22.782 132.252 22.638 132.132 22.518C132.012 22.386 131.868 22.278 131.7 22.194C131.532 22.098 131.352 22.026 131.16 21.978C130.968 21.93 130.806 21.906 130.674 21.906C130.122 21.906 129.642 22.074 129.234 22.41C128.826 22.734 128.562 23.166 128.442 23.706C128.802 23.898 129.138 24.042 129.45 24.138C129.762 24.222 130.122 24.264 130.53 24.264C130.722 24.264 130.92 24.24 131.124 24.192C131.34 24.132 131.532 24.048 131.7 23.94C131.88 23.832 132.024 23.7 132.132 23.544C132.252 23.376 132.312 23.178 132.312 22.95Z" fill="white"/>
</svg>
