<svg version="1.2" baseProfile="tiny-ps" xmlns="http://www.w3.org/2000/svg" viewBox="0 0 1074 227" width="161" height="34">
	<title>Official Powercord Server Logo - Discord Server Logos (Vector Logo)</title>
	<style>
		tspan { white-space:pre }
		.shp0 { fill: #ffffff } 
		.shp1 { fill: #8e9297 } 
		.shp2 { fill: #99aab5 } 
		.shp3 { fill: #23272a } 
		.shp4 { fill: #7289da } 
	</style>
	<path id="POWERCORD " fill-rule="evenodd" class="shp0" d="M120.38 115.32L160.63 115.32C185.23 115.32 197.46 133.09 197.46 150.87C197.46 168.79 185.09 186.56 160.77 186.56L145.84 186.56L145.84 216L120.38 216L120.38 115.32ZM160.63 163.95C175.99 164.09 175.99 138.92 160.63 139.06L145.84 139.06L145.84 163.95L160.63 163.95ZM205.85 148.45C205.85 125.27 226.61 113.89 247.52 113.89C268.42 113.89 289.33 125.41 289.33 148.45L289.33 182.87C289.33 205.9 268.56 217.42 247.66 217.42C226.76 217.42 205.85 205.9 205.85 182.87L205.85 148.45ZM231.31 182.87C231.31 190.26 239.55 193.82 247.66 193.82C255.77 193.82 263.87 190.12 263.87 182.87L263.87 148.45C263.87 140.63 255.48 137.07 247.23 137.07C239.27 137.07 231.31 141.06 231.31 148.45L231.31 182.87ZM396.55 115.32L422.86 115.32L393.85 216L370.25 216L361.29 188.13L357.73 165.09L357.3 165.09L353.46 187.98L345.5 216L321.89 216L292.74 115.32L319.19 115.32L331.14 163.52L333.7 184.86L334.41 184.86L336.83 163.67L348.06 128.4L367.4 128.4L377.78 163.81L381.05 184.86L381.48 184.86L384.32 163.81L396.55 115.32ZM456.57 154.85L497.38 154.85L497.38 176.89L456.57 176.89L456.57 191.97L500.94 191.97L500.94 216L430.83 216L430.83 115.32L500.94 115.32L500.94 139.21L456.57 139.21L456.57 154.85ZM544.74 184L540.19 184L540.19 216L514.45 216L514.45 115.32L554.69 115.32C575.45 115.32 591.52 124.84 592.09 148.45C592.09 167.08 584.56 177.6 572.33 181.44L599.77 216L568.06 216L544.74 184ZM555.12 162.1C571.19 162.1 571.19 139.06 555.12 139.06L540.19 139.06L540.19 162.1L555.12 162.1ZM678.98 194.81C670.59 211.16 655.38 217.42 642.72 217.42C622.95 217.42 603.04 205.9 603.04 183.01L603.04 148.31C603.04 125.55 622.95 113.89 643.15 113.89C655.52 113.89 670.45 119.15 678.56 137.07L657.79 145.46C650.97 132.95 628.5 135.79 628.5 148.31L628.5 183.01C628.5 195.1 651.25 198.51 656.8 184.57L678.98 194.81ZM685.81 148.45C685.81 125.27 706.57 113.89 727.48 113.89C748.38 113.89 769.29 125.41 769.29 148.45L769.29 182.87C769.29 205.9 748.52 217.42 727.62 217.42C706.71 217.42 685.81 205.9 685.81 182.87L685.81 148.45ZM711.27 182.87C711.27 190.26 719.51 193.82 727.62 193.82C735.73 193.82 743.83 190.12 743.83 182.87L743.83 148.45C743.83 140.63 735.44 137.07 727.19 137.07C719.23 137.07 711.27 141.06 711.27 148.45L711.27 182.87ZM813.09 184L808.54 184L808.54 216L782.8 216L782.8 115.32L823.04 115.32C843.81 115.32 859.87 124.84 860.44 148.45C860.44 167.08 852.91 177.6 840.68 181.44L868.12 216L836.41 216L813.09 184ZM823.47 162.1C839.54 162.1 839.54 139.06 823.47 139.06L808.54 139.06L808.54 162.1L823.47 162.1ZM874.68 113.29L895.59 113.29C910.65 113.29 916.9 113.43 918.01 113.64C918.92 113.64 920.45 113.92 921.42 114.06C922.46 114.19 923.85 114.47 924.68 114.75C925.58 115.03 927.11 115.31 928.15 115.58C929.13 115.86 930.51 116.42 931.42 116.76C932.25 117.04 933.71 117.74 934.54 118.15C935.51 118.57 936.83 119.26 937.39 119.61C937.94 120.03 939.33 120.86 940.37 121.56C941.35 122.25 942.8 123.57 943.5 124.4C944.33 125.24 945.44 126.55 946.07 127.25C946.48 127.94 947.32 128.99 947.6 129.54C948.01 130.1 948.64 131.21 948.92 131.97C949.19 132.67 949.75 133.92 950.03 134.68C950.3 135.37 950.72 136.62 951 137.39C951.28 138.22 951.62 139.61 951.76 140.51C951.9 141.35 952.18 142.73 952.32 143.5C952.46 144.61 952.46 149.61 952.46 165.37C952.46 181.76 952.46 186 952.32 187.11C952.18 187.87 952.04 189.26 951.76 190.09C951.62 190.99 951.28 192.24 951 192.94C950.72 193.7 950.44 194.81 950.17 195.23C949.89 195.65 949.75 196.69 949.47 197.11C949.19 197.52 948.78 198.49 948.29 199.19C947.87 199.95 947.18 200.92 946.9 201.34C946.62 201.76 946.07 202.52 945.65 203.08C945.17 203.63 944.19 204.74 943.64 205.3C943.08 206.06 941.9 207.04 941.21 207.59C940.51 208.15 939.19 209.05 938.5 209.47C937.8 209.88 936.21 210.85 934.96 211.48C933.85 212.04 932.11 212.73 931.42 213.01C930.51 213.28 928.99 213.84 928.01 214.12C926.97 214.47 925.17 214.88 923.99 215.16C922.88 215.44 921.14 215.58 920.17 215.72C919.2 215.85 917.32 216.13 916.21 216.13C914.89 216.13 905.1 216.27 874.68 216.27L874.68 191.83L894.68 191.83C911.77 191.83 915.03 191.83 916.49 191.55C917.32 191.55 918.57 191.27 919.2 190.99C919.75 190.72 920.72 190.58 921.14 190.23C921.56 189.95 922.46 189.54 922.74 189.26C923.15 188.98 923.57 188.43 923.99 188.01C924.26 187.52 925.03 186.83 925.31 186.27C925.58 185.72 926 184.75 926.42 183.15L926.42 146.76C926.42 146.21 926.14 145.16 925.86 144.61C925.58 144.05 925.31 143.22 925.03 142.73C924.68 142.32 924.13 141.62 923.71 141.21C923.29 140.79 922.46 140.03 922.04 139.75C921.56 139.47 920.72 139.05 920.17 138.78C919.61 138.5 918.43 138.22 917.88 138.22C917.32 138.08 916.07 137.8 915.03 137.8C914.06 137.8 910.24 137.67 899.96 137.67L899.96 179.61C899.96 179.61 898.71 178.57 897.25 177.32C895.86 176.07 891.84 172.45 888.57 169.47C885.31 166.34 880.93 162.39 874.68 156.69L874.68 113.29Z" />
	<path id="Official Powercord Server " fill-rule="evenodd" class="shp1" d="M281.03 90.74C269.86 90.74 262.62 82.53 262.62 70.39C262.62 58.19 269.92 49.93 281.15 49.93C292.43 49.93 299.56 58.14 299.56 70.28C299.56 82.42 292.32 90.74 281.03 90.74ZM281.09 56.2C274.36 56.2 270.32 61.73 270.32 70.34C270.32 78.94 274.36 84.47 281.09 84.47C287.87 84.47 291.92 78.94 291.92 70.34C291.92 61.73 287.82 56.2 281.09 56.2ZM317.63 54.95C315.29 54.95 314.04 55.97 314.04 58.42L314.04 62.47L319.28 62.47L320.13 68.06L314.04 68.06L314.04 90L307.25 90L307.25 68.06L303.26 68.06L303.26 62.47L307.25 62.47L307.25 57.74C307.25 51.64 311.13 49.36 316.77 49.36C317.97 49.36 318.88 49.47 319.56 49.59L320.48 55.17C319.79 55.06 318.77 54.95 317.63 54.95ZM336.55 54.95C334.21 54.95 332.96 55.97 332.96 58.42L332.96 62.47L338.2 62.47L339.06 68.06L332.96 68.06L332.96 90L326.18 90L326.18 68.06L322.19 68.06L322.19 62.47L326.18 62.47L326.18 57.74C326.18 51.64 330.05 49.36 335.7 49.36C336.89 49.36 337.81 49.47 338.49 49.59L339.4 55.17C338.72 55.06 337.69 54.95 336.55 54.95ZM346.93 57.85C344.64 57.85 342.82 56.26 342.82 53.98C342.82 51.64 344.64 49.99 346.93 49.99C349.15 49.99 350.97 51.64 350.97 53.98C350.97 56.26 349.15 57.85 346.93 57.85ZM343.45 90L343.45 62.47L350.29 62.47L350.29 90L343.45 90ZM369.16 90.51C361.52 90.51 356.1 85.38 356.1 76.38C356.1 66.8 362.09 61.9 369.38 61.9C373.09 61.9 375.82 62.87 377.99 64.24L377.02 70.39C374.68 68.63 372.46 67.83 369.78 67.83C365.85 67.83 363 70.73 363 76.21C363 81.91 366.08 84.64 370.24 84.64C372.63 84.64 374.8 84.02 377.36 82.02L378.27 87.83C375.48 89.77 372.63 90.51 369.16 90.51ZM387.51 57.85C385.23 57.85 383.41 56.26 383.41 53.98C383.41 51.64 385.23 49.99 387.51 49.99C389.73 49.99 391.56 51.64 391.56 53.98C391.56 56.26 389.73 57.85 387.51 57.85ZM384.03 90L384.03 62.47L390.87 62.47L390.87 90L384.03 90ZM414.13 90L413.56 86.41C411.34 88.75 408.49 90.57 404.38 90.57C399.71 90.57 396.57 87.72 396.57 82.93C396.57 76.26 402.04 73.36 413.16 72.27L413.16 71.47C413.16 68.51 411.45 67.37 408.43 67.37C405.24 67.37 402.22 68.28 399.25 69.59L398.4 64.12C401.59 62.87 404.95 61.9 409.34 61.9C416.47 61.9 420 64.52 420 71.13L420 90L414.13 90ZM413.16 76.26C405.24 77.23 403.36 79.57 403.36 82.19C403.36 84.19 404.61 85.38 406.72 85.38C409.06 85.38 411.28 84.3 413.16 82.42L413.16 76.26ZM427.07 90L427.07 49.93L433.91 48.85L433.91 90L427.07 90ZM464.92 75.52L461.55 75.52L461.55 90L454.03 90L454.03 50.67L465.54 50.67C474.55 50.67 479.96 54.83 479.96 62.75C479.96 71.25 473.92 75.52 464.92 75.52ZM465.14 56.71L461.55 56.71L461.55 69.42L464.86 69.42C469.7 69.42 472.55 67.43 472.55 62.92C472.55 58.82 469.99 56.71 465.14 56.71ZM494.67 90.57C487.2 90.57 481.79 85.21 481.79 76.26C481.79 67.31 487.26 61.9 494.73 61.9C502.25 61.9 507.72 67.31 507.72 76.26C507.72 85.21 502.19 90.57 494.67 90.57ZM494.67 67.54C490.62 67.54 488.46 71.13 488.46 76.26C488.46 81.28 490.68 84.98 494.67 84.98C498.89 84.98 501.05 81.39 501.05 76.26C501.05 71.19 498.77 67.54 494.67 67.54ZM540.84 90L534.74 90L529.55 71.76L524.42 90L518.32 90L510.12 62.98L516.96 62.07L521.86 80.42L526.87 62.47L532.92 62.47L537.88 80.42L542.66 62.47L549.1 62.47L540.84 90ZM575.89 77.57L558.22 77.57C558.57 82.93 561.42 85.27 565.63 85.27C569.17 85.27 572.08 83.96 575.1 81.85L575.89 87.21C572.93 89.26 569.34 90.57 564.89 90.57C557.2 90.57 551.44 86.18 551.44 76.26C551.44 67.31 556.8 61.9 563.98 61.9C572.25 61.9 575.95 68.11 575.95 75.92C575.95 76.49 575.89 77.17 575.89 77.57ZM563.81 66.63C561.07 66.63 558.85 68.8 558.34 73.3L569.28 73.3C568.83 69.02 567.12 66.63 563.81 66.63ZM588.32 74.21L588.32 90L581.48 90L581.48 62.47L587.29 62.47L588.15 68C589.97 64.81 592.71 62.13 596.98 61.9L598.07 68.68C593.79 68.97 590.26 71.25 588.32 74.21ZM613.29 90.51C605.65 90.51 600.23 85.38 600.23 76.38C600.23 66.8 606.22 61.9 613.51 61.9C617.22 61.9 619.96 62.87 622.12 64.24L621.15 70.39C618.82 68.63 616.59 67.83 613.91 67.83C609.98 67.83 607.13 70.73 607.13 76.21C607.13 81.91 610.21 84.64 614.37 84.64C616.76 84.64 618.93 84.02 621.49 82.02L622.41 87.83C619.61 89.77 616.76 90.51 613.29 90.51ZM638.82 90.57C631.36 90.57 625.94 85.21 625.94 76.26C625.94 67.31 631.41 61.9 638.88 61.9C646.4 61.9 651.88 67.31 651.88 76.26C651.88 85.21 646.35 90.57 638.82 90.57ZM638.82 67.54C634.78 67.54 632.61 71.13 632.61 76.26C632.61 81.28 634.83 84.98 638.82 84.98C643.04 84.98 645.21 81.39 645.21 76.26C645.21 71.19 642.93 67.54 638.82 67.54ZM664.24 74.21L664.24 90L657.4 90L657.4 62.47L663.22 62.47L664.07 68C665.9 64.81 668.63 62.13 672.91 61.9L673.99 68.68C669.72 68.97 666.18 71.25 664.24 74.21ZM695.59 90L695.02 86.18C693.09 88.52 690.41 90.57 686.59 90.57C680.83 90.57 676.21 86.3 676.21 77C676.21 66.74 681.86 62.18 688.24 62.18C690.86 62.18 692.97 62.64 694.63 63.21L694.63 49.93L701.47 48.85L701.47 90L695.59 90ZM694.63 68.85C692.91 68.06 691.6 67.66 689.27 67.66C685.68 67.66 683.05 70.56 683.05 76.6C683.05 81.96 685.33 84.47 688.36 84.47C690.86 84.47 692.8 82.99 694.63 80.71L694.63 68.85ZM732.02 90.46C727.23 90.46 723.13 89.37 719.65 87.72L720.79 80.82C724.09 82.76 728.2 84.3 732.13 84.3C735.61 84.3 738 82.65 738 79.51C738 76.6 736.63 75.41 730.93 72.96C723.3 69.82 720.22 67.31 720.22 61.22C720.22 54.26 725.58 50.21 732.93 50.21C737.38 50.21 740.45 51.13 743.3 52.61L742.16 59.45C739.31 57.57 735.95 56.37 732.87 56.37C729.11 56.37 727.46 58.19 727.46 60.59C727.46 63.1 728.71 64.29 734.18 66.57C742.28 69.88 745.24 72.67 745.24 78.77C745.24 86.47 739.6 90.46 732.02 90.46ZM774.03 77.57L756.36 77.57C756.7 82.93 759.55 85.27 763.77 85.27C767.3 85.27 770.21 83.96 773.23 81.85L774.03 87.21C771.06 89.26 767.47 90.57 763.02 90.57C755.33 90.57 749.57 86.18 749.57 76.26C749.57 67.31 754.93 61.9 762.11 61.9C770.38 61.9 774.08 68.11 774.08 75.92C774.08 76.49 774.03 77.17 774.03 77.57ZM761.94 66.63C759.21 66.63 756.98 68.8 756.47 73.3L767.41 73.3C766.96 69.02 765.25 66.63 761.94 66.63ZM786.45 74.21L786.45 90L779.61 90L779.61 62.47L785.43 62.47L786.28 68C788.11 64.81 790.84 62.13 795.12 61.9L796.2 68.68C791.92 68.97 788.39 71.25 786.45 74.21ZM814.32 90.11L807.66 90.11L798.02 62.98L805.2 62.07L811.36 81.62L817.29 62.47L824.07 62.47L814.32 90.11ZM850.58 77.57L832.91 77.57C833.25 82.93 836.1 85.27 840.32 85.27C843.85 85.27 846.76 83.96 849.78 81.85L850.58 87.21C847.61 89.26 844.02 90.57 839.58 90.57C831.88 90.57 826.12 86.18 826.12 76.26C826.12 67.31 831.48 61.9 838.66 61.9C846.93 61.9 850.63 68.11 850.63 75.92C850.63 76.49 850.58 77.17 850.58 77.57ZM838.49 66.63C835.76 66.63 833.53 68.8 833.02 73.3L843.97 73.3C843.51 69.02 841.8 66.63 838.49 66.63ZM863 74.21L863 90L856.16 90L856.16 62.47L861.98 62.47L862.83 68C864.66 64.81 867.39 62.13 871.67 61.9L872.75 68.68C868.47 68.97 864.94 71.25 863 74.21Z" />
	<g id="Folder 1">
		<path id="Layer" class="shp2" d="M222.1 50.69L216.72 45.31L227.87 34.17C229.35 32.69 231.77 32.69 233.25 34.17L233.25 34.17C234.73 35.65 234.73 38.07 233.25 39.55L222.1 50.69L222.1 50.69Z" />
		<path id="Layer" fill-rule="evenodd" class="shp3" d="M221.36 51.43L215.97 46.05C215.56 45.63 215.56 44.96 215.97 44.56L227.12 33.42C229.01 31.53 232.09 31.53 233.98 33.42C235.88 35.31 235.88 38.39 233.98 40.28L222.84 51.43C222.42 51.84 221.77 51.84 221.36 51.43ZM222.1 49.21L232.5 38.82C233.57 37.75 233.57 36 232.5 34.92C231.43 33.85 229.68 33.85 228.6 34.92L218.2 45.31L222.1 49.21Z" />
		<path id="Layer" class="shp2" d="M236.7 65.29L231.32 59.91L242.47 48.77C243.95 47.29 246.37 47.29 247.85 48.77L247.85 48.77C249.33 50.25 249.33 52.67 247.85 54.15L236.7 65.29L236.7 65.29Z" />
		<path id="Layer" fill-rule="evenodd" class="shp3" d="M235.95 66.03L230.57 60.64C230.16 60.23 230.16 59.56 230.57 59.16L241.72 48.02C243.61 46.12 246.69 46.12 248.58 48.02C250.47 49.91 250.47 52.99 248.58 54.88L237.44 66.03C237.04 66.44 236.37 66.44 235.95 66.03ZM236.7 63.81L247.1 53.42C248.17 52.35 248.17 50.6 247.1 49.52C246.03 48.43 244.28 48.45 243.2 49.52L232.8 59.91L236.7 63.81Z" />
		<path id="Layer" class="shp3" d="M209.8 46.07L213.64 42.23L239.77 68.36L235.93 72.2L209.8 46.07Z" />
		<path id="Layer" fill-rule="evenodd" class="shp3" d="M235.16 72.97L209.03 46.84C208.6 46.41 208.6 45.73 209.03 45.3L212.87 41.46C213.3 41.03 213.98 41.03 214.41 41.46L240.54 67.59C240.97 68.02 240.97 68.7 240.54 69.13L236.7 72.97C236.27 73.4 235.59 73.4 235.16 72.97ZM211.34 46.08L235.94 70.67L238.25 68.37L213.65 43.77L211.34 46.08Z" />
		<path id="Layer" class="shp4" d="M212.58 84.21L197.79 69.42C195.52 67.14 195.52 63.43 197.79 61.15L211.34 47.61L234.39 70.66L220.85 84.21C218.57 86.5 214.86 86.5 212.58 84.21Z" />
		<path id="Layer" fill-rule="evenodd" class="shp3" d="M211.82 84.97L197.03 70.18C194.32 67.47 194.32 63.08 197.03 60.37L210.58 46.83C211.01 46.4 211.69 46.4 212.12 46.83L235.16 69.89C235.59 70.32 235.59 71.01 235.16 71.44L221.63 84.97C218.92 87.68 214.51 87.68 211.82 84.97ZM211.34 49.15L198.57 61.92C196.71 63.78 196.71 66.79 198.57 68.65L213.36 83.44C215.23 85.31 218.24 85.31 220.1 83.44L232.87 70.67L211.34 49.15Z" />
		<path id="Layer" class="shp3" d="M198.27 79.12L202.89 74.51L207.51 79.12L202.89 83.74L198.27 79.12Z" />
		<path id="Layer" fill-rule="evenodd" class="shp3" d="M202.11 84.51L197.49 79.89C197.06 79.46 197.06 78.78 197.49 78.35L202.11 73.73C202.54 73.3 203.22 73.3 203.65 73.73L208.27 78.35C208.7 78.78 208.7 79.46 208.27 79.89L203.65 84.51C203.22 84.92 202.54 84.92 202.11 84.51ZM199.81 79.13L202.89 82.2L205.96 79.13L202.89 76.06L199.81 79.13Z" />
		<path id="Layer" class="shp3" d="M209.8 102.95L199.81 92.96C196.42 89.57 196.42 84.06 199.81 80.67C200.24 80.24 200.93 80.24 201.36 80.67C201.79 81.1 201.79 81.79 201.36 82.22C198.81 84.76 198.81 88.9 201.36 91.44L211.36 101.43C211.79 101.86 211.79 102.55 211.36 102.98C210.93 103.41 210.23 103.38 209.8 102.95Z" />
	</g>
</svg>