<svg version="1.2" baseProfile="tiny-ps" xmlns="http://www.w3.org/2000/svg" viewBox="0 0 1074 227" width="161" height="34">
	<title>powercord_server-wordmark</title>
	<style>
		tspan { white-space:pre }
		.shp0 { fill: #ffffff } 
		.shp1 { fill: #8e9297 } 
		.shp2 { fill: #99aab5 } 
		.shp3 { fill: #23272a } 
		.shp4 { fill: #7289da } 
	</style>
	<path id="POWERCORD " fill-rule="evenodd" class="shp0" d="M121.38 103.32L161.63 103.32C186.23 103.32 198.46 121.09 198.46 138.87C198.46 156.79 186.09 174.56 161.77 174.56L146.84 174.56L146.84 204L121.38 204L121.38 103.32ZM161.63 151.95C176.99 152.09 176.99 126.92 161.63 127.06L146.84 127.06L146.84 151.95L161.63 151.95ZM206.85 136.45C206.85 113.27 227.61 101.89 248.52 101.89C269.42 101.89 290.33 113.41 290.33 136.45L290.33 170.87C290.33 193.9 269.56 205.42 248.66 205.42C227.76 205.42 206.85 193.9 206.85 170.87L206.85 136.45ZM232.31 170.87C232.31 178.26 240.55 181.82 248.66 181.82C256.77 181.82 264.87 178.12 264.87 170.87L264.87 136.45C264.87 128.63 256.48 125.07 248.23 125.07C240.27 125.07 232.31 129.06 232.31 136.45L232.31 170.87ZM397.55 103.32L423.86 103.32L394.85 204L371.25 204L362.29 176.13L358.73 153.09L358.3 153.09L354.46 175.98L346.5 204L322.89 204L293.74 103.32L320.19 103.32L332.14 151.52L334.7 172.86L335.41 172.86L337.83 151.67L349.06 116.4L368.4 116.4L378.78 151.81L382.05 172.86L382.48 172.86L385.32 151.81L397.55 103.32ZM457.57 142.85L498.38 142.85L498.38 164.89L457.57 164.89L457.57 179.97L501.94 179.97L501.94 204L431.83 204L431.83 103.32L501.94 103.32L501.94 127.21L457.57 127.21L457.57 142.85ZM545.74 172L541.19 172L541.19 204L515.45 204L515.45 103.32L555.69 103.32C576.45 103.32 592.52 112.84 593.09 136.45C593.09 155.08 585.56 165.6 573.33 169.44L600.77 204L569.06 204L545.74 172ZM556.12 150.1C572.19 150.1 572.19 127.06 556.12 127.06L541.19 127.06L541.19 150.1L556.12 150.1ZM679.98 182.81C671.59 199.16 656.38 205.42 643.72 205.42C623.95 205.42 604.04 193.9 604.04 171.01L604.04 136.31C604.04 113.55 623.95 101.89 644.15 101.89C656.52 101.89 671.45 107.15 679.56 125.07L658.79 133.46C651.97 120.95 629.5 123.79 629.5 136.31L629.5 171.01C629.5 183.1 652.25 186.51 657.8 172.57L679.98 182.81ZM686.81 136.45C686.81 113.27 707.57 101.89 728.48 101.89C749.38 101.89 770.29 113.41 770.29 136.45L770.29 170.87C770.29 193.9 749.52 205.42 728.62 205.42C707.71 205.42 686.81 193.9 686.81 170.87L686.81 136.45ZM712.27 170.87C712.27 178.26 720.51 181.82 728.62 181.82C736.73 181.82 744.83 178.12 744.83 170.87L744.83 136.45C744.83 128.63 736.44 125.07 728.19 125.07C720.23 125.07 712.27 129.06 712.27 136.45L712.27 170.87ZM814.09 172L809.54 172L809.54 204L783.8 204L783.8 103.32L824.04 103.32C844.81 103.32 860.87 112.84 861.44 136.45C861.44 155.08 853.91 165.6 841.68 169.44L869.12 204L837.41 204L814.09 172ZM824.47 150.1C840.54 150.1 840.54 127.06 824.47 127.06L809.54 127.06L809.54 150.1L824.47 150.1ZM875.68 101.29L896.59 101.29C911.65 101.29 917.9 101.43 919.01 101.64C919.92 101.64 921.45 101.92 922.42 102.06C923.46 102.19 924.85 102.47 925.68 102.75C926.58 103.03 928.11 103.31 929.15 103.58C930.13 103.86 931.51 104.42 932.42 104.76C933.25 105.04 934.71 105.74 935.54 106.15C936.51 106.57 937.83 107.26 938.39 107.61C938.94 108.03 940.33 108.86 941.37 109.56C942.35 110.25 943.8 111.57 944.5 112.4C945.33 113.24 946.44 114.55 947.07 115.25C947.48 115.94 948.32 116.99 948.6 117.54C949.01 118.1 949.64 119.21 949.92 119.97C950.19 120.67 950.75 121.92 951.03 122.68C951.3 123.37 951.72 124.62 952 125.39C952.28 126.22 952.62 127.61 952.76 128.51C952.9 129.35 953.18 130.73 953.32 131.5C953.46 132.61 953.46 137.61 953.46 153.37C953.46 169.76 953.46 174 953.32 175.11C953.18 175.87 953.04 177.26 952.76 178.09C952.62 178.99 952.28 180.24 952 180.94C951.72 181.7 951.44 182.81 951.17 183.23C950.89 183.65 950.75 184.69 950.47 185.11C950.19 185.52 949.78 186.49 949.29 187.19C948.87 187.95 948.18 188.92 947.9 189.34C947.62 189.76 947.07 190.52 946.65 191.08C946.17 191.63 945.19 192.74 944.64 193.3C944.08 194.06 942.9 195.04 942.21 195.59C941.51 196.15 940.19 197.05 939.5 197.47C938.8 197.88 937.21 198.85 935.96 199.48C934.85 200.04 933.11 200.73 932.42 201.01C931.51 201.28 929.99 201.84 929.01 202.12C927.97 202.47 926.17 202.88 924.99 203.16C923.88 203.44 922.14 203.58 921.17 203.72C920.2 203.85 918.32 204.13 917.21 204.13C915.89 204.13 906.1 204.27 875.68 204.27L875.68 179.83L895.68 179.83C912.77 179.83 916.03 179.83 917.49 179.55C918.32 179.55 919.57 179.27 920.2 178.99C920.75 178.72 921.72 178.58 922.14 178.23C922.56 177.95 923.46 177.54 923.74 177.26C924.15 176.98 924.57 176.43 924.99 176.01C925.26 175.52 926.03 174.83 926.31 174.27C926.58 173.72 927 172.75 927.42 171.15L927.42 134.76C927.42 134.21 927.14 133.16 926.86 132.61C926.58 132.05 926.31 131.22 926.03 130.73C925.68 130.32 925.13 129.62 924.71 129.21C924.29 128.79 923.46 128.03 923.04 127.75C922.56 127.47 921.72 127.05 921.17 126.78C920.61 126.5 919.43 126.22 918.88 126.22C918.32 126.08 917.07 125.8 916.03 125.8C915.06 125.8 911.24 125.67 900.96 125.67L900.96 167.61C900.96 167.61 899.71 166.57 898.25 165.32C896.86 164.07 892.84 160.45 889.57 157.47C886.31 154.34 881.93 150.39 875.68 144.69L875.68 101.29Z" />
	<path id="Official Powercord Server " fill-rule="evenodd" class="shp1" d="M282.03 78.74C270.86 78.74 263.62 70.53 263.62 58.39C263.62 46.19 270.92 37.93 282.15 37.93C293.43 37.93 300.56 46.14 300.56 58.28C300.56 70.42 293.32 78.74 282.03 78.74ZM282.09 44.2C275.36 44.2 271.32 49.73 271.32 58.34C271.32 66.94 275.36 72.47 282.09 72.47C288.87 72.47 292.92 66.94 292.92 58.34C292.92 49.73 288.82 44.2 282.09 44.2ZM318.63 42.95C316.29 42.95 315.04 43.97 315.04 46.42L315.04 50.47L320.28 50.47L321.13 56.06L315.04 56.06L315.04 78L308.25 78L308.25 56.06L304.26 56.06L304.26 50.47L308.25 50.47L308.25 45.74C308.25 39.64 312.13 37.36 317.77 37.36C318.97 37.36 319.88 37.47 320.56 37.59L321.48 43.17C320.79 43.06 319.77 42.95 318.63 42.95ZM337.55 42.95C335.21 42.95 333.96 43.97 333.96 46.42L333.96 50.47L339.2 50.47L340.06 56.06L333.96 56.06L333.96 78L327.18 78L327.18 56.06L323.19 56.06L323.19 50.47L327.18 50.47L327.18 45.74C327.18 39.64 331.05 37.36 336.7 37.36C337.89 37.36 338.81 37.47 339.49 37.59L340.4 43.17C339.72 43.06 338.69 42.95 337.55 42.95ZM347.93 45.85C345.64 45.85 343.82 44.26 343.82 41.98C343.82 39.64 345.64 37.99 347.93 37.99C350.15 37.99 351.97 39.64 351.97 41.98C351.97 44.26 350.15 45.85 347.93 45.85ZM344.45 78L344.45 50.47L351.29 50.47L351.29 78L344.45 78ZM370.16 78.51C362.52 78.51 357.1 73.38 357.1 64.38C357.1 54.8 363.09 49.9 370.38 49.9C374.09 49.9 376.82 50.87 378.99 52.24L378.02 58.39C375.68 56.63 373.46 55.83 370.78 55.83C366.85 55.83 364 58.73 364 64.21C364 69.91 367.08 72.64 371.24 72.64C373.63 72.64 375.8 72.02 378.36 70.02L379.27 75.83C376.48 77.77 373.63 78.51 370.16 78.51ZM388.51 45.85C386.23 45.85 384.41 44.26 384.41 41.98C384.41 39.64 386.23 37.99 388.51 37.99C390.73 37.99 392.56 39.64 392.56 41.98C392.56 44.26 390.73 45.85 388.51 45.85ZM385.03 78L385.03 50.47L391.87 50.47L391.87 78L385.03 78ZM415.13 78L414.56 74.41C412.34 76.75 409.49 78.57 405.38 78.57C400.71 78.57 397.57 75.72 397.57 70.93C397.57 64.26 403.04 61.36 414.16 60.27L414.16 59.47C414.16 56.51 412.45 55.37 409.43 55.37C406.24 55.37 403.22 56.28 400.25 57.59L399.4 52.12C402.59 50.87 405.95 49.9 410.34 49.9C417.47 49.9 421 52.52 421 59.13L421 78L415.13 78ZM414.16 64.26C406.24 65.23 404.36 67.57 404.36 70.19C404.36 72.19 405.61 73.38 407.72 73.38C410.06 73.38 412.28 72.3 414.16 70.42L414.16 64.26ZM428.07 78L428.07 37.93L434.91 36.85L434.91 78L428.07 78ZM465.92 63.52L462.55 63.52L462.55 78L455.03 78L455.03 38.67L466.54 38.67C475.55 38.67 480.96 42.83 480.96 50.75C480.96 59.25 474.92 63.52 465.92 63.52ZM466.14 44.71L462.55 44.71L462.55 57.42L465.86 57.42C470.7 57.42 473.55 55.43 473.55 50.92C473.55 46.82 470.99 44.71 466.14 44.71ZM495.67 78.57C488.2 78.57 482.79 73.21 482.79 64.26C482.79 55.31 488.26 49.9 495.73 49.9C503.25 49.9 508.72 55.31 508.72 64.26C508.72 73.21 503.19 78.57 495.67 78.57ZM495.67 55.54C491.62 55.54 489.46 59.13 489.46 64.26C489.46 69.28 491.68 72.98 495.67 72.98C499.89 72.98 502.05 69.39 502.05 64.26C502.05 59.19 499.77 55.54 495.67 55.54ZM541.84 78L535.74 78L530.55 59.76L525.42 78L519.32 78L511.12 50.98L517.96 50.07L522.86 68.42L527.87 50.47L533.92 50.47L538.88 68.42L543.66 50.47L550.1 50.47L541.84 78ZM576.89 65.57L559.22 65.57C559.57 70.93 562.42 73.27 566.63 73.27C570.17 73.27 573.08 71.96 576.1 69.85L576.89 75.21C573.93 77.26 570.34 78.57 565.89 78.57C558.2 78.57 552.44 74.18 552.44 64.26C552.44 55.31 557.8 49.9 564.98 49.9C573.25 49.9 576.95 56.11 576.95 63.92C576.95 64.49 576.89 65.17 576.89 65.57ZM564.81 54.63C562.07 54.63 559.85 56.8 559.34 61.3L570.28 61.3C569.83 57.02 568.12 54.63 564.81 54.63ZM589.32 62.21L589.32 78L582.48 78L582.48 50.47L588.29 50.47L589.15 56C590.97 52.81 593.71 50.13 597.98 49.9L599.07 56.68C594.79 56.97 591.26 59.25 589.32 62.21ZM614.29 78.51C606.65 78.51 601.23 73.38 601.23 64.38C601.23 54.8 607.22 49.9 614.51 49.9C618.22 49.9 620.96 50.87 623.12 52.24L622.15 58.39C619.82 56.63 617.59 55.83 614.91 55.83C610.98 55.83 608.13 58.73 608.13 64.21C608.13 69.91 611.21 72.64 615.37 72.64C617.76 72.64 619.93 72.02 622.49 70.02L623.41 75.83C620.61 77.77 617.76 78.51 614.29 78.51ZM639.82 78.57C632.36 78.57 626.94 73.21 626.94 64.26C626.94 55.31 632.41 49.9 639.88 49.9C647.4 49.9 652.88 55.31 652.88 64.26C652.88 73.21 647.35 78.57 639.82 78.57ZM639.82 55.54C635.78 55.54 633.61 59.13 633.61 64.26C633.61 69.28 635.83 72.98 639.82 72.98C644.04 72.98 646.21 69.39 646.21 64.26C646.21 59.19 643.93 55.54 639.82 55.54ZM665.24 62.21L665.24 78L658.4 78L658.4 50.47L664.22 50.47L665.07 56C666.9 52.81 669.63 50.13 673.91 49.9L674.99 56.68C670.72 56.97 667.18 59.25 665.24 62.21ZM696.59 78L696.02 74.18C694.09 76.52 691.41 78.57 687.59 78.57C681.83 78.57 677.21 74.3 677.21 65C677.21 54.74 682.86 50.18 689.24 50.18C691.86 50.18 693.97 50.64 695.63 51.21L695.63 37.93L702.47 36.85L702.47 78L696.59 78ZM695.63 56.85C693.91 56.06 692.6 55.66 690.27 55.66C686.68 55.66 684.05 58.56 684.05 64.6C684.05 69.96 686.33 72.47 689.36 72.47C691.86 72.47 693.8 70.99 695.63 68.71L695.63 56.85ZM733.02 78.46C728.23 78.46 724.13 77.37 720.65 75.72L721.79 68.82C725.09 70.76 729.2 72.3 733.13 72.3C736.61 72.3 739 70.65 739 67.51C739 64.6 737.63 63.41 731.93 60.96C724.3 57.82 721.22 55.31 721.22 49.22C721.22 42.26 726.58 38.21 733.93 38.21C738.38 38.21 741.45 39.13 744.3 40.61L743.16 47.45C740.31 45.57 736.95 44.37 733.87 44.37C730.11 44.37 728.46 46.19 728.46 48.59C728.46 51.1 729.71 52.29 735.18 54.57C743.28 57.88 746.24 60.67 746.24 66.77C746.24 74.47 740.6 78.46 733.02 78.46ZM775.03 65.57L757.36 65.57C757.7 70.93 760.55 73.27 764.77 73.27C768.3 73.27 771.21 71.96 774.23 69.85L775.03 75.21C772.06 77.26 768.47 78.57 764.02 78.57C756.33 78.57 750.57 74.18 750.57 64.26C750.57 55.31 755.93 49.9 763.11 49.9C771.38 49.9 775.08 56.11 775.08 63.92C775.08 64.49 775.03 65.17 775.03 65.57ZM762.94 54.63C760.21 54.63 757.98 56.8 757.47 61.3L768.41 61.3C767.96 57.02 766.25 54.63 762.94 54.63ZM787.45 62.21L787.45 78L780.61 78L780.61 50.47L786.43 50.47L787.28 56C789.11 52.81 791.84 50.13 796.12 49.9L797.2 56.68C792.92 56.97 789.39 59.25 787.45 62.21ZM815.32 78.11L808.66 78.11L799.02 50.98L806.2 50.07L812.36 69.62L818.29 50.47L825.07 50.47L815.32 78.11ZM851.58 65.57L833.91 65.57C834.25 70.93 837.1 73.27 841.32 73.27C844.85 73.27 847.76 71.96 850.78 69.85L851.58 75.21C848.61 77.26 845.02 78.57 840.58 78.57C832.88 78.57 827.12 74.18 827.12 64.26C827.12 55.31 832.48 49.9 839.66 49.9C847.93 49.9 851.63 56.11 851.63 63.92C851.63 64.49 851.58 65.17 851.58 65.57ZM839.49 54.63C836.76 54.63 834.53 56.8 834.02 61.3L844.97 61.3C844.51 57.02 842.8 54.63 839.49 54.63ZM864 62.21L864 78L857.16 78L857.16 50.47L862.98 50.47L863.83 56C865.66 52.81 868.39 50.13 872.67 49.9L873.75 56.68C869.47 56.97 865.94 59.25 864 62.21Z" />
	<g id="Folder 1">
		<path id="Layer" class="shp2" d="M223.1 38.69L217.72 33.31L228.87 22.17C230.35 20.69 232.77 20.69 234.25 22.17L234.25 22.17C235.73 23.65 235.73 26.07 234.25 27.55L223.1 38.69L223.1 38.69Z" />
		<path id="Layer" fill-rule="evenodd" class="shp3" d="M222.36 39.43L216.97 34.05C216.56 33.63 216.56 32.96 216.97 32.56L228.12 21.42C230.01 19.53 233.09 19.53 234.98 21.42C236.88 23.31 236.88 26.39 234.98 28.28L223.84 39.43C223.42 39.84 222.77 39.84 222.36 39.43ZM223.1 37.21L233.5 26.82C234.57 25.75 234.57 24 233.5 22.92C232.43 21.85 230.68 21.85 229.6 22.92L219.2 33.31L223.1 37.21Z" />
		<path id="Layer" class="shp2" d="M237.7 53.29L232.32 47.91L243.47 36.77C244.95 35.29 247.37 35.29 248.85 36.77L248.85 36.77C250.33 38.25 250.33 40.67 248.85 42.15L237.7 53.29L237.7 53.29Z" />
		<path id="Layer" fill-rule="evenodd" class="shp3" d="M236.95 54.03L231.57 48.64C231.16 48.23 231.16 47.56 231.57 47.16L242.72 36.02C244.61 34.12 247.69 34.12 249.58 36.02C251.47 37.91 251.47 40.99 249.58 42.88L238.44 54.03C238.04 54.44 237.37 54.44 236.95 54.03ZM237.7 51.81L248.1 41.42C249.17 40.35 249.17 38.6 248.1 37.52C247.03 36.43 245.28 36.45 244.2 37.52L233.8 47.91L237.7 51.81Z" />
		<path id="Layer" class="shp3" d="M210.8 34.07L214.64 30.23L240.77 56.36L236.93 60.2L210.8 34.07Z" />
		<path id="Layer" fill-rule="evenodd" class="shp3" d="M236.16 60.97L210.03 34.84C209.6 34.41 209.6 33.73 210.03 33.3L213.87 29.46C214.3 29.03 214.98 29.03 215.41 29.46L241.54 55.59C241.97 56.02 241.97 56.7 241.54 57.13L237.7 60.97C237.27 61.4 236.59 61.4 236.16 60.97ZM212.34 34.08L236.94 58.67L239.25 56.37L214.65 31.77L212.34 34.08Z" />
		<path id="Layer" class="shp4" d="M213.58 72.21L198.79 57.42C196.52 55.14 196.52 51.43 198.79 49.15L212.34 35.61L235.39 58.66L221.85 72.21C219.57 74.5 215.86 74.5 213.58 72.21Z" />
		<path id="Layer" fill-rule="evenodd" class="shp3" d="M212.82 72.97L198.03 58.18C195.32 55.47 195.32 51.08 198.03 48.37L211.58 34.83C212.01 34.4 212.69 34.4 213.12 34.83L236.16 57.89C236.59 58.32 236.59 59.01 236.16 59.44L222.63 72.97C219.92 75.68 215.51 75.68 212.82 72.97ZM212.34 37.15L199.57 49.92C197.71 51.78 197.71 54.79 199.57 56.65L214.36 71.44C216.23 73.31 219.24 73.31 221.1 71.44L233.87 58.67L212.34 37.15Z" />
		<path id="Layer" class="shp3" d="M199.27 67.12L203.89 62.51L208.51 67.12L203.89 71.74L199.27 67.12Z" />
		<path id="Layer" fill-rule="evenodd" class="shp3" d="M203.11 72.51L198.49 67.89C198.06 67.46 198.06 66.78 198.49 66.35L203.11 61.73C203.54 61.3 204.22 61.3 204.65 61.73L209.27 66.35C209.7 66.78 209.7 67.46 209.27 67.89L204.65 72.51C204.22 72.92 203.54 72.92 203.11 72.51ZM200.81 67.13L203.89 70.2L206.96 67.13L203.89 64.06L200.81 67.13Z" />
		<path id="Layer" class="shp3" d="M210.8 90.95L200.81 80.96C197.42 77.57 197.42 72.06 200.81 68.67C201.24 68.24 201.93 68.24 202.36 68.67C202.79 69.1 202.79 69.79 202.36 70.22C199.81 72.76 199.81 76.9 202.36 79.44L212.36 89.43C212.79 89.86 212.79 90.55 212.36 90.98C211.93 91.41 211.23 91.38 210.8 90.95Z" />
	</g>
</svg>