<svg version="1.2" baseProfile="tiny-ps" xmlns="http://www.w3.org/2000/svg" viewBox="0 0 1074 227" width="161" height="34">
	<title>betterdiscord_server-wordmark-svg</title>
	<style>
		tspan { white-space:pre }
		.shp0 { fill: #99aab5 } 
		.shp1 { fill: #23272a } 
		.shp2 { fill: #7289da } 
	</style>
	<path id="POWERCORD " fill="#ffffff" aria-label="POWERCORD"  d="M120.38 216L145.84 216L145.84 186.56L160.77 186.56C185.09 186.56 197.46 168.79 197.46 150.87C197.46 133.09 185.23 115.32 160.63 115.32L120.38 115.32ZM145.84 163.95L145.84 139.06L160.63 139.06C175.99 138.92 175.99 164.09 160.63 163.95ZM205.85 182.87C205.85 205.9 226.76 217.42 247.66 217.42C268.56 217.42 289.33 205.9 289.33 182.87L289.33 148.45C289.33 125.41 268.42 113.89 247.52 113.89C226.61 113.89 205.85 125.27 205.85 148.45ZM231.31 148.45C231.31 141.06 239.27 137.07 247.23 137.07C255.48 137.07 263.87 140.63 263.87 148.45L263.87 182.87C263.87 190.12 255.77 193.82 247.66 193.82C239.55 193.82 231.31 190.26 231.31 182.87ZM384.32 163.81L381.48 184.86L381.05 184.86L377.78 163.81L367.4 128.4L348.06 128.4L336.83 163.67L334.41 184.86L333.7 184.86L331.14 163.52L319.19 115.32L292.74 115.32L321.89 216L345.5 216L353.46 187.98L357.3 165.09L357.73 165.09L361.29 188.13L370.25 216L393.85 216L422.86 115.32L396.55 115.32ZM456.57 139.21L500.94 139.21L500.94 115.32L430.83 115.32L430.83 216L500.94 216L500.94 191.97L456.57 191.97L456.57 176.89L497.38 176.89L497.38 154.85L456.57 154.85ZM568.06 216L599.77 216L572.33 181.44C584.56 177.6 592.09 167.08 592.09 148.45C591.52 124.84 575.45 115.32 554.69 115.32L514.45 115.32L514.45 216L540.19 216L540.19 184L544.74 184ZM540.19 162.1L540.19 139.06L555.12 139.06C571.19 139.06 571.19 162.1 555.12 162.1ZM656.8 184.57C651.25 198.51 628.5 195.1 628.5 183.01L628.5 148.31C628.5 135.79 650.97 132.95 657.79 145.46L678.56 137.07C670.45 119.15 655.52 113.89 643.15 113.89C622.95 113.89 603.04 125.55 603.04 148.31L603.04 183.01C603.04 205.9 622.95 217.42 642.72 217.42C655.38 217.42 670.59 211.16 678.98 194.81ZM685.81 182.87C685.81 205.9 706.71 217.42 727.62 217.42C748.52 217.42 769.29 205.9 769.29 182.87L769.29 148.45C769.29 125.41 748.38 113.89 727.48 113.89C706.57 113.89 685.81 125.27 685.81 148.45ZM711.27 148.45C711.27 141.06 719.23 137.07 727.19 137.07C735.44 137.07 743.83 140.63 743.83 148.45L743.83 182.87C743.83 190.12 735.73 193.82 727.62 193.82C719.51 193.82 711.27 190.26 711.27 182.87ZM836.41 216L868.12 216L840.68 181.44C852.91 177.6 860.44 167.08 860.44 148.45C859.87 124.84 843.81 115.32 823.04 115.32L782.8 115.32L782.8 216L808.54 216L808.54 184L813.09 184ZM808.54 162.1L808.54 139.06L823.47 139.06C839.54 139.06 839.54 162.1 823.47 162.1ZM874.68 135.1L874.68 135.1L874.68 156.69C880.93 162.39 885.31 166.34 888.57 169.47C891.84 172.45 895.86 176.07 897.25 177.32C898.71 178.57 899.96 179.61 899.96 179.61L899.96 158.57L899.96 137.67C910.24 137.67 914.06 137.8 915.03 137.8C916.07 137.8 917.32 138.08 917.88 138.22C918.43 138.22 919.61 138.5 920.17 138.78C920.72 139.05 921.56 139.47 922.04 139.75C922.46 140.03 923.29 140.79 923.71 141.21C924.13 141.62 924.68 142.32 925.03 142.73C925.31 143.22 925.58 144.05 925.86 144.61C926.14 145.16 926.42 146.21 926.42 146.76L926.42 165.37L926.42 183.15C926 184.75 925.58 185.72 925.31 186.27C925.03 186.83 924.26 187.52 923.99 188.01C923.57 188.43 923.15 188.98 922.74 189.26C922.46 189.54 921.56 189.95 921.14 190.23C920.72 190.58 919.75 190.72 919.2 190.99C918.57 191.27 917.32 191.55 916.49 191.55C915.03 191.83 911.77 191.83 894.68 191.83L874.68 191.83L874.68 216.27C905.1 216.27 914.89 216.13 916.21 216.13C917.32 216.13 919.2 215.85 920.17 215.72C921.14 215.58 922.88 215.44 923.99 215.16C925.17 214.88 926.97 214.47 928.01 214.12C928.99 213.84 930.51 213.28 931.42 213.01C932.11 212.73 933.85 212.04 934.96 211.48C936.21 210.85 937.8 209.88 938.5 209.47C939.19 209.05 940.51 208.15 941.21 207.59C941.9 207.04 943.08 206.06 943.64 205.3C944.19 204.74 945.17 203.63 945.65 203.08C946.07 202.52 946.62 201.76 946.9 201.34C947.18 200.92 947.87 199.95 948.29 199.19C948.78 198.49 949.19 197.52 949.47 197.11C949.75 196.69 949.89 195.65 950.17 195.23C950.44 194.81 950.72 193.7 951 192.94C951.28 192.24 951.62 190.99 951.76 190.09C952.04 189.26 952.18 187.87 952.32 187.11C952.46 186 952.46 181.76 952.46 165.37C952.46 149.61 952.46 144.61 952.32 143.5C952.18 142.73 951.9 141.35 951.76 140.51C951.62 139.61 951.28 138.22 951 137.39C950.72 136.62 950.3 135.37 950.03 134.68C949.75 133.92 949.19 132.67 948.92 131.97C948.64 131.21 948.01 130.1 947.6 129.54C947.32 128.99 946.48 127.94 946.07 127.25C945.44 126.55 944.33 125.24 943.5 124.4C942.8 123.57 941.35 122.25 940.37 121.56C939.33 120.86 937.94 120.03 937.39 119.61C936.83 119.26 935.51 118.57 934.54 118.15C933.71 117.74 932.25 117.04 931.42 116.76C930.51 116.42 929.13 115.86 928.15 115.58C927.11 115.31 925.58 115.03 924.68 114.75C923.85 114.47 922.46 114.19 921.42 114.06C920.45 113.92 918.92 113.64 918.01 113.64C916.9 113.43 910.65 113.29 895.59 113.29L874.68 113.29Z" />
	<path id="Official PowerCord Server " fill="#8e9297" aria-label="Official PowerCord Server"  d="M300.2 69.44C300.2 57.39 293.13 49.25 281.94 49.25C270.8 49.25 263.56 57.45 263.56 69.55C263.56 81.59 270.74 89.74 281.83 89.74C293.02 89.74 300.2 81.48 300.2 69.44ZM292.63 69.49C292.63 78.03 288.61 83.52 281.88 83.52C275.21 83.52 271.19 78.03 271.19 69.49C271.19 60.95 275.21 55.47 281.88 55.47C288.55 55.47 292.63 60.95 292.63 69.49ZM320.95 54.45L320.05 48.91C319.37 48.8 318.47 48.68 317.28 48.68C311.68 48.68 307.84 50.95 307.84 57L307.84 61.69L303.88 61.69L303.88 67.23L307.84 67.23L307.84 89L314.56 89L314.56 67.23L320.61 67.23L319.77 61.69L314.56 61.69L314.56 57.67C314.56 55.24 315.81 54.23 318.13 54.23C319.26 54.23 320.28 54.34 320.95 54.45ZM339.73 54.45L338.82 48.91C338.14 48.8 337.24 48.68 336.05 48.68C330.45 48.68 326.61 50.95 326.61 57L326.61 61.69L322.65 61.69L322.65 67.23L326.61 67.23L326.61 89L333.34 89L333.34 67.23L339.39 67.23L338.54 61.69L333.34 61.69L333.34 57.67C333.34 55.24 334.58 54.23 336.9 54.23C338.03 54.23 339.05 54.34 339.73 54.45ZM351.21 53.26C351.21 50.95 349.4 49.31 347.19 49.31C344.93 49.31 343.12 50.95 343.12 53.26C343.12 55.53 344.93 57.11 347.19 57.11C349.4 57.11 351.21 55.53 351.21 53.26ZM350.53 89L350.53 61.69L343.74 61.69L343.74 89ZM378.29 86.85L377.39 81.08C374.84 83.06 372.69 83.68 370.32 83.68C366.19 83.68 363.14 80.97 363.14 75.32C363.14 69.89 365.96 67 369.86 67C372.52 67 374.73 67.8 377.05 69.55L378.01 63.44C375.86 62.08 373.14 61.12 369.47 61.12C362.23 61.12 356.29 65.99 356.29 75.49C356.29 84.42 361.67 89.51 369.24 89.51C372.69 89.51 375.52 88.77 378.29 86.85ZM391.46 53.26C391.46 50.95 389.66 49.31 387.45 49.31C385.19 49.31 383.38 50.95 383.38 53.26C383.38 55.53 385.19 57.11 387.45 57.11C389.66 57.11 391.46 55.53 391.46 53.26ZM390.79 89L390.79 61.69L384 61.69L384 89ZM419.68 89L419.68 70.28C419.68 63.72 416.17 61.12 409.11 61.12C404.75 61.12 401.42 62.08 398.25 63.33L399.1 68.76C402.04 67.46 405.04 66.55 408.2 66.55C411.2 66.55 412.9 67.68 412.9 70.62L412.9 71.41C401.87 72.49 396.44 75.37 396.44 81.99C396.44 86.74 399.55 89.57 404.19 89.57C408.26 89.57 411.09 87.76 413.29 85.44L413.86 89ZM412.9 81.48C411.03 83.35 408.82 84.42 406.51 84.42C404.41 84.42 403.17 83.23 403.17 81.25C403.17 78.65 405.04 76.33 412.9 75.37ZM433.48 89L433.48 48.17L426.69 49.25L426.69 89ZM479.17 61.97C479.17 54.11 473.79 49.98 464.86 49.98L453.44 49.98L453.44 89L460.9 89L460.9 74.64L464.24 74.64C473.17 74.64 479.17 70.4 479.17 61.97ZM471.81 62.14C471.81 66.61 468.99 68.59 464.18 68.59L460.9 68.59L460.9 55.98L464.46 55.98C469.27 55.98 471.81 58.07 471.81 62.14ZM506.7 75.37C506.7 66.5 501.27 61.12 493.81 61.12C486.4 61.12 480.97 66.5 480.97 75.37C480.97 84.25 486.35 89.57 493.75 89.57C501.22 89.57 506.7 84.25 506.7 75.37ZM500.09 75.37C500.09 80.46 497.94 84.02 493.75 84.02C489.8 84.02 487.59 80.35 487.59 75.37C487.59 70.28 489.74 66.72 493.75 66.72C497.82 66.72 500.09 70.34 500.09 75.37ZM547.75 61.69L541.36 61.69L536.61 79.5L531.7 61.69L525.7 61.69L520.73 79.5L515.86 61.29L509.08 62.2L517.22 89L523.27 89L528.36 70.91L533.5 89L539.55 89ZM574.39 75.03C574.39 67.29 570.71 61.12 562.51 61.12C555.39 61.12 550.07 66.5 550.07 75.37C550.07 85.21 555.78 89.57 563.42 89.57C567.83 89.57 571.39 88.26 574.33 86.23L573.54 80.91C570.54 83.01 567.66 84.31 564.15 84.31C559.97 84.31 557.14 81.99 556.8 76.67L574.33 76.67C574.33 76.28 574.39 75.6 574.39 75.03ZM567.77 72.43L556.91 72.43C557.42 67.97 559.63 65.82 562.34 65.82C565.62 65.82 567.32 68.19 567.77 72.43ZM596.33 67.85L595.25 61.12C591.01 61.35 588.3 64.01 586.49 67.17L585.64 61.69L579.87 61.69L579.87 89L586.66 89L586.66 73.34C588.58 70.4 592.08 68.14 596.33 67.85ZM629.74 86.34L628.73 79.9C625.73 81.88 622.45 83.18 618.83 83.18C611.93 83.18 607.41 78.09 607.41 69.49C607.41 61.01 611.65 55.75 618.55 55.75C622.34 55.75 625.5 57.28 628.05 59.2L629.12 52.13C626.24 50.38 622.73 49.31 618.21 49.31C607.18 49.31 599.77 57.45 599.77 69.55C599.77 81.65 606.9 89.68 618.26 89.68C622.68 89.68 626.63 88.32 629.74 86.34ZM659.26 75.37C659.26 66.5 653.83 61.12 646.37 61.12C638.96 61.12 633.53 66.5 633.53 75.37C633.53 84.25 638.9 89.57 646.31 89.57C653.77 89.57 659.26 84.25 659.26 75.37ZM652.64 75.37C652.64 80.46 650.49 84.02 646.31 84.02C642.35 84.02 640.15 80.35 640.15 75.37C640.15 70.28 642.3 66.72 646.31 66.72C650.38 66.72 652.64 70.34 652.64 75.37ZM681.2 67.85L680.12 61.12C675.88 61.35 673.17 64.01 671.36 67.17L670.51 61.69L664.74 61.69L664.74 89L671.53 89L671.53 73.34C673.45 70.4 676.96 68.14 681.2 67.85ZM708.45 89L708.45 48.17L701.67 49.25L701.67 62.42C700.03 61.86 697.94 61.41 695.33 61.41C689 61.41 683.4 65.93 683.4 76.11C683.4 85.32 687.98 89.57 693.69 89.57C697.48 89.57 700.14 87.53 702.06 85.21L702.63 89ZM701.67 79.78C699.86 82.05 697.94 83.52 695.45 83.52C692.45 83.52 690.19 81.03 690.19 75.71C690.19 69.72 692.79 66.83 696.35 66.83C698.67 66.83 699.97 67.23 701.67 68.02ZM751.88 77.86C751.88 71.81 748.94 69.04 740.91 65.76C735.48 63.5 734.24 62.31 734.24 59.82C734.24 57.45 735.88 55.64 739.61 55.64C742.66 55.64 746 56.83 748.83 58.69L749.96 51.91C747.13 50.44 744.08 49.53 739.67 49.53C732.37 49.53 727.06 53.55 727.06 60.45C727.06 66.5 730.11 68.98 737.69 72.09C743.34 74.52 744.7 75.71 744.7 78.6C744.7 81.71 742.32 83.35 738.87 83.35C734.97 83.35 730.9 81.82 727.62 79.9L726.49 86.74C729.94 88.38 734.01 89.45 738.76 89.45C746.28 89.45 751.88 85.49 751.88 77.86ZM780.49 75.03C780.49 67.29 776.82 61.12 768.62 61.12C761.49 61.12 756.18 66.5 756.18 75.37C756.18 85.21 761.89 89.57 769.52 89.57C773.93 89.57 777.49 88.26 780.43 86.23L779.64 80.91C776.65 83.01 773.76 84.31 770.26 84.31C766.07 84.31 763.24 81.99 762.91 76.67L780.43 76.67C780.43 76.28 780.49 75.6 780.49 75.03ZM773.87 72.43L763.02 72.43C763.53 67.97 765.73 65.82 768.45 65.82C771.73 65.82 773.42 68.19 773.87 72.43ZM802.43 67.85L801.36 61.12C797.11 61.35 794.4 64.01 792.59 67.17L791.74 61.69L785.98 61.69L785.98 89L792.76 89L792.76 73.34C794.68 70.4 798.19 68.14 802.43 67.85ZM830.08 61.69L823.35 61.69L817.47 80.69L811.36 61.29L804.24 62.2L813.8 89.11L820.41 89.11ZM856.43 75.03C856.43 67.29 852.75 61.12 844.56 61.12C837.43 61.12 832.12 66.5 832.12 75.37C832.12 85.21 837.83 89.57 845.46 89.57C849.87 89.57 853.43 88.26 856.37 86.23L855.58 80.91C852.58 83.01 849.7 84.31 846.2 84.31C842.01 84.31 839.18 81.99 838.84 76.67L856.37 76.67C856.37 76.28 856.43 75.6 856.43 75.03ZM849.81 72.43L838.96 72.43C839.47 67.97 841.67 65.82 844.39 65.82C847.67 65.82 849.36 68.19 849.81 72.43ZM878.37 67.85L877.29 61.12C873.05 61.35 870.34 64.01 868.53 67.17L867.68 61.69L861.91 61.69L861.91 89L868.7 89L868.7 73.34C870.62 70.4 874.13 68.14 878.37 67.85Z" />
	<g id="Folder 1">
		<path id="Layer" class="shp0" d="M222.1 50.69L216.72 45.31L227.87 34.17C229.35 32.69 231.77 32.69 233.25 34.17L233.25 34.17C234.73 35.65 234.73 38.07 233.25 39.55L222.1 50.69L222.1 50.69Z" />
		<path id="Layer" fill-rule="evenodd" class="shp1" d="M221.36 51.43L215.97 46.05C215.56 45.63 215.56 44.96 215.97 44.56L227.12 33.42C229.01 31.53 232.09 31.53 233.98 33.42C235.88 35.31 235.88 38.39 233.98 40.28L222.84 51.43C222.42 51.84 221.77 51.84 221.36 51.43ZM222.1 49.21L232.5 38.82C233.57 37.75 233.57 36 232.5 34.92C231.43 33.85 229.68 33.85 228.6 34.92L218.2 45.31L222.1 49.21Z" />
		<path id="Layer" class="shp0" d="M236.7 65.29L231.32 59.91L242.47 48.77C243.95 47.29 246.37 47.29 247.85 48.77L247.85 48.77C249.33 50.25 249.33 52.67 247.85 54.15L236.7 65.29L236.7 65.29Z" />
		<path id="Layer" fill-rule="evenodd" class="shp1" d="M235.95 66.03L230.57 60.64C230.16 60.23 230.16 59.56 230.57 59.16L241.72 48.02C243.61 46.12 246.69 46.12 248.58 48.02C250.47 49.91 250.47 52.99 248.58 54.88L237.44 66.03C237.04 66.44 236.37 66.44 235.95 66.03ZM236.7 63.81L247.1 53.42C248.17 52.35 248.17 50.6 247.1 49.52C246.03 48.43 244.28 48.45 243.2 49.52L232.8 59.91L236.7 63.81Z" />
		<path id="Layer" class="shp1" d="M209.8 46.07L213.64 42.23L239.77 68.36L235.93 72.2L209.8 46.07Z" />
		<path id="Layer" fill-rule="evenodd" class="shp1" d="M235.16 72.97L209.03 46.84C208.6 46.41 208.6 45.73 209.03 45.3L212.87 41.46C213.3 41.03 213.98 41.03 214.41 41.46L240.54 67.59C240.97 68.02 240.97 68.7 240.54 69.13L236.7 72.97C236.27 73.4 235.59 73.4 235.16 72.97ZM211.34 46.08L235.94 70.67L238.25 68.37L213.65 43.77L211.34 46.08Z" />
		<path id="Layer" class="shp2" d="M212.58 84.21L197.79 69.42C195.52 67.14 195.52 63.43 197.79 61.15L211.34 47.61L234.39 70.66L220.85 84.21C218.57 86.5 214.86 86.5 212.58 84.21Z" />
		<path id="Layer" fill-rule="evenodd" class="shp1" d="M211.82 84.97L197.03 70.18C194.32 67.47 194.32 63.08 197.03 60.37L210.58 46.83C211.01 46.4 211.69 46.4 212.12 46.83L235.16 69.89C235.59 70.32 235.59 71.01 235.16 71.44L221.63 84.97C218.92 87.68 214.51 87.68 211.82 84.97ZM211.34 49.15L198.57 61.92C196.71 63.78 196.71 66.79 198.57 68.65L213.36 83.44C215.23 85.31 218.24 85.31 220.1 83.44L232.87 70.67L211.34 49.15Z" />
		<path id="Layer" class="shp1" d="M198.27 79.12L202.89 74.51L207.51 79.12L202.89 83.74L198.27 79.12Z" />
		<path id="Layer" fill-rule="evenodd" class="shp1" d="M202.11 84.51L197.49 79.89C197.06 79.46 197.06 78.78 197.49 78.35L202.11 73.73C202.54 73.3 203.22 73.3 203.65 73.73L208.27 78.35C208.7 78.78 208.7 79.46 208.27 79.89L203.65 84.51C203.22 84.92 202.54 84.92 202.11 84.51ZM199.81 79.13L202.89 82.2L205.96 79.13L202.89 76.06L199.81 79.13Z" />
		<path id="Layer" class="shp1" d="M209.8 102.95L199.81 92.96C196.42 89.57 196.42 84.06 199.81 80.67C200.24 80.24 200.93 80.24 201.36 80.67C201.79 81.1 201.79 81.79 201.36 82.22C198.81 84.76 198.81 88.9 201.36 91.44L211.36 101.43C211.79 101.86 211.79 102.55 211.36 102.98C210.93 103.41 210.23 103.38 209.8 102.95Z" />
	</g>
</svg>