<svg version="1.2" baseProfile="tiny-ps" xmlns="http://www.w3.org/2000/svg" viewBox="0 0 1195 277" width="164" height="38">
	<title>powercord_server-wordmark</title>
	<style>
		tspan { white-space:pre }
		.shp0 { fill: #ffffff } 
		.shp1 { fill: #8e9297 } 
		.shp2 { fill: #99aab5 } 
		.shp3 { fill: #23272a } 
		.shp4 { fill: #7289da } 
	</style>
	<path id="POWERCORD " fill-rule="evenodd" class="shp0" d="M89.94 117.54L139.09 117.54C169.13 117.54 184.07 139.22 184.07 160.92C184.07 182.78 168.96 204.47 139.26 204.47L121.03 204.47L121.03 240.39L89.94 240.39L89.94 117.54ZM139.09 176.88C157.85 177.05 157.85 146.33 139.09 146.5L121.03 146.5L121.03 176.88L139.09 176.88ZM194.32 157.96C194.32 129.68 219.67 115.79 245.2 115.79C270.73 115.79 296.26 129.85 296.26 157.96L296.26 199.96C296.26 228.07 270.9 242.12 245.37 242.12C219.85 242.12 194.32 228.07 194.32 199.96L194.32 157.96ZM225.41 199.96C225.41 208.98 235.47 213.33 245.37 213.33C255.28 213.33 265.17 208.81 265.17 199.96L265.17 157.96C265.17 148.42 254.92 144.08 244.85 144.08C235.13 144.08 225.41 148.95 225.41 157.96L225.41 199.96ZM427.2 117.54L459.33 117.54L423.9 240.39L395.08 240.39L384.14 206.38L379.79 178.27L379.27 178.27L374.58 206.2L364.86 240.39L336.03 240.39L300.43 117.54L332.73 117.54L347.32 176.35L350.45 202.39L351.32 202.39L354.27 176.54L367.98 133.5L391.6 133.5L404.28 176.71L408.27 202.39L408.8 202.39L412.27 176.71L427.2 117.54ZM500.5 165.77L550.34 165.77L550.34 192.67L500.5 192.67L500.5 211.07L554.68 211.07L554.68 240.39L469.06 240.39L469.06 117.54L554.68 117.54L554.68 146.69L500.5 146.69L500.5 165.77ZM608.17 201.34L602.62 201.34L602.62 240.39L571.18 240.39L571.18 117.54L620.32 117.54C645.68 117.54 665.3 129.15 666 157.96C666 180.7 656.8 193.53 641.87 198.22L675.38 240.39L636.65 240.39L608.17 201.34ZM620.85 174.62C640.47 174.62 640.47 146.5 620.85 146.5L602.62 146.5L602.62 174.62L620.85 174.62ZM772.11 214.53C761.86 234.49 743.29 242.12 727.83 242.12C703.68 242.12 679.37 228.07 679.37 200.14L679.37 157.79C679.37 130.02 703.68 115.79 728.35 115.79C743.46 115.79 761.69 122.21 771.6 144.08L746.23 154.31C737.9 139.05 710.46 142.51 710.46 157.79L710.46 200.14C710.46 214.89 738.25 219.05 745.02 202.04L772.11 214.53ZM780.45 157.96C780.45 129.68 805.8 115.79 831.34 115.79C856.86 115.79 882.4 129.85 882.4 157.96L882.4 199.96C882.4 228.07 857.03 242.12 831.51 242.12C805.97 242.12 780.45 228.07 780.45 199.96L780.45 157.96ZM811.54 199.96C811.54 208.98 821.61 213.33 831.51 213.33C841.41 213.33 851.31 208.81 851.31 199.96L851.31 157.96C851.31 148.42 841.06 144.08 830.98 144.08C821.26 144.08 811.54 148.95 811.54 157.96L811.54 199.96ZM935.89 201.34L930.33 201.34L930.33 240.39L898.9 240.39L898.9 117.54L948.04 117.54C973.4 117.54 993.02 129.15 993.71 157.96C993.71 180.7 984.52 193.53 969.58 198.22L1003.09 240.39L964.37 240.39L935.89 201.34ZM948.56 174.62C968.19 174.62 968.19 146.5 948.56 146.5L930.33 146.5L930.33 174.62L948.56 174.62ZM1011.1 115.06L1036.64 115.06C1055.03 115.06 1062.66 115.23 1064.02 115.49C1065.13 115.49 1067 115.83 1068.18 116C1069.45 116.16 1071.15 116.5 1072.16 116.84C1073.26 117.18 1075.13 117.52 1076.4 117.85C1077.6 118.19 1079.28 118.88 1080.39 119.29C1081.41 119.63 1083.19 120.49 1084.2 120.99C1085.39 121.5 1087 122.34 1087.68 122.77C1088.36 123.28 1090.05 124.3 1091.32 125.15C1092.52 125.99 1094.29 127.6 1095.15 128.62C1096.16 129.64 1097.51 131.24 1098.28 132.09C1098.78 132.94 1099.81 134.22 1100.15 134.89C1100.65 135.57 1101.42 136.93 1101.76 137.85C1102.09 138.71 1102.78 140.23 1103.12 141.16C1103.45 142 1103.96 143.53 1104.3 144.47C1104.65 145.48 1105.06 147.18 1105.23 148.27C1105.4 149.3 1105.75 150.98 1105.92 151.92C1106.09 153.28 1106.09 159.38 1106.09 178.61C1106.09 198.61 1106.09 203.78 1105.92 205.14C1105.75 206.07 1105.57 207.76 1105.23 208.78C1105.06 209.87 1104.65 211.4 1104.3 212.25C1103.96 213.18 1103.62 214.53 1103.29 215.05C1102.95 215.56 1102.78 216.83 1102.44 217.34C1102.09 217.84 1101.59 219.03 1100.99 219.88C1100.48 220.81 1099.64 221.99 1099.3 222.5C1098.96 223.02 1098.28 223.94 1097.77 224.63C1097.18 225.3 1095.99 226.65 1095.32 227.34C1094.63 228.26 1093.19 229.46 1092.35 230.13C1091.49 230.81 1089.88 231.91 1089.04 232.42C1088.18 232.92 1086.24 234.11 1084.72 234.88C1083.36 235.56 1081.24 236.4 1080.39 236.74C1079.28 237.07 1077.43 237.76 1076.23 238.1C1074.96 238.53 1072.76 239.03 1071.32 239.37C1069.96 239.71 1067.84 239.88 1066.65 240.05C1065.47 240.21 1063.17 240.55 1061.82 240.55C1060.21 240.55 1048.25 240.72 1011.1 240.72L1011.1 210.9L1035.53 210.9C1056.4 210.9 1060.38 210.9 1062.16 210.56C1063.17 210.56 1064.7 210.21 1065.47 209.87C1066.14 209.54 1067.33 209.37 1067.84 208.95C1068.35 208.6 1069.45 208.1 1069.79 207.76C1070.29 207.42 1070.81 206.75 1071.32 206.24C1071.65 205.64 1072.59 204.8 1072.93 204.11C1073.26 203.44 1073.77 202.26 1074.29 200.31L1074.29 155.9C1074.29 155.23 1073.94 153.95 1073.6 153.28C1073.26 152.59 1072.93 151.58 1072.59 150.98C1072.16 150.48 1071.49 149.63 1070.98 149.13C1070.46 148.62 1069.45 147.69 1068.94 147.35C1068.35 147.01 1067.33 146.49 1066.65 146.16C1065.97 145.82 1064.53 145.48 1063.86 145.48C1063.17 145.31 1061.65 144.97 1060.38 144.97C1059.19 144.97 1054.53 144.81 1041.97 144.81L1041.97 195.99C1041.97 195.99 1040.45 194.72 1038.66 193.19C1036.97 191.67 1032.06 187.25 1028.06 183.61C1024.08 179.79 1018.73 174.97 1011.1 168.02L1011.1 115.06Z" />
	<path id="Official Powercord Server " fill-rule="evenodd" class="shp1" d="M286.13 87.54C272.49 87.54 263.64 77.52 263.64 62.71C263.64 47.82 272.56 37.74 286.27 37.74C300.05 37.74 308.76 47.76 308.76 62.58C308.76 77.39 299.91 87.54 286.13 87.54ZM286.2 45.39C277.98 45.39 273.05 52.14 273.05 62.65C273.05 73.14 277.98 79.89 286.2 79.89C294.48 79.89 299.43 73.14 299.43 62.65C299.43 52.14 294.42 45.39 286.2 45.39ZM330.82 43.87C327.97 43.87 326.44 45.11 326.44 48.1L326.44 53.04L332.84 53.04L333.88 59.87L326.44 59.87L326.44 86.64L318.15 86.64L318.15 59.87L313.27 59.87L313.27 53.04L318.15 53.04L318.15 47.27C318.15 39.83 322.89 37.05 329.77 37.05C331.24 37.05 332.35 37.18 333.18 37.33L334.3 44.14C333.46 44 332.22 43.87 330.82 43.87ZM353.93 43.87C351.07 43.87 349.54 45.11 349.54 48.1L349.54 53.04L355.94 53.04L356.99 59.87L349.54 59.87L349.54 86.64L341.26 86.64L341.26 59.87L336.39 59.87L336.39 53.04L341.26 53.04L341.26 47.27C341.26 39.83 345.99 37.05 352.89 37.05C354.34 37.05 355.47 37.18 356.3 37.33L357.41 44.14C356.58 44 355.32 43.87 353.93 43.87ZM366.6 47.41C363.81 47.41 361.59 45.47 361.59 42.68C361.59 39.83 363.81 37.82 366.6 37.82C369.32 37.82 371.54 39.83 371.54 42.68C371.54 45.47 369.32 47.41 366.6 47.41ZM362.35 86.64L362.35 53.04L370.71 53.04L370.71 86.64L362.35 86.64ZM393.75 87.26C384.42 87.26 377.8 81 377.8 70.02C377.8 58.33 385.12 52.35 394.02 52.35C398.55 52.35 401.89 53.53 404.54 55.2L403.35 62.71C400.49 60.56 397.78 59.59 394.51 59.59C389.71 59.59 386.23 63.12 386.23 69.81C386.23 76.77 389.99 80.1 395.07 80.1C397.99 80.1 400.64 79.34 403.77 76.9L404.88 83.99C401.47 86.36 397.99 87.26 393.75 87.26ZM416.16 47.41C413.38 47.41 411.15 45.47 411.15 42.68C411.15 39.83 413.38 37.82 416.16 37.82C418.87 37.82 421.11 39.83 421.11 42.68C421.11 45.47 418.87 47.41 416.16 47.41ZM411.91 86.64L411.91 53.04L420.27 53.04L420.27 86.64L411.91 86.64ZM448.67 86.64L447.97 82.26C445.26 85.11 441.78 87.33 436.76 87.33C431.06 87.33 427.23 83.86 427.23 78.01C427.23 69.87 433.91 66.33 447.49 65L447.49 64.03C447.49 60.42 445.4 59.02 441.71 59.02C437.81 59.02 434.13 60.13 430.5 61.73L429.46 55.06C433.36 53.53 437.46 52.35 442.82 52.35C451.53 52.35 455.84 55.55 455.84 63.61L455.84 86.64L448.67 86.64ZM447.49 69.87C437.81 71.06 435.52 73.91 435.52 77.11C435.52 79.55 437.04 81 439.62 81C442.48 81 445.19 79.68 447.49 77.39L447.49 69.87ZM464.47 86.64L464.47 37.74L472.83 36.42L472.83 86.64L464.47 86.64ZM510.7 68.97L506.58 68.97L506.58 86.64L497.4 86.64L497.4 38.65L511.45 38.65C522.46 38.65 529.06 43.72 529.06 53.39C529.06 63.76 521.69 68.97 510.7 68.97ZM510.96 46.02L506.58 46.02L506.58 61.53L510.62 61.53C516.53 61.53 520.01 59.1 520.01 53.59C520.01 48.59 516.89 46.02 510.96 46.02ZM547.03 87.33C537.9 87.33 531.3 80.79 531.3 69.87C531.3 58.95 537.98 52.35 547.1 52.35C556.28 52.35 562.96 58.95 562.96 69.87C562.96 80.79 556.21 87.33 547.03 87.33ZM547.03 59.23C542.08 59.23 539.44 63.61 539.44 69.87C539.44 76 542.15 80.51 547.03 80.51C552.18 80.51 554.82 76.13 554.82 69.87C554.82 63.69 552.03 59.23 547.03 59.23ZM603.41 86.64L595.96 86.64L589.62 64.38L583.36 86.64L575.91 86.64L565.89 53.67L574.25 52.56L580.23 74.95L586.35 53.04L593.74 53.04L599.8 74.95L605.63 53.04L613.5 53.04L603.41 86.64ZM646.21 71.47L624.64 71.47C625.06 78.01 628.54 80.87 633.68 80.87C638.01 80.87 641.56 79.27 645.25 76.69L646.21 83.23C642.6 85.74 638.22 87.33 632.78 87.33C623.39 87.33 616.36 81.98 616.36 69.87C616.36 58.95 622.9 52.35 631.67 52.35C641.77 52.35 646.29 59.93 646.29 69.46C646.29 70.15 646.21 70.98 646.21 71.47ZM631.46 58.12C628.12 58.12 625.4 60.77 624.78 66.26L638.14 66.26C637.59 61.04 635.5 58.12 631.46 58.12ZM661.39 67.37L661.39 86.64L653.04 86.64L653.04 53.04L660.14 53.04L661.19 59.79C663.41 55.9 666.76 52.63 671.97 52.35L673.3 60.62C668.07 60.98 663.76 63.76 661.39 67.37ZM691.89 87.26C682.56 87.26 675.94 81 675.94 70.02C675.94 58.33 683.25 52.35 692.16 52.35C696.69 52.35 700.03 53.53 702.67 55.2L701.49 62.71C698.64 60.56 695.92 59.59 692.64 59.59C687.85 59.59 684.37 63.12 684.37 69.81C684.37 76.77 688.13 80.1 693.21 80.1C696.13 80.1 698.78 79.34 701.9 76.9L703.03 83.99C699.61 86.36 696.13 87.26 691.89 87.26ZM723.07 87.33C713.96 87.33 707.34 80.79 707.34 69.87C707.34 58.95 714.02 52.35 723.14 52.35C732.32 52.35 739.01 58.95 739.01 69.87C739.01 80.79 732.26 87.33 723.07 87.33ZM723.07 59.23C718.13 59.23 715.48 63.61 715.48 69.87C715.48 76 718.19 80.51 723.07 80.51C728.22 80.51 730.87 76.13 730.87 69.87C730.87 63.69 728.08 59.23 723.07 59.23ZM754.11 67.37L754.11 86.64L745.76 86.64L745.76 53.04L752.86 53.04L753.9 59.79C756.14 55.9 759.47 52.63 764.7 52.35L766.02 60.62C760.8 60.98 756.48 63.76 754.11 67.37ZM792.39 86.64L791.7 81.98C789.34 84.83 786.07 87.33 781.4 87.33C774.37 87.33 768.73 82.12 768.73 70.78C768.73 58.26 775.63 52.69 783.42 52.69C786.62 52.69 789.19 53.25 791.22 53.95L791.22 37.74L799.57 36.42L799.57 86.64L792.39 86.64ZM791.22 60.83C789.12 59.87 787.52 59.38 784.68 59.38C780.29 59.38 777.08 62.92 777.08 70.29C777.08 76.83 779.86 79.89 783.56 79.89C786.62 79.89 788.99 78.08 791.22 75.3L791.22 60.83ZM836.88 87.2C831.03 87.2 826.03 85.87 821.78 83.86L823.17 75.44C827.2 77.8 832.22 79.68 837.02 79.68C841.27 79.68 844.19 77.67 844.19 73.84C844.19 70.29 842.51 68.84 835.55 65.85C826.23 62.01 822.47 58.95 822.47 51.52C822.47 43.03 829.02 38.08 837.99 38.08C843.43 38.08 847.18 39.21 850.66 41.01L849.27 49.36C845.79 47.07 841.68 45.6 837.92 45.6C833.33 45.6 831.31 47.82 831.31 50.75C831.31 53.81 832.84 55.27 839.52 58.05C849.41 62.09 853.03 65.49 853.03 72.94C853.03 82.33 846.14 87.2 836.88 87.2ZM888.19 71.47L866.61 71.47C867.02 78.01 870.5 80.87 875.66 80.87C879.97 80.87 883.52 79.27 887.21 76.69L888.19 83.23C884.56 85.74 880.17 87.33 874.74 87.33C865.35 87.33 858.31 81.98 858.31 69.87C858.31 58.95 864.86 52.35 873.63 52.35C883.73 52.35 888.25 59.93 888.25 69.46C888.25 70.15 888.19 70.98 888.19 71.47ZM873.42 58.12C870.09 58.12 867.36 60.77 866.74 66.26L880.1 66.26C879.55 61.04 877.46 58.12 873.42 58.12ZM903.35 67.37L903.35 86.64L895 86.64L895 53.04L902.11 53.04L903.15 59.79C905.38 55.9 908.71 52.63 913.94 52.35L915.26 60.62C910.03 60.98 905.72 63.76 903.35 67.37ZM937.39 86.77L929.26 86.77L917.48 53.67L926.25 52.56L933.77 76.41L941.02 53.04L949.3 53.04L937.39 86.77ZM981.67 71.47L960.09 71.47C960.51 78.01 963.99 80.87 969.14 80.87C973.45 80.87 977 79.27 980.69 76.69L981.67 83.23C978.04 85.74 973.66 87.33 968.24 87.33C958.83 87.33 951.8 81.98 951.8 69.87C951.8 58.95 958.34 52.35 967.11 52.35C977.21 52.35 981.73 59.93 981.73 69.46C981.73 70.15 981.67 70.98 981.67 71.47ZM966.91 58.12C963.57 58.12 960.85 60.77 960.23 66.26L973.6 66.26C973.04 61.04 970.95 58.12 966.91 58.12ZM996.84 67.37L996.84 86.64L988.48 86.64L988.48 53.04L995.59 53.04L996.63 59.79C998.86 55.9 1002.2 52.63 1007.43 52.35L1008.74 60.62C1003.52 60.98 999.21 63.76 996.84 67.37Z" />
	<g id="Folder 1">
		<path id="Layer" class="shp2" d="M214.16 38.67L207.59 32.11L221.21 18.51C223.01 16.71 225.97 16.71 227.78 18.51L227.78 18.51C229.58 20.32 229.58 23.27 227.78 25.08L214.16 38.67L214.16 38.67Z" />
		<path id="Layer" fill-rule="evenodd" class="shp3" d="M213.26 39.57L206.67 33.01C206.17 32.5 206.17 31.68 206.67 31.19L220.29 17.6C222.6 15.29 226.36 15.29 228.67 17.6C230.99 19.9 230.99 23.66 228.67 25.97L215.06 39.57C214.55 40.07 213.76 40.07 213.26 39.57ZM214.16 36.86L226.86 24.19C228.17 22.88 228.17 20.74 226.86 19.43C225.55 18.12 223.42 18.12 222.1 19.43L209.4 32.11L214.16 36.86Z" />
		<path id="Layer" class="shp2" d="M231.99 56.49L225.42 49.92L239.04 36.33C240.84 34.52 243.8 34.52 245.61 36.33L245.61 36.33C247.41 38.13 247.41 41.09 245.61 42.89L231.99 56.49L231.99 56.49Z" />
		<path id="Layer" fill-rule="evenodd" class="shp3" d="M231.07 57.39L224.5 50.81C224 50.31 224 49.49 224.5 49.01L238.12 35.41C240.43 33.09 244.19 33.09 246.5 35.41C248.81 37.72 248.81 41.48 246.5 43.78L232.89 57.39C232.41 57.89 231.59 57.89 231.07 57.39ZM231.99 54.68L244.69 42C246 40.7 246 38.56 244.69 37.24C243.38 35.91 241.25 35.94 239.93 37.24L227.23 49.92L231.99 54.68Z" />
		<path id="Layer" class="shp3" d="M199.14 33.03L203.83 28.35L235.74 60.23L231.05 64.92L199.14 33.03Z" />
		<path id="Layer" fill-rule="evenodd" class="shp3" d="M230.11 65.86L198.2 33.97C197.67 33.45 197.67 32.62 198.2 32.09L202.89 27.41C203.41 26.88 204.24 26.88 204.77 27.41L236.68 59.29C237.2 59.82 237.2 60.65 236.68 61.17L231.99 65.86C231.47 66.38 230.63 66.38 230.11 65.86ZM201.02 33.04L231.06 63.05L233.88 60.24L203.84 30.23L201.02 33.04Z" />
		<path id="Layer" class="shp4" d="M202.53 79.57L184.47 61.53C181.7 58.74 181.7 54.22 184.47 51.43L201.02 34.91L229.17 63.04L212.63 79.57C209.85 82.37 205.32 82.37 202.53 79.57Z" />
		<path id="Layer" fill-rule="evenodd" class="shp3" d="M201.61 80.5L183.54 62.45C180.24 59.15 180.24 53.79 183.54 50.48L200.09 33.96C200.62 33.44 201.45 33.44 201.97 33.96L230.11 62.1C230.63 62.62 230.63 63.47 230.11 63.99L213.59 80.5C210.28 83.81 204.89 83.81 201.61 80.5ZM201.02 36.79L185.43 52.37C183.15 54.64 183.15 58.32 185.43 60.59L203.49 78.63C205.77 80.92 209.45 80.92 211.72 78.63L227.31 63.05L201.02 36.79Z" />
		<path id="Layer" class="shp3" d="M185.06 73.36L190.7 67.74L196.34 73.36L190.7 79L185.06 73.36Z" />
		<path id="Layer" fill-rule="evenodd" class="shp3" d="M189.75 79.94L184.11 74.3C183.58 73.78 183.58 72.95 184.11 72.42L189.75 66.79C190.27 66.26 191.1 66.26 191.63 66.79L197.27 72.42C197.8 72.95 197.8 73.78 197.27 74.3L191.63 79.94C191.1 80.44 190.27 80.44 189.75 79.94ZM186.94 73.37L190.7 77.12L194.45 73.37L190.7 69.63L186.94 73.37Z" />
		<path id="Layer" class="shp3" d="M199.14 102.44L186.94 90.25C182.8 86.11 182.8 79.39 186.94 75.25C187.46 74.73 188.31 74.73 188.83 75.25C189.36 75.78 189.36 76.62 188.83 77.15C185.72 80.24 185.72 85.3 188.83 88.4L201.04 100.59C201.57 101.11 201.57 101.95 201.04 102.48C200.52 103 199.66 102.97 199.14 102.44Z" />
	</g>
</svg>