<svg version="1.2" xmlns="http://www.w3.org/2000/svg" viewBox="0 0 1750 405" width="164" height="38">
	<title>projectps_server-wordmark-svg</title>
	<defs>
		<linearGradient id="g1" x1="363.7" y1="308.4" x2="375" y2="93.7" gradientUnits="userSpaceOnUse">
			<stop offset="0" stop-color="#4f2963"/>
			<stop offset="1" stop-color="#9242bd"/>
		</linearGradient>
		<linearGradient id="g2" x1="393.9" y1="308.2" x2="405.3" y2="92.2" gradientUnits="userSpaceOnUse">
			<stop offset="0" stop-color="#000000"/>
			<stop offset="1" stop-color="#1d1d1d"/>
		</linearGradient>
		<linearGradient id="g3" x1="1006.9" y1="320.1" x2="1019.2" y2="85.8" gradientUnits="userSpaceOnUse">
			<stop offset="0" stop-color="#4e2962"/>
			<stop offset="1" stop-color="#9242bd"/>
		</linearGradient>
		<linearGradient id="g4" x1="475.2" y1="313.2" x2="483.7" y2="151.9" gradientUnits="userSpaceOnUse">
			<stop offset="0" stop-color="#858585"/>
			<stop offset="1" stop-color="#ffffff"/>
		</linearGradient>
		<linearGradient id="g5" x1="1090.6" y1="386.5" x2="1096.2" y2="280.1" gradientUnits="userSpaceOnUse">
			<stop offset="0" stop-color="#858585"/>
			<stop offset="1" stop-color="#ffffff"/>
		</linearGradient>
	</defs>
	<style>
		.s0 { fill: url(#g1) } 
		.s1 { fill: url(#g2) } 
		.s2 { fill: #261034;stroke: #261034;paint-order:stroke fill markers;stroke-width: 18 } 
		.s3 { fill: url(#g3) } 
		.s4 { fill: #232323;stroke: #232323;paint-order:stroke fill markers;stroke-width: 18 } 
		.s5 { fill: url(#g4) } 
		.s6 { fill: url(#g5);stroke: #232323;paint-order:stroke fill markers;stroke-width: 18 } 
	</style>
	<g id="Folder 1">
		<path id="Layer" class="s0" d="m668 56c341.1 0 511.9 0.1 511.9 0.3c0 0.2 2.8 8.3 6.1 18c3.3 9.7 9.3 27.2 13.3 39c4 11.7 10.8 31.4 15 43.8c4.3 12.4 11 32.2 15.1 44c4 11.8 8.5 25 10 29.3c1.5 4.2 7 20.3 12.2 35.6c5.2 15.3 10.9 32 12.7 37.2c1.8 5.1 5.8 16.8 9 26c3.1 9.2 5.7 16.7 5.7 16.8c0 0.1-230.4 0.2-1023.8 0l-10.2-30.2c-5.7-16.6-12-35-14.1-40.8c-2-5.8-5.8-16.9-8.4-24.5c-2.6-7.7-8.1-23.8-12.2-35.8c-4.1-12-9.2-26.9-11.3-33.1c-2.2-6.1-8.5-24.6-14-40.9c-5.6-16.4-11.4-33.4-12.9-37.7c-1.5-4.4-5.8-16.7-9.4-27.4c-3.7-10.7-6.7-19.5-6.7-19.5c0-0.1 230.4-0.1 512-0.1z" />
		<path id="Layer" class="s1" d="m698.2 54.2c341.1 0 512 0.1 512 0.4c0 0.1 2.7 8.3 6 18c3.3 9.8 9.3 27.4 13.4 39.3c4 11.8 10.7 31.6 15 44.1c4.2 12.4 11 32.3 15 44.2c4.1 11.9 8.5 25.2 10 29.5c1.5 4.3 7 20.4 12.2 35.8c5.3 15.4 11 32.2 12.8 37.4c1.7 5.2 5.8 16.9 8.9 26.2c3.1 9.2 5.7 16.8 5.7 16.9c0 0.1-230.3 0.2-1023.7 0l-10.3-30.4c-5.7-16.7-12-35.2-14-41c-2-5.9-5.8-17-8.5-24.7c-2.6-7.7-8.1-23.9-12.2-36c-4-12.1-9.1-27.1-11.3-33.3c-2.1-6.2-8.4-24.7-14-41.2c-5.6-16.5-11.4-33.5-12.9-37.9c-1.5-4.4-5.7-16.8-9.4-27.5c-3.7-10.8-6.7-19.6-6.7-19.7c0 0 230.4-0.1 512-0.1z" />
		<path id="Layer" fill-rule="evenodd" class="s2" d="m1067.2 47.6l3-0.4l1.6 2.3l-1.3 2.7l4.4-3.1l15.5-2.2c4.1-0.5 4 3.8-0.5 13l3.1-0.4c2.8-5.6 6.3-8.6 10.5-9.2c4.3-0.6 5 1.9 2.2 7.5l24.1-5.8l33 1l14.9-4.7c17.6-2.4 28.1 3.6 31.3 18.2l-12.4 21.6l2.1 2.7l-1.2 3l-15.5 19.4l-3.5 0.3l2.8-6.2l-3.6 0.4c-34.8 40.9-72 70.4-110.8 87.9l-63.2 25.4l-27.3 54.9l-5 16.5c-4.4 0.1-15.3 11.3-33 33.8l-4.8 3.4h-3.2l-18.2-13.3l16.7-26.3l-2.6-12.7l28.9-44.5l-1.5-3l38.9-58.4l-1.7-2.7l4.7-3.2l6.1-0.5l-6 11.9l3-0.2l7.7-15l1.5-8.6l6.2-0.5l7.3-14.7l-3.2-5.2l-5.9 11.6l-3.1 0.3c6.4-12.3 5.2-21.3-3.3-26.9l5.8-16.6l5.9-11.1c31-13.2 47.5-21.3 49-24.4l1.5-2.8l-3.4-4.7l-4.3 3.2l2.3-10.5zm-0.8 71.7l-20.9 36.1l6.4-0.5c33-13.5 66.2-34.1 99.1-61.7l-10.2 1.2c-45.7 7.6-70 15.9-74.4 24.9zm86-14.8l-3.5 0.4c-12.2 12.2-48.6 32.3-108 59.6l-4.6 3.3l-1.4 3l6.4-0.5c36.4-11.9 73.6-33.9 111.1-65.8zm-158.2 75.4l-6.1 0.5l-1.6 3l1.4 2.8l-4.5 3.2l-3.2 6.1l6.1-0.5zm265.2-112l85.1-51.8c5.6 3.2 27.4 2.2 66.5-3.1l-1.2 3.2l-29.2 3.9l-1.3 3.1c34.9-4.6 55.1-1.1 60.1 10.7l-2.6 6.6l-21.7 2.7l-1.3 3.2l29.2-0.3l-1.3 3.3l-26.3 3.1l-1.3 3.4c8.7-1.1 12.2 0.7 10.5 5.1c-51 5.8-99.7 24.8-147.3 56.9l-1.5 3.3c48.1 6.7 82.5 29.5 101.8 70.1l-1.4 3.8c-21.5 32.9-62 64.5-120.5 94l-27.2 4.3l-1.7 3.8l8.4-0.2c-2.8 7-31.2 14.9-83.4 23.5l3.4-7.5l19.9-0.1l1.9-3.8c-17 0.2-28.8-8.3-35.3-25.1c-9.1-5.2-10.5-15.5-4.3-30.7q0.8-2 1.9-4.3l14.6-7.4l8.1 6.5l7.7-0.2c78.9-13.7 127.3-37.4 141.2-70c-27.8-11.7-46.4-16.9-56.6-16.2l-1.5 3.4l-33.1-10.4l2.3 3l-2.8 6.7c-23.5-17.5-32.4-31.2-27.5-41.4l46.2-46.6l24.3-14.6zm0.5 39.1l-1.5 3.2l83-42.9l35.8-10.4l2.6-6.5l-8.3 1c-47.4 17.6-84.4 36.1-111.6 55.6zm-19.5 130.8l-11.3 7.7l4.1-0.2l11.3-7.6zm68.8 4.4l-4.3 0.2l-25.1 19.5l4.3-0.1zm-44 23.8l-24.5 8.1l-1.4 3.8l4.2-0.1zm-46.8 31l-34.1 4.3l-1.7 3.7l16.3-0.2l22.3-4l1.4-3.8z" />
		<path id="Layer" fill-rule="evenodd" class="s3" d="m1067.2 47.6l3-0.4l1.6 2.3l-1.3 2.7l4.4-3.1l15.5-2.2c4.1-0.5 4 3.8-0.5 13l3.1-0.4c2.8-5.6 6.3-8.6 10.5-9.2c4.3-0.6 5 1.9 2.2 7.5l24.1-5.8l33 1l14.9-4.7c17.6-2.4 28.1 3.6 31.3 18.2l-12.4 21.6l2.1 2.7l-1.2 3l-15.5 19.4l-3.5 0.3l2.8-6.2l-3.6 0.4c-34.8 40.9-72 70.4-110.8 87.9l-63.2 25.4l-27.3 54.9l-5 16.5c-4.4 0.1-15.3 11.3-33 33.8l-4.8 3.4h-3.2l-18.2-13.3l16.7-26.3l-2.6-12.7l28.9-44.5l-1.5-3l38.9-58.4l-1.7-2.7l4.7-3.2l6.1-0.5l-6 11.9l3-0.2l7.7-15l1.5-8.6l6.2-0.5l7.3-14.7l-3.2-5.2l-5.9 11.6l-3.1 0.3c6.4-12.3 5.2-21.3-3.3-26.9l5.8-16.6l5.9-11.1c31-13.2 47.5-21.3 49-24.4l1.5-2.8l-3.4-4.7l-4.3 3.2l2.3-10.5zm-0.8 71.7l-20.9 36.1l6.4-0.5c33-13.5 66.2-34.1 99.1-61.7l-10.2 1.2c-45.7 7.6-70 15.9-74.4 24.9zm86-14.8l-3.5 0.4c-12.2 12.2-48.6 32.3-108 59.6l-4.6 3.3l-1.4 3l6.4-0.5c36.4-11.9 73.6-33.9 111.1-65.8zm-158.2 75.4l-6.1 0.5l-1.6 3l1.4 2.8l-4.5 3.2l-3.2 6.1l6.1-0.5zm265.2-112l85.1-51.8c5.6 3.2 27.4 2.2 66.5-3.1l-1.2 3.2l-29.2 3.9l-1.3 3.1c34.9-4.6 55.1-1.1 60.1 10.7l-2.6 6.6l-21.7 2.7l-1.3 3.2l29.2-0.3l-1.3 3.3l-26.3 3.1l-1.3 3.4c8.7-1.1 12.2 0.7 10.5 5.1c-51 5.8-99.7 24.8-147.3 56.9l-1.5 3.3c48.1 6.7 82.5 29.5 101.8 70.1l-1.4 3.8c-21.5 32.9-62 64.5-120.5 94l-27.2 4.3l-1.7 3.8l8.4-0.2c-2.8 7-31.2 14.9-83.4 23.5l3.4-7.5l19.9-0.1l1.9-3.8c-17 0.2-28.8-8.3-35.3-25.1c-9.1-5.2-10.5-15.5-4.3-30.7q0.8-2 1.9-4.3l14.6-7.4l8.1 6.5l7.7-0.2c78.9-13.7 127.3-37.4 141.2-70c-27.8-11.7-46.4-16.9-56.6-16.2l-1.5 3.4l-33.1-10.4l2.3 3l-2.8 6.7c-23.5-17.5-32.4-31.2-27.5-41.4l46.2-46.6l24.3-14.6zm0.5 39.1l-1.5 3.2l83-42.9l35.8-10.4l2.6-6.5l-8.3 1c-47.4 17.6-84.4 36.1-111.6 55.6zm-19.5 130.8l-11.3 7.7l4.1-0.2l11.3-7.6zm68.8 4.4l-4.3 0.2l-25.1 19.5l4.3-0.1zm-44 23.8l-24.5 8.1l-1.4 3.8l4.2-0.1zm-46.8 31l-34.1 4.3l-1.7 3.7l16.3-0.2l22.3-4l1.4-3.8z" />
		<path id="Layer" fill-rule="evenodd" class="s4" d="m411.3 101.8q24.1 0 39.1 12.8q15.2 12.9 15.2 37.9q0 16.6-7.9 29.5q-7.9 12.6-22.3 19.8q-14.5 7-34.1 7h-32l-8.5 60.9h-35l23.5-167.9zm11.5 69.4q7.6-7.5 7.6-18.7q0-9.3-6.1-14.7q-5.8-5.6-16-5.6h-28.3l-6.4 46.2h30q11.7 0 19.2-7.2zm95.7-24.6l-2.4 18.3q6.3-11.3 15.3-15.4q9.2-4.2 20.5-4.2h7.2l-4.1 29.3h-10.6q-12.3 0-21.1 7.8q-8.6 7.9-10.9 23.3l-8.7 64h-34l17.1-123.1zm72.8 118.1q-14.2-7.9-22.6-21.6q-8.3-13.8-8.3-31.4q0-14.2 5.4-26.5q5.4-12.4 15.1-21.7q9.7-9.2 22.3-14.4q12.6-5.2 27-5.2q17.6 0 31.8 7.9q14.2 7.7 22.3 21.4q8.4 13.5 8.4 31.3q0 14.2-5.4 26.6q-5.4 12.2-15.1 21.7q-9.7 9.2-22.3 14.4q-12.7 5.2-26.9 5.2q-17.5 0-31.7-7.7zm50-27.7q7.7-5.2 11.9-13.8q4.3-8.5 4.3-19.1q0-13.1-7.6-21.4q-7.5-8.4-20.1-8.4q-10.2 0-18 5.2q-7.7 5-12 13.6q-4.3 8.5-4.3 19.1q0 13.1 7.5 21.4q7.6 8.4 20.5 8.4q10.1 0 17.8-5zm121.2-135.2l-4.7 33.7h-34l4.7-33.7zm-85.2 217.5q-3.1-0.5-5.4-0.9l2.3-28.4q1.8 0.2 3.6 0.4q1.8 0 3.1 0q10.4 0 16.2-4.5q6.1-4.5 7.3-12.6l17.8-126.7h34l-18 128.5q-3 21.8-17.2 33.3q-13.9 11.3-36.3 11.3q-4 0-7.4-0.4zm118.8-54.8q-13.8-8.1-21.2-21.9q-7.2-13.7-7.2-30.4q0-14.2 5-26.4q4.9-12.4 13.9-21.9q9-9.4 21-14.6q11.9-5.4 25.9-5.4q18.7 0 31.6 7.4q12.8 7.3 19.3 19.9q6.8 12.6 6.8 28.6q0 4.3-0.7 8.6q-0.7 4.3-1.8 9.2h-86.3q0.9 12.2 7.9 18.9q7 6.6 18.9 6.6q9.2 0 16.2-3.9q7-3.8 10.9-10.1l26.5 13.7q-6.5 13.6-21.2 21.7q-14.4 7.9-33.1 7.9q-18.7 0-32.4-7.9zm18.7-87.5q-6.8 6.1-9.9 15.8h51.1q-0.2-9.7-6.3-15.8q-6.1-6-16.4-6q-11.7 0-18.5 6zm120.8 87.5q-14-7.9-22.1-21.7q-7.9-13.7-7.9-31.1q0-14.2 5.4-26.5q5.4-12.4 14.9-21.7q9.5-9.2 21.8-14.4q12.7-5.2 27.1-5.2q13.9 0 25.4 5q11.5 4.7 19.4 13.3q7.9 8.5 10.9 20l-30 11.7q-2.5-9.2-9.5-14.4q-7-5.2-16.7-5.2q-10.1 0-17.8 5.2q-7.4 5.2-11.7 13.8q-4 8.5-4 18.4q0 13.6 7.4 21.9q7.4 8.4 19.8 8.4q10.6 0 18.5-5.7q7.9-5.6 11.7-14.8l28.7 13.7q-4.3 10.8-13.1 19.4q-8.6 8.3-20.5 13q-12 4.8-25.7 4.8q-17.8 0-32-7.9zm133.2-5.9q-11.1-12.6-8.2-34.2l6.8-48.5h-20.7l4-29.3h0.5q9.4 0 15.5-5.2q6.4-5.2 7.7-14.6l1.1-8.1h34.3l-4.1 27.9h28.4l-4.1 29.3h-28.4l-6.7 48q-1.3 9.5 2.5 13.8q3.8 4 14 4q2 0 3.8 0q2-0.2 4.9-0.6l-2.4 28.6q-3.4 0.9-7.7 1.1q-4.1 0.2-7.4 0.2q-22.8 0-33.8-12.4z" />
		<path id="Layer" fill-rule="evenodd" class="s5" d="m411.3 101.8q24.1 0 39.1 12.8q15.2 12.9 15.2 37.9q0 16.6-7.9 29.5q-7.9 12.6-22.3 19.8q-14.5 7-34.1 7h-32l-8.5 60.9h-35l23.5-167.9zm11.5 69.4q7.6-7.5 7.6-18.7q0-9.3-6.1-14.7q-5.8-5.6-16-5.6h-28.3l-6.4 46.2h30q11.7 0 19.2-7.2zm95.7-24.6l-2.4 18.3q6.3-11.3 15.3-15.4q9.2-4.2 20.5-4.2h7.2l-4.1 29.3h-10.6q-12.3 0-21.1 7.8q-8.6 7.9-10.9 23.3l-8.7 64h-34l17.1-123.1zm72.8 118.1q-14.2-7.9-22.6-21.6q-8.3-13.8-8.3-31.4q0-14.2 5.4-26.5q5.4-12.4 15.1-21.7q9.7-9.2 22.3-14.4q12.6-5.2 27-5.2q17.6 0 31.8 7.9q14.2 7.7 22.3 21.4q8.4 13.5 8.4 31.3q0 14.2-5.4 26.6q-5.4 12.2-15.1 21.7q-9.7 9.2-22.3 14.4q-12.7 5.2-26.9 5.2q-17.5 0-31.7-7.7zm50-27.7q7.7-5.2 11.9-13.8q4.3-8.5 4.3-19.1q0-13.1-7.6-21.4q-7.5-8.4-20.1-8.4q-10.2 0-18 5.2q-7.7 5-12 13.6q-4.3 8.5-4.3 19.1q0 13.1 7.5 21.4q7.6 8.4 20.5 8.4q10.1 0 17.8-5zm121.2-135.2l-4.7 33.7h-34l4.7-33.7zm-85.2 217.5q-3.1-0.5-5.4-0.9l2.3-28.4q1.8 0.2 3.6 0.4q1.8 0 3.1 0q10.4 0 16.2-4.5q6.1-4.5 7.3-12.6l17.8-126.7h34l-18 128.5q-3 21.8-17.2 33.3q-13.9 11.3-36.3 11.3q-4 0-7.4-0.4zm118.8-54.8q-13.8-8.1-21.2-21.9q-7.2-13.7-7.2-30.4q0-14.2 5-26.4q4.9-12.4 13.9-21.9q9-9.4 21-14.6q11.9-5.4 25.9-5.4q18.7 0 31.6 7.4q12.8 7.3 19.3 19.9q6.8 12.6 6.8 28.6q0 4.3-0.7 8.6q-0.7 4.3-1.8 9.2h-86.3q0.9 12.2 7.9 18.9q7 6.6 18.9 6.6q9.2 0 16.2-3.9q7-3.8 10.9-10.1l26.5 13.7q-6.5 13.6-21.2 21.7q-14.4 7.9-33.1 7.9q-18.7 0-32.4-7.9zm18.7-87.5q-6.8 6.1-9.9 15.8h51.1q-0.2-9.7-6.3-15.8q-6.1-6-16.4-6q-11.7 0-18.5 6zm120.8 87.5q-14-7.9-22.1-21.7q-7.9-13.7-7.9-31.1q0-14.2 5.4-26.5q5.4-12.4 14.9-21.7q9.5-9.2 21.8-14.4q12.7-5.2 27.1-5.2q13.9 0 25.4 5q11.5 4.7 19.4 13.3q7.9 8.5 10.9 20l-30 11.7q-2.5-9.2-9.5-14.4q-7-5.2-16.7-5.2q-10.1 0-17.8 5.2q-7.4 5.2-11.7 13.8q-4 8.5-4 18.4q0 13.6 7.4 21.9q7.4 8.4 19.8 8.4q10.6 0 18.5-5.7q7.9-5.6 11.7-14.8l28.7 13.7q-4.3 10.8-13.1 19.4q-8.6 8.3-20.5 13q-12 4.8-25.7 4.8q-17.8 0-32-7.9zm133.2-5.9q-11.1-12.6-8.2-34.2l6.8-48.5h-20.7l4-29.3h0.5q9.4 0 15.5-5.2q6.4-5.2 7.7-14.6l1.1-8.1h34.3l-4.1 27.9h28.4l-4.1 29.3h-28.4l-6.7 48q-1.3 9.5 2.5 13.8q3.8 4 14 4q2 0 3.8 0q2-0.2 4.9-0.6l-2.4 28.6q-3.4 0.9-7.7 1.1q-4.1 0.2-7.4 0.2q-22.8 0-33.8-12.4z" />
	</g>
	<path id="Server" fill-rule="evenodd" class="s6" d="m1033.9 390.8q-12.1 0-22.7-2.1q-10.5-2.2-18.4-6.4q-7.9-4.5-12.3-11.2q-4.5-6.7-4.5-15.8q0-2.8 0.4-6q0.6-3.3 1.2-5.5h26.5q-0.2 1.2-0.8 3.4q-0.4 2.1-0.4 3.7q0 5.4 3.5 9.5q3.4 3.8 9.9 5.9q6.5 2 15.4 2q9.1 0 15.6-1.4q6.6-1.4 10.9-3.9q4.2-2.6 6.3-6.3q2-3.6 2-7.8q0-4.7-2.8-7.9q-2.7-3.3-7.3-5.7q-4.7-2.4-10.6-4.3q-5.8-1.8-12.3-3.6q-7.5-2.2-15.2-4.9q-7.5-2.8-14-7q-6.2-4.3-10.1-10.4q-3.6-6.2-3.6-15.1q0-11 4.4-18.9q4.7-8.1 12.6-13.3q8.1-5.5 18.4-8.1q10.5-2.7 22.1-2.7q11.3 0 20.8 2.1q9.7 1.8 16.8 5.8q7.3 3.9 11.4 10.2q4 6.2 4 14.7q0 1.9-0.2 4.3q-0.2 2.2-0.8 5.9h-26.1q0.6-2.3 0.6-3.3q0.2-1.2 0.2-1.8q0-7.3-6.9-11.3q-6.7-4.3-18.4-4.3q-9.5 0-16.8 2q-7.1 2.1-11.1 5.9q-3.9 3.6-3.9 9.1q0 3.7 2.2 6.5q2.3 2.6 6.1 4.6q4.1 1.9 9.1 3.7q5.3 1.6 10.9 3.2q8.1 2.5 16.4 5.3q8.5 2.8 15.6 7.3q7.3 4.2 11.6 10.9q4.4 6.5 4.4 16q0 12.9-5.2 21.9q-5.1 8.9-13.8 14.5q-8.5 5.5-19.2 8.1q-10.8 2.5-21.9 2.5zm126.1 0q-15.8 0-26.5-4.3q-10.5-4.4-15.8-13.6q-5.3-9.1-5.3-22.8q0-5.7 0.6-11.4q0.7-5.6 1.7-10.9q2.8-13.6 9.3-24.5q6.7-10.9 17.8-17.4q11.1-6.5 28.1-6.5q14.4 0 23.9 4.3q9.7 4.2 14.6 12.9q4.8 8.5 4.8 21.7q0 4.6-0.8 10.9q-0.6 6.1-2.2 12h-72.1q-0.4 2.4-0.6 4.6q-0.2 2-0.2 4.1q0 7.1 2.3 11.9q2.4 4.7 7.3 6.9q4.8 2.2 12.5 2.2q4.9 0 8.9-1q4.3-1.2 7.5-3.6q3.2-2.5 5.5-6.1q2.2-3.9 3-9.1h24.3q-1.6 10.1-5.9 17.6q-4.2 7.5-10.7 12.3q-6.5 4.9-14.6 7.3q-8.1 2.5-17.4 2.5zm-18.6-67h46.3q0.4-2.1 0.4-3.9q0.2-1.8 0.2-3.2q0-6.3-2.2-10.2q-2-3.8-6.1-5.6q-4-1.8-9.5-1.8q-7.7 0-13.3 2.8q-5.7 2.8-9.5 8.3q-3.9 5.5-6.3 13.6zm106.5 64.5h-24.7l18.8-106.4h19.8v16.8h1.2q2.9-5.1 6.3-9.4q3.7-4.4 8.5-7q4.9-2.9 11.6-2.9q3.6 0 6.4 0.6q2.9 0.6 4.3 1.2l-3.9 23.3h-7.7q-6.2 0-11.5 1.8q-5.3 1.9-9.3 5.5q-3.8 3.7-6.5 9.3q-2.6 5.5-3.8 13zm102 0h-26.1l-20.5-106.5h24.9l8.7 48q0.6 3.4 1.5 9.3q0.8 5.7 1.6 11.9q0.8 6.1 1.4 11.2h1q1.8-4.7 4.5-10.8q2.6-6 5.2-11.9q2.7-5.9 4.7-9.7l25.3-48h26.1zm104 2.4q-15.8 0-26.5-4.2q-10.5-4.5-15.8-13.6q-5.2-9.1-5.2-22.9q0-5.6 0.6-11.3q0.6-5.7 1.6-10.9q2.8-13.6 9.3-24.5q6.7-10.9 17.8-17.4q11.2-6.5 28.2-6.5q14.3 0 23.8 4.3q9.8 4.2 14.6 12.9q4.9 8.5 4.9 21.7q0 4.6-0.8 10.9q-0.6 6.1-2.3 11.9h-72q-0.4 2.5-0.6 4.7q-0.2 2-0.2 4q0 7.1 2.2 12q2.4 4.6 7.3 6.9q4.8 2.2 12.5 2.2q4.9 0 8.9-1q4.3-1.2 7.5-3.7q3.3-2.4 5.5-6q2.2-3.9 3-9.1h24.3q-1.6 10.1-5.9 17.6q-4.2 7.5-10.7 12.3q-6.5 4.9-14.6 7.3q-8.1 2.4-17.4 2.4zm-18.6-67h46.4q0.4-2 0.4-3.8q0.2-1.8 0.2-3.3q0-6.2-2.3-10.1q-2-3.8-6-5.6q-4.1-1.9-9.5-1.9q-7.7 0-13.4 2.9q-5.7 2.8-9.5 8.3q-3.9 5.4-6.3 13.5zm106.5 64.6h-24.7l18.8-106.5h19.9v16.8h1.2q2.8-5 6.2-9.3q3.7-4.4 8.5-7.1q4.9-2.8 11.6-2.8q3.6 0 6.5 0.6q2.8 0.6 4.2 1.2l-3.8 23.3h-7.7q-6.3 0-11.6 1.8q-5.2 1.8-9.3 5.5q-3.8 3.6-6.5 9.3q-2.6 5.5-3.8 13z" />
</svg>