<svg version="1.2" baseProfile="tiny-ps" xmlns="http://www.w3.org/2000/svg" viewBox="0 0 164 38" width="164" height="38">
	<title>utc_server-wordmark</title>
	<style>
		tspan { white-space:pre }
		.s0 { fill: #b900cd } 
		.s1 { fill: #e600ff } 
		.s2 { fill: #9b9b9b } 
		.s3 { fill: #ffffff } 
	</style>
	<g id="Background">
		<path id="Path 0" class="s0" d="m160.9 22.37h1.54v1.54h-1.54v-0.77v-0.77zm-160.9 7.73h1.56v1.54h-1.56v-0.77v-0.77z" />
		<path id="Path 1" class="s1" d="m162.44 22.37h1.56v1.54h-1.56v-0.77v-0.77z" />
		<path id="Path 2" class="s0" d="m157.81 17.72h1.54v1.54h1.54v1.56h-1.54v-1.56h-1.54v-0.77v-0.77zm-131.5 1.54h1.54v1.56h-1.54v3.09h-1.56v-3.09h1.56v-0.78v-0.78zm7.73 0h3.09v1.56h1.56v1.54h-1.56v-1.54h-3.09v-0.78v-0.78zm68.07 0h3.1v1.56h1.54v1.54h-1.54v-1.54h-3.1v-0.78v-0.78zm-97.46 1.56h1.54v1.54h1.56v1.54h-1.56v-1.54h-1.54v-0.77v-0.77zm6.19 0h1.54v1.54h1.56v1.54h-1.56v-1.54h-1.54v-0.77v-0.77zm7.73 0h3.1v1.54h-3.1v-0.77v-0.77zm32.5 0h3.09v1.54h-3.09v-0.77v-0.77zm23.21 0h1.54v1.54h-1.54v1.54h-1.56l0 1.54h-1.54v-3.09h3.1v-0.77v-0.77zm34.03 0l3.1 0v1.54l-3.1 0v-0.77v-0.77zm30.95 0h1.54v1.54h-1.54v-0.77v-0.77zm10.82 0l3.1 0v1.54l-3.1 0v-0.77v-0.77zm-122.21 1.54h1.54v1.54h-1.54v-0.77v-0.77zm29.4 0h1.54v1.54h-1.54v-0.77v-0.77zm71.17 0h1.54v1.54h-1.54v-0.77v-0.77zm27.84 0h1.56v1.54h-1.56v-0.77v-0.77zm-146.97 1.54h1.54v1.54h-1.54v-0.77v-0.77zm-4.64 1.54h1.54v1.56h-1.54v-0.78v-0.78zm10.83 1.56h1.54l0 1.54h-1.54v-0.77l0-0.77zm143.88 0h1.54v1.54h-1.54v-0.77l0-0.77zm-57.25 1.54h1.56v1.54h-1.56v-0.77v-0.77zm-83.54 1.54h1.56v1.54h-1.56v-0.77v-0.77zm3.1 0l1.54 0v3.1l-1.54 0v1.54h-1.54v-1.54h1.54v-1.55v-1.55zm12.38 0h1.54v1.54h1.54v1.56h-1.54v-1.56h-1.54v-0.77v-0.77zm37.13 0h1.54v1.54h-1.54v-0.77v-0.77zm21.66 0h1.54v1.54h-1.54v-0.77v-0.77zm57.23 0h1.56v1.54h-1.56v-0.77v-0.77zm-140.78 1.54h1.54v1.56l3.1 0v1.54h-3.1v-1.54h-1.54v-0.78v-0.78zm17.02 0h3.09v1.56h-3.09v-0.78v-0.78zm18.56 0h1.54v1.56h-1.54v-0.78v-0.78zm23.21 0h1.54v1.56h-1.54l0-0.78v-0.78zm6.19 0h1.54v1.56l1.54 0v1.54h-1.54v-1.54h-1.54v-0.78v-0.78zm13.92 0h1.54v1.56h-1.54v1.54h-1.54v-1.54h1.54v-0.78v-0.78zm64.98 0h1.54v1.56h-1.54v1.54h-1.54v-1.54h1.54v-0.78v-0.78zm-91.27 1.56h1.54v1.54h-1.54v-0.77v-0.77z" />
		<path id="Path 3" class="s2" d="m10.83 3.8h1.54v1.54h-1.54v-0.77v-0.77zm34.04 0h1.54v1.54h-1.54v-0.77v-0.77zm10.83 0h3.09v1.54h1.54v1.54h-1.54v-1.54h-3.09v-0.77v-0.77zm6.19 0h1.54v1.54h-1.54v-0.77v-0.77zm24.75 0h3.09v1.54h1.56v1.54h-1.56v-1.54h-3.09v-0.77v-0.77zm6.19 0h3.09v1.54h-3.09v-0.77v-0.77zm18.56 0l1.54 0v1.54l-1.54 0l0 3.09h-1.54l0-3.09h1.54v-0.77v-0.77zm13.92 0h1.56v1.54h-1.56v-0.77v-0.77zm13.93 0h1.54v1.54h-1.54v-0.77v-0.77zm-105.21 3.09h1.54l0 1.54h1.54v1.56h-1.54v-1.56h-1.54v-0.77l0-0.77zm-3.1 3.1h1.56v1.54h-1.56v-0.77v-0.77zm40.23 0h1.54v1.54h-1.54v-0.77v-0.77zm77.36 0h1.54v1.54h-1.54v-0.77v-0.77zm-129.96 1.54h1.56v1.54h-1.56v-0.77v-0.77zm-7.73 1.54h1.54v3.1h1.56v1.54h-1.56v-1.54h-1.54v-1.55v-1.55zm13.92 0h1.56v3.1h-1.56l0 1.54h-1.54l0-1.54h1.54v-1.55v-1.55zm34.04 0h1.54v3.1h-1.54v1.54h-1.54v-1.54h1.54v-1.55v-1.55zm27.85 0h1.54v1.54h-1.54v-0.77v-0.77zm-6.19 1.54h1.54v1.56h-1.54v-0.78v-0.78zm-43.33 1.56h1.56l0 1.54h-1.56l0-0.77v-0.77z" />
		<path id="Path 4" fill-rule="evenodd" class="s3" d="m12.38 3.8h4.64l0 9.27h3.1l0-9.27l6.19 0l0 9.27h-1.56v3.1h-1.54l0 1.54l-9.27 0v-1.54h-1.56v-3.1h-1.54l0-7.73h1.54v-1.54zm15.48 0h4.64v1.54h1.54l0 3.09h1.54v1.56h3.1l0-6.19l4.64 0l0 13.92h-4.64l0-1.54h-3.1v-1.56h-1.54v-1.54h-1.54v-3.09h-1.56l0 7.73h-3.09l0-13.92zm18.56 0h9.29v1.54h3.09v1.54h1.54l0 6.19h-1.54v3.1h-1.54v1.54h-12.38l0-12.38h1.54v-1.54zm4.64 10.82h1.54v-3.09h1.54v-3.1h-3.09v6.19zm12.38-10.82h10.83l0 4.63h-6.19v1.56h3.09v1.54h-3.09v1.54h6.19v4.64l-12.38 0l0-12.38h1.54v-1.54zm12.38 0h10.83v1.54h3.09v1.54h1.56l0 4.64h-1.56v1.54h-3.09v1.54h3.09v1.56h1.56v1.54h-6.19v-1.54h-3.1v-1.56h-1.54v3.1h-4.64l0-13.92zm20.11 0l12.38 0l0 6.19h-4.63l0 7.73h-6.19l0-7.73h-4.64l0-4.64h3.09v-1.54zm17.02 0h9.29v1.54h1.54l0 12.38h-4.64v-4.64h-4.64v4.64l-4.63 0v-9.29h1.54l0-3.09l1.54 0v-1.54zm3.1 7.73h3.09v-1.54h-3.09v1.54zm10.83-7.73l4.63 0l0 10.82h6.19v3.1h-12.38l0-12.38h1.56v-1.54zm13.92 0h10.83l0 4.63h-6.19v1.56h3.09v1.54h-3.09v1.54h6.19v4.64h-12.38l0-12.38h1.54v-1.54z" />
		<path id="Path 5" fill-rule="evenodd" class="s1" d="m27.85 19.26h6.19v1.56h3.09v1.54h3.1v-1.54l10.83 0v1.54h6.19v1.54h3.09v-1.54l10.83 0v3.09h1.54v4.64h1.56v-6.19h3.09v-1.54h-1.54v-1.54h4.64v1.54h3.09v-1.54h6.19v1.54h1.56v-3.1h10.82v1.56h3.1v1.54l4.64 0v1.54h1.54v-3.09l12.38 0v1.54h3.1v1.54h3.09v-1.54h10.83v-1.54h9.27v1.54l6.19 0v1.54h-1.54l0 6.19l-4.64 0v1.54l3.1 0v1.56h-1.54v1.54l-12.38 0v-3.1h-1.56v4.64h-12.38v-4.64h-3.09v-1.54h3.09v-6.19h-1.54v3.1l-4.64 0v3.09h-3.09v1.54h3.09v3.1h-6.19v-3.1l-3.09 0v-1.54l3.09 0v-3.09l-4.64 0v-3.1h-1.54v3.1h-1.54v1.54h-3.1v1.54h-9.27v1.54h3.09v1.56h-4.63v-1.56h-3.1v1.56h-1.54v1.54h-9.29v-1.54l-1.54 0v-1.56h-3.1v-1.54h-4.63l0 3.1h3.09v1.54h1.54v1.54h-6.19v-1.54h-3.09v-1.54h-1.54v3.09h-4.64l0-4.64h-3.1v1.56h1.56v1.54h-6.19v-1.54h-3.1v-1.56h-1.54v3.1l-4.64 0v-3.1l-3.1 0v-1.54h-3.09v1.54h1.54v1.56l-6.19 0v-1.56h-6.19v-1.54h1.54v-6.19h-1.54v3.1l-7.73 0l0 3.09h3.09v1.54h3.1v1.56h-1.54v1.54h-6.19v-1.54l-3.1 0v-1.56h-4.64v-1.54h3.1l0-4.64h1.54v-1.54h3.1v-1.54h-1.56v-1.54h6.19v1.54l6.19 0v1.54h4.64v-1.54h-3.09v-1.54h1.54v-1.56zm13.92 4.64h1.56v-1.54h-1.56v1.54zm41.77 0h-3.09v6.19h1.54v-1.54h1.54v-4.64h3.1v-1.54h-3.1v1.54zm9.29 0h1.54v-1.54h-1.54v1.54zm47.96 0h1.54v-1.54h-1.54v1.54zm-111.4 6.19h3.1v-6.19h-3.1v6.19zm9.29 0h1.54v-6.19h-1.54v6.19zm17.02-1.54h-1.56v1.54h-4.63v1.54h4.63v-1.54h3.1v-6.19h-1.54v4.64zm34.03 1.54h1.56v-6.19h-1.56v6.19zm47.96-3.09h-6.19v1.54h4.64v1.54h-7.73v1.54h7.73v-1.54h3.1v-6.19h-1.56v3.1zm-40.21 0h3.09v-1.56h-3.09v1.56zm47.96 3.09h1.54v-1.54h1.54v-3.1h-3.09v4.64zm-99.02-1.54h3.1v-1.54h-3.1v1.54zm40.23 3.09h1.54v-1.54h-1.54v1.54zm55.69 0h1.54v-1.54h-1.54v1.54zm15.48-12.38h1.54v1.56h1.54v1.54h-3.09v-3.1zm-150.07 3.1h1.54v1.54h-1.54v-1.54zm-4.64 1.54h3.09v1.54h-1.54l0 4.64h-1.54l0-6.19zm156.25 0h1.54v3.1h-1.54v-3.1z" />
		<path id="Path 6" class="s0" d="m34.04 22.37h1.54v1.54h-1.54v-0.77v-0.77zm111.4 1.54h1.54v1.54h-1.54v-0.77v-0.77zm-49.52 1.54h1.56v1.56h-1.56v-0.78v-0.78zm-51.05 1.56h1.54v1.54h-1.54v-0.77v-0.77zm-7.75 1.54h1.56v1.54h-1.56v-0.77v-0.77zm44.87 0h1.54v1.54h-1.54v-0.77v-0.77zm52.6 0h1.54v1.54h-1.54v-0.77v-0.77zm12.38 0h1.54v1.54h-1.54v-0.77v-0.77zm-99.02 1.54h1.56v1.54h-1.56v-0.77v-0.77zm37.14 0h1.54v1.54h-1.54v-0.77v-0.77z" />
		<path id="Path 7" class="s2" d="m51.06 6.89h1.54l0 1.54h-1.54v-0.77l0-0.77zm63.42 3.1h1.56v1.54h-1.56v-0.77v-0.77zm-61.88 1.54h1.54v1.54h-1.54v-0.77v-0.77z" />
		<path id="Path 8" class="s3" d="m63.44 25.45h1.54v1.56l1.54 0v3.09l-1.54 0v-1.54h-1.54v1.54h-1.54v-3.09h1.54v-0.78v-0.78z" />
		<path id="Path 9" class="s1" d="m80.46 6.89l1.54 0l0 1.54h1.54l0-1.54h1.56l0 3.1h-1.56v1.54h-1.54v-1.54h-1.54v-1.55l0-1.55z" />
	</g>
</svg>