<svg version="1.2" xmlns="http://www.w3.org/2000/svg" viewBox="0 0 1195 277" width="164" height="38"><style>.a{fill:#fefffe}</style><path class="a" d="m522.9 63c0.9 0 18.3 28.8 75.5 128.1l1-124.5h40.1v105.9h73v40.1l-146.9-0.1-21-36.5c-11.5-20-21.4-36.4-21.9-36.4-0.5-0.1-10.3 16.4-42.8 73h-221.7l-0.9-136.9-39.2 67.5c-21.6 37.2-39.7 67.5-40.2 67.5-0.5 0-3.8-5.1-7.4-11.3-3.6-6.3-21.3-36.9-39.4-68-18.1-31.1-33.8-58.4-37.1-64.8l42.9 0.1 20 34.7c11.1 19 20.5 34.6 21 34.6 0.5 0 10-15.6 41.1-69.3l79.3-0.1v130.5l89.5-89.4-65.8-0.9v-40.2h163.3l-105.8 105.9h66.6l0.9 18.6 37.2-64.1c20.4-35.2 37.9-64 38.7-64zm209.6 3.6h40.2v146h-40.2v-73zm58.4 0h163.3l44.7 44.7 45-44.7h56.1l-81 81.2v64.8h-40.2v-64.8l-30.5-30.6c-16.8-16.8-31.2-30.5-32-30.5-0.7 0-1.3 4.5-1.3 20.1h-42v105.8h-40.1v-105.8h-42v-20.1z"/></svg>