<svg version="1.2" xmlns="http://www.w3.org/2000/svg" viewBox="0 0 1195 277" width="164" height="38"><style>.a{fill:#fefffe}</style><path class="a" d="m509.7 50c1 0 21.5 34 89 151l1.1-146.7h47.3v124.7h86v47.4l-173.1-0.1-24.8-43c-13.6-23.7-25.2-43-25.8-43.1-0.6 0-12.2 19.4-50.5 86.1l-261.3 0.1-1.1-161.4-46.2 79.6c-25.5 43.8-46.8 79.6-47.4 79.6-0.6 0-4.5-6.1-8.7-13.4-4.2-7.4-25.1-43.5-46.5-80.1-21.3-36.7-39.9-68.9-43.7-76.4l50.5 0.1 23.7 40.8c13 22.5 24.1 40.9 24.7 40.9 0.6 0 11.8-18.4 48.4-81.7l93.6-0.1v153.8l105.4-105.4-77.4-1.1v-47.3h192.4l-124.7 124.8 78.5-0.1 1.1 22 43.8-75.5c24.1-41.5 44.6-75.5 45.7-75.5zm247.1 4.3h47.3v172.1h-47.3v-86.1zm68.8 0l192.5 0.1 52.7 52.6 53.1-52.7h66.1l-95.5 95.7v76.4h-47.4v-76.4l-36-36c-19.8-19.8-36.7-36-37.6-36-0.9 0-1.6 5.3-1.6 23.7h-49.5v124.7h-47.3v-124.7h-49.5v-23.7z"/></svg>